M48
;Layer_Color=9474304
;FILE_FORMAT=2:5
INCH,TZ
;TYPE=PLATED
T1F00S00C0.01181
T2F00S00C0.03150
T3F00S00C0.03543
%
T01
X-2000Y-24000
X1000
X4000
X7000
X10000
X-6500Y-13500
Y-10500
Y-7500
Y-4500
T02
X-40055Y-21866
X-36055Y-18311
X-22555Y-17866
X-19000Y-21866
Y1000
X-23000Y-2555
X-36500Y-3000
X-40055Y1000
X78055
X81610Y-3000
X95110Y-2555
X95555Y-17866
X82055Y-18311
X78055Y-21866
X99110
Y1000
T03
X-18500Y10000
X-79000Y45000
X-89000
X-99000
M30
