G04*
G04 #@! TF.GenerationSoftware,Altium Limited,Altium Designer,21.0.8 (223)*
G04*
G04 Layer_Color=32896*
%FSLAX25Y25*%
%MOIN*%
G70*
G04*
G04 #@! TF.SameCoordinates,8BDFEA7E-33B9-40F2-A198-A1E5764946FA*
G04*
G04*
G04 #@! TF.FilePolarity,Positive*
G04*
G01*
G75*
%ADD11C,0.01000*%
D11*
X-77001Y23670D02*
X-79666D01*
X-80999Y25003D01*
X-79666Y26335D01*
X-77001D01*
Y27668D02*
X-80999D01*
Y29668D01*
X-80333Y30334D01*
X-79666D01*
X-79000Y29668D01*
Y27668D01*
Y29668D01*
X-78334Y30334D01*
X-77667D01*
X-77001Y29668D01*
Y27668D01*
X-80999Y31667D02*
X-78334D01*
X-77001Y33000D01*
X-78334Y34333D01*
X-80999D01*
X-79000D01*
Y31667D01*
X-77001Y35666D02*
Y38332D01*
Y36999D01*
X-80999D01*
X-87001Y27668D02*
X-90999D01*
Y29668D01*
X-90333Y30334D01*
X-87667D01*
X-87001Y29668D01*
Y27668D01*
Y34333D02*
Y31667D01*
X-90999D01*
Y34333D01*
X-89000Y31667D02*
Y33000D01*
X-87001Y35666D02*
Y38332D01*
Y36999D01*
X-90999D01*
X-97667Y30334D02*
X-97001Y29668D01*
Y28335D01*
X-97667Y27668D01*
X-100333D01*
X-100999Y28335D01*
Y29668D01*
X-100333Y30334D01*
X-99000D01*
Y29001D01*
X-100999Y31667D02*
X-97001D01*
X-100999Y34333D01*
X-97001D01*
Y35666D02*
X-100999D01*
Y37665D01*
X-100333Y38332D01*
X-97667D01*
X-97001Y37665D01*
Y35666D01*
M02*
