G04*
G04 #@! TF.GenerationSoftware,Altium Limited,Altium Designer,21.0.8 (223)*
G04*
G04 Layer_Physical_Order=1*
G04 Layer_Color=255*
%FSLAX25Y25*%
%MOIN*%
G70*
G04*
G04 #@! TF.SameCoordinates,8BDFEA7E-33B9-40F2-A198-A1E5764946FA*
G04*
G04*
G04 #@! TF.FilePolarity,Positive*
G04*
G01*
G75*
%ADD15C,0.04000*%
%ADD16C,0.05906*%
%ADD17R,0.05906X0.05906*%
%ADD18C,0.04331*%
%ADD19C,0.02559*%
D15*
X-6500Y-7500D02*
Y-4500D01*
X-9000Y-10000D02*
X-6500Y-7500D01*
X-39000Y-10000D02*
X-9000D01*
X-66000Y-23500D02*
X-52500D01*
X-39000Y-10000D01*
X-6500Y-10500D02*
Y-7500D01*
X-68500Y-21000D02*
Y30500D01*
X-95500Y35000D02*
X-73000D01*
X-68500Y30500D01*
X-99000Y38500D02*
Y45000D01*
Y38500D02*
X-95500Y35000D01*
X-68500Y-21000D02*
X-66000Y-23500D01*
X-6500Y-13500D02*
Y-10500D01*
Y-19500D02*
Y-13500D01*
Y-19500D02*
X-2000Y-24000D01*
X7000D02*
X10000D01*
X4000D02*
X7000D01*
X1000D02*
X4000D01*
X-2000D02*
X1000D01*
D16*
X-18500Y10000D02*
D03*
X-79000Y45000D02*
D03*
X-89000D02*
D03*
D17*
X-99000D02*
D03*
D18*
X99110Y1000D02*
D03*
X78055D02*
D03*
Y-21866D02*
D03*
X99110D02*
D03*
X81610Y-3000D02*
D03*
X95110Y-2555D02*
D03*
X95555Y-17866D02*
D03*
X82055Y-18311D02*
D03*
X-36055D02*
D03*
X-22555Y-17866D02*
D03*
X-23000Y-2555D02*
D03*
X-36500Y-3000D02*
D03*
X-19000Y-21866D02*
D03*
X-40055D02*
D03*
Y1000D02*
D03*
X-19000D02*
D03*
D19*
X-6500Y-4500D02*
D03*
Y-13500D02*
D03*
Y-10500D02*
D03*
Y-7500D02*
D03*
X10000Y-24000D02*
D03*
X7000D02*
D03*
X4000D02*
D03*
X1000D02*
D03*
X-2000D02*
D03*
M02*
