M48
;Layer_Color=9474304
;FILE_FORMAT=2:5
INCH,TZ
;TYPE=PLATED
T1F00S00C0.01181
T2F00S00C0.01575
T3F00S00C0.02756
T4F00S00C0.03543
T5F00S00C0.03937
T6F00S00C0.04016
T7F00S00C0.04331
T8F00S00C0.10827
%
T01
X26000Y43000
X55071Y43643
X55000Y60000
X60000Y70000
X70000
X50000
X40000
X30000
Y90000
Y110000
Y130000
Y150000
X53831Y139694
Y104435
X90000Y110000
X96409Y113439
X110685Y114121
Y117287
Y120453
X118851Y117593
X122394Y128114
X122547Y143429
X125777Y153321
X130000Y150000
X141786Y150924
Y148561
Y153412
X152709Y149768
X155071
X153890Y120240
X154087Y117287
Y114121
X154000Y107500
X154698Y94435
X143944Y99741
X136173Y117973
X139716Y67506
X140000Y50000
X155519Y71052
X95000Y80000
X85000
X90000Y50000
X98384Y148561
Y150924
Y153412
X157433Y149768
X162157Y143418
X172591Y133232
X177209Y125358
X186568Y122996
X187747Y109217
X179087Y105807
X176579Y105807
X167434Y105000
X167423Y102708
X159264Y103364
X159250Y106148
X156437
X156650Y95757
X159906Y71034
X172281Y70106
X170949Y63785
X169000Y76827
X179874Y83232
X180268Y90732
X189128Y83809
X204442Y86000
X208040Y79891
X219244Y76369
Y71584
X240504Y76020
X244323Y77500
X244441Y82051
X242824Y88179
X245228Y92437
Y97437
X240898Y103705
X239323Y108429
X240000Y130000
X243260Y138189
X235000Y140000
X231337Y137500
X221781Y136046
X222394Y145607
X222787Y149826
X219112Y147950
X215570Y149492
X215087Y145831
X209008Y148587
X200937Y145607
Y153429
X193654Y143862
X193771Y132051
X197197Y129546
X202709Y134807
X208741Y125752
X219244Y126126
X223969Y126125
X243141Y148861
X256192Y114220
X264000Y105127
X274715Y105339
X276457Y93047
Y89124
X260162Y92237
X261462Y75732
X261500Y72053
X264872Y77435
X278500Y45500
X276030Y42500
X185000Y60000
X197984Y104014
X171706Y119059
X167362Y118646
X161764Y160272
X161484Y163020
Y165382
X167814Y176736
X170603Y195831
X160386Y195458
X158221Y199079
X165110Y212980
X163852Y226244
X165091Y238744
X160189
X160000Y250000
X170000
X173500Y241000
X177000Y240713
X181055Y243075
X184992Y246618
X190504Y247406
X196803Y245830
X193654Y241894
X193063Y230083
X188142Y228785
X179480Y227329
X171500Y237000
X176331Y206264
X177905Y201933
X185982Y205000
X189500Y209336
X186568Y214236
X197197Y214500
X196947Y221142
X206252Y221126
X210934
X206252Y215910
X205500Y212169
X205549Y206545
X200740Y207248
X195745Y205742
X196608Y196618
X191685
X202000Y181362
X209795
X203102Y163012
X195745Y167500
X236236Y164563
X237641Y172043
X246000Y169150
Y166500
Y164000
X250000Y170000
X247984Y198600
X245105Y196353
X240732Y196213
X235000Y198500
X233000Y193000
X222500Y195000
X221500Y200500
X230873Y203606
X237020Y208035
X240110
X243063
X245360Y225358
X239134Y225480
X227905Y225358
X231055Y222012
X227905Y218584
X223000Y214965
X221500Y226500
X222394Y233626
Y239531
X217295Y235579
X220000Y250000
X219638Y255500
X230985Y255392
X236891
X245031Y255057
X249140
X250347Y265517
X257080Y261972
X262945Y270240
X261764Y276933
X261852Y282445
X275000Y280000
X273451Y269311
X275000Y260000
X272787Y248744
X263339Y249727
Y244961
X262039Y234527
Y230398
X262000Y226146
Y221716
X262039Y217204
Y212873
X251406Y221344
X252000Y229167
X249383Y235273
X231055Y228785
X199547
X204677Y244256
X207600Y247141
X206252Y256461
X205000Y260000
X201470Y265774
X189988Y262122
X190000Y270000
X195000Y280000
X191882Y283621
X191882Y291558
X188535
X200799Y288741
X205000Y280000
X225000
X226500Y284000
X231029Y291331
X221231Y290615
X225000Y300000
X238634Y299439
X243752
X251129Y298173
X256347
X265000Y300000
X275000
X270000Y310000
X260000
X270000Y290000
X249130Y288548
X251205Y277023
X238142Y272209
Y268665
Y263941
X275543Y219059
X273969Y197799
X274002Y194542
X259402Y195852
X210000Y209336
X160500Y297500
X157500
X152315Y304030
Y307642
X138535Y297406
X133811Y301736
X96803Y301343
X90110Y302524
X92000Y304440
X87722Y300161
X86961Y295410
Y292490
X83811Y287169
X90898Y287563
X85000Y280000
X78693Y292287
X50000Y290000
X30000
Y270000
Y250000
Y230000
Y210000
Y190000
Y170000
X53831Y174435
Y204435
X53850Y219435
Y244435
X94201Y241205
Y238646
Y236087
Y233528
X90974Y229761
X94635Y224374
X95185Y218935
Y215735
Y212536
Y209336
X90898Y206163
X94835Y199079
X97188Y192198
X116135Y189532
X120819Y186776
Y183232
X125093Y180870
Y174965
X125191Y190309
X122500Y198874
X129480Y197366
X129495Y201435
X124713Y209336
X121760
X118807
Y212536
X121760
X124713
Y215735
X121760
X118807
Y218935
X121760
X124713
X134205Y215516
Y223500
X132500Y229739
X134303Y235000
X123891Y235584
Y237853
Y240122
X119791Y241204
Y238645
Y236086
Y233527
X109162Y233429
Y235988
Y238547
Y241106
X104631
Y238547
Y235988
Y233429
X99953Y256461
X90898Y256520
X109008Y263547
X125000Y260000
X150000Y270000
X155000Y240000
X156000Y226047
X153807Y211000
X150347Y209610
X138535Y210398
X141685Y221815
X153994Y200543
X151134Y189138
X146606Y190516
X148587Y170240
X137954Y162760
Y160398
X118562Y160398
Y162760
X98365
Y160398
X85000Y160000
X40000Y310000
X35000Y320000
X29985Y322342
X30000Y330000
X40000
X50000
X60000
X79823Y327528
X75000Y340000
X70000Y350000
X75000Y360000
X65000
X55000
X45000
X35000
X40000Y350000
X30000
X35000Y340000
X90000Y350000
X115000Y340000
X112053Y333433
X115000Y320000
X125000
X103516Y324256
X95000Y320000
X135000Y340000
X149845Y341305
X154500
X195000Y340000
X191791Y324935
X210000Y330000
X219165Y324413
X225000Y320000
X235000
X240000Y330000
X250000
X260000
X270000
X275000Y340000
X265000
X270000Y350000
X275000Y360000
X265000
X255000
X245000
X235000
X225000
X230000Y350000
X220000
X225000Y340000
X235000
X230000Y330000
X265000Y320000
X275000
T02
X87397Y133994
X90350
X93302
X96255
X98814Y132420
Y135595
X104500Y135594
X107453
X110406
Y132395
X107453
X104500
X116092Y132420
X119044Y132395
X121997
Y135595
X119044
X116092
X127726Y133944
X130738Y133969
X133751Y133994
X136704
X139657
X142216Y132420
Y135595
X147902Y135594
X150854
X153807
Y132395
X150854
X147902
X115855Y209336
X112902
X109949
X106996
X104043
X101091
X98138
Y212536
X101091
X104043
X106996
X109949
X112902
X115855
Y215735
X112902
X109949
X106996
X104043
X101091
X98138
Y218935
X101091
X104043
X106996
X109949
X112902
X115855
T03
X260898Y81684
X277827
Y100582
X260898
T04
X33500Y74500
Y84500
Y94500
Y104500
Y114500
Y124500
X43500
Y114500
Y104500
Y94500
Y84500
X43500Y74500
X90478Y76146
X100478
X43500Y134500
X33500
X33500Y144500
Y154500
X43500
Y144500
X184484Y74000
X194484
X192050Y64000
X202050
Y54000
X212050
X222050
Y64000
X232050
X242050
Y54000
X252050
Y64000
X272050
Y54000
X232050
X212050Y64000
X192050Y54000
X182050
Y64000
X43500Y164500
X33500
Y174500
Y184500
Y194500
Y204500
Y214500
Y224500
Y234500
Y244500
Y254500
Y264500
X43500
Y254500
Y244500
Y234500
Y224500
Y214500
Y204500
Y194500
Y184500
Y174500
X125000Y268000
Y278000
Y288000
X130000Y313500
X140000
X120000
X110000
X100000
X90000
X97000Y353500
X107000
X117000
X127000
X137000
X147000
X147039Y333583
X137039
X157039
X167039
X177039
X187039
X187000Y353500
X197000
X207000
X177000
X167000
X157000
X179165Y313154
X189165
X199165
X209165
X219165
X229165
T05
X95091Y175358
X104933
X138744
X148587
T06
X63850Y74435
Y84435
Y94435
Y104435
Y114435
Y124435
Y134435
Y144435
Y154435
X73850
Y144435
Y134435
Y124435
Y114435
Y104435
Y94435
Y84435
Y74435
Y164435
X63850
Y174435
Y184435
Y194435
Y204435
Y214435
Y224435
Y234435
Y244435
Y254435
Y264435
X73850
Y254435
Y244435
Y234435
Y224435
Y214435
Y204435
Y194435
Y184435
Y174435
T07
X86803Y54886
X96803
X106803
X120661Y58035
X140661
Y78035
X130661
X120661
T08
X68713Y55262
X159264Y55262
Y283608
X68713
M30
