M48
;Layer_Color=9474304
;FILE_FORMAT=2:5
INCH,TZ
;TYPE=PLATED
T1F00S00C0.00787
T2F00S00C0.03543
%
T01
X471709Y242354
X461500Y248209
X456500
X454000Y252000
X451500Y255500
X446500Y247500
X445143Y242016
X450000Y235000
X437500
X443146Y229146
X428646Y242854
X428791Y254854
X427646Y267854
X450854
X461000Y270709
X466000
T02
X472748Y278000
X480622
X464874
X457000
X449126
X441252
X433378
X425504
X417630
X409756
M30
