M48
;Layer_Color=9474304
;FILE_FORMAT=2:5
INCH,TZ
;TYPE=PLATED
T1F00S00C0.01181
T2F00S00C0.02756
T3F00S00C0.03543
T4F00S00C0.03937
T5F00S00C0.04016
T6F00S00C0.04331
T7F00S00C0.10827
%
T01
X26000Y43000
X55071Y43643
X56000Y48000
Y64000
X80000
X82028Y74500
X104349Y84284
Y87598
X106512Y98427
X110685Y114121
Y117287
Y120453
X118851Y117593
X122394Y128114
X121997Y132395
X119044
X116092Y132420
Y135595
X119044
X121997
X127726Y133944
X130738Y133969
X133751Y133994
X136704
X139657
X142676Y132470
Y135613
X147902Y135594
X150854
X153807
Y132395
X150854
X147902
X153890Y120240
X154087Y117287
Y114121
X154000Y107500
X153514Y94291
X154480Y70900
X139716Y67506
X124000Y72000
X125949Y83660
X124647Y91680
X136173Y117973
X130084Y146112
Y150721
X125777Y153321
X122547Y143429
X110406Y135594
X107453
X104500
Y132395
X107453
X110406
X99319Y132395
Y135819
X96255Y133994
X93302
X90350
X87397
X86803Y145025
Y150311
X82100Y153321
X98384Y153412
Y150924
Y148561
X96409Y113439
X53831Y104435
Y139694
X26000Y132341
X25700Y85912
X88000Y48000
Y42385
X123700Y44637
X144000Y42385
Y48000
X141786Y148561
Y150924
Y153412
X154698Y154435
X154664Y151078
X154698Y147950
X162000Y146000
X172591Y133232
X177209Y125358
X185798Y123360
X189500Y121308
X192703Y127994
X195165Y132854
X187667Y132395
X187661Y137291
X188029Y144633
X193654Y144540
Y140973
X191053Y148512
X204000Y152000
X215570Y149492
X215087Y145831
X219112Y147950
X222787Y149826
X222394Y145607
X232774Y141805
X235000Y139000
X239602Y139354
X243601Y143240
X249800Y143100
X258972Y131891
X259402Y125842
X263900Y125700
X260898Y120539
X262354Y112142
X259048
X259443Y105409
X262694Y105212
X256353Y103863
X256359Y96912
X253578Y96900
X259900Y96100
X262354Y92117
X276457Y93047
Y89124
X274093Y78032
Y75000
X277407
X265012
X261828
X265012Y78228
X254119Y74533
X250542Y76369
Y80306
X246309Y93047
X245600Y106700
X242050Y122205
Y125700
X235772Y127457
X231836Y124822
X227905Y122383
X227232Y127240
X221395Y131465
X209434Y122797
X201300Y128114
X198100Y111100
X198323Y107500
X195745Y101766
X188108Y103364
X176051Y102253
Y105599
X165573Y103705
Y100582
Y97437
X167814Y93666
X156654Y95757
X159264Y103364
X159250Y106148
X156437
X168241Y119054
X171841Y119194
X180175Y91680
X179283Y72606
X173619Y68823
X173700Y65100
X169667Y76752
X161000Y70900
X168241Y42607
X173901Y42798
X189329Y78705
X212592Y79143
X216285Y76369
X214800Y72400
X214673Y68868
X222394Y103124
X208936Y108776
X275286Y105212
X278500Y107306
X274160Y130994
X270765Y127994
X236776Y156234
X278500Y45500
X276030Y42500
X246000Y164000
Y166500
Y169150
X236981Y169630
X240000Y160000
X225892Y171993
X211704Y180721
X201922Y181566
X203559Y173684
X195745Y169078
X190864Y159567
X161764Y160272
X161484Y163020
Y165382
X167814Y176736
X157977Y185543
X159264Y194146
X170603Y195831
X176659Y201565
X179323Y204546
X176664Y207285
X178689Y218200
X185700Y217386
X198078
Y207989
X201649Y205589
X205780Y205720
X204500Y211000
X205780Y214496
X209091Y215485
X209402Y209336
X211824Y199079
X221690Y200500
X222500Y204669
X225892
X227905Y208000
X226751Y214965
X227905Y218584
X231055Y222012
X228384Y225231
X231055Y228785
X221500Y226500
X221922Y233626
Y239531
X217295Y235579
X211704Y224603
X207573Y225087
X199547Y228785
X193063Y230083
X188697Y228857
X182952Y228373
X179480Y227329
X177012Y240701
X173500Y241000
X171500Y237000
X165542Y238744
X160189
X160003Y247141
X164525Y249793
X169820Y265522
X168000Y272000
X190323Y267136
X201470Y265774
X206252Y256461
X207600Y247141
X204934Y244256
X198078Y245830
X193654Y241894
X190504Y247406
X185000Y252549
X181210Y243044
X163852Y226244
X156686Y216344
X161842Y206654
X193797Y202928
X192500Y196000
X196500
X222500Y195000
X238928Y199827
X244047Y205180
X251129Y200373
X255388Y202089
X259402Y194640
X274715Y194776
Y199459
X269967Y212818
Y217386
Y222012
Y226098
Y230500
Y234527
X277000Y239000
X274337Y248744
X278594Y258478
X269556Y257984
X262513Y260451
X255395Y259025
X256921Y265517
X249584Y263921
X249579Y268691
X244809Y268686
X244814Y263916
X238142Y263941
X237009Y257632
Y254600
X230985Y255392
X219638Y255500
X214243Y252000
X211824Y249244
X224254Y246963
X242452Y245018
X242447Y249788
X247217Y249793
X247222Y245023
X254000Y252000
X261634Y241784
X257500Y230870
X258444Y212974
X261240Y210295
X247222Y216840
X244487Y219059
X240787Y237213
X240937Y257534
X240734Y273500
X254000Y273000
X251205Y277023
X261764Y276933
X262945Y272650
X272000Y272000
X275000Y269311
X276000Y280000
X272000Y288000
X276000Y296000
X268000
X272000Y304000
X264000
X268000Y312000
X276000
X256347Y298173
X251129
X243752Y299439
X238634
X230985Y300712
X231029Y291331
X221231Y290615
X214243Y288741
X214520Y293054
X214374Y282445
X221690Y279691
X224643Y274300
X226500Y284000
X224000Y304000
X216000
X220000Y312000
X228000
X236000
X212000
X204934Y301251
X201178Y303271
X200799Y288741
X191882Y291558
X188535
X191076Y283621
X204000Y280000
X215450Y271703
X219008Y268282
X215356Y260684
X249130Y288548
X261852Y282445
X249078Y179854
X250742Y175870
X148587Y170240
X137954Y162760
Y160398
X118562Y160398
Y162760
X120000Y176000
X125093Y174965
Y180870
X120819Y183232
Y186776
X116135Y189532
X125191Y190309
X122500Y198874
X129480Y197366
X129495Y201435
X141113Y201259
X144500
X143000Y197918
X152709Y201933
Y205429
X147500Y212000
X147695Y215516
Y221800
X140500Y220800
X138744Y227329
X133664Y232400
X131100
X128536
X123761Y234500
Y237064
Y239627
Y242191
X117961Y243600
Y247929
X112157Y243409
Y240845
Y238281
Y235718
X106996Y235791
Y238355
Y240918
Y243482
X94201Y241205
Y238646
Y236087
Y233528
X90974Y229761
X94635Y224374
X95185Y218935
X98138
X101091
X104043
X106996
X109949
X112902
X115855
X118807
X121760
X124713
Y215735
X121760
X118807
X115855
X112902
X109949
X106996
X104043
X101091
X98138
X95185
Y212536
X98138
X101091
X104043
X106996
X109949
X112902
X115855
X118807
X121760
X124713
Y209336
X121760
X118807
X115855
X112902
X109949
X106996
X104043
X101091
X98138
X95185
Y203112
X95097Y199086
X97188Y192198
X94936Y186683
X90898Y206163
X53831Y204435
X53850Y219435
Y244435
X56000Y256000
X90409Y256520
X99953Y256461
X93065Y267255
X87964Y274045
X83811Y279465
Y282825
Y287169
X90898Y287563
X86961Y292490
Y295410
X87722Y300161
X90110Y302524
X92000Y304440
X95394Y301654
X104631Y305612
Y308764
Y311915
X84000Y312000
X78693Y292287
X52000Y296000
X46007Y296732
X27300Y295500
X36000Y312000
X32000Y272000
X25700Y264400
Y215584
Y180454
X53831Y174435
X80000Y160000
X83098Y162760
X98365
Y160398
X112000Y176000
X154283Y188927
X138535Y210398
X132236Y215485
X150524Y227187
X156150Y226520
X153572Y254542
Y260000
X148000Y264000
X140000
X144000Y256000
X136000Y247621
X128084Y267255
X125249Y264732
X109949Y268689
X105163Y273370
X114906Y273772
X140000Y280000
X138535Y297406
Y302551
X138000Y342190
X127000Y336824
X120000Y336000
X112000
X108000Y328000
X103510Y326760
X98000Y333000
X84000Y328000
X79823Y327528
X68000Y328000
X60000
X44000
X36000
X29985Y322342
X40000Y320000
Y336000
X32000
X36000Y344000
X40000Y352000
X32000
X36000Y360000
X44000
X52000
X60000
X68000
X76000
X72000Y352000
X64000
X68000Y344000
X77800Y315646
Y312684
X104631Y315067
X184000Y320000
X212000Y328000
X220000
X228000
X236000
X244000
X260000
X268000
X276000
X272000Y336000
X264000
X268000Y344000
X276000
X272000Y352000
X264000
X268000Y360000
X276000
X260000
X252000
X244000
X236000
X228000
X220000
X224000Y352000
X232000
X240000
X236000Y344000
X228000
X220000
X232000Y336000
Y320000
X224000
X264000
X272000
T02
X260898Y81684
X277827
Y100582
X260898
T03
X33500Y74500
Y84500
Y94500
Y104500
Y114500
Y124500
X43500
Y114500
Y104500
Y94500
Y84500
X43500Y74500
X90478Y76146
X100478
X43500Y134500
X33500
X33500Y144500
Y154500
X43500
Y144500
X184100Y74100
X194100
X192050Y64000
X202050
Y54000
X212050
X222050
Y64000
X232050
X242050
Y54000
X252050
X262050
Y64000
X272050
Y54000
X252050Y64000
X232050Y54000
X212050Y64000
X192050Y54000
X182050
Y64000
X177000Y311600
X167000
X157000
X147000
X137000
X127000
X115839Y292212
X108768Y285140
X101697Y278069
X43500Y264500
X33500
Y254500
Y244500
Y234500
Y224500
Y214500
Y204500
Y194500
Y184500
Y174500
Y164500
X43500
Y174500
Y184500
Y194500
Y204500
Y214500
Y224500
Y234500
Y244500
Y254500
X127000Y321600
X137000
X147000
Y331700
X137000
Y353500
X147000
X127000
X117000
X107000
X97000
X157000
X167000
X177000
X187000
X197000
X207000
X187000Y331700
X177000
X167000
X157000
Y321600
X167000
X177000
T04
X95091Y175358
X104933
X138744
X148587
T05
X63850Y74435
Y84435
Y94435
Y104435
Y114435
Y124435
Y134435
Y144435
Y154435
X73850
Y144435
Y134435
Y124435
Y114435
Y104435
Y94435
Y84435
Y74435
Y164435
X63850
Y174435
Y184435
Y194435
Y204435
Y214435
Y224435
Y234435
Y244435
Y254435
Y264435
X73850
Y254435
Y244435
Y234435
Y224435
Y214435
Y204435
Y194435
Y184435
Y174435
T06
X86803Y54886
X96803
X106803
X120661Y58035
Y78035
X130661
X140661
Y58035
T07
X68713Y55262
X159264Y55262
Y283608
X68713
M30
