G04*
G04 #@! TF.GenerationSoftware,Altium Limited,Altium Designer,19.0.10 (269)*
G04*
G04 Layer_Color=32896*
%FSLAX25Y25*%
%MOIN*%
G70*
G01*
G75*
%ADD10C,0.02000*%
%ADD11C,0.01000*%
%ADD13C,0.00394*%
%ADD14C,0.00984*%
%ADD15C,0.00787*%
%ADD17C,0.00600*%
%ADD19C,0.00800*%
%ADD266C,0.01181*%
%ADD267C,0.00100*%
G36*
X256429Y179763D02*
X254561D01*
Y181658D01*
X256429D01*
Y179763D01*
D02*
G37*
G36*
Y169878D02*
X254528D01*
Y171815D01*
X256429D01*
Y169878D01*
D02*
G37*
G36*
X276114Y179771D02*
Y171815D01*
Y169901D01*
Y160049D01*
Y160035D01*
X270420D01*
Y160039D01*
X266272D01*
Y152130D01*
X274146D01*
Y150153D01*
X266272D01*
Y150153D01*
X264500D01*
Y150153D01*
X264495D01*
Y152130D01*
X264500D01*
Y161972D01*
X274200D01*
Y169901D01*
X256552D01*
Y171815D01*
X274200D01*
Y179771D01*
X256546D01*
Y181658D01*
X276114D01*
Y179771D01*
D02*
G37*
G36*
Y140279D02*
X274338D01*
Y152130D01*
X276114D01*
Y140279D01*
D02*
G37*
G36*
X274146Y140279D02*
X266272D01*
Y132445D01*
X274146D01*
Y130391D01*
X264490D01*
Y130444D01*
X264374D01*
Y142287D01*
X274146D01*
Y140279D01*
D02*
G37*
G36*
X258398Y120554D02*
X256529D01*
Y122602D01*
X258398D01*
Y120554D01*
D02*
G37*
G36*
X276114Y120598D02*
Y120547D01*
X258511D01*
Y122602D01*
X274211D01*
Y132445D01*
X276114D01*
Y120598D01*
D02*
G37*
G36*
X233489Y319266D02*
X176009D01*
Y328500D01*
X233489D01*
Y319266D01*
D02*
G37*
G36*
X211937Y359974D02*
X92472D01*
Y366697D01*
X211937D01*
Y359974D01*
D02*
G37*
G36*
X143480Y319766D02*
X86000D01*
Y329000D01*
X143480D01*
Y319766D01*
D02*
G37*
%LPC*%
G36*
X229535Y326405D02*
X228310D01*
X227582Y325312D01*
X227574Y325304D01*
X227567Y325283D01*
X227545Y325253D01*
X227516Y325217D01*
X227487Y325173D01*
X227450Y325115D01*
X227370Y324998D01*
X227275Y324867D01*
X227188Y324750D01*
X227108Y324641D01*
X227071Y324605D01*
X227042Y324568D01*
X227035Y324561D01*
X227020Y324546D01*
X226991Y324517D01*
X226955Y324481D01*
X226904Y324451D01*
X226852Y324415D01*
X226794Y324386D01*
X226736Y324357D01*
X226729D01*
X226707Y324349D01*
X226670Y324335D01*
X226612Y324328D01*
X226539Y324313D01*
X226451Y324306D01*
X226349Y324298D01*
X226021D01*
Y326405D01*
X225001D01*
Y321361D01*
X229535D01*
X227275D01*
X227341Y321368D01*
X227421D01*
X227501Y321375D01*
X227596D01*
X227786Y321397D01*
X227982Y321419D01*
X228165Y321455D01*
X228245Y321477D01*
X228318Y321499D01*
X228325D01*
X228332Y321506D01*
X228376Y321528D01*
X228442Y321565D01*
X228529Y321608D01*
X228624Y321681D01*
X228719Y321761D01*
X228814Y321864D01*
X228901Y321988D01*
Y321995D01*
X228908Y322002D01*
X228923Y322024D01*
X228937Y322046D01*
X228974Y322119D01*
X229018Y322214D01*
X229054Y322330D01*
X229090Y322461D01*
X229120Y322614D01*
X229127Y322775D01*
Y322782D01*
Y322797D01*
Y322833D01*
X229120Y322870D01*
Y322921D01*
X229112Y322972D01*
X229083Y323103D01*
X229047Y323256D01*
X228989Y323409D01*
X228901Y323569D01*
X228850Y323642D01*
X228792Y323715D01*
X228784Y323723D01*
X228777Y323730D01*
X228755Y323752D01*
X228726Y323774D01*
X228697Y323803D01*
X228653Y323839D01*
X228602Y323876D01*
X228544Y323912D01*
X228478Y323956D01*
X228398Y323992D01*
X228318Y324029D01*
X228230Y324065D01*
X228128Y324102D01*
X228026Y324131D01*
X227917Y324160D01*
X227793Y324182D01*
X227800D01*
X227807Y324189D01*
X227851Y324218D01*
X227909Y324255D01*
X227982Y324306D01*
X228070Y324371D01*
X228157Y324437D01*
X228252Y324517D01*
X228332Y324605D01*
X228340Y324612D01*
X228376Y324648D01*
X228420Y324707D01*
X228485Y324794D01*
X228573Y324903D01*
X228617Y324976D01*
X228668Y325049D01*
X228726Y325130D01*
X228784Y325217D01*
X228850Y325319D01*
X228916Y325421D01*
X229535Y326405D01*
D01*
D02*
G37*
G36*
X184498D02*
X182024D01*
X183273D01*
X182544Y325312D01*
X182537Y325304D01*
X182529Y325283D01*
X182507Y325253D01*
X182478Y325217D01*
X182449Y325173D01*
X182413Y325115D01*
X182333Y324998D01*
X182238Y324867D01*
X182150Y324750D01*
X182070Y324641D01*
X182034Y324605D01*
X182004Y324568D01*
X181997Y324561D01*
X181983Y324546D01*
X181953Y324517D01*
X181917Y324481D01*
X181866Y324451D01*
X181815Y324415D01*
X181757Y324386D01*
X181698Y324357D01*
X181691D01*
X181669Y324349D01*
X181633Y324335D01*
X181574Y324328D01*
X181501Y324313D01*
X181414Y324306D01*
X181312Y324298D01*
X180984D01*
Y326405D01*
X179963D01*
Y321361D01*
X184498D01*
X182238D01*
X182303Y321368D01*
X182384D01*
X182464Y321375D01*
X182559D01*
X182748Y321397D01*
X182945Y321419D01*
X183127Y321455D01*
X183207Y321477D01*
X183280Y321499D01*
X183288D01*
X183295Y321506D01*
X183338Y321528D01*
X183404Y321565D01*
X183492Y321608D01*
X183586Y321681D01*
X183681Y321761D01*
X183776Y321864D01*
X183863Y321988D01*
Y321995D01*
X183871Y322002D01*
X183885Y322024D01*
X183900Y322046D01*
X183936Y322119D01*
X183980Y322214D01*
X184017Y322330D01*
X184053Y322461D01*
X184082Y322614D01*
X184089Y322775D01*
Y322782D01*
Y322797D01*
Y322833D01*
X184082Y322870D01*
Y322921D01*
X184075Y322972D01*
X184046Y323103D01*
X184009Y323256D01*
X183951Y323409D01*
X183863Y323569D01*
X183812Y323642D01*
X183754Y323715D01*
X183747Y323723D01*
X183739Y323730D01*
X183718Y323752D01*
X183688Y323774D01*
X183659Y323803D01*
X183616Y323839D01*
X183564Y323876D01*
X183506Y323912D01*
X183441Y323956D01*
X183360Y323992D01*
X183280Y324029D01*
X183193Y324065D01*
X183091Y324102D01*
X182989Y324131D01*
X182879Y324160D01*
X182755Y324182D01*
X182763D01*
X182770Y324189D01*
X182814Y324218D01*
X182872Y324255D01*
X182945Y324306D01*
X183032Y324371D01*
X183120Y324437D01*
X183215Y324517D01*
X183295Y324605D01*
X183302Y324612D01*
X183338Y324648D01*
X183382Y324707D01*
X183448Y324794D01*
X183535Y324903D01*
X183579Y324976D01*
X183630Y325049D01*
X183688Y325130D01*
X183747Y325217D01*
X183812Y325319D01*
X183878Y325421D01*
X184498Y326405D01*
D02*
G37*
G36*
X196526D02*
X195505D01*
Y324196D01*
X193515D01*
Y326405D01*
X192495D01*
Y321361D01*
X193515D01*
Y323343D01*
X195505D01*
Y321361D01*
X196526D01*
Y326405D01*
D02*
G37*
G36*
X221757Y326500D02*
X221706D01*
X221647Y326493D01*
X221574Y326485D01*
X221480Y326478D01*
X221370Y326464D01*
X221247Y326442D01*
X221115Y326413D01*
X220970Y326376D01*
X220831Y326332D01*
X220678Y326274D01*
X220532Y326208D01*
X220379Y326135D01*
X220240Y326041D01*
X220102Y325939D01*
X219971Y325815D01*
X219964Y325807D01*
X219942Y325786D01*
X219912Y325742D01*
X219869Y325691D01*
X219818Y325618D01*
X219759Y325530D01*
X219701Y325436D01*
X219643Y325319D01*
X219577Y325195D01*
X219519Y325049D01*
X219460Y324896D01*
X219409Y324728D01*
X219366Y324546D01*
X219337Y324349D01*
X219315Y324138D01*
X219307Y323919D01*
Y326500D01*
D01*
D01*
Y321266D01*
Y323846D01*
X219315Y323788D01*
Y323723D01*
X219322Y323650D01*
X219329Y323562D01*
X219337Y323467D01*
X219366Y323263D01*
X219402Y323044D01*
X219460Y322826D01*
X219533Y322622D01*
Y322614D01*
X219541Y322607D01*
X219555Y322585D01*
X219563Y322556D01*
X219606Y322483D01*
X219657Y322388D01*
X219723Y322279D01*
X219803Y322170D01*
X219898Y322046D01*
X220000Y321929D01*
X220007Y321922D01*
X220015Y321915D01*
X220051Y321878D01*
X220116Y321820D01*
X220197Y321754D01*
X220291Y321681D01*
X220401Y321601D01*
X220525Y321528D01*
X220656Y321470D01*
X220663D01*
X220678Y321463D01*
X220707Y321448D01*
X220743Y321441D01*
X220787Y321419D01*
X220838Y321404D01*
X220904Y321390D01*
X220970Y321368D01*
X221130Y321331D01*
X221312Y321295D01*
X221523Y321273D01*
X221742Y321266D01*
X219307D01*
X224199D01*
D01*
X221793D01*
X221852Y321273D01*
X221924D01*
X222019Y321288D01*
X222129Y321302D01*
X222252Y321324D01*
X222384Y321353D01*
X222522Y321390D01*
X222668Y321433D01*
X222814Y321492D01*
X222967Y321557D01*
X223113Y321638D01*
X223258Y321732D01*
X223397Y321842D01*
X223528Y321966D01*
X223536Y321973D01*
X223557Y321995D01*
X223594Y322039D01*
X223630Y322090D01*
X223681Y322162D01*
X223740Y322250D01*
X223798Y322352D01*
X223864Y322469D01*
X223929Y322593D01*
X223988Y322738D01*
X224046Y322899D01*
X224097Y323066D01*
X224141Y323256D01*
X224170Y323453D01*
X224192Y323664D01*
X224199Y323890D01*
Y323941D01*
X224192Y324007D01*
Y324094D01*
X224177Y324196D01*
X224163Y324313D01*
X224141Y324451D01*
X224119Y324590D01*
X224082Y324743D01*
X224039Y324903D01*
X223980Y325064D01*
X223915Y325224D01*
X223842Y325377D01*
X223747Y325530D01*
X223645Y325676D01*
X223528Y325815D01*
X223521Y325822D01*
X223499Y325844D01*
X223463Y325880D01*
X223404Y325924D01*
X223339Y325975D01*
X223258Y326033D01*
X223164Y326092D01*
X223062Y326157D01*
X222938Y326223D01*
X222807Y326281D01*
X222661Y326340D01*
X222500Y326391D01*
X222333Y326434D01*
X222150Y326471D01*
X221961Y326493D01*
X221757Y326500D01*
D02*
G37*
G36*
X211966D02*
X211915D01*
X211857Y326493D01*
X211784Y326485D01*
X211689Y326478D01*
X211580Y326464D01*
X211456Y326442D01*
X211325Y326413D01*
X211179Y326376D01*
X211040Y326332D01*
X210887Y326274D01*
X210742Y326208D01*
X210589Y326135D01*
X210450Y326041D01*
X210312Y325939D01*
X210180Y325815D01*
X210173Y325807D01*
X210151Y325786D01*
X210122Y325742D01*
X210078Y325691D01*
X210027Y325618D01*
X209969Y325530D01*
X209910Y325436D01*
X209852Y325319D01*
X209787Y325195D01*
X209728Y325049D01*
X209670Y324896D01*
X209619Y324728D01*
X209575Y324546D01*
X209546Y324349D01*
X209524Y324138D01*
X209517Y323919D01*
Y326500D01*
D01*
D01*
Y321266D01*
Y323846D01*
X209524Y323788D01*
Y323723D01*
X209531Y323650D01*
X209539Y323562D01*
X209546Y323467D01*
X209575Y323263D01*
X209612Y323044D01*
X209670Y322826D01*
X209743Y322622D01*
Y322614D01*
X209750Y322607D01*
X209765Y322585D01*
X209772Y322556D01*
X209816Y322483D01*
X209867Y322388D01*
X209932Y322279D01*
X210013Y322170D01*
X210107Y322046D01*
X210209Y321929D01*
X210217Y321922D01*
X210224Y321915D01*
X210261Y321878D01*
X210326Y321820D01*
X210406Y321754D01*
X210501Y321681D01*
X210610Y321601D01*
X210734Y321528D01*
X210865Y321470D01*
X210873D01*
X210887Y321463D01*
X210917Y321448D01*
X210953Y321441D01*
X210997Y321419D01*
X211048Y321404D01*
X211113Y321390D01*
X211179Y321368D01*
X211339Y321331D01*
X211522Y321295D01*
X211733Y321273D01*
X211952Y321266D01*
X209517D01*
X214408D01*
D01*
X212003D01*
X212061Y321273D01*
X212134D01*
X212229Y321288D01*
X212338Y321302D01*
X212462Y321324D01*
X212593Y321353D01*
X212732Y321390D01*
X212878Y321433D01*
X213023Y321492D01*
X213176Y321557D01*
X213322Y321638D01*
X213468Y321732D01*
X213607Y321842D01*
X213738Y321966D01*
X213745Y321973D01*
X213767Y321995D01*
X213803Y322039D01*
X213840Y322090D01*
X213891Y322162D01*
X213949Y322250D01*
X214007Y322352D01*
X214073Y322469D01*
X214139Y322593D01*
X214197Y322738D01*
X214255Y322899D01*
X214306Y323066D01*
X214350Y323256D01*
X214379Y323453D01*
X214401Y323664D01*
X214408Y323890D01*
Y323941D01*
X214401Y324007D01*
Y324094D01*
X214387Y324196D01*
X214372Y324313D01*
X214350Y324451D01*
X214328Y324590D01*
X214292Y324743D01*
X214248Y324903D01*
X214190Y325064D01*
X214124Y325224D01*
X214051Y325377D01*
X213956Y325530D01*
X213854Y325676D01*
X213738Y325815D01*
X213731Y325822D01*
X213709Y325844D01*
X213672Y325880D01*
X213614Y325924D01*
X213548Y325975D01*
X213468Y326033D01*
X213373Y326092D01*
X213271Y326157D01*
X213147Y326223D01*
X213016Y326281D01*
X212870Y326340D01*
X212710Y326391D01*
X212542Y326434D01*
X212360Y326471D01*
X212170Y326493D01*
X211966Y326500D01*
D02*
G37*
G36*
X189389D02*
X189309D01*
X189258Y326493D01*
X189185D01*
X189105Y326485D01*
X189017Y326471D01*
X188915Y326456D01*
X188704Y326420D01*
X188471Y326361D01*
X188230Y326281D01*
X188121Y326230D01*
X188004Y326172D01*
X187997Y326165D01*
X187982Y326157D01*
X187946Y326135D01*
X187909Y326106D01*
X187858Y326077D01*
X187807Y326033D01*
X187742Y325982D01*
X187676Y325924D01*
X187530Y325793D01*
X187384Y325625D01*
X187246Y325436D01*
X187122Y325217D01*
Y325210D01*
X187107Y325188D01*
X187093Y325151D01*
X187078Y325108D01*
X187056Y325049D01*
X187027Y324984D01*
X187005Y324903D01*
X186976Y324816D01*
X186947Y324721D01*
X186925Y324612D01*
X186874Y324386D01*
X186845Y324138D01*
X186830Y323868D01*
Y326500D01*
D01*
Y321266D01*
X191547D01*
X189418D01*
X189484Y321273D01*
X189564Y321280D01*
X189659Y321288D01*
X189761Y321295D01*
X189870Y321317D01*
X190104Y321361D01*
X190344Y321433D01*
X190468Y321477D01*
X190585Y321528D01*
X190694Y321586D01*
X190796Y321659D01*
X190803Y321667D01*
X190818Y321674D01*
X190847Y321703D01*
X190884Y321732D01*
X190927Y321769D01*
X190971Y321820D01*
X191022Y321878D01*
X191080Y321944D01*
X191139Y322017D01*
X191197Y322097D01*
X191255Y322184D01*
X191306Y322286D01*
X191365Y322388D01*
X191409Y322498D01*
X191452Y322622D01*
X191481Y322746D01*
X190468Y322935D01*
Y322928D01*
X190461Y322921D01*
X190446Y322877D01*
X190417Y322811D01*
X190373Y322724D01*
X190322Y322629D01*
X190249Y322534D01*
X190162Y322440D01*
X190060Y322352D01*
X190045Y322345D01*
X190009Y322316D01*
X189943Y322279D01*
X189863Y322243D01*
X189754Y322199D01*
X189630Y322170D01*
X189491Y322141D01*
X189331Y322133D01*
X189265D01*
X189222Y322141D01*
X189163Y322148D01*
X189098Y322155D01*
X189025Y322170D01*
X188944Y322184D01*
X188777Y322235D01*
X188689Y322272D01*
X188602Y322316D01*
X188514Y322367D01*
X188427Y322418D01*
X188347Y322491D01*
X188267Y322563D01*
X188259Y322571D01*
X188252Y322585D01*
X188230Y322607D01*
X188208Y322644D01*
X188179Y322687D01*
X188143Y322738D01*
X188106Y322804D01*
X188077Y322877D01*
X188040Y322964D01*
X188004Y323059D01*
X187968Y323161D01*
X187938Y323271D01*
X187917Y323394D01*
X187895Y323533D01*
X187887Y323672D01*
X187880Y323825D01*
Y323832D01*
Y323861D01*
Y323912D01*
X187887Y323970D01*
X187895Y324051D01*
X187902Y324131D01*
X187917Y324233D01*
X187931Y324335D01*
X187975Y324554D01*
X188048Y324780D01*
X188092Y324889D01*
X188143Y324991D01*
X188208Y325093D01*
X188274Y325181D01*
X188281Y325188D01*
X188296Y325202D01*
X188318Y325224D01*
X188347Y325253D01*
X188391Y325283D01*
X188434Y325326D01*
X188493Y325363D01*
X188558Y325407D01*
X188631Y325450D01*
X188704Y325487D01*
X188886Y325560D01*
X188988Y325589D01*
X189090Y325611D01*
X189207Y325625D01*
X189324Y325633D01*
X189382D01*
X189440Y325625D01*
X189528Y325618D01*
X189622Y325603D01*
X189732Y325582D01*
X189848Y325552D01*
X189965Y325509D01*
X189972D01*
X189980Y325501D01*
X190016Y325487D01*
X190082Y325458D01*
X190155Y325421D01*
X190242Y325377D01*
X190337Y325326D01*
X190432Y325268D01*
X190519Y325202D01*
Y324554D01*
X189353D01*
Y323701D01*
X191547D01*
Y325727D01*
X191532Y325742D01*
X191511Y325756D01*
X191489Y325778D01*
X191452Y325807D01*
X191416Y325837D01*
X191314Y325909D01*
X191175Y325990D01*
X191015Y326084D01*
X190833Y326179D01*
X190614Y326267D01*
X190607D01*
X190585Y326274D01*
X190556Y326289D01*
X190512Y326303D01*
X190454Y326318D01*
X190388Y326340D01*
X190315Y326361D01*
X190235Y326383D01*
X190053Y326427D01*
X189841Y326464D01*
X189622Y326493D01*
X189389Y326500D01*
D02*
G37*
G36*
X208693Y326405D02*
X207753D01*
X207745Y322440D01*
X206754Y326405D01*
X205770D01*
X204778Y322440D01*
Y326405D01*
X203838D01*
Y321361D01*
X208693D01*
Y326405D01*
D02*
G37*
G36*
X217368D02*
X216348D01*
Y322214D01*
X214853D01*
Y326405D01*
Y321361D01*
X218855D01*
Y322214D01*
X217368D01*
Y326405D01*
D02*
G37*
G36*
X199741D02*
X198720D01*
Y322214D01*
X197226D01*
Y326405D01*
Y321361D01*
X201228D01*
Y322214D01*
X199741D01*
Y326405D01*
D02*
G37*
G36*
X186036D02*
X185015D01*
Y321361D01*
X186036D01*
Y326405D01*
D02*
G37*
%LPD*%
G36*
X227159Y323489D02*
X227312Y323482D01*
X227465Y323475D01*
X227531Y323467D01*
X227589Y323460D01*
X227647Y323446D01*
X227684Y323438D01*
X227691D01*
X227713Y323424D01*
X227749Y323409D01*
X227786Y323387D01*
X227880Y323322D01*
X227924Y323278D01*
X227968Y323227D01*
X227975Y323219D01*
X227982Y323198D01*
X228004Y323168D01*
X228026Y323125D01*
X228041Y323066D01*
X228063Y323001D01*
X228070Y322928D01*
X228077Y322848D01*
Y322833D01*
Y322804D01*
X228070Y322760D01*
X228063Y322702D01*
X228041Y322636D01*
X228019Y322571D01*
X227982Y322498D01*
X227939Y322440D01*
X227931Y322432D01*
X227917Y322410D01*
X227880Y322388D01*
X227837Y322352D01*
X227786Y322316D01*
X227720Y322286D01*
X227640Y322257D01*
X227552Y322235D01*
X227545D01*
X227523Y322228D01*
X227479D01*
X227414Y322221D01*
X227254D01*
X227188Y322214D01*
X226021D01*
Y323497D01*
X227013D01*
X227159Y323489D01*
D02*
G37*
G36*
X182121D02*
X182274Y323482D01*
X182427Y323475D01*
X182493Y323467D01*
X182551Y323460D01*
X182609Y323446D01*
X182646Y323438D01*
X182653D01*
X182675Y323424D01*
X182712Y323409D01*
X182748Y323387D01*
X182843Y323322D01*
X182887Y323278D01*
X182930Y323227D01*
X182938Y323219D01*
X182945Y323198D01*
X182967Y323168D01*
X182989Y323125D01*
X183003Y323066D01*
X183025Y323001D01*
X183032Y322928D01*
X183040Y322848D01*
Y322833D01*
Y322804D01*
X183032Y322760D01*
X183025Y322702D01*
X183003Y322636D01*
X182981Y322571D01*
X182945Y322498D01*
X182901Y322440D01*
X182894Y322432D01*
X182879Y322410D01*
X182843Y322388D01*
X182799Y322352D01*
X182748Y322316D01*
X182682Y322286D01*
X182602Y322257D01*
X182515Y322235D01*
X182507D01*
X182486Y322228D01*
X182442D01*
X182376Y322221D01*
X182216D01*
X182150Y322214D01*
X180984D01*
Y323497D01*
X181975D01*
X182121Y323489D01*
D02*
G37*
G36*
X221859Y325625D02*
X221910Y325618D01*
X221968Y325611D01*
X222107Y325574D01*
X222267Y325523D01*
X222347Y325487D01*
X222435Y325450D01*
X222515Y325399D01*
X222602Y325341D01*
X222683Y325275D01*
X222756Y325195D01*
X222763Y325188D01*
X222770Y325173D01*
X222792Y325151D01*
X222814Y325115D01*
X222850Y325064D01*
X222879Y325006D01*
X222916Y324940D01*
X222952Y324860D01*
X222989Y324772D01*
X223025Y324677D01*
X223062Y324568D01*
X223091Y324444D01*
X223113Y324320D01*
X223135Y324182D01*
X223142Y324029D01*
X223149Y323868D01*
Y323861D01*
Y323832D01*
Y323788D01*
X223142Y323723D01*
X223135Y323650D01*
X223127Y323569D01*
X223120Y323475D01*
X223098Y323380D01*
X223054Y323168D01*
X222989Y322950D01*
X222945Y322840D01*
X222894Y322746D01*
X222828Y322651D01*
X222763Y322563D01*
X222756Y322556D01*
X222748Y322541D01*
X222726Y322527D01*
X222697Y322498D01*
X222654Y322461D01*
X222610Y322425D01*
X222559Y322388D01*
X222493Y322345D01*
X222428Y322308D01*
X222347Y322272D01*
X222180Y322199D01*
X222085Y322170D01*
X221983Y322155D01*
X221873Y322141D01*
X221757Y322133D01*
X221698D01*
X221655Y322141D01*
X221596Y322148D01*
X221538Y322155D01*
X221392Y322184D01*
X221232Y322243D01*
X221144Y322272D01*
X221057Y322316D01*
X220977Y322367D01*
X220889Y322425D01*
X220809Y322491D01*
X220736Y322571D01*
X220729Y322578D01*
X220722Y322593D01*
X220700Y322614D01*
X220678Y322651D01*
X220649Y322702D01*
X220620Y322753D01*
X220583Y322819D01*
X220547Y322899D01*
X220510Y322986D01*
X220474Y323081D01*
X220445Y323190D01*
X220415Y323307D01*
X220394Y323438D01*
X220372Y323577D01*
X220364Y323723D01*
X220357Y323883D01*
Y323890D01*
Y323919D01*
Y323963D01*
X220364Y324021D01*
X220372Y324094D01*
X220379Y324182D01*
X220394Y324269D01*
X220408Y324371D01*
X220452Y324583D01*
X220525Y324794D01*
X220568Y324903D01*
X220620Y325006D01*
X220685Y325100D01*
X220751Y325188D01*
X220758Y325195D01*
X220773Y325210D01*
X220795Y325232D01*
X220824Y325253D01*
X220860Y325290D01*
X220911Y325326D01*
X220962Y325370D01*
X221028Y325407D01*
X221166Y325494D01*
X221341Y325560D01*
X221436Y325589D01*
X221538Y325611D01*
X221647Y325625D01*
X221757Y325633D01*
X221815D01*
X221859Y325625D01*
D02*
G37*
G36*
X212068D02*
X212119Y325618D01*
X212178Y325611D01*
X212316Y325574D01*
X212477Y325523D01*
X212557Y325487D01*
X212644Y325450D01*
X212724Y325399D01*
X212812Y325341D01*
X212892Y325275D01*
X212965Y325195D01*
X212972Y325188D01*
X212980Y325173D01*
X213001Y325151D01*
X213023Y325115D01*
X213060Y325064D01*
X213089Y325006D01*
X213125Y324940D01*
X213162Y324860D01*
X213198Y324772D01*
X213235Y324677D01*
X213271Y324568D01*
X213300Y324444D01*
X213322Y324320D01*
X213344Y324182D01*
X213351Y324029D01*
X213359Y323868D01*
Y323861D01*
Y323832D01*
Y323788D01*
X213351Y323723D01*
X213344Y323650D01*
X213337Y323569D01*
X213330Y323475D01*
X213308Y323380D01*
X213264Y323168D01*
X213198Y322950D01*
X213155Y322840D01*
X213104Y322746D01*
X213038Y322651D01*
X212972Y322563D01*
X212965Y322556D01*
X212958Y322541D01*
X212936Y322527D01*
X212907Y322498D01*
X212863Y322461D01*
X212819Y322425D01*
X212768Y322388D01*
X212703Y322345D01*
X212637Y322308D01*
X212557Y322272D01*
X212389Y322199D01*
X212294Y322170D01*
X212192Y322155D01*
X212083Y322141D01*
X211966Y322133D01*
X211908D01*
X211864Y322141D01*
X211806Y322148D01*
X211748Y322155D01*
X211602Y322184D01*
X211441Y322243D01*
X211354Y322272D01*
X211266Y322316D01*
X211186Y322367D01*
X211099Y322425D01*
X211019Y322491D01*
X210946Y322571D01*
X210938Y322578D01*
X210931Y322593D01*
X210909Y322614D01*
X210887Y322651D01*
X210858Y322702D01*
X210829Y322753D01*
X210793Y322819D01*
X210756Y322899D01*
X210720Y322986D01*
X210683Y323081D01*
X210654Y323190D01*
X210625Y323307D01*
X210603Y323438D01*
X210581Y323577D01*
X210574Y323723D01*
X210567Y323883D01*
Y323890D01*
Y323919D01*
Y323963D01*
X210574Y324021D01*
X210581Y324094D01*
X210589Y324182D01*
X210603Y324269D01*
X210618Y324371D01*
X210661Y324583D01*
X210734Y324794D01*
X210778Y324903D01*
X210829Y325006D01*
X210895Y325100D01*
X210960Y325188D01*
X210968Y325195D01*
X210982Y325210D01*
X211004Y325232D01*
X211033Y325253D01*
X211070Y325290D01*
X211121Y325326D01*
X211172Y325370D01*
X211237Y325407D01*
X211376Y325494D01*
X211551Y325560D01*
X211646Y325589D01*
X211748Y325611D01*
X211857Y325625D01*
X211966Y325633D01*
X212025D01*
X212068Y325625D01*
D02*
G37*
G36*
X186838Y323737D02*
Y323664D01*
X186845Y323584D01*
X186860Y323497D01*
X186874Y323394D01*
X186911Y323183D01*
X186969Y322942D01*
X187049Y322702D01*
X187100Y322585D01*
X187158Y322469D01*
X187166Y322461D01*
X187173Y322440D01*
X187195Y322410D01*
X187217Y322367D01*
X187253Y322316D01*
X187297Y322257D01*
X187348Y322192D01*
X187399Y322119D01*
X187465Y322046D01*
X187538Y321966D01*
X187618Y321885D01*
X187705Y321805D01*
X187800Y321732D01*
X187895Y321652D01*
X188121Y321521D01*
X188128D01*
X188143Y321506D01*
X188172Y321499D01*
X188208Y321477D01*
X188259Y321463D01*
X188310Y321441D01*
X188383Y321419D01*
X188456Y321390D01*
X188536Y321368D01*
X188631Y321346D01*
X188733Y321324D01*
X188835Y321302D01*
X189068Y321273D01*
X189331Y321266D01*
X186830D01*
Y323788D01*
X186838Y323737D01*
D02*
G37*
G36*
X207162Y321361D02*
X205362D01*
X206265Y324809D01*
X207162Y321361D01*
D02*
G37*
%LPC*%
G36*
X144861Y365285D02*
X144823D01*
D01*
X143955D01*
X144823D01*
X144790Y365279D01*
X144757D01*
X144714Y365274D01*
X144621Y365257D01*
X144512Y365230D01*
X144402Y365192D01*
X144293Y365137D01*
X144195Y365061D01*
Y365055D01*
X144184Y365050D01*
X144157Y365017D01*
X144118Y364968D01*
X144075Y364902D01*
X144031Y364821D01*
X143993Y364722D01*
X143966Y364608D01*
X143960Y364548D01*
X143955Y364482D01*
Y364482D01*
Y364444D01*
X143960Y364400D01*
X143971Y364346D01*
X143982Y364280D01*
X143998Y364214D01*
X144026Y364143D01*
X144064Y364072D01*
X144069Y364062D01*
X144086Y364040D01*
X144107Y364007D01*
X144146Y363969D01*
X144184Y363925D01*
X144239Y363876D01*
X144299Y363832D01*
X144370Y363794D01*
X144380Y363789D01*
X144408Y363778D01*
X144451Y363761D01*
X144517Y363734D01*
X144599Y363707D01*
X144697Y363679D01*
X144817Y363652D01*
X144948Y363625D01*
X144954D01*
X144970Y363619D01*
X144998Y363614D01*
X145030Y363608D01*
X145074Y363603D01*
X145123Y363592D01*
X145232Y363565D01*
X145347Y363537D01*
X145467Y363510D01*
X145571Y363477D01*
X145620Y363461D01*
X145658Y363445D01*
Y363374D01*
Y363363D01*
Y363341D01*
X145653Y363303D01*
X145647Y363253D01*
X145631Y363204D01*
X145615Y363155D01*
X145587Y363112D01*
X145549Y363073D01*
X145544Y363068D01*
X145527Y363057D01*
X145500Y363046D01*
X145462Y363024D01*
X145407Y363008D01*
X145342Y362997D01*
X145260Y362986D01*
X145161Y362981D01*
X145129D01*
X145096Y362986D01*
X145052Y362991D01*
X145003Y363002D01*
X144948Y363013D01*
X144899Y363035D01*
X144855Y363062D01*
X144850Y363068D01*
X144839Y363079D01*
X144817Y363095D01*
X144796Y363123D01*
X144763Y363161D01*
X144735Y363210D01*
X144708Y363264D01*
X144681Y363330D01*
X144031Y363210D01*
Y363204D01*
X144036Y363193D01*
X144042Y363172D01*
X144053Y363144D01*
X144064Y363112D01*
X144080Y363073D01*
X144118Y362986D01*
X144173Y362893D01*
X144239Y362795D01*
X144315Y362702D01*
X144408Y362620D01*
X144413D01*
X144419Y362609D01*
X144435Y362604D01*
X144457Y362587D01*
X144490Y362577D01*
X144523Y362560D01*
X144566Y362538D01*
X144610Y362522D01*
X144664Y362506D01*
X144725Y362484D01*
X144790Y362467D01*
X144867Y362456D01*
X144943Y362440D01*
X145030Y362435D01*
X145118Y362424D01*
X146526D01*
X145298D01*
X145336Y362429D01*
X145380D01*
X145489Y362440D01*
X145604Y362451D01*
X145724Y362473D01*
X145838Y362506D01*
X145887Y362522D01*
X145937Y362544D01*
X145942D01*
X145948Y362549D01*
X145975Y362566D01*
X146019Y362587D01*
X146068Y362620D01*
X146128Y362664D01*
X146182Y362713D01*
X146231Y362773D01*
X146275Y362833D01*
X146281Y362844D01*
X146291Y362866D01*
X146308Y362915D01*
X146313Y362942D01*
X146324Y362981D01*
X146335Y363019D01*
X146341Y363068D01*
X146352Y363123D01*
X146357Y363182D01*
X146362Y363248D01*
X146368Y363319D01*
X146373Y363396D01*
Y363483D01*
X146362Y364329D01*
Y364335D01*
Y364346D01*
Y364362D01*
Y364389D01*
Y364455D01*
X146368Y364531D01*
Y364618D01*
X146379Y364706D01*
X146384Y364793D01*
X146395Y364864D01*
Y364870D01*
X146401Y364892D01*
X146412Y364930D01*
X146423Y364973D01*
X146444Y365028D01*
X146466Y365088D01*
X146493Y365154D01*
X146526Y365225D01*
X145811D01*
Y365219D01*
X145806Y365214D01*
X145800Y365192D01*
X145789Y365170D01*
X145778Y365143D01*
X145767Y365105D01*
X145756Y365061D01*
X145740Y365012D01*
Y365006D01*
X145735Y365001D01*
X145729Y364979D01*
X145718Y364952D01*
X145713Y364930D01*
X145702Y364935D01*
X145680Y364957D01*
X145642Y364990D01*
X145593Y365028D01*
X145533Y365072D01*
X145467Y365121D01*
X145391Y365159D01*
X145314Y365197D01*
X145303Y365203D01*
X145276Y365208D01*
X145232Y365225D01*
X145178Y365241D01*
X145112Y365257D01*
X145036Y365268D01*
X144948Y365279D01*
X144861Y365285D01*
D02*
G37*
G36*
X143136D02*
X143103D01*
X143065Y365279D01*
X143016Y365274D01*
X142961Y365268D01*
X142901Y365257D01*
X142841Y365241D01*
X142781Y365219D01*
X142775Y365214D01*
X142753Y365208D01*
X142726Y365192D01*
X142693Y365176D01*
X142617Y365121D01*
X142579Y365088D01*
X142546Y365050D01*
X142541Y365044D01*
X142535Y365028D01*
X142524Y365006D01*
X142508Y364973D01*
X142491Y364935D01*
X142475Y364886D01*
X142459Y364831D01*
X142448Y364771D01*
Y364766D01*
X142442Y364744D01*
Y364711D01*
X142437Y364657D01*
X142431Y364586D01*
Y364498D01*
X142426Y364449D01*
Y364389D01*
Y364329D01*
Y364258D01*
Y363062D01*
X142093D01*
Y362484D01*
X142426D01*
Y361938D01*
X143152Y361512D01*
X142093D01*
X143709D01*
X143152D01*
Y362484D01*
X143649D01*
Y363062D01*
X143152D01*
Y364171D01*
Y364176D01*
Y364187D01*
Y364204D01*
Y364225D01*
Y364280D01*
Y364346D01*
X143157Y364411D01*
Y364477D01*
Y364526D01*
X143163Y364548D01*
Y364559D01*
X143168Y364569D01*
X143179Y364591D01*
X143196Y364618D01*
X143228Y364651D01*
X143239Y364657D01*
X143261Y364668D01*
X143299Y364679D01*
X143349Y364684D01*
X143370D01*
X143392Y364679D01*
X143425Y364673D01*
X143469Y364668D01*
X143518Y364657D01*
X143578Y364640D01*
X143643Y364618D01*
X143709Y365181D01*
X143703D01*
X143698Y365186D01*
X143665Y365197D01*
X143611Y365214D01*
X143540Y365230D01*
X143458Y365252D01*
X143359Y365268D01*
X143250Y365279D01*
X143136Y365285D01*
D02*
G37*
G36*
X177861Y365285D02*
D01*
Y364406D01*
X177856Y364433D01*
X177850Y364460D01*
X177845Y364498D01*
X177823Y364591D01*
X177785Y364689D01*
X177758Y364744D01*
X177730Y364799D01*
X177692Y364853D01*
X177648Y364908D01*
X177599Y364963D01*
X177545Y365017D01*
X177539Y365023D01*
X177528Y365028D01*
X177512Y365039D01*
X177485Y365061D01*
X177452Y365077D01*
X177413Y365099D01*
X177364Y365126D01*
X177310Y365148D01*
X177250Y365176D01*
X177179Y365197D01*
X177102Y365225D01*
X177020Y365241D01*
X176928Y365257D01*
X176829Y365274D01*
X176726Y365279D01*
X176616Y365285D01*
X177861D01*
X176616D01*
D01*
X175306D01*
X176562D01*
X176523Y365279D01*
X176474D01*
X176420Y365274D01*
X176360Y365268D01*
X176294Y365257D01*
X176152Y365230D01*
X176005Y365192D01*
X175857Y365137D01*
X175792Y365099D01*
X175726Y365061D01*
X175721Y365055D01*
X175710Y365050D01*
X175694Y365039D01*
X175677Y365017D01*
X175617Y364968D01*
X175552Y364897D01*
X175481Y364810D01*
X175415Y364706D01*
X175355Y364580D01*
X175306Y364444D01*
D01*
X176032Y364335D01*
Y364346D01*
X176043Y364367D01*
X176054Y364406D01*
X176070Y364455D01*
X176098Y364509D01*
X176130Y364559D01*
X176169Y364613D01*
X176218Y364657D01*
X176223Y364662D01*
X176245Y364673D01*
X176278Y364689D01*
X176321Y364706D01*
X176376Y364728D01*
X176447Y364744D01*
X176523Y364755D01*
X176616Y364760D01*
X176660D01*
X176715Y364755D01*
X176775Y364750D01*
X176840Y364739D01*
X176911Y364717D01*
X176977Y364695D01*
X177037Y364662D01*
X177042Y364657D01*
X177053Y364646D01*
X177069Y364630D01*
X177086Y364608D01*
X177102Y364580D01*
X177119Y364548D01*
X177130Y364509D01*
X177135Y364466D01*
Y364460D01*
Y364449D01*
X177130Y364417D01*
X177113Y364373D01*
X177081Y364329D01*
X177069Y364318D01*
X177053Y364313D01*
X177031Y364296D01*
X176999Y364285D01*
X176955Y364269D01*
X176906Y364253D01*
X176840Y364236D01*
X176829D01*
X176802Y364225D01*
X176758Y364214D01*
X176698Y364204D01*
X176627Y364187D01*
X176551Y364165D01*
X176463Y364143D01*
X176371Y364116D01*
X176180Y364062D01*
X176087Y364034D01*
X175999Y364002D01*
X175917Y363974D01*
X175841Y363942D01*
X175776Y363909D01*
X175726Y363881D01*
X175721Y363876D01*
X175710Y363871D01*
X175699Y363860D01*
X175677Y363838D01*
X175623Y363789D01*
X175568Y363718D01*
X175508Y363630D01*
X175453Y363527D01*
X175432Y363467D01*
X175421Y363401D01*
X175410Y363335D01*
X175404Y363264D01*
Y363259D01*
Y363248D01*
Y363232D01*
X175410Y363204D01*
X175415Y363177D01*
X175421Y363139D01*
X175437Y363057D01*
X175470Y362964D01*
X175524Y362866D01*
X175552Y362811D01*
X175590Y362762D01*
X175634Y362713D01*
X175683Y362669D01*
X175688Y362664D01*
X175694Y362658D01*
X175710Y362648D01*
X175737Y362631D01*
X175765Y362615D01*
X175803Y362593D01*
X175847Y362571D01*
X175896Y362544D01*
X175956Y362522D01*
X176021Y362500D01*
X176092Y362478D01*
X176169Y362462D01*
X176256Y362445D01*
X176349Y362435D01*
X176447Y362424D01*
X176649D01*
X176693Y362429D01*
X176747Y362435D01*
X176807Y362440D01*
X176873Y362445D01*
X177009Y362467D01*
X177146Y362500D01*
X177277Y362549D01*
X177337Y362577D01*
X177392Y362609D01*
X177397D01*
X177403Y362620D01*
X177435Y362642D01*
X177485Y362686D01*
X177539Y362746D01*
X177605Y362817D01*
X177665Y362910D01*
X177725Y363019D01*
X177768Y363144D01*
X177086Y363270D01*
Y363264D01*
X177075Y363243D01*
X177064Y363215D01*
X177048Y363183D01*
X177026Y363139D01*
X176993Y363101D01*
X176960Y363062D01*
X176917Y363030D01*
X176911Y363024D01*
X176895Y363013D01*
X176867Y363002D01*
X176829Y362986D01*
X176780Y362970D01*
X176720Y362953D01*
X176649Y362948D01*
X176567Y362942D01*
X176518D01*
X176469Y362948D01*
X176409Y362953D01*
X176338Y362964D01*
X176272Y362975D01*
X176212Y362997D01*
X176158Y363024D01*
X176152D01*
X176147Y363035D01*
X176119Y363062D01*
X176087Y363112D01*
X176081Y363139D01*
X176076Y363172D01*
Y363177D01*
Y363183D01*
X176087Y363215D01*
X176109Y363259D01*
X176125Y363281D01*
X176147Y363303D01*
X176152Y363308D01*
X176174Y363314D01*
X176185Y363324D01*
X176207Y363330D01*
X176234Y363341D01*
X176267Y363357D01*
X176311Y363368D01*
X176354Y363385D01*
X176409Y363401D01*
X176474Y363417D01*
X176545Y363439D01*
X176627Y363461D01*
X176720Y363483D01*
X176824Y363510D01*
X176829D01*
X176851Y363516D01*
X176878Y363521D01*
X176917Y363532D01*
X176966Y363548D01*
X177020Y363559D01*
X177140Y363597D01*
X177277Y363647D01*
X177408Y363701D01*
X177474Y363734D01*
X177534Y363761D01*
X177583Y363800D01*
X177632Y363832D01*
X177643Y363843D01*
X177670Y363865D01*
X177703Y363909D01*
X177747Y363969D01*
X177790Y364045D01*
X177823Y364138D01*
X177850Y364247D01*
X177861Y364367D01*
Y362424D01*
D01*
Y365285D01*
D02*
G37*
G36*
X162295D02*
X162262D01*
X162229Y365279D01*
X162180D01*
X162120Y365268D01*
X162049Y365257D01*
X161973Y365246D01*
X161896Y365225D01*
X161809Y365203D01*
X161722Y365170D01*
X161634Y365132D01*
X161547Y365088D01*
X161459Y365034D01*
X161378Y364973D01*
X161307Y364902D01*
X161235Y364821D01*
X161230Y364815D01*
X161225Y364804D01*
X161214Y364782D01*
X161192Y364755D01*
X161176Y364717D01*
X161154Y364673D01*
X161126Y364624D01*
X161105Y364564D01*
X161077Y364498D01*
X161055Y364427D01*
X161028Y364351D01*
X161012Y364264D01*
X160995Y364176D01*
X160979Y364084D01*
X160974Y363980D01*
X160968Y363876D01*
Y363810D01*
X160974Y363761D01*
X160979Y363707D01*
X160984Y363641D01*
X160995Y363570D01*
X161012Y363488D01*
X161055Y363319D01*
X161083Y363232D01*
X161115Y363139D01*
X161159Y363052D01*
X161208Y362970D01*
X161263Y362888D01*
X161323Y362811D01*
X161328Y362806D01*
X161339Y362795D01*
X161361Y362773D01*
X161388Y362751D01*
X161421Y362724D01*
X161465Y362691D01*
X161514Y362653D01*
X161569Y362615D01*
X161629Y362582D01*
X161700Y362544D01*
X161771Y362511D01*
X161853Y362484D01*
X161934Y362462D01*
X162027Y362440D01*
X162120Y362429D01*
X162218Y362424D01*
X160968D01*
X163523D01*
D01*
X162278D01*
X162322Y362429D01*
X162371Y362435D01*
X162431Y362445D01*
X162497Y362456D01*
X162568Y362473D01*
X162644Y362495D01*
X162721Y362522D01*
X162803Y362555D01*
X162884Y362598D01*
X162961Y362642D01*
X163037Y362697D01*
X163114Y362762D01*
X163179Y362833D01*
X163185Y362839D01*
X163196Y362849D01*
X163212Y362877D01*
X163234Y362910D01*
X163261Y362953D01*
X163288Y363002D01*
X163321Y363068D01*
X163354Y363139D01*
X163387Y363221D01*
X163419Y363314D01*
X163447Y363412D01*
X163474Y363527D01*
X163496Y363647D01*
X163512Y363778D01*
X163523Y363914D01*
Y364067D01*
X161711D01*
Y364072D01*
Y364084D01*
Y364100D01*
X161716Y364122D01*
X161722Y364176D01*
X161732Y364253D01*
X161754Y364329D01*
X161787Y364417D01*
X161825Y364498D01*
X161880Y364569D01*
X161885Y364575D01*
X161913Y364597D01*
X161945Y364624D01*
X161995Y364657D01*
X162055Y364689D01*
X162131Y364717D01*
X162213Y364739D01*
X162300Y364744D01*
X162328D01*
X162360Y364739D01*
X162399Y364733D01*
X162442Y364722D01*
X162491Y364706D01*
X162540Y364684D01*
X162584Y364651D01*
X162590Y364646D01*
X162606Y364635D01*
X162628Y364613D01*
X162650Y364580D01*
X162682Y364537D01*
X162710Y364488D01*
X162737Y364422D01*
X162764Y364351D01*
X163485Y364471D01*
Y364477D01*
X163480Y364488D01*
X163469Y364509D01*
X163458Y364537D01*
X163441Y364569D01*
X163425Y364608D01*
X163376Y364695D01*
X163316Y364793D01*
X163239Y364897D01*
X163146Y364990D01*
X163043Y365077D01*
X163037D01*
X163032Y365088D01*
X163010Y365094D01*
X162988Y365110D01*
X162961Y365126D01*
X162923Y365143D01*
X162884Y365159D01*
X162835Y365181D01*
X162726Y365219D01*
X162601Y365252D01*
X162453Y365274D01*
X162295Y365285D01*
D02*
G37*
G36*
X155595D02*
X154334D01*
X154301Y365279D01*
X154252D01*
X154192Y365268D01*
X154121Y365257D01*
X154045Y365246D01*
X153968Y365225D01*
X153881Y365203D01*
X153794Y365170D01*
X153706Y365132D01*
X153619Y365088D01*
X153532Y365034D01*
X153450Y364973D01*
X153379Y364902D01*
X153308Y364821D01*
X153302Y364815D01*
X153297Y364804D01*
X153286Y364782D01*
X153264Y364755D01*
X153248Y364717D01*
X153226Y364673D01*
X153198Y364624D01*
X153177Y364564D01*
X153149Y364498D01*
X153127Y364427D01*
X153100Y364351D01*
X153084Y364264D01*
X153067Y364176D01*
X153051Y364084D01*
X153045Y363980D01*
X153040Y363876D01*
Y363810D01*
X153045Y363761D01*
X153051Y363707D01*
X153057Y363641D01*
X153067Y363570D01*
X153084Y363488D01*
X153127Y363319D01*
X153155Y363232D01*
X153188Y363139D01*
X153231Y363052D01*
X153280Y362970D01*
X153335Y362888D01*
X153395Y362811D01*
X153400Y362806D01*
X153411Y362795D01*
X153433Y362773D01*
X153461Y362751D01*
X153493Y362724D01*
X153537Y362691D01*
X153586Y362653D01*
X153641Y362615D01*
X153701Y362582D01*
X153772Y362544D01*
X153843Y362511D01*
X153925Y362484D01*
X154007Y362462D01*
X154099Y362440D01*
X154192Y362429D01*
X154290Y362424D01*
X155595D01*
X154350D01*
X154394Y362429D01*
X154443Y362435D01*
X154503Y362445D01*
X154569Y362456D01*
X154640Y362473D01*
X154716Y362495D01*
X154793Y362522D01*
X154875Y362555D01*
X154956Y362598D01*
X155033Y362642D01*
X155109Y362697D01*
X155186Y362762D01*
X155251Y362833D01*
X155257Y362839D01*
X155268Y362849D01*
X155284Y362877D01*
X155306Y362910D01*
X155333Y362953D01*
X155361Y363002D01*
X155393Y363068D01*
X155426Y363139D01*
X155459Y363221D01*
X155492Y363314D01*
X155519Y363412D01*
X155546Y363527D01*
X155568Y363647D01*
X155584Y363778D01*
X155595Y363914D01*
Y364078D01*
Y364067D01*
X153783D01*
Y364072D01*
Y364084D01*
Y364100D01*
X153788Y364122D01*
X153794Y364176D01*
X153805Y364253D01*
X153826Y364329D01*
X153859Y364417D01*
X153897Y364498D01*
X153952Y364569D01*
X153957Y364575D01*
X153985Y364597D01*
X154017Y364624D01*
X154067Y364657D01*
X154127Y364689D01*
X154203Y364717D01*
X154285Y364739D01*
X154372Y364744D01*
X154400D01*
X154432Y364739D01*
X154471Y364733D01*
X154514Y364722D01*
X154563Y364706D01*
X154613Y364684D01*
X154656Y364651D01*
X154662Y364646D01*
X154678Y364635D01*
X154700Y364613D01*
X154722Y364580D01*
X154754Y364537D01*
X154782Y364488D01*
X154809Y364422D01*
X154836Y364351D01*
X155557Y364471D01*
Y364477D01*
X155552Y364488D01*
X155541Y364509D01*
X155530Y364537D01*
X155514Y364569D01*
X155497Y364608D01*
X155448Y364695D01*
X155388Y364793D01*
X155311Y364897D01*
X155219Y364990D01*
X155115Y365077D01*
X155109D01*
X155104Y365088D01*
X155082Y365094D01*
X155060Y365110D01*
X155033Y365126D01*
X154995Y365143D01*
X154956Y365159D01*
X154907Y365181D01*
X154798Y365219D01*
X154673Y365252D01*
X154525Y365274D01*
X154367Y365285D01*
X155595D01*
D02*
G37*
G36*
X138860Y365285D02*
X137599D01*
X137566Y365279D01*
X137517D01*
X137457Y365268D01*
X137386Y365257D01*
X137310Y365246D01*
X137233Y365225D01*
X137146Y365203D01*
X137059Y365170D01*
X136971Y365132D01*
X136884Y365088D01*
X136797Y365034D01*
X136715Y364973D01*
X136644Y364902D01*
X136573Y364821D01*
X136567Y364815D01*
X136562Y364804D01*
X136551Y364782D01*
X136529Y364755D01*
X136513Y364717D01*
X136491Y364673D01*
X136463Y364624D01*
X136442Y364564D01*
X136414Y364498D01*
X136392Y364427D01*
X136365Y364351D01*
X136349Y364264D01*
X136332Y364176D01*
X136316Y364083D01*
X136311Y363980D01*
X136305Y363876D01*
Y363810D01*
X136311Y363761D01*
X136316Y363707D01*
X136322Y363641D01*
X136332Y363570D01*
X136349Y363488D01*
X136392Y363319D01*
X136420Y363232D01*
X136453Y363139D01*
X136496Y363052D01*
X136545Y362970D01*
X136600Y362888D01*
X136660Y362811D01*
X136665Y362806D01*
X136677Y362795D01*
X136698Y362773D01*
X136726Y362751D01*
X136758Y362724D01*
X136802Y362691D01*
X136851Y362653D01*
X136906Y362615D01*
X136966Y362582D01*
X137037Y362544D01*
X137108Y362511D01*
X137190Y362484D01*
X137272Y362462D01*
X137364Y362440D01*
X137457Y362429D01*
X137556Y362424D01*
X138860D01*
X137616D01*
X137659Y362429D01*
X137708Y362435D01*
X137768Y362445D01*
X137834Y362456D01*
X137905Y362473D01*
X137981Y362495D01*
X138058Y362522D01*
X138140Y362555D01*
X138222Y362598D01*
X138298Y362642D01*
X138374Y362697D01*
X138451Y362762D01*
X138516Y362833D01*
X138522Y362839D01*
X138533Y362849D01*
X138549Y362877D01*
X138571Y362910D01*
X138598Y362953D01*
X138626Y363002D01*
X138658Y363068D01*
X138691Y363139D01*
X138724Y363221D01*
X138757Y363314D01*
X138784Y363412D01*
X138811Y363527D01*
X138833Y363647D01*
X138849Y363778D01*
X138860Y363914D01*
Y364067D01*
D01*
X137048D01*
Y364072D01*
Y364083D01*
Y364100D01*
X137053Y364122D01*
X137059Y364176D01*
X137070Y364253D01*
X137091Y364329D01*
X137124Y364417D01*
X137162Y364498D01*
X137217Y364569D01*
X137223Y364575D01*
X137250Y364597D01*
X137283Y364624D01*
X137332Y364657D01*
X137392Y364689D01*
X137468Y364717D01*
X137550Y364739D01*
X137637Y364744D01*
X137665D01*
X137698Y364739D01*
X137736Y364733D01*
X137779Y364722D01*
X137829Y364706D01*
X137878Y364684D01*
X137921Y364651D01*
X137927Y364646D01*
X137943Y364635D01*
X137965Y364613D01*
X137987Y364580D01*
X138020Y364537D01*
X138047Y364488D01*
X138074Y364422D01*
X138101Y364351D01*
X138822Y364471D01*
Y364477D01*
X138817Y364488D01*
X138806Y364509D01*
X138795Y364537D01*
X138779Y364569D01*
X138762Y364608D01*
X138713Y364695D01*
X138653Y364793D01*
X138576Y364897D01*
X138484Y364990D01*
X138380Y365077D01*
X138374D01*
X138369Y365088D01*
X138347Y365094D01*
X138325Y365110D01*
X138298Y365126D01*
X138260Y365143D01*
X138222Y365159D01*
X138172Y365181D01*
X138063Y365219D01*
X137938Y365252D01*
X137790Y365274D01*
X137632Y365285D01*
X138860D01*
D02*
G37*
G36*
X131468D02*
X131435D01*
X131402Y365279D01*
X131353D01*
X131293Y365268D01*
X131222Y365257D01*
X131146Y365246D01*
X131069Y365225D01*
X130982Y365203D01*
X130894Y365170D01*
X130807Y365132D01*
X130720Y365088D01*
X130632Y365034D01*
X130550Y364973D01*
X130479Y364902D01*
X130408Y364821D01*
X130403Y364815D01*
X130397Y364804D01*
X130386Y364782D01*
X130365Y364755D01*
X130348Y364717D01*
X130326Y364673D01*
X130299Y364624D01*
X130277Y364564D01*
X130250Y364498D01*
X130228Y364427D01*
X130201Y364351D01*
X130184Y364264D01*
X130168Y364176D01*
X130152Y364083D01*
X130146Y363980D01*
X130141Y363876D01*
Y363810D01*
X130146Y363761D01*
X130152Y363707D01*
X130157Y363641D01*
X130168Y363570D01*
X130184Y363488D01*
X130228Y363319D01*
X130255Y363232D01*
X130288Y363139D01*
X130332Y363052D01*
X130381Y362970D01*
X130436Y362888D01*
X130496Y362811D01*
X130501Y362806D01*
X130512Y362795D01*
X130534Y362773D01*
X130561Y362751D01*
X130594Y362724D01*
X130638Y362691D01*
X130687Y362653D01*
X130741Y362615D01*
X130801Y362582D01*
X130872Y362544D01*
X130944Y362511D01*
X131025Y362484D01*
X131107Y362462D01*
X131200Y362440D01*
X131293Y362429D01*
X131391Y362424D01*
X130141D01*
X132696D01*
D01*
X131451D01*
X131495Y362429D01*
X131544Y362435D01*
X131604Y362445D01*
X131670Y362456D01*
X131741Y362473D01*
X131817Y362495D01*
X131894Y362522D01*
X131975Y362555D01*
X132057Y362598D01*
X132134Y362642D01*
X132210Y362697D01*
X132287Y362762D01*
X132352Y362833D01*
X132358Y362839D01*
X132369Y362849D01*
X132385Y362877D01*
X132407Y362910D01*
X132434Y362953D01*
X132461Y363002D01*
X132494Y363068D01*
X132527Y363139D01*
X132560Y363221D01*
X132592Y363314D01*
X132620Y363412D01*
X132647Y363527D01*
X132669Y363647D01*
X132685Y363778D01*
X132696Y363914D01*
Y364067D01*
D01*
X130883D01*
Y364072D01*
Y364083D01*
Y364100D01*
X130889Y364122D01*
X130894Y364176D01*
X130905Y364253D01*
X130927Y364329D01*
X130960Y364417D01*
X130998Y364498D01*
X131053Y364569D01*
X131058Y364575D01*
X131085Y364597D01*
X131118Y364624D01*
X131167Y364657D01*
X131227Y364689D01*
X131304Y364717D01*
X131386Y364739D01*
X131473Y364744D01*
X131500D01*
X131533Y364739D01*
X131571Y364733D01*
X131615Y364722D01*
X131664Y364706D01*
X131713Y364684D01*
X131757Y364651D01*
X131763Y364646D01*
X131779Y364635D01*
X131801Y364613D01*
X131823Y364580D01*
X131855Y364537D01*
X131883Y364488D01*
X131910Y364422D01*
X131937Y364351D01*
X132658Y364471D01*
Y364477D01*
X132652Y364488D01*
X132641Y364509D01*
X132631Y364537D01*
X132614Y364569D01*
X132598Y364608D01*
X132549Y364695D01*
X132489Y364793D01*
X132412Y364897D01*
X132319Y364990D01*
X132216Y365077D01*
X132210D01*
X132205Y365088D01*
X132183Y365094D01*
X132161Y365110D01*
X132134Y365126D01*
X132096Y365143D01*
X132057Y365159D01*
X132008Y365181D01*
X131899Y365219D01*
X131773Y365252D01*
X131626Y365274D01*
X131468Y365285D01*
D02*
G37*
G36*
X141874Y364264D02*
Y364264D01*
D01*
Y364264D01*
D02*
G37*
G36*
Y364187D02*
D01*
D01*
D01*
D02*
G37*
G36*
X152734Y365285D02*
X150152D01*
X151402D01*
X151364Y365279D01*
X151315Y365274D01*
X151255Y365263D01*
X151189Y365252D01*
X151118Y365235D01*
X151042Y365219D01*
X150965Y365192D01*
X150883Y365164D01*
X150807Y365126D01*
X150725Y365083D01*
X150649Y365034D01*
X150578Y364973D01*
X150507Y364908D01*
X150501Y364902D01*
X150490Y364892D01*
X150474Y364870D01*
X150452Y364837D01*
X150425Y364799D01*
X150392Y364755D01*
X150365Y364700D01*
X150332Y364635D01*
X150294Y364564D01*
X150266Y364488D01*
X150234Y364400D01*
X150206Y364307D01*
X150185Y364204D01*
X150168Y364100D01*
X150157Y363980D01*
X150152Y363860D01*
Y363794D01*
X150157Y363750D01*
X150163Y363690D01*
X150168Y363625D01*
X150179Y363554D01*
X150195Y363472D01*
X150239Y363303D01*
X150266Y363215D01*
X150299Y363128D01*
X150343Y363041D01*
X150392Y362959D01*
X150447Y362882D01*
X150507Y362806D01*
X150512Y362800D01*
X150523Y362789D01*
X150545Y362773D01*
X150572Y362746D01*
X150610Y362719D01*
X150654Y362686D01*
X150703Y362648D01*
X150763Y362615D01*
X150829Y362577D01*
X150900Y362544D01*
X150982Y362511D01*
X151069Y362484D01*
X151156Y362456D01*
X151260Y362440D01*
X151364Y362429D01*
X151473Y362424D01*
X152734D01*
X151522D01*
X151555Y362429D01*
X151599D01*
X151648Y362435D01*
X151702Y362440D01*
X151762Y362451D01*
X151888Y362478D01*
X152019Y362516D01*
X152150Y362571D01*
X152270Y362642D01*
X152276D01*
X152281Y362653D01*
X152297Y362664D01*
X152319Y362680D01*
X152368Y362729D01*
X152434Y362800D01*
X152505Y362893D01*
X152576Y363002D01*
X152641Y363133D01*
X152696Y363286D01*
X151981Y363417D01*
Y363406D01*
X151975Y363385D01*
X151964Y363346D01*
X151948Y363297D01*
X151921Y363248D01*
X151893Y363193D01*
X151855Y363144D01*
X151812Y363101D01*
X151806Y363095D01*
X151790Y363084D01*
X151762Y363068D01*
X151724Y363046D01*
X151675Y363024D01*
X151620Y363008D01*
X151555Y362997D01*
X151484Y362991D01*
X151473D01*
X151440Y362997D01*
X151391Y363002D01*
X151326Y363013D01*
X151260Y363041D01*
X151189Y363073D01*
X151118Y363117D01*
X151053Y363183D01*
X151047Y363193D01*
X151031Y363221D01*
X151004Y363264D01*
X150976Y363330D01*
X150943Y363417D01*
X150933Y363467D01*
X150922Y363521D01*
X150911Y363587D01*
X150900Y363652D01*
X150894Y363729D01*
Y363805D01*
Y363810D01*
Y363827D01*
Y363854D01*
X150900Y363887D01*
Y363925D01*
X150905Y363969D01*
X150916Y364078D01*
X150933Y364193D01*
X150965Y364307D01*
X151004Y364411D01*
X151031Y364455D01*
X151058Y364498D01*
X151064Y364509D01*
X151091Y364531D01*
X151124Y364559D01*
X151173Y364597D01*
X151238Y364635D01*
X151309Y364662D01*
X151397Y364684D01*
X151495Y364695D01*
X151528D01*
X151566Y364689D01*
X151615Y364679D01*
X151670Y364668D01*
X151724Y364646D01*
X151779Y364618D01*
X151833Y364580D01*
X151839Y364575D01*
X151855Y364559D01*
X151877Y364531D01*
X151910Y364488D01*
X151943Y364433D01*
X151970Y364362D01*
X152003Y364275D01*
X152024Y364176D01*
X152734Y364296D01*
Y364302D01*
X152729Y364318D01*
X152723Y364346D01*
X152713Y364378D01*
X152696Y364417D01*
X152680Y364466D01*
X152636Y364575D01*
X152581Y364695D01*
X152505Y364815D01*
X152412Y364935D01*
X152358Y364990D01*
X152303Y365039D01*
X152297D01*
X152287Y365050D01*
X152270Y365061D01*
X152248Y365077D01*
X152216Y365094D01*
X152177Y365115D01*
X152134Y365137D01*
X152079Y365159D01*
X152024Y365186D01*
X151959Y365208D01*
X151893Y365230D01*
X151817Y365246D01*
X151735Y365263D01*
X151648Y365274D01*
X151560Y365279D01*
X151462Y365285D01*
X152734D01*
D02*
G37*
G36*
X140602Y365285D02*
X140489D01*
X140542D01*
X140504Y365279D01*
X140455Y365274D01*
X140395Y365263D01*
X140329Y365252D01*
X140258Y365235D01*
X140182Y365219D01*
X140105Y365192D01*
X140023Y365164D01*
X139947Y365126D01*
X139865Y365083D01*
X139789Y365034D01*
X139718Y364973D01*
X139647Y364908D01*
X139641Y364902D01*
X139630Y364892D01*
X139614Y364870D01*
X139592Y364837D01*
X139565Y364799D01*
X139532Y364755D01*
X139505Y364700D01*
X139472Y364635D01*
X139434Y364564D01*
X139407Y364488D01*
X139374Y364400D01*
X139346Y364307D01*
X139325Y364204D01*
X139308Y364100D01*
X139297Y363980D01*
X139292Y363860D01*
Y363794D01*
X139297Y363750D01*
X139303Y363690D01*
X139308Y363625D01*
X139319Y363554D01*
X139336Y363472D01*
X139379Y363303D01*
X139407Y363215D01*
X139439Y363128D01*
X139483Y363041D01*
X139532Y362959D01*
X139587Y362882D01*
X139647Y362806D01*
X139652Y362800D01*
X139663Y362789D01*
X139685Y362773D01*
X139712Y362746D01*
X139750Y362718D01*
X139794Y362686D01*
X139843Y362648D01*
X139903Y362615D01*
X139969Y362577D01*
X140040Y362544D01*
X140122Y362511D01*
X140209Y362484D01*
X140296Y362456D01*
X140400Y362440D01*
X140504Y362429D01*
X140613Y362424D01*
X139292D01*
D01*
X141874D01*
X140662D01*
X140695Y362429D01*
X140739D01*
X140788Y362435D01*
X140842Y362440D01*
X140902Y362451D01*
X141028Y362478D01*
X141159Y362516D01*
X141290Y362571D01*
X141410Y362642D01*
X141416D01*
X141421Y362653D01*
X141438Y362664D01*
X141459Y362680D01*
X141509Y362729D01*
X141574Y362800D01*
X141645Y362893D01*
X141716Y363002D01*
X141782Y363133D01*
X141836Y363286D01*
X141121Y363417D01*
Y363406D01*
X141115Y363385D01*
X141104Y363346D01*
X141088Y363297D01*
X141061Y363248D01*
X141033Y363193D01*
X140995Y363144D01*
X140952Y363101D01*
X140946Y363095D01*
X140930Y363084D01*
X140902Y363068D01*
X140864Y363046D01*
X140815Y363024D01*
X140761Y363008D01*
X140695Y362997D01*
X140624Y362991D01*
X140613D01*
X140580Y362997D01*
X140531Y363002D01*
X140466Y363013D01*
X140400Y363041D01*
X140329Y363073D01*
X140258Y363117D01*
X140193Y363182D01*
X140187Y363193D01*
X140171Y363221D01*
X140144Y363264D01*
X140116Y363330D01*
X140084Y363417D01*
X140073Y363467D01*
X140062Y363521D01*
X140051Y363587D01*
X140040Y363652D01*
X140034Y363728D01*
Y363805D01*
Y363810D01*
Y363827D01*
Y363854D01*
X140040Y363887D01*
Y363925D01*
X140045Y363969D01*
X140056Y364078D01*
X140073Y364193D01*
X140105Y364307D01*
X140144Y364411D01*
X140171Y364455D01*
X140198Y364498D01*
X140204Y364509D01*
X140231Y364531D01*
X140264Y364559D01*
X140313Y364597D01*
X140378Y364635D01*
X140449Y364662D01*
X140537Y364684D01*
X140635Y364695D01*
X140668D01*
X140706Y364689D01*
X140755Y364679D01*
X140810Y364668D01*
X140864Y364646D01*
X140919Y364618D01*
X140973Y364580D01*
X140979Y364575D01*
X140995Y364559D01*
X141017Y364531D01*
X141050Y364488D01*
X141083Y364433D01*
X141110Y364362D01*
X141143Y364275D01*
X141165Y364176D01*
X141874Y364296D01*
Y364302D01*
X141869Y364318D01*
X141864Y364346D01*
X141852Y364378D01*
X141836Y364417D01*
X141820Y364466D01*
X141776Y364575D01*
X141721Y364695D01*
X141645Y364815D01*
X141552Y364935D01*
X141498Y364990D01*
X141443Y365039D01*
X141438D01*
X141427Y365050D01*
X141410Y365061D01*
X141388Y365077D01*
X141356Y365094D01*
X141317Y365115D01*
X141274Y365137D01*
X141219Y365159D01*
X141165Y365186D01*
X141099Y365208D01*
X141033Y365230D01*
X140957Y365246D01*
X140875Y365263D01*
X140788Y365274D01*
X140700Y365279D01*
X140602Y365285D01*
D02*
G37*
G36*
X141874Y364040D02*
D01*
D01*
D01*
D02*
G37*
G36*
Y363974D02*
Y363969D01*
D01*
Y363974D01*
D02*
G37*
G36*
X172942Y365285D02*
D01*
Y363909D01*
X172936Y363952D01*
X172931Y364007D01*
X172920Y364067D01*
X172909Y364138D01*
X172893Y364209D01*
X172871Y364291D01*
X172844Y364373D01*
X172811Y364460D01*
X172773Y364548D01*
X172723Y364635D01*
X172669Y364717D01*
X172609Y364799D01*
X172538Y364881D01*
X172532Y364886D01*
X172521Y364897D01*
X172500Y364919D01*
X172467Y364946D01*
X172429Y364973D01*
X172379Y365006D01*
X172325Y365044D01*
X172265Y365083D01*
X172194Y365121D01*
X172117Y365159D01*
X172035Y365192D01*
X171943Y365219D01*
X171850Y365246D01*
X171746Y365268D01*
X171642Y365279D01*
X171528Y365285D01*
X171489D01*
X171462Y365279D01*
X171429D01*
X171391Y365274D01*
X171298Y365263D01*
X171184Y365241D01*
X171063Y365214D01*
X170938Y365170D01*
X170807Y365115D01*
X170801D01*
X170791Y365110D01*
X170774Y365099D01*
X170752Y365083D01*
X170692Y365044D01*
X170616Y364990D01*
X170534Y364919D01*
X170447Y364831D01*
X170365Y364733D01*
X170288Y364618D01*
Y364613D01*
X170283Y364602D01*
X170272Y364586D01*
X170261Y364559D01*
X170250Y364526D01*
X170234Y364488D01*
X170217Y364444D01*
X170201Y364395D01*
X170185Y364340D01*
X170168Y364280D01*
X170141Y364143D01*
X170119Y363985D01*
X170114Y363816D01*
Y363778D01*
X170119Y363756D01*
Y363723D01*
X170124Y363685D01*
X170135Y363592D01*
X170157Y363488D01*
X170190Y363374D01*
X170228Y363248D01*
X170288Y363123D01*
Y363117D01*
X170299Y363106D01*
X170305Y363090D01*
X170321Y363068D01*
X170365Y363008D01*
X170419Y362931D01*
X170490Y362849D01*
X170578Y362762D01*
X170676Y362680D01*
X170791Y362604D01*
X170796D01*
X170807Y362598D01*
X170823Y362587D01*
X170851Y362577D01*
X170878Y362560D01*
X170916Y362549D01*
X170960Y362533D01*
X171003Y362511D01*
X171113Y362478D01*
X171238Y362451D01*
X171375Y362429D01*
X171522Y362424D01*
X170114D01*
X172942D01*
Y365285D01*
D02*
G37*
G36*
X141874Y363881D02*
D01*
D01*
D01*
D02*
G37*
G36*
Y363789D02*
Y363783D01*
D01*
Y363789D01*
D02*
G37*
G36*
Y363477D02*
Y363472D01*
D01*
Y363477D01*
D02*
G37*
G36*
X166608Y365225D02*
X165882D01*
Y363832D01*
Y363827D01*
Y363810D01*
Y363789D01*
Y363761D01*
Y363723D01*
Y363685D01*
X165876Y363592D01*
X165871Y363499D01*
X165860Y363401D01*
X165849Y363319D01*
X165844Y363286D01*
X165833Y363259D01*
Y363253D01*
X165822Y363237D01*
X165811Y363215D01*
X165795Y363183D01*
X165745Y363117D01*
X165718Y363084D01*
X165680Y363057D01*
X165674Y363052D01*
X165664Y363046D01*
X165642Y363035D01*
X165609Y363019D01*
X165571Y363002D01*
X165533Y362991D01*
X165483Y362986D01*
X165429Y362981D01*
X165396D01*
X165363Y362986D01*
X165320Y362991D01*
X165265Y363008D01*
X165210Y363024D01*
X165150Y363052D01*
X165090Y363084D01*
X165085Y363090D01*
X165068Y363101D01*
X165041Y363128D01*
X165008Y363155D01*
X164976Y363199D01*
X164943Y363243D01*
X164910Y363303D01*
X164888Y363363D01*
Y363368D01*
X164877Y363396D01*
X164872Y363439D01*
X164861Y363505D01*
X164856Y363543D01*
X164850Y363592D01*
X164845Y363641D01*
Y363701D01*
X164839Y363761D01*
X164834Y363832D01*
Y363909D01*
Y363991D01*
Y365225D01*
X164108D01*
Y362424D01*
Y362484D01*
X164779D01*
Y362888D01*
X164785Y362882D01*
X164795Y362866D01*
X164817Y362844D01*
X164845Y362817D01*
X164877Y362778D01*
X164921Y362740D01*
X164970Y362697D01*
X165025Y362653D01*
X165085Y362615D01*
X165156Y362571D01*
X165227Y362533D01*
X165309Y362495D01*
X165396Y362467D01*
X165483Y362445D01*
X165582Y362429D01*
X165680Y362424D01*
X164108D01*
X166608D01*
D01*
X165718D01*
X165767Y362429D01*
X165827Y362435D01*
X165893Y362445D01*
X165964Y362462D01*
X166040Y362484D01*
X166117Y362511D01*
X166128Y362516D01*
X166149Y362527D01*
X166188Y362544D01*
X166231Y362571D01*
X166281Y362604D01*
X166330Y362642D01*
X166379Y362686D01*
X166422Y362735D01*
X166428Y362740D01*
X166439Y362757D01*
X166455Y362784D01*
X166477Y362822D01*
X166504Y362866D01*
X166526Y362920D01*
X166548Y362975D01*
X166565Y363041D01*
Y363046D01*
X166570Y363073D01*
X166581Y363112D01*
X166586Y363166D01*
X166597Y363232D01*
X166603Y363319D01*
X166608Y363412D01*
Y365225D01*
D02*
G37*
G36*
X149578Y365225D02*
X148852D01*
Y363832D01*
Y363827D01*
Y363810D01*
Y363789D01*
Y363761D01*
Y363723D01*
Y363685D01*
X148847Y363592D01*
X148841Y363499D01*
X148830Y363401D01*
X148819Y363319D01*
X148814Y363286D01*
X148803Y363259D01*
Y363253D01*
X148792Y363237D01*
X148781Y363215D01*
X148765Y363182D01*
X148716Y363117D01*
X148688Y363084D01*
X148650Y363057D01*
X148645Y363052D01*
X148634Y363046D01*
X148612Y363035D01*
X148579Y363019D01*
X148541Y363002D01*
X148503Y362991D01*
X148454Y362986D01*
X148399Y362981D01*
X148366D01*
X148334Y362986D01*
X148290Y362991D01*
X148235Y363008D01*
X148181Y363024D01*
X148121Y363052D01*
X148061Y363084D01*
X148055Y363090D01*
X148039Y363101D01*
X148011Y363128D01*
X147979Y363155D01*
X147946Y363199D01*
X147913Y363243D01*
X147880Y363303D01*
X147859Y363363D01*
Y363368D01*
X147848Y363396D01*
X147842Y363439D01*
X147831Y363505D01*
X147826Y363543D01*
X147820Y363592D01*
X147815Y363641D01*
Y363701D01*
X147809Y363761D01*
X147804Y363832D01*
Y363909D01*
Y363991D01*
Y365225D01*
X147078D01*
Y362424D01*
Y362484D01*
X147749D01*
Y362888D01*
X147755Y362882D01*
X147766Y362866D01*
X147788Y362844D01*
X147815Y362817D01*
X147848Y362778D01*
X147891Y362740D01*
X147940Y362697D01*
X147995Y362653D01*
X148055Y362615D01*
X148126Y362571D01*
X148197Y362533D01*
X148279Y362495D01*
X148366Y362467D01*
X148454Y362445D01*
X148552Y362429D01*
X148650Y362424D01*
X147078D01*
X149578D01*
D01*
X148688D01*
X148738Y362429D01*
X148798Y362435D01*
X148863Y362445D01*
X148934Y362462D01*
X149011Y362484D01*
X149087Y362511D01*
X149098Y362516D01*
X149120Y362527D01*
X149158Y362544D01*
X149202Y362571D01*
X149251Y362604D01*
X149300Y362642D01*
X149349Y362686D01*
X149393Y362735D01*
X149398Y362740D01*
X149409Y362757D01*
X149426Y362784D01*
X149447Y362822D01*
X149475Y362866D01*
X149496Y362920D01*
X149518Y362975D01*
X149535Y363041D01*
Y363046D01*
X149540Y363073D01*
X149551Y363112D01*
X149557Y363166D01*
X149567Y363232D01*
X149573Y363319D01*
X149578Y363412D01*
Y365225D01*
D02*
G37*
G36*
X141874Y362888D02*
Y362882D01*
D01*
Y362888D01*
D02*
G37*
G36*
X168399Y365285D02*
X168344D01*
X168306Y365279D01*
X168257D01*
X168202Y365274D01*
X168142Y365268D01*
X168077Y365257D01*
X167935Y365230D01*
X167788Y365192D01*
X167640Y365137D01*
X167575Y365099D01*
X167509Y365061D01*
X167504Y365055D01*
X167493Y365050D01*
X167476Y365039D01*
X167460Y365017D01*
X167400Y364968D01*
X167334Y364897D01*
X167263Y364810D01*
X167198Y364706D01*
X167138Y364580D01*
X167089Y364444D01*
X167815Y364335D01*
Y364346D01*
X167826Y364367D01*
X167837Y364406D01*
X167853Y364455D01*
X167880Y364509D01*
X167913Y364559D01*
X167951Y364613D01*
X168000Y364657D01*
X168006Y364662D01*
X168028Y364673D01*
X168061Y364689D01*
X168104Y364706D01*
X168159Y364728D01*
X168230Y364744D01*
X168306Y364755D01*
X168399Y364760D01*
X168443D01*
X168497Y364755D01*
X168557Y364750D01*
X168623Y364739D01*
X168694Y364717D01*
X168759Y364695D01*
X168819Y364662D01*
X168825Y364657D01*
X168836Y364646D01*
X168852Y364630D01*
X168869Y364608D01*
X168885Y364580D01*
X168901Y364548D01*
X168912Y364509D01*
X168918Y364466D01*
Y364460D01*
Y364449D01*
X168912Y364417D01*
X168896Y364373D01*
X168863Y364329D01*
X168852Y364318D01*
X168836Y364313D01*
X168814Y364296D01*
X168781Y364285D01*
X168738Y364269D01*
X168688Y364253D01*
X168623Y364236D01*
X168612D01*
X168585Y364225D01*
X168541Y364214D01*
X168481Y364204D01*
X168410Y364187D01*
X168333Y364165D01*
X168246Y364143D01*
X168153Y364116D01*
X167962Y364062D01*
X167869Y364034D01*
X167782Y364002D01*
X167700Y363974D01*
X167624Y363942D01*
X167558Y363909D01*
X167509Y363881D01*
X167504Y363876D01*
X167493Y363871D01*
X167482Y363860D01*
X167460Y363838D01*
X167405Y363789D01*
X167351Y363718D01*
X167291Y363630D01*
X167236Y363527D01*
X167214Y363467D01*
X167203Y363401D01*
X167192Y363335D01*
X167187Y363264D01*
Y363259D01*
Y363248D01*
Y363232D01*
X167192Y363204D01*
X167198Y363177D01*
X167203Y363139D01*
X167220Y363057D01*
X167253Y362964D01*
X167307Y362866D01*
X167334Y362811D01*
X167373Y362762D01*
X167416Y362713D01*
X167465Y362669D01*
X167471Y362664D01*
X167476Y362658D01*
X167493Y362648D01*
X167520Y362631D01*
X167547Y362615D01*
X167586Y362593D01*
X167629Y362571D01*
X167678Y362544D01*
X167738Y362522D01*
X167804Y362500D01*
X167875Y362478D01*
X167951Y362462D01*
X168039Y362445D01*
X168131Y362435D01*
X168230Y362424D01*
X167089D01*
D01*
X168432D01*
X168475Y362429D01*
X168530Y362435D01*
X168590Y362440D01*
X168656Y362445D01*
X168792Y362467D01*
X168929Y362500D01*
X169060Y362549D01*
X169120Y362577D01*
X169174Y362609D01*
X169180D01*
X169185Y362620D01*
X169218Y362642D01*
X169267Y362686D01*
X169322Y362746D01*
X169387Y362817D01*
X169447Y362910D01*
X169507Y363019D01*
X169551Y363144D01*
X168869Y363270D01*
Y363264D01*
X168858Y363243D01*
X168847Y363215D01*
X168830Y363183D01*
X168809Y363139D01*
X168776Y363101D01*
X168743Y363062D01*
X168699Y363030D01*
X168694Y363024D01*
X168677Y363013D01*
X168650Y363002D01*
X168612Y362986D01*
X168563Y362970D01*
X168503Y362953D01*
X168432Y362948D01*
X168350Y362942D01*
X168301D01*
X168252Y362948D01*
X168192Y362953D01*
X168121Y362964D01*
X168055Y362975D01*
X167995Y362997D01*
X167940Y363024D01*
X167935D01*
X167929Y363035D01*
X167902Y363062D01*
X167869Y363112D01*
X167864Y363139D01*
X167859Y363172D01*
Y363177D01*
Y363183D01*
X167869Y363215D01*
X167891Y363259D01*
X167908Y363281D01*
X167929Y363303D01*
X167935Y363308D01*
X167957Y363314D01*
X167968Y363324D01*
X167990Y363330D01*
X168017Y363341D01*
X168050Y363357D01*
X168093Y363368D01*
X168137Y363385D01*
X168192Y363401D01*
X168257Y363417D01*
X168328Y363439D01*
X168410Y363461D01*
X168503Y363483D01*
X168606Y363510D01*
X168612D01*
X168634Y363516D01*
X168661Y363521D01*
X168699Y363532D01*
X168748Y363548D01*
X168803Y363559D01*
X168923Y363597D01*
X169060Y363647D01*
X169191Y363701D01*
X169256Y363734D01*
X169316Y363761D01*
X169366Y363800D01*
X169415Y363832D01*
X169425Y363843D01*
X169453Y363865D01*
X169486Y363909D01*
X169529Y363969D01*
X169573Y364045D01*
X169606Y364138D01*
X169633Y364247D01*
X169644Y364367D01*
Y362686D01*
Y364406D01*
X169639Y364433D01*
X169633Y364460D01*
X169628Y364498D01*
X169606Y364591D01*
X169568Y364689D01*
X169540Y364744D01*
X169513Y364799D01*
X169475Y364853D01*
X169431Y364908D01*
X169382Y364963D01*
X169327Y365017D01*
X169322Y365023D01*
X169311Y365028D01*
X169295Y365039D01*
X169267Y365061D01*
X169234Y365077D01*
X169196Y365099D01*
X169147Y365126D01*
X169093Y365148D01*
X169032Y365176D01*
X168961Y365197D01*
X168885Y365225D01*
X168803Y365241D01*
X168710Y365257D01*
X168612Y365274D01*
X168508Y365279D01*
X168399Y365285D01*
D02*
G37*
G36*
X176447Y362424D02*
D01*
X175306D01*
X176447D01*
D02*
G37*
G36*
X175246Y365225D02*
D01*
Y362424D01*
X174809D01*
X174858Y362429D01*
X174918Y362440D01*
X174995Y362456D01*
X175077Y362484D01*
X175159Y362516D01*
X175246Y362566D01*
X175017Y363193D01*
X175011Y363188D01*
X174984Y363177D01*
X174951Y363155D01*
X174907Y363133D01*
X174853Y363112D01*
X174798Y363090D01*
X174738Y363079D01*
X174678Y363073D01*
X174656D01*
X174624Y363079D01*
X174591Y363084D01*
X174553Y363095D01*
X174509Y363112D01*
X174465Y363133D01*
X174421Y363161D01*
X174416Y363166D01*
X174405Y363177D01*
X174383Y363199D01*
X174361Y363232D01*
X174334Y363270D01*
X174307Y363324D01*
X174279Y363390D01*
X174258Y363467D01*
Y363477D01*
X174252Y363494D01*
X174247Y363510D01*
Y363538D01*
X174241Y363570D01*
X174236Y363614D01*
X174230Y363663D01*
X174225Y363718D01*
X174219Y363789D01*
X174214Y363860D01*
Y363947D01*
X174208Y364040D01*
X174203Y364143D01*
Y364258D01*
Y364384D01*
Y365225D01*
X173477D01*
Y362484D01*
X174148D01*
Y362871D01*
X174154Y362866D01*
X174176Y362833D01*
X174208Y362784D01*
X174252Y362724D01*
X174296Y362664D01*
X174351Y362604D01*
X174400Y362549D01*
X174454Y362511D01*
X174460Y362506D01*
X174476Y362495D01*
X174509Y362484D01*
X174547Y362467D01*
X174591Y362451D01*
X174645Y362435D01*
X174700Y362429D01*
X174765Y362424D01*
X173477D01*
X175246D01*
Y365225D01*
D02*
G37*
G36*
X135770Y365225D02*
X135044D01*
Y361446D01*
X135770D01*
Y365225D01*
D02*
G37*
G36*
X129944D02*
X126548D01*
Y361446D01*
X128252D01*
X128301Y361452D01*
X128361D01*
X128421Y361457D01*
X128492D01*
X128634Y361474D01*
X128781Y361490D01*
X128918Y361517D01*
X128978Y361534D01*
X129033Y361550D01*
X129038D01*
X129043Y361556D01*
X129076Y361572D01*
X129125Y361599D01*
X129191Y361632D01*
X129262Y361686D01*
X129333Y361747D01*
X129404Y361823D01*
X129469Y361916D01*
Y361921D01*
X129475Y361927D01*
X129486Y361943D01*
X129497Y361960D01*
X129524Y362014D01*
X129557Y362085D01*
X129584Y362172D01*
X129611Y362271D01*
X129633Y362385D01*
X129639Y362506D01*
Y362511D01*
Y362522D01*
Y362549D01*
X129633Y362577D01*
Y362615D01*
X129628Y362653D01*
X129606Y362751D01*
X129578Y362866D01*
X129535Y362981D01*
X129469Y363101D01*
X129431Y363155D01*
X129387Y363210D01*
X129382Y363215D01*
X129376Y363221D01*
X129360Y363237D01*
X129338Y363253D01*
X129316Y363275D01*
X129284Y363303D01*
X129245Y363330D01*
X129202Y363357D01*
X129153Y363390D01*
X129093Y363417D01*
X129033Y363445D01*
X128967Y363472D01*
X128891Y363499D01*
X128814Y363521D01*
X128732Y363543D01*
X128639Y363559D01*
X128645D01*
X128650Y363565D01*
X128683Y363587D01*
X128727Y363614D01*
X128781Y363652D01*
X128847Y363701D01*
X128912Y363750D01*
X128983Y363810D01*
X129043Y363876D01*
X129049Y363881D01*
X129076Y363909D01*
X129109Y363952D01*
X129158Y364018D01*
X129224Y364100D01*
X129256Y364154D01*
X129295Y364209D01*
X129338Y364269D01*
X129382Y364335D01*
X129431Y364411D01*
X129480Y364488D01*
X129944Y365225D01*
D02*
G37*
G36*
X160537Y365296D02*
X157463D01*
X158948D01*
X158899Y365290D01*
X158839Y365285D01*
X158773Y365279D01*
X158697Y365268D01*
X158615Y365252D01*
X158435Y365214D01*
X158342Y365186D01*
X158254Y365159D01*
X158162Y365121D01*
X158074Y365077D01*
X157992Y365028D01*
X157916Y364968D01*
X157910Y364963D01*
X157899Y364952D01*
X157878Y364935D01*
X157856Y364908D01*
X157823Y364870D01*
X157790Y364826D01*
X157752Y364777D01*
X157714Y364722D01*
X157676Y364657D01*
X157637Y364586D01*
X157599Y364504D01*
X157561Y364417D01*
X157534Y364324D01*
X157501Y364220D01*
X157479Y364111D01*
X157463Y363996D01*
X158205Y363925D01*
Y363931D01*
X158211Y363942D01*
Y363963D01*
X158216Y363985D01*
X158238Y364051D01*
X158265Y364133D01*
X158298Y364225D01*
X158347Y364318D01*
X158402Y364400D01*
X158473Y364477D01*
X158484Y364482D01*
X158511Y364504D01*
X158555Y364531D01*
X158620Y364564D01*
X158702Y364597D01*
X158795Y364624D01*
X158904Y364646D01*
X159030Y364651D01*
X159090D01*
X159155Y364640D01*
X159237Y364630D01*
X159325Y364613D01*
X159417Y364586D01*
X159505Y364548D01*
X159581Y364498D01*
X159592Y364493D01*
X159614Y364471D01*
X159641Y364438D01*
X159679Y364395D01*
X159712Y364340D01*
X159745Y364275D01*
X159767Y364209D01*
X159772Y364133D01*
Y364127D01*
Y364111D01*
X159767Y364084D01*
X159761Y364051D01*
X159750Y364018D01*
X159739Y363980D01*
X159718Y363942D01*
X159690Y363903D01*
X159685Y363898D01*
X159674Y363887D01*
X159658Y363871D01*
X159630Y363849D01*
X159592Y363821D01*
X159543Y363794D01*
X159488Y363767D01*
X159417Y363739D01*
X159412D01*
X159390Y363729D01*
X159352Y363718D01*
X159325Y363707D01*
X159292Y363701D01*
X159254Y363690D01*
X159210Y363674D01*
X159161Y363663D01*
X159106Y363647D01*
X159041Y363630D01*
X158970Y363614D01*
X158893Y363592D01*
X158806Y363570D01*
X158800D01*
X158779Y363565D01*
X158746Y363554D01*
X158708Y363543D01*
X158658Y363527D01*
X158598Y363510D01*
X158538Y363488D01*
X158467Y363467D01*
X158325Y363412D01*
X158189Y363346D01*
X158118Y363314D01*
X158058Y363275D01*
X157998Y363237D01*
X157949Y363199D01*
X157943Y363193D01*
X157932Y363183D01*
X157916Y363166D01*
X157894Y363144D01*
X157867Y363112D01*
X157839Y363073D01*
X157807Y363035D01*
X157779Y362986D01*
X157714Y362871D01*
X157659Y362740D01*
X157637Y362669D01*
X157621Y362598D01*
X157610Y362516D01*
X157605Y362435D01*
Y362429D01*
Y362424D01*
Y362407D01*
Y362385D01*
X157616Y362331D01*
X157626Y362260D01*
X157643Y362178D01*
X157670Y362085D01*
X157708Y361987D01*
X157763Y361894D01*
Y361889D01*
X157768Y361883D01*
X157796Y361850D01*
X157828Y361807D01*
X157883Y361752D01*
X157949Y361692D01*
X158030Y361627D01*
X158123Y361566D01*
X158232Y361512D01*
X158238D01*
X158249Y361506D01*
X158265Y361501D01*
X158287Y361490D01*
X158320Y361479D01*
X158353Y361468D01*
X158396Y361457D01*
X158446Y361441D01*
X158555Y361419D01*
X158680Y361397D01*
X158822Y361381D01*
X158981Y361375D01*
X157463D01*
X159046D01*
X159095Y361381D01*
X159155Y361386D01*
X159226Y361392D01*
X159297Y361403D01*
X159379Y361414D01*
X159554Y361452D01*
X159641Y361479D01*
X159729Y361506D01*
X159816Y361545D01*
X159898Y361588D01*
X159974Y361637D01*
X160045Y361692D01*
X160051Y361697D01*
X160062Y361708D01*
X160078Y361725D01*
X160100Y361747D01*
X160127Y361779D01*
X160160Y361818D01*
X160193Y361861D01*
X160231Y361910D01*
X160264Y361970D01*
X160296Y362031D01*
X160329Y362102D01*
X160356Y362178D01*
X160384Y362254D01*
X160406Y362342D01*
X160422Y362429D01*
X160427Y362527D01*
X159663Y362555D01*
Y362549D01*
Y362544D01*
X159652Y362506D01*
X159641Y362456D01*
X159619Y362396D01*
X159592Y362325D01*
X159554Y362260D01*
X159505Y362194D01*
X159450Y362140D01*
X159445Y362134D01*
X159423Y362118D01*
X159385Y362096D01*
X159330Y362074D01*
X159265Y362052D01*
X159183Y362031D01*
X159084Y362014D01*
X158970Y362009D01*
X158915D01*
X158855Y362014D01*
X158784Y362025D01*
X158702Y362041D01*
X158615Y362069D01*
X158533Y362102D01*
X158456Y362151D01*
X158451Y362156D01*
X158440Y362167D01*
X158418Y362183D01*
X158396Y362211D01*
X158375Y362243D01*
X158353Y362287D01*
X158342Y362331D01*
X158336Y362385D01*
Y362391D01*
Y362407D01*
X158342Y362435D01*
X158353Y362462D01*
X158364Y362500D01*
X158380Y362538D01*
X158407Y362577D01*
X158446Y362615D01*
X158451Y362620D01*
X158478Y362637D01*
X158495Y362648D01*
X158522Y362658D01*
X158549Y362675D01*
X158587Y362691D01*
X158631Y362707D01*
X158680Y362729D01*
X158740Y362751D01*
X158800Y362773D01*
X158877Y362795D01*
X158959Y362817D01*
X159046Y362839D01*
X159144Y362866D01*
X159150D01*
X159172Y362871D01*
X159199Y362877D01*
X159237Y362888D01*
X159281Y362899D01*
X159335Y362915D01*
X159396Y362931D01*
X159456Y362948D01*
X159587Y362991D01*
X159723Y363035D01*
X159854Y363084D01*
X159909Y363112D01*
X159963Y363139D01*
X159969D01*
X159974Y363144D01*
X160007Y363166D01*
X160056Y363199D01*
X160116Y363243D01*
X160182Y363297D01*
X160253Y363363D01*
X160324Y363439D01*
X160384Y363527D01*
X160389Y363538D01*
X160406Y363570D01*
X160433Y363619D01*
X160460Y363690D01*
X160487Y363778D01*
X160515Y363881D01*
X160531Y363996D01*
X160537Y364127D01*
Y364182D01*
X160531Y364209D01*
X160526Y364247D01*
X160515Y364324D01*
X160493Y364422D01*
X160460Y364526D01*
X160411Y364630D01*
X160351Y364739D01*
Y364744D01*
X160340Y364750D01*
X160318Y364782D01*
X160275Y364837D01*
X160220Y364897D01*
X160149Y364968D01*
X160056Y365034D01*
X159958Y365099D01*
X159838Y365159D01*
X159832D01*
X159821Y365164D01*
X159805Y365170D01*
X159778Y365181D01*
X159745Y365192D01*
X159707Y365203D01*
X159663Y365214D01*
X159614Y365225D01*
X159554Y365241D01*
X159494Y365252D01*
X159352Y365274D01*
X159194Y365290D01*
X159019Y365296D01*
X160537D01*
D02*
G37*
G36*
X134099Y365225D02*
X133373D01*
Y363052D01*
X132969D01*
Y362484D01*
X133373D01*
Y362282D01*
Y362276D01*
Y362265D01*
Y362249D01*
Y362222D01*
X133379Y362161D01*
X133384Y362085D01*
X133389Y362003D01*
X133406Y361916D01*
X133422Y361834D01*
X133444Y361763D01*
X133450Y361757D01*
X133460Y361736D01*
X133477Y361703D01*
X133504Y361665D01*
X133542Y361621D01*
X133586Y361572D01*
X133646Y361528D01*
X133712Y361485D01*
X133723Y361479D01*
X133750Y361468D01*
X133794Y361452D01*
X133848Y361430D01*
X133925Y361408D01*
X134007Y361392D01*
X134105Y361381D01*
X134214Y361375D01*
X132969D01*
D01*
X134826D01*
X134269D01*
X134329Y361381D01*
X134405Y361386D01*
X134498Y361397D01*
X134602Y361414D01*
X134711Y361435D01*
X134826Y361468D01*
X134727Y361976D01*
X134722D01*
X134700Y361970D01*
X134662Y361960D01*
X134618Y361954D01*
X134569Y361943D01*
X134514Y361938D01*
X134394Y361932D01*
X134367D01*
X134340Y361938D01*
X134307Y361943D01*
X134230Y361965D01*
X134198Y361981D01*
X134165Y362009D01*
Y362014D01*
X134154Y362025D01*
X134143Y362041D01*
X134132Y362074D01*
X134121Y362112D01*
X134110Y362161D01*
X134105Y362222D01*
X134099Y362293D01*
Y362484D01*
X134640D01*
Y363052D01*
X134099D01*
Y365225D01*
D02*
G37*
%LPD*%
G36*
X145150Y364771D02*
X145200Y364760D01*
X145260Y364744D01*
X145320Y364722D01*
X145391Y364695D01*
X145456Y364651D01*
X145462Y364646D01*
X145478Y364635D01*
X145500Y364613D01*
X145527Y364586D01*
X145554Y364548D01*
X145582Y364509D01*
X145609Y364460D01*
X145625Y364411D01*
Y364406D01*
X145631Y364395D01*
X145636Y364367D01*
X145642Y364335D01*
X145647Y364285D01*
X145653Y364225D01*
X145658Y364149D01*
Y364062D01*
Y363914D01*
X145653D01*
X145631Y363925D01*
X145598Y363931D01*
X145549Y363947D01*
X145489Y363963D01*
X145407Y363985D01*
X145320Y364007D01*
X145210Y364029D01*
X145200D01*
X145183Y364034D01*
X145161Y364040D01*
X145112Y364051D01*
X145047Y364067D01*
X144981Y364083D01*
X144916Y364105D01*
X144861Y364133D01*
X144817Y364154D01*
X144812Y364160D01*
X144796Y364171D01*
X144774Y364193D01*
X144752Y364220D01*
X144725Y364258D01*
X144703Y364302D01*
X144686Y364351D01*
X144681Y364406D01*
Y364411D01*
Y364433D01*
X144686Y364460D01*
X144697Y364493D01*
X144708Y364537D01*
X144725Y364580D01*
X144752Y364624D01*
X144790Y364668D01*
X144796Y364673D01*
X144812Y364684D01*
X144834Y364700D01*
X144872Y364722D01*
X144910Y364744D01*
X144959Y364760D01*
X145019Y364771D01*
X145079Y364777D01*
X145112D01*
X145150Y364771D01*
D02*
G37*
G36*
X162803Y363619D02*
Y363608D01*
Y363597D01*
X162797Y363576D01*
X162792Y363516D01*
X162781Y363450D01*
X162759Y363374D01*
X162732Y363292D01*
X162688Y363215D01*
X162639Y363150D01*
X162633Y363144D01*
X162611Y363123D01*
X162579Y363095D01*
X162535Y363062D01*
X162480Y363035D01*
X162415Y363008D01*
X162344Y362986D01*
X162262Y362981D01*
X162224D01*
X162180Y362991D01*
X162126Y363002D01*
X162065Y363024D01*
X162000Y363052D01*
X161934Y363095D01*
X161874Y363155D01*
X161869Y363161D01*
X161853Y363188D01*
X161825Y363226D01*
X161798Y363281D01*
X161765Y363346D01*
X161743Y363428D01*
X161727Y363521D01*
X161722Y363625D01*
X162803D01*
Y363619D01*
D02*
G37*
G36*
X154875D02*
Y363608D01*
Y363597D01*
X154869Y363576D01*
X154864Y363516D01*
X154853Y363450D01*
X154831Y363374D01*
X154804Y363292D01*
X154760Y363215D01*
X154711Y363150D01*
X154705Y363144D01*
X154683Y363123D01*
X154651Y363095D01*
X154607Y363062D01*
X154552Y363035D01*
X154487Y363008D01*
X154416Y362986D01*
X154334Y362981D01*
X154296D01*
X154252Y362991D01*
X154198Y363002D01*
X154138Y363024D01*
X154072Y363052D01*
X154007Y363095D01*
X153946Y363155D01*
X153941Y363161D01*
X153925Y363188D01*
X153897Y363226D01*
X153870Y363281D01*
X153837Y363346D01*
X153815Y363428D01*
X153799Y363521D01*
X153794Y363625D01*
X154875D01*
Y363619D01*
D02*
G37*
G36*
X138140Y363619D02*
Y363608D01*
Y363597D01*
X138134Y363576D01*
X138129Y363516D01*
X138118Y363450D01*
X138096Y363374D01*
X138069Y363292D01*
X138025Y363215D01*
X137976Y363150D01*
X137970Y363144D01*
X137949Y363123D01*
X137916Y363095D01*
X137872Y363062D01*
X137818Y363035D01*
X137752Y363008D01*
X137681Y362986D01*
X137599Y362981D01*
X137561D01*
X137517Y362991D01*
X137463Y363002D01*
X137403Y363024D01*
X137337Y363052D01*
X137272Y363095D01*
X137212Y363155D01*
X137206Y363161D01*
X137190Y363188D01*
X137162Y363226D01*
X137135Y363281D01*
X137102Y363346D01*
X137081Y363428D01*
X137064Y363521D01*
X137059Y363625D01*
X138140D01*
Y363619D01*
D02*
G37*
G36*
X131975D02*
Y363608D01*
Y363597D01*
X131970Y363576D01*
X131965Y363516D01*
X131954Y363450D01*
X131932Y363374D01*
X131904Y363292D01*
X131861Y363215D01*
X131812Y363150D01*
X131806Y363144D01*
X131784Y363123D01*
X131752Y363095D01*
X131708Y363062D01*
X131653Y363035D01*
X131588Y363008D01*
X131517Y362986D01*
X131435Y362981D01*
X131397D01*
X131353Y362991D01*
X131298Y363002D01*
X131238Y363024D01*
X131173Y363052D01*
X131107Y363095D01*
X131047Y363155D01*
X131042Y363161D01*
X131025Y363188D01*
X130998Y363226D01*
X130971Y363281D01*
X130938Y363346D01*
X130916Y363428D01*
X130900Y363521D01*
X130894Y363625D01*
X131975D01*
Y363619D01*
D02*
G37*
G36*
X171577Y364689D02*
X171626Y364684D01*
X171691Y364668D01*
X171768Y364640D01*
X171850Y364608D01*
X171926Y364553D01*
X172003Y364482D01*
X172014Y364471D01*
X172035Y364444D01*
X172063Y364389D01*
X172101Y364324D01*
X172139Y364231D01*
X172167Y364127D01*
X172188Y363996D01*
X172199Y363854D01*
Y363849D01*
Y363838D01*
Y363816D01*
X172194Y363789D01*
Y363756D01*
X172188Y363712D01*
X172177Y363625D01*
X172150Y363527D01*
X172117Y363423D01*
X172068Y363319D01*
X172003Y363232D01*
X171992Y363221D01*
X171970Y363199D01*
X171926Y363161D01*
X171872Y363123D01*
X171801Y363084D01*
X171724Y363046D01*
X171631Y363024D01*
X171528Y363013D01*
X171500D01*
X171478Y363019D01*
X171429Y363024D01*
X171364Y363041D01*
X171287Y363068D01*
X171205Y363106D01*
X171124Y363161D01*
X171047Y363232D01*
X171042Y363243D01*
X171020Y363270D01*
X170987Y363324D01*
X170954Y363390D01*
X170916Y363477D01*
X170889Y363587D01*
X170867Y363712D01*
X170856Y363854D01*
Y363860D01*
Y363871D01*
Y363892D01*
X170861Y363920D01*
Y363958D01*
X170867Y363996D01*
X170878Y364084D01*
X170905Y364187D01*
X170938Y364291D01*
X170982Y364395D01*
X171047Y364482D01*
X171058Y364493D01*
X171080Y364515D01*
X171124Y364548D01*
X171184Y364586D01*
X171249Y364630D01*
X171331Y364662D01*
X171424Y364684D01*
X171528Y364695D01*
X171555D01*
X171577Y364689D01*
D02*
G37*
G36*
X172942Y362424D02*
X171582D01*
X171626Y362429D01*
X171680Y362435D01*
X171741Y362445D01*
X171812Y362456D01*
X171882Y362473D01*
X171964Y362495D01*
X172046Y362522D01*
X172128Y362555D01*
X172216Y362593D01*
X172303Y362642D01*
X172385Y362697D01*
X172467Y362757D01*
X172543Y362828D01*
X172549Y362833D01*
X172560Y362844D01*
X172581Y362871D01*
X172603Y362899D01*
X172636Y362942D01*
X172669Y362986D01*
X172707Y363046D01*
X172745Y363106D01*
X172778Y363177D01*
X172816Y363253D01*
X172849Y363341D01*
X172882Y363428D01*
X172904Y363527D01*
X172925Y363625D01*
X172936Y363734D01*
X172942Y363849D01*
Y362424D01*
D02*
G37*
G36*
X128481Y364406D02*
X128475Y364400D01*
X128470Y364384D01*
X128454Y364362D01*
X128432Y364335D01*
X128410Y364302D01*
X128383Y364258D01*
X128323Y364171D01*
X128252Y364072D01*
X128186Y363985D01*
X128126Y363903D01*
X128099Y363876D01*
X128077Y363849D01*
X128071Y363843D01*
X128061Y363832D01*
X128039Y363810D01*
X128011Y363783D01*
X127973Y363761D01*
X127935Y363734D01*
X127891Y363712D01*
X127848Y363690D01*
X127842D01*
X127826Y363685D01*
X127798Y363674D01*
X127755Y363668D01*
X127700Y363658D01*
X127635Y363652D01*
X127558Y363647D01*
X127313D01*
Y365225D01*
X129027D01*
X128481Y364406D01*
D02*
G37*
G36*
X128164Y363041D02*
X128279Y363035D01*
X128394Y363030D01*
X128443Y363024D01*
X128487Y363019D01*
X128530Y363008D01*
X128557Y363002D01*
X128563D01*
X128579Y362991D01*
X128607Y362981D01*
X128634Y362964D01*
X128705Y362915D01*
X128738Y362882D01*
X128770Y362844D01*
X128776Y362839D01*
X128781Y362822D01*
X128798Y362800D01*
X128814Y362768D01*
X128825Y362724D01*
X128841Y362675D01*
X128847Y362620D01*
X128852Y362560D01*
Y362549D01*
Y362527D01*
X128847Y362495D01*
X128841Y362451D01*
X128825Y362402D01*
X128809Y362353D01*
X128781Y362298D01*
X128749Y362254D01*
X128743Y362249D01*
X128732Y362232D01*
X128705Y362216D01*
X128672Y362189D01*
X128634Y362161D01*
X128585Y362140D01*
X128525Y362118D01*
X128459Y362102D01*
X128454D01*
X128437Y362096D01*
X128405D01*
X128355Y362090D01*
X128235D01*
X128186Y362085D01*
X127313D01*
Y363046D01*
X128055D01*
X128164Y363041D01*
D02*
G37*
%LPC*%
G36*
X132028Y324222D02*
D01*
D01*
D01*
D02*
G37*
G36*
Y323756D02*
D01*
D01*
D01*
D02*
G37*
G36*
Y323625D02*
Y323603D01*
D01*
Y323625D01*
D02*
G37*
G36*
X116523Y326905D02*
X115582D01*
X115575Y322939D01*
X114583Y326905D01*
X113599D01*
X112608Y322939D01*
Y326905D01*
X111667D01*
Y321861D01*
X116523D01*
Y326905D01*
D02*
G37*
G36*
X132028Y322670D02*
D01*
D01*
D01*
D02*
G37*
G36*
X100237Y326905D02*
X96402D01*
Y321861D01*
X100142D01*
Y322713D01*
X97423D01*
Y323829D01*
X99952D01*
Y324682D01*
X97423D01*
Y326052D01*
X100237D01*
Y322619D01*
Y326905D01*
D02*
G37*
G36*
X95673D02*
X92116D01*
Y321897D01*
X93136D01*
Y326052D01*
X95673D01*
Y322495D01*
Y326905D01*
D02*
G37*
G36*
X137365D02*
X132830D01*
Y321861D01*
X135105D01*
X135170Y321868D01*
X135251D01*
X135331Y321875D01*
X135425D01*
X135615Y321897D01*
X135812Y321919D01*
X135994Y321955D01*
X136074Y321977D01*
X136147Y321999D01*
X136154D01*
X136162Y322006D01*
X136206Y322028D01*
X136271Y322065D01*
X136359Y322108D01*
X136453Y322181D01*
X136548Y322262D01*
X136643Y322364D01*
X136730Y322487D01*
Y322495D01*
X136738Y322502D01*
X136752Y322524D01*
X136767Y322546D01*
X136803Y322619D01*
X136847Y322713D01*
X136883Y322830D01*
X136920Y322961D01*
X136949Y323114D01*
X136956Y323275D01*
Y323282D01*
Y323297D01*
Y323333D01*
X136949Y323370D01*
Y323421D01*
X136942Y323472D01*
X136913Y323603D01*
X136876Y323756D01*
X136818Y323909D01*
X136730Y324069D01*
X136679Y324142D01*
X136621Y324215D01*
X136614Y324222D01*
X136607Y324230D01*
X136585Y324252D01*
X136556Y324273D01*
X136526Y324303D01*
X136483Y324339D01*
X136432Y324376D01*
X136373Y324412D01*
X136308Y324456D01*
X136227Y324492D01*
X136147Y324529D01*
X136060Y324565D01*
X135958Y324602D01*
X135856Y324631D01*
X135746Y324660D01*
X135622Y324682D01*
X135630D01*
X135637Y324689D01*
X135681Y324718D01*
X135739Y324755D01*
X135812Y324806D01*
X135899Y324871D01*
X135987Y324937D01*
X136082Y325017D01*
X136162Y325105D01*
X136169Y325112D01*
X136206Y325148D01*
X136249Y325207D01*
X136315Y325294D01*
X136402Y325403D01*
X136446Y325476D01*
X136497Y325549D01*
X136556Y325629D01*
X136614Y325717D01*
X136679Y325819D01*
X136745Y325921D01*
X137365Y326905D01*
D01*
D02*
G37*
G36*
X126685D02*
X122683D01*
X124177D01*
Y322713D01*
X122683D01*
Y321861D01*
X126685D01*
Y322750D01*
Y322713D01*
X125198D01*
Y326905D01*
X126685D01*
D01*
D02*
G37*
G36*
X109058D02*
X105055D01*
X106550D01*
Y322713D01*
X105055D01*
Y321861D01*
X109058D01*
Y322713D01*
D01*
X107571D01*
Y326905D01*
X109058D01*
D02*
G37*
G36*
X104567D02*
X101104D01*
Y321861D01*
X104567D01*
Y322713D01*
D01*
X102125D01*
Y323909D01*
X104232D01*
Y324762D01*
X102125D01*
Y326905D01*
X104567D01*
D01*
D02*
G37*
G36*
X132028Y327000D02*
X127137D01*
Y321766D01*
Y324346D01*
X127144Y324288D01*
Y324222D01*
X127151Y324150D01*
X127159Y324062D01*
X127166Y323967D01*
X127195Y323763D01*
X127232Y323545D01*
X127290Y323326D01*
X127363Y323122D01*
Y323114D01*
X127370Y323107D01*
X127385Y323085D01*
X127392Y323056D01*
X127436Y322983D01*
X127487Y322888D01*
X127552Y322779D01*
X127632Y322670D01*
X127727Y322546D01*
X127829Y322429D01*
X127837Y322422D01*
X127844Y322415D01*
X127880Y322378D01*
X127946Y322320D01*
X128026Y322254D01*
X128121Y322181D01*
X128230Y322101D01*
X128354Y322028D01*
X128486Y321970D01*
X128493D01*
X128507Y321963D01*
X128536Y321948D01*
X128573Y321941D01*
X128617Y321919D01*
X128668Y321904D01*
X128733Y321890D01*
X128799Y321868D01*
X128959Y321831D01*
X129142Y321795D01*
X129353Y321773D01*
X129572Y321766D01*
X127137D01*
X132028D01*
X129623D01*
X129681Y321773D01*
X129754D01*
X129849Y321788D01*
X129958Y321802D01*
X130082Y321824D01*
X130213Y321853D01*
X130352Y321890D01*
X130498Y321933D01*
X130643Y321992D01*
X130796Y322057D01*
X130942Y322138D01*
X131088Y322232D01*
X131227Y322342D01*
X131358Y322466D01*
X131365Y322473D01*
X131387Y322495D01*
X131423Y322538D01*
X131460Y322590D01*
X131511Y322662D01*
X131569Y322750D01*
X131627Y322852D01*
X131693Y322969D01*
X131759Y323093D01*
X131817Y323238D01*
X131875Y323399D01*
X131926Y323566D01*
X131970Y323756D01*
X131999Y323953D01*
X132021Y324164D01*
X132028Y324390D01*
Y324441D01*
X132021Y324507D01*
Y324594D01*
X132007Y324696D01*
X131992Y324813D01*
X131970Y324952D01*
X131948Y325090D01*
X131912Y325243D01*
X131868Y325403D01*
X131810Y325564D01*
X131744Y325724D01*
X131671Y325877D01*
X131576Y326030D01*
X131474Y326176D01*
X131358Y326315D01*
X131350Y326322D01*
X131329Y326344D01*
X131292Y326380D01*
X131234Y326424D01*
X131168Y326475D01*
X131088Y326533D01*
X130993Y326592D01*
X130891Y326657D01*
X130767Y326723D01*
X130636Y326781D01*
X130490Y326840D01*
X130330Y326891D01*
X130162Y326934D01*
X129980Y326971D01*
X129790Y326993D01*
X129586Y327000D01*
X132028D01*
D02*
G37*
G36*
X122238D02*
X117346D01*
Y321766D01*
Y324346D01*
X117354Y324288D01*
Y324222D01*
X117361Y324150D01*
X117368Y324062D01*
X117376Y323967D01*
X117405Y323763D01*
X117441Y323545D01*
X117499Y323326D01*
X117572Y323122D01*
Y323114D01*
X117580Y323107D01*
X117594Y323085D01*
X117602Y323056D01*
X117645Y322983D01*
X117696Y322888D01*
X117762Y322779D01*
X117842Y322670D01*
X117937Y322546D01*
X118039Y322429D01*
X118046Y322422D01*
X118053Y322415D01*
X118090Y322378D01*
X118156Y322320D01*
X118236Y322254D01*
X118331Y322181D01*
X118440Y322101D01*
X118564Y322028D01*
X118695Y321970D01*
X118702D01*
X118717Y321963D01*
X118746Y321948D01*
X118782Y321941D01*
X118826Y321919D01*
X118877Y321904D01*
X118943Y321890D01*
X119009Y321868D01*
X119169Y321831D01*
X119351Y321795D01*
X119562Y321773D01*
X119781Y321766D01*
X117346D01*
X122238D01*
X119832D01*
X119891Y321773D01*
X119963D01*
X120058Y321788D01*
X120168Y321802D01*
X120291Y321824D01*
X120423Y321853D01*
X120561Y321890D01*
X120707Y321933D01*
X120853Y321992D01*
X121006Y322057D01*
X121152Y322138D01*
X121298Y322232D01*
X121436Y322342D01*
X121567Y322466D01*
X121574Y322473D01*
X121596Y322495D01*
X121633Y322538D01*
X121669Y322590D01*
X121720Y322662D01*
X121779Y322750D01*
X121837Y322852D01*
X121903Y322969D01*
X121968Y323093D01*
X122027Y323238D01*
X122085Y323399D01*
X122136Y323566D01*
X122180Y323756D01*
X122209Y323953D01*
X122231Y324164D01*
X122238Y324390D01*
Y324441D01*
X122231Y324507D01*
Y324594D01*
X122216Y324696D01*
X122202Y324813D01*
X122180Y324952D01*
X122158Y325090D01*
X122121Y325243D01*
X122078Y325403D01*
X122019Y325564D01*
X121954Y325724D01*
X121881Y325877D01*
X121786Y326030D01*
X121684Y326176D01*
X121567Y326315D01*
X121560Y326322D01*
X121538Y326344D01*
X121502Y326380D01*
X121443Y326424D01*
X121378Y326475D01*
X121298Y326533D01*
X121203Y326592D01*
X121101Y326657D01*
X120977Y326723D01*
X120845Y326781D01*
X120700Y326840D01*
X120539Y326891D01*
X120372Y326934D01*
X120189Y326971D01*
X120000Y326993D01*
X119796Y327000D01*
X122238D01*
D02*
G37*
%LPD*%
G36*
X114992Y321861D02*
X113191D01*
X114095Y325309D01*
X114992Y321861D01*
D02*
G37*
G36*
X135411Y325812D02*
X135404Y325804D01*
X135396Y325783D01*
X135374Y325753D01*
X135345Y325717D01*
X135316Y325673D01*
X135280Y325615D01*
X135199Y325498D01*
X135105Y325367D01*
X135017Y325250D01*
X134937Y325141D01*
X134901Y325105D01*
X134871Y325068D01*
X134864Y325061D01*
X134850Y325046D01*
X134820Y325017D01*
X134784Y324981D01*
X134733Y324952D01*
X134682Y324915D01*
X134624Y324886D01*
X134565Y324857D01*
X134558D01*
X134536Y324849D01*
X134500Y324835D01*
X134441Y324828D01*
X134369Y324813D01*
X134281Y324806D01*
X134179Y324798D01*
X133851D01*
Y326905D01*
X136140D01*
X135411Y325812D01*
D02*
G37*
G36*
X134988Y323989D02*
X135141Y323982D01*
X135294Y323975D01*
X135360Y323967D01*
X135418Y323960D01*
X135477Y323945D01*
X135513Y323938D01*
X135520D01*
X135542Y323924D01*
X135579Y323909D01*
X135615Y323887D01*
X135710Y323822D01*
X135754Y323778D01*
X135797Y323727D01*
X135805Y323720D01*
X135812Y323698D01*
X135834Y323669D01*
X135856Y323625D01*
X135870Y323566D01*
X135892Y323501D01*
X135899Y323428D01*
X135907Y323348D01*
Y323333D01*
Y323304D01*
X135899Y323260D01*
X135892Y323202D01*
X135870Y323136D01*
X135848Y323071D01*
X135812Y322998D01*
X135768Y322939D01*
X135761Y322932D01*
X135746Y322910D01*
X135710Y322888D01*
X135666Y322852D01*
X135615Y322815D01*
X135549Y322786D01*
X135469Y322757D01*
X135382Y322735D01*
X135374D01*
X135353Y322728D01*
X135309D01*
X135243Y322721D01*
X135083D01*
X135017Y322713D01*
X133851D01*
Y323996D01*
X134842D01*
X134988Y323989D01*
D02*
G37*
G36*
X129477Y326993D02*
X129404Y326985D01*
X129309Y326978D01*
X129200Y326963D01*
X129076Y326942D01*
X128945Y326912D01*
X128799Y326876D01*
X128660Y326832D01*
X128507Y326774D01*
X128361Y326708D01*
X128208Y326636D01*
X128070Y326541D01*
X127931Y326439D01*
X127800Y326315D01*
X127793Y326308D01*
X127771Y326286D01*
X127742Y326242D01*
X127698Y326191D01*
X127647Y326118D01*
X127589Y326030D01*
X127531Y325936D01*
X127472Y325819D01*
X127407Y325695D01*
X127348Y325549D01*
X127290Y325396D01*
X127239Y325229D01*
X127195Y325046D01*
X127166Y324849D01*
X127144Y324638D01*
X127137Y324419D01*
Y327000D01*
X129535D01*
X129477Y326993D01*
D02*
G37*
G36*
X129688Y326125D02*
X129739Y326118D01*
X129798Y326111D01*
X129936Y326074D01*
X130097Y326023D01*
X130177Y325987D01*
X130264Y325950D01*
X130344Y325899D01*
X130432Y325841D01*
X130512Y325775D01*
X130585Y325695D01*
X130592Y325688D01*
X130600Y325673D01*
X130621Y325651D01*
X130643Y325615D01*
X130680Y325564D01*
X130709Y325505D01*
X130745Y325440D01*
X130782Y325360D01*
X130818Y325272D01*
X130855Y325178D01*
X130891Y325068D01*
X130920Y324944D01*
X130942Y324820D01*
X130964Y324682D01*
X130971Y324529D01*
X130979Y324368D01*
Y324361D01*
Y324332D01*
Y324288D01*
X130971Y324222D01*
X130964Y324150D01*
X130957Y324069D01*
X130949Y323975D01*
X130928Y323880D01*
X130884Y323669D01*
X130818Y323450D01*
X130774Y323340D01*
X130724Y323246D01*
X130658Y323151D01*
X130592Y323063D01*
X130585Y323056D01*
X130578Y323042D01*
X130556Y323027D01*
X130527Y322998D01*
X130483Y322961D01*
X130439Y322925D01*
X130388Y322888D01*
X130323Y322845D01*
X130257Y322808D01*
X130177Y322772D01*
X130009Y322699D01*
X129914Y322670D01*
X129812Y322655D01*
X129703Y322641D01*
X129586Y322633D01*
X129528D01*
X129484Y322641D01*
X129426Y322648D01*
X129368Y322655D01*
X129222Y322684D01*
X129061Y322743D01*
X128974Y322772D01*
X128886Y322815D01*
X128806Y322867D01*
X128719Y322925D01*
X128639Y322990D01*
X128566Y323071D01*
X128558Y323078D01*
X128551Y323093D01*
X128529Y323114D01*
X128507Y323151D01*
X128478Y323202D01*
X128449Y323253D01*
X128413Y323319D01*
X128376Y323399D01*
X128340Y323486D01*
X128303Y323581D01*
X128274Y323690D01*
X128245Y323807D01*
X128223Y323938D01*
X128201Y324077D01*
X128194Y324222D01*
X128187Y324383D01*
Y324390D01*
Y324419D01*
Y324463D01*
X128194Y324521D01*
X128201Y324594D01*
X128208Y324682D01*
X128223Y324769D01*
X128238Y324871D01*
X128281Y325083D01*
X128354Y325294D01*
X128398Y325403D01*
X128449Y325505D01*
X128515Y325600D01*
X128580Y325688D01*
X128587Y325695D01*
X128602Y325710D01*
X128624Y325731D01*
X128653Y325753D01*
X128690Y325790D01*
X128741Y325826D01*
X128792Y325870D01*
X128857Y325906D01*
X128996Y325994D01*
X129171Y326060D01*
X129265Y326089D01*
X129368Y326111D01*
X129477Y326125D01*
X129586Y326132D01*
X129645D01*
X129688Y326125D01*
D02*
G37*
G36*
X119686Y326993D02*
X119614Y326985D01*
X119519Y326978D01*
X119409Y326963D01*
X119286Y326942D01*
X119154Y326912D01*
X119009Y326876D01*
X118870Y326832D01*
X118717Y326774D01*
X118571Y326708D01*
X118418Y326636D01*
X118280Y326541D01*
X118141Y326439D01*
X118010Y326315D01*
X118002Y326308D01*
X117981Y326286D01*
X117951Y326242D01*
X117908Y326191D01*
X117857Y326118D01*
X117798Y326030D01*
X117740Y325936D01*
X117682Y325819D01*
X117616Y325695D01*
X117558Y325549D01*
X117499Y325396D01*
X117448Y325229D01*
X117405Y325046D01*
X117376Y324849D01*
X117354Y324638D01*
X117346Y324419D01*
Y327000D01*
X119745D01*
X119686Y326993D01*
D02*
G37*
G36*
X119898Y326125D02*
X119949Y326118D01*
X120007Y326111D01*
X120146Y326074D01*
X120306Y326023D01*
X120386Y325987D01*
X120474Y325950D01*
X120554Y325899D01*
X120641Y325841D01*
X120722Y325775D01*
X120794Y325695D01*
X120802Y325688D01*
X120809Y325673D01*
X120831Y325651D01*
X120853Y325615D01*
X120889Y325564D01*
X120918Y325505D01*
X120955Y325440D01*
X120991Y325360D01*
X121028Y325272D01*
X121064Y325178D01*
X121101Y325068D01*
X121130Y324944D01*
X121152Y324820D01*
X121174Y324682D01*
X121181Y324529D01*
X121188Y324368D01*
Y324361D01*
Y324332D01*
Y324288D01*
X121181Y324222D01*
X121174Y324150D01*
X121166Y324069D01*
X121159Y323975D01*
X121137Y323880D01*
X121093Y323669D01*
X121028Y323450D01*
X120984Y323340D01*
X120933Y323246D01*
X120867Y323151D01*
X120802Y323063D01*
X120794Y323056D01*
X120787Y323042D01*
X120765Y323027D01*
X120736Y322998D01*
X120693Y322961D01*
X120649Y322925D01*
X120598Y322888D01*
X120532Y322845D01*
X120466Y322808D01*
X120386Y322772D01*
X120219Y322699D01*
X120124Y322670D01*
X120022Y322655D01*
X119912Y322641D01*
X119796Y322633D01*
X119738D01*
X119694Y322641D01*
X119635Y322648D01*
X119577Y322655D01*
X119431Y322684D01*
X119271Y322743D01*
X119183Y322772D01*
X119096Y322815D01*
X119016Y322867D01*
X118928Y322925D01*
X118848Y322990D01*
X118775Y323071D01*
X118768Y323078D01*
X118761Y323093D01*
X118739Y323114D01*
X118717Y323151D01*
X118688Y323202D01*
X118658Y323253D01*
X118622Y323319D01*
X118586Y323399D01*
X118549Y323486D01*
X118513Y323581D01*
X118484Y323690D01*
X118454Y323807D01*
X118432Y323938D01*
X118411Y324077D01*
X118403Y324222D01*
X118396Y324383D01*
Y324390D01*
Y324419D01*
Y324463D01*
X118403Y324521D01*
X118411Y324594D01*
X118418Y324682D01*
X118432Y324769D01*
X118447Y324871D01*
X118491Y325083D01*
X118564Y325294D01*
X118607Y325403D01*
X118658Y325505D01*
X118724Y325600D01*
X118790Y325688D01*
X118797Y325695D01*
X118812Y325710D01*
X118833Y325731D01*
X118863Y325753D01*
X118899Y325790D01*
X118950Y325826D01*
X119001Y325870D01*
X119067Y325906D01*
X119205Y325994D01*
X119380Y326060D01*
X119475Y326089D01*
X119577Y326111D01*
X119686Y326125D01*
X119796Y326132D01*
X119854D01*
X119898Y326125D01*
D02*
G37*
D10*
X257429Y111130D02*
G03*
X257429Y111130I-1000J0D01*
G01*
X140000Y276500D02*
Y298500D01*
X130000Y276500D02*
Y298500D01*
X120000Y276500D02*
Y298500D01*
X110000Y276500D02*
Y298500D01*
X100000Y276500D02*
Y298500D01*
X90000Y276500D02*
Y298500D01*
Y307500D02*
Y309000D01*
X100000Y307500D02*
Y309000D01*
X110000Y307500D02*
Y309000D01*
X120000Y307500D02*
Y309000D01*
X130000Y307500D02*
Y309000D01*
X140000Y307500D02*
Y309000D01*
X229165Y276153D02*
Y298153D01*
X219165Y276153D02*
Y298153D01*
X209165Y276153D02*
Y298153D01*
X199165Y276153D02*
Y298153D01*
X189165Y276153D02*
Y298153D01*
X179165Y276153D02*
Y298153D01*
Y307154D02*
Y308653D01*
X189165Y307154D02*
Y308653D01*
X199165Y307154D02*
Y308653D01*
X209165Y307154D02*
Y308653D01*
X219165Y307154D02*
Y308653D01*
X229165Y307154D02*
Y308653D01*
D11*
X171212Y283609D02*
G03*
X171212Y283609I-11811J0D01*
G01*
X80661D02*
G03*
X80661Y283609I-11811J0D01*
G01*
X80661Y55262D02*
G03*
X80661Y55262I-11811J0D01*
G01*
X171212D02*
G03*
X171212Y55262I-11811J0D01*
G01*
X214323Y197799D02*
X271941D01*
X214323D02*
Y246830D01*
X139500Y307000D02*
X145000Y301500D01*
X135000Y307000D02*
X143000Y299000D01*
X130500Y307000D02*
X138500Y299000D01*
X126000Y307000D02*
X134000Y299000D01*
X121500Y307000D02*
X129500Y299000D01*
X116500Y307000D02*
X124500Y299000D01*
X112000Y307000D02*
X120000Y299000D01*
X107500Y307000D02*
X115500Y299000D01*
X103000Y307000D02*
X111000Y299000D01*
X98500Y307000D02*
X106500Y299000D01*
X94000Y307000D02*
X102000Y299000D01*
X89500Y307000D02*
X97500Y299000D01*
X89000Y307000D02*
X89500D01*
X85000D02*
X93000Y299000D01*
X85000Y303000D02*
X89000Y299000D01*
X85000D02*
Y307000D01*
Y299000D02*
X145000D01*
Y307000D01*
X85000D02*
X145000D01*
X85000Y318500D02*
X145000D01*
X85000Y307000D02*
Y318500D01*
X145000Y307000D02*
Y318500D01*
X214323Y246830D02*
X271941D01*
Y197799D02*
Y246830D01*
X228665Y306653D02*
X234165Y301153D01*
X224165Y306653D02*
X232165Y298654D01*
X219665Y306653D02*
X227665Y298654D01*
X215165Y306653D02*
X223165Y298654D01*
X210665Y306653D02*
X218665Y298654D01*
X205665Y306653D02*
X213665Y298654D01*
X201165Y306653D02*
X209165Y298654D01*
X196665Y306653D02*
X204665Y298654D01*
X192165Y306653D02*
X200165Y298654D01*
X187665Y306653D02*
X195665Y298654D01*
X183165Y306653D02*
X191165Y298654D01*
X178665Y306653D02*
X186665Y298654D01*
X178165Y306653D02*
X178665D01*
X174165D02*
X182165Y298654D01*
X174165Y302654D02*
X178165Y298654D01*
X174165D02*
Y306653D01*
Y298654D02*
X234165D01*
Y306653D01*
X174165D02*
X234165D01*
X174165Y318154D02*
X234165D01*
X174165Y306653D02*
Y318154D01*
X234165Y306653D02*
Y318154D01*
X178673Y116697D02*
X181626D01*
X178673D02*
Y126539D01*
Y177720D02*
Y187563D01*
X181626D01*
X253476Y116697D02*
X279067D01*
Y187563D01*
X253476D02*
X279067D01*
D13*
X254519Y79749D02*
X256519D01*
X250868Y79887D02*
X252868D01*
X266975Y48000D02*
Y50000D01*
X124401Y198546D02*
X126401D01*
X267008Y66594D02*
Y68594D01*
D14*
X165602Y100027D02*
G03*
X165602Y100027I-492J0D01*
G01*
X223445Y257626D02*
X222789Y258282D01*
Y259594D01*
X223445Y260250D01*
X226068D01*
X226724Y259594D01*
Y258282D01*
X226068Y257626D01*
X224757D01*
Y258938D01*
X226724Y256314D02*
X222789D01*
X226724Y253690D01*
X222789D01*
Y252379D02*
X226724D01*
Y250411D01*
X226068Y249755D01*
X223445D01*
X222789Y250411D01*
Y252379D01*
X214915Y260250D02*
X218850D01*
Y258282D01*
X218194Y257626D01*
X217538D01*
X216882Y258282D01*
Y260250D01*
Y258282D01*
X216227Y257626D01*
X215571D01*
X214915Y258282D01*
Y260250D01*
X210976D02*
X208353D01*
X207041Y258938D01*
X208353Y257626D01*
X210976D01*
X209009D01*
Y260250D01*
X199823D02*
X199167Y259594D01*
Y258282D01*
X199823Y257626D01*
X200479D01*
X201134Y258282D01*
Y258938D01*
Y258282D01*
X201790Y257626D01*
X202446D01*
X203102Y258282D01*
Y259594D01*
X202446Y260250D01*
X199167Y256314D02*
X201790D01*
X203102Y255002D01*
X201790Y253690D01*
X199167D01*
X199823Y252379D02*
X199167Y251723D01*
Y250411D01*
X199823Y249755D01*
X200479D01*
X201134Y250411D01*
Y251067D01*
Y250411D01*
X201790Y249755D01*
X202446D01*
X203102Y250411D01*
Y251723D01*
X202446Y252379D01*
X195228Y260250D02*
X191293D01*
X192604Y258938D01*
X191293Y257626D01*
X195228D01*
Y253690D02*
Y256314D01*
X192604Y253690D01*
X191949D01*
X191293Y254346D01*
Y255658D01*
X191949Y256314D01*
X187354Y260250D02*
X183419D01*
X184731Y258938D01*
X183419Y257626D01*
X187354D01*
Y256314D02*
Y255002D01*
Y255658D01*
X183419D01*
X184074Y256314D01*
X96324Y260250D02*
X92388D01*
X93700Y258938D01*
X92388Y257626D01*
X96324D01*
Y256314D02*
Y255002D01*
Y255659D01*
X92388D01*
X93044Y256314D01*
X104198Y260250D02*
X100262D01*
X101574Y258938D01*
X100262Y257626D01*
X104198D01*
Y253691D02*
Y256314D01*
X101574Y253691D01*
X100918D01*
X100262Y254346D01*
Y255659D01*
X100918Y256314D01*
X108792Y260250D02*
X108136Y259594D01*
Y258282D01*
X108792Y257627D01*
X109448D01*
X110104Y258282D01*
Y258938D01*
Y258282D01*
X110760Y257627D01*
X111416D01*
X112072Y258282D01*
Y259594D01*
X111416Y260250D01*
X108136Y256315D02*
X110760D01*
X112072Y255003D01*
X110760Y253691D01*
X108136D01*
X108792Y252379D02*
X108136Y251723D01*
Y250411D01*
X108792Y249755D01*
X109448D01*
X110104Y250411D01*
Y251067D01*
Y250411D01*
X110760Y249755D01*
X111416D01*
X112072Y250411D01*
Y251723D01*
X111416Y252379D01*
X119946Y260250D02*
X117322D01*
X116010Y258938D01*
X117322Y257627D01*
X119946D01*
X117978D01*
Y260250D01*
X123884D02*
X127820D01*
Y258282D01*
X127164Y257627D01*
X126508D01*
X125852Y258282D01*
Y260250D01*
Y258282D01*
X125196Y257627D01*
X124540D01*
X123884Y258282D01*
Y260250D01*
X132414Y257627D02*
X131758Y258282D01*
Y259594D01*
X132414Y260250D01*
X135038D01*
X135694Y259594D01*
Y258282D01*
X135038Y257627D01*
X133726D01*
Y258938D01*
X135694Y256315D02*
X131758D01*
X135694Y253691D01*
X131758D01*
Y252379D02*
X135694D01*
Y250411D01*
X135038Y249755D01*
X132414D01*
X131758Y250411D01*
Y252379D01*
X95225Y343190D02*
Y345813D01*
X97193D01*
X96537Y344501D01*
Y343845D01*
X97193Y343190D01*
X98505D01*
X99161Y343845D01*
Y345157D01*
X98505Y345813D01*
X95225Y341878D02*
X97849D01*
X99161Y340566D01*
X97849Y339254D01*
X95225D01*
X105881Y345813D02*
X105225Y345157D01*
Y343845D01*
X105881Y343190D01*
X106537D01*
X107193Y343845D01*
Y344501D01*
Y343845D01*
X107849Y343190D01*
X108505D01*
X109161Y343845D01*
Y345157D01*
X108505Y345813D01*
X105225Y341878D02*
X107849D01*
X109161Y340566D01*
X107849Y339254D01*
X105225D01*
X105881Y337942D02*
X105225Y337286D01*
Y335974D01*
X105881Y335318D01*
X106537D01*
X107193Y335974D01*
Y336630D01*
Y335974D01*
X107849Y335318D01*
X108505D01*
X109161Y335974D01*
Y337286D01*
X108505Y337942D01*
X115881Y343190D02*
X115225Y343845D01*
Y345157D01*
X115881Y345813D01*
X116537D01*
X117193Y345157D01*
Y343845D01*
X117849Y343190D01*
X118505D01*
X119161Y343845D01*
Y345157D01*
X118505Y345813D01*
X119161Y341878D02*
Y340566D01*
Y341222D01*
X115225D01*
X115881Y341878D01*
X125881Y343190D02*
X125225Y343845D01*
Y345157D01*
X125881Y345813D01*
X126537D01*
X127193Y345157D01*
Y343845D01*
X127849Y343190D01*
X128505D01*
X129161Y343845D01*
Y345157D01*
X128505Y345813D01*
X129161Y339254D02*
Y341878D01*
X126537Y339254D01*
X125881D01*
X125225Y339910D01*
Y341222D01*
X125881Y341878D01*
X135881Y343190D02*
X135225Y343845D01*
Y345157D01*
X135881Y345813D01*
X136537D01*
X137193Y345157D01*
Y343845D01*
X137849Y343190D01*
X138505D01*
X139161Y343845D01*
Y345157D01*
X138505Y345813D01*
X135881Y341878D02*
X135225Y341222D01*
Y339910D01*
X135881Y339254D01*
X136537D01*
X137193Y339910D01*
Y340566D01*
Y339910D01*
X137849Y339254D01*
X138505D01*
X139161Y339910D01*
Y341222D01*
X138505Y341878D01*
X145881Y343190D02*
X145225Y343845D01*
Y345157D01*
X145881Y345813D01*
X146537D01*
X147193Y345157D01*
Y343845D01*
X147849Y343190D01*
X148505D01*
X149161Y343845D01*
Y345157D01*
X148505Y345813D01*
X149161Y339910D02*
X145225D01*
X147193Y341878D01*
Y339254D01*
X155881Y343190D02*
X155225Y343845D01*
Y345157D01*
X155881Y345813D01*
X156537D01*
X157193Y345157D01*
Y343845D01*
X157849Y343190D01*
X158505D01*
X159161Y343845D01*
Y345157D01*
X158505Y345813D01*
X155225Y339254D02*
Y341878D01*
X157193D01*
X156537Y340566D01*
Y339910D01*
X157193Y339254D01*
X158505D01*
X159161Y339910D01*
Y341222D01*
X158505Y341878D01*
X165881Y343190D02*
X165225Y343845D01*
Y345157D01*
X165881Y345813D01*
X166537D01*
X167193Y345157D01*
Y343845D01*
X167849Y343190D01*
X168505D01*
X169161Y343845D01*
Y345157D01*
X168505Y345813D01*
X165225Y339254D02*
X165881Y340566D01*
X167193Y341878D01*
X168505D01*
X169161Y341222D01*
Y339910D01*
X168505Y339254D01*
X167849D01*
X167193Y339910D01*
Y341878D01*
X175881Y343190D02*
X175225Y343845D01*
Y345157D01*
X175881Y345813D01*
X176537D01*
X177193Y345157D01*
Y343845D01*
X177849Y343190D01*
X178505D01*
X179161Y343845D01*
Y345157D01*
X178505Y345813D01*
X175225Y341878D02*
Y339254D01*
X175881D01*
X178505Y341878D01*
X179161D01*
X185881Y343190D02*
X185225Y343845D01*
Y345157D01*
X185881Y345813D01*
X186537D01*
X187193Y345157D01*
Y343845D01*
X187849Y343190D01*
X188505D01*
X189161Y343845D01*
Y345157D01*
X188505Y345813D01*
X185881Y341878D02*
X185225Y341222D01*
Y339910D01*
X185881Y339254D01*
X186537D01*
X187193Y339910D01*
X187849Y339254D01*
X188505D01*
X189161Y339910D01*
Y341222D01*
X188505Y341878D01*
X187849D01*
X187193Y341222D01*
X186537Y341878D01*
X185881D01*
X187193Y341222D02*
Y339910D01*
X196001Y346500D02*
Y345500D01*
Y346000D01*
X199000D01*
Y346500D01*
Y345500D01*
Y344001D02*
X196001D01*
Y342501D01*
X196501Y342002D01*
X197501D01*
X198000Y342501D01*
Y344001D01*
Y343001D02*
X199000Y342002D01*
X199500Y341002D02*
Y339002D01*
X196001Y338003D02*
X199000D01*
Y336003D01*
X196001Y333004D02*
Y335004D01*
X199000D01*
Y333004D01*
X197501Y335004D02*
Y334004D01*
X196001Y332005D02*
X199000D01*
Y330505D01*
X198500Y330005D01*
X196501D01*
X196001Y330505D01*
Y332005D01*
X206314Y343190D02*
X205658Y343845D01*
Y345157D01*
X206314Y345813D01*
X208938D01*
X209594Y345157D01*
Y343845D01*
X208938Y343190D01*
X207626D01*
Y344501D01*
X209594Y341878D02*
X205658D01*
X209594Y339254D01*
X205658D01*
Y337942D02*
X209594D01*
Y335974D01*
X208938Y335318D01*
X206314D01*
X205658Y335974D01*
Y337942D01*
X164846Y173851D02*
Y177000D01*
X169569D01*
Y173851D01*
X167208Y177000D02*
Y175426D01*
X165633Y169129D02*
X164846Y169916D01*
Y171490D01*
X165633Y172277D01*
X166421D01*
X167208Y171490D01*
Y169916D01*
X167995Y169129D01*
X168782D01*
X169569Y169916D01*
Y171490D01*
X168782Y172277D01*
X169569Y167554D02*
X164846D01*
Y165193D01*
X165633Y164406D01*
X167208D01*
X167995Y165193D01*
Y167554D01*
X165633Y162831D02*
X164846Y162044D01*
Y160470D01*
X165633Y159683D01*
X166421D01*
X167208Y160470D01*
Y161257D01*
Y160470D01*
X167995Y159683D01*
X168782D01*
X169569Y160470D01*
Y162044D01*
X168782Y162831D01*
X169569Y154960D02*
Y158108D01*
X166421Y154960D01*
X165633D01*
X164846Y155747D01*
Y157321D01*
X165633Y158108D01*
X167208Y153386D02*
Y150237D01*
X164846Y148663D02*
X169569D01*
X167995Y147088D01*
X169569Y145514D01*
X164846D01*
X169569Y143940D02*
X164846D01*
Y141578D01*
X165633Y140791D01*
X167208D01*
X167995Y141578D01*
Y143940D01*
Y142366D02*
X169569Y140791D01*
X164846Y136855D02*
Y138430D01*
X165633Y139217D01*
X168782D01*
X169569Y138430D01*
Y136855D01*
X168782Y136068D01*
X165633D01*
X164846Y136855D01*
Y132133D02*
Y133707D01*
X165633Y134494D01*
X168782D01*
X169569Y133707D01*
Y132133D01*
X168782Y131345D01*
X165633D01*
X164846Y132133D01*
X169569Y129771D02*
X164846D01*
X166421Y128197D01*
X164846Y126623D01*
X169569D01*
X209402Y236382D02*
X204679D01*
X206253Y234808D01*
X204679Y233233D01*
X209402D01*
X204679Y231659D02*
Y230085D01*
Y230872D01*
X209402D01*
Y231659D01*
Y230085D01*
X205466Y224575D02*
X204679Y225362D01*
Y226936D01*
X205466Y227723D01*
X208614D01*
X209402Y226936D01*
Y225362D01*
X208614Y224575D01*
X209402Y223000D02*
X204679D01*
Y220639D01*
X205466Y219852D01*
X207040D01*
X207827Y220639D01*
Y223000D01*
Y221426D02*
X209402Y219852D01*
X204679Y215916D02*
Y217490D01*
X205466Y218278D01*
X208614D01*
X209402Y217490D01*
Y215916D01*
X208614Y215129D01*
X205466D01*
X204679Y215916D01*
X205466Y205683D02*
X204679Y206470D01*
Y208045D01*
X205466Y208832D01*
X206253D01*
X207040Y208045D01*
Y206470D01*
X207827Y205683D01*
X208614D01*
X209402Y206470D01*
Y208045D01*
X208614Y208832D01*
X204679Y204109D02*
X209402D01*
Y201747D01*
X208614Y200960D01*
X205466D01*
X204679Y201747D01*
Y204109D01*
X32000Y348876D02*
Y351500D01*
X29376Y348876D01*
X28720D01*
X28064Y349532D01*
Y350844D01*
X28720Y351500D01*
X28064Y344940D02*
X28720Y346252D01*
X30032Y347564D01*
X31344D01*
X32000Y346908D01*
Y345596D01*
X31344Y344940D01*
X30688D01*
X30032Y345596D01*
Y347564D01*
X28720Y343629D02*
X28064Y342973D01*
Y341661D01*
X28720Y341005D01*
X31344D01*
X32000Y341661D01*
Y342973D01*
X31344Y343629D01*
X28720D01*
Y339693D02*
X28064Y339037D01*
Y337725D01*
X28720Y337069D01*
X31344D01*
X32000Y337725D01*
Y339037D01*
X31344Y339693D01*
X28720D01*
X29376Y335757D02*
X32000Y333133D01*
X30688Y334445D01*
X29376Y333133D01*
X32000Y335757D01*
X28720Y331821D02*
X28064Y331165D01*
Y329853D01*
X28720Y329198D01*
X29376D01*
X30032Y329853D01*
Y330509D01*
Y329853D01*
X30688Y329198D01*
X31344D01*
X32000Y329853D01*
Y331165D01*
X31344Y331821D01*
X28720Y327886D02*
X28064Y327230D01*
Y325918D01*
X28720Y325262D01*
X29376D01*
X30032Y325918D01*
Y326574D01*
Y325918D01*
X30688Y325262D01*
X31344D01*
X32000Y325918D01*
Y327230D01*
X31344Y327886D01*
X28720Y323950D02*
X28064Y323294D01*
Y321982D01*
X28720Y321326D01*
X31344D01*
X32000Y321982D01*
Y323294D01*
X31344Y323950D01*
X28720D01*
Y320014D02*
X28064Y319358D01*
Y318046D01*
X28720Y317390D01*
X31344D01*
X32000Y318046D01*
Y319358D01*
X31344Y320014D01*
X28720D01*
X32000Y316078D02*
X29376D01*
Y315422D01*
X30032Y314766D01*
X32000D01*
X30032D01*
X29376Y314110D01*
X30032Y313455D01*
X32000D01*
Y312143D02*
Y310831D01*
Y311487D01*
X29376D01*
Y312143D01*
X32000Y308863D02*
Y307551D01*
Y308207D01*
X28064D01*
Y308863D01*
X105661Y45764D02*
X105006Y46420D01*
X103694D01*
X103038Y45764D01*
Y45108D01*
X103694Y44452D01*
X104350D01*
X103694D01*
X103038Y43796D01*
Y43140D01*
X103694Y42484D01*
X105006D01*
X105661Y43140D01*
X101726Y44452D02*
X99102D01*
X97790Y42484D02*
X96478D01*
X97134D01*
Y46420D01*
X97790Y45764D01*
X91886Y42484D02*
X94510D01*
X91886Y45108D01*
Y45764D01*
X92542Y46420D01*
X93854D01*
X94510Y45764D01*
X90574Y46420D02*
Y43796D01*
X89262Y42484D01*
X87951Y43796D01*
Y46420D01*
D15*
X58850Y69435D02*
X78850D01*
Y269435D01*
X58850D02*
X78850D01*
X58850Y251935D02*
Y269435D01*
Y69435D02*
Y251935D01*
X85000Y307000D02*
X145000D01*
X178299Y99383D02*
Y100564D01*
X180661Y99383D02*
Y100564D01*
X209402Y48386D02*
X210583D01*
X209402Y46024D02*
X210583D01*
X250543Y96009D02*
X251724D01*
X250543Y98371D02*
X251724D01*
X250543Y91319D02*
X251724D01*
X250543Y93681D02*
X251724D01*
X161612Y79295D02*
X162794D01*
X161612Y76933D02*
X162794D01*
X161567Y72474D02*
X162748D01*
X161567Y74836D02*
X162748D01*
X151596Y76992D02*
X152777D01*
X151596Y79354D02*
X152777D01*
X156027Y109019D02*
X157209D01*
X156027Y111381D02*
X157209D01*
X129909Y68340D02*
X131091D01*
X129909Y70702D02*
X131091D01*
X129909Y63338D02*
X131091D01*
X129909Y65700D02*
X131091D01*
X129173Y100426D02*
Y106526D01*
X143173D01*
X129173Y87526D02*
X143173D01*
Y100426D02*
Y106526D01*
X129173Y87526D02*
Y93626D01*
X143173Y87526D02*
Y93626D01*
X151695Y74965D02*
X152876D01*
X151695Y72602D02*
X152876D01*
X141016Y117409D02*
Y118591D01*
X143378Y117409D02*
Y118591D01*
X126724Y86329D02*
Y87511D01*
X124362Y86329D02*
Y87511D01*
X148453Y111382D02*
Y112563D01*
X150815Y111382D02*
Y112563D01*
X130858Y43159D02*
X132039D01*
X130858Y45521D02*
X132039D01*
X130858Y50555D02*
X132039D01*
X130858Y48193D02*
X132039D01*
X155870Y125365D02*
X157051D01*
X155870Y127727D02*
X157051D01*
X174165Y306653D02*
X234165D01*
X162551Y99042D02*
Y100617D01*
X160976D02*
X162551D01*
X145425D02*
X147000D01*
X145425Y99042D02*
Y100617D01*
Y83491D02*
Y85066D01*
Y83491D02*
X147000D01*
X162551D02*
Y85066D01*
X160976Y83491D02*
X162551D01*
X183528Y98317D02*
X194528D01*
X183528Y93317D02*
X194528D01*
X183528D02*
Y98317D01*
X194528Y93317D02*
Y98317D01*
X187106Y203114D02*
X187106Y200384D01*
X181988Y203114D02*
X187106Y203114D01*
Y192484D02*
X187106Y195214D01*
X181988Y192484D02*
X187106D01*
X140110Y205319D02*
Y210437D01*
X137380Y210437D02*
X140110Y210437D01*
X129480D02*
X129480Y205319D01*
X129480Y210437D02*
X132210Y210437D01*
X175813Y182118D02*
Y183299D01*
X173451Y182118D02*
Y183299D01*
X134205Y191106D02*
X135386D01*
X134205Y193468D02*
X135386D01*
X176316Y194059D02*
Y195240D01*
X173954Y194059D02*
Y195240D01*
X134205Y196170D02*
X135386D01*
X134205Y198532D02*
X135386D01*
X212000Y348500D02*
Y358500D01*
X92000D02*
X212000D01*
X92000Y348500D02*
Y358500D01*
Y348500D02*
X99500D01*
X212000D01*
D17*
X82653Y60981D02*
X104654D01*
Y69981D01*
X82653Y60981D02*
Y69981D01*
X104654D01*
X110000Y92055D02*
Y109555D01*
X127000Y91555D02*
Y109555D01*
D19*
X252050Y89500D02*
X249651D01*
Y88300D01*
X250051Y87901D01*
X250850D01*
X251250Y88300D01*
Y89500D01*
Y88700D02*
X252050Y87901D01*
Y85501D02*
Y87101D01*
X250450Y85501D01*
X250051D01*
X249651Y85901D01*
Y86701D01*
X250051Y87101D01*
X254001Y88401D02*
X253601Y88800D01*
Y89600D01*
X254001Y90000D01*
X255600D01*
X256000Y89600D01*
Y88800D01*
X255600Y88401D01*
X254001Y87601D02*
X253601Y87201D01*
Y86401D01*
X254001Y86001D01*
X254400D01*
X254800Y86401D01*
Y86801D01*
Y86401D01*
X255200Y86001D01*
X255600D01*
X256000Y86401D01*
Y87201D01*
X255600Y87601D01*
X253601Y83602D02*
X254001Y84402D01*
X254800Y85202D01*
X255600D01*
X256000Y84802D01*
Y84002D01*
X255600Y83602D01*
X255200D01*
X254800Y84002D01*
Y85202D01*
X124401Y203006D02*
X126800D01*
Y204206D01*
X126400Y204606D01*
X125600D01*
X125200Y204206D01*
Y203006D01*
Y203806D02*
X124401Y204606D01*
Y207005D02*
Y205405D01*
X126000Y207005D01*
X126400D01*
X126800Y206605D01*
Y205805D01*
X126400Y205405D01*
Y207805D02*
X126800Y208205D01*
Y209004D01*
X126400Y209404D01*
X126000D01*
X125600Y209004D01*
Y208605D01*
Y209004D01*
X125200Y209404D01*
X124801D01*
X124401Y209004D01*
Y208205D01*
X124801Y207805D01*
X172269Y307154D02*
X169870D01*
X170670Y306354D01*
X169870Y305554D01*
X172269D01*
X169870Y303555D02*
Y304354D01*
X170270Y304754D01*
X171869D01*
X172269Y304354D01*
Y303555D01*
X171869Y303155D01*
X170270D01*
X169870Y303555D01*
Y302355D02*
X172269D01*
Y301155D01*
X171869Y300756D01*
X170270D01*
X169870Y301155D01*
Y302355D01*
X170270Y299956D02*
X169870Y299556D01*
Y298756D01*
X170270Y298356D01*
X170670D01*
X171070Y298756D01*
Y299156D01*
Y298756D01*
X171470Y298356D01*
X171869D01*
X172269Y298756D01*
Y299556D01*
X171869Y299956D01*
X149000Y317500D02*
X146601D01*
Y316300D01*
X147001Y315900D01*
X147800D01*
X148200Y316300D01*
Y317500D01*
X149000Y313901D02*
X146601D01*
X147800Y315101D01*
Y313501D01*
X269601Y252112D02*
Y252912D01*
Y252512D01*
X271600D01*
X272000Y252912D01*
Y253312D01*
X271600Y253712D01*
X272000Y249713D02*
Y251312D01*
X270401Y249713D01*
X270001D01*
X269601Y250113D01*
Y250912D01*
X270001Y251312D01*
X145098Y42739D02*
Y45138D01*
X143898D01*
X143498Y44738D01*
Y43939D01*
X143898Y43539D01*
X145098D01*
X144298D02*
X143498Y42739D01*
X142698D02*
X141899D01*
X142298D01*
Y45138D01*
X142698Y44738D01*
X140699Y43139D02*
X140299Y42739D01*
X139499D01*
X139100Y43139D01*
Y44738D01*
X139499Y45138D01*
X140299D01*
X140699Y44738D01*
Y44338D01*
X140299Y43939D01*
X139100D01*
X144769Y47799D02*
Y50198D01*
X143570D01*
X143170Y49799D01*
Y48999D01*
X143570Y48599D01*
X144769D01*
X143969D02*
X143170Y47799D01*
X142370D02*
X141570D01*
X141970D01*
Y50198D01*
X142370Y49799D01*
X140371D02*
X139971Y50198D01*
X139171D01*
X138771Y49799D01*
Y49399D01*
X139171Y48999D01*
X139571D01*
X139171D01*
X138771Y48599D01*
Y48199D01*
X139171Y47799D01*
X139971D01*
X140371Y48199D01*
X150202Y118797D02*
X150602Y118397D01*
Y117597D01*
X150202Y117197D01*
X148602D01*
X148203Y117597D01*
Y118397D01*
X148602Y118797D01*
X150602Y121196D02*
Y119596D01*
X149402D01*
X149802Y120396D01*
Y120796D01*
X149402Y121196D01*
X148602D01*
X148203Y120796D01*
Y119996D01*
X148602Y119596D01*
X150602Y123595D02*
X150202Y122795D01*
X149402Y121995D01*
X148602D01*
X148203Y122395D01*
Y123195D01*
X148602Y123595D01*
X149002D01*
X149402Y123195D01*
Y121995D01*
X138703Y116100D02*
X139103Y115700D01*
Y114900D01*
X138703Y114500D01*
X137104D01*
X136704Y114900D01*
Y115700D01*
X137104Y116100D01*
X139103Y118499D02*
Y116899D01*
X137903D01*
X138303Y117699D01*
Y118099D01*
X137903Y118499D01*
X137104D01*
X136704Y118099D01*
Y117299D01*
X137104Y116899D01*
X139103Y119298D02*
Y120898D01*
X138703D01*
X137104Y119298D01*
X136704D01*
X121791Y85409D02*
X122190Y85009D01*
Y84209D01*
X121791Y83809D01*
X120191D01*
X119791Y84209D01*
Y85009D01*
X120191Y85409D01*
X122190Y87808D02*
Y86209D01*
X120991D01*
X121391Y87008D01*
Y87408D01*
X120991Y87808D01*
X120191D01*
X119791Y87408D01*
Y86608D01*
X120191Y86209D01*
Y88608D02*
X119791Y89008D01*
Y89807D01*
X120191Y90207D01*
X121791D01*
X122190Y89807D01*
Y89008D01*
X121791Y88608D01*
X121391D01*
X120991Y89008D01*
Y90207D01*
X107999Y63599D02*
X108399Y63200D01*
Y62400D01*
X107999Y62000D01*
X106400D01*
X106000Y62400D01*
Y63200D01*
X106400Y63599D01*
X108399Y65999D02*
X107999Y65199D01*
X107200Y64399D01*
X106400D01*
X106000Y64799D01*
Y65599D01*
X106400Y65999D01*
X106800D01*
X107200Y65599D01*
Y64399D01*
X107999Y66798D02*
X108399Y67198D01*
Y67998D01*
X107999Y68398D01*
X106400D01*
X106000Y67998D01*
Y67198D01*
X106400Y66798D01*
X107999D01*
X121453Y114399D02*
Y112000D01*
X119853D01*
X117854D02*
Y114399D01*
X119053Y113200D01*
X117454D01*
X174500Y76992D02*
Y79391D01*
X173300D01*
X172900Y78991D01*
Y78192D01*
X173300Y77792D01*
X174500D01*
X173700D02*
X172900Y76992D01*
X170501Y79391D02*
X172101D01*
Y78192D01*
X171301Y78591D01*
X170901D01*
X170501Y78192D01*
Y77392D01*
X170901Y76992D01*
X171701D01*
X172101Y77392D01*
X168102Y79391D02*
X168902Y78991D01*
X169702Y78192D01*
Y77392D01*
X169302Y76992D01*
X168502D01*
X168102Y77392D01*
Y77792D01*
X168502Y78192D01*
X169702D01*
X146000Y70702D02*
Y73102D01*
X144800D01*
X144401Y72702D01*
Y71902D01*
X144800Y71502D01*
X146000D01*
X145200D02*
X144401Y70702D01*
X142001Y73102D02*
X142801Y72702D01*
X143601Y71902D01*
Y71102D01*
X143201Y70702D01*
X142401D01*
X142001Y71102D01*
Y71502D01*
X142401Y71902D01*
X143601D01*
X139602Y70702D02*
X141202D01*
X139602Y72302D01*
Y72702D01*
X140002Y73102D01*
X140802D01*
X141202Y72702D01*
X169000Y68340D02*
Y70739D01*
X167800D01*
X167401Y70340D01*
Y69540D01*
X167800Y69140D01*
X169000D01*
X168200D02*
X167401Y68340D01*
X165001Y70739D02*
X165801Y70340D01*
X166601Y69540D01*
Y68740D01*
X166201Y68340D01*
X165401D01*
X165001Y68740D01*
Y69140D01*
X165401Y69540D01*
X166601D01*
X164202Y70340D02*
X163802Y70739D01*
X163002D01*
X162602Y70340D01*
Y69940D01*
X163002Y69540D01*
X163402D01*
X163002D01*
X162602Y69140D01*
Y68740D01*
X163002Y68340D01*
X163802D01*
X164202Y68740D01*
X152487Y69999D02*
X152887Y70399D01*
X153687D01*
X154087Y69999D01*
Y68400D01*
X153687Y68000D01*
X152887D01*
X152487Y68400D01*
X150088Y70399D02*
X150888Y69999D01*
X151687Y69200D01*
Y68400D01*
X151287Y68000D01*
X150488D01*
X150088Y68400D01*
Y68800D01*
X150488Y69200D01*
X151687D01*
X149288Y68000D02*
X148488D01*
X148888D01*
Y70399D01*
X149288Y69999D01*
X203299Y45732D02*
Y48131D01*
X202100D01*
X201700Y47732D01*
Y46932D01*
X202100Y46532D01*
X203299D01*
X202500D02*
X201700Y45732D01*
X199700D02*
Y48131D01*
X200900Y46932D01*
X199301D01*
X196901Y48131D02*
X197701Y47732D01*
X198501Y46932D01*
Y46132D01*
X198101Y45732D01*
X197301D01*
X196901Y46132D01*
Y46532D01*
X197301Y46932D01*
X198501D01*
X168690Y317288D02*
Y314889D01*
X169889D01*
X170289Y315288D01*
Y316088D01*
X169889Y316488D01*
X168690D01*
X172688Y314889D02*
X171089D01*
Y316088D01*
X171888Y315688D01*
X172288D01*
X172688Y316088D01*
Y316888D01*
X172288Y317288D01*
X171489D01*
X171089Y316888D01*
X168100Y86848D02*
X166101D01*
X165701Y87248D01*
Y88047D01*
X166101Y88447D01*
X168100D01*
X165701Y89247D02*
Y90047D01*
Y89647D01*
X168100D01*
X167700Y89247D01*
X168100Y91246D02*
Y92846D01*
X167700D01*
X166101Y91246D01*
X165701D01*
X123500Y64500D02*
Y66899D01*
X122300D01*
X121900Y66499D01*
Y65700D01*
X122300Y65300D01*
X123500D01*
X122700D02*
X121900Y64500D01*
X119501Y66899D02*
X121101D01*
Y65700D01*
X120301Y66100D01*
X119901D01*
X119501Y65700D01*
Y64900D01*
X119901Y64500D01*
X120701D01*
X121101Y64900D01*
X118702Y66899D02*
X117102D01*
Y66499D01*
X118702Y64900D01*
Y64500D01*
X123500Y68340D02*
Y70739D01*
X122300D01*
X121900Y70340D01*
Y69540D01*
X122300Y69140D01*
X123500D01*
X122700D02*
X121900Y68340D01*
X119501Y70739D02*
X121101D01*
Y69540D01*
X120301Y69940D01*
X119901D01*
X119501Y69540D01*
Y68740D01*
X119901Y68340D01*
X120701D01*
X121101Y68740D01*
X118702Y70340D02*
X118302Y70739D01*
X117502D01*
X117102Y70340D01*
Y69940D01*
X117502Y69540D01*
X117102Y69140D01*
Y68740D01*
X117502Y68340D01*
X118302D01*
X118702Y68740D01*
Y69140D01*
X118302Y69540D01*
X118702Y69940D01*
Y70340D01*
X118302Y69540D02*
X117502D01*
X162937Y112997D02*
Y115396D01*
X161737D01*
X161337Y114996D01*
Y114197D01*
X161737Y113797D01*
X162937D01*
X162137D02*
X161337Y112997D01*
X158938Y115396D02*
X160538D01*
Y114197D01*
X159738Y114596D01*
X159338D01*
X158938Y114197D01*
Y113397D01*
X159338Y112997D01*
X160138D01*
X160538Y113397D01*
X158139D02*
X157739Y112997D01*
X156939D01*
X156539Y113397D01*
Y114996D01*
X156939Y115396D01*
X157739D01*
X158139Y114996D01*
Y114596D01*
X157739Y114197D01*
X156539D01*
X263339Y90500D02*
Y92899D01*
X262139D01*
X261739Y92499D01*
Y91700D01*
X262139Y91300D01*
X263339D01*
X262539D02*
X261739Y90500D01*
X259740D02*
Y92899D01*
X260939Y91700D01*
X259340D01*
X256941Y90500D02*
X258540D01*
X256941Y92099D01*
Y92499D01*
X257341Y92899D01*
X258140D01*
X258540Y92499D01*
X263339Y94500D02*
Y96899D01*
X262139D01*
X261739Y96499D01*
Y95700D01*
X262139Y95300D01*
X263339D01*
X262539D02*
X261739Y94500D01*
X259740D02*
Y96899D01*
X260939Y95700D01*
X259340D01*
X258540Y96499D02*
X258140Y96899D01*
X257341D01*
X256941Y96499D01*
Y96100D01*
X257341Y95700D01*
X257740D01*
X257341D01*
X256941Y95300D01*
Y94900D01*
X257341Y94500D01*
X258140D01*
X258540Y94900D01*
X174968Y97357D02*
X175367Y96957D01*
Y96157D01*
X174968Y95757D01*
X173368D01*
X172968Y96157D01*
Y96957D01*
X173368Y97357D01*
X172968Y99356D02*
X175367D01*
X174168Y98156D01*
Y99756D01*
X174968Y100556D02*
X175367Y100955D01*
Y101755D01*
X174968Y102155D01*
X173368D01*
X172968Y101755D01*
Y100955D01*
X173368Y100556D01*
X174968D01*
X138057Y85499D02*
X138457Y85899D01*
X139257D01*
X139657Y85499D01*
Y83900D01*
X139257Y83500D01*
X138457D01*
X138057Y83900D01*
X135658Y85899D02*
X137257D01*
Y84700D01*
X136458Y85100D01*
X136058D01*
X135658Y84700D01*
Y83900D01*
X136058Y83500D01*
X136857D01*
X137257Y83900D01*
X134858Y85499D02*
X134458Y85899D01*
X133659D01*
X133259Y85499D01*
Y85100D01*
X133659Y84700D01*
X133259Y84300D01*
Y83900D01*
X133659Y83500D01*
X134458D01*
X134858Y83900D01*
Y84300D01*
X134458Y84700D01*
X134858Y85100D01*
Y85499D01*
X134458Y84700D02*
X133659D01*
X200956Y93293D02*
X198957D01*
X198557Y93693D01*
Y94493D01*
X198957Y94892D01*
X200956D01*
X198557Y95692D02*
Y96492D01*
Y96092D01*
X200956D01*
X200556Y95692D01*
X198557Y97691D02*
Y98491D01*
Y98091D01*
X200956D01*
X200556Y97691D01*
X157473Y132141D02*
X157873Y132541D01*
X158673D01*
X159072Y132141D01*
Y130541D01*
X158673Y130141D01*
X157873D01*
X157473Y130541D01*
X155074Y132541D02*
X156673D01*
Y131341D01*
X155874Y131741D01*
X155474D01*
X155074Y131341D01*
Y130541D01*
X155474Y130141D01*
X156273D01*
X156673Y130541D01*
X187067Y207249D02*
Y208849D01*
X187467Y209249D01*
X188267D01*
X188667Y208849D01*
Y207249D01*
X188267Y206850D01*
X187467D01*
X187867Y207649D02*
X187067Y206850D01*
X187467D02*
X187067Y207249D01*
X185068Y206850D02*
Y209249D01*
X186267Y208049D01*
X184668D01*
X138400Y216000D02*
Y217599D01*
X138800Y217999D01*
X139600D01*
X140000Y217599D01*
Y216000D01*
X139600Y215600D01*
X138800D01*
X139200Y216400D02*
X138400Y215600D01*
X138800D02*
X138400Y216000D01*
X136001Y217999D02*
X137601D01*
Y216800D01*
X136801Y217199D01*
X136401D01*
X136001Y216800D01*
Y216000D01*
X136401Y215600D01*
X137201D01*
X137601Y216000D01*
X168277Y179732D02*
X170676D01*
Y180931D01*
X170276Y181331D01*
X169477D01*
X169077Y180931D01*
Y179732D01*
Y180532D02*
X168277Y181331D01*
X170676Y183730D02*
X170276Y182931D01*
X169477Y182131D01*
X168677D01*
X168277Y182531D01*
Y183331D01*
X168677Y183730D01*
X169077D01*
X169477Y183331D01*
Y182131D01*
X168277Y185730D02*
X170676D01*
X169477Y184530D01*
Y186130D01*
X148000Y191106D02*
Y193506D01*
X146800D01*
X146400Y193106D01*
Y192306D01*
X146800Y191906D01*
X148000D01*
X147200D02*
X146400Y191106D01*
X144001Y193506D02*
X144801Y193106D01*
X145601Y192306D01*
Y191506D01*
X145201Y191106D01*
X144401D01*
X144001Y191506D01*
Y191906D01*
X144401Y192306D01*
X145601D01*
X141602Y193506D02*
X143202D01*
Y192306D01*
X142402Y192706D01*
X142002D01*
X141602Y192306D01*
Y191506D01*
X142002Y191106D01*
X142802D01*
X143202Y191506D01*
X169769Y191500D02*
X172169D01*
Y192700D01*
X171769Y193099D01*
X170969D01*
X170569Y192700D01*
Y191500D01*
Y192300D02*
X169769Y193099D01*
X172169Y195499D02*
X171769Y194699D01*
X170969Y193899D01*
X170169D01*
X169769Y194299D01*
Y195099D01*
X170169Y195499D01*
X170569D01*
X170969Y195099D01*
Y193899D01*
X172169Y197898D02*
X171769Y197098D01*
X170969Y196298D01*
X170169D01*
X169769Y196698D01*
Y197498D01*
X170169Y197898D01*
X170569D01*
X170969Y197498D01*
Y196298D01*
X148000Y196000D02*
Y198399D01*
X146800D01*
X146400Y197999D01*
Y197200D01*
X146800Y196800D01*
X148000D01*
X147200D02*
X146400Y196000D01*
X144001Y198399D02*
X144801Y197999D01*
X145601Y197200D01*
Y196400D01*
X145201Y196000D01*
X144401D01*
X144001Y196400D01*
Y196800D01*
X144401Y197200D01*
X145601D01*
X143202Y198399D02*
X141602D01*
Y197999D01*
X143202Y196400D01*
Y196000D01*
X280500Y196700D02*
Y199099D01*
X279700Y198300D01*
X278901Y199099D01*
Y196700D01*
X278101D02*
X277301D01*
X277701D01*
Y199099D01*
X278101Y198699D01*
X269329Y42531D02*
Y44930D01*
X268129D01*
X267729Y44531D01*
Y43731D01*
X268129Y43331D01*
X269329D01*
X268529D02*
X267729Y42531D01*
X266930Y44531D02*
X266530Y44930D01*
X265730D01*
X265330Y44531D01*
Y44131D01*
X265730Y43731D01*
X266130D01*
X265730D01*
X265330Y43331D01*
Y42931D01*
X265730Y42531D01*
X266530D01*
X266930Y42931D01*
X262931Y44930D02*
X264530D01*
Y43731D01*
X263731Y44131D01*
X263331D01*
X262931Y43731D01*
Y42931D01*
X263331Y42531D01*
X264130D01*
X264530Y42931D01*
X269520Y72154D02*
Y74553D01*
X268320D01*
X267920Y74153D01*
Y73353D01*
X268320Y72953D01*
X269520D01*
X268720D02*
X267920Y72154D01*
X267121Y74153D02*
X266721Y74553D01*
X265921D01*
X265521Y74153D01*
Y73753D01*
X265921Y73353D01*
X266321D01*
X265921D01*
X265521Y72953D01*
Y72553D01*
X265921Y72154D01*
X266721D01*
X267121Y72553D01*
X263122Y74553D02*
X263922Y74153D01*
X264721Y73353D01*
Y72553D01*
X264321Y72154D01*
X263522D01*
X263122Y72553D01*
Y72953D01*
X263522Y73353D01*
X264721D01*
X218361Y349509D02*
Y348709D01*
Y349109D01*
X216362D01*
X215962Y348709D01*
Y348309D01*
X216362Y347909D01*
X215962Y351508D02*
X218361D01*
X217162Y350308D01*
Y351908D01*
D266*
X182421Y99817D02*
G03*
X182421Y99817I-394J0D01*
G01*
D267*
X159983Y235512D02*
X160083D01*
X159983Y235412D02*
X160183D01*
X159883Y235312D02*
X160183D01*
X159883Y235212D02*
X160283D01*
X159783Y235112D02*
X160383D01*
X159783Y235012D02*
X160383D01*
X159683Y234912D02*
X160483D01*
X159583Y234812D02*
X160483D01*
X159583Y234712D02*
X160583D01*
X159483Y234612D02*
X160683D01*
X159483Y234512D02*
X160683D01*
X159383Y234412D02*
X160783D01*
X159383Y234312D02*
X160883D01*
X159283Y234212D02*
X160883D01*
X159283Y234112D02*
X160983D01*
X159183Y234012D02*
X160983D01*
X159183Y233912D02*
X161083D01*
X159083Y233812D02*
X161183D01*
X159083Y233712D02*
X161183D01*
X158983Y233612D02*
X161283D01*
X158983Y233512D02*
X161283D01*
X158883Y233412D02*
X161383D01*
X158883Y233312D02*
X161483D01*
X158783Y233212D02*
X161483D01*
X158783Y233112D02*
X161583D01*
X158683Y233012D02*
X161683D01*
X158683Y232912D02*
X161683D01*
X158583Y232812D02*
X161783D01*
X158583Y232712D02*
X161783D01*
X158483Y232612D02*
X161883D01*
X158483Y232512D02*
X161983D01*
X158383Y232412D02*
X161983D01*
X158383Y232312D02*
X162083D01*
X158283Y232212D02*
X162083D01*
X158183Y232112D02*
X162183D01*
X158183Y232012D02*
X162283D01*
X158083Y231912D02*
X162283D01*
X158083Y231812D02*
X162383D01*
X157983Y231712D02*
X162483D01*
X157983Y231612D02*
X162483D01*
X157883Y231512D02*
X162583D01*
X157883Y231412D02*
X162583D01*
X157783Y231312D02*
X162683D01*
X157783Y231212D02*
X162783D01*
X157683Y231112D02*
X162783D01*
X157683Y231012D02*
X162883D01*
X157583Y230912D02*
X162883D01*
X157583Y230812D02*
X162983D01*
X157483Y230712D02*
X163083D01*
X157483Y230612D02*
X163083D01*
X157383Y230512D02*
X163183D01*
X157383Y230412D02*
X163183D01*
X157283Y230312D02*
X163283D01*
X157283Y230212D02*
X163383D01*
X157183Y230112D02*
X163383D01*
X157183Y230012D02*
X163483D01*
X157083Y229912D02*
X163583D01*
X157083Y229812D02*
X163583D01*
X156983Y229712D02*
X163683D01*
X156983Y229612D02*
X163683D01*
X156883Y229512D02*
X163783D01*
X156783Y229412D02*
X163883D01*
X156783Y229312D02*
X163883D01*
X156683Y229212D02*
X163983D01*
X156683Y229112D02*
X163983D01*
X156583Y229012D02*
X164083D01*
X156583Y228912D02*
X164183D01*
X156483Y228812D02*
X164183D01*
X156483Y228712D02*
X164283D01*
X156383Y228612D02*
X164383D01*
X156383Y228512D02*
X164383D01*
X156283Y228412D02*
X164483D01*
X156283Y228312D02*
X164483D01*
X156183Y228212D02*
X164583D01*
X156183Y228112D02*
X164683D01*
X156083Y228012D02*
X164683D01*
X156083Y227912D02*
X164783D01*
X155983Y227812D02*
X164783D01*
X155983Y227712D02*
X164883D01*
X155883Y227612D02*
X164983D01*
X155883Y227512D02*
X164983D01*
X155783Y227412D02*
X165083D01*
X155783Y227312D02*
X165183D01*
X155683Y227212D02*
X165183D01*
X155683Y227112D02*
X165283D01*
X155583Y227012D02*
X165283D01*
X155583Y226912D02*
X165383D01*
X155483Y226812D02*
X165483D01*
X155383Y226712D02*
X165483D01*
X155383Y226612D02*
X165583D01*
X155283Y226512D02*
X165583D01*
X155283Y226412D02*
X165683D01*
X155183Y226312D02*
X165783D01*
X155183Y226212D02*
X165783D01*
X155083Y226112D02*
X165883D01*
X155083Y226012D02*
X165883D01*
X154983Y225912D02*
X165983D01*
X154983Y225812D02*
X166083D01*
X154983Y225712D02*
X166083D01*
X154983Y225612D02*
X166183D01*
X154983Y225512D02*
X166283D01*
X154983Y225412D02*
X166283D01*
X154983Y225312D02*
X166383D01*
X155083Y225212D02*
X166383D01*
X155083Y225112D02*
X166483D01*
X155183Y225012D02*
X166583D01*
X155183Y224912D02*
X166583D01*
X155283Y224812D02*
X166683D01*
X155383Y224712D02*
X166683D01*
X155483Y224612D02*
X166783D01*
X155583Y224512D02*
X166883D01*
X155683Y224412D02*
X166883D01*
X155783Y224312D02*
X166983D01*
X155983Y224212D02*
X167083D01*
X156183Y224112D02*
X167083D01*
X156383Y224012D02*
X167183D01*
X156583Y223912D02*
X167183D01*
X156883Y223812D02*
X167283D01*
X157183Y223712D02*
X167383D01*
X157483Y223612D02*
X167383D01*
X157883Y223512D02*
X167483D01*
X158383Y223412D02*
X167483D01*
X158983Y223312D02*
X167583D01*
X159783Y223212D02*
X167683D01*
X161283Y223112D02*
X167683D01*
X162983Y223012D02*
X167783D01*
X163583Y222912D02*
X167883D01*
X164083Y222812D02*
X167883D01*
X164383Y222712D02*
X167983D01*
X164783Y222612D02*
X167983D01*
X164983Y222512D02*
X168083D01*
X165283Y222412D02*
X168183D01*
X165483Y222312D02*
X168183D01*
X165683Y222212D02*
X168283D01*
X165883Y222112D02*
X168283D01*
X166083Y222012D02*
X168383D01*
X166183Y221912D02*
X168483D01*
X166383Y221812D02*
X168483D01*
X166483Y221712D02*
X168583D01*
X166683Y221612D02*
X168483D01*
X166783Y221512D02*
X168383D01*
X166883Y221412D02*
X168183D01*
X166983Y221312D02*
X168083D01*
X167083Y221212D02*
X167883D01*
X167183Y221112D02*
X167783D01*
X167283Y221012D02*
X167583D01*
X167283Y220912D02*
X167483D01*
X169883Y219312D02*
X170083D01*
X169683Y219212D02*
X170083D01*
X169483Y219112D02*
X170183D01*
X151583D02*
X151883D01*
X169383Y219012D02*
X170283D01*
X151483D02*
X152083D01*
X169183Y218912D02*
X170283D01*
X151483D02*
X152283D01*
X169083Y218812D02*
X170383D01*
X151383D02*
X152583D01*
X168883Y218712D02*
X170383D01*
X151383D02*
X152883D01*
X168783Y218612D02*
X170483D01*
X151283D02*
X152983D01*
X168883Y218512D02*
X170583D01*
X151283D02*
X153083D01*
X168883Y218412D02*
X170583D01*
X151183D02*
X153083D01*
X168983Y218312D02*
X170683D01*
X151083D02*
X153183D01*
X168983Y218212D02*
X170683D01*
X151083D02*
X153183D01*
X169083Y218112D02*
X170783D01*
X150983D02*
X153283D01*
X169083Y218012D02*
X170883D01*
X150983D02*
X153283D01*
X169183Y217912D02*
X170883D01*
X150883D02*
X153383D01*
X169183Y217812D02*
X170983D01*
X150883D02*
X153483D01*
X169283Y217712D02*
X170983D01*
X150783D02*
X153483D01*
X169283Y217612D02*
X171083D01*
X150783D02*
X153583D01*
X169283Y217512D02*
X171183D01*
X150683D02*
X153583D01*
X169383Y217412D02*
X171183D01*
X150683D02*
X153683D01*
X169383Y217312D02*
X171283D01*
X150583D02*
X153783D01*
X169483Y217212D02*
X171283D01*
X150583D02*
X153783D01*
X169483Y217112D02*
X171383D01*
X150483D02*
X153883D01*
X169583Y217012D02*
X171483D01*
X150383D02*
X153983D01*
X169583Y216912D02*
X171483D01*
X165683D02*
X165883D01*
X150383D02*
X154083D01*
X169583Y216812D02*
X171583D01*
X165583D02*
X165883D01*
X150283D02*
X154083D01*
X169683Y216712D02*
X171583D01*
X165483D02*
X165983D01*
X150283D02*
X154183D01*
X169683Y216612D02*
X171683D01*
X165383D02*
X165983D01*
X150183D02*
X154283D01*
X169783Y216512D02*
X171783D01*
X165283D02*
X166083D01*
X150183D02*
X154383D01*
X169783Y216412D02*
X171783D01*
X165783D02*
X166183D01*
X165183D02*
X165683D01*
X150083D02*
X154483D01*
X169783Y216312D02*
X171883D01*
X165783D02*
X166183D01*
X164983D02*
X165583D01*
X150083D02*
X154583D01*
X169883Y216212D02*
X171883D01*
X165883D02*
X166283D01*
X164883D02*
X165483D01*
X149983D02*
X154683D01*
X169883Y216112D02*
X171983D01*
X165883D02*
X166383D01*
X164783D02*
X165383D01*
X149983D02*
X154783D01*
X169883Y216012D02*
X172083D01*
X165883D02*
X166383D01*
X164683D02*
X165183D01*
X149883D02*
X154883D01*
X169983Y215912D02*
X172083D01*
X165983D02*
X166483D01*
X164483D02*
X165083D01*
X149783D02*
X154983D01*
X169983Y215812D02*
X172183D01*
X165983D02*
X166583D01*
X164383D02*
X164983D01*
X149783D02*
X155083D01*
X169983Y215712D02*
X172183D01*
X166083D02*
X166683D01*
X164183D02*
X164883D01*
X149683D02*
X155183D01*
X170083Y215612D02*
X172283D01*
X166083D02*
X166783D01*
X164083D02*
X164783D01*
X149683D02*
X155283D01*
X170083Y215512D02*
X172383D01*
X166183D02*
X166883D01*
X163883D02*
X164683D01*
X149583D02*
X155483D01*
X170083Y215412D02*
X172383D01*
X166283D02*
X166983D01*
X164283D02*
X164683D01*
X163683D02*
X164183D01*
X149583D02*
X155583D01*
X170083Y215312D02*
X172483D01*
X166283D02*
X167083D01*
X164283D02*
X164683D01*
X163583D02*
X163983D01*
X149483D02*
X155683D01*
X170083Y215212D02*
X172483D01*
X166383D02*
X167183D01*
X164383D02*
X164783D01*
X163383D02*
X163783D01*
X149483D02*
X155883D01*
X170083Y215112D02*
X172583D01*
X166483D02*
X167283D01*
X164483D02*
X164883D01*
X163183D02*
X163583D01*
X149383D02*
X155983D01*
X170083Y215012D02*
X172683D01*
X166583D02*
X167383D01*
X164483D02*
X164883D01*
X162983D02*
X163383D01*
X149383D02*
X156183D01*
X170083Y214912D02*
X172683D01*
X166583D02*
X167483D01*
X164583D02*
X164983D01*
X162683D02*
X163283D01*
X149283D02*
X156383D01*
X170083Y214812D02*
X172783D01*
X166683D02*
X167383D01*
X164583D02*
X164983D01*
X162483D02*
X163283D01*
X149183D02*
X156483D01*
X170083Y214712D02*
X172783D01*
X166783D02*
X167383D01*
X164683D02*
X165083D01*
X162183D02*
X163283D01*
X149183D02*
X156583D01*
X170083Y214612D02*
X172883D01*
X166683D02*
X167283D01*
X164683D02*
X165083D01*
X162083D02*
X163183D01*
X149083D02*
X156583D01*
X170083Y214512D02*
X172983D01*
X166683D02*
X167283D01*
X164683D02*
X165083D01*
X162183D02*
X163183D01*
X149083D02*
X156583D01*
X169983Y214412D02*
X172983D01*
X166583D02*
X167283D01*
X164683D02*
X165183D01*
X162183D02*
X163083D01*
X148983D02*
X156583D01*
X169983Y214312D02*
X173083D01*
X166583D02*
X167183D01*
X164683D02*
X165183D01*
X162283D02*
X162983D01*
X148983D02*
X156583D01*
X169983Y214212D02*
X173083D01*
X166583D02*
X167183D01*
X164683D02*
X165183D01*
X162383D02*
X162883D01*
X148883D02*
X156483D01*
X169983Y214112D02*
X173183D01*
X166583D02*
X167083D01*
X164683D02*
X165083D01*
X162483D02*
X162783D01*
X148883D02*
X156283D01*
X169983Y214012D02*
X173283D01*
X166483D02*
X167083D01*
X164683D02*
X165083D01*
X162583D02*
X162883D01*
X148783D02*
X156083D01*
X169983Y213912D02*
X173283D01*
X166483D02*
X167083D01*
X164583D02*
X165083D01*
X162583D02*
X163083D01*
X148783D02*
X155983D01*
X169983Y213812D02*
X173383D01*
X166483D02*
X167083D01*
X164583D02*
X165083D01*
X162683D02*
X163183D01*
X148683D02*
X155783D01*
X169883Y213712D02*
X173383D01*
X166483D02*
X166983D01*
X164483D02*
X164983D01*
X162783D02*
X163283D01*
X148683D02*
X155583D01*
X169883Y213612D02*
X173483D01*
X166483D02*
X166983D01*
X164483D02*
X164983D01*
X162883D02*
X163383D01*
X148583D02*
X155383D01*
X169883Y213512D02*
X173583D01*
X166483D02*
X166983D01*
X164483D02*
X164983D01*
X162983D02*
X163483D01*
X148483D02*
X155283D01*
X169883Y213412D02*
X173583D01*
X166483D02*
X166983D01*
X164383D02*
X164983D01*
X163083D02*
X163583D01*
X148483D02*
X155083D01*
X169883Y213312D02*
X173683D01*
X166383D02*
X166983D01*
X164383D02*
X164883D01*
X163183D02*
X163683D01*
X148383D02*
X154883D01*
X169783Y213212D02*
X173683D01*
X166383D02*
X166983D01*
X164283D02*
X164883D01*
X163283D02*
X163783D01*
X148383D02*
X154783D01*
X169783Y213112D02*
X173783D01*
X166383D02*
X166983D01*
X164283D02*
X164883D01*
X163383D02*
X163883D01*
X148283D02*
X154583D01*
X169783Y213012D02*
X173883D01*
X166383D02*
X166983D01*
X164183D02*
X164783D01*
X163483D02*
X164083D01*
X148283D02*
X154383D01*
X169783Y212912D02*
X173883D01*
X166383D02*
X166983D01*
X163583D02*
X164783D01*
X148183D02*
X154183D01*
X169783Y212812D02*
X173983D01*
X166383D02*
X166983D01*
X163783D02*
X164783D01*
X158983D02*
X159483D01*
X148183D02*
X154083D01*
X169683Y212712D02*
X173983D01*
X166383D02*
X166983D01*
X163883D02*
X164783D01*
X158783D02*
X159583D01*
X148083D02*
X153883D01*
X169683Y212612D02*
X174083D01*
X166383D02*
X166983D01*
X163983D02*
X164683D01*
X158683D02*
X159783D01*
X148083D02*
X153683D01*
X169683Y212512D02*
X174183D01*
X166383D02*
X166983D01*
X164083D02*
X164683D01*
X158483D02*
X159883D01*
X147983D02*
X153583D01*
X169683Y212412D02*
X174183D01*
X166383D02*
X166983D01*
X164183D02*
X164683D01*
X158283D02*
X159983D01*
X147883D02*
X153383D01*
X169583Y212312D02*
X174283D01*
X166383D02*
X166983D01*
X164283D02*
X164783D01*
X158183D02*
X160083D01*
X147883D02*
X153183D01*
X169583Y212212D02*
X174283D01*
X166483D02*
X166983D01*
X164383D02*
X164883D01*
X157983D02*
X160183D01*
X147783D02*
X152983D01*
X169583Y212112D02*
X174383D01*
X166483D02*
X167083D01*
X164483D02*
X164883D01*
X157883D02*
X160283D01*
X147783D02*
X152883D01*
X169583Y212012D02*
X174483D01*
X166483D02*
X167083D01*
X164583D02*
X164983D01*
X160183D02*
X160383D01*
X157683D02*
X160083D01*
X147683D02*
X152683D01*
X169483Y211912D02*
X174483D01*
X166383D02*
X167083D01*
X164683D02*
X165083D01*
X160183D02*
X160483D01*
X157483D02*
X160083D01*
X147683D02*
X152483D01*
X169483Y211812D02*
X174583D01*
X166383D02*
X167183D01*
X164783D02*
X165083D01*
X160283D02*
X160583D01*
X157383D02*
X159983D01*
X147583D02*
X152383D01*
X169483Y211712D02*
X174583D01*
X166283D02*
X167183D01*
X164883D02*
X165183D01*
X160383D02*
X160683D01*
X157183D02*
X159983D01*
X147583D02*
X152183D01*
X169383Y211612D02*
X174683D01*
X166283D02*
X167083D01*
X164883D02*
X165183D01*
X160483D02*
X160783D01*
X157083D02*
X159983D01*
X147483D02*
X151983D01*
X169383Y211512D02*
X174783D01*
X166183D02*
X166983D01*
X164983D02*
X165283D01*
X160583D02*
X160883D01*
X156883D02*
X159983D01*
X147483D02*
X151783D01*
X169383Y211412D02*
X174783D01*
X166183D02*
X166983D01*
X164983D02*
X165283D01*
X160583D02*
X160883D01*
X156683D02*
X159983D01*
X147383D02*
X151683D01*
X169283Y211312D02*
X174883D01*
X166083D02*
X166883D01*
X165083D02*
X165383D01*
X160683D02*
X160983D01*
X156583D02*
X159983D01*
X147383D02*
X151483D01*
X169283Y211212D02*
X174883D01*
X166083D02*
X166783D01*
X165083D02*
X165383D01*
X160783D02*
X161083D01*
X156383D02*
X160083D01*
X147283D02*
X151283D01*
X169283Y211112D02*
X174983D01*
X165983D02*
X166783D01*
X165183D02*
X165483D01*
X160883D02*
X161183D01*
X156283D02*
X160083D01*
X147183D02*
X151083D01*
X169283Y211012D02*
X175083D01*
X165883D02*
X166683D01*
X165183D02*
X165483D01*
X160983D02*
X161283D01*
X156083D02*
X160183D01*
X147183D02*
X150983D01*
X169183Y210912D02*
X175083D01*
X165883D02*
X166683D01*
X165183D02*
X165583D01*
X160983D02*
X161383D01*
X155883D02*
X160383D01*
X147083D02*
X150783D01*
X169183Y210812D02*
X175183D01*
X165783D02*
X166583D01*
X165283D02*
X165583D01*
X161083D02*
X161383D01*
X155783D02*
X160583D01*
X147083D02*
X150583D01*
X169183Y210712D02*
X175183D01*
X165683D02*
X166583D01*
X165283D02*
X165583D01*
X161183D02*
X161483D01*
X155583D02*
X160883D01*
X146983D02*
X150483D01*
X169083Y210612D02*
X175283D01*
X165283D02*
X166483D01*
X155483D02*
X161583D01*
X146983D02*
X150283D01*
X169083Y210512D02*
X175383D01*
X165283D02*
X166483D01*
X155283D02*
X161683D01*
X146883D02*
X150083D01*
X168983Y210412D02*
X175383D01*
X165383D02*
X166483D01*
X161383D02*
X161783D01*
X155083D02*
X161183D01*
X146883D02*
X149883D01*
X168983Y210312D02*
X175483D01*
X165383D02*
X166483D01*
X162683D02*
X163683D01*
X161483D02*
X161783D01*
X154983D02*
X161183D01*
X146783D02*
X149783D01*
X168983Y210212D02*
X175483D01*
X168283D02*
X168483D01*
X165383D02*
X166483D01*
X162383D02*
X163883D01*
X161483D02*
X161883D01*
X154783D02*
X161183D01*
X146783D02*
X149583D01*
X168883Y210112D02*
X175583D01*
X168083D02*
X168683D01*
X165383D02*
X166383D01*
X163483D02*
X164083D01*
X162283D02*
X162883D01*
X161583D02*
X161983D01*
X154683D02*
X161183D01*
X146683D02*
X149383D01*
X167983Y210012D02*
X175683D01*
X165383D02*
X166383D01*
X163783D02*
X164183D01*
X161683D02*
X162683D01*
X154483D02*
X161183D01*
X146583D02*
X149283D01*
X167883Y209912D02*
X175683D01*
X165383D02*
X166383D01*
X163983D02*
X164383D01*
X161783D02*
X162483D01*
X154283D02*
X161183D01*
X146583D02*
X149083D01*
X168683Y209812D02*
X175783D01*
X167883D02*
X168183D01*
X165383D02*
X166383D01*
X164083D02*
X164483D01*
X161883D02*
X162383D01*
X154183D02*
X161183D01*
X146483D02*
X148883D01*
X168683Y209712D02*
X175783D01*
X167783D02*
X168083D01*
X165383D02*
X166383D01*
X164283D02*
X164583D01*
X161883D02*
X162283D01*
X153983D02*
X161183D01*
X146483D02*
X148683D01*
X168683Y209612D02*
X175883D01*
X167783D02*
X167983D01*
X165383D02*
X166383D01*
X164383D02*
X164683D01*
X161983D02*
X162383D01*
X153883D02*
X161283D01*
X146383D02*
X148583D01*
X168683Y209512D02*
X175983D01*
X167683D02*
X167983D01*
X165283D02*
X166383D01*
X164483D02*
X164783D01*
X162083D02*
X162383D01*
X153683D02*
X161383D01*
X146383D02*
X148383D01*
X168683Y209412D02*
X175983D01*
X167683D02*
X167883D01*
X165283D02*
X166383D01*
X164583D02*
X164783D01*
X162183D02*
X162383D01*
X153483D02*
X161483D01*
X146283D02*
X148183D01*
X168683Y209312D02*
X176083D01*
X167683D02*
X167883D01*
X165283D02*
X166383D01*
X164683D02*
X164883D01*
X162283D02*
X162483D01*
X153383D02*
X161683D01*
X146283D02*
X148083D01*
X168683Y209212D02*
X176083D01*
X167583D02*
X167783D01*
X165283D02*
X166383D01*
X164783D02*
X164983D01*
X162283D02*
X162583D01*
X153183D02*
X161983D01*
X146183D02*
X147883D01*
X168683Y209112D02*
X176183D01*
X167583D02*
X167783D01*
X165283D02*
X166383D01*
X164783D02*
X165083D01*
X152983D02*
X162683D01*
X146183D02*
X147683D01*
X168683Y209012D02*
X176283D01*
X167583D02*
X167783D01*
X165183D02*
X166383D01*
X164883D02*
X165083D01*
X152883D02*
X162783D01*
X146083D02*
X147483D01*
X168583Y208912D02*
X176283D01*
X167583D02*
X167783D01*
X164883D02*
X166383D01*
X152683D02*
X162883D01*
X146083D02*
X147383D01*
X168583Y208812D02*
X176383D01*
X167583D02*
X167783D01*
X164883D02*
X166383D01*
X152583D02*
X162983D01*
X145983D02*
X147183D01*
X168583Y208712D02*
X176383D01*
X167483D02*
X167683D01*
X164883D02*
X166383D01*
X152383D02*
X163183D01*
X145883D02*
X146983D01*
X168583Y208612D02*
X176483D01*
X167483D02*
X167683D01*
X164883D02*
X166383D01*
X152183D02*
X163383D01*
X145883D02*
X146883D01*
X168583Y208512D02*
X176583D01*
X167483D02*
X167683D01*
X164783D02*
X166383D01*
X152083D02*
X163683D01*
X145783D02*
X146683D01*
X168483Y208412D02*
X176583D01*
X167483D02*
X167683D01*
X164383D02*
X166483D01*
X151883D02*
X164283D01*
X145783D02*
X146483D01*
X168483Y208312D02*
X176683D01*
X167483D02*
X167683D01*
X151783D02*
X166483D01*
X145683D02*
X146283D01*
X168383Y208212D02*
X176683D01*
X167483D02*
X167683D01*
X151583D02*
X166483D01*
X145683D02*
X146183D01*
X168283Y208112D02*
X176783D01*
X167483D02*
X167683D01*
X151383D02*
X166483D01*
X145583D02*
X145983D01*
X168183Y208012D02*
X176883D01*
X167483D02*
X167683D01*
X151283D02*
X166583D01*
X145583D02*
X145783D01*
X167483Y207912D02*
X176883D01*
X151083D02*
X166683D01*
X145483D02*
X145683D01*
X167483Y207812D02*
X176983D01*
X150983D02*
X166683D01*
X167383Y207712D02*
X176983D01*
X150783D02*
X166883D01*
X150583Y207612D02*
X177083D01*
X150483Y207512D02*
X177183D01*
X150283Y207412D02*
X177183D01*
X150183Y207312D02*
X177283D01*
X149983Y207212D02*
X177283D01*
X149783Y207112D02*
X177383D01*
X149683Y207012D02*
X177483D01*
X149483Y206912D02*
X177483D01*
X149383Y206812D02*
X177583D01*
X149183Y206712D02*
X177583D01*
X148983Y206612D02*
X177683D01*
X148883Y206512D02*
X177783D01*
X148683Y206412D02*
X177783D01*
X148583Y206312D02*
X177883D01*
X148383Y206212D02*
X177883D01*
X148183Y206112D02*
X177983D01*
X148083Y206012D02*
X178083D01*
X147883Y205912D02*
X178083D01*
X147783Y205812D02*
X178183D01*
X147583Y205712D02*
X178183D01*
X147383Y205612D02*
X178283D01*
X147283Y205512D02*
X178383D01*
X147083Y205412D02*
X178383D01*
X146983Y205312D02*
X178483D01*
M02*
