G04*
G04 #@! TF.GenerationSoftware,Altium Limited,Altium Designer,19.0.10 (269)*
G04*
G04 Layer_Physical_Order=3*
G04 Layer_Color=36540*
%FSLAX25Y25*%
%MOIN*%
G70*
G01*
G75*
%ADD11C,0.01000*%
%ADD19C,0.00800*%
%ADD162C,0.03000*%
%ADD193C,0.07087*%
%ADD194R,0.05906X0.05906*%
%ADD195C,0.05906*%
%ADD196C,0.22000*%
%ADD197O,0.07874X0.07087*%
%ADD198C,0.07874*%
%ADD201C,0.04724*%
%ADD205O,0.06500X0.07874*%
%ADD206C,0.02756*%
%ADD207O,0.05500X0.07000*%
G36*
X280194Y189234D02*
X279753Y188999D01*
X279681Y189046D01*
X279067Y189169D01*
X253003D01*
X252389Y189046D01*
X251868Y188698D01*
X251520Y188177D01*
X251397Y187563D01*
Y117949D01*
X251520Y117334D01*
X251868Y116813D01*
X252389Y116465D01*
X253003Y116343D01*
X253942D01*
X254188Y115843D01*
X253940Y115520D01*
X253680Y114893D01*
X253592Y114220D01*
X253680Y113547D01*
X253940Y112920D01*
X254353Y112381D01*
X254519Y112254D01*
Y78863D01*
X254651Y78200D01*
X255026Y77638D01*
X255626Y77038D01*
Y66939D01*
X255153Y66778D01*
X255012Y66962D01*
X254144Y67627D01*
X253134Y68046D01*
X252050Y68189D01*
X250966Y68046D01*
X249956Y67627D01*
X249088Y66962D01*
X248423Y66094D01*
X248004Y65084D01*
X247861Y64000D01*
X248004Y62916D01*
X248423Y61906D01*
X249088Y61038D01*
X249956Y60373D01*
X250966Y59954D01*
X252050Y59811D01*
X253134Y59954D01*
X254144Y60373D01*
X255012Y61038D01*
X255153Y61222D01*
X255626Y61061D01*
Y56939D01*
X255153Y56778D01*
X255012Y56962D01*
X254144Y57627D01*
X253134Y58046D01*
X252050Y58189D01*
X250966Y58046D01*
X249956Y57627D01*
X249088Y56962D01*
X248423Y56094D01*
X248004Y55084D01*
X247861Y54000D01*
X248004Y52916D01*
X248423Y51906D01*
X249088Y51038D01*
X249956Y50373D01*
X250966Y49954D01*
X252050Y49811D01*
X253134Y49954D01*
X253504Y50107D01*
X253787Y49683D01*
X253337Y49233D01*
X230369D01*
X230178Y49695D01*
X230592Y50109D01*
X230966Y49954D01*
X232050Y49811D01*
X233134Y49954D01*
X234144Y50373D01*
X235012Y51038D01*
X235677Y51906D01*
X236096Y52916D01*
X236239Y54000D01*
X236096Y55084D01*
X235677Y56094D01*
X235012Y56962D01*
X234144Y57627D01*
X233134Y58046D01*
X232050Y58189D01*
X230966Y58046D01*
X229956Y57627D01*
X229088Y56962D01*
X228423Y56094D01*
X228004Y55084D01*
X227861Y54000D01*
X228004Y52916D01*
X228148Y52568D01*
X226687Y51107D01*
X225630D01*
X225409Y51556D01*
X225677Y51906D01*
X226096Y52916D01*
X226239Y54000D01*
X226096Y55084D01*
X225677Y56094D01*
X225012Y56962D01*
X224144Y57627D01*
X223134Y58046D01*
X222050Y58189D01*
X220966Y58046D01*
X219956Y57627D01*
X219088Y56962D01*
X218423Y56094D01*
X218004Y55084D01*
X217861Y54000D01*
X218004Y52916D01*
X218423Y51906D01*
X218691Y51556D01*
X218470Y51107D01*
X215630D01*
X215409Y51556D01*
X215677Y51906D01*
X216096Y52916D01*
X216239Y54000D01*
X216096Y55084D01*
X215677Y56094D01*
X215012Y56962D01*
X214144Y57627D01*
X213134Y58046D01*
X212050Y58189D01*
X210966Y58046D01*
X210547Y57872D01*
X208733Y59687D01*
Y60729D01*
X209233Y60927D01*
X209956Y60373D01*
X210966Y59954D01*
X212050Y59811D01*
X213134Y59954D01*
X214144Y60373D01*
X215012Y61038D01*
X215677Y61906D01*
X216096Y62916D01*
X216239Y64000D01*
X216096Y65084D01*
X215677Y66094D01*
X215012Y66962D01*
X214144Y67627D01*
X213733Y67798D01*
Y72087D01*
X213733Y72087D01*
X213601Y72750D01*
X213226Y73312D01*
X209370Y77168D01*
X209491Y77754D01*
X209879Y78052D01*
X210292Y78591D01*
X210552Y79218D01*
X210641Y79891D01*
X210552Y80564D01*
X210292Y81191D01*
X209879Y81729D01*
X209341Y82142D01*
X208714Y82402D01*
X208040Y82491D01*
X207367Y82402D01*
X206861Y82192D01*
X205974Y83079D01*
X206111Y83650D01*
X206520Y83922D01*
X206895Y84485D01*
X207027Y85148D01*
X206969Y85442D01*
X207042Y86000D01*
X206954Y86673D01*
X206694Y87300D01*
X206281Y87839D01*
X205742Y88252D01*
X205115Y88512D01*
X204442Y88600D01*
Y91141D01*
X204942Y91222D01*
X205788Y90192D01*
X206900Y89279D01*
X208168Y88601D01*
X209545Y88183D01*
X210976Y88042D01*
X212408Y88183D01*
X213784Y88601D01*
X215053Y89279D01*
X216165Y90192D01*
X217077Y91303D01*
X217756Y92572D01*
X218173Y93949D01*
X218314Y95380D01*
X218173Y96811D01*
X217756Y98188D01*
X217077Y99457D01*
X216165Y100568D01*
X215053Y101481D01*
X213784Y102159D01*
X212408Y102577D01*
X210976Y102718D01*
X209545Y102577D01*
X208168Y102159D01*
X206900Y101481D01*
X205788Y100568D01*
X204942Y99538D01*
X204442Y99619D01*
Y121619D01*
X206746Y123924D01*
X206903Y123913D01*
X207441Y123500D01*
X208068Y123240D01*
X208741Y123152D01*
X209414Y123240D01*
X210041Y123500D01*
X210580Y123913D01*
X210993Y124452D01*
X211253Y125079D01*
X211341Y125752D01*
X211253Y126425D01*
X210993Y127052D01*
X210580Y127591D01*
X210041Y128004D01*
X209414Y128264D01*
X208741Y128352D01*
X208068Y128264D01*
X207441Y128004D01*
X206903Y127591D01*
X206822Y127485D01*
X206123D01*
X205460Y127353D01*
X204898Y126978D01*
X201483Y123563D01*
X201107Y123001D01*
X200975Y122337D01*
Y88732D01*
X200513Y88540D01*
X196568Y92486D01*
Y123065D01*
X198423Y124920D01*
X198423Y124920D01*
X198798Y125482D01*
X198930Y126146D01*
X198930Y126146D01*
Y127626D01*
X199036Y127707D01*
X199449Y128246D01*
X199708Y128873D01*
X199797Y129546D01*
X199708Y130219D01*
X199449Y130846D01*
X199036Y131384D01*
X198497Y131798D01*
X197870Y132057D01*
X197197Y132146D01*
X196837Y132098D01*
X196520Y132066D01*
X196311Y132510D01*
X196282Y132724D01*
X196023Y133351D01*
X195609Y133890D01*
X195071Y134303D01*
X194444Y134563D01*
X193771Y134651D01*
X193098Y134563D01*
X192471Y134303D01*
X192343Y134205D01*
X191843Y134452D01*
Y139601D01*
X193522Y141279D01*
X193654Y141262D01*
X193785Y141279D01*
X194484Y140581D01*
X194484Y140581D01*
X195046Y140205D01*
X195709Y140073D01*
X215295D01*
X219197Y136171D01*
X219181Y136046D01*
X219269Y135373D01*
X219529Y134746D01*
X219942Y134207D01*
X220481Y133794D01*
X221108Y133535D01*
X221781Y133446D01*
X222252Y133508D01*
X222659Y133427D01*
X223323Y133559D01*
X223885Y133935D01*
X224261Y134497D01*
X224393Y135160D01*
X224316Y135547D01*
X224381Y136046D01*
X224293Y136719D01*
X224033Y137346D01*
X223620Y137885D01*
X223081Y138298D01*
X222454Y138558D01*
X221781Y138646D01*
X221643Y138628D01*
X217239Y143032D01*
X216676Y143408D01*
X216013Y143540D01*
X196660D01*
X196254Y143862D01*
X196165Y144535D01*
X195905Y145162D01*
X195492Y145701D01*
X194954Y146114D01*
X194326Y146374D01*
X194420Y146853D01*
X207088D01*
X207169Y146748D01*
X207708Y146335D01*
X208335Y146075D01*
X209008Y145986D01*
X209681Y146075D01*
X210308Y146335D01*
X210846Y146748D01*
X211260Y147286D01*
X211520Y147914D01*
X211608Y148587D01*
X211520Y149260D01*
X211260Y149887D01*
X210846Y150425D01*
X210308Y150838D01*
X209681Y151098D01*
X209008Y151187D01*
X208335Y151098D01*
X207708Y150838D01*
X207169Y150425D01*
X207088Y150320D01*
X193515D01*
X193324Y150782D01*
X202971Y160429D01*
X203102Y160412D01*
X203775Y160500D01*
X204402Y160760D01*
X204941Y161173D01*
X205354Y161712D01*
X205614Y162339D01*
X205703Y163012D01*
X205614Y163685D01*
X205354Y164312D01*
X204941Y164850D01*
X204402Y165264D01*
X203775Y165523D01*
X203102Y165612D01*
X202429Y165523D01*
X201802Y165264D01*
X201264Y164850D01*
X200851Y164312D01*
X200591Y163685D01*
X200502Y163012D01*
X200519Y162880D01*
X184948Y147308D01*
X184572Y146746D01*
X184440Y146083D01*
Y128161D01*
X184572Y127497D01*
X184948Y126935D01*
X185913Y125970D01*
X185734Y125441D01*
X185268Y125248D01*
X184730Y124835D01*
X184317Y124296D01*
X184057Y123669D01*
X183576Y123760D01*
Y130227D01*
X183444Y130890D01*
X183068Y131452D01*
X180062Y134458D01*
X179500Y134834D01*
X178837Y134966D01*
X174510D01*
X174429Y135071D01*
X173891Y135484D01*
X173264Y135744D01*
X172591Y135833D01*
X171918Y135744D01*
X171291Y135484D01*
X170752Y135071D01*
X170339Y134532D01*
X170079Y133905D01*
X169990Y133232D01*
X170079Y132559D01*
X170339Y131932D01*
X170752Y131394D01*
X171291Y130980D01*
X171918Y130721D01*
X172591Y130632D01*
X173264Y130721D01*
X173891Y130980D01*
X174429Y131394D01*
X174510Y131499D01*
X178119D01*
X180109Y129509D01*
Y119504D01*
X180056Y119235D01*
Y111793D01*
X180036Y111694D01*
Y106741D01*
X180056Y106642D01*
Y93305D01*
X179595Y93244D01*
X178968Y92984D01*
X178429Y92571D01*
X178016Y92032D01*
X177756Y91405D01*
X177667Y90732D01*
X177756Y90059D01*
X178016Y89432D01*
X178429Y88894D01*
X178968Y88480D01*
X179595Y88221D01*
X180268Y88132D01*
X180612Y88177D01*
X181112Y87786D01*
Y85960D01*
X180697Y85682D01*
X180547Y85744D01*
X179874Y85832D01*
X179201Y85744D01*
X178574Y85484D01*
X178035Y85071D01*
X177622Y84532D01*
X177362Y83905D01*
X177273Y83232D01*
X177291Y83101D01*
X174515Y80324D01*
X174015Y80532D01*
Y113354D01*
X173883Y114017D01*
X173507Y114580D01*
X172083Y116004D01*
X172262Y116532D01*
X172380Y116548D01*
X173007Y116807D01*
X173545Y117220D01*
X173958Y117759D01*
X174218Y118386D01*
X174307Y119059D01*
X174218Y119732D01*
X173958Y120359D01*
X173545Y120898D01*
X173007Y121311D01*
X172380Y121571D01*
X171706Y121659D01*
X171034Y121571D01*
X170406Y121311D01*
X169868Y120898D01*
X169691Y120667D01*
X169228Y120495D01*
X169046Y120603D01*
X168662Y120898D01*
X168035Y121157D01*
X167362Y121246D01*
X166689Y121157D01*
X166062Y120898D01*
X165524Y120484D01*
X165110Y119946D01*
X164850Y119319D01*
X164762Y118646D01*
X164850Y117973D01*
X165110Y117346D01*
X165524Y116807D01*
X166062Y116394D01*
X166689Y116134D01*
X167105Y116079D01*
X170548Y112636D01*
Y108062D01*
X170065Y107975D01*
X169793Y108632D01*
X169360Y109195D01*
X161178Y117378D01*
Y140550D01*
X161678Y140881D01*
X162157Y140818D01*
X162830Y140907D01*
X163458Y141166D01*
X163996Y141579D01*
X164409Y142118D01*
X164669Y142745D01*
X164758Y143418D01*
X164669Y144091D01*
X164409Y144718D01*
X163996Y145257D01*
X163458Y145670D01*
X162830Y145930D01*
X162157Y146018D01*
X161678Y145955D01*
X161178Y146286D01*
Y149180D01*
X161085Y149885D01*
X160813Y150542D01*
X160380Y151106D01*
X159792Y151693D01*
X159229Y152126D01*
X158572Y152398D01*
X157867Y152491D01*
X152709D01*
X152004Y152398D01*
X151347Y152126D01*
X150783Y151693D01*
X150350Y151129D01*
X150078Y150473D01*
X149985Y149768D01*
X150078Y149063D01*
X150350Y148406D01*
X150783Y147842D01*
X151347Y147409D01*
X152004Y147137D01*
X152709Y147044D01*
X155731D01*
Y116250D01*
X155824Y115545D01*
X156096Y114888D01*
X156529Y114324D01*
X164711Y106142D01*
Y102866D01*
X164804Y102162D01*
X165076Y101505D01*
X165509Y100941D01*
X165559Y100902D01*
X165584Y100869D01*
X166123Y100456D01*
X166750Y100196D01*
X167423Y100108D01*
X168096Y100196D01*
X168723Y100456D01*
X168785Y100503D01*
X168796Y100508D01*
X169360Y100941D01*
X169793Y101505D01*
X170065Y102162D01*
X170548Y102075D01*
Y72026D01*
X170443Y71945D01*
X170029Y71406D01*
X169770Y70779D01*
X169720Y70399D01*
X169192Y70220D01*
X167152Y72260D01*
X166589Y72635D01*
X165926Y72767D01*
X161825D01*
X161744Y72873D01*
X161206Y73286D01*
X160579Y73546D01*
X159906Y73634D01*
X159233Y73546D01*
X158606Y73286D01*
X158067Y72873D01*
X157654Y72334D01*
X157394Y71707D01*
X157305Y71034D01*
X157394Y70361D01*
X157654Y69734D01*
X158067Y69195D01*
X158606Y68782D01*
X159233Y68522D01*
X159906Y68434D01*
X160579Y68522D01*
X161206Y68782D01*
X161744Y69195D01*
X161825Y69301D01*
X165208D01*
X169013Y65496D01*
X168698Y65085D01*
X168438Y64458D01*
X168349Y63785D01*
X168438Y63112D01*
X168698Y62485D01*
X169111Y61946D01*
X169649Y61533D01*
X170276Y61273D01*
X170949Y61184D01*
X171622Y61273D01*
X172249Y61533D01*
X172788Y61946D01*
X173201Y62485D01*
X173267Y62643D01*
X173767Y62543D01*
Y50806D01*
X173899Y50143D01*
X174274Y49580D01*
X177580Y46274D01*
X178143Y45899D01*
X178806Y45767D01*
X254055D01*
X254718Y45899D01*
X255280Y46274D01*
X258585Y49579D01*
X258585Y49579D01*
X258961Y50141D01*
X259024Y50458D01*
X259575Y50665D01*
X259956Y50373D01*
X260966Y49954D01*
X262050Y49811D01*
X263134Y49954D01*
X264144Y50373D01*
X265012Y51038D01*
X265677Y51906D01*
X266096Y52916D01*
X266239Y54000D01*
X266096Y55084D01*
X265677Y56094D01*
X265012Y56962D01*
X264144Y57627D01*
X263134Y58046D01*
X262050Y58189D01*
X260966Y58046D01*
X259956Y57627D01*
X259541Y57309D01*
X259093Y57530D01*
Y60470D01*
X259541Y60691D01*
X259956Y60373D01*
X260966Y59954D01*
X262050Y59811D01*
X263134Y59954D01*
X264144Y60373D01*
X265012Y61038D01*
X265677Y61906D01*
X266096Y62916D01*
X266239Y64000D01*
X266096Y65084D01*
X265677Y66094D01*
X265012Y66962D01*
X264144Y67627D01*
X263134Y68046D01*
X262050Y68189D01*
X260966Y68046D01*
X259956Y67627D01*
X259541Y67309D01*
X259093Y67531D01*
Y77756D01*
X259032Y78060D01*
X259471Y78419D01*
X259968Y78213D01*
X260898Y78091D01*
X261828Y78213D01*
X262694Y78572D01*
X263438Y79143D01*
X264009Y79887D01*
X264035Y79950D01*
X268646D01*
X268695Y79451D01*
X268448Y79401D01*
X267674Y78884D01*
X267156Y78109D01*
X266975Y77196D01*
Y75542D01*
X267156Y74628D01*
X267674Y73854D01*
X268448Y73336D01*
X269362Y73154D01*
X270276Y73336D01*
X271051Y73854D01*
X271568Y74628D01*
X271750Y75542D01*
Y77196D01*
X271568Y78109D01*
X271051Y78884D01*
X270276Y79401D01*
X270029Y79451D01*
X270079Y79950D01*
X274689D01*
X274715Y79887D01*
X275286Y79143D01*
X276030Y78572D01*
X276897Y78213D01*
X277827Y78091D01*
X278757Y78213D01*
X279623Y78572D01*
X279745Y78666D01*
X280194Y78445D01*
Y40306D01*
X23806D01*
Y366694D01*
X280194D01*
Y189234D01*
D02*
G37*
G36*
Y116277D02*
Y103821D01*
X279745Y103600D01*
X279623Y103693D01*
X278757Y104052D01*
X277827Y104174D01*
X276897Y104052D01*
X276030Y103693D01*
X275286Y103122D01*
X274715Y102378D01*
X274689Y102315D01*
X274576D01*
X274576Y102315D01*
X273912Y102183D01*
X273350Y101807D01*
X272225Y100682D01*
X271849Y100120D01*
X271717Y99457D01*
Y83417D01*
X266102D01*
Y99651D01*
X266102Y99651D01*
X265969Y100315D01*
X265594Y100877D01*
X265594Y100877D01*
X264664Y101807D01*
X264102Y102183D01*
X264089Y102185D01*
X264009Y102378D01*
X263438Y103122D01*
X262694Y103693D01*
X261828Y104052D01*
X260898Y104174D01*
X259968Y104052D01*
X259101Y103693D01*
X258485Y103220D01*
X257985Y103402D01*
Y112346D01*
X258031Y112381D01*
X258444Y112920D01*
X258704Y113547D01*
X258792Y114220D01*
X258704Y114893D01*
X258444Y115520D01*
X258196Y115843D01*
X258442Y116343D01*
X279067D01*
X279681Y116465D01*
X279753Y116513D01*
X280194Y116277D01*
D02*
G37*
G36*
X189558Y115943D02*
Y90345D01*
X189690Y89681D01*
X190066Y89119D01*
X195799Y83386D01*
X195607Y82924D01*
X192051D01*
X191678Y83424D01*
X191729Y83809D01*
X191640Y84482D01*
X191380Y85110D01*
X190967Y85648D01*
X190428Y86061D01*
X189801Y86321D01*
X189128Y86410D01*
X188479Y86324D01*
X188351Y86325D01*
X187979Y86574D01*
Y93208D01*
X187979Y93208D01*
X187847Y93872D01*
X187471Y94434D01*
X187471Y94434D01*
X186922Y94983D01*
Y108130D01*
X186922Y108130D01*
X186903Y108229D01*
Y110206D01*
X186922Y110305D01*
X186922Y110305D01*
Y113961D01*
X189096Y116134D01*
X189558Y115943D01*
D02*
G37*
G36*
X198064Y76179D02*
Y70521D01*
X195971Y68428D01*
X195596Y67866D01*
X195528Y67527D01*
X194993Y67402D01*
X194867Y67567D01*
X194042Y68200D01*
X193081Y68598D01*
X192050Y68734D01*
X191019Y68598D01*
X190058Y68200D01*
X189233Y67567D01*
X188600Y66742D01*
X188202Y65781D01*
X188066Y64750D01*
Y63250D01*
X188202Y62219D01*
X188600Y61258D01*
X189233Y60433D01*
X190058Y59800D01*
X191019Y59402D01*
X192050Y59266D01*
X193081Y59402D01*
X194042Y59800D01*
X194867Y60433D01*
X194990Y60593D01*
X195464Y60432D01*
Y58772D01*
X195596Y58109D01*
X195971Y57546D01*
X198130Y55388D01*
X198004Y55084D01*
X197861Y54000D01*
X198004Y52916D01*
X198423Y51906D01*
X198691Y51556D01*
X198470Y51107D01*
X195630D01*
X195409Y51556D01*
X195677Y51906D01*
X196096Y52916D01*
X196239Y54000D01*
X196096Y55084D01*
X195677Y56094D01*
X195012Y56962D01*
X194144Y57627D01*
X193134Y58046D01*
X192050Y58189D01*
X190966Y58046D01*
X189956Y57627D01*
X189088Y56962D01*
X188423Y56094D01*
X188004Y55084D01*
X187861Y54000D01*
X188004Y52916D01*
X188423Y51906D01*
X188691Y51556D01*
X188470Y51107D01*
X185630D01*
X185409Y51556D01*
X185677Y51906D01*
X186096Y52916D01*
X186239Y54000D01*
X186096Y55084D01*
X185677Y56094D01*
X185012Y56962D01*
X184144Y57627D01*
X183134Y58046D01*
X182050Y58189D01*
X180966Y58046D01*
X179956Y57627D01*
X179682Y57417D01*
X179233Y57638D01*
Y76495D01*
X179869Y77130D01*
X180331Y76939D01*
Y69847D01*
X188636D01*
Y77643D01*
X196600D01*
X198064Y76179D01*
D02*
G37*
%LPC*%
G36*
X101153Y357653D02*
X92847D01*
Y349347D01*
X101153D01*
Y357653D01*
D02*
G37*
G36*
X197000Y357689D02*
X195916Y357546D01*
X194906Y357127D01*
X194038Y356462D01*
X193373Y355594D01*
X192954Y354584D01*
X192811Y353500D01*
X192954Y352416D01*
X193373Y351406D01*
X194038Y350538D01*
X194906Y349873D01*
X195916Y349454D01*
X197000Y349311D01*
X198084Y349454D01*
X199094Y349873D01*
X199962Y350538D01*
X200627Y351406D01*
X201046Y352416D01*
X201189Y353500D01*
X201046Y354584D01*
X200627Y355594D01*
X199962Y356462D01*
X199094Y357127D01*
X198084Y357546D01*
X197000Y357689D01*
D02*
G37*
G36*
X107000D02*
X105916Y357546D01*
X104906Y357127D01*
X104038Y356462D01*
X103373Y355594D01*
X102954Y354584D01*
X102811Y353500D01*
X102954Y352416D01*
X103373Y351406D01*
X104038Y350538D01*
X104906Y349873D01*
X105916Y349454D01*
X107000Y349311D01*
X108084Y349454D01*
X109094Y349873D01*
X109962Y350538D01*
X110627Y351406D01*
X111046Y352416D01*
X111189Y353500D01*
X111046Y354584D01*
X110627Y355594D01*
X109962Y356462D01*
X109094Y357127D01*
X108084Y357546D01*
X107000Y357689D01*
D02*
G37*
G36*
X250430Y350748D02*
X248998Y350607D01*
X247622Y350189D01*
X246353Y349511D01*
X245241Y348599D01*
X244329Y347487D01*
X243651Y346218D01*
X243233Y344842D01*
X243092Y343410D01*
X243233Y341979D01*
X243651Y340602D01*
X244329Y339333D01*
X245241Y338222D01*
X246353Y337309D01*
X247622Y336631D01*
X248998Y336213D01*
X250430Y336072D01*
X251862Y336213D01*
X253238Y336631D01*
X254507Y337309D01*
X255619Y338222D01*
X256531Y339333D01*
X257209Y340602D01*
X257627Y341979D01*
X257768Y343410D01*
X257627Y344842D01*
X257209Y346218D01*
X256531Y347487D01*
X255619Y348599D01*
X254507Y349511D01*
X253238Y350189D01*
X251862Y350607D01*
X250430Y350748D01*
D02*
G37*
G36*
X53570D02*
X52139Y350607D01*
X50762Y350189D01*
X49493Y349511D01*
X48382Y348599D01*
X47469Y347487D01*
X46791Y346218D01*
X46373Y344842D01*
X46232Y343410D01*
X46373Y341979D01*
X46791Y340602D01*
X47469Y339333D01*
X48382Y338222D01*
X49493Y337309D01*
X50762Y336631D01*
X52139Y336213D01*
X53570Y336072D01*
X55001Y336213D01*
X56378Y336631D01*
X57647Y337309D01*
X58758Y338222D01*
X59671Y339333D01*
X60349Y340602D01*
X60767Y341979D01*
X60908Y343410D01*
X60767Y344842D01*
X60349Y346218D01*
X59671Y347487D01*
X58758Y348599D01*
X57647Y349511D01*
X56378Y350189D01*
X55001Y350607D01*
X53570Y350748D01*
D02*
G37*
G36*
X187000Y357689D02*
X185916Y357546D01*
X184906Y357127D01*
X184038Y356462D01*
X183373Y355594D01*
X182954Y354584D01*
X182811Y353500D01*
X182954Y352416D01*
X183373Y351406D01*
X184038Y350538D01*
X184906Y349873D01*
X185267Y349723D01*
Y344142D01*
X185399Y343478D01*
X185774Y342916D01*
X190394Y338297D01*
Y329845D01*
X188777Y328228D01*
X181941D01*
X181749Y328690D01*
X183581Y330521D01*
X183581Y330521D01*
X183957Y331084D01*
X184089Y331747D01*
X184089Y331747D01*
Y348145D01*
X183957Y348808D01*
X183581Y349370D01*
X183581Y349370D01*
X180896Y352055D01*
X181046Y352416D01*
X181189Y353500D01*
X181046Y354584D01*
X180627Y355594D01*
X179962Y356462D01*
X179094Y357127D01*
X178084Y357546D01*
X177000Y357689D01*
X175916Y357546D01*
X174906Y357127D01*
X174038Y356462D01*
X173373Y355594D01*
X172954Y354584D01*
X172811Y353500D01*
X172954Y352416D01*
X173373Y351406D01*
X174038Y350538D01*
X174906Y349873D01*
X175916Y349454D01*
X177000Y349311D01*
X178084Y349454D01*
X178445Y349604D01*
X180622Y347427D01*
Y336514D01*
X180148Y336353D01*
X180001Y336545D01*
X179134Y337211D01*
X178123Y337629D01*
X177039Y337772D01*
X175955Y337629D01*
X174945Y337211D01*
X174233Y336664D01*
X173733Y336872D01*
Y348500D01*
X173601Y349163D01*
X173226Y349726D01*
X170896Y352055D01*
X171046Y352416D01*
X171189Y353500D01*
X171046Y354584D01*
X170627Y355594D01*
X169962Y356462D01*
X169094Y357127D01*
X168084Y357546D01*
X167000Y357689D01*
X165916Y357546D01*
X164906Y357127D01*
X164038Y356462D01*
X163373Y355594D01*
X162954Y354584D01*
X162811Y353500D01*
X162954Y352416D01*
X163373Y351406D01*
X164038Y350538D01*
X164906Y349873D01*
X165916Y349454D01*
X167000Y349311D01*
X168084Y349454D01*
X168445Y349604D01*
X170267Y347782D01*
Y336971D01*
X169767Y336725D01*
X169134Y337211D01*
X168123Y337629D01*
X167039Y337772D01*
X165955Y337629D01*
X164945Y337211D01*
X164233Y336664D01*
X163733Y336872D01*
Y348500D01*
X163601Y349163D01*
X163226Y349726D01*
X160896Y352055D01*
X161046Y352416D01*
X161189Y353500D01*
X161046Y354584D01*
X160627Y355594D01*
X159962Y356462D01*
X159094Y357127D01*
X158084Y357546D01*
X157000Y357689D01*
X155916Y357546D01*
X154906Y357127D01*
X154038Y356462D01*
X153373Y355594D01*
X152954Y354584D01*
X152811Y353500D01*
X152954Y352416D01*
X153373Y351406D01*
X154038Y350538D01*
X154906Y349873D01*
X155916Y349454D01*
X157000Y349311D01*
X158084Y349454D01*
X158445Y349604D01*
X160267Y347782D01*
Y336971D01*
X159767Y336725D01*
X159134Y337211D01*
X158124Y337629D01*
X157039Y337772D01*
X155955Y337629D01*
X154945Y337211D01*
X154078Y336545D01*
X153412Y335677D01*
X152994Y334667D01*
X152851Y333583D01*
X152994Y332499D01*
X153412Y331489D01*
X154078Y330621D01*
X154945Y329956D01*
X154950Y329954D01*
X154850Y329454D01*
X149228D01*
X149129Y329954D01*
X149134Y329956D01*
X150001Y330621D01*
X150667Y331489D01*
X151085Y332499D01*
X151228Y333583D01*
X151085Y334667D01*
X150667Y335677D01*
X150001Y336545D01*
X149134Y337211D01*
X148124Y337629D01*
X147039Y337772D01*
X145955Y337629D01*
X144945Y337211D01*
X144078Y336545D01*
X143412Y335677D01*
X142993Y334667D01*
X142851Y333583D01*
X142993Y332499D01*
X143412Y331489D01*
X144078Y330621D01*
X144945Y329956D01*
X144950Y329954D01*
X144850Y329454D01*
X135316D01*
X133632Y331138D01*
Y343988D01*
X136104Y346460D01*
X141693D01*
X142356Y346592D01*
X142919Y346967D01*
X145555Y349604D01*
X145916Y349454D01*
X147000Y349311D01*
X148084Y349454D01*
X149094Y349873D01*
X149962Y350538D01*
X150627Y351406D01*
X151046Y352416D01*
X151189Y353500D01*
X151046Y354584D01*
X150627Y355594D01*
X149962Y356462D01*
X149094Y357127D01*
X148084Y357546D01*
X147000Y357689D01*
X145916Y357546D01*
X144906Y357127D01*
X144038Y356462D01*
X143373Y355594D01*
X142954Y354584D01*
X142811Y353500D01*
X142954Y352416D01*
X143104Y352055D01*
X140975Y349926D01*
X139942D01*
X139781Y350400D01*
X139962Y350538D01*
X140627Y351406D01*
X141046Y352416D01*
X141189Y353500D01*
X141046Y354584D01*
X140627Y355594D01*
X139962Y356462D01*
X139094Y357127D01*
X138084Y357546D01*
X137000Y357689D01*
X135916Y357546D01*
X134906Y357127D01*
X134038Y356462D01*
X133373Y355594D01*
X132954Y354584D01*
X132811Y353500D01*
X132954Y352416D01*
X133104Y352055D01*
X129195Y348147D01*
X128733Y348338D01*
Y349723D01*
X129094Y349873D01*
X129962Y350538D01*
X130627Y351406D01*
X131046Y352416D01*
X131189Y353500D01*
X131046Y354584D01*
X130627Y355594D01*
X129962Y356462D01*
X129094Y357127D01*
X128084Y357546D01*
X127000Y357689D01*
X125916Y357546D01*
X124906Y357127D01*
X124038Y356462D01*
X123373Y355594D01*
X122954Y354584D01*
X122811Y353500D01*
X122954Y352416D01*
X123373Y351406D01*
X124038Y350538D01*
X124906Y349873D01*
X125267Y349723D01*
Y348338D01*
X124805Y348147D01*
X120896Y352055D01*
X121046Y352416D01*
X121189Y353500D01*
X121046Y354584D01*
X120627Y355594D01*
X119962Y356462D01*
X119094Y357127D01*
X118084Y357546D01*
X117000Y357689D01*
X115916Y357546D01*
X114906Y357127D01*
X114038Y356462D01*
X113373Y355594D01*
X112954Y354584D01*
X112811Y353500D01*
X112954Y352416D01*
X113373Y351406D01*
X114038Y350538D01*
X114906Y349873D01*
X115916Y349454D01*
X117000Y349311D01*
X118084Y349454D01*
X118445Y349604D01*
X122767Y345282D01*
Y331288D01*
X122305Y331097D01*
X118743Y334659D01*
X118180Y335034D01*
X117517Y335166D01*
X113972D01*
X113891Y335272D01*
X113353Y335685D01*
X112726Y335945D01*
X112053Y336033D01*
X111380Y335945D01*
X110753Y335685D01*
X110214Y335272D01*
X109801Y334733D01*
X109541Y334106D01*
X109453Y333433D01*
X109541Y332760D01*
X109801Y332133D01*
X110214Y331594D01*
X110753Y331181D01*
X111380Y330922D01*
X112053Y330833D01*
X112726Y330922D01*
X113353Y331181D01*
X113891Y331594D01*
X113972Y331700D01*
X116799D01*
X129484Y319015D01*
X130047Y318639D01*
X130710Y318507D01*
X153481D01*
X156091Y315897D01*
Y302801D01*
X154510Y301220D01*
X154048Y301412D01*
Y302111D01*
X154154Y302191D01*
X154567Y302730D01*
X154827Y303357D01*
X154915Y304030D01*
X154827Y304703D01*
X154567Y305330D01*
X154179Y305836D01*
X154567Y306342D01*
X154827Y306969D01*
X154915Y307642D01*
X154827Y308315D01*
X154567Y308942D01*
X154154Y309480D01*
X153615Y309894D01*
X152988Y310153D01*
X152315Y310242D01*
X151642Y310153D01*
X151015Y309894D01*
X150476Y309480D01*
X150396Y309375D01*
X149953D01*
X149289Y309243D01*
X148727Y308867D01*
X147361Y307501D01*
X146985Y306939D01*
X146853Y306276D01*
Y299305D01*
X145695Y298147D01*
X145233Y298338D01*
Y303107D01*
X145101Y303770D01*
X144726Y304333D01*
X140333Y308726D01*
X139770Y309101D01*
X139107Y309233D01*
X136718D01*
X133896Y312055D01*
X134046Y312416D01*
X134189Y313500D01*
X134046Y314584D01*
X133627Y315594D01*
X132962Y316462D01*
X132094Y317127D01*
X131084Y317546D01*
X130000Y317689D01*
X128916Y317546D01*
X127906Y317127D01*
X127038Y316462D01*
X126373Y315594D01*
X125954Y314584D01*
X125811Y313500D01*
X125954Y312416D01*
X126373Y311406D01*
X127038Y310538D01*
X127906Y309873D01*
X128916Y309454D01*
X130000Y309311D01*
X131084Y309454D01*
X131445Y309604D01*
X133771Y307278D01*
X133580Y306816D01*
X124135D01*
X121733Y309218D01*
Y309723D01*
X122094Y309873D01*
X122962Y310538D01*
X123627Y311406D01*
X124046Y312416D01*
X124189Y313500D01*
X124046Y314584D01*
X123627Y315594D01*
X122962Y316462D01*
X122094Y317127D01*
X121084Y317546D01*
X120000Y317689D01*
X118916Y317546D01*
X117906Y317127D01*
X117038Y316462D01*
X116373Y315594D01*
X115954Y314584D01*
X115811Y313500D01*
X115954Y312416D01*
X116373Y311406D01*
X117038Y310538D01*
X117906Y309873D01*
X118267Y309723D01*
Y308500D01*
X118399Y307837D01*
X118774Y307274D01*
X122192Y303857D01*
X122754Y303481D01*
X123417Y303349D01*
X131219D01*
X131482Y302849D01*
X131299Y302409D01*
X131211Y301736D01*
X131299Y301063D01*
X131559Y300436D01*
X131767Y300166D01*
Y240894D01*
X131899Y240230D01*
X132274Y239668D01*
X133892Y238050D01*
X133713Y237523D01*
X133630Y237512D01*
X133003Y237252D01*
X132465Y236839D01*
X132051Y236300D01*
X131792Y235673D01*
X131703Y235000D01*
X131792Y234327D01*
X132051Y233700D01*
X132465Y233161D01*
X132585Y233069D01*
X132658Y232386D01*
X132607Y232326D01*
X132500Y232340D01*
X131827Y232251D01*
X131200Y231991D01*
X130661Y231578D01*
X130248Y231040D01*
X129988Y230412D01*
X129900Y229739D01*
X129988Y229066D01*
X130248Y228439D01*
X130661Y227901D01*
X131200Y227488D01*
X131827Y227228D01*
X132500Y227139D01*
X133173Y227228D01*
X133800Y227488D01*
X134339Y227901D01*
X134752Y228439D01*
X134885Y228760D01*
X135385Y228661D01*
Y226252D01*
X134969Y225974D01*
X134878Y226012D01*
X134205Y226100D01*
X133532Y226012D01*
X132905Y225752D01*
X132366Y225339D01*
X131953Y224800D01*
X131693Y224173D01*
X131605Y223500D01*
X131622Y223368D01*
X130223Y221970D01*
X129848Y221407D01*
X129716Y220744D01*
Y213516D01*
X129848Y212853D01*
X130223Y212290D01*
X150402Y192111D01*
X150246Y191560D01*
X149834Y191390D01*
X149617Y191223D01*
X149520Y191217D01*
X149029Y191402D01*
X148858Y191816D01*
X148444Y192354D01*
X147906Y192768D01*
X147279Y193027D01*
X146606Y193116D01*
X145933Y193027D01*
X145306Y192768D01*
X144767Y192354D01*
X144354Y191816D01*
X144094Y191189D01*
X144006Y190516D01*
X144094Y189843D01*
X144354Y189216D01*
X144767Y188677D01*
X145306Y188264D01*
X145933Y188004D01*
X146606Y187916D01*
X147279Y188004D01*
X147906Y188264D01*
X148123Y188430D01*
X148219Y188437D01*
X148711Y188251D01*
X148882Y187838D01*
X149295Y187299D01*
X149834Y186886D01*
X150461Y186626D01*
X151134Y186538D01*
X151807Y186626D01*
X152434Y186886D01*
X152972Y187299D01*
X153386Y187838D01*
X153556Y188250D01*
X154107Y188406D01*
X154239Y188274D01*
X154801Y187899D01*
X155465Y187767D01*
X174735D01*
X193487Y169015D01*
X193517Y168831D01*
X193493Y168800D01*
X193234Y168173D01*
X193145Y167500D01*
X193234Y166827D01*
X193493Y166200D01*
X193906Y165661D01*
X194445Y165248D01*
X195072Y164988D01*
X195745Y164900D01*
X196418Y164988D01*
X197045Y165248D01*
X197584Y165661D01*
X197997Y166200D01*
X198257Y166827D01*
X198345Y167500D01*
X198278Y168007D01*
X198597Y168507D01*
X205858D01*
X206522Y168639D01*
X207084Y169015D01*
X229226Y191156D01*
X229226Y191156D01*
X229601Y191719D01*
X229674Y192083D01*
X229801Y192274D01*
X229933Y192937D01*
Y207612D01*
X232281Y209960D01*
X232657Y210522D01*
X232788Y211185D01*
Y220092D01*
X232894Y220173D01*
X233307Y220712D01*
X233567Y221339D01*
X233655Y222012D01*
X233567Y222685D01*
X233307Y223312D01*
X232894Y223850D01*
X232788Y223931D01*
Y226866D01*
X232894Y226947D01*
X233267Y227433D01*
X233446Y227427D01*
X233767Y227292D01*
Y224535D01*
X233899Y223872D01*
X234274Y223310D01*
X246251Y211333D01*
Y202480D01*
X246293Y202267D01*
X245883Y201767D01*
X235638D01*
X234975Y201635D01*
X234413Y201259D01*
X234051Y200897D01*
X233700Y200752D01*
X233161Y200339D01*
X232748Y199800D01*
X232488Y199173D01*
X232400Y198500D01*
X232488Y197827D01*
X232748Y197200D01*
X233161Y196661D01*
X233700Y196248D01*
X234327Y195988D01*
X235000Y195900D01*
X235673Y195988D01*
X236300Y196248D01*
X236839Y196661D01*
X237252Y197200D01*
X237512Y197827D01*
X237574Y198300D01*
X242719D01*
X242966Y197800D01*
X242853Y197653D01*
X242594Y197026D01*
X242505Y196353D01*
X242594Y195680D01*
X242853Y195053D01*
X243267Y194515D01*
X243805Y194101D01*
X244432Y193842D01*
X245105Y193753D01*
X245660Y193826D01*
X245958Y193767D01*
X245958Y193767D01*
X249140D01*
X249803Y193899D01*
X250365Y194274D01*
X252073Y195982D01*
X252448Y196544D01*
X252580Y197207D01*
Y199618D01*
X252448Y200281D01*
X252073Y200844D01*
X249717Y203198D01*
Y212051D01*
X249718Y212051D01*
X249586Y212715D01*
X249210Y213277D01*
X239980Y222507D01*
X240103Y223091D01*
X240434Y223229D01*
X240972Y223642D01*
X241386Y224180D01*
X241646Y224807D01*
X241734Y225480D01*
X241646Y226153D01*
X241386Y226780D01*
X240972Y227319D01*
X240434Y227732D01*
X239807Y227992D01*
X239134Y228081D01*
X238461Y227992D01*
X237834Y227732D01*
X237733Y227655D01*
X237233Y227902D01*
Y230000D01*
X237101Y230663D01*
X236726Y231226D01*
X234726Y233226D01*
X234163Y233601D01*
X233500Y233733D01*
X227500D01*
X226837Y233601D01*
X226274Y233226D01*
X224950Y231902D01*
X224574Y232232D01*
X224645Y232326D01*
X224905Y232953D01*
X224994Y233626D01*
X224905Y234299D01*
X224645Y234926D01*
X224232Y235464D01*
X223694Y235878D01*
X223067Y236137D01*
X222394Y236226D01*
X221721Y236137D01*
X221094Y235878D01*
X220555Y235464D01*
X220142Y234926D01*
X219882Y234299D01*
X219794Y233626D01*
X219882Y232953D01*
X220142Y232326D01*
X220555Y231787D01*
X221094Y231374D01*
X221721Y231114D01*
X222394Y231026D01*
X223067Y231114D01*
X223694Y231374D01*
X223788Y231446D01*
X224118Y231069D01*
X223274Y230226D01*
X222899Y229663D01*
X222767Y229000D01*
Y225218D01*
X220195Y222646D01*
X219733Y222838D01*
Y223193D01*
X219601Y223856D01*
X219226Y224418D01*
X206411Y237234D01*
Y242337D01*
X206516Y242417D01*
X206929Y242956D01*
X207189Y243583D01*
X207277Y244256D01*
X207742Y244560D01*
X208273Y244630D01*
X208900Y244889D01*
X209438Y245303D01*
X209852Y245841D01*
X210111Y246468D01*
X210200Y247141D01*
X210111Y247814D01*
X209852Y248441D01*
X209438Y248980D01*
X208900Y249393D01*
X208273Y249653D01*
X207600Y249741D01*
X206927Y249653D01*
X206300Y249393D01*
X205761Y248980D01*
X205348Y248441D01*
X205088Y247814D01*
X204999Y247141D01*
X204535Y246837D01*
X204004Y246767D01*
X203377Y246508D01*
X202839Y246094D01*
X202425Y245556D01*
X202166Y244929D01*
X202077Y244256D01*
X202166Y243583D01*
X202425Y242956D01*
X202839Y242417D01*
X202944Y242337D01*
Y236516D01*
X203076Y235852D01*
X203451Y235290D01*
X210546Y228195D01*
X210355Y227733D01*
X202373D01*
X202074Y228233D01*
X202147Y228785D01*
X202058Y229458D01*
X201799Y230085D01*
X201385Y230624D01*
X200847Y231037D01*
X200220Y231297D01*
X199547Y231386D01*
X198874Y231297D01*
X198247Y231037D01*
X197708Y230624D01*
X197295Y230085D01*
X197035Y229458D01*
X196947Y228785D01*
X197019Y228233D01*
X196721Y227733D01*
X195057D01*
X194888Y228233D01*
X194902Y228244D01*
X195315Y228783D01*
X195575Y229410D01*
X195663Y230083D01*
X195575Y230756D01*
X195315Y231383D01*
X194902Y231921D01*
X194363Y232334D01*
X193736Y232594D01*
X193063Y232683D01*
X192390Y232594D01*
X191763Y232334D01*
X191224Y231921D01*
X190811Y231383D01*
X190551Y230756D01*
X190545Y230709D01*
X190036Y230573D01*
X189994Y230606D01*
X189980Y230624D01*
X189737Y230811D01*
X189659Y230873D01*
Y244460D01*
X190159Y244851D01*
X190504Y244805D01*
X191177Y244894D01*
X191420Y244995D01*
X191920Y244661D01*
Y243813D01*
X191815Y243732D01*
X191402Y243194D01*
X191142Y242567D01*
X191053Y241894D01*
X191142Y241221D01*
X191402Y240594D01*
X191815Y240055D01*
X192353Y239642D01*
X192981Y239382D01*
X193654Y239294D01*
X194326Y239382D01*
X194954Y239642D01*
X195492Y240055D01*
X195905Y240594D01*
X196165Y241221D01*
X196254Y241894D01*
X196165Y242567D01*
X196057Y242827D01*
X196410Y243282D01*
X196803Y243230D01*
X197476Y243319D01*
X198103Y243579D01*
X198641Y243992D01*
X199055Y244530D01*
X199314Y245157D01*
X199403Y245830D01*
X199314Y246503D01*
X199055Y247130D01*
X198641Y247669D01*
X198536Y247750D01*
Y248193D01*
X198404Y248857D01*
X198028Y249419D01*
X187244Y260203D01*
Y295354D01*
X187233Y295409D01*
Y295717D01*
X187101Y296380D01*
X186726Y296942D01*
X175308Y308360D01*
Y309001D01*
X183318D01*
Y317306D01*
X175308D01*
Y324109D01*
X175961Y324762D01*
X189495D01*
X190158Y324893D01*
X190720Y325269D01*
X193353Y327902D01*
X193728Y328464D01*
X193860Y329127D01*
X193860Y329127D01*
Y339015D01*
X193728Y339678D01*
X193353Y340240D01*
X188733Y344860D01*
Y349723D01*
X189094Y349873D01*
X189962Y350538D01*
X190627Y351406D01*
X191046Y352416D01*
X191189Y353500D01*
X191046Y354584D01*
X190627Y355594D01*
X189962Y356462D01*
X189094Y357127D01*
X188084Y357546D01*
X187000Y357689D01*
D02*
G37*
G36*
X94153Y317653D02*
X85847D01*
Y309347D01*
X94153D01*
Y317653D01*
D02*
G37*
G36*
X110000Y317689D02*
X108916Y317546D01*
X107906Y317127D01*
X107038Y316462D01*
X106373Y315594D01*
X105954Y314584D01*
X105811Y313500D01*
X105954Y312416D01*
X106373Y311406D01*
X107038Y310538D01*
X107906Y309873D01*
X108916Y309454D01*
X110000Y309311D01*
X111084Y309454D01*
X112094Y309873D01*
X112962Y310538D01*
X113627Y311406D01*
X114046Y312416D01*
X114189Y313500D01*
X114046Y314584D01*
X113627Y315594D01*
X112962Y316462D01*
X112094Y317127D01*
X111084Y317546D01*
X110000Y317689D01*
D02*
G37*
G36*
X100000D02*
X98916Y317546D01*
X97906Y317127D01*
X97038Y316462D01*
X96373Y315594D01*
X95954Y314584D01*
X95811Y313500D01*
X95954Y312416D01*
X96373Y311406D01*
X97038Y310538D01*
X97906Y309873D01*
X98916Y309454D01*
X100000Y309311D01*
X101084Y309454D01*
X102094Y309873D01*
X102962Y310538D01*
X103627Y311406D01*
X104046Y312416D01*
X104189Y313500D01*
X104046Y314584D01*
X103627Y315594D01*
X102962Y316462D01*
X102094Y317127D01*
X101084Y317546D01*
X100000Y317689D01*
D02*
G37*
G36*
X219165Y317342D02*
X218081Y317199D01*
X217071Y316781D01*
X216204Y316115D01*
X215538Y315248D01*
X215120Y314238D01*
X214977Y313154D01*
X215120Y312070D01*
X215538Y311059D01*
X216204Y310192D01*
X217071Y309526D01*
X218081Y309108D01*
X219165Y308965D01*
X220249Y309108D01*
X221260Y309526D01*
X222127Y310192D01*
X222793Y311059D01*
X223211Y312070D01*
X223354Y313154D01*
X223211Y314238D01*
X222793Y315248D01*
X222127Y316115D01*
X221260Y316781D01*
X220249Y317199D01*
X219165Y317342D01*
D02*
G37*
G36*
X209165D02*
X208081Y317199D01*
X207071Y316781D01*
X206204Y316115D01*
X205538Y315248D01*
X205119Y314238D01*
X204977Y313154D01*
X205119Y312070D01*
X205538Y311059D01*
X206204Y310192D01*
X207071Y309526D01*
X208081Y309108D01*
X209165Y308965D01*
X210249Y309108D01*
X211260Y309526D01*
X212127Y310192D01*
X212793Y311059D01*
X213211Y312070D01*
X213354Y313154D01*
X213211Y314238D01*
X212793Y315248D01*
X212127Y316115D01*
X211260Y316781D01*
X210249Y317199D01*
X209165Y317342D01*
D02*
G37*
G36*
X199165D02*
X198081Y317199D01*
X197071Y316781D01*
X196204Y316115D01*
X195538Y315248D01*
X195120Y314238D01*
X194977Y313154D01*
X195120Y312070D01*
X195538Y311059D01*
X196204Y310192D01*
X197071Y309526D01*
X198081Y309108D01*
X199165Y308965D01*
X200249Y309108D01*
X201260Y309526D01*
X202127Y310192D01*
X202793Y311059D01*
X203211Y312070D01*
X203354Y313154D01*
X203211Y314238D01*
X202793Y315248D01*
X202127Y316115D01*
X201260Y316781D01*
X200249Y317199D01*
X199165Y317342D01*
D02*
G37*
G36*
X189165D02*
X188081Y317199D01*
X187071Y316781D01*
X186204Y316115D01*
X185538Y315248D01*
X185119Y314238D01*
X184977Y313154D01*
X185119Y312070D01*
X185538Y311059D01*
X186204Y310192D01*
X187071Y309526D01*
X188081Y309108D01*
X189165Y308965D01*
X190249Y309108D01*
X191260Y309526D01*
X192127Y310192D01*
X192793Y311059D01*
X193211Y312070D01*
X193354Y313154D01*
X193211Y314238D01*
X192793Y315248D01*
X192127Y316115D01*
X191260Y316781D01*
X190249Y317199D01*
X189165Y317342D01*
D02*
G37*
G36*
X250430Y323189D02*
X248998Y323048D01*
X247622Y322630D01*
X246353Y321952D01*
X245241Y321040D01*
X244329Y319928D01*
X243651Y318659D01*
X243233Y317283D01*
X243092Y315851D01*
X243233Y314419D01*
X243651Y313043D01*
X244329Y311774D01*
X245241Y310662D01*
X246353Y309750D01*
X247622Y309072D01*
X248998Y308654D01*
X250430Y308513D01*
X251862Y308654D01*
X253238Y309072D01*
X254507Y309750D01*
X255619Y310662D01*
X256531Y311774D01*
X257209Y313043D01*
X257627Y314419D01*
X257768Y315851D01*
X257627Y317283D01*
X257209Y318659D01*
X256531Y319928D01*
X255619Y321040D01*
X254507Y321952D01*
X253238Y322630D01*
X251862Y323048D01*
X250430Y323189D01*
D02*
G37*
G36*
X53570D02*
X52139Y323048D01*
X50762Y322630D01*
X49493Y321952D01*
X48382Y321040D01*
X47469Y319928D01*
X46791Y318659D01*
X46373Y317283D01*
X46232Y315851D01*
X46373Y314419D01*
X46791Y313043D01*
X47469Y311774D01*
X48382Y310662D01*
X49493Y309750D01*
X50762Y309072D01*
X52139Y308654D01*
X53570Y308513D01*
X55001Y308654D01*
X56378Y309072D01*
X57647Y309750D01*
X58758Y310662D01*
X59671Y311774D01*
X60349Y313043D01*
X60767Y314419D01*
X60908Y315851D01*
X60767Y317283D01*
X60349Y318659D01*
X59671Y319928D01*
X58758Y321040D01*
X57647Y321952D01*
X56378Y322630D01*
X55001Y323048D01*
X53570Y323189D01*
D02*
G37*
G36*
X96803Y303943D02*
X96130Y303854D01*
X95503Y303594D01*
X94964Y303181D01*
X94551Y302643D01*
X94292Y302015D01*
X94203Y301343D01*
X94292Y300670D01*
X94551Y300042D01*
X94964Y299504D01*
X95503Y299091D01*
X96130Y298831D01*
X96803Y298742D01*
X97476Y298831D01*
X98103Y299091D01*
X98642Y299504D01*
X99055Y300042D01*
X99315Y300670D01*
X99403Y301343D01*
X99315Y302015D01*
X99055Y302643D01*
X98642Y303181D01*
X98103Y303594D01*
X97476Y303854D01*
X96803Y303943D01*
D02*
G37*
G36*
X92000Y307040D02*
X91327Y306951D01*
X90700Y306692D01*
X90161Y306278D01*
X89748Y305740D01*
X89488Y305113D01*
X89479Y305041D01*
X89437Y305035D01*
X88810Y304776D01*
X88272Y304362D01*
X87858Y303824D01*
X87599Y303197D01*
X87538Y302737D01*
X87049Y302673D01*
X86422Y302413D01*
X85883Y302000D01*
X85470Y301462D01*
X85210Y300834D01*
X85121Y300161D01*
X85210Y299488D01*
X85470Y298861D01*
X85883Y298323D01*
X86422Y297910D01*
X87049Y297650D01*
X87722Y297561D01*
X88394Y297650D01*
X89022Y297910D01*
X89560Y298323D01*
X89973Y298861D01*
X90233Y299488D01*
X90294Y299948D01*
X90783Y300012D01*
X91410Y300272D01*
X91949Y300685D01*
X92362Y301223D01*
X92622Y301851D01*
X92631Y301923D01*
X92673Y301928D01*
X93300Y302188D01*
X93839Y302601D01*
X94252Y303140D01*
X94512Y303767D01*
X94600Y304440D01*
X94512Y305113D01*
X94252Y305740D01*
X93839Y306278D01*
X93300Y306692D01*
X92673Y306951D01*
X92000Y307040D01*
D02*
G37*
G36*
X83811Y289770D02*
X83138Y289681D01*
X82511Y289421D01*
X81972Y289008D01*
X81559Y288469D01*
X81299Y287842D01*
X81211Y287169D01*
X81299Y286496D01*
X81559Y285869D01*
X81972Y285331D01*
X82511Y284917D01*
X83138Y284658D01*
X83811Y284569D01*
X84484Y284658D01*
X85111Y284917D01*
X85650Y285331D01*
X86063Y285869D01*
X86323Y286496D01*
X86411Y287169D01*
X86323Y287842D01*
X86063Y288469D01*
X85650Y289008D01*
X85111Y289421D01*
X84484Y289681D01*
X83811Y289770D01*
D02*
G37*
G36*
X129153Y292153D02*
X120847D01*
Y283847D01*
X129153D01*
Y292153D01*
D02*
G37*
G36*
X38811Y290947D02*
X37379Y290806D01*
X36003Y290388D01*
X34734Y289710D01*
X33622Y288797D01*
X32710Y287685D01*
X32032Y286417D01*
X31614Y285040D01*
X31473Y283609D01*
X31614Y282177D01*
X32032Y280801D01*
X32710Y279532D01*
X33622Y278420D01*
X34734Y277508D01*
X36003Y276830D01*
X37379Y276412D01*
X38811Y276271D01*
X40242Y276412D01*
X41619Y276830D01*
X42887Y277508D01*
X43999Y278420D01*
X44912Y279532D01*
X45590Y280801D01*
X46007Y282177D01*
X46148Y283609D01*
X46007Y285040D01*
X45590Y286417D01*
X44912Y287685D01*
X43999Y288797D01*
X42887Y289710D01*
X41619Y290388D01*
X40242Y290806D01*
X38811Y290947D01*
D02*
G37*
G36*
X251205Y279623D02*
X250532Y279534D01*
X249905Y279274D01*
X249367Y278861D01*
X248954Y278323D01*
X248694Y277695D01*
X248605Y277023D01*
X248694Y276349D01*
X248954Y275722D01*
X249367Y275184D01*
X249905Y274771D01*
X250532Y274511D01*
X251205Y274422D01*
X251878Y274511D01*
X252505Y274771D01*
X253044Y275184D01*
X253457Y275722D01*
X253717Y276349D01*
X253806Y277023D01*
X253717Y277695D01*
X253457Y278323D01*
X253044Y278861D01*
X252505Y279274D01*
X251878Y279534D01*
X251205Y279623D01*
D02*
G37*
G36*
X125000Y282189D02*
X123916Y282046D01*
X122906Y281627D01*
X122038Y280962D01*
X121373Y280094D01*
X120954Y279084D01*
X120811Y278000D01*
X120954Y276916D01*
X121373Y275906D01*
X122038Y275038D01*
X122906Y274373D01*
X123916Y273954D01*
X125000Y273811D01*
X126084Y273954D01*
X127094Y274373D01*
X127962Y275038D01*
X128627Y275906D01*
X129046Y276916D01*
X129189Y278000D01*
X129046Y279084D01*
X128627Y280094D01*
X127962Y280962D01*
X127094Y281627D01*
X126084Y282046D01*
X125000Y282189D01*
D02*
G37*
G36*
Y272189D02*
X123916Y272046D01*
X122906Y271627D01*
X122038Y270962D01*
X121373Y270094D01*
X120954Y269084D01*
X120811Y268000D01*
X120954Y266916D01*
X121373Y265906D01*
X122038Y265038D01*
X122906Y264373D01*
X123916Y263954D01*
X125000Y263811D01*
X126084Y263954D01*
X127094Y264373D01*
X127962Y265038D01*
X128627Y265906D01*
X129046Y266916D01*
X129189Y268000D01*
X129046Y269084D01*
X128627Y270094D01*
X127962Y270962D01*
X127094Y271627D01*
X126084Y272046D01*
X125000Y272189D01*
D02*
G37*
G36*
X109008Y266147D02*
X108335Y266059D01*
X107708Y265799D01*
X107169Y265386D01*
X106756Y264847D01*
X106496Y264220D01*
X106408Y263547D01*
X106496Y262874D01*
X106756Y262247D01*
X107169Y261709D01*
X107708Y261295D01*
X108335Y261036D01*
X109008Y260947D01*
X109681Y261036D01*
X110308Y261295D01*
X110846Y261709D01*
X111260Y262247D01*
X111520Y262874D01*
X111608Y263547D01*
X111520Y264220D01*
X111260Y264847D01*
X110846Y265386D01*
X110308Y265799D01*
X109681Y266059D01*
X109008Y266147D01*
D02*
G37*
G36*
X37653Y268653D02*
X29347D01*
Y260347D01*
X37653D01*
Y268653D01*
D02*
G37*
G36*
X43500Y268689D02*
X42416Y268546D01*
X41406Y268127D01*
X40538Y267462D01*
X39873Y266594D01*
X39454Y265584D01*
X39311Y264500D01*
X39454Y263416D01*
X39873Y262406D01*
X40538Y261538D01*
X41406Y260873D01*
X42416Y260454D01*
X43500Y260311D01*
X44584Y260454D01*
X45594Y260873D01*
X46462Y261538D01*
X47127Y262406D01*
X47546Y263416D01*
X47689Y264500D01*
X47546Y265584D01*
X47127Y266594D01*
X46462Y267462D01*
X45594Y268127D01*
X44584Y268546D01*
X43500Y268689D01*
D02*
G37*
G36*
X257080Y264573D02*
X256407Y264484D01*
X255780Y264224D01*
X255241Y263811D01*
X254828Y263273D01*
X254568Y262645D01*
X254480Y261972D01*
X254568Y261299D01*
X254828Y260672D01*
X255241Y260134D01*
X255780Y259721D01*
X256407Y259461D01*
X257080Y259372D01*
X257753Y259461D01*
X258380Y259721D01*
X258918Y260134D01*
X259332Y260672D01*
X259592Y261299D01*
X259680Y261972D01*
X259592Y262645D01*
X259332Y263273D01*
X258918Y263811D01*
X258380Y264224D01*
X257753Y264484D01*
X257080Y264573D01*
D02*
G37*
G36*
X238142Y266541D02*
X237469Y266453D01*
X236842Y266193D01*
X236303Y265780D01*
X235890Y265241D01*
X235630Y264614D01*
X235542Y263941D01*
X235630Y263268D01*
X235890Y262641D01*
X236303Y262102D01*
X236510Y261943D01*
Y257942D01*
X236218Y257904D01*
X235591Y257644D01*
X235052Y257231D01*
X234893Y257024D01*
X232983D01*
X232824Y257231D01*
X232285Y257644D01*
X231658Y257904D01*
X230985Y257992D01*
X230312Y257904D01*
X229685Y257644D01*
X229146Y257231D01*
X228733Y256692D01*
X228473Y256065D01*
X228385Y255392D01*
X228473Y254719D01*
X228733Y254092D01*
X229146Y253554D01*
X229685Y253140D01*
X230312Y252881D01*
X230985Y252792D01*
X231658Y252881D01*
X232285Y253140D01*
X232824Y253554D01*
X232983Y253761D01*
X234893D01*
X235052Y253554D01*
X235591Y253140D01*
X236218Y252881D01*
X236891Y252792D01*
X237563Y252881D01*
X238191Y253140D01*
X238729Y253554D01*
X239142Y254092D01*
X239402Y254719D01*
X239491Y255392D01*
X239448Y255718D01*
X239649Y256019D01*
X239773Y256643D01*
Y261943D01*
X239980Y262102D01*
X240394Y262641D01*
X240653Y263268D01*
X240742Y263941D01*
X240653Y264614D01*
X240394Y265241D01*
X239980Y265780D01*
X239442Y266193D01*
X238815Y266453D01*
X238142Y266541D01*
D02*
G37*
G36*
X99953Y259061D02*
X99280Y258972D01*
X98653Y258713D01*
X98114Y258299D01*
X97701Y257761D01*
X97441Y257134D01*
X97353Y256461D01*
X97441Y255788D01*
X97701Y255160D01*
X98114Y254622D01*
X98653Y254209D01*
X99280Y253949D01*
X99953Y253860D01*
X100626Y253949D01*
X101253Y254209D01*
X101791Y254622D01*
X102205Y255160D01*
X102464Y255788D01*
X102553Y256461D01*
X102464Y257134D01*
X102205Y257761D01*
X101791Y258299D01*
X101253Y258713D01*
X100626Y258972D01*
X99953Y259061D01*
D02*
G37*
G36*
X43500Y258689D02*
X42416Y258546D01*
X41406Y258127D01*
X40538Y257462D01*
X39873Y256594D01*
X39454Y255584D01*
X39311Y254500D01*
X39454Y253416D01*
X39873Y252406D01*
X40538Y251538D01*
X41406Y250873D01*
X42416Y250454D01*
X43500Y250311D01*
X44584Y250454D01*
X45594Y250873D01*
X46462Y251538D01*
X47127Y252406D01*
X47546Y253416D01*
X47689Y254500D01*
X47546Y255584D01*
X47127Y256594D01*
X46462Y257462D01*
X45594Y258127D01*
X44584Y258546D01*
X43500Y258689D01*
D02*
G37*
G36*
X33500D02*
X32416Y258546D01*
X31406Y258127D01*
X30538Y257462D01*
X29873Y256594D01*
X29454Y255584D01*
X29311Y254500D01*
X29454Y253416D01*
X29873Y252406D01*
X30538Y251538D01*
X31406Y250873D01*
X32416Y250454D01*
X33500Y250311D01*
X34584Y250454D01*
X35594Y250873D01*
X36462Y251538D01*
X37127Y252406D01*
X37546Y253416D01*
X37689Y254500D01*
X37546Y255584D01*
X37127Y256594D01*
X36462Y257462D01*
X35594Y258127D01*
X34584Y258546D01*
X33500Y258689D01*
D02*
G37*
G36*
X272787Y251344D02*
X272114Y251256D01*
X271487Y250996D01*
X270949Y250583D01*
X270536Y250044D01*
X270276Y249417D01*
X270187Y248744D01*
X270276Y248071D01*
X270536Y247444D01*
X270949Y246905D01*
X271487Y246492D01*
X272114Y246233D01*
X272787Y246144D01*
X273460Y246233D01*
X274088Y246492D01*
X274626Y246905D01*
X275039Y247444D01*
X275299Y248071D01*
X275388Y248744D01*
X275299Y249417D01*
X275039Y250044D01*
X274626Y250583D01*
X274088Y250996D01*
X273460Y251256D01*
X272787Y251344D01*
D02*
G37*
G36*
X109162Y243706D02*
X108489Y243618D01*
X107861Y243358D01*
X107323Y242945D01*
X107211Y242800D01*
X106581D01*
X106470Y242945D01*
X105931Y243358D01*
X105304Y243618D01*
X104631Y243706D01*
X103958Y243618D01*
X103331Y243358D01*
X102793Y242945D01*
X102379Y242406D01*
X102120Y241779D01*
X102031Y241106D01*
X102120Y240433D01*
X102371Y239827D01*
X102120Y239220D01*
X102031Y238547D01*
X102120Y237874D01*
X102371Y237268D01*
X102120Y236661D01*
X102031Y235988D01*
X102120Y235315D01*
X102371Y234709D01*
X102120Y234102D01*
X102031Y233429D01*
X102120Y232756D01*
X102379Y232129D01*
X102793Y231591D01*
X103331Y231177D01*
X103958Y230918D01*
X104631Y230829D01*
X105304Y230918D01*
X105931Y231177D01*
X106470Y231591D01*
X106581Y231736D01*
X107211D01*
X107323Y231591D01*
X107861Y231177D01*
X108489Y230918D01*
X109162Y230829D01*
X109835Y230918D01*
X110462Y231177D01*
X111000Y231591D01*
X111413Y232129D01*
X111673Y232756D01*
X111762Y233429D01*
X111673Y234102D01*
X111422Y234709D01*
X111673Y235315D01*
X111762Y235988D01*
X111673Y236661D01*
X111422Y237268D01*
X111673Y237874D01*
X111762Y238547D01*
X111673Y239220D01*
X111422Y239827D01*
X111673Y240433D01*
X111762Y241106D01*
X111673Y241779D01*
X111413Y242406D01*
X111000Y242945D01*
X110462Y243358D01*
X109835Y243618D01*
X109162Y243706D01*
D02*
G37*
G36*
X33500Y248689D02*
X32416Y248546D01*
X31406Y248127D01*
X30538Y247462D01*
X29873Y246594D01*
X29454Y245584D01*
X29311Y244500D01*
X29454Y243416D01*
X29873Y242406D01*
X30538Y241538D01*
X31406Y240873D01*
X32416Y240454D01*
X33500Y240311D01*
X34584Y240454D01*
X35594Y240873D01*
X36462Y241538D01*
X37127Y242406D01*
X37546Y243416D01*
X37689Y244500D01*
X37546Y245584D01*
X37127Y246594D01*
X36462Y247462D01*
X35594Y248127D01*
X34584Y248546D01*
X33500Y248689D01*
D02*
G37*
G36*
X63850Y269616D02*
X62509Y269440D01*
X61260Y268922D01*
X60187Y268099D01*
X59363Y267026D01*
X58846Y265776D01*
X58669Y264435D01*
X58846Y263094D01*
X59363Y261844D01*
X60187Y260771D01*
X61260Y259948D01*
X62200Y259558D01*
X62213Y259215D01*
X62162Y259033D01*
X61064Y258578D01*
X60074Y257818D01*
X59313Y256827D01*
X58836Y255673D01*
X58672Y254435D01*
X58836Y253197D01*
X59313Y252043D01*
X60074Y251052D01*
X61064Y250292D01*
X62218Y249814D01*
X63457Y249651D01*
X64244D01*
X65482Y249814D01*
X66636Y250292D01*
X67627Y251052D01*
X68387Y252043D01*
X68564Y252468D01*
X69105D01*
X69363Y251844D01*
X70187Y250771D01*
X71260Y249948D01*
X72201Y249558D01*
X72213Y249215D01*
X72162Y249033D01*
X71065Y248578D01*
X70074Y247818D01*
X69313Y246827D01*
X68836Y245673D01*
X68672Y244435D01*
X68836Y243197D01*
X69313Y242043D01*
X70074Y241052D01*
X71065Y240292D01*
X72218Y239814D01*
X73180Y239687D01*
Y239183D01*
X72218Y239056D01*
X71065Y238578D01*
X70074Y237818D01*
X69313Y236827D01*
X69100Y236313D01*
X68600D01*
X68387Y236827D01*
X67627Y237818D01*
X66636Y238578D01*
X65482Y239056D01*
X64244Y239219D01*
X63457D01*
X62218Y239056D01*
X61064Y238578D01*
X60074Y237818D01*
X59313Y236827D01*
X58836Y235673D01*
X58672Y234435D01*
X58836Y233197D01*
X59313Y232043D01*
X60074Y231052D01*
X61064Y230292D01*
X62218Y229814D01*
X63180Y229687D01*
Y229183D01*
X62218Y229056D01*
X61064Y228578D01*
X60074Y227818D01*
X59313Y226827D01*
X58836Y225673D01*
X58672Y224435D01*
X58836Y223197D01*
X59313Y222043D01*
X60074Y221052D01*
X61064Y220292D01*
X62218Y219814D01*
X63180Y219687D01*
Y219183D01*
X62218Y219056D01*
X61064Y218578D01*
X60074Y217818D01*
X59313Y216827D01*
X58836Y215673D01*
X58672Y214435D01*
X58836Y213197D01*
X59313Y212043D01*
X60074Y211052D01*
X61064Y210292D01*
X62218Y209814D01*
X63457Y209651D01*
X64244D01*
X65482Y209814D01*
X66636Y210292D01*
X67627Y211052D01*
X68387Y212043D01*
X68564Y212468D01*
X69105D01*
X69363Y211844D01*
X70187Y210771D01*
X71260Y209948D01*
X71894Y209685D01*
Y209185D01*
X71260Y208922D01*
X70187Y208099D01*
X69363Y207026D01*
X68846Y205776D01*
X68669Y204435D01*
X68846Y203094D01*
X69363Y201844D01*
X70187Y200771D01*
X71260Y199948D01*
X71894Y199685D01*
Y199185D01*
X71260Y198922D01*
X70187Y198099D01*
X69363Y197026D01*
X69105Y196402D01*
X68564D01*
X68387Y196827D01*
X67627Y197818D01*
X66636Y198578D01*
X65482Y199056D01*
X64244Y199219D01*
X63457D01*
X62218Y199056D01*
X61064Y198578D01*
X60074Y197818D01*
X59313Y196827D01*
X58836Y195673D01*
X58672Y194435D01*
X58836Y193197D01*
X59313Y192043D01*
X60074Y191052D01*
X61064Y190292D01*
X62218Y189814D01*
X63180Y189687D01*
Y189183D01*
X62218Y189056D01*
X61064Y188578D01*
X60074Y187818D01*
X59313Y186827D01*
X58836Y185673D01*
X58672Y184435D01*
X58836Y183197D01*
X59313Y182043D01*
X60074Y181052D01*
X61064Y180292D01*
X62218Y179814D01*
X63457Y179651D01*
X64244D01*
X65482Y179814D01*
X66636Y180292D01*
X67627Y181052D01*
X68387Y182043D01*
X68564Y182468D01*
X69105D01*
X69363Y181844D01*
X70187Y180771D01*
X71260Y179948D01*
X71894Y179685D01*
Y179185D01*
X71260Y178922D01*
X70187Y178099D01*
X69363Y177026D01*
X68846Y175776D01*
X68669Y174435D01*
X68846Y173094D01*
X69363Y171844D01*
X70187Y170771D01*
X71260Y169948D01*
X71894Y169685D01*
Y169185D01*
X71260Y168922D01*
X70187Y168099D01*
X69363Y167026D01*
X69105Y166402D01*
X68564D01*
X68387Y166827D01*
X67627Y167818D01*
X66636Y168578D01*
X65482Y169056D01*
X64244Y169219D01*
X63457D01*
X62218Y169056D01*
X61064Y168578D01*
X60074Y167818D01*
X59313Y166827D01*
X58836Y165673D01*
X58672Y164435D01*
X58836Y163197D01*
X59313Y162043D01*
X60074Y161052D01*
X61064Y160292D01*
X62218Y159814D01*
X63180Y159687D01*
Y159183D01*
X62218Y159056D01*
X61064Y158578D01*
X60074Y157818D01*
X59313Y156827D01*
X58836Y155673D01*
X58672Y154435D01*
X58836Y153197D01*
X59313Y152043D01*
X60074Y151052D01*
X61064Y150292D01*
X62218Y149814D01*
X63180Y149687D01*
Y149183D01*
X62218Y149056D01*
X61064Y148578D01*
X60074Y147818D01*
X59313Y146827D01*
X58836Y145673D01*
X58672Y144435D01*
X58836Y143197D01*
X59313Y142043D01*
X60074Y141052D01*
X61064Y140292D01*
X62218Y139814D01*
X63180Y139687D01*
Y139183D01*
X62218Y139056D01*
X61064Y138578D01*
X60074Y137818D01*
X59313Y136827D01*
X58836Y135673D01*
X58672Y134435D01*
X58836Y133197D01*
X59313Y132043D01*
X60074Y131052D01*
X61064Y130292D01*
X62218Y129814D01*
X63457Y129651D01*
X64244D01*
X65482Y129814D01*
X66636Y130292D01*
X67627Y131052D01*
X68387Y132043D01*
X68564Y132468D01*
X69105D01*
X69363Y131844D01*
X70187Y130771D01*
X71260Y129948D01*
X71894Y129685D01*
Y129185D01*
X71260Y128922D01*
X70187Y128099D01*
X69363Y127026D01*
X68846Y125776D01*
X68669Y124435D01*
X68846Y123094D01*
X69363Y121844D01*
X70187Y120771D01*
X71260Y119948D01*
X71894Y119685D01*
Y119185D01*
X71260Y118922D01*
X70187Y118099D01*
X69363Y117026D01*
X69105Y116402D01*
X68564D01*
X68387Y116827D01*
X67627Y117818D01*
X66636Y118578D01*
X65482Y119056D01*
X64244Y119219D01*
X63457D01*
X62218Y119056D01*
X61064Y118578D01*
X60074Y117818D01*
X59313Y116827D01*
X58836Y115673D01*
X58672Y114435D01*
X58836Y113197D01*
X59313Y112043D01*
X60074Y111052D01*
X61064Y110292D01*
X62218Y109814D01*
X63457Y109651D01*
X64244D01*
X65482Y109814D01*
X66636Y110292D01*
X67627Y111052D01*
X68387Y112043D01*
X68564Y112468D01*
X69105D01*
X69363Y111844D01*
X70187Y110771D01*
X71260Y109948D01*
X71894Y109685D01*
Y109185D01*
X71260Y108922D01*
X70187Y108099D01*
X69363Y107026D01*
X68846Y105776D01*
X68669Y104435D01*
X68846Y103094D01*
X69363Y101844D01*
X70187Y100771D01*
X71260Y99948D01*
X71894Y99685D01*
Y99185D01*
X71260Y98922D01*
X70187Y98099D01*
X69363Y97026D01*
X69105Y96402D01*
X68564D01*
X68387Y96827D01*
X67627Y97818D01*
X66636Y98578D01*
X65482Y99056D01*
X64244Y99219D01*
X63457D01*
X62218Y99056D01*
X61064Y98578D01*
X60074Y97818D01*
X59313Y96827D01*
X58836Y95673D01*
X58672Y94435D01*
X58836Y93197D01*
X59313Y92043D01*
X60074Y91052D01*
X61064Y90292D01*
X62218Y89814D01*
X63180Y89687D01*
Y89183D01*
X62218Y89056D01*
X61064Y88578D01*
X60074Y87818D01*
X59313Y86827D01*
X58836Y85673D01*
X58672Y84435D01*
X58836Y83197D01*
X59313Y82043D01*
X60074Y81052D01*
X61064Y80292D01*
X62218Y79814D01*
X63180Y79687D01*
Y79183D01*
X62218Y79056D01*
X61064Y78578D01*
X60074Y77818D01*
X59313Y76827D01*
X58836Y75673D01*
X58672Y74435D01*
X58836Y73197D01*
X59313Y72043D01*
X60074Y71052D01*
X61064Y70292D01*
X62218Y69814D01*
X63457Y69651D01*
X64244D01*
X65482Y69814D01*
X66636Y70292D01*
X67627Y71052D01*
X68387Y72043D01*
X68865Y73197D01*
X69028Y74435D01*
X68865Y75673D01*
X68387Y76827D01*
X67627Y77818D01*
X66636Y78578D01*
X65482Y79056D01*
X64521Y79183D01*
Y79687D01*
X65482Y79814D01*
X66636Y80292D01*
X67627Y81052D01*
X68387Y82043D01*
X68564Y82468D01*
X69105D01*
X69363Y81844D01*
X70187Y80771D01*
X71260Y79948D01*
X72509Y79430D01*
X73850Y79254D01*
X75191Y79430D01*
X76441Y79948D01*
X77514Y80771D01*
X78338Y81844D01*
X78855Y83094D01*
X79032Y84435D01*
X78855Y85776D01*
X78338Y87026D01*
X77514Y88099D01*
X76441Y88922D01*
X75806Y89185D01*
Y89685D01*
X76441Y89948D01*
X77514Y90771D01*
X78338Y91844D01*
X78855Y93094D01*
X79032Y94435D01*
X78855Y95776D01*
X78338Y97026D01*
X77514Y98099D01*
X76441Y98922D01*
X75806Y99185D01*
Y99685D01*
X76441Y99948D01*
X77514Y100771D01*
X78338Y101844D01*
X78855Y103094D01*
X79032Y104435D01*
X78855Y105776D01*
X78338Y107026D01*
X77514Y108099D01*
X76441Y108922D01*
X75806Y109185D01*
Y109685D01*
X76441Y109948D01*
X77514Y110771D01*
X78338Y111844D01*
X78855Y113094D01*
X79032Y114435D01*
X78855Y115776D01*
X78338Y117026D01*
X77514Y118099D01*
X76441Y118922D01*
X75806Y119185D01*
Y119685D01*
X76441Y119948D01*
X77514Y120771D01*
X78338Y121844D01*
X78855Y123094D01*
X79032Y124435D01*
X78855Y125776D01*
X78338Y127026D01*
X77514Y128099D01*
X76441Y128922D01*
X75806Y129185D01*
Y129685D01*
X76441Y129948D01*
X77514Y130771D01*
X78338Y131844D01*
X78855Y133094D01*
X79032Y134435D01*
X78855Y135776D01*
X78338Y137026D01*
X77514Y138099D01*
X76441Y138922D01*
X75191Y139440D01*
X73850Y139616D01*
X72509Y139440D01*
X71260Y138922D01*
X70187Y138099D01*
X69363Y137026D01*
X69105Y136402D01*
X68564D01*
X68387Y136827D01*
X67627Y137818D01*
X66636Y138578D01*
X65482Y139056D01*
X64521Y139183D01*
Y139687D01*
X65482Y139814D01*
X66636Y140292D01*
X67627Y141052D01*
X68387Y142043D01*
X68865Y143197D01*
X69028Y144435D01*
X68865Y145673D01*
X68387Y146827D01*
X67627Y147818D01*
X66636Y148578D01*
X65482Y149056D01*
X64521Y149183D01*
Y149687D01*
X65482Y149814D01*
X66636Y150292D01*
X67627Y151052D01*
X68387Y152043D01*
X68564Y152468D01*
X69105D01*
X69363Y151844D01*
X70187Y150771D01*
X71260Y149948D01*
X72509Y149430D01*
X73850Y149254D01*
X75191Y149430D01*
X76441Y149948D01*
X77514Y150771D01*
X78338Y151844D01*
X78855Y153094D01*
X79032Y154435D01*
X78855Y155776D01*
X78338Y157026D01*
X77514Y158099D01*
X76441Y158922D01*
X75806Y159185D01*
Y159685D01*
X76441Y159948D01*
X77514Y160771D01*
X78338Y161844D01*
X78855Y163094D01*
X79032Y164435D01*
X78855Y165776D01*
X78338Y167026D01*
X77514Y168099D01*
X76441Y168922D01*
X75806Y169185D01*
Y169685D01*
X76441Y169948D01*
X77514Y170771D01*
X78338Y171844D01*
X78855Y173094D01*
X79032Y174435D01*
X78855Y175776D01*
X78338Y177026D01*
X77514Y178099D01*
X76441Y178922D01*
X75806Y179185D01*
Y179685D01*
X76441Y179948D01*
X77514Y180771D01*
X78338Y181844D01*
X78855Y183094D01*
X79032Y184435D01*
X78855Y185776D01*
X78338Y187026D01*
X77514Y188099D01*
X76441Y188922D01*
X75806Y189185D01*
Y189685D01*
X76441Y189948D01*
X77514Y190771D01*
X78338Y191844D01*
X78855Y193094D01*
X79032Y194435D01*
X78855Y195776D01*
X78338Y197026D01*
X77514Y198099D01*
X76441Y198922D01*
X75806Y199185D01*
Y199685D01*
X76441Y199948D01*
X77514Y200771D01*
X78338Y201844D01*
X78855Y203094D01*
X79032Y204435D01*
X78855Y205776D01*
X78505Y206623D01*
X78929Y206906D01*
X85127Y200707D01*
X85689Y200332D01*
X86352Y200200D01*
X92059D01*
X92281Y199867D01*
X92316Y199700D01*
X92234Y199079D01*
X92323Y198406D01*
X92583Y197779D01*
X92996Y197240D01*
X93535Y196827D01*
X94162Y196567D01*
X94835Y196478D01*
X95508Y196567D01*
X96135Y196827D01*
X96673Y197240D01*
X97087Y197779D01*
X97346Y198406D01*
X97435Y199079D01*
X97353Y199700D01*
X97389Y199867D01*
X97611Y200200D01*
X98282D01*
X100833Y197648D01*
X101396Y197273D01*
X102059Y197141D01*
X120581D01*
X120661Y197035D01*
X121200Y196622D01*
X121827Y196362D01*
X122500Y196274D01*
X123173Y196362D01*
X123800Y196622D01*
X124339Y197035D01*
X124752Y197574D01*
X125012Y198201D01*
X125100Y198874D01*
X125012Y199547D01*
X124752Y200174D01*
X124339Y200713D01*
X123800Y201126D01*
X123173Y201386D01*
X122500Y201474D01*
X121827Y201386D01*
X121200Y201126D01*
X120661Y200713D01*
X120581Y200607D01*
X102777D01*
X100226Y203159D01*
X99663Y203534D01*
X99000Y203666D01*
X92700D01*
X92530Y204166D01*
X92736Y204324D01*
X93150Y204863D01*
X93409Y205490D01*
X93498Y206163D01*
X93409Y206836D01*
X93150Y207463D01*
X92736Y208002D01*
X92198Y208415D01*
X91571Y208675D01*
X90898Y208763D01*
X90225Y208675D01*
X89597Y208415D01*
X89059Y208002D01*
X88646Y207463D01*
X88386Y206836D01*
X88297Y206163D01*
X88386Y205490D01*
X88646Y204863D01*
X89059Y204324D01*
X89265Y204166D01*
X89095Y203666D01*
X87070D01*
X78500Y212237D01*
X78855Y213094D01*
X79032Y214435D01*
X78855Y215776D01*
X78338Y217026D01*
X77514Y218099D01*
X76441Y218922D01*
X75191Y219440D01*
X73850Y219616D01*
X72509Y219440D01*
X71260Y218922D01*
X70187Y218099D01*
X69363Y217026D01*
X69105Y216402D01*
X68564D01*
X68387Y216827D01*
X67627Y217818D01*
X66636Y218578D01*
X65482Y219056D01*
X64521Y219183D01*
Y219687D01*
X65482Y219814D01*
X66636Y220292D01*
X67627Y221052D01*
X68387Y222043D01*
X68865Y223197D01*
X69028Y224435D01*
X68865Y225673D01*
X68387Y226827D01*
X67627Y227818D01*
X66636Y228578D01*
X65482Y229056D01*
X64521Y229183D01*
Y229687D01*
X65482Y229814D01*
X66636Y230292D01*
X67627Y231052D01*
X68387Y232043D01*
X68600Y232557D01*
X69100D01*
X69313Y232043D01*
X70074Y231052D01*
X71065Y230292D01*
X72218Y229814D01*
X73457Y229651D01*
X74244D01*
X75482Y229814D01*
X76636Y230292D01*
X77627Y231052D01*
X78387Y232043D01*
X78865Y233197D01*
X79028Y234435D01*
X78865Y235673D01*
X78387Y236827D01*
X77627Y237818D01*
X76636Y238578D01*
X75482Y239056D01*
X74520Y239183D01*
Y239687D01*
X75482Y239814D01*
X76636Y240292D01*
X77627Y241052D01*
X78387Y242043D01*
X78865Y243197D01*
X79028Y244435D01*
X78865Y245673D01*
X78387Y246827D01*
X77627Y247818D01*
X76636Y248578D01*
X75539Y249033D01*
X75488Y249215D01*
X75500Y249558D01*
X76441Y249948D01*
X77514Y250771D01*
X78338Y251844D01*
X78855Y253094D01*
X79032Y254435D01*
X78855Y255776D01*
X78338Y257026D01*
X77514Y258099D01*
X76603Y258798D01*
X76773Y259298D01*
X78987D01*
Y269572D01*
X68713D01*
Y267357D01*
X68213Y267188D01*
X67514Y268099D01*
X66441Y268922D01*
X65191Y269440D01*
X63850Y269616D01*
D02*
G37*
G36*
X249383Y237873D02*
X248710Y237784D01*
X248083Y237525D01*
X247544Y237111D01*
X247131Y236573D01*
X246871Y235946D01*
X246783Y235273D01*
X246871Y234600D01*
X247131Y233973D01*
X247544Y233434D01*
X248083Y233021D01*
X248710Y232761D01*
X249383Y232673D01*
X250056Y232761D01*
X250683Y233021D01*
X251221Y233434D01*
X251635Y233973D01*
X251894Y234600D01*
X251983Y235273D01*
X251894Y235946D01*
X251635Y236573D01*
X251221Y237111D01*
X250683Y237525D01*
X250056Y237784D01*
X249383Y237873D01*
D02*
G37*
G36*
X262039Y237127D02*
X261366Y237038D01*
X260739Y236778D01*
X260201Y236365D01*
X259788Y235827D01*
X259528Y235200D01*
X259439Y234527D01*
X259528Y233854D01*
X259788Y233227D01*
X260201Y232688D01*
X260739Y232275D01*
X261366Y232015D01*
X262039Y231926D01*
X262712Y232015D01*
X263339Y232275D01*
X263878Y232688D01*
X264291Y233227D01*
X264551Y233854D01*
X264640Y234527D01*
X264551Y235200D01*
X264291Y235827D01*
X263878Y236365D01*
X263339Y236778D01*
X262712Y237038D01*
X262039Y237127D01*
D02*
G37*
G36*
X94201Y243805D02*
X93528Y243717D01*
X92901Y243457D01*
X92362Y243044D01*
X91949Y242505D01*
X91689Y241878D01*
X91601Y241205D01*
X91689Y240532D01*
X91941Y239926D01*
X91689Y239319D01*
X91601Y238646D01*
X91689Y237973D01*
X91941Y237366D01*
X91689Y236760D01*
X91601Y236087D01*
X91689Y235414D01*
X91941Y234807D01*
X91689Y234201D01*
X91601Y233528D01*
X91689Y232855D01*
X91949Y232228D01*
X92362Y231689D01*
X92901Y231276D01*
X93528Y231016D01*
X94201Y230928D01*
X94874Y231016D01*
X95501Y231276D01*
X96040Y231689D01*
X96453Y232228D01*
X96713Y232855D01*
X96801Y233528D01*
X96713Y234201D01*
X96461Y234807D01*
X96713Y235414D01*
X96801Y236087D01*
X96713Y236760D01*
X96461Y237366D01*
X96713Y237973D01*
X96801Y238646D01*
X96713Y239319D01*
X96461Y239926D01*
X96713Y240532D01*
X96801Y241205D01*
X96713Y241878D01*
X96453Y242505D01*
X96040Y243044D01*
X95501Y243457D01*
X94874Y243717D01*
X94201Y243805D01*
D02*
G37*
G36*
X119791Y243805D02*
X119118Y243716D01*
X118491Y243456D01*
X117953Y243043D01*
X117539Y242505D01*
X117280Y241877D01*
X117191Y241204D01*
X117280Y240531D01*
X117531Y239925D01*
X117280Y239318D01*
X117191Y238645D01*
X117280Y237972D01*
X117531Y237366D01*
X117280Y236759D01*
X117191Y236086D01*
X117280Y235413D01*
X117531Y234807D01*
X117280Y234200D01*
X117191Y233527D01*
X117280Y232854D01*
X117539Y232227D01*
X117953Y231689D01*
X118491Y231275D01*
X119118Y231016D01*
X119791Y230927D01*
X120464Y231016D01*
X121091Y231275D01*
X121630Y231689D01*
X122043Y232227D01*
X122303Y232854D01*
X122391Y233527D01*
X122303Y234200D01*
X122052Y234807D01*
X122303Y235413D01*
X122391Y236086D01*
X122303Y236759D01*
X122052Y237366D01*
X122303Y237972D01*
X122391Y238645D01*
X122303Y239318D01*
X122052Y239925D01*
X122303Y240531D01*
X122391Y241204D01*
X122303Y241877D01*
X122043Y242505D01*
X121630Y243043D01*
X121091Y243456D01*
X120464Y243716D01*
X119791Y243805D01*
D02*
G37*
G36*
X43500Y238689D02*
X42416Y238546D01*
X41406Y238127D01*
X40538Y237462D01*
X39873Y236594D01*
X39454Y235584D01*
X39311Y234500D01*
X39454Y233416D01*
X39873Y232406D01*
X40538Y231538D01*
X41406Y230873D01*
X42416Y230454D01*
X43500Y230311D01*
X44584Y230454D01*
X45594Y230873D01*
X46462Y231538D01*
X47127Y232406D01*
X47546Y233416D01*
X47689Y234500D01*
X47546Y235584D01*
X47127Y236594D01*
X46462Y237462D01*
X45594Y238127D01*
X44584Y238546D01*
X43500Y238689D01*
D02*
G37*
G36*
X33500D02*
X32416Y238546D01*
X31406Y238127D01*
X30538Y237462D01*
X29873Y236594D01*
X29454Y235584D01*
X29311Y234500D01*
X29454Y233416D01*
X29873Y232406D01*
X30538Y231538D01*
X31406Y230873D01*
X32416Y230454D01*
X33500Y230311D01*
X34584Y230454D01*
X35594Y230873D01*
X36462Y231538D01*
X37127Y232406D01*
X37546Y233416D01*
X37689Y234500D01*
X37546Y235584D01*
X37127Y236594D01*
X36462Y237462D01*
X35594Y238127D01*
X34584Y238546D01*
X33500Y238689D01*
D02*
G37*
G36*
X252000Y231767D02*
X251327Y231679D01*
X250700Y231419D01*
X250161Y231006D01*
X249748Y230467D01*
X249488Y229840D01*
X249400Y229167D01*
X249488Y228494D01*
X249748Y227867D01*
X250161Y227328D01*
X250700Y226915D01*
X251327Y226655D01*
X252000Y226567D01*
X252673Y226655D01*
X253300Y226915D01*
X253839Y227328D01*
X254252Y227867D01*
X254512Y228494D01*
X254600Y229167D01*
X254512Y229840D01*
X254252Y230467D01*
X253839Y231006D01*
X253300Y231419D01*
X252673Y231679D01*
X252000Y231767D01*
D02*
G37*
G36*
X94635Y226974D02*
X93963Y226886D01*
X93335Y226626D01*
X92797Y226213D01*
X92384Y225674D01*
X92124Y225047D01*
X92035Y224374D01*
X92124Y223701D01*
X92384Y223074D01*
X92797Y222535D01*
X93335Y222122D01*
X93963Y221862D01*
X94635Y221774D01*
X95308Y221862D01*
X95936Y222122D01*
X96474Y222535D01*
X96887Y223074D01*
X97147Y223701D01*
X97236Y224374D01*
X97147Y225047D01*
X96887Y225674D01*
X96474Y226213D01*
X95936Y226626D01*
X95308Y226886D01*
X94635Y226974D01*
D02*
G37*
G36*
X43500Y228689D02*
X42416Y228546D01*
X41406Y228127D01*
X40538Y227462D01*
X39873Y226594D01*
X39454Y225584D01*
X39311Y224500D01*
X39454Y223416D01*
X39873Y222406D01*
X40538Y221538D01*
X41406Y220873D01*
X42416Y220454D01*
X43500Y220311D01*
X44584Y220454D01*
X45594Y220873D01*
X46462Y221538D01*
X47127Y222406D01*
X47546Y223416D01*
X47689Y224500D01*
X47546Y225584D01*
X47127Y226594D01*
X46462Y227462D01*
X45594Y228127D01*
X44584Y228546D01*
X43500Y228689D01*
D02*
G37*
G36*
X275543Y221659D02*
X274870Y221571D01*
X274243Y221311D01*
X273705Y220898D01*
X273291Y220359D01*
X273032Y219732D01*
X272943Y219059D01*
X273032Y218386D01*
X273291Y217759D01*
X273705Y217220D01*
X274243Y216807D01*
X274870Y216547D01*
X275543Y216459D01*
X276216Y216547D01*
X276843Y216807D01*
X277382Y217220D01*
X277795Y217759D01*
X278055Y218386D01*
X278144Y219059D01*
X278055Y219732D01*
X277795Y220359D01*
X277382Y220898D01*
X276843Y221311D01*
X276216Y221571D01*
X275543Y221659D01*
D02*
G37*
G36*
X43500Y218689D02*
X42416Y218546D01*
X41406Y218127D01*
X40538Y217462D01*
X39873Y216594D01*
X39454Y215584D01*
X39311Y214500D01*
X39454Y213416D01*
X39873Y212406D01*
X40538Y211538D01*
X41406Y210873D01*
X42416Y210454D01*
X43500Y210311D01*
X44584Y210454D01*
X45594Y210873D01*
X46462Y211538D01*
X47127Y212406D01*
X47546Y213416D01*
X47689Y214500D01*
X47546Y215584D01*
X47127Y216594D01*
X46462Y217462D01*
X45594Y218127D01*
X44584Y218546D01*
X43500Y218689D01*
D02*
G37*
G36*
X33500D02*
X32416Y218546D01*
X31406Y218127D01*
X30538Y217462D01*
X29873Y216594D01*
X29454Y215584D01*
X29311Y214500D01*
X29454Y213416D01*
X29873Y212406D01*
X30538Y211538D01*
X31406Y210873D01*
X32416Y210454D01*
X33500Y210311D01*
X34584Y210454D01*
X35594Y210873D01*
X36462Y211538D01*
X37127Y212406D01*
X37546Y213416D01*
X37689Y214500D01*
X37546Y215584D01*
X37127Y216594D01*
X36462Y217462D01*
X35594Y218127D01*
X34584Y218546D01*
X33500Y218689D01*
D02*
G37*
G36*
X262000Y228746D02*
X261327Y228657D01*
X260700Y228397D01*
X260161Y227984D01*
X259748Y227446D01*
X259488Y226819D01*
X259400Y226146D01*
X259488Y225473D01*
X259748Y224846D01*
X260161Y224307D01*
X260326Y224181D01*
Y223681D01*
X260161Y223555D01*
X259748Y223017D01*
X259488Y222390D01*
X259400Y221716D01*
X259488Y221044D01*
X259748Y220416D01*
X260161Y219878D01*
X260315Y219760D01*
Y219130D01*
X260201Y219042D01*
X259788Y218504D01*
X259528Y217877D01*
X259439Y217204D01*
X259528Y216531D01*
X259788Y215904D01*
X260201Y215365D01*
X260301Y215288D01*
Y214789D01*
X260201Y214712D01*
X259788Y214173D01*
X259528Y213546D01*
X259439Y212873D01*
X259528Y212200D01*
X259788Y211573D01*
X260201Y211034D01*
X260739Y210621D01*
X261366Y210362D01*
X262039Y210273D01*
X262712Y210362D01*
X263339Y210621D01*
X263878Y211034D01*
X264291Y211573D01*
X264551Y212200D01*
X264640Y212873D01*
X264551Y213546D01*
X264291Y214173D01*
X263878Y214712D01*
X263778Y214789D01*
Y215288D01*
X263878Y215365D01*
X264291Y215904D01*
X264551Y216531D01*
X264640Y217204D01*
X264551Y217877D01*
X264291Y218504D01*
X263878Y219042D01*
X263725Y219160D01*
Y219790D01*
X263839Y219878D01*
X264252Y220416D01*
X264512Y221044D01*
X264600Y221716D01*
X264512Y222390D01*
X264252Y223017D01*
X263839Y223555D01*
X263674Y223681D01*
Y224181D01*
X263839Y224307D01*
X264252Y224846D01*
X264512Y225473D01*
X264600Y226146D01*
X264512Y226819D01*
X264252Y227446D01*
X263839Y227984D01*
X263300Y228397D01*
X262673Y228657D01*
X262000Y228746D01*
D02*
G37*
G36*
X33500Y208689D02*
X32416Y208546D01*
X31406Y208127D01*
X30538Y207462D01*
X29873Y206594D01*
X29454Y205584D01*
X29311Y204500D01*
X29454Y203416D01*
X29873Y202406D01*
X30538Y201538D01*
X31406Y200873D01*
X32416Y200454D01*
X33500Y200311D01*
X34584Y200454D01*
X35594Y200873D01*
X36462Y201538D01*
X37127Y202406D01*
X37546Y203416D01*
X37689Y204500D01*
X37546Y205584D01*
X37127Y206594D01*
X36462Y207462D01*
X35594Y208127D01*
X34584Y208546D01*
X33500Y208689D01*
D02*
G37*
G36*
X259402Y198452D02*
X258729Y198364D01*
X258102Y198104D01*
X257563Y197691D01*
X257150Y197152D01*
X256890Y196525D01*
X256801Y195852D01*
X256890Y195179D01*
X257150Y194552D01*
X257563Y194013D01*
X258102Y193600D01*
X258729Y193340D01*
X259402Y193252D01*
X260074Y193340D01*
X260702Y193600D01*
X261240Y194013D01*
X261653Y194552D01*
X261913Y195179D01*
X262002Y195852D01*
X261913Y196525D01*
X261653Y197152D01*
X261240Y197691D01*
X260702Y198104D01*
X260074Y198364D01*
X259402Y198452D01*
D02*
G37*
G36*
X43500Y198689D02*
X42416Y198546D01*
X41406Y198127D01*
X40538Y197462D01*
X39873Y196594D01*
X39454Y195584D01*
X39311Y194500D01*
X39454Y193416D01*
X39873Y192406D01*
X40538Y191538D01*
X41406Y190873D01*
X42416Y190454D01*
X43500Y190311D01*
X44584Y190454D01*
X45594Y190873D01*
X46462Y191538D01*
X47127Y192406D01*
X47546Y193416D01*
X47689Y194500D01*
X47546Y195584D01*
X47127Y196594D01*
X46462Y197462D01*
X45594Y198127D01*
X44584Y198546D01*
X43500Y198689D01*
D02*
G37*
G36*
X33500D02*
X32416Y198546D01*
X31406Y198127D01*
X30538Y197462D01*
X29873Y196594D01*
X29454Y195584D01*
X29311Y194500D01*
X29454Y193416D01*
X29873Y192406D01*
X30538Y191538D01*
X31406Y190873D01*
X32416Y190454D01*
X33500Y190311D01*
X34584Y190454D01*
X35594Y190873D01*
X36462Y191538D01*
X37127Y192406D01*
X37546Y193416D01*
X37689Y194500D01*
X37546Y195584D01*
X37127Y196594D01*
X36462Y197462D01*
X35594Y198127D01*
X34584Y198546D01*
X33500Y198689D01*
D02*
G37*
G36*
X97188Y194799D02*
X96515Y194710D01*
X95888Y194450D01*
X95349Y194037D01*
X94936Y193498D01*
X94676Y192871D01*
X94587Y192198D01*
X94676Y191525D01*
X94936Y190898D01*
X95349Y190360D01*
X95888Y189946D01*
X96515Y189687D01*
X97188Y189598D01*
X97860Y189687D01*
X98488Y189946D01*
X99026Y190360D01*
X99439Y190898D01*
X99699Y191525D01*
X99788Y192198D01*
X99699Y192871D01*
X99439Y193498D01*
X99026Y194037D01*
X98488Y194450D01*
X97860Y194710D01*
X97188Y194799D01*
D02*
G37*
G36*
X125191Y192909D02*
X124518Y192821D01*
X123891Y192561D01*
X123353Y192148D01*
X122939Y191609D01*
X122680Y190982D01*
X122591Y190309D01*
X122680Y189636D01*
X122939Y189009D01*
X122547Y188699D01*
X122119Y189027D01*
X121492Y189287D01*
X120819Y189376D01*
X120146Y189287D01*
X119519Y189027D01*
X118980Y188614D01*
X118567Y188076D01*
X118307Y187449D01*
X118219Y186776D01*
X118307Y186103D01*
X118567Y185476D01*
X118929Y185004D01*
X118567Y184532D01*
X118307Y183905D01*
X118219Y183232D01*
X118307Y182559D01*
X118567Y181932D01*
X118980Y181394D01*
X119519Y180980D01*
X120146Y180721D01*
X120819Y180632D01*
X121492Y180721D01*
X121998Y180930D01*
X122090Y180919D01*
X122345Y180799D01*
X122520Y180658D01*
X122581Y180197D01*
X122841Y179570D01*
X123254Y179032D01*
X123793Y178618D01*
X124420Y178358D01*
X125093Y178270D01*
X125766Y178358D01*
X126393Y178618D01*
X126931Y179032D01*
X127345Y179570D01*
X127604Y180197D01*
X127693Y180870D01*
X127604Y181543D01*
X127345Y182170D01*
X126931Y182709D01*
X126393Y183122D01*
X125766Y183382D01*
X125093Y183470D01*
X124420Y183382D01*
X123914Y183172D01*
X123821Y183183D01*
X123567Y183303D01*
X123391Y183444D01*
X123330Y183905D01*
X123071Y184532D01*
X122709Y185004D01*
X123071Y185476D01*
X123330Y186103D01*
X123419Y186776D01*
X123330Y187449D01*
X123071Y188076D01*
X123463Y188386D01*
X123891Y188057D01*
X124518Y187798D01*
X125191Y187709D01*
X125864Y187798D01*
X126491Y188057D01*
X127030Y188471D01*
X127443Y189009D01*
X127703Y189636D01*
X127791Y190309D01*
X127703Y190982D01*
X127443Y191609D01*
X127030Y192148D01*
X126491Y192561D01*
X125864Y192821D01*
X125191Y192909D01*
D02*
G37*
G36*
X43500Y188689D02*
X42416Y188546D01*
X41406Y188127D01*
X40538Y187462D01*
X39873Y186594D01*
X39454Y185584D01*
X39311Y184500D01*
X39454Y183416D01*
X39873Y182406D01*
X40538Y181538D01*
X41406Y180873D01*
X42416Y180454D01*
X43500Y180311D01*
X44584Y180454D01*
X45594Y180873D01*
X46462Y181538D01*
X47127Y182406D01*
X47546Y183416D01*
X47689Y184500D01*
X47546Y185584D01*
X47127Y186594D01*
X46462Y187462D01*
X45594Y188127D01*
X44584Y188546D01*
X43500Y188689D01*
D02*
G37*
G36*
X33500D02*
X32416Y188546D01*
X31406Y188127D01*
X30538Y187462D01*
X29873Y186594D01*
X29454Y185584D01*
X29311Y184500D01*
X29454Y183416D01*
X29873Y182406D01*
X30538Y181538D01*
X31406Y180873D01*
X32416Y180454D01*
X33500Y180311D01*
X34584Y180454D01*
X35594Y180873D01*
X36462Y181538D01*
X37127Y182406D01*
X37546Y183416D01*
X37689Y184500D01*
X37546Y185584D01*
X37127Y186594D01*
X36462Y187462D01*
X35594Y188127D01*
X34584Y188546D01*
X33500Y188689D01*
D02*
G37*
G36*
X167814Y179336D02*
X167141Y179248D01*
X166514Y178988D01*
X165975Y178575D01*
X165562Y178036D01*
X165303Y177409D01*
X165214Y176736D01*
X165303Y176063D01*
X165562Y175436D01*
X165975Y174898D01*
X166514Y174484D01*
X167141Y174225D01*
X167814Y174136D01*
X168487Y174225D01*
X169114Y174484D01*
X169653Y174898D01*
X170066Y175436D01*
X170326Y176063D01*
X170414Y176736D01*
X170326Y177409D01*
X170066Y178036D01*
X169653Y178575D01*
X169114Y178988D01*
X168487Y179248D01*
X167814Y179336D01*
D02*
G37*
G36*
X104933Y180142D02*
X103695Y179980D01*
X102541Y179501D01*
X101550Y178741D01*
X100790Y177750D01*
X100312Y176596D01*
X100149Y175358D01*
X100312Y174120D01*
X100790Y172966D01*
X101550Y171975D01*
X102541Y171215D01*
X103695Y170737D01*
X104933Y170574D01*
X106171Y170737D01*
X107325Y171215D01*
X108316Y171975D01*
X109076Y172966D01*
X109554Y174120D01*
X109717Y175358D01*
X109554Y176596D01*
X109076Y177750D01*
X108316Y178741D01*
X107325Y179501D01*
X106171Y179980D01*
X104933Y180142D01*
D02*
G37*
G36*
X33500Y178689D02*
X32416Y178546D01*
X31406Y178127D01*
X30538Y177462D01*
X29873Y176594D01*
X29454Y175584D01*
X29311Y174500D01*
X29454Y173416D01*
X29873Y172406D01*
X30538Y171538D01*
X31406Y170873D01*
X32416Y170454D01*
X33500Y170311D01*
X34584Y170454D01*
X35594Y170873D01*
X36462Y171538D01*
X37127Y172406D01*
X37546Y173416D01*
X37689Y174500D01*
X37546Y175584D01*
X37127Y176594D01*
X36462Y177462D01*
X35594Y178127D01*
X34584Y178546D01*
X33500Y178689D01*
D02*
G37*
G36*
X237641Y174644D02*
X236968Y174555D01*
X236341Y174295D01*
X235802Y173882D01*
X235389Y173343D01*
X235129Y172716D01*
X235041Y172043D01*
X235129Y171370D01*
X235389Y170743D01*
X235802Y170205D01*
X236341Y169791D01*
X236968Y169532D01*
X237641Y169443D01*
X238314Y169532D01*
X238941Y169791D01*
X239479Y170205D01*
X239893Y170743D01*
X240152Y171370D01*
X240241Y172043D01*
X240152Y172716D01*
X239893Y173343D01*
X239479Y173882D01*
X238941Y174295D01*
X238314Y174555D01*
X237641Y174644D01*
D02*
G37*
G36*
X148587Y180142D02*
X147348Y179980D01*
X146195Y179501D01*
X145204Y178741D01*
X144444Y177750D01*
X143965Y176596D01*
X143802Y175358D01*
X143965Y174120D01*
X144444Y172966D01*
X145204Y171975D01*
X146195Y171215D01*
X146199Y171213D01*
X146075Y170913D01*
X145986Y170240D01*
X146075Y169567D01*
X146335Y168940D01*
X146748Y168402D01*
X147287Y167988D01*
X147914Y167729D01*
X148587Y167640D01*
X149260Y167729D01*
X149887Y167988D01*
X150425Y168402D01*
X150839Y168940D01*
X151098Y169567D01*
X151187Y170240D01*
X151098Y170913D01*
X150974Y171213D01*
X150979Y171215D01*
X151970Y171975D01*
X152730Y172966D01*
X153208Y174120D01*
X153371Y175358D01*
X153208Y176596D01*
X152730Y177750D01*
X151970Y178741D01*
X150979Y179501D01*
X149825Y179980D01*
X148587Y180142D01*
D02*
G37*
G36*
X246000Y171750D02*
X245327Y171661D01*
X244700Y171402D01*
X244161Y170989D01*
X243748Y170450D01*
X243488Y169823D01*
X243400Y169150D01*
X243488Y168477D01*
X243748Y167850D01*
X243767Y167825D01*
X243748Y167800D01*
X243488Y167173D01*
X243400Y166500D01*
X243488Y165827D01*
X243727Y165250D01*
X243488Y164673D01*
X243400Y164000D01*
X243488Y163327D01*
X243748Y162700D01*
X244161Y162161D01*
X244700Y161748D01*
X245327Y161488D01*
X246000Y161400D01*
X246673Y161488D01*
X247300Y161748D01*
X247839Y162161D01*
X248252Y162700D01*
X248512Y163327D01*
X248600Y164000D01*
X248512Y164673D01*
X248273Y165250D01*
X248512Y165827D01*
X248600Y166500D01*
X248512Y167173D01*
X248252Y167800D01*
X248233Y167825D01*
X248252Y167850D01*
X248512Y168477D01*
X248600Y169150D01*
X248512Y169823D01*
X248252Y170450D01*
X247839Y170989D01*
X247300Y171402D01*
X246673Y171661D01*
X246000Y171750D01*
D02*
G37*
G36*
X43500Y168689D02*
X42416Y168546D01*
X41406Y168127D01*
X40538Y167462D01*
X39873Y166594D01*
X39454Y165584D01*
X39311Y164500D01*
X39454Y163416D01*
X39873Y162406D01*
X40538Y161538D01*
X41406Y160873D01*
X42416Y160454D01*
X43500Y160311D01*
X44584Y160454D01*
X45594Y160873D01*
X46462Y161538D01*
X47127Y162406D01*
X47546Y163416D01*
X47689Y164500D01*
X47546Y165584D01*
X47127Y166594D01*
X46462Y167462D01*
X45594Y168127D01*
X44584Y168546D01*
X43500Y168689D01*
D02*
G37*
G36*
X33500D02*
X32416Y168546D01*
X31406Y168127D01*
X30538Y167462D01*
X29873Y166594D01*
X29454Y165584D01*
X29311Y164500D01*
X29454Y163416D01*
X29873Y162406D01*
X30538Y161538D01*
X31406Y160873D01*
X32416Y160454D01*
X33500Y160311D01*
X34584Y160454D01*
X35594Y160873D01*
X36462Y161538D01*
X37127Y162406D01*
X37546Y163416D01*
X37689Y164500D01*
X37546Y165584D01*
X37127Y166594D01*
X36462Y167462D01*
X35594Y168127D01*
X34584Y168546D01*
X33500Y168689D01*
D02*
G37*
G36*
X43500Y158689D02*
X42416Y158546D01*
X41406Y158127D01*
X40538Y157462D01*
X39873Y156594D01*
X39454Y155584D01*
X39311Y154500D01*
X39454Y153416D01*
X39873Y152406D01*
X40538Y151538D01*
X41406Y150873D01*
X42416Y150454D01*
X43500Y150311D01*
X44584Y150454D01*
X45594Y150873D01*
X46462Y151538D01*
X47127Y152406D01*
X47546Y153416D01*
X47689Y154500D01*
X47546Y155584D01*
X47127Y156594D01*
X46462Y157462D01*
X45594Y158127D01*
X44584Y158546D01*
X43500Y158689D01*
D02*
G37*
G36*
X33500D02*
X32416Y158546D01*
X31406Y158127D01*
X30538Y157462D01*
X29873Y156594D01*
X29454Y155584D01*
X29311Y154500D01*
X29454Y153416D01*
X29873Y152406D01*
X30538Y151538D01*
X31406Y150873D01*
X32416Y150454D01*
X33500Y150311D01*
X34584Y150454D01*
X35594Y150873D01*
X36462Y151538D01*
X37127Y152406D01*
X37546Y153416D01*
X37689Y154500D01*
X37546Y155584D01*
X37127Y156594D01*
X36462Y157462D01*
X35594Y158127D01*
X34584Y158546D01*
X33500Y158689D01*
D02*
G37*
G36*
X243141Y151461D02*
X242468Y151373D01*
X241841Y151113D01*
X241302Y150699D01*
X240889Y150161D01*
X240629Y149534D01*
X240541Y148861D01*
X240629Y148188D01*
X240889Y147561D01*
X241302Y147022D01*
X241841Y146609D01*
X242468Y146349D01*
X243141Y146261D01*
X243814Y146349D01*
X244441Y146609D01*
X244980Y147022D01*
X245393Y147561D01*
X245653Y148188D01*
X245741Y148861D01*
X245653Y149534D01*
X245393Y150161D01*
X244980Y150699D01*
X244441Y151113D01*
X243814Y151373D01*
X243141Y151461D01*
D02*
G37*
G36*
X43500Y148689D02*
X42416Y148546D01*
X41406Y148127D01*
X40538Y147462D01*
X39873Y146594D01*
X39454Y145584D01*
X39311Y144500D01*
X39454Y143416D01*
X39873Y142406D01*
X40538Y141538D01*
X41406Y140873D01*
X42416Y140454D01*
X43500Y140311D01*
X44584Y140454D01*
X45594Y140873D01*
X46462Y141538D01*
X47127Y142406D01*
X47546Y143416D01*
X47689Y144500D01*
X47546Y145584D01*
X47127Y146594D01*
X46462Y147462D01*
X45594Y148127D01*
X44584Y148546D01*
X43500Y148689D01*
D02*
G37*
G36*
X43500Y138689D02*
X42416Y138546D01*
X41406Y138128D01*
X40538Y137462D01*
X39873Y136595D01*
X39454Y135584D01*
X39312Y134500D01*
X39454Y133416D01*
X39873Y132406D01*
X40538Y131539D01*
X41406Y130873D01*
X42416Y130455D01*
X43500Y130312D01*
X44584Y130455D01*
X45595Y130873D01*
X46462Y131539D01*
X47128Y132406D01*
X47546Y133416D01*
X47689Y134500D01*
X47546Y135584D01*
X47128Y136595D01*
X46462Y137462D01*
X45595Y138128D01*
X44584Y138546D01*
X43500Y138689D01*
D02*
G37*
G36*
X33500D02*
X32416Y138546D01*
X31406Y138128D01*
X30538Y137462D01*
X29873Y136595D01*
X29454Y135584D01*
X29312Y134500D01*
X29454Y133416D01*
X29873Y132406D01*
X30538Y131539D01*
X31406Y130873D01*
X32416Y130455D01*
X33500Y130312D01*
X34584Y130455D01*
X35595Y130873D01*
X36462Y131539D01*
X37128Y132406D01*
X37546Y133416D01*
X37689Y134500D01*
X37546Y135584D01*
X37128Y136595D01*
X36462Y137462D01*
X35595Y138128D01*
X34584Y138546D01*
X33500Y138689D01*
D02*
G37*
G36*
X122394Y130714D02*
X121721Y130626D01*
X121094Y130366D01*
X120555Y129953D01*
X120142Y129414D01*
X119882Y128787D01*
X119793Y128114D01*
X119882Y127441D01*
X120142Y126814D01*
X120555Y126276D01*
X121094Y125862D01*
X121721Y125603D01*
X122394Y125514D01*
X123067Y125603D01*
X123694Y125862D01*
X124232Y126276D01*
X124645Y126814D01*
X124905Y127441D01*
X124994Y128114D01*
X124905Y128787D01*
X124645Y129414D01*
X124232Y129953D01*
X123694Y130366D01*
X123067Y130626D01*
X122394Y130714D01*
D02*
G37*
G36*
X219244Y128726D02*
X218571Y128637D01*
X217944Y128377D01*
X217406Y127964D01*
X216992Y127426D01*
X216733Y126798D01*
X216644Y126126D01*
X216733Y125453D01*
X216992Y124826D01*
X217406Y124287D01*
X217944Y123874D01*
X218571Y123614D01*
X219244Y123525D01*
X219917Y123614D01*
X220544Y123874D01*
X221083Y124287D01*
X221305Y124577D01*
X221907Y124576D01*
X222130Y124287D01*
X222668Y123873D01*
X223295Y123614D01*
X223969Y123525D01*
X224641Y123614D01*
X225269Y123873D01*
X225807Y124287D01*
X226220Y124825D01*
X226480Y125452D01*
X226569Y126125D01*
X226480Y126798D01*
X226220Y127425D01*
X225807Y127964D01*
X225269Y128377D01*
X224641Y128637D01*
X223969Y128726D01*
X223295Y128637D01*
X222668Y128377D01*
X222130Y127964D01*
X221908Y127674D01*
X221305Y127674D01*
X221083Y127964D01*
X220544Y128377D01*
X219917Y128637D01*
X219244Y128726D01*
D02*
G37*
G36*
X33500Y128689D02*
X32416Y128546D01*
X31406Y128127D01*
X30538Y127462D01*
X29873Y126594D01*
X29454Y125584D01*
X29311Y124500D01*
X29454Y123416D01*
X29873Y122406D01*
X30538Y121538D01*
X31406Y120873D01*
X32416Y120454D01*
X33500Y120311D01*
X34584Y120454D01*
X35594Y120873D01*
X36462Y121538D01*
X37127Y122406D01*
X37546Y123416D01*
X37689Y124500D01*
X37546Y125584D01*
X37127Y126594D01*
X36462Y127462D01*
X35594Y128127D01*
X34584Y128546D01*
X33500Y128689D01*
D02*
G37*
G36*
X136173Y120573D02*
X135500Y120484D01*
X134873Y120225D01*
X134335Y119811D01*
X133921Y119273D01*
X133662Y118646D01*
X133573Y117973D01*
X133662Y117300D01*
X133921Y116673D01*
X134335Y116134D01*
X134873Y115721D01*
X135500Y115461D01*
X136173Y115373D01*
X136846Y115461D01*
X137473Y115721D01*
X138012Y116134D01*
X138425Y116673D01*
X138685Y117300D01*
X138773Y117973D01*
X138685Y118646D01*
X138425Y119273D01*
X138012Y119811D01*
X137473Y120225D01*
X136846Y120484D01*
X136173Y120573D01*
D02*
G37*
G36*
X43500Y118689D02*
X42416Y118546D01*
X41406Y118127D01*
X40538Y117462D01*
X39873Y116594D01*
X39454Y115584D01*
X39311Y114500D01*
X39454Y113416D01*
X39873Y112406D01*
X40538Y111538D01*
X41406Y110873D01*
X42416Y110454D01*
X43500Y110311D01*
X44584Y110454D01*
X45594Y110873D01*
X46462Y111538D01*
X47127Y112406D01*
X47546Y113416D01*
X47689Y114500D01*
X47546Y115584D01*
X47127Y116594D01*
X46462Y117462D01*
X45594Y118127D01*
X44584Y118546D01*
X43500Y118689D01*
D02*
G37*
G36*
X33500D02*
X32416Y118546D01*
X31406Y118127D01*
X30538Y117462D01*
X29873Y116594D01*
X29454Y115584D01*
X29311Y114500D01*
X29454Y113416D01*
X29873Y112406D01*
X30538Y111538D01*
X31406Y110873D01*
X32416Y110454D01*
X33500Y110311D01*
X34584Y110454D01*
X35594Y110873D01*
X36462Y111538D01*
X37127Y112406D01*
X37546Y113416D01*
X37689Y114500D01*
X37546Y115584D01*
X37127Y116594D01*
X36462Y117462D01*
X35594Y118127D01*
X34584Y118546D01*
X33500Y118689D01*
D02*
G37*
G36*
X239323Y111029D02*
X238650Y110941D01*
X238023Y110681D01*
X237484Y110268D01*
X237071Y109729D01*
X236811Y109102D01*
X236723Y108429D01*
X236811Y107756D01*
X237071Y107129D01*
X237484Y106590D01*
X238023Y106177D01*
X238650Y105918D01*
X238735Y105906D01*
X238770Y105867D01*
X238931Y105376D01*
X238646Y105005D01*
X238386Y104378D01*
X238297Y103705D01*
X238386Y103032D01*
X238646Y102405D01*
X239059Y101866D01*
X239598Y101453D01*
X240225Y101193D01*
X240898Y101104D01*
X241571Y101193D01*
X242198Y101453D01*
X242736Y101866D01*
X243149Y102405D01*
X243409Y103032D01*
X243498Y103705D01*
X243409Y104378D01*
X243149Y105005D01*
X242736Y105543D01*
X242198Y105957D01*
X241571Y106216D01*
X241485Y106228D01*
X241450Y106267D01*
X241290Y106758D01*
X241575Y107129D01*
X241834Y107756D01*
X241923Y108429D01*
X241834Y109102D01*
X241575Y109729D01*
X241161Y110268D01*
X240623Y110681D01*
X239996Y110941D01*
X239323Y111029D01*
D02*
G37*
G36*
X154000Y110100D02*
X153327Y110012D01*
X152700Y109752D01*
X152161Y109339D01*
X151748Y108800D01*
X151488Y108173D01*
X151400Y107500D01*
X151488Y106827D01*
X151748Y106200D01*
X152161Y105661D01*
X152700Y105248D01*
X153327Y104988D01*
X154000Y104900D01*
X154155Y104920D01*
X154185Y104848D01*
X154598Y104309D01*
X155136Y103896D01*
X155764Y103636D01*
X156437Y103548D01*
X156475Y103552D01*
X156664Y103364D01*
X156752Y102691D01*
X157012Y102064D01*
X157425Y101525D01*
X157964Y101112D01*
X158591Y100853D01*
X159264Y100764D01*
X159937Y100853D01*
X160564Y101112D01*
X161102Y101525D01*
X161516Y102064D01*
X161775Y102691D01*
X161864Y103364D01*
X161775Y104037D01*
X161516Y104664D01*
X161439Y104765D01*
X161502Y104848D01*
X161762Y105475D01*
X161851Y106148D01*
X161762Y106821D01*
X161502Y107448D01*
X161089Y107986D01*
X160550Y108399D01*
X159923Y108659D01*
X159250Y108748D01*
X158577Y108659D01*
X157950Y108399D01*
X157843Y108318D01*
X157737Y108399D01*
X157109Y108659D01*
X156437Y108748D01*
X156282Y108728D01*
X156252Y108800D01*
X155839Y109339D01*
X155300Y109752D01*
X154673Y110012D01*
X154000Y110100D01*
D02*
G37*
G36*
X33500Y108689D02*
X32416Y108546D01*
X31406Y108127D01*
X30538Y107462D01*
X29873Y106594D01*
X29454Y105584D01*
X29311Y104500D01*
X29454Y103416D01*
X29873Y102406D01*
X30538Y101538D01*
X31406Y100873D01*
X32416Y100454D01*
X33500Y100311D01*
X34584Y100454D01*
X35594Y100873D01*
X36462Y101538D01*
X37127Y102406D01*
X37546Y103416D01*
X37689Y104500D01*
X37546Y105584D01*
X37127Y106594D01*
X36462Y107462D01*
X35594Y108127D01*
X34584Y108546D01*
X33500Y108689D01*
D02*
G37*
G36*
X43500Y98689D02*
X42416Y98546D01*
X41406Y98127D01*
X40538Y97462D01*
X39873Y96594D01*
X39454Y95584D01*
X39311Y94500D01*
X39454Y93416D01*
X39873Y92406D01*
X40538Y91538D01*
X41406Y90873D01*
X42416Y90454D01*
X43500Y90311D01*
X44584Y90454D01*
X45594Y90873D01*
X46462Y91538D01*
X47127Y92406D01*
X47546Y93416D01*
X47689Y94500D01*
X47546Y95584D01*
X47127Y96594D01*
X46462Y97462D01*
X45594Y98127D01*
X44584Y98546D01*
X43500Y98689D01*
D02*
G37*
G36*
X33500D02*
X32416Y98546D01*
X31406Y98127D01*
X30538Y97462D01*
X29873Y96594D01*
X29454Y95584D01*
X29311Y94500D01*
X29454Y93416D01*
X29873Y92406D01*
X30538Y91538D01*
X31406Y90873D01*
X32416Y90454D01*
X33500Y90311D01*
X34584Y90454D01*
X35594Y90873D01*
X36462Y91538D01*
X37127Y92406D01*
X37546Y93416D01*
X37689Y94500D01*
X37546Y95584D01*
X37127Y96594D01*
X36462Y97462D01*
X35594Y98127D01*
X34584Y98546D01*
X33500Y98689D01*
D02*
G37*
G36*
X92866Y102718D02*
X91435Y102577D01*
X90058Y102159D01*
X88789Y101481D01*
X87678Y100568D01*
X86765Y99457D01*
X86087Y98188D01*
X85669Y96811D01*
X85528Y95380D01*
X85669Y93949D01*
X86087Y92572D01*
X86765Y91303D01*
X87678Y90192D01*
X88789Y89279D01*
X90058Y88601D01*
X91435Y88183D01*
X92866Y88042D01*
X94298Y88183D01*
X95674Y88601D01*
X96943Y89279D01*
X98055Y90192D01*
X98967Y91303D01*
X99645Y92572D01*
X100063Y93949D01*
X100204Y95380D01*
X100063Y96811D01*
X99645Y98188D01*
X98967Y99457D01*
X98055Y100568D01*
X96943Y101481D01*
X95674Y102159D01*
X94298Y102577D01*
X92866Y102718D01*
D02*
G37*
G36*
X245228Y100037D02*
X244555Y99949D01*
X243928Y99689D01*
X243390Y99276D01*
X242976Y98737D01*
X242717Y98110D01*
X242628Y97437D01*
X242717Y96764D01*
X242976Y96137D01*
X243390Y95598D01*
X243890Y95214D01*
X243925Y94937D01*
X243890Y94660D01*
X243390Y94276D01*
X242976Y93737D01*
X242717Y93110D01*
X242628Y92437D01*
X242717Y91764D01*
X242921Y91271D01*
X242896Y91143D01*
X242772Y90905D01*
X242640Y90755D01*
X242151Y90690D01*
X241524Y90431D01*
X240985Y90017D01*
X240572Y89479D01*
X240313Y88852D01*
X240224Y88179D01*
X240313Y87506D01*
X240572Y86879D01*
X240985Y86340D01*
X241524Y85927D01*
X242151Y85667D01*
X242824Y85579D01*
X243497Y85667D01*
X244124Y85927D01*
X244663Y86340D01*
X245076Y86879D01*
X245336Y87506D01*
X245424Y88179D01*
X245336Y88852D01*
X245131Y89345D01*
X245157Y89473D01*
X245280Y89711D01*
X245413Y89861D01*
X245901Y89925D01*
X246529Y90185D01*
X247067Y90598D01*
X247480Y91137D01*
X247740Y91764D01*
X247829Y92437D01*
X247740Y93110D01*
X247480Y93737D01*
X247067Y94276D01*
X246566Y94660D01*
X246532Y94937D01*
X246566Y95214D01*
X247067Y95598D01*
X247480Y96137D01*
X247740Y96764D01*
X247829Y97437D01*
X247740Y98110D01*
X247480Y98737D01*
X247067Y99276D01*
X246529Y99689D01*
X245901Y99949D01*
X245228Y100037D01*
D02*
G37*
G36*
X43500Y88689D02*
X42416Y88546D01*
X41406Y88127D01*
X40538Y87462D01*
X39873Y86594D01*
X39454Y85584D01*
X39311Y84500D01*
X39454Y83416D01*
X39873Y82406D01*
X40538Y81538D01*
X41406Y80873D01*
X42416Y80454D01*
X43500Y80311D01*
X44584Y80454D01*
X45594Y80873D01*
X46462Y81538D01*
X47127Y82406D01*
X47546Y83416D01*
X47689Y84500D01*
X47546Y85584D01*
X47127Y86594D01*
X46462Y87462D01*
X45594Y88127D01*
X44584Y88546D01*
X43500Y88689D01*
D02*
G37*
G36*
X33500D02*
X32416Y88546D01*
X31406Y88127D01*
X30538Y87462D01*
X29873Y86594D01*
X29454Y85584D01*
X29311Y84500D01*
X29454Y83416D01*
X29873Y82406D01*
X30538Y81538D01*
X31406Y80873D01*
X32416Y80454D01*
X33500Y80311D01*
X34584Y80454D01*
X35594Y80873D01*
X36462Y81538D01*
X37127Y82406D01*
X37546Y83416D01*
X37689Y84500D01*
X37546Y85584D01*
X37127Y86594D01*
X36462Y87462D01*
X35594Y88127D01*
X34584Y88546D01*
X33500Y88689D01*
D02*
G37*
G36*
X140661Y83217D02*
X139320Y83040D01*
X138071Y82523D01*
X136998Y81699D01*
X136174Y80626D01*
X135911Y79992D01*
X135411D01*
X135149Y80626D01*
X134325Y81699D01*
X133252Y82523D01*
X132002Y83040D01*
X130661Y83217D01*
X129320Y83040D01*
X128071Y82523D01*
X126998Y81699D01*
X126174Y80626D01*
X125911Y79992D01*
X125411D01*
X125149Y80626D01*
X124325Y81699D01*
X123252Y82523D01*
X122002Y83040D01*
X120661Y83217D01*
X119320Y83040D01*
X118071Y82523D01*
X116998Y81699D01*
X116174Y80626D01*
X115657Y79377D01*
X115480Y78035D01*
X115657Y76694D01*
X116174Y75445D01*
X116998Y74372D01*
X118071Y73548D01*
X119320Y73031D01*
X120661Y72854D01*
X122002Y73031D01*
X123252Y73548D01*
X124325Y74372D01*
X125149Y75445D01*
X125411Y76079D01*
X125911D01*
X126174Y75445D01*
X126998Y74372D01*
X128071Y73548D01*
X129320Y73031D01*
X130661Y72854D01*
X132002Y73031D01*
X133252Y73548D01*
X134325Y74372D01*
X135149Y75445D01*
X135411Y76079D01*
X135911D01*
X136174Y75445D01*
X136998Y74372D01*
X138071Y73548D01*
X139320Y73031D01*
X140661Y72854D01*
X142002Y73031D01*
X143252Y73548D01*
X144325Y74372D01*
X145149Y75445D01*
X145666Y76694D01*
X145843Y78035D01*
X145666Y79377D01*
X145149Y80626D01*
X144325Y81699D01*
X143252Y82523D01*
X142002Y83040D01*
X140661Y83217D01*
D02*
G37*
G36*
X244441Y84651D02*
X243767Y84563D01*
X243140Y84303D01*
X242602Y83890D01*
X242189Y83351D01*
X241929Y82724D01*
X241840Y82051D01*
X241929Y81378D01*
X242189Y80751D01*
X242602Y80212D01*
X242702Y80136D01*
Y79506D01*
X242484Y79339D01*
X242071Y78800D01*
X241811Y78173D01*
X241722Y77500D01*
X241811Y76827D01*
X242071Y76200D01*
X242484Y75661D01*
X243023Y75248D01*
X243650Y74988D01*
X244323Y74900D01*
X244996Y74988D01*
X245623Y75248D01*
X246161Y75661D01*
X246574Y76200D01*
X246834Y76827D01*
X246923Y77500D01*
X246834Y78173D01*
X246574Y78800D01*
X246161Y79339D01*
X246061Y79415D01*
Y80045D01*
X246279Y80212D01*
X246692Y80751D01*
X246952Y81378D01*
X247041Y82051D01*
X246952Y82724D01*
X246692Y83351D01*
X246279Y83890D01*
X245741Y84303D01*
X245113Y84563D01*
X244441Y84651D01*
D02*
G37*
G36*
X104630Y80298D02*
X96325D01*
Y71993D01*
X104630D01*
Y80298D01*
D02*
G37*
G36*
X43500Y78689D02*
X42416Y78546D01*
X41406Y78127D01*
X40538Y77462D01*
X39873Y76594D01*
X39454Y75584D01*
X39312Y74500D01*
X39454Y73416D01*
X39873Y72406D01*
X40538Y71538D01*
X41406Y70873D01*
X42416Y70454D01*
X43500Y70311D01*
X44584Y70454D01*
X45595Y70873D01*
X46462Y71538D01*
X47128Y72406D01*
X47546Y73416D01*
X47689Y74500D01*
X47546Y75584D01*
X47128Y76594D01*
X46462Y77462D01*
X45595Y78127D01*
X44584Y78546D01*
X43500Y78689D01*
D02*
G37*
G36*
X139716Y70106D02*
X139044Y70017D01*
X138416Y69758D01*
X137878Y69345D01*
X137465Y68806D01*
X137205Y68179D01*
X137116Y67506D01*
X137205Y66833D01*
X137465Y66206D01*
X137878Y65667D01*
X138416Y65254D01*
X139044Y64994D01*
X139716Y64906D01*
X140390Y64994D01*
X141017Y65254D01*
X141555Y65667D01*
X141968Y66206D01*
X142228Y66833D01*
X142317Y67506D01*
X142228Y68179D01*
X141968Y68806D01*
X141555Y69345D01*
X141017Y69758D01*
X140390Y70017D01*
X139716Y70106D01*
D02*
G37*
G36*
X272050Y68189D02*
X270966Y68046D01*
X269956Y67627D01*
X269088Y66962D01*
X268423Y66094D01*
X268004Y65084D01*
X267861Y64000D01*
X268004Y62916D01*
X268423Y61906D01*
X269088Y61038D01*
X269956Y60373D01*
X270966Y59954D01*
X272050Y59811D01*
X273134Y59954D01*
X274144Y60373D01*
X275012Y61038D01*
X275677Y61906D01*
X276096Y62916D01*
X276239Y64000D01*
X276096Y65084D01*
X275677Y66094D01*
X275012Y66962D01*
X274144Y67627D01*
X273134Y68046D01*
X272050Y68189D01*
D02*
G37*
G36*
X242050D02*
X240966Y68046D01*
X239956Y67627D01*
X239088Y66962D01*
X238423Y66094D01*
X238004Y65084D01*
X237861Y64000D01*
X238004Y62916D01*
X238423Y61906D01*
X239088Y61038D01*
X239956Y60373D01*
X240966Y59954D01*
X242050Y59811D01*
X243134Y59954D01*
X244144Y60373D01*
X245012Y61038D01*
X245677Y61906D01*
X246096Y62916D01*
X246239Y64000D01*
X246096Y65084D01*
X245677Y66094D01*
X245012Y66962D01*
X244144Y67627D01*
X243134Y68046D01*
X242050Y68189D01*
D02*
G37*
G36*
X232050D02*
X230966Y68046D01*
X229956Y67627D01*
X229088Y66962D01*
X228423Y66094D01*
X228004Y65084D01*
X227861Y64000D01*
X228004Y62916D01*
X228423Y61906D01*
X229088Y61038D01*
X229956Y60373D01*
X230966Y59954D01*
X232050Y59811D01*
X233134Y59954D01*
X234144Y60373D01*
X235012Y61038D01*
X235677Y61906D01*
X236096Y62916D01*
X236239Y64000D01*
X236096Y65084D01*
X235677Y66094D01*
X235012Y66962D01*
X234144Y67627D01*
X233134Y68046D01*
X232050Y68189D01*
D02*
G37*
G36*
X222050D02*
X220966Y68046D01*
X219956Y67627D01*
X219088Y66962D01*
X218423Y66094D01*
X218004Y65084D01*
X217861Y64000D01*
X218004Y62916D01*
X218423Y61906D01*
X219088Y61038D01*
X219956Y60373D01*
X220966Y59954D01*
X222050Y59811D01*
X223134Y59954D01*
X224144Y60373D01*
X225012Y61038D01*
X225677Y61906D01*
X226096Y62916D01*
X226239Y64000D01*
X226096Y65084D01*
X225677Y66094D01*
X225012Y66962D01*
X224144Y67627D01*
X223134Y68046D01*
X222050Y68189D01*
D02*
G37*
G36*
X106803Y60067D02*
X105462Y59891D01*
X104212Y59373D01*
X103139Y58550D01*
X102316Y57477D01*
X102053Y56842D01*
X101553D01*
X101290Y57477D01*
X100467Y58550D01*
X99394Y59373D01*
X98144Y59891D01*
X96803Y60067D01*
X95462Y59891D01*
X94213Y59373D01*
X93139Y58550D01*
X92316Y57477D01*
X91798Y56227D01*
X91622Y54886D01*
X91798Y53545D01*
X92316Y52295D01*
X93139Y51222D01*
X94213Y50399D01*
X95462Y49881D01*
X96803Y49705D01*
X98144Y49881D01*
X99394Y50399D01*
X100467Y51222D01*
X101290Y52295D01*
X101553Y52930D01*
X102053D01*
X102316Y52295D01*
X103139Y51222D01*
X104212Y50399D01*
X105462Y49881D01*
X106803Y49705D01*
X108144Y49881D01*
X109394Y50399D01*
X110467Y51222D01*
X111290Y52295D01*
X111808Y53545D01*
X111985Y54886D01*
X111808Y56227D01*
X111290Y57477D01*
X110467Y58550D01*
X109394Y59373D01*
X108144Y59891D01*
X106803Y60067D01*
D02*
G37*
G36*
X140661Y63785D02*
X139173Y63589D01*
X137787Y63014D01*
X136596Y62101D01*
X135682Y60910D01*
X135108Y59523D01*
X134912Y58035D01*
X135108Y56547D01*
X135682Y55161D01*
X136596Y53970D01*
X137787Y53057D01*
X139173Y52482D01*
X140661Y52286D01*
X142149Y52482D01*
X143536Y53057D01*
X144727Y53970D01*
X145640Y55161D01*
X146215Y56547D01*
X146411Y58035D01*
X146215Y59523D01*
X145640Y60910D01*
X144727Y62101D01*
X143536Y63014D01*
X142149Y63589D01*
X140661Y63785D01*
D02*
G37*
G36*
X120661D02*
X119173Y63589D01*
X117787Y63014D01*
X116596Y62101D01*
X115682Y60910D01*
X115108Y59523D01*
X114912Y58035D01*
X115108Y56547D01*
X115682Y55161D01*
X116596Y53970D01*
X117787Y53057D01*
X119173Y52482D01*
X120661Y52286D01*
X122149Y52482D01*
X123536Y53057D01*
X124727Y53970D01*
X125640Y55161D01*
X126215Y56547D01*
X126411Y58035D01*
X126215Y59523D01*
X125640Y60910D01*
X124727Y62101D01*
X123536Y63014D01*
X122149Y63589D01*
X120661Y63785D01*
D02*
G37*
G36*
X272050Y58189D02*
X270966Y58046D01*
X269956Y57627D01*
X269088Y56962D01*
X268423Y56094D01*
X268004Y55084D01*
X267861Y54000D01*
X268004Y52916D01*
X268423Y51906D01*
X269088Y51038D01*
X269956Y50373D01*
X270966Y49954D01*
X272050Y49811D01*
X273134Y49954D01*
X274144Y50373D01*
X275012Y51038D01*
X275677Y51906D01*
X276096Y52916D01*
X276239Y54000D01*
X276096Y55084D01*
X275677Y56094D01*
X275012Y56962D01*
X274144Y57627D01*
X273134Y58046D01*
X272050Y58189D01*
D02*
G37*
G36*
X242050D02*
X240966Y58046D01*
X239956Y57627D01*
X239088Y56962D01*
X238423Y56094D01*
X238004Y55084D01*
X237861Y54000D01*
X238004Y52916D01*
X238423Y51906D01*
X239088Y51038D01*
X239956Y50373D01*
X240966Y49954D01*
X242050Y49811D01*
X243134Y49954D01*
X244144Y50373D01*
X245012Y51038D01*
X245677Y51906D01*
X246096Y52916D01*
X246239Y54000D01*
X246096Y55084D01*
X245677Y56094D01*
X245012Y56962D01*
X244144Y57627D01*
X243134Y58046D01*
X242050Y58189D01*
D02*
G37*
G36*
X38811Y62600D02*
X37379Y62459D01*
X36003Y62041D01*
X34734Y61363D01*
X33622Y60451D01*
X32710Y59339D01*
X32032Y58070D01*
X31614Y56694D01*
X31473Y55262D01*
X31614Y53831D01*
X32032Y52454D01*
X32710Y51186D01*
X33622Y50074D01*
X34734Y49161D01*
X36003Y48483D01*
X37379Y48066D01*
X38811Y47925D01*
X40242Y48066D01*
X41619Y48483D01*
X42887Y49161D01*
X43999Y50074D01*
X44912Y51186D01*
X45590Y52454D01*
X46007Y53831D01*
X46148Y55262D01*
X46007Y56694D01*
X45590Y58070D01*
X44912Y59339D01*
X43999Y60451D01*
X42887Y61363D01*
X41619Y62041D01*
X40242Y62459D01*
X38811Y62600D01*
D02*
G37*
%LPD*%
G36*
X155170Y296390D02*
X155248Y296200D01*
X155661Y295661D01*
X156200Y295248D01*
X156827Y294988D01*
X157500Y294900D01*
X158173Y294988D01*
X158800Y295248D01*
X159000Y295402D01*
X159200Y295248D01*
X159827Y294988D01*
X160500Y294900D01*
X161173Y294988D01*
X161800Y295248D01*
X162339Y295661D01*
X162672Y296095D01*
X163239Y296235D01*
X170857Y288617D01*
Y247809D01*
X168568Y245520D01*
X168193Y244957D01*
X168061Y244294D01*
Y239059D01*
X168193Y238396D01*
X168568Y237833D01*
X168958Y237444D01*
X168900Y237000D01*
X168988Y236327D01*
X169248Y235700D01*
X169661Y235161D01*
X170200Y234748D01*
X170827Y234488D01*
X171500Y234400D01*
X172173Y234488D01*
X172800Y234748D01*
X173339Y235161D01*
X173752Y235700D01*
X174012Y236327D01*
X174100Y237000D01*
X174012Y237673D01*
X173898Y237948D01*
X174173Y238488D01*
X174179Y238491D01*
X174800Y238748D01*
X175088Y238969D01*
X175161Y238874D01*
X175700Y238461D01*
X176327Y238201D01*
X177000Y238112D01*
X177673Y238201D01*
X178300Y238461D01*
X178839Y238874D01*
X179252Y239412D01*
X179512Y240040D01*
X179555Y240370D01*
X180086Y240686D01*
X180382Y240563D01*
X181055Y240475D01*
X181728Y240563D01*
X182355Y240823D01*
X182894Y241236D01*
X183307Y241775D01*
X183567Y242402D01*
X183655Y243075D01*
X183567Y243748D01*
X183307Y244375D01*
X182894Y244913D01*
X182355Y245327D01*
X181728Y245586D01*
X181055Y245675D01*
X180923Y245658D01*
X180091Y246490D01*
Y252064D01*
X180553Y252255D01*
X186193Y246616D01*
Y230480D01*
X185890Y230085D01*
X185630Y229458D01*
X185541Y228785D01*
X185614Y228233D01*
X185516Y227987D01*
X185259Y227702D01*
X184752Y227601D01*
X184190Y227226D01*
X181323Y224359D01*
X166285D01*
X166038Y224859D01*
X166104Y224944D01*
X166364Y225571D01*
X166452Y226244D01*
X166364Y226917D01*
X166104Y227544D01*
X165691Y228083D01*
X165152Y228496D01*
X164525Y228756D01*
X163852Y228844D01*
X163179Y228756D01*
X162552Y228496D01*
X162013Y228083D01*
X161600Y227544D01*
X161340Y226917D01*
X161252Y226244D01*
X161340Y225571D01*
X161600Y224944D01*
X161666Y224859D01*
X161419Y224359D01*
X158517D01*
X158298Y224859D01*
X158512Y225374D01*
X158600Y226047D01*
X158512Y226720D01*
X158252Y227347D01*
X157839Y227886D01*
X157300Y228299D01*
X156673Y228559D01*
X156000Y228647D01*
X155868Y228630D01*
X150320Y234178D01*
Y242275D01*
X150188Y242938D01*
X149812Y243501D01*
X147733Y245580D01*
Y289541D01*
X154679Y296487D01*
X155170Y296390D01*
D02*
G37*
G36*
X226605Y223106D02*
X227232Y222846D01*
X227905Y222758D01*
X228064Y222779D01*
X228497Y222331D01*
X228455Y222012D01*
X228508Y221609D01*
X228138Y221183D01*
X228082Y221161D01*
X227905Y221184D01*
X227232Y221096D01*
X226605Y220836D01*
X226066Y220423D01*
X225653Y219884D01*
X225394Y219257D01*
X225305Y218584D01*
X225394Y217911D01*
X225653Y217284D01*
X226066Y216746D01*
X226172Y216665D01*
Y212342D01*
X225274Y211444D01*
X224899Y210882D01*
X224767Y210219D01*
Y194359D01*
X204184Y173777D01*
X196215D01*
X193687Y176305D01*
X193878Y176767D01*
X203165D01*
X203829Y176899D01*
X204391Y177274D01*
X207045Y179929D01*
X207421Y180491D01*
X207553Y181154D01*
Y191771D01*
X221226Y205444D01*
X221601Y206006D01*
X221733Y206669D01*
Y219282D01*
X225668Y223217D01*
X225745Y223275D01*
X226347Y223304D01*
X226605Y223106D01*
D02*
G37*
G36*
X135385Y220748D02*
Y215555D01*
X135517Y214892D01*
X135892Y214330D01*
X148220Y202003D01*
Y199904D01*
X147720Y199697D01*
X133182Y214234D01*
Y220026D01*
X134073Y220917D01*
X134205Y220900D01*
X134878Y220988D01*
X134969Y221026D01*
X135385Y220748D01*
D02*
G37*
G36*
X203727Y221904D02*
X203736Y221767D01*
X203652Y221126D01*
X203706Y220715D01*
X203360Y220268D01*
X203290Y220233D01*
X185754D01*
X185562Y220695D01*
X187134Y222267D01*
X203484D01*
X203727Y221904D01*
D02*
G37*
G36*
X203669Y216041D02*
X203652Y215910D01*
X203740Y215236D01*
X204000Y214609D01*
X204165Y214394D01*
X203661Y214008D01*
X203248Y213469D01*
X202988Y212842D01*
X202900Y212169D01*
X202988Y211496D01*
X203248Y210869D01*
X203661Y210331D01*
X204200Y209917D01*
X204827Y209658D01*
X205220Y209606D01*
Y209102D01*
X204876Y209056D01*
X204249Y208797D01*
X203710Y208383D01*
X203640Y208291D01*
X203067Y208367D01*
X202992Y208548D01*
X202579Y209087D01*
X202040Y209500D01*
X201413Y209760D01*
X200740Y209848D01*
X200067Y209760D01*
X199440Y209500D01*
X198901Y209087D01*
X198488Y208548D01*
X198229Y207921D01*
X198188Y207614D01*
X197665Y207474D01*
X197584Y207581D01*
X197045Y207994D01*
X196418Y208254D01*
X195745Y208342D01*
X195072Y208254D01*
X194445Y207994D01*
X193906Y207581D01*
X193493Y207042D01*
X193234Y206415D01*
X193145Y205742D01*
X193234Y205069D01*
X193493Y204442D01*
X193906Y203903D01*
X194445Y203490D01*
X195072Y203230D01*
X195745Y203142D01*
X196418Y203230D01*
X197045Y203490D01*
X197584Y203903D01*
X197997Y204442D01*
X198257Y205069D01*
X198297Y205376D01*
X198820Y205516D01*
X198901Y205409D01*
X199440Y204996D01*
X200067Y204736D01*
X200740Y204648D01*
X201413Y204736D01*
X202040Y204996D01*
X202579Y205409D01*
X202649Y205501D01*
X203222Y205426D01*
X203297Y205245D01*
X203710Y204706D01*
X204249Y204293D01*
X204876Y204033D01*
X205549Y203945D01*
X206222Y204033D01*
X206748Y204251D01*
X207031Y203827D01*
X205102Y201898D01*
X197750D01*
X197750Y201898D01*
X197734Y201895D01*
X195228D01*
X194565Y201763D01*
X194003Y201387D01*
X191817Y199201D01*
X191685Y199218D01*
X191012Y199130D01*
X190385Y198870D01*
X189846Y198457D01*
X189433Y197918D01*
X189173Y197291D01*
X189085Y196618D01*
X189173Y195945D01*
X189433Y195318D01*
X189846Y194780D01*
X190385Y194366D01*
X191012Y194106D01*
X191685Y194018D01*
X192358Y194106D01*
X192985Y194366D01*
X193524Y194780D01*
X193858Y195215D01*
X194080Y195261D01*
X194213D01*
X194435Y195215D01*
X194769Y194780D01*
X195308Y194366D01*
X195935Y194106D01*
X196608Y194018D01*
X197281Y194106D01*
X197908Y194366D01*
X198446Y194780D01*
X198860Y195318D01*
X199119Y195945D01*
X199208Y196618D01*
X199307Y196731D01*
X204442D01*
X204633Y196269D01*
X202635Y194271D01*
X202259Y193709D01*
X202127Y193045D01*
Y184074D01*
X202000Y183962D01*
X201327Y183874D01*
X200700Y183614D01*
X200161Y183201D01*
X199748Y182662D01*
X199488Y182035D01*
X199400Y181362D01*
X199483Y180733D01*
X199459Y180580D01*
X199227Y180233D01*
X193512D01*
X166843Y206902D01*
Y211060D01*
X166949Y211141D01*
X167362Y211679D01*
X167622Y212306D01*
X167710Y212980D01*
X167622Y213652D01*
X167441Y214089D01*
X167706Y214589D01*
X173395D01*
X174597Y213386D01*
Y208183D01*
X174492Y208102D01*
X174079Y207564D01*
X173819Y206937D01*
X173731Y206264D01*
X173819Y205591D01*
X174079Y204964D01*
X174492Y204425D01*
X175031Y204012D01*
X175658Y203752D01*
X176331Y203663D01*
X177004Y203752D01*
X177631Y204012D01*
X178169Y204425D01*
X178583Y204964D01*
X178842Y205591D01*
X178931Y206264D01*
X178842Y206937D01*
X178583Y207564D01*
X178169Y208102D01*
X178064Y208183D01*
Y214104D01*
X177932Y214768D01*
X177556Y215330D01*
X176582Y216305D01*
X176773Y216767D01*
X202943D01*
X203669Y216041D01*
D02*
G37*
%LPC*%
G36*
X221500Y203100D02*
X220827Y203012D01*
X220200Y202752D01*
X219661Y202339D01*
X219248Y201800D01*
X218988Y201173D01*
X218900Y200500D01*
X218988Y199827D01*
X219248Y199200D01*
X219661Y198661D01*
X220200Y198248D01*
X220827Y197988D01*
X221500Y197900D01*
X222173Y197988D01*
X222800Y198248D01*
X223339Y198661D01*
X223752Y199200D01*
X224012Y199827D01*
X224100Y200500D01*
X224012Y201173D01*
X223752Y201800D01*
X223339Y202339D01*
X222800Y202752D01*
X222173Y203012D01*
X221500Y203100D01*
D02*
G37*
G36*
X269362Y108445D02*
X268387Y108251D01*
X267560Y107698D01*
X267008Y106872D01*
X266814Y105896D01*
X267008Y104921D01*
X267560Y104095D01*
X268387Y103542D01*
X269362Y103348D01*
X270337Y103542D01*
X271164Y104095D01*
X271716Y104921D01*
X271910Y105896D01*
X271716Y106872D01*
X271164Y107698D01*
X270337Y108251D01*
X269362Y108445D01*
D02*
G37*
%LPD*%
D11*
X159906Y71034D02*
X165926D01*
X165960Y71000D01*
X167362Y118273D02*
Y118646D01*
Y118273D02*
X172281Y113354D01*
X117517Y333433D02*
X130710Y320240D01*
X112053Y333433D02*
X117517D01*
X130710Y320240D02*
X154199D01*
X131899Y344706D02*
X135386Y348193D01*
X131899Y330420D02*
Y344706D01*
Y330420D02*
X134598Y327720D01*
X117000Y353500D02*
X124500Y346000D01*
Y329157D02*
Y346000D01*
Y329157D02*
X131574Y322083D01*
X167669Y305083D02*
Y325236D01*
X162000Y330906D02*
X167669Y325236D01*
X162000Y330906D02*
Y348500D01*
X175243Y326495D02*
X189495D01*
X173575Y324827D02*
X175243Y326495D01*
X173575Y307642D02*
Y324827D01*
X173363Y328638D02*
X179246D01*
X189495Y326495D02*
X192127Y329127D01*
X179246Y328638D02*
X182355Y331747D01*
X171606Y326881D02*
X173363Y328638D01*
X171606Y306854D02*
Y326881D01*
X182355Y331747D02*
Y348145D01*
X187000Y344142D02*
X192127Y339015D01*
Y329127D02*
Y339015D01*
X177000Y353500D02*
X182355Y348145D01*
X167000Y353500D02*
X172000Y348500D01*
Y331000D02*
Y348500D01*
X169638Y328638D02*
X172000Y331000D01*
X157000Y353500D02*
X162000Y348500D01*
X264491Y81684D02*
X274000D01*
X260898D02*
X264491D01*
X264368Y81806D02*
X264491Y81684D01*
X264368Y81806D02*
Y99651D01*
X263438Y100582D02*
X264368Y99651D01*
X260898Y100582D02*
X263438D01*
X274000Y81684D02*
X277827D01*
X273451Y82233D02*
X274000Y81684D01*
X273451Y82233D02*
Y99457D01*
X274576Y100582D01*
X277827D01*
X224500Y224500D02*
Y229000D01*
X220000Y220000D02*
X224500Y224500D01*
X220000Y206669D02*
Y220000D01*
X205820Y192489D02*
X220000Y206669D01*
X218000Y207185D02*
Y223193D01*
X203860Y193045D02*
X218000Y207185D01*
X204677Y236516D02*
X218000Y223193D01*
X204677Y236516D02*
Y244256D01*
X212500Y226000D02*
X216000Y222500D01*
Y207941D02*
Y222500D01*
X206524Y198465D02*
X216000Y207941D01*
X214000Y208345D02*
Y222096D01*
X212096Y224000D02*
X214000Y222096D01*
X186416Y224000D02*
X212096D01*
X185416Y226000D02*
X212500D01*
X205820Y200165D02*
X214000Y208345D01*
X205820Y181154D02*
Y192489D01*
X203165Y178500D02*
X205820Y181154D01*
X203860Y183222D02*
Y193045D01*
X202000Y181362D02*
X203860Y183222D01*
X228200Y208330D02*
X231055Y211185D01*
X228200Y192937D02*
Y208330D01*
X228000Y192737D02*
X228200Y192937D01*
X228000Y192382D02*
Y192737D01*
X226500Y210219D02*
X227905Y211624D01*
X226500Y193641D02*
Y210219D01*
X204902Y172043D02*
X226500Y193641D01*
X205858Y170240D02*
X228000Y192382D01*
X247984Y202480D02*
Y212051D01*
X235500Y224535D02*
X247984Y212051D01*
X235500Y224535D02*
Y230000D01*
X250847Y197207D02*
Y199618D01*
X249140Y195500D02*
X250847Y197207D01*
X245958Y195500D02*
X249140D01*
X247984Y202480D02*
X250847Y199618D01*
X245105Y196353D02*
X245958Y195500D01*
X233500Y232000D02*
X235500Y230000D01*
X227500Y232000D02*
X233500D01*
X224500Y229000D02*
X227500Y232000D01*
X227905Y211624D02*
Y218584D01*
X192794Y178500D02*
X203165D01*
X165110Y206184D02*
X192794Y178500D01*
X195497Y172043D02*
X204902D01*
X175342Y192198D02*
X195497Y172043D01*
X163646Y192198D02*
X175342D01*
X194713Y170240D02*
X205858D01*
X175453Y189500D02*
X194713Y170240D01*
X155465Y189500D02*
X175453D01*
X160386Y195458D02*
X163646Y192198D01*
X131449Y213516D02*
X155465Y189500D01*
X131449Y213516D02*
Y220744D01*
X165110Y206184D02*
Y212980D01*
X131449Y220744D02*
X134205Y223500D01*
X171500Y237000D02*
Y237353D01*
X173500Y241000D02*
X173665D01*
X174422Y241757D01*
X133500Y301425D02*
X133811Y301736D01*
X133500Y240894D02*
Y301425D01*
Y240894D02*
X137118Y237276D01*
X135500Y294370D02*
X138535Y297406D01*
X135500Y241713D02*
Y294370D01*
Y241713D02*
X139107Y238106D01*
X137500Y292724D02*
X141113Y296338D01*
X137500Y242500D02*
Y292724D01*
Y242500D02*
X141113Y238887D01*
X137118Y215555D02*
Y237276D01*
X139107Y216322D02*
Y238106D01*
X176331Y206264D02*
Y214104D01*
X174113Y216322D02*
X176331Y214104D01*
X150835Y216322D02*
X174113D01*
X203661Y218500D02*
X206252Y215910D01*
X151693Y218500D02*
X203661D01*
X143000Y227193D02*
X151693Y218500D01*
X182916Y220500D02*
X186416Y224000D01*
X152216Y220500D02*
X182916D01*
X145000Y227716D02*
X152216Y220500D01*
X182041Y222625D02*
X185416Y226000D01*
X152784Y222625D02*
X182041D01*
X146803Y228606D02*
X152784Y222625D01*
X148587Y233460D02*
Y242275D01*
Y233460D02*
X156000Y226047D01*
X169794Y239059D02*
X171500Y237353D01*
X169794Y239059D02*
Y244294D01*
X172591Y247091D02*
Y289335D01*
X169794Y244294D02*
X172591Y247091D01*
X131574Y322083D02*
X155196D01*
X159795Y317484D01*
X154199Y320240D02*
X157825Y316615D01*
X212000Y63969D02*
Y72087D01*
X216013Y141806D02*
X221777Y136042D01*
X222659Y135160D01*
X197197Y58772D02*
Y67202D01*
X199797Y69803D01*
Y76897D01*
X197318Y79377D02*
X199797Y76897D01*
X186879Y79377D02*
X197318D01*
X188101Y81191D02*
X198028D01*
X201921Y64047D02*
Y77297D01*
X198028Y81191D02*
X201921Y77297D01*
X207000Y58969D02*
Y74636D01*
X191291Y90345D02*
X207000Y74636D01*
X191291Y90345D02*
Y125752D01*
X193063Y91024D02*
X212000Y72087D01*
X193063Y91024D02*
Y127524D01*
X206712Y79891D02*
X208040D01*
X194835Y91768D02*
X206712Y79891D01*
X194835Y91768D02*
Y123784D01*
X204442Y86000D02*
X205294Y85148D01*
X202709Y87733D02*
X204442Y86000D01*
X202709Y87733D02*
Y122337D01*
X184546Y81710D02*
X186879Y79377D01*
X186246Y83046D02*
X188101Y81191D01*
X195709Y141806D02*
X216013D01*
X256252Y78863D02*
Y114220D01*
Y78863D02*
X257359Y77756D01*
Y50805D02*
Y77756D01*
X254055Y47500D02*
X257359Y50805D01*
X169638Y305865D02*
Y328638D01*
X187000Y344142D02*
Y353500D01*
X86352Y201933D02*
X99000D01*
X73850Y214435D02*
X86352Y201933D01*
X99000D02*
X102059Y198874D01*
X122500D01*
X143500Y296175D02*
Y303107D01*
X139107Y307500D02*
X143500Y303107D01*
X136000Y307500D02*
X139107D01*
X130000Y313500D02*
X136000Y307500D01*
X120000Y308500D02*
Y313500D01*
Y308500D02*
X123417Y305083D01*
X137551D01*
X141113Y301520D01*
X234585Y198980D02*
X234979Y199374D01*
X234500Y198895D02*
X234895Y198500D01*
X235638Y200033D02*
X246551D01*
X234895Y198500D02*
X235000D01*
X246551Y200033D02*
X247984Y198600D01*
X234500Y198895D02*
X234585Y198980D01*
X234979Y199374D02*
X235638Y200033D01*
X172281Y70106D02*
Y113354D01*
X165960Y71000D02*
X170949Y66011D01*
Y63785D02*
Y66011D01*
X175500Y50806D02*
Y78859D01*
X179874Y83232D01*
X175500Y50806D02*
X178806Y47500D01*
X177500Y77213D02*
X182846Y82558D01*
X177500Y51941D02*
Y77213D01*
Y51941D02*
X180067Y49374D01*
X148587Y306276D02*
X149953Y307642D01*
X148587Y298587D02*
Y306276D01*
X141685Y291685D02*
X148587Y298587D01*
X152315Y299315D02*
Y304030D01*
X143779Y290779D02*
X152315Y299315D01*
X157825Y302083D02*
Y316615D01*
X146000Y290259D02*
X157825Y302083D01*
X146000Y244862D02*
X148587Y242275D01*
X143779Y244221D02*
X146803Y241197D01*
Y228606D02*
Y241197D01*
X141685Y243709D02*
X145000Y240394D01*
Y227716D02*
Y240394D01*
X139657Y243253D02*
X143000Y239910D01*
Y227193D02*
Y239910D01*
X141113Y226043D02*
Y238887D01*
X139657Y243253D02*
Y292331D01*
X141685Y243709D02*
Y291685D01*
X143779Y244221D02*
Y290779D01*
X146000Y244862D02*
Y290259D01*
X139657Y292331D02*
X143500Y296175D01*
X141113Y226043D02*
X150835Y216322D01*
X141113Y296338D02*
Y301520D01*
X161764Y302917D02*
X174422Y290259D01*
X176331Y241382D02*
X177000Y240713D01*
X174422Y241757D02*
Y290259D01*
X178358Y245772D02*
X181055Y243075D01*
X178358Y245772D02*
Y291835D01*
X159795Y302130D02*
X172591Y289335D01*
X163732Y303705D02*
X176331Y291106D01*
Y241382D02*
Y291106D01*
X180268Y254992D02*
X187926Y247334D01*
X180268Y254992D02*
Y292484D01*
X182000Y255909D02*
Y293502D01*
Y255909D02*
X190504Y247406D01*
X165701Y304492D02*
X178358Y291835D01*
X167669Y305083D02*
X180268Y292484D01*
X169638Y305865D02*
X182000Y293502D01*
X185511Y259485D02*
X196803Y248193D01*
X185511Y259485D02*
Y295354D01*
X185500Y295365D02*
X185511Y295354D01*
X185500Y295365D02*
Y295717D01*
X171606Y306854D02*
X183811Y294650D01*
Y258429D02*
Y294650D01*
Y258429D02*
X193654Y248587D01*
X173575Y307642D02*
X185500Y295717D01*
X149953Y307642D02*
X152315D01*
X127000Y329413D02*
Y353500D01*
X129480Y330023D02*
X133751Y325752D01*
X127000Y329413D02*
X132630Y323783D01*
X176331Y352831D02*
X177000Y353500D01*
X129480Y330023D02*
Y345980D01*
X137000Y353500D01*
X135386Y348193D02*
X141693D01*
X147000Y353500D01*
X134598Y327720D02*
X157827D01*
X133751Y325752D02*
X157039D01*
X132630Y323783D02*
X156252D01*
X165701Y304492D02*
Y319847D01*
X157827Y327720D02*
X165701Y319847D01*
X163732Y303705D02*
Y319059D01*
X157039Y325752D02*
X163732Y319059D01*
X156252Y323783D02*
X161764Y318272D01*
Y302917D02*
Y318272D01*
X159795Y302130D02*
Y317484D01*
X191685Y196618D02*
X195228Y200161D01*
X196608Y196618D02*
X198454Y198465D01*
X206524D01*
X195228Y200161D02*
X197747D01*
X197750Y200165D01*
X205820D01*
X207000Y58969D02*
X212000Y53969D01*
X197197Y58772D02*
X202000Y53969D01*
X227405Y49374D02*
X232000Y53969D01*
X180067Y49374D02*
X227405D01*
X190110Y130476D02*
Y140319D01*
X206123Y125752D02*
X208741D01*
X202709Y122337D02*
X206123Y125752D01*
X190110Y140319D02*
X193654Y143862D01*
X186173Y146083D02*
X203102Y163012D01*
X186173Y128161D02*
X189540Y124794D01*
Y119030D02*
Y124794D01*
X201921Y64047D02*
X202000Y63969D01*
X178806Y47500D02*
X254055D01*
X193654Y143862D02*
X195709Y141806D01*
X188143Y128900D02*
X191291Y125752D01*
X190110Y130476D02*
X193063Y127524D01*
X194835Y123784D02*
X197197Y126146D01*
X188143Y128900D02*
Y144702D01*
X186173Y128161D02*
Y146083D01*
X188143Y144702D02*
X192028Y148587D01*
X209008D01*
X172591Y133232D02*
X178837D01*
X153994Y200543D02*
Y201435D01*
X149953Y199323D02*
Y202720D01*
Y199323D02*
X151870Y197406D01*
X139107Y216322D02*
X153994Y201435D01*
X137118Y215555D02*
X149953Y202720D01*
X193654Y241894D02*
Y248587D01*
X196803Y245830D02*
Y248193D01*
X187926Y229001D02*
Y247334D01*
Y229001D02*
X188142Y228785D01*
X181789Y92857D02*
X182846Y91800D01*
X186246Y83046D02*
Y93208D01*
X184546Y81710D02*
Y92504D01*
X182846Y82558D02*
Y91800D01*
X185189Y94265D02*
X186246Y93208D01*
X185189Y114679D02*
X189540Y119030D01*
X183489Y93561D02*
X184546Y92504D01*
X185189Y94265D02*
Y108130D01*
X185169Y108150D02*
X185189Y108130D01*
X185169Y108150D02*
Y110285D01*
X185189Y110305D01*
Y114679D01*
X183489Y93561D02*
Y107426D01*
X183469Y107445D02*
X183489Y107426D01*
X183469Y107445D02*
Y110989D01*
X183489Y111009D01*
Y115383D01*
X181789Y92857D02*
Y106721D01*
X181769Y106741D02*
X181789Y106721D01*
X181769Y106741D02*
Y111694D01*
X181789Y111713D01*
X186568Y118462D02*
Y122996D01*
X183489Y115383D02*
X186568Y118462D01*
X181789Y111713D02*
Y119235D01*
X178837Y133232D02*
X181843Y130227D01*
X181789Y119235D02*
X181843Y119288D01*
Y130227D01*
X197197Y126146D02*
Y129546D01*
X231055Y211185D02*
Y222012D01*
Y228785D01*
X151870Y197406D02*
X156547D01*
X158221Y199079D01*
D19*
X238142Y256643D02*
Y263941D01*
X236891Y255392D02*
X238142Y256643D01*
X230985Y255392D02*
X236891D01*
D162*
X167434Y105000D02*
Y107270D01*
Y102866D02*
Y105000D01*
X158454Y116250D02*
X167434Y107270D01*
X157433Y149768D02*
X157867D01*
X158454Y116250D02*
Y149180D01*
X157867Y149768D02*
X158454Y149180D01*
X155071Y149768D02*
X157433D01*
X152709D02*
X155071D01*
D193*
X95091Y175358D02*
D03*
X138744D02*
D03*
D194*
X187039Y333583D02*
D03*
D195*
X137039D02*
D03*
X140000Y313500D02*
D03*
X130000D02*
D03*
X120000D02*
D03*
X33500Y74500D02*
D03*
Y224500D02*
D03*
Y144500D02*
D03*
X43500Y104500D02*
D03*
Y124500D02*
D03*
Y174500D02*
D03*
Y244500D02*
D03*
Y204500D02*
D03*
X194484Y74000D02*
D03*
X232050Y54000D02*
D03*
X202050D02*
D03*
X212050D02*
D03*
Y64000D02*
D03*
X182050D02*
D03*
X90478Y76146D02*
D03*
X229165Y313154D02*
D03*
X207000Y353500D02*
D03*
X127000D02*
D03*
X137000D02*
D03*
X147000D02*
D03*
X157000D02*
D03*
X167000D02*
D03*
X177000D02*
D03*
X187000D02*
D03*
X117000D02*
D03*
D196*
X68713Y55262D02*
D03*
X159264Y55262D02*
D03*
Y283608D02*
D03*
X68713D02*
D03*
D197*
X63850Y104435D02*
D03*
Y124435D02*
D03*
Y174435D02*
D03*
Y204435D02*
D03*
Y244435D02*
D03*
X73850Y224435D02*
D03*
D198*
Y74435D02*
D03*
Y144435D02*
D03*
Y214435D02*
D03*
D201*
X260898Y81684D02*
D03*
Y100582D02*
D03*
X277827Y81684D02*
D03*
Y100582D02*
D03*
D205*
X86803Y54886D02*
D03*
D206*
X104500Y135594D02*
D03*
X110406Y132395D02*
D03*
X107453D02*
D03*
X110406Y135594D02*
D03*
X104500Y132395D02*
D03*
X107453Y135594D02*
D03*
X98814Y135595D02*
D03*
Y132420D02*
D03*
X116092D02*
D03*
Y135595D02*
D03*
X96255Y133994D02*
D03*
X93302D02*
D03*
X90350D02*
D03*
X119044Y135595D02*
D03*
Y132395D02*
D03*
X133751Y133994D02*
D03*
X136704D02*
D03*
X139657D02*
D03*
X142216Y132420D02*
D03*
Y135595D02*
D03*
X98138Y209336D02*
D03*
Y218935D02*
D03*
Y215735D02*
D03*
Y212536D02*
D03*
X115855Y209336D02*
D03*
Y218935D02*
D03*
Y215735D02*
D03*
Y212536D02*
D03*
X121997Y132395D02*
D03*
Y135595D02*
D03*
X130738Y133969D02*
D03*
X127726Y133944D02*
D03*
X87397Y133994D02*
D03*
X101091Y209336D02*
D03*
Y212536D02*
D03*
Y215735D02*
D03*
Y218935D02*
D03*
X106996Y212536D02*
D03*
X104043D02*
D03*
X109949D02*
D03*
Y215735D02*
D03*
X104043D02*
D03*
X106996D02*
D03*
Y218935D02*
D03*
X104043D02*
D03*
X109949D02*
D03*
X106996Y209336D02*
D03*
X109949D02*
D03*
X104043D02*
D03*
X112902D02*
D03*
Y218935D02*
D03*
Y215735D02*
D03*
Y212536D02*
D03*
X150854Y132395D02*
D03*
X147902Y135594D02*
D03*
Y132395D02*
D03*
X150854Y135594D02*
D03*
X153807Y132395D02*
D03*
Y135594D02*
D03*
X159906Y71034D02*
D03*
X155519Y71052D02*
D03*
X167362Y118646D02*
D03*
X243260Y138189D02*
D03*
X196947Y221142D02*
D03*
X189500Y209336D02*
D03*
X185982Y205000D02*
D03*
X186568Y214236D02*
D03*
X197197Y214500D02*
D03*
X143944Y99741D02*
D03*
X167423Y102708D02*
D03*
X167434Y105000D02*
D03*
X191791Y324935D02*
D03*
X26000Y43000D02*
D03*
X278500Y45500D02*
D03*
X276030Y42500D02*
D03*
X261500Y72053D02*
D03*
X261462Y75732D02*
D03*
X264872Y77435D02*
D03*
X274715Y105339D02*
D03*
X264000Y105127D02*
D03*
X245105Y196353D02*
D03*
X221500Y226500D02*
D03*
X202000Y181362D02*
D03*
X165110Y212980D02*
D03*
X134205Y223500D02*
D03*
X171500Y237000D02*
D03*
X173500Y241000D02*
D03*
X176331Y206264D02*
D03*
X156000Y226047D02*
D03*
X160189Y238744D02*
D03*
X165091D02*
D03*
X155000Y240000D02*
D03*
X204442Y86000D02*
D03*
X221781Y136046D02*
D03*
X154500Y341305D02*
D03*
X149845D02*
D03*
X275000Y360000D02*
D03*
X270000Y350000D02*
D03*
X275000Y340000D02*
D03*
X270000Y330000D02*
D03*
X275000Y320000D02*
D03*
X270000Y310000D02*
D03*
X275000Y300000D02*
D03*
X270000Y290000D02*
D03*
X275000Y280000D02*
D03*
Y260000D02*
D03*
X265000Y360000D02*
D03*
Y340000D02*
D03*
X260000Y330000D02*
D03*
X265000Y320000D02*
D03*
X260000Y310000D02*
D03*
X265000Y300000D02*
D03*
X255000Y360000D02*
D03*
X250000Y330000D02*
D03*
Y170000D02*
D03*
X245000Y360000D02*
D03*
X240000Y330000D02*
D03*
Y130000D02*
D03*
X235000Y360000D02*
D03*
X230000Y350000D02*
D03*
X235000Y340000D02*
D03*
X230000Y330000D02*
D03*
X235000Y320000D02*
D03*
Y140000D02*
D03*
X225000Y360000D02*
D03*
X220000Y350000D02*
D03*
X225000Y340000D02*
D03*
Y320000D02*
D03*
Y300000D02*
D03*
Y280000D02*
D03*
X220000Y250000D02*
D03*
X210000Y330000D02*
D03*
X205000Y280000D02*
D03*
Y260000D02*
D03*
X195000Y340000D02*
D03*
Y280000D02*
D03*
X190000Y270000D02*
D03*
X185000Y60000D02*
D03*
X170000Y250000D02*
D03*
X160000D02*
D03*
X150000Y270000D02*
D03*
X140000Y50000D02*
D03*
X135000Y340000D02*
D03*
X130000Y150000D02*
D03*
X125000Y320000D02*
D03*
Y260000D02*
D03*
X115000Y340000D02*
D03*
Y320000D02*
D03*
X90000Y350000D02*
D03*
X95000Y320000D02*
D03*
X90000Y110000D02*
D03*
X95000Y80000D02*
D03*
X90000Y50000D02*
D03*
X85000Y280000D02*
D03*
Y160000D02*
D03*
Y80000D02*
D03*
X75000Y360000D02*
D03*
X70000Y350000D02*
D03*
X75000Y340000D02*
D03*
X70000Y70000D02*
D03*
X65000Y360000D02*
D03*
X60000Y330000D02*
D03*
Y70000D02*
D03*
X55000Y360000D02*
D03*
X50000Y330000D02*
D03*
Y290000D02*
D03*
Y70000D02*
D03*
X55000Y60000D02*
D03*
X45000Y360000D02*
D03*
X40000Y350000D02*
D03*
Y330000D02*
D03*
Y310000D02*
D03*
Y70000D02*
D03*
X35000Y360000D02*
D03*
X30000Y350000D02*
D03*
X35000Y340000D02*
D03*
X30000Y330000D02*
D03*
X35000Y320000D02*
D03*
X30000Y290000D02*
D03*
Y270000D02*
D03*
Y250000D02*
D03*
Y230000D02*
D03*
Y210000D02*
D03*
Y190000D02*
D03*
Y170000D02*
D03*
Y150000D02*
D03*
Y130000D02*
D03*
Y110000D02*
D03*
Y90000D02*
D03*
Y70000D02*
D03*
X122500Y198874D02*
D03*
X90898Y256520D02*
D03*
X90974Y229761D02*
D03*
X118562Y160398D02*
D03*
Y162760D02*
D03*
X152709Y149768D02*
D03*
X137954Y160398D02*
D03*
Y162760D02*
D03*
X219244Y71584D02*
D03*
Y76369D02*
D03*
X273451Y269311D02*
D03*
X123891Y235584D02*
D03*
Y237853D02*
D03*
Y240122D02*
D03*
X256347Y298173D02*
D03*
X251129D02*
D03*
X233000Y193000D02*
D03*
X235000Y198500D02*
D03*
X172281Y70106D02*
D03*
X170949Y63785D02*
D03*
X154698Y94435D02*
D03*
X156650Y95757D02*
D03*
X161484Y165382D02*
D03*
Y163020D02*
D03*
X231029Y291331D02*
D03*
X161764Y160272D02*
D03*
X153890Y120240D02*
D03*
X154087Y114121D02*
D03*
Y117287D02*
D03*
X122547Y143429D02*
D03*
X125777Y153321D02*
D03*
X226500Y284000D02*
D03*
X169000Y76827D02*
D03*
X53850Y244435D02*
D03*
X177000Y240713D02*
D03*
X219638Y255500D02*
D03*
X223000Y214965D02*
D03*
X222500Y195000D02*
D03*
X231337Y137500D02*
D03*
X152315Y307642D02*
D03*
Y304030D02*
D03*
X79823Y327528D02*
D03*
X86961Y292490D02*
D03*
Y295410D02*
D03*
X230985Y255392D02*
D03*
X231055Y222012D02*
D03*
Y228785D02*
D03*
X118851Y117593D02*
D03*
X110685Y114121D02*
D03*
X95185Y218935D02*
D03*
Y215735D02*
D03*
Y212536D02*
D03*
X118807Y218935D02*
D03*
Y215735D02*
D03*
Y212536D02*
D03*
X121760Y218935D02*
D03*
X110685Y117287D02*
D03*
Y120453D02*
D03*
X124713Y215735D02*
D03*
Y218935D02*
D03*
X121760Y215735D02*
D03*
Y212536D02*
D03*
X240504Y76020D02*
D03*
X208040Y79891D02*
D03*
X53831Y204435D02*
D03*
X55071Y43643D02*
D03*
X53850Y219435D02*
D03*
X53831Y174435D02*
D03*
Y139694D02*
D03*
Y104435D02*
D03*
X191882Y291558D02*
D03*
X188535D02*
D03*
X236236Y164563D02*
D03*
X118807Y209336D02*
D03*
X95185D02*
D03*
X121760D02*
D03*
X124713Y212536D02*
D03*
Y209336D02*
D03*
X227905Y218584D02*
D03*
X249140Y255057D02*
D03*
X245031D02*
D03*
X247984Y198600D02*
D03*
X236891Y255392D02*
D03*
X250347Y265517D02*
D03*
X237020Y208035D02*
D03*
X240110D02*
D03*
X243063D02*
D03*
X222787Y149826D02*
D03*
X219112Y147950D02*
D03*
X222394Y145607D02*
D03*
X215570Y149492D02*
D03*
X215087Y145831D02*
D03*
X186568Y122996D02*
D03*
X208741Y125752D02*
D03*
X193654Y143862D02*
D03*
X203102Y163012D02*
D03*
X209008Y148587D02*
D03*
X179874Y83232D02*
D03*
X256192Y114220D02*
D03*
X193654Y241894D02*
D03*
X196608Y196618D02*
D03*
X196803Y245830D02*
D03*
X206252Y215910D02*
D03*
X191685Y196618D02*
D03*
X188142Y228785D02*
D03*
X190504Y247406D02*
D03*
X181055Y243075D02*
D03*
X112053Y333433D02*
D03*
X157433Y149768D02*
D03*
X204677Y244256D02*
D03*
X172591Y133232D02*
D03*
X153994Y200543D02*
D03*
X138535Y297406D02*
D03*
X133811Y301736D02*
D03*
X141786Y148561D02*
D03*
Y153412D02*
D03*
Y150924D02*
D03*
X98365Y162760D02*
D03*
Y160398D02*
D03*
X98384Y150924D02*
D03*
Y153412D02*
D03*
Y148561D02*
D03*
X240732Y196213D02*
D03*
X230873Y203606D02*
D03*
X251406Y221344D02*
D03*
X245360Y225358D02*
D03*
X189988Y262122D02*
D03*
X222394Y239531D02*
D03*
X200799Y288741D02*
D03*
X217295Y235579D02*
D03*
X201470Y265774D02*
D03*
X206252Y256461D02*
D03*
X177905Y201933D02*
D03*
X179480Y227329D02*
D03*
X134205Y215516D02*
D03*
X138535Y210398D02*
D03*
X129480Y197366D02*
D03*
X129495Y201435D02*
D03*
X125093Y174965D02*
D03*
X209795Y181362D02*
D03*
X200937Y153429D02*
D03*
Y145607D02*
D03*
X179087Y105807D02*
D03*
X176579Y105807D02*
D03*
X197984Y104014D02*
D03*
X177209Y125358D02*
D03*
X155071Y149768D02*
D03*
X184992Y246618D02*
D03*
X96409Y113439D02*
D03*
X187747Y109217D02*
D03*
X202709Y134807D02*
D03*
X197197Y129546D02*
D03*
X116135Y189532D02*
D03*
X274002Y194542D02*
D03*
X273969Y197799D02*
D03*
X238142Y263941D02*
D03*
X263339Y249727D02*
D03*
Y244961D02*
D03*
X262039Y230398D02*
D03*
X262945Y270240D02*
D03*
X261852Y282445D02*
D03*
X261764Y276933D02*
D03*
X249130Y288548D02*
D03*
X243752Y299439D02*
D03*
X238634D02*
D03*
X221231Y290615D02*
D03*
X238142Y268665D02*
D03*
Y272209D02*
D03*
X191882Y283621D02*
D03*
X219165Y324413D02*
D03*
X103516Y324256D02*
D03*
X90898Y287563D02*
D03*
X78693Y292287D02*
D03*
X29985Y322342D02*
D03*
X158221Y199079D02*
D03*
X160386Y195458D02*
D03*
D207*
X202050Y64000D02*
D03*
M02*
