G04*
G04 #@! TF.GenerationSoftware,Altium Limited,Altium Designer,19.0.10 (269)*
G04*
G04 Layer_Color=8388736*
%FSLAX25Y25*%
%MOIN*%
G70*
G01*
G75*
%ADD89R,0.02850X0.01550*%
%ADD90R,0.06300X0.11036*%
%ADD91R,0.05524X0.03950*%
%ADD92R,0.05524X0.06706*%
%ADD93R,0.02150X0.06115*%
%ADD94R,0.06115X0.02150*%
%ADD95O,0.07099X0.01981*%
%ADD96R,0.02965X0.04147*%
%ADD97R,0.08800X0.06300*%
%ADD98O,0.01654X0.03701*%
%ADD99R,0.09016X0.07244*%
%ADD100R,0.03753X0.03950*%
%ADD101R,0.03950X0.03753*%
%ADD102R,0.03950X0.07493*%
%ADD103R,0.04700X0.04800*%
%ADD104R,0.04658X0.07099*%
G04:AMPARAMS|DCode=105|XSize=17.84mil|YSize=31.62mil|CornerRadius=8.92mil|HoleSize=0mil|Usage=FLASHONLY|Rotation=90.000|XOffset=0mil|YOffset=0mil|HoleType=Round|Shape=RoundedRectangle|*
%AMROUNDEDRECTD105*
21,1,0.01784,0.01378,0,0,90.0*
21,1,0.00000,0.03162,0,0,90.0*
1,1,0.01784,0.00689,0.00000*
1,1,0.01784,0.00689,0.00000*
1,1,0.01784,-0.00689,0.00000*
1,1,0.01784,-0.00689,0.00000*
%
%ADD105ROUNDEDRECTD105*%
%ADD106R,0.07800X0.07200*%
%ADD107R,0.07493X0.04737*%
%ADD108R,0.07493X0.04737*%
%ADD109R,0.07493X0.03950*%
%ADD110R,0.05300X0.07800*%
%ADD111R,0.02900X0.03950*%
%ADD112R,0.04147X0.01981*%
%ADD113O,0.10642X0.03556*%
%ADD114R,0.06200X0.12800*%
%ADD115R,0.03950X0.03950*%
G04:AMPARAMS|DCode=116|XSize=31.62mil|YSize=17.06mil|CornerRadius=8.53mil|HoleSize=0mil|Usage=FLASHONLY|Rotation=90.000|XOffset=0mil|YOffset=0mil|HoleType=Round|Shape=RoundedRectangle|*
%AMROUNDEDRECTD116*
21,1,0.03162,0.00000,0,0,90.0*
21,1,0.01456,0.01706,0,0,90.0*
1,1,0.01706,0.00000,0.00728*
1,1,0.01706,0.00000,-0.00728*
1,1,0.01706,0.00000,-0.00728*
1,1,0.01706,0.00000,0.00728*
%
%ADD116ROUNDEDRECTD116*%
G04:AMPARAMS|DCode=117|XSize=31.62mil|YSize=17.06mil|CornerRadius=8.53mil|HoleSize=0mil|Usage=FLASHONLY|Rotation=180.000|XOffset=0mil|YOffset=0mil|HoleType=Round|Shape=RoundedRectangle|*
%AMROUNDEDRECTD117*
21,1,0.03162,0.00000,0,0,180.0*
21,1,0.01456,0.01706,0,0,180.0*
1,1,0.01706,-0.00728,0.00000*
1,1,0.01706,0.00728,0.00000*
1,1,0.01706,0.00728,0.00000*
1,1,0.01706,-0.00728,0.00000*
%
%ADD117ROUNDEDRECTD117*%
%ADD118R,0.03950X0.01784*%
%ADD119R,0.01784X0.03950*%
%ADD120R,0.11430X0.11430*%
%ADD121R,0.14200X0.04600*%
%ADD122R,0.04400X0.04400*%
%ADD123R,0.04400X0.05800*%
%ADD124R,0.03792X0.10249*%
%ADD125R,0.02572X0.02769*%
G04:AMPARAMS|DCode=126|XSize=76.9mil|YSize=106.42mil|CornerRadius=7.45mil|HoleSize=0mil|Usage=FLASHONLY|Rotation=90.000|XOffset=0mil|YOffset=0mil|HoleType=Round|Shape=RoundedRectangle|*
%AMROUNDEDRECTD126*
21,1,0.07690,0.09153,0,0,90.0*
21,1,0.06201,0.10642,0,0,90.0*
1,1,0.01489,0.04577,0.03100*
1,1,0.01489,0.04577,-0.03100*
1,1,0.01489,-0.04577,-0.03100*
1,1,0.01489,-0.04577,0.03100*
%
%ADD126ROUNDEDRECTD126*%
%ADD127R,0.07887X0.05524*%
%ADD128O,0.02572X0.06312*%
%ADD129R,0.13753X0.10288*%
G04:AMPARAMS|DCode=130|XSize=76.9mil|YSize=106.42mil|CornerRadius=7.45mil|HoleSize=0mil|Usage=FLASHONLY|Rotation=180.000|XOffset=0mil|YOffset=0mil|HoleType=Round|Shape=RoundedRectangle|*
%AMROUNDEDRECTD130*
21,1,0.07690,0.09153,0,0,180.0*
21,1,0.06201,0.10642,0,0,180.0*
1,1,0.01489,-0.03100,0.04577*
1,1,0.01489,0.03100,0.04577*
1,1,0.01489,0.03100,-0.04577*
1,1,0.01489,-0.03100,-0.04577*
%
%ADD130ROUNDEDRECTD130*%
%ADD131R,0.02769X0.02572*%
%ADD132R,0.03556X0.02375*%
%ADD133R,0.03950X0.03950*%
%ADD134R,0.04400X0.04400*%
%ADD135R,0.05800X0.04400*%
%ADD136R,0.06509X0.10839*%
%ADD137O,0.10249X0.03556*%
%ADD138R,0.06706X0.05131*%
%ADD139R,0.02178X0.02769*%
%ADD140O,0.01981X0.07099*%
%ADD141C,0.07887*%
%ADD142R,0.06706X0.06706*%
%ADD143C,0.06706*%
%ADD144C,0.22800*%
%ADD145O,0.08674X0.07887*%
%ADD146C,0.08674*%
%ADD147R,0.08674X0.08674*%
%ADD148R,0.06706X0.06706*%
%ADD149C,0.00800*%
%ADD150C,0.05524*%
%ADD151C,0.03398*%
%ADD152O,0.03084X0.04737*%
%ADD153C,0.09800*%
%ADD154O,0.07300X0.08674*%
%ADD155O,0.06300X0.07800*%
%ADD156C,0.03556*%
D89*
X113262Y131818D02*
D03*
Y136568D02*
D03*
Y134993D02*
D03*
Y133406D02*
D03*
X101612D02*
D03*
Y134993D02*
D03*
Y136568D02*
D03*
Y131818D02*
D03*
X156679Y131622D02*
D03*
Y136372D02*
D03*
Y134797D02*
D03*
Y133210D02*
D03*
X145029D02*
D03*
Y134797D02*
D03*
Y136372D02*
D03*
Y131622D02*
D03*
D90*
X166900Y101209D02*
D03*
X149100D02*
D03*
D91*
X249295Y72635D02*
D03*
Y77635D02*
D03*
Y82635D02*
D03*
X228823Y72635D02*
D03*
Y82635D02*
D03*
X249295Y87635D02*
D03*
Y92635D02*
D03*
Y97635D02*
D03*
X228823Y92635D02*
D03*
Y97635D02*
D03*
Y102635D02*
D03*
X249295D02*
D03*
X228823Y87635D02*
D03*
Y107635D02*
D03*
X249295D02*
D03*
X228823Y77635D02*
D03*
D92*
X97209Y343400D02*
D03*
X85791D02*
D03*
D93*
X208811Y235791D02*
D03*
X206842D02*
D03*
X204874D02*
D03*
X202906D02*
D03*
X200937D02*
D03*
X198969D02*
D03*
X197000D02*
D03*
X195031D02*
D03*
X193063D02*
D03*
X191095D02*
D03*
X189126D02*
D03*
X187157D02*
D03*
X185189D02*
D03*
X183221D02*
D03*
X181252D02*
D03*
X179283D02*
D03*
Y190516D02*
D03*
X181252D02*
D03*
X183221D02*
D03*
X185189D02*
D03*
X187157D02*
D03*
X189126D02*
D03*
X191095D02*
D03*
X193063D02*
D03*
X195031D02*
D03*
X197000D02*
D03*
X198969D02*
D03*
X200937D02*
D03*
X202906D02*
D03*
X204874D02*
D03*
X206842D02*
D03*
X208811D02*
D03*
D94*
X171409Y227917D02*
D03*
Y225949D02*
D03*
Y223980D02*
D03*
Y222012D02*
D03*
Y220043D02*
D03*
Y218075D02*
D03*
Y216106D02*
D03*
Y214138D02*
D03*
Y212169D02*
D03*
Y210201D02*
D03*
Y208232D02*
D03*
Y206264D02*
D03*
Y204295D02*
D03*
Y202327D02*
D03*
Y200358D02*
D03*
Y198390D02*
D03*
X216685D02*
D03*
Y200358D02*
D03*
Y202327D02*
D03*
Y204295D02*
D03*
Y206264D02*
D03*
Y208232D02*
D03*
Y210201D02*
D03*
Y216106D02*
D03*
Y218075D02*
D03*
Y220043D02*
D03*
Y222012D02*
D03*
Y223980D02*
D03*
Y225949D02*
D03*
Y227917D02*
D03*
Y212169D02*
D03*
Y214138D02*
D03*
D95*
X162453Y318661D02*
D03*
Y321220D02*
D03*
Y323780D02*
D03*
Y326339D02*
D03*
X149067Y318661D02*
D03*
Y321220D02*
D03*
Y323780D02*
D03*
Y326339D02*
D03*
D96*
X124000Y295437D02*
D03*
Y304886D02*
D03*
X116543Y295535D02*
D03*
Y304984D02*
D03*
D97*
X137000Y105235D02*
D03*
Y87435D02*
D03*
X109500Y103900D02*
D03*
Y86100D02*
D03*
D98*
X103500Y128386D02*
D03*
X105468D02*
D03*
X107437D02*
D03*
X109406D02*
D03*
X111374D02*
D03*
Y140000D02*
D03*
X109406D02*
D03*
X107437D02*
D03*
X105468D02*
D03*
X103500D02*
D03*
X146917Y128187D02*
D03*
X148886D02*
D03*
X150854D02*
D03*
X152823D02*
D03*
X154791D02*
D03*
Y139802D02*
D03*
X152823D02*
D03*
X150854D02*
D03*
X148886D02*
D03*
X146917D02*
D03*
D99*
X107437Y133996D02*
D03*
X150854Y133994D02*
D03*
D100*
X137650Y190516D02*
D03*
X143358D02*
D03*
X235293Y303311D02*
D03*
X241001D02*
D03*
X243482Y282445D02*
D03*
X249190D02*
D03*
X243476Y277023D02*
D03*
X249185D02*
D03*
X257020Y266996D02*
D03*
X262729D02*
D03*
X253226Y282445D02*
D03*
X258935D02*
D03*
X253226Y277023D02*
D03*
X258935D02*
D03*
X233354Y241997D02*
D03*
X227646D02*
D03*
X260421Y254435D02*
D03*
X254713D02*
D03*
X254712Y244961D02*
D03*
X260421D02*
D03*
X254712Y249727D02*
D03*
X260421D02*
D03*
X236665Y194256D02*
D03*
X230957D02*
D03*
X236665Y198600D02*
D03*
X230957D02*
D03*
X194146Y89525D02*
D03*
X188437D02*
D03*
X218482Y110556D02*
D03*
X212773D02*
D03*
X217095Y81083D02*
D03*
X222804D02*
D03*
X265646Y234709D02*
D03*
X271354D02*
D03*
X265646Y213055D02*
D03*
X271354D02*
D03*
X265646Y217386D02*
D03*
X271354D02*
D03*
X265646Y226047D02*
D03*
X271354D02*
D03*
X222804Y76358D02*
D03*
X217095D02*
D03*
X222804Y71634D02*
D03*
X217095D02*
D03*
X265602Y194534D02*
D03*
X271311D02*
D03*
X265602Y199374D02*
D03*
X271311D02*
D03*
X259862Y113854D02*
D03*
X265570D02*
D03*
X180054Y115909D02*
D03*
X174346D02*
D03*
X176823Y132839D02*
D03*
X182531D02*
D03*
X138634Y121500D02*
D03*
X132925D02*
D03*
X133146Y113500D02*
D03*
X138854D02*
D03*
X142177Y210398D02*
D03*
X136469D02*
D03*
X174639Y96520D02*
D03*
X180347D02*
D03*
X142177Y215516D02*
D03*
X136469D02*
D03*
X93085Y113439D02*
D03*
X87376D02*
D03*
X116783Y139807D02*
D03*
X122492D02*
D03*
X126346Y225159D02*
D03*
X120637D02*
D03*
X82728Y227917D02*
D03*
X88437D02*
D03*
X218467Y284020D02*
D03*
X224176D02*
D03*
X155366Y309413D02*
D03*
X161075D02*
D03*
X155315Y303508D02*
D03*
X161024D02*
D03*
D101*
X128351Y180575D02*
D03*
Y174866D02*
D03*
X242500Y154965D02*
D03*
Y160673D02*
D03*
X256252Y294551D02*
D03*
Y300260D02*
D03*
X251134Y294551D02*
D03*
Y300260D02*
D03*
X227906Y231756D02*
D03*
Y237465D02*
D03*
X239134Y233354D02*
D03*
Y227646D02*
D03*
X240732Y199854D02*
D03*
Y194146D02*
D03*
X251397Y224986D02*
D03*
Y219278D02*
D03*
X245360Y233232D02*
D03*
Y227524D02*
D03*
X212500Y116383D02*
D03*
Y122091D02*
D03*
X223969Y117386D02*
D03*
Y123094D02*
D03*
X219244Y117386D02*
D03*
Y123094D02*
D03*
X231337Y133646D02*
D03*
Y139354D02*
D03*
X245500Y133635D02*
D03*
Y139343D02*
D03*
X164085Y170929D02*
D03*
Y176638D02*
D03*
X171561Y128223D02*
D03*
Y122515D02*
D03*
X205858Y290869D02*
D03*
Y296578D02*
D03*
X165701Y128213D02*
D03*
Y122504D02*
D03*
X168000Y108682D02*
D03*
Y114391D02*
D03*
X182649Y296578D02*
D03*
Y290869D02*
D03*
X231000Y287500D02*
D03*
Y293209D02*
D03*
X166231Y153222D02*
D03*
Y147514D02*
D03*
X161113Y147514D02*
D03*
Y153222D02*
D03*
X156000Y153854D02*
D03*
Y148146D02*
D03*
X122830Y153222D02*
D03*
Y147514D02*
D03*
X117712D02*
D03*
Y153222D02*
D03*
X112594D02*
D03*
Y147514D02*
D03*
X160500Y139354D02*
D03*
Y133646D02*
D03*
X84205Y206559D02*
D03*
Y200850D02*
D03*
X84214Y191795D02*
D03*
Y197504D02*
D03*
X112157Y195142D02*
D03*
Y189433D02*
D03*
X101528D02*
D03*
Y195142D02*
D03*
X29985Y306756D02*
D03*
Y301047D02*
D03*
X185189Y242927D02*
D03*
Y248636D02*
D03*
X223000Y212881D02*
D03*
Y218590D02*
D03*
X165049Y230378D02*
D03*
Y236087D02*
D03*
X212179Y190811D02*
D03*
Y185102D02*
D03*
X165500Y193646D02*
D03*
Y199354D02*
D03*
X200799Y296619D02*
D03*
Y290911D02*
D03*
X217295Y231937D02*
D03*
Y237646D02*
D03*
X160189Y230378D02*
D03*
Y236087D02*
D03*
X222394Y231756D02*
D03*
Y237465D02*
D03*
X219638Y264218D02*
D03*
Y258509D02*
D03*
X189988Y258537D02*
D03*
Y264245D02*
D03*
X169500Y325984D02*
D03*
Y320276D02*
D03*
X208811Y338888D02*
D03*
Y344597D02*
D03*
X76000Y333354D02*
D03*
Y327646D02*
D03*
D102*
X234835Y147286D02*
D03*
X248221D02*
D03*
X189183Y129546D02*
D03*
X202569D02*
D03*
D103*
X272000Y207000D02*
D03*
X266000D02*
D03*
D104*
X86961Y293440D02*
D03*
D105*
X83220Y296393D02*
D03*
Y294425D02*
D03*
Y292456D02*
D03*
Y290488D02*
D03*
X90701D02*
D03*
Y292456D02*
D03*
Y294425D02*
D03*
Y296393D02*
D03*
D106*
X72000Y301300D02*
D03*
Y314700D02*
D03*
D107*
X104500Y320272D02*
D03*
X84500D02*
D03*
X198500D02*
D03*
X218500D02*
D03*
D108*
X104500Y333272D02*
D03*
X84500D02*
D03*
X198500D02*
D03*
X218500D02*
D03*
D109*
X273451Y267091D02*
D03*
Y253705D02*
D03*
D110*
X113710Y237957D02*
D03*
X127110D02*
D03*
X100200Y238000D02*
D03*
X86800D02*
D03*
D111*
X256744Y201881D02*
D03*
X251035D02*
D03*
D112*
X266094Y101959D02*
D03*
Y99991D02*
D03*
Y98022D02*
D03*
Y96054D02*
D03*
Y94085D02*
D03*
Y92117D02*
D03*
Y90148D02*
D03*
Y88180D02*
D03*
Y86211D02*
D03*
Y84243D02*
D03*
Y82274D02*
D03*
Y80306D02*
D03*
X272630D02*
D03*
Y82274D02*
D03*
Y84243D02*
D03*
Y86211D02*
D03*
Y88180D02*
D03*
Y90148D02*
D03*
Y92117D02*
D03*
Y94085D02*
D03*
Y96054D02*
D03*
Y98022D02*
D03*
Y99991D02*
D03*
Y101959D02*
D03*
D113*
X154087Y85732D02*
D03*
Y90732D02*
D03*
X173378Y85732D02*
D03*
X154087Y75732D02*
D03*
Y80732D02*
D03*
D114*
X164220Y162760D02*
D03*
X152220D02*
D03*
X132755Y162760D02*
D03*
X144755D02*
D03*
X136587Y150924D02*
D03*
X148587D02*
D03*
X156000Y117500D02*
D03*
X144000D02*
D03*
X93185Y150924D02*
D03*
X105185D02*
D03*
X123761Y162760D02*
D03*
X111761D02*
D03*
X93165D02*
D03*
X105165D02*
D03*
X113886Y117292D02*
D03*
X101886D02*
D03*
D115*
X87525Y120240D02*
D03*
X93430D02*
D03*
X271597Y114121D02*
D03*
X277502D02*
D03*
X170922Y303508D02*
D03*
X165017D02*
D03*
X170949Y309413D02*
D03*
X165044D02*
D03*
D116*
X243260Y260398D02*
D03*
X244834D02*
D03*
X246410D02*
D03*
X247983D02*
D03*
X249558D02*
D03*
X251133D02*
D03*
Y272210D02*
D03*
X249558D02*
D03*
X247983D02*
D03*
X246410D02*
D03*
X244834D02*
D03*
X243260D02*
D03*
X239991Y238529D02*
D03*
X241566D02*
D03*
X243141D02*
D03*
X244715D02*
D03*
X246290D02*
D03*
X247865D02*
D03*
Y250341D02*
D03*
X246290D02*
D03*
X244715D02*
D03*
X243141D02*
D03*
X241566D02*
D03*
X239991D02*
D03*
D117*
X253102Y262367D02*
D03*
Y263942D02*
D03*
Y265517D02*
D03*
Y267091D02*
D03*
Y268666D02*
D03*
Y270241D02*
D03*
X241290D02*
D03*
Y268666D02*
D03*
Y267091D02*
D03*
Y265517D02*
D03*
Y263942D02*
D03*
Y262367D02*
D03*
X238022Y248372D02*
D03*
Y246797D02*
D03*
Y245222D02*
D03*
Y243648D02*
D03*
Y242073D02*
D03*
Y240498D02*
D03*
X249834D02*
D03*
Y242073D02*
D03*
Y243648D02*
D03*
Y245222D02*
D03*
Y246797D02*
D03*
Y248372D02*
D03*
D118*
X232531Y216106D02*
D03*
Y214138D02*
D03*
Y212169D02*
D03*
Y210201D02*
D03*
Y208232D02*
D03*
Y206264D02*
D03*
X247689D02*
D03*
Y208232D02*
D03*
Y210201D02*
D03*
Y212169D02*
D03*
Y214138D02*
D03*
Y216106D02*
D03*
D119*
X235189Y203606D02*
D03*
X237158D02*
D03*
X239126D02*
D03*
X241094D02*
D03*
X243063D02*
D03*
X245031D02*
D03*
Y218764D02*
D03*
X243063D02*
D03*
X241094D02*
D03*
X239126D02*
D03*
X237158D02*
D03*
X235189D02*
D03*
D120*
X240110Y211185D02*
D03*
D121*
X89736Y138670D02*
D03*
Y129370D02*
D03*
X133138Y138670D02*
D03*
Y129370D02*
D03*
D122*
X120852Y121592D02*
D03*
X128351D02*
D03*
D123*
X124601Y113593D02*
D03*
D124*
X216000Y175854D02*
D03*
X221000D02*
D03*
X226000D02*
D03*
X231000D02*
D03*
X236000D02*
D03*
Y160500D02*
D03*
X231000D02*
D03*
X226000D02*
D03*
X221000D02*
D03*
X216000D02*
D03*
D125*
X191882Y286440D02*
D03*
X191882Y296676D02*
D03*
X195622D02*
D03*
X188142Y286440D02*
D03*
X195622D02*
D03*
X188142Y296676D02*
D03*
D126*
X191882Y291558D02*
D03*
D127*
X196803Y265909D02*
D03*
X212551D02*
D03*
X196803Y256461D02*
D03*
X212551D02*
D03*
D128*
X115953Y225750D02*
D03*
X113394D02*
D03*
X110835D02*
D03*
X108276D02*
D03*
X105717D02*
D03*
X103158D02*
D03*
X100599D02*
D03*
X98040D02*
D03*
X115953Y202521D02*
D03*
X113394D02*
D03*
X110835D02*
D03*
X108276D02*
D03*
X105717D02*
D03*
X103158D02*
D03*
X100599D02*
D03*
X98040D02*
D03*
D129*
X106996Y214135D02*
D03*
D130*
X177531Y105807D02*
D03*
D131*
X172413Y102067D02*
D03*
X182649Y109547D02*
D03*
Y102067D02*
D03*
X172413Y109547D02*
D03*
Y105807D02*
D03*
X182649Y105807D02*
D03*
D132*
X218411Y288056D02*
D03*
Y290615D02*
D03*
Y293174D02*
D03*
X225892D02*
D03*
Y288056D02*
D03*
D133*
X90898Y201933D02*
D03*
Y196028D02*
D03*
X29985Y312613D02*
D03*
Y318519D02*
D03*
X194244Y99965D02*
D03*
Y94059D02*
D03*
D134*
X203559Y117297D02*
D03*
Y109797D02*
D03*
X216641Y139713D02*
D03*
Y132213D02*
D03*
D135*
X195559Y113547D02*
D03*
X224641Y135963D02*
D03*
D136*
X245425Y125752D02*
D03*
X230858D02*
D03*
D137*
X173378Y75732D02*
D03*
Y80732D02*
D03*
Y90732D02*
D03*
D138*
X209205Y143429D02*
D03*
X174165D02*
D03*
X209205Y153429D02*
D03*
X174165D02*
D03*
X209205Y163429D02*
D03*
X174165D02*
D03*
X209205Y173429D02*
D03*
X174165D02*
D03*
D139*
X243752Y296619D02*
D03*
X246311D02*
D03*
X238634D02*
D03*
X241193D02*
D03*
Y288548D02*
D03*
X238634D02*
D03*
X246311D02*
D03*
X243752D02*
D03*
D140*
X98184Y263154D02*
D03*
X95624D02*
D03*
X93065D02*
D03*
X90506D02*
D03*
X98184Y249768D02*
D03*
X95624D02*
D03*
X93065D02*
D03*
X90506D02*
D03*
D141*
X95091Y175358D02*
D03*
X104933D02*
D03*
X138744D02*
D03*
X148587D02*
D03*
D142*
X187039Y333583D02*
D03*
X90000Y313500D02*
D03*
X184484Y74000D02*
D03*
X100478Y76146D02*
D03*
X179165Y313154D02*
D03*
X97000Y353500D02*
D03*
D143*
X177039Y333583D02*
D03*
X157039D02*
D03*
X147039D02*
D03*
X137039D02*
D03*
X167039D02*
D03*
X140000Y313500D02*
D03*
X130000D02*
D03*
X120000D02*
D03*
X110000D02*
D03*
X100000D02*
D03*
X43500Y74500D02*
D03*
X33500D02*
D03*
Y254500D02*
D03*
Y234500D02*
D03*
Y84500D02*
D03*
Y224500D02*
D03*
Y214500D02*
D03*
Y204500D02*
D03*
Y194500D02*
D03*
Y184500D02*
D03*
Y244500D02*
D03*
Y174500D02*
D03*
Y164500D02*
D03*
Y154500D02*
D03*
Y144500D02*
D03*
X33500Y134500D02*
D03*
X33500Y124500D02*
D03*
Y114500D02*
D03*
Y104500D02*
D03*
Y94500D02*
D03*
X43500D02*
D03*
Y104500D02*
D03*
Y114500D02*
D03*
Y124500D02*
D03*
X43500Y134500D02*
D03*
X43500Y144500D02*
D03*
Y154500D02*
D03*
Y164500D02*
D03*
Y174500D02*
D03*
Y244500D02*
D03*
Y184500D02*
D03*
Y194500D02*
D03*
Y204500D02*
D03*
Y214500D02*
D03*
Y224500D02*
D03*
Y84500D02*
D03*
Y234500D02*
D03*
Y254500D02*
D03*
Y264500D02*
D03*
X125000Y278000D02*
D03*
Y268000D02*
D03*
X194484Y74000D02*
D03*
X262050Y54000D02*
D03*
Y64000D02*
D03*
X272050Y54000D02*
D03*
Y64000D02*
D03*
X242050Y54000D02*
D03*
Y64000D02*
D03*
X252050Y54000D02*
D03*
Y64000D02*
D03*
X222050Y54000D02*
D03*
Y64000D02*
D03*
X232050Y54000D02*
D03*
Y64000D02*
D03*
X202050Y54000D02*
D03*
X212050D02*
D03*
Y64000D02*
D03*
X192050Y54000D02*
D03*
X182050Y64000D02*
D03*
Y54000D02*
D03*
X90478Y76146D02*
D03*
X229165Y313154D02*
D03*
X219165D02*
D03*
X209165D02*
D03*
X199165D02*
D03*
X189165D02*
D03*
X207000Y353500D02*
D03*
X197000D02*
D03*
X107000D02*
D03*
X127000D02*
D03*
X137000D02*
D03*
X147000D02*
D03*
X157000D02*
D03*
X167000D02*
D03*
X177000D02*
D03*
X187000D02*
D03*
X117000D02*
D03*
D144*
X68713Y55262D02*
D03*
X159264Y55262D02*
D03*
Y283608D02*
D03*
X68713D02*
D03*
D145*
X63850Y74435D02*
D03*
Y84435D02*
D03*
Y94435D02*
D03*
Y104435D02*
D03*
Y114435D02*
D03*
Y124435D02*
D03*
Y134435D02*
D03*
Y144435D02*
D03*
Y154435D02*
D03*
Y164435D02*
D03*
Y174435D02*
D03*
Y184435D02*
D03*
Y194435D02*
D03*
Y204435D02*
D03*
Y214435D02*
D03*
Y224435D02*
D03*
Y234435D02*
D03*
Y244435D02*
D03*
Y254435D02*
D03*
X73850Y224435D02*
D03*
Y234435D02*
D03*
Y244435D02*
D03*
D146*
X63850Y264435D02*
D03*
X73850Y74435D02*
D03*
Y84435D02*
D03*
Y94435D02*
D03*
Y104435D02*
D03*
Y114435D02*
D03*
Y124435D02*
D03*
Y134435D02*
D03*
Y144435D02*
D03*
Y154435D02*
D03*
Y164435D02*
D03*
Y174435D02*
D03*
Y184435D02*
D03*
Y194435D02*
D03*
Y204435D02*
D03*
Y214435D02*
D03*
Y254435D02*
D03*
X140661Y78035D02*
D03*
X130661D02*
D03*
X120661D02*
D03*
X106803Y54886D02*
D03*
X96803D02*
D03*
D147*
X73850Y264435D02*
D03*
D148*
X33500Y264500D02*
D03*
X125000Y288000D02*
D03*
D149*
X38811Y55262D02*
D03*
Y283609D02*
D03*
X250430Y343410D02*
D03*
X210976Y95380D02*
D03*
X53570Y343410D02*
D03*
X92866Y95380D02*
D03*
X53570Y315851D02*
D03*
X250430D02*
D03*
D150*
X260898Y81684D02*
D03*
Y100582D02*
D03*
X277827Y81684D02*
D03*
Y100582D02*
D03*
D151*
X269362Y105896D02*
D03*
D152*
Y76369D02*
D03*
D153*
X140661Y58035D02*
D03*
X120661D02*
D03*
D154*
X86803Y54886D02*
D03*
D155*
X202050Y64000D02*
D03*
X192050D02*
D03*
D156*
X196947Y221142D02*
D03*
X189500Y209336D02*
D03*
X185982Y205000D02*
D03*
X186568Y214236D02*
D03*
X197197Y214500D02*
D03*
X143944Y99741D02*
D03*
X26000Y43000D02*
D03*
X278500Y45500D02*
D03*
X276030Y42500D02*
D03*
X261500Y72053D02*
D03*
X261462Y75732D02*
D03*
X264872Y77435D02*
D03*
X274715Y105339D02*
D03*
X264000Y105127D02*
D03*
X245105Y196353D02*
D03*
X165110Y212980D02*
D03*
X134303Y235000D02*
D03*
X132500Y229739D02*
D03*
X210000Y209336D02*
D03*
X205500Y212169D02*
D03*
X154500Y341305D02*
D03*
X149845D02*
D03*
M02*
