G04*
G04 #@! TF.GenerationSoftware,Altium Limited,Altium Designer,19.0.10 (269)*
G04*
G04 Layer_Physical_Order=2*
G04 Layer_Color=32768*
%FSLAX25Y25*%
%MOIN*%
G70*
G01*
G75*
%ADD208C,0.04000*%
%ADD209C,0.07937*%
%ADD210C,0.07543*%
%ADD211C,0.08016*%
%ADD212C,0.16205*%
%ADD213C,0.06756*%
%ADD214C,0.06598*%
%ADD215O,0.06284X0.07937*%
%ADD216C,0.08331*%
%ADD217C,0.05181*%
D208*
X22000Y38500D02*
Y368500D01*
X282000D01*
Y38500D02*
Y368500D01*
X22000Y38500D02*
X282000D01*
D209*
X104933Y175358D02*
D03*
X148587D02*
D03*
D210*
X177039Y333583D02*
D03*
X157039D02*
D03*
X147039D02*
D03*
X167039D02*
D03*
X130000Y313500D02*
D03*
X120000D02*
D03*
X110000D02*
D03*
X100000D02*
D03*
X90000D02*
D03*
X43500Y74500D02*
D03*
X33500Y264500D02*
D03*
Y254500D02*
D03*
Y234500D02*
D03*
Y84500D02*
D03*
Y214500D02*
D03*
Y204500D02*
D03*
Y194500D02*
D03*
Y184500D02*
D03*
Y244500D02*
D03*
Y174500D02*
D03*
Y164500D02*
D03*
Y154500D02*
D03*
X33500Y134500D02*
D03*
X33500Y124500D02*
D03*
Y114500D02*
D03*
Y104500D02*
D03*
Y94500D02*
D03*
X43500D02*
D03*
Y114500D02*
D03*
X43500Y134500D02*
D03*
X43500Y144500D02*
D03*
Y154500D02*
D03*
Y164500D02*
D03*
Y184500D02*
D03*
Y194500D02*
D03*
Y214500D02*
D03*
Y224500D02*
D03*
Y84500D02*
D03*
Y234500D02*
D03*
Y254500D02*
D03*
Y264500D02*
D03*
X125000Y288000D02*
D03*
Y278000D02*
D03*
Y268000D02*
D03*
X184484Y74000D02*
D03*
X262050Y54000D02*
D03*
Y64000D02*
D03*
X272050Y54000D02*
D03*
Y64000D02*
D03*
X242050Y54000D02*
D03*
Y64000D02*
D03*
X252050Y54000D02*
D03*
Y64000D02*
D03*
X222050Y54000D02*
D03*
Y64000D02*
D03*
X232050Y54000D02*
D03*
Y64000D02*
D03*
X202050Y54000D02*
D03*
Y64000D02*
D03*
X212050Y54000D02*
D03*
Y64000D02*
D03*
X192050D02*
D03*
Y54000D02*
D03*
X182050D02*
D03*
X100478Y76146D02*
D03*
X219165Y313154D02*
D03*
X209165D02*
D03*
X199165D02*
D03*
X189165D02*
D03*
X179165D02*
D03*
X197000Y353500D02*
D03*
X97000D02*
D03*
X107000D02*
D03*
X127000D02*
D03*
X137000D02*
D03*
X147000D02*
D03*
X157000D02*
D03*
X167000D02*
D03*
X177000D02*
D03*
X187000D02*
D03*
X117000D02*
D03*
D211*
X63850Y74435D02*
D03*
Y84435D02*
D03*
Y94435D02*
D03*
Y114435D02*
D03*
Y134435D02*
D03*
Y144435D02*
D03*
Y154435D02*
D03*
Y164435D02*
D03*
Y184435D02*
D03*
Y194435D02*
D03*
Y214435D02*
D03*
Y224435D02*
D03*
Y234435D02*
D03*
Y254435D02*
D03*
Y264435D02*
D03*
X73850Y84435D02*
D03*
Y94435D02*
D03*
Y104435D02*
D03*
Y114435D02*
D03*
Y124435D02*
D03*
Y134435D02*
D03*
Y154435D02*
D03*
Y164435D02*
D03*
Y174435D02*
D03*
Y184435D02*
D03*
Y194435D02*
D03*
Y204435D02*
D03*
Y214435D02*
D03*
Y234435D02*
D03*
Y244435D02*
D03*
Y254435D02*
D03*
Y264435D02*
D03*
D212*
X38811Y55262D02*
D03*
Y283609D02*
D03*
X250430Y343410D02*
D03*
X210976Y95380D02*
D03*
X53570Y343410D02*
D03*
X92866Y95380D02*
D03*
X53570Y315851D02*
D03*
X250430D02*
D03*
D213*
X260898Y81684D02*
D03*
Y100582D02*
D03*
X277827Y81684D02*
D03*
Y100582D02*
D03*
D214*
X269362Y105896D02*
D03*
D215*
Y76369D02*
D03*
D216*
X140661Y58035D02*
D03*
X120661D02*
D03*
X140661Y78035D02*
D03*
X130661D02*
D03*
X120661D02*
D03*
X106803Y54886D02*
D03*
X96803D02*
D03*
D217*
X159906Y71034D02*
D03*
X154000Y107500D02*
D03*
X167362Y118646D02*
D03*
X156437Y106148D02*
D03*
X159264Y103364D02*
D03*
X159250Y106148D02*
D03*
X243141Y148861D02*
D03*
X167423Y102708D02*
D03*
X167434Y105000D02*
D03*
X245105Y196353D02*
D03*
X202000Y181362D02*
D03*
X165110Y212980D02*
D03*
X153807Y211000D02*
D03*
X134303Y235000D02*
D03*
X132500Y229739D02*
D03*
X134205Y223500D02*
D03*
X171500Y237000D02*
D03*
X173500Y241000D02*
D03*
X210000Y209336D02*
D03*
X205500Y212169D02*
D03*
X195745Y167500D02*
D03*
X176331Y206264D02*
D03*
X156000Y226047D02*
D03*
X204442Y86000D02*
D03*
X237641Y172043D02*
D03*
X252000Y229167D02*
D03*
X221781Y136046D02*
D03*
X195745Y205742D02*
D03*
X122500Y198874D02*
D03*
X90898Y206163D02*
D03*
X152709Y149768D02*
D03*
X171706Y119059D02*
D03*
X92000Y304440D02*
D03*
X94201Y241205D02*
D03*
Y238646D02*
D03*
Y233528D02*
D03*
Y236087D02*
D03*
X235000Y198500D02*
D03*
X172281Y70106D02*
D03*
X170949Y63785D02*
D03*
X160500Y297500D02*
D03*
X157500D02*
D03*
X177000Y240713D02*
D03*
X163852Y226244D02*
D03*
X221500Y200500D02*
D03*
X246000Y164000D02*
D03*
Y166500D02*
D03*
Y169150D02*
D03*
X152315Y307642D02*
D03*
Y304030D02*
D03*
X122394Y128114D02*
D03*
X104631Y238547D02*
D03*
Y241106D02*
D03*
Y235988D02*
D03*
Y233429D02*
D03*
X109162Y241106D02*
D03*
Y238547D02*
D03*
Y235988D02*
D03*
Y233429D02*
D03*
X119791Y238645D02*
D03*
Y233527D02*
D03*
Y236086D02*
D03*
Y241204D02*
D03*
X230985Y255392D02*
D03*
X231055Y222012D02*
D03*
Y228785D02*
D03*
X97188Y192198D02*
D03*
X94835Y199079D02*
D03*
X148587Y170240D02*
D03*
X199547Y228785D02*
D03*
X94635Y224374D02*
D03*
X99953Y256461D02*
D03*
X276457Y89124D02*
D03*
X272787Y248744D02*
D03*
X208040Y79891D02*
D03*
X180268Y90732D02*
D03*
X136173Y117973D02*
D03*
X151134Y189138D02*
D03*
X167814Y176736D02*
D03*
X244323Y77500D02*
D03*
X276457Y93047D02*
D03*
X260162Y92237D02*
D03*
X227905Y225358D02*
D03*
Y218584D02*
D03*
X247984Y198600D02*
D03*
X262000Y221716D02*
D03*
X236891Y255392D02*
D03*
X249383Y235273D02*
D03*
X257080Y261972D02*
D03*
X251205Y277023D02*
D03*
X262039Y217204D02*
D03*
X275543Y219059D02*
D03*
X244441Y82051D02*
D03*
X239323Y108429D02*
D03*
X242824Y88179D02*
D03*
X223969Y126125D02*
D03*
X219244Y126126D02*
D03*
X259402Y195852D02*
D03*
X146606Y190516D02*
D03*
X96803Y301343D02*
D03*
X90110Y302524D02*
D03*
X87722Y300161D02*
D03*
X83811Y287169D02*
D03*
X109008Y263547D02*
D03*
X186568Y122996D02*
D03*
X208741Y125752D02*
D03*
X193654Y143862D02*
D03*
X193771Y132051D02*
D03*
X203102Y163012D02*
D03*
X209008Y148587D02*
D03*
X245228Y97437D02*
D03*
Y92437D02*
D03*
X240898Y103705D02*
D03*
X179874Y83232D02*
D03*
X189128Y83809D02*
D03*
X256192Y114220D02*
D03*
X139716Y67506D02*
D03*
X150347Y209610D02*
D03*
X210934Y221126D02*
D03*
X193654Y241894D02*
D03*
X200740Y207248D02*
D03*
X196608Y196618D02*
D03*
X196803Y245830D02*
D03*
X206252Y221126D02*
D03*
X193063Y230083D02*
D03*
X206252Y215910D02*
D03*
X205549Y206545D02*
D03*
X191685Y196618D02*
D03*
X170603Y195831D02*
D03*
X188142Y228785D02*
D03*
X190504Y247406D02*
D03*
X181055Y243075D02*
D03*
X112053Y333433D02*
D03*
X157433Y149768D02*
D03*
X204677Y244256D02*
D03*
X172591Y133232D02*
D03*
X141685Y221815D02*
D03*
X153994Y200543D02*
D03*
X138535Y297406D02*
D03*
X133811Y301736D02*
D03*
X120819Y183232D02*
D03*
Y186776D02*
D03*
X239134Y225480D02*
D03*
X262000Y226146D02*
D03*
X262039Y234527D02*
D03*
X207600Y247141D02*
D03*
X262039Y212873D02*
D03*
X125093Y180870D02*
D03*
X125191Y190309D02*
D03*
X155071Y149768D02*
D03*
X197197Y129546D02*
D03*
X162157Y143418D02*
D03*
X238142Y263941D02*
D03*
X222394Y233626D02*
D03*
X158221Y199079D02*
D03*
X160386Y195458D02*
D03*
M02*
