G04*
G04 #@! TF.GenerationSoftware,Altium Limited,Altium Designer,19.0.10 (269)*
G04*
G04 Layer_Physical_Order=1*
G04 Layer_Color=255*
%FSLAX25Y25*%
%MOIN*%
G70*
G01*
G75*
%ADD10C,0.02000*%
%ADD11C,0.01000*%
%ADD18C,0.01200*%
%ADD19C,0.00800*%
%ADD41R,0.05500X0.10236*%
%ADD42R,0.04724X0.03150*%
%ADD43R,0.04724X0.05906*%
%ADD44R,0.01350X0.05315*%
%ADD45R,0.05315X0.01350*%
%ADD46O,0.06299X0.01181*%
%ADD47R,0.02165X0.03347*%
%ADD48R,0.08000X0.05500*%
%ADD49O,0.01102X0.03150*%
%ADD50R,0.02953X0.03150*%
%ADD51R,0.03150X0.02953*%
%ADD52R,0.03150X0.06693*%
%ADD53R,0.03900X0.04000*%
G04:AMPARAMS|DCode=54|XSize=9.84mil|YSize=23.62mil|CornerRadius=4.92mil|HoleSize=0mil|Usage=FLASHONLY|Rotation=90.000|XOffset=0mil|YOffset=0mil|HoleType=Round|Shape=RoundedRectangle|*
%AMROUNDEDRECTD54*
21,1,0.00984,0.01378,0,0,90.0*
21,1,0.00000,0.02362,0,0,90.0*
1,1,0.00984,0.00689,0.00000*
1,1,0.00984,0.00689,0.00000*
1,1,0.00984,-0.00689,0.00000*
1,1,0.00984,-0.00689,0.00000*
%
%ADD54ROUNDEDRECTD54*%
%ADD55R,0.07000X0.06400*%
%ADD56R,0.06693X0.03937*%
%ADD57R,0.06693X0.03937*%
%ADD58R,0.06693X0.03150*%
%ADD59R,0.04500X0.07000*%
%ADD60R,0.02100X0.03150*%
%ADD61R,0.03347X0.01181*%
%ADD62O,0.09843X0.02756*%
%ADD63R,0.05400X0.12000*%
%ADD64R,0.03150X0.03150*%
G04:AMPARAMS|DCode=65|XSize=23.62mil|YSize=9.06mil|CornerRadius=4.53mil|HoleSize=0mil|Usage=FLASHONLY|Rotation=90.000|XOffset=0mil|YOffset=0mil|HoleType=Round|Shape=RoundedRectangle|*
%AMROUNDEDRECTD65*
21,1,0.02362,0.00000,0,0,90.0*
21,1,0.01456,0.00906,0,0,90.0*
1,1,0.00906,0.00000,0.00728*
1,1,0.00906,0.00000,-0.00728*
1,1,0.00906,0.00000,-0.00728*
1,1,0.00906,0.00000,0.00728*
%
%ADD65ROUNDEDRECTD65*%
G04:AMPARAMS|DCode=66|XSize=23.62mil|YSize=9.06mil|CornerRadius=4.53mil|HoleSize=0mil|Usage=FLASHONLY|Rotation=180.000|XOffset=0mil|YOffset=0mil|HoleType=Round|Shape=RoundedRectangle|*
%AMROUNDEDRECTD66*
21,1,0.02362,0.00000,0,0,180.0*
21,1,0.01456,0.00906,0,0,180.0*
1,1,0.00906,-0.00728,0.00000*
1,1,0.00906,0.00728,0.00000*
1,1,0.00906,0.00728,0.00000*
1,1,0.00906,-0.00728,0.00000*
%
%ADD66ROUNDEDRECTD66*%
%ADD67R,0.03150X0.00984*%
%ADD68R,0.00984X0.03150*%
%ADD69R,0.13400X0.03800*%
%ADD70R,0.03600X0.03600*%
%ADD71R,0.03600X0.05000*%
%ADD72R,0.02992X0.09449*%
%ADD73R,0.01772X0.01968*%
%ADD75R,0.07087X0.04724*%
%ADD76O,0.01772X0.05512*%
%ADD77R,0.12953X0.09488*%
%ADD79R,0.01968X0.01772*%
%ADD80R,0.02756X0.01575*%
%ADD81R,0.03150X0.03150*%
%ADD82R,0.03600X0.03600*%
%ADD83R,0.05000X0.03600*%
%ADD84R,0.05709X0.10039*%
%ADD85O,0.09449X0.02756*%
%ADD86R,0.05906X0.04331*%
%ADD87R,0.01378X0.01968*%
%ADD88O,0.01181X0.06299*%
%ADD157R,0.08465X0.06693*%
%ADD158R,0.03858X0.06299*%
%ADD159R,0.10630X0.10630*%
G04:AMPARAMS|DCode=160|XSize=68.9mil|YSize=98.43mil|CornerRadius=3.45mil|HoleSize=0mil|Usage=FLASHONLY|Rotation=90.000|XOffset=0mil|YOffset=0mil|HoleType=Round|Shape=RoundedRectangle|*
%AMROUNDEDRECTD160*
21,1,0.06890,0.09153,0,0,90.0*
21,1,0.06201,0.09843,0,0,90.0*
1,1,0.00689,0.04577,0.03100*
1,1,0.00689,0.04577,-0.03100*
1,1,0.00689,-0.04577,-0.03100*
1,1,0.00689,-0.04577,0.03100*
%
%ADD160ROUNDEDRECTD160*%
G04:AMPARAMS|DCode=161|XSize=68.9mil|YSize=98.43mil|CornerRadius=3.45mil|HoleSize=0mil|Usage=FLASHONLY|Rotation=180.000|XOffset=0mil|YOffset=0mil|HoleType=Round|Shape=RoundedRectangle|*
%AMROUNDEDRECTD161*
21,1,0.06890,0.09153,0,0,180.0*
21,1,0.06201,0.09843,0,0,180.0*
1,1,0.00689,-0.03100,0.04577*
1,1,0.00689,0.03100,0.04577*
1,1,0.00689,0.03100,-0.04577*
1,1,0.00689,-0.03100,-0.04577*
%
%ADD161ROUNDEDRECTD161*%
%ADD162C,0.03000*%
%ADD163C,0.01500*%
%ADD164C,0.01400*%
%ADD165C,0.01100*%
%ADD166C,0.00900*%
%ADD167C,0.02500*%
%ADD168C,0.03500*%
%ADD169C,0.05000*%
%ADD170C,0.01800*%
%ADD171C,0.07000*%
%ADD172R,0.01984X0.23986*%
%ADD173R,0.01335X0.01770*%
%ADD174R,0.02904X0.02679*%
%ADD175R,0.02800X0.01100*%
%ADD176R,0.01673X0.05079*%
%ADD177R,0.06437X0.09449*%
%ADD178R,0.05689X0.12795*%
%ADD179R,0.01102X0.03616*%
%ADD180R,0.20965X0.03150*%
G04:AMPARAMS|DCode=181|XSize=20.26mil|YSize=13.21mil|CornerRadius=0mil|HoleSize=0mil|Usage=FLASHONLY|Rotation=45.000|XOffset=0mil|YOffset=0mil|HoleType=Round|Shape=Rectangle|*
%AMROTATEDRECTD181*
4,1,4,-0.00249,-0.01183,-0.01183,-0.00249,0.00249,0.01183,0.01183,0.00249,-0.00249,-0.01183,0.0*
%
%ADD181ROTATEDRECTD181*%

G04:AMPARAMS|DCode=182|XSize=20.26mil|YSize=13.21mil|CornerRadius=0mil|HoleSize=0mil|Usage=FLASHONLY|Rotation=135.000|XOffset=0mil|YOffset=0mil|HoleType=Round|Shape=Rectangle|*
%AMROTATEDRECTD182*
4,1,4,0.01183,-0.00249,0.00249,-0.01183,-0.01183,0.00249,-0.00249,0.01183,0.01183,-0.00249,0.0*
%
%ADD182ROTATEDRECTD182*%

%ADD183R,0.06437X0.12795*%
%ADD184R,0.03071X0.15821*%
%ADD185R,0.01968X0.01845*%
G04:AMPARAMS|DCode=186|XSize=67.5mil|YSize=13.21mil|CornerRadius=0mil|HoleSize=0mil|Usage=FLASHONLY|Rotation=135.000|XOffset=0mil|YOffset=0mil|HoleType=Round|Shape=Rectangle|*
%AMROTATEDRECTD186*
4,1,4,0.02853,-0.01919,0.01919,-0.02853,-0.02853,0.01919,-0.01919,0.02853,0.02853,-0.01919,0.0*
%
%ADD186ROTATEDRECTD186*%

%ADD187R,0.02535X0.24209*%
%ADD188R,0.02385X0.04528*%
%ADD189R,0.02922X0.03150*%
%ADD190R,0.03087X0.06791*%
%ADD191R,0.27894X0.07321*%
%ADD192R,0.03740X0.02559*%
%ADD193C,0.07087*%
%ADD194R,0.05906X0.05906*%
%ADD195C,0.05906*%
%ADD196C,0.22000*%
%ADD197O,0.07874X0.07087*%
%ADD198C,0.07874*%
%ADD199R,0.07874X0.07874*%
%ADD200R,0.05906X0.05906*%
%ADD201C,0.04724*%
%ADD202C,0.02598*%
%ADD203O,0.02284X0.03937*%
%ADD204C,0.09000*%
%ADD205O,0.06500X0.07874*%
%ADD206C,0.02756*%
%ADD207O,0.05500X0.07000*%
G36*
X105418Y358197D02*
X105163Y357816D01*
X105037Y357182D01*
X104906Y357127D01*
X104038Y356462D01*
X103373Y355594D01*
X102954Y354584D01*
X102811Y353500D01*
X102954Y352416D01*
X103373Y351406D01*
X104038Y350538D01*
X104906Y349873D01*
X105916Y349454D01*
X107000Y349311D01*
X108084Y349454D01*
X109094Y349873D01*
X109962Y350538D01*
X110627Y351406D01*
X111046Y352416D01*
X111189Y353500D01*
X111046Y354584D01*
X110627Y355594D01*
X110443Y355835D01*
X110936Y356835D01*
X113064D01*
X113557Y355835D01*
X113373Y355594D01*
X112954Y354584D01*
X112811Y353500D01*
X112954Y352416D01*
X113373Y351406D01*
X114038Y350538D01*
X114906Y349873D01*
X115916Y349454D01*
X117000Y349311D01*
X118084Y349454D01*
X119094Y349873D01*
X119962Y350538D01*
X120627Y351406D01*
X121046Y352416D01*
X121189Y353500D01*
X121046Y354584D01*
X120627Y355594D01*
X120443Y355835D01*
X120936Y356835D01*
X123064D01*
X123557Y355835D01*
X123373Y355594D01*
X122954Y354584D01*
X122811Y353500D01*
X122954Y352416D01*
X123373Y351406D01*
X124038Y350538D01*
X124906Y349873D01*
X125916Y349454D01*
X127000Y349311D01*
X128084Y349454D01*
X129094Y349873D01*
X129962Y350538D01*
X130627Y351406D01*
X131046Y352416D01*
X131189Y353500D01*
X131046Y354584D01*
X130627Y355594D01*
X130443Y355835D01*
X130936Y356835D01*
X133064D01*
X133557Y355835D01*
X133373Y355594D01*
X132954Y354584D01*
X132811Y353500D01*
X132954Y352416D01*
X133373Y351406D01*
X134038Y350538D01*
X134906Y349873D01*
X135916Y349454D01*
X137000Y349311D01*
X138084Y349454D01*
X139094Y349873D01*
X139962Y350538D01*
X140627Y351406D01*
X141046Y352416D01*
X141189Y353500D01*
X141046Y354584D01*
X140627Y355594D01*
X140443Y355835D01*
X140936Y356835D01*
X143064D01*
X143557Y355835D01*
X143373Y355594D01*
X142954Y354584D01*
X142811Y353500D01*
X142954Y352416D01*
X143373Y351406D01*
X144038Y350538D01*
X144906Y349873D01*
X145916Y349454D01*
X147000Y349311D01*
X148084Y349454D01*
X149094Y349873D01*
X149962Y350538D01*
X150627Y351406D01*
X151046Y352416D01*
X151189Y353500D01*
X151046Y354584D01*
X150627Y355594D01*
X150443Y355835D01*
X150936Y356835D01*
X153064D01*
X153557Y355835D01*
X153373Y355594D01*
X152954Y354584D01*
X152811Y353500D01*
X152954Y352416D01*
X153373Y351406D01*
X154038Y350538D01*
X154906Y349873D01*
X155916Y349454D01*
X157000Y349311D01*
X158084Y349454D01*
X159094Y349873D01*
X159962Y350538D01*
X160627Y351406D01*
X161046Y352416D01*
X161189Y353500D01*
X161046Y354584D01*
X160627Y355594D01*
X160443Y355835D01*
X160936Y356835D01*
X163064D01*
X163557Y355835D01*
X163373Y355594D01*
X162954Y354584D01*
X162811Y353500D01*
X162954Y352416D01*
X163373Y351406D01*
X164038Y350538D01*
X164906Y349873D01*
X165916Y349454D01*
X167000Y349311D01*
X168084Y349454D01*
X169094Y349873D01*
X169962Y350538D01*
X170627Y351406D01*
X171046Y352416D01*
X171189Y353500D01*
X171046Y354584D01*
X170627Y355594D01*
X170443Y355835D01*
X170936Y356835D01*
X173064D01*
X173557Y355835D01*
X173373Y355594D01*
X172954Y354584D01*
X172811Y353500D01*
X172954Y352416D01*
X173373Y351406D01*
X174038Y350538D01*
X174906Y349873D01*
X175916Y349454D01*
X177000Y349311D01*
X178084Y349454D01*
X179094Y349873D01*
X179962Y350538D01*
X180627Y351406D01*
X181046Y352416D01*
X181189Y353500D01*
X181046Y354584D01*
X180627Y355594D01*
X180443Y355835D01*
X180936Y356835D01*
X183064D01*
X183557Y355835D01*
X183373Y355594D01*
X182954Y354584D01*
X182811Y353500D01*
X182954Y352416D01*
X183373Y351406D01*
X184038Y350538D01*
X184906Y349873D01*
X185916Y349454D01*
X187000Y349311D01*
X188084Y349454D01*
X189094Y349873D01*
X189962Y350538D01*
X190627Y351406D01*
X191046Y352416D01*
X191189Y353500D01*
X191046Y354584D01*
X190627Y355594D01*
X190443Y355835D01*
X190936Y356835D01*
X193064D01*
X193557Y355835D01*
X193373Y355594D01*
X192954Y354584D01*
X192811Y353500D01*
X192954Y352416D01*
X193373Y351406D01*
X194038Y350538D01*
X194906Y349873D01*
X195916Y349454D01*
X197000Y349311D01*
X198084Y349454D01*
X198390Y349581D01*
X199355Y348943D01*
X198578Y348126D01*
X190138D01*
X189377Y347975D01*
X188732Y347544D01*
X178614Y337426D01*
X178123Y337629D01*
X177039Y337772D01*
X175955Y337629D01*
X175849Y337585D01*
X165891Y347544D01*
X165246Y347975D01*
X164485Y348126D01*
X146472D01*
X145711Y347975D01*
X145066Y347544D01*
X140771Y343249D01*
X140340Y342604D01*
X140189Y341843D01*
Y323538D01*
X140340Y322778D01*
X140771Y322133D01*
X143089Y319815D01*
X143734Y319384D01*
X143804Y319370D01*
X144682Y318661D01*
X144821Y317963D01*
X145217Y317371D01*
X145809Y316975D01*
X146172Y316903D01*
X146516Y316094D01*
X146519Y315836D01*
X140313Y309630D01*
X139716D01*
X138956Y309479D01*
X138311Y309048D01*
X133567Y304304D01*
X133138Y304248D01*
X132511Y303988D01*
X131972Y303575D01*
X131559Y303036D01*
X131299Y302409D01*
X131211Y301736D01*
X131244Y301482D01*
X130297Y301014D01*
X126283Y305029D01*
Y307759D01*
X121717D01*
Y306973D01*
X118826D01*
Y307857D01*
X114261D01*
Y302111D01*
X118826D01*
Y302996D01*
X121717D01*
Y302013D01*
X123676D01*
X126445Y299243D01*
X125964Y298310D01*
X121717D01*
Y292564D01*
X121684Y292547D01*
X120847Y292153D01*
X119981Y292476D01*
X118826Y293631D01*
Y298409D01*
X114261D01*
Y292662D01*
X114643D01*
X114707Y292341D01*
X115138Y291696D01*
X115922Y290912D01*
X115539Y289988D01*
X114414D01*
X111988Y292414D01*
Y309829D01*
X112094Y309873D01*
X112962Y310538D01*
X113627Y311406D01*
X114046Y312416D01*
X114189Y313500D01*
X114046Y314584D01*
X113627Y315594D01*
X112962Y316462D01*
X112094Y317127D01*
X111084Y317546D01*
X110000Y317689D01*
X108916Y317546D01*
X107906Y317127D01*
X107038Y316462D01*
X106373Y315594D01*
X105954Y314584D01*
X105811Y313500D01*
X105954Y312416D01*
X106373Y311406D01*
X107038Y310538D01*
X107906Y309873D01*
X108012Y309829D01*
Y291591D01*
X108163Y290830D01*
X108594Y290185D01*
X112185Y286594D01*
X112830Y286163D01*
X113591Y286012D01*
X120847D01*
Y283847D01*
X128784D01*
Y281679D01*
X128059Y280955D01*
X127962Y280962D01*
X127094Y281627D01*
X126084Y282046D01*
X125000Y282189D01*
X123916Y282046D01*
X122906Y281627D01*
X122038Y280962D01*
X121373Y280094D01*
X120954Y279084D01*
X120811Y278000D01*
X120954Y276916D01*
X121373Y275906D01*
X122038Y275038D01*
X122906Y274373D01*
X123916Y273954D01*
X125000Y273811D01*
X126084Y273954D01*
X127094Y274373D01*
X127962Y275038D01*
X128627Y275906D01*
X128756Y276216D01*
X129322Y276594D01*
X132178Y279450D01*
X132609Y280095D01*
X132760Y280856D01*
Y292875D01*
X132609Y293636D01*
X132178Y294281D01*
X131447Y295012D01*
X131861Y296012D01*
X135000D01*
X135761Y296163D01*
X135865Y296233D01*
X136284Y296105D01*
X136697Y295567D01*
X137235Y295154D01*
X137862Y294894D01*
X138535Y294805D01*
X139208Y294894D01*
X139836Y295154D01*
X140374Y295567D01*
X140787Y296105D01*
X141047Y296732D01*
X141104Y297162D01*
X148862Y304921D01*
X149765Y304409D01*
X149715Y304030D01*
X149803Y303357D01*
X150063Y302730D01*
X150476Y302191D01*
X151015Y301778D01*
X151642Y301518D01*
X152315Y301430D01*
X152639Y301145D01*
Y300733D01*
X155956D01*
X156185Y299813D01*
X156175Y299733D01*
X155661Y299339D01*
X155248Y298800D01*
X154988Y298173D01*
X154900Y297500D01*
X154988Y296827D01*
X155248Y296200D01*
X155661Y295661D01*
X156200Y295248D01*
X156827Y294988D01*
X157500Y294900D01*
X158173Y294988D01*
X158206Y295002D01*
X159794D01*
X159827Y294988D01*
X160500Y294900D01*
X161173Y294988D01*
X161206Y295002D01*
X176056D01*
Y287563D01*
X176227Y286705D01*
X176713Y285977D01*
X177836Y284854D01*
X178564Y284367D01*
X179422Y284197D01*
X188142D01*
X188438Y284256D01*
X190228D01*
Y285649D01*
X190385Y286440D01*
X190228Y287230D01*
Y288624D01*
X188438D01*
X188142Y288683D01*
X180542D01*
Y293901D01*
X185424D01*
Y294433D01*
X188142D01*
X188438Y294492D01*
X197708D01*
X198024Y293943D01*
X202248D01*
X203083Y293545D01*
Y288193D01*
X202299Y287673D01*
X197708D01*
Y288624D01*
X193536D01*
Y284256D01*
X195375D01*
X195622Y284207D01*
X205140D01*
X221453Y267894D01*
X221038Y266894D01*
X217295D01*
Y269472D01*
X207808D01*
Y267643D01*
X206978D01*
X206314Y267511D01*
X205752Y267135D01*
X200774Y262157D01*
X200399Y261595D01*
X200267Y260932D01*
Y260023D01*
X192763D01*
Y261213D01*
X187213D01*
Y255860D01*
X190213D01*
X190839Y255235D01*
X191401Y254859D01*
X192060Y254728D01*
Y252898D01*
X195464D01*
Y252000D01*
X195596Y251337D01*
X195971Y250774D01*
X197294Y249452D01*
X196964Y248536D01*
X196803Y248430D01*
X196130Y248342D01*
X195503Y248082D01*
X194964Y247669D01*
X194551Y247130D01*
X194291Y246503D01*
X194203Y245830D01*
X194256Y245423D01*
X193824Y244757D01*
X193754Y244697D01*
X192934Y244850D01*
X192700Y244954D01*
X192517Y245794D01*
X192756Y246105D01*
X193016Y246732D01*
X193104Y247406D01*
X193016Y248078D01*
X192756Y248706D01*
X192343Y249244D01*
X191804Y249657D01*
X191177Y249917D01*
X190504Y250006D01*
X189831Y249917D01*
X189204Y249657D01*
X188665Y249244D01*
X188252Y248706D01*
X187992Y248078D01*
X187904Y247406D01*
X187992Y246732D01*
X188063Y246563D01*
X187458Y245621D01*
X187430Y245604D01*
X182414D01*
X182414Y245604D01*
X181424Y245626D01*
X181055Y245675D01*
X180382Y245586D01*
X179755Y245327D01*
X179217Y244913D01*
X178803Y244375D01*
X178543Y243748D01*
X177673Y243224D01*
X177000Y243313D01*
X176327Y243224D01*
X175700Y242964D01*
X175412Y242743D01*
X175339Y242839D01*
X174800Y243252D01*
X174173Y243512D01*
X173500Y243600D01*
X172827Y243512D01*
X172200Y243252D01*
X171661Y242839D01*
X171248Y242300D01*
X170988Y241673D01*
X170900Y241000D01*
X170988Y240327D01*
X170828Y239519D01*
X170391Y239331D01*
X170200Y239252D01*
X169661Y238839D01*
X169248Y238300D01*
X168988Y237673D01*
X168900Y237000D01*
X168988Y236327D01*
X169248Y235700D01*
X169661Y235161D01*
X169767Y235081D01*
Y234583D01*
X169676Y234128D01*
Y230385D01*
X168676Y230081D01*
X168589Y230211D01*
X168589Y230211D01*
X167824Y230977D01*
Y233054D01*
X157414D01*
Y232013D01*
X156252D01*
X155589Y231881D01*
X155026Y231505D01*
X145262Y221741D01*
X145057Y221756D01*
X144243Y222136D01*
X144197Y222488D01*
X143937Y223115D01*
X143673Y223459D01*
Y244459D01*
X143522Y245220D01*
X143091Y245865D01*
X133845Y255111D01*
X133200Y255542D01*
X132439Y255693D01*
X118532D01*
X116114Y258111D01*
Y266654D01*
X115963Y267415D01*
X115532Y268060D01*
X109977Y273615D01*
X109332Y274045D01*
X108571Y274197D01*
X91624D01*
X90863Y274045D01*
X90218Y273615D01*
X79911Y263308D01*
X78987Y263690D01*
Y269572D01*
X68713D01*
Y268179D01*
X67713Y267839D01*
X67514Y268099D01*
X66441Y268922D01*
X65191Y269440D01*
X63850Y269616D01*
X62509Y269440D01*
X61260Y268922D01*
X60276Y268167D01*
X56613D01*
Y288373D01*
X66376Y298136D01*
X67300Y297753D01*
Y296900D01*
X76700D01*
Y301178D01*
X78115D01*
X79472Y299821D01*
Y295410D01*
X79565Y294705D01*
X79837Y294048D01*
X80270Y293484D01*
X80834Y293051D01*
X81259Y292875D01*
X81448Y292172D01*
X81420Y291780D01*
X81312Y291707D01*
X80938Y291148D01*
X80806Y290488D01*
X80938Y289827D01*
X81312Y289268D01*
X81487Y289150D01*
Y288296D01*
X81299Y287842D01*
X81211Y287169D01*
X81299Y286496D01*
X81559Y285869D01*
X81972Y285331D01*
X82511Y284917D01*
X83138Y284658D01*
X83811Y284569D01*
X83943Y284586D01*
X86543Y281986D01*
X87105Y281610D01*
X87769Y281478D01*
X87769Y281478D01*
X105716D01*
X120420Y266774D01*
X120982Y266399D01*
X121185Y266358D01*
X121373Y265906D01*
X122038Y265038D01*
X122906Y264373D01*
X123916Y263954D01*
X125000Y263811D01*
X126084Y263954D01*
X127094Y264373D01*
X127962Y265038D01*
X128627Y265906D01*
X129046Y266916D01*
X129189Y268000D01*
X129046Y269084D01*
X128627Y270094D01*
X127962Y270962D01*
X127094Y271627D01*
X126084Y272046D01*
X125000Y272189D01*
X123916Y272046D01*
X122906Y271627D01*
X122038Y270962D01*
X121191Y270906D01*
X107660Y284437D01*
X107097Y284813D01*
X106434Y284945D01*
X88487D01*
X86394Y287038D01*
X86411Y287169D01*
X86323Y287842D01*
X86063Y288469D01*
X85650Y289008D01*
X85191Y289360D01*
X85503Y289827D01*
X85635Y290488D01*
X85503Y291148D01*
X85129Y291707D01*
X84841Y291900D01*
X84792Y292067D01*
Y292845D01*
X84841Y293012D01*
X85129Y293205D01*
X85503Y293764D01*
X85635Y294425D01*
X85503Y295085D01*
X85287Y295409D01*
X85503Y295733D01*
X85635Y296393D01*
X85503Y297053D01*
X85303Y297354D01*
X86042Y298047D01*
X86360Y297803D01*
X87017Y297531D01*
X87557Y297460D01*
X87588Y297445D01*
X87910Y297109D01*
X88296Y296438D01*
X88287Y296393D01*
X88418Y295733D01*
X88634Y295409D01*
X88418Y295085D01*
X88287Y294425D01*
X88418Y293764D01*
X88634Y293440D01*
X88418Y293116D01*
X88287Y292456D01*
X88418Y291796D01*
X88792Y291236D01*
X89352Y290862D01*
X90012Y290731D01*
X90660D01*
X90701Y290723D01*
X94410D01*
X95074Y290855D01*
X95636Y291230D01*
X98029Y293623D01*
X98405Y294185D01*
X98536Y294849D01*
Y299423D01*
X98642Y299504D01*
X99055Y300042D01*
X99315Y300670D01*
X99403Y301343D01*
X99315Y302015D01*
X99055Y302643D01*
X98642Y303181D01*
X98536Y303262D01*
Y305079D01*
X98536Y305079D01*
X98405Y305742D01*
X98029Y306304D01*
X95250Y309083D01*
X94688Y309459D01*
X94153Y309565D01*
Y317653D01*
X89047D01*
Y323440D01*
X79953D01*
Y322421D01*
X76568D01*
X73594Y325394D01*
Y330678D01*
X78775D01*
Y331445D01*
X79953D01*
Y330103D01*
X89047D01*
Y336440D01*
X85716D01*
Y339247D01*
X89354D01*
Y347553D01*
X85716D01*
Y351617D01*
X91915Y357816D01*
X91972Y357786D01*
X91972Y357786D01*
X92847Y357334D01*
X92847Y356785D01*
Y349347D01*
X94504D01*
Y347553D01*
X93647D01*
Y339247D01*
X100771D01*
Y347553D01*
X99951D01*
Y349347D01*
X101153D01*
Y357653D01*
X93787D01*
X93306Y357653D01*
X92863Y358527D01*
X93392Y359197D01*
X105033D01*
X105418Y358197D01*
D02*
G37*
G36*
X170019Y337791D02*
X169359Y337038D01*
X169134Y337211D01*
X168123Y337629D01*
X167039Y337772D01*
X165955Y337629D01*
X164945Y337211D01*
X164078Y336545D01*
X163412Y335677D01*
X162994Y334667D01*
X162851Y333583D01*
X162994Y332499D01*
X163412Y331489D01*
X164078Y330621D01*
X164945Y329956D01*
X165955Y329537D01*
X166314Y329490D01*
X166725Y328661D01*
Y328550D01*
X165725Y328015D01*
X165710Y328025D01*
X165012Y328164D01*
X163230D01*
X163214Y328175D01*
X162453Y328327D01*
X159458D01*
X159028Y328758D01*
Y329912D01*
X159134Y329956D01*
X160001Y330621D01*
X160667Y331489D01*
X161085Y332499D01*
X161228Y333583D01*
X161085Y334667D01*
X160667Y335677D01*
X160001Y336545D01*
X159134Y337211D01*
X158124Y337629D01*
X157039Y337772D01*
X155955Y337629D01*
X154945Y337211D01*
X154078Y336545D01*
X153412Y335677D01*
X152994Y334667D01*
X152851Y333583D01*
X152994Y332499D01*
X153412Y331489D01*
X154078Y330621D01*
X154945Y329956D01*
X155051Y329912D01*
Y327934D01*
X155202Y327173D01*
X155633Y326528D01*
X155698Y326463D01*
X155550Y325197D01*
X155532Y325185D01*
X154094Y323748D01*
X153663Y323103D01*
X153597Y323050D01*
X152572Y322742D01*
X152325Y322907D01*
X151626Y323046D01*
X149845D01*
X149828Y323057D01*
X149067Y323209D01*
X145319D01*
X144615Y323913D01*
X144686Y324200D01*
X145809Y324652D01*
X146508Y324513D01*
X148289D01*
X148306Y324502D01*
X149067Y324350D01*
X149828Y324502D01*
X149845Y324513D01*
X151626D01*
X152325Y324652D01*
X152917Y325048D01*
X153313Y325640D01*
X153452Y326339D01*
X153313Y327037D01*
X152917Y327629D01*
X152325Y328025D01*
X151626Y328164D01*
X151055D01*
Y331556D01*
X150938Y332144D01*
X151085Y332499D01*
X151228Y333583D01*
X151085Y334667D01*
X150667Y335677D01*
X150001Y336545D01*
X149134Y337211D01*
X148124Y337629D01*
X147039Y337772D01*
X145955Y337629D01*
X145165Y337302D01*
X144165Y337737D01*
Y341019D01*
X147296Y344150D01*
X163661D01*
X170019Y337791D01*
D02*
G37*
G36*
X81739Y349445D02*
Y342681D01*
Y336440D01*
X79953D01*
Y335421D01*
X78775D01*
Y336031D01*
X73594D01*
Y342607D01*
X80815Y349828D01*
X81739Y349445D01*
D02*
G37*
G36*
X280194Y189815D02*
X279194Y189143D01*
X279067Y189169D01*
X270454D01*
X270223Y189726D01*
X270127Y190169D01*
X270572Y190835D01*
X270743Y191694D01*
X270572Y192552D01*
X270437Y192754D01*
Y201764D01*
X272473Y203800D01*
X275150D01*
Y210200D01*
X274997D01*
X274031Y210280D01*
Y215813D01*
X274680Y216381D01*
X275031Y216526D01*
X275543Y216459D01*
X276216Y216547D01*
X276843Y216807D01*
X277382Y217220D01*
X277795Y217759D01*
X278055Y218386D01*
X278144Y219059D01*
X278055Y219732D01*
X277795Y220359D01*
X277382Y220898D01*
X277277Y220978D01*
Y236003D01*
X277277Y236003D01*
X277145Y236666D01*
X276769Y237229D01*
X276769Y237229D01*
X274521Y239477D01*
Y246825D01*
X274626Y246905D01*
X275039Y247444D01*
X275299Y248071D01*
X275388Y248744D01*
X275299Y249417D01*
X275087Y249930D01*
X275248Y250363D01*
X275620Y250930D01*
X277997D01*
Y256480D01*
X268904D01*
X268097Y256945D01*
X267874Y257168D01*
Y286217D01*
X267742Y286881D01*
X267367Y287443D01*
X261614Y293195D01*
X261052Y293571D01*
X260389Y293703D01*
X259027D01*
Y297228D01*
X248359D01*
X248200Y298162D01*
Y298803D01*
X244422D01*
Y296084D01*
X243082D01*
Y298803D01*
X242824D01*
Y300536D01*
X243677D01*
Y304989D01*
X244677Y305567D01*
X245269Y305225D01*
X246699Y304633D01*
X248195Y304232D01*
X249730Y304030D01*
X251278D01*
X252813Y304232D01*
X254309Y304633D01*
X255739Y305225D01*
X257080Y305999D01*
X258308Y306942D01*
X259403Y308037D01*
X260346Y309265D01*
X261120Y310606D01*
X261712Y312036D01*
X262113Y313532D01*
X262315Y315067D01*
Y316615D01*
X262113Y318150D01*
X261712Y319646D01*
X261120Y321076D01*
X260346Y322417D01*
X259403Y323645D01*
X258308Y324740D01*
X257080Y325682D01*
X255739Y326457D01*
X254309Y327049D01*
X252813Y327450D01*
X251278Y327652D01*
X249730D01*
X248195Y327450D01*
X246699Y327049D01*
X245269Y326457D01*
X243928Y325682D01*
X242700Y324740D01*
X241605Y323645D01*
X240662Y322417D01*
X239888Y321076D01*
X239296Y319646D01*
X238895Y318150D01*
X238693Y316615D01*
Y315067D01*
X238895Y313532D01*
X239296Y312036D01*
X239888Y310606D01*
X240662Y309265D01*
X241605Y308037D01*
X242556Y307086D01*
X242441Y306521D01*
X242173Y306086D01*
X238325D01*
Y306086D01*
X237969D01*
Y306086D01*
X232616D01*
Y300536D01*
X233300D01*
Y298664D01*
X208633D01*
Y299254D01*
X203574D01*
Y299296D01*
X202022D01*
X201408Y299909D01*
Y309640D01*
X202127Y310192D01*
X202793Y311059D01*
X203211Y312070D01*
X203354Y313154D01*
X203211Y314238D01*
X202793Y315248D01*
X202136Y316103D01*
X202144Y316162D01*
X202482Y317103D01*
X203046D01*
Y323440D01*
X193954D01*
Y317103D01*
X195848D01*
X196187Y316162D01*
X196194Y316103D01*
X195538Y315248D01*
X195120Y314238D01*
X194977Y313154D01*
X195120Y312070D01*
X195538Y311059D01*
X196204Y310192D01*
X196922Y309640D01*
Y304161D01*
X195998Y303778D01*
X194863Y304914D01*
X194218Y305345D01*
X193457Y305496D01*
X174264D01*
X173713Y306496D01*
X173724Y306639D01*
X173724D01*
X173724Y307271D01*
Y312188D01*
X172910D01*
Y313599D01*
X174089Y314777D01*
X175013Y314394D01*
Y309001D01*
X183318D01*
Y317306D01*
X177925D01*
X177542Y318230D01*
X178445Y319133D01*
X178876Y319778D01*
X179028Y320539D01*
Y323209D01*
Y328500D01*
Y329912D01*
X179134Y329956D01*
X180001Y330621D01*
X180667Y331489D01*
X181085Y332499D01*
X181228Y333583D01*
X181131Y334319D01*
X190961Y344150D01*
X199866D01*
X200627Y344301D01*
X201272Y344732D01*
X203406Y346866D01*
X203837Y347511D01*
X203988Y348272D01*
Y357430D01*
X203837Y358191D01*
X203833Y358197D01*
X204367Y359197D01*
X208491D01*
X210957Y356732D01*
Y343886D01*
X208635Y341564D01*
X206036D01*
Y338966D01*
X203374Y336304D01*
X203046Y336440D01*
Y336440D01*
X193954D01*
Y330103D01*
X203046D01*
Y331445D01*
X203315D01*
X204076Y331596D01*
X204721Y332027D01*
X208905Y336212D01*
X211586D01*
Y338892D01*
X212374Y339680D01*
X213516Y339408D01*
X213739Y339075D01*
X215450Y337364D01*
X215068Y336440D01*
X213953D01*
Y330103D01*
X223046D01*
Y336440D01*
X220996D01*
Y336618D01*
X220845Y337379D01*
X220414Y338024D01*
X217133Y341305D01*
Y358466D01*
X216982Y359227D01*
X216551Y359872D01*
X211470Y364953D01*
X210825Y365384D01*
X210064Y365535D01*
X91723D01*
X90962Y365384D01*
X90317Y364953D01*
X70200Y344836D01*
X69769Y344191D01*
X69618Y343430D01*
Y324571D01*
X69769Y323810D01*
X70200Y323165D01*
X74338Y319027D01*
X74983Y318596D01*
X75744Y318445D01*
X79953D01*
Y317103D01*
X85847D01*
Y309591D01*
X67491D01*
X66828Y309459D01*
X66266Y309083D01*
X66266Y309083D01*
X59865Y302682D01*
X33467D01*
X32760Y303389D01*
Y303724D01*
X32760Y304724D01*
Y309432D01*
X32760D01*
Y309839D01*
X32760D01*
Y315388D01*
X27211D01*
Y309839D01*
X27211D01*
Y309432D01*
X27211D01*
Y304724D01*
X27211Y304080D01*
X27211Y303080D01*
Y298371D01*
X32760D01*
Y299216D01*
X58447D01*
X58829Y298292D01*
X51964Y291426D01*
X51531Y290862D01*
X51259Y290205D01*
X51166Y289501D01*
Y287260D01*
X50166Y287128D01*
X50093Y287403D01*
X49500Y288834D01*
X48726Y290175D01*
X47784Y291403D01*
X46689Y292498D01*
X45461Y293440D01*
X44120Y294215D01*
X42689Y294807D01*
X41194Y295208D01*
X39659Y295410D01*
X38110D01*
X36575Y295208D01*
X35080Y294807D01*
X33650Y294215D01*
X32309Y293440D01*
X31080Y292498D01*
X29985Y291403D01*
X29043Y290175D01*
X28269Y288834D01*
X27676Y287403D01*
X27276Y285908D01*
X27073Y284373D01*
Y282825D01*
X27276Y281290D01*
X27676Y279794D01*
X28269Y278364D01*
X29043Y277023D01*
X29985Y275795D01*
X31080Y274700D01*
X32309Y273757D01*
X33650Y272983D01*
X35080Y272391D01*
X36575Y271990D01*
X38110Y271788D01*
X39659D01*
X41194Y271990D01*
X42689Y272391D01*
X44120Y272983D01*
X45461Y273757D01*
X46689Y274700D01*
X47784Y275795D01*
X48726Y277023D01*
X49500Y278364D01*
X50093Y279794D01*
X50166Y280069D01*
X51166Y279938D01*
Y268167D01*
X45499D01*
X44584Y268546D01*
X43500Y268689D01*
X42416Y268546D01*
X41406Y268127D01*
X40538Y267462D01*
X39873Y266594D01*
X39454Y265584D01*
X39311Y264500D01*
X39454Y263416D01*
X39873Y262406D01*
X40079Y262137D01*
Y256863D01*
X39873Y256594D01*
X39454Y255584D01*
X39311Y254500D01*
X39454Y253416D01*
X39708Y252804D01*
X38860Y252237D01*
X37562Y253536D01*
X37689Y254500D01*
X37546Y255584D01*
X37127Y256594D01*
X36462Y257462D01*
X35594Y258127D01*
X34584Y258546D01*
X33500Y258689D01*
X32416Y258546D01*
X31406Y258127D01*
X30538Y257462D01*
X29873Y256594D01*
X29454Y255584D01*
X29311Y254500D01*
X29454Y253416D01*
X29873Y252406D01*
X30538Y251538D01*
X31406Y250873D01*
X32416Y250454D01*
X33500Y250311D01*
X34584Y250454D01*
X34892Y250582D01*
X37444Y248029D01*
X38089Y247598D01*
X38850Y247447D01*
X68528D01*
X68748Y247274D01*
X69061Y246825D01*
X69174Y246492D01*
X68836Y245673D01*
X68672Y244435D01*
X68836Y243197D01*
X69261Y242168D01*
X69037Y241579D01*
X68741Y241146D01*
X68187Y241036D01*
X67625Y240661D01*
X65863Y238899D01*
X65482Y239056D01*
X64244Y239219D01*
X63457D01*
X62218Y239056D01*
X61064Y238578D01*
X60074Y237818D01*
X59567Y237158D01*
X46695D01*
X46462Y237462D01*
X45594Y238127D01*
X44584Y238546D01*
X43500Y238689D01*
X42416Y238546D01*
X41406Y238127D01*
X40538Y237462D01*
X39873Y236594D01*
X39454Y235584D01*
X39311Y234500D01*
X39454Y233416D01*
X39873Y232406D01*
X40538Y231538D01*
X41406Y230873D01*
X42416Y230454D01*
X43500Y230311D01*
X44584Y230454D01*
X45594Y230873D01*
X46462Y231538D01*
X46595Y231712D01*
X59567D01*
X60074Y231052D01*
X61064Y230292D01*
X61826Y229976D01*
Y228894D01*
X61064Y228578D01*
X60074Y227818D01*
X59567Y227158D01*
X46695D01*
X46462Y227462D01*
X45594Y228127D01*
X44584Y228546D01*
X43500Y228689D01*
X42416Y228546D01*
X41406Y228127D01*
X40538Y227462D01*
X39873Y226594D01*
X39454Y225584D01*
X39311Y224500D01*
X39454Y223416D01*
X39873Y222406D01*
X40538Y221538D01*
X41406Y220873D01*
X42416Y220454D01*
X43500Y220311D01*
X44584Y220454D01*
X45594Y220873D01*
X46462Y221538D01*
X46595Y221712D01*
X59567D01*
X60074Y221052D01*
X61064Y220292D01*
X61826Y219976D01*
Y218894D01*
X61064Y218578D01*
X60074Y217818D01*
X59567Y217158D01*
X46695D01*
X46462Y217462D01*
X45594Y218127D01*
X44584Y218546D01*
X43500Y218689D01*
X42416Y218546D01*
X41406Y218127D01*
X40538Y217462D01*
X39873Y216594D01*
X39454Y215584D01*
X39311Y214500D01*
X39454Y213416D01*
X39708Y212804D01*
X38860Y212237D01*
X37562Y213536D01*
X37689Y214500D01*
X37546Y215584D01*
X37127Y216594D01*
X36462Y217462D01*
X35594Y218127D01*
X34584Y218546D01*
X33500Y218689D01*
X32416Y218546D01*
X31406Y218127D01*
X30538Y217462D01*
X29873Y216594D01*
X29454Y215584D01*
X29311Y214500D01*
X29454Y213416D01*
X29873Y212406D01*
X30538Y211538D01*
X31406Y210873D01*
X32416Y210454D01*
X33500Y210311D01*
X34584Y210454D01*
X34892Y210582D01*
X37444Y208029D01*
X38089Y207598D01*
X38850Y207447D01*
X68478D01*
X69068Y206721D01*
X69139Y206485D01*
X68846Y205776D01*
X68669Y204435D01*
X68846Y203094D01*
X69095Y202492D01*
X68027Y201423D01*
X39674D01*
X37562Y203536D01*
X37689Y204500D01*
X37546Y205584D01*
X37127Y206594D01*
X36462Y207462D01*
X35594Y208127D01*
X34584Y208546D01*
X33500Y208689D01*
X32416Y208546D01*
X31406Y208127D01*
X30538Y207462D01*
X29873Y206594D01*
X29454Y205584D01*
X29311Y204500D01*
X29454Y203416D01*
X29873Y202406D01*
X30538Y201538D01*
X31406Y200873D01*
X32416Y200454D01*
X33500Y200311D01*
X34584Y200454D01*
X34892Y200582D01*
X37444Y198029D01*
X38089Y197598D01*
X38850Y197447D01*
X39419D01*
X39812Y196447D01*
X39454Y195584D01*
X39311Y194500D01*
X39454Y193416D01*
X39708Y192804D01*
X38860Y192237D01*
X37562Y193536D01*
X37689Y194500D01*
X37546Y195584D01*
X37127Y196594D01*
X36462Y197462D01*
X35594Y198127D01*
X34584Y198546D01*
X33500Y198689D01*
X32416Y198546D01*
X31406Y198127D01*
X30538Y197462D01*
X29873Y196594D01*
X29454Y195584D01*
X29311Y194500D01*
X29454Y193416D01*
X29873Y192406D01*
X30538Y191538D01*
X31406Y190873D01*
X32416Y190454D01*
X33500Y190311D01*
X34584Y190454D01*
X34892Y190582D01*
X37444Y188029D01*
X38089Y187598D01*
X38850Y187447D01*
X39419D01*
X39812Y186447D01*
X39454Y185584D01*
X39311Y184500D01*
X39454Y183416D01*
X39708Y182804D01*
X38860Y182237D01*
X37562Y183536D01*
X37689Y184500D01*
X37546Y185584D01*
X37127Y186594D01*
X36462Y187462D01*
X35594Y188127D01*
X34584Y188546D01*
X33500Y188689D01*
X32416Y188546D01*
X31406Y188127D01*
X30538Y187462D01*
X29873Y186594D01*
X29454Y185584D01*
X29311Y184500D01*
X29454Y183416D01*
X29873Y182406D01*
X30538Y181538D01*
X31406Y180873D01*
X32416Y180454D01*
X33500Y180311D01*
X34584Y180454D01*
X34892Y180582D01*
X37444Y178029D01*
X38089Y177598D01*
X38850Y177447D01*
X68478D01*
X69068Y176721D01*
X69139Y176485D01*
X68846Y175776D01*
X68669Y174435D01*
X68846Y173094D01*
X69095Y172492D01*
X68027Y171423D01*
X39674D01*
X37562Y173536D01*
X37689Y174500D01*
X37546Y175584D01*
X37127Y176594D01*
X36462Y177462D01*
X35594Y178127D01*
X34584Y178546D01*
X33500Y178689D01*
X32416Y178546D01*
X31406Y178127D01*
X30538Y177462D01*
X29873Y176594D01*
X29454Y175584D01*
X29311Y174500D01*
X29454Y173416D01*
X29873Y172406D01*
X30538Y171538D01*
X31406Y170873D01*
X32416Y170454D01*
X33500Y170311D01*
X34584Y170454D01*
X34892Y170582D01*
X37444Y168029D01*
X38089Y167598D01*
X38850Y167447D01*
X39419D01*
X39812Y166447D01*
X39454Y165584D01*
X39311Y164500D01*
X39454Y163416D01*
X39708Y162804D01*
X38860Y162237D01*
X37562Y163536D01*
X37689Y164500D01*
X37546Y165584D01*
X37127Y166594D01*
X36462Y167462D01*
X35594Y168127D01*
X34584Y168546D01*
X33500Y168689D01*
X32416Y168546D01*
X31406Y168127D01*
X30538Y167462D01*
X29873Y166594D01*
X29454Y165584D01*
X29311Y164500D01*
X29454Y163416D01*
X29873Y162406D01*
X30538Y161538D01*
X31406Y160873D01*
X32416Y160454D01*
X33500Y160311D01*
X34584Y160454D01*
X34892Y160582D01*
X37444Y158029D01*
X38089Y157598D01*
X38850Y157447D01*
X39419D01*
X39812Y156447D01*
X39454Y155584D01*
X39311Y154500D01*
X39454Y153416D01*
X39708Y152804D01*
X38860Y152237D01*
X37562Y153536D01*
X37689Y154500D01*
X37546Y155584D01*
X37127Y156594D01*
X36462Y157462D01*
X35594Y158127D01*
X34584Y158546D01*
X33500Y158689D01*
X32416Y158546D01*
X31406Y158127D01*
X30538Y157462D01*
X29873Y156594D01*
X29454Y155584D01*
X29311Y154500D01*
X29454Y153416D01*
X29873Y152406D01*
X30538Y151538D01*
X31406Y150873D01*
X32416Y150454D01*
X33500Y150311D01*
X34584Y150454D01*
X34892Y150582D01*
X37444Y148029D01*
X38089Y147598D01*
X38850Y147447D01*
X39419D01*
X39812Y146447D01*
X39454Y145584D01*
X39311Y144500D01*
X39454Y143416D01*
X39873Y142406D01*
X40538Y141538D01*
X41406Y140873D01*
X42416Y140454D01*
X43500Y140311D01*
X44584Y140454D01*
X45594Y140873D01*
X46462Y141538D01*
X46595Y141712D01*
X59567D01*
X60074Y141052D01*
X61064Y140292D01*
X61826Y139976D01*
Y138894D01*
X61064Y138578D01*
X60074Y137818D01*
X59567Y137158D01*
X46695D01*
X46462Y137462D01*
X45595Y138128D01*
X44584Y138546D01*
X43500Y138689D01*
X42416Y138546D01*
X41406Y138128D01*
X40538Y137462D01*
X39873Y136595D01*
X39454Y135584D01*
X39312Y134500D01*
X39454Y133416D01*
X39709Y132803D01*
X38861Y132236D01*
X37562Y133535D01*
X37689Y134500D01*
X37546Y135584D01*
X37128Y136595D01*
X36462Y137462D01*
X35595Y138128D01*
X34584Y138546D01*
X33500Y138689D01*
X32416Y138546D01*
X31406Y138128D01*
X30538Y137462D01*
X29873Y136595D01*
X29454Y135584D01*
X29312Y134500D01*
X29454Y133416D01*
X29873Y132406D01*
X30538Y131539D01*
X31406Y130873D01*
X32416Y130455D01*
X33500Y130312D01*
X34584Y130455D01*
X34892Y130582D01*
X37444Y128029D01*
X38089Y127598D01*
X38850Y127447D01*
X68478D01*
X69068Y126721D01*
X69139Y126485D01*
X68846Y125776D01*
X68669Y124435D01*
X68846Y123094D01*
X69095Y122492D01*
X68027Y121423D01*
X39674D01*
X37562Y123536D01*
X37689Y124500D01*
X37546Y125584D01*
X37127Y126594D01*
X36462Y127462D01*
X35594Y128127D01*
X34584Y128546D01*
X33500Y128689D01*
X32416Y128546D01*
X31406Y128127D01*
X30538Y127462D01*
X29873Y126594D01*
X29454Y125584D01*
X29311Y124500D01*
X29454Y123416D01*
X29873Y122406D01*
X30538Y121538D01*
X31406Y120873D01*
X32416Y120454D01*
X33500Y120311D01*
X34584Y120454D01*
X34892Y120582D01*
X37444Y118029D01*
X38089Y117598D01*
X38850Y117447D01*
X39419D01*
X39812Y116447D01*
X39454Y115584D01*
X39311Y114500D01*
X39454Y113416D01*
X39708Y112804D01*
X38860Y112237D01*
X37562Y113536D01*
X37689Y114500D01*
X37546Y115584D01*
X37127Y116594D01*
X36462Y117462D01*
X35594Y118127D01*
X34584Y118546D01*
X33500Y118689D01*
X32416Y118546D01*
X31406Y118127D01*
X30538Y117462D01*
X29873Y116594D01*
X29454Y115584D01*
X29311Y114500D01*
X29454Y113416D01*
X29873Y112406D01*
X30538Y111538D01*
X31406Y110873D01*
X32416Y110454D01*
X33500Y110311D01*
X34584Y110454D01*
X34892Y110582D01*
X37444Y108029D01*
X38089Y107598D01*
X38850Y107447D01*
X68478D01*
X69068Y106721D01*
X69139Y106485D01*
X68846Y105776D01*
X68669Y104435D01*
X68846Y103094D01*
X69095Y102492D01*
X68027Y101423D01*
X39674D01*
X37562Y103536D01*
X37689Y104500D01*
X37546Y105584D01*
X37127Y106594D01*
X36462Y107462D01*
X35594Y108127D01*
X34584Y108546D01*
X33500Y108689D01*
X32416Y108546D01*
X31406Y108127D01*
X30538Y107462D01*
X29873Y106594D01*
X29454Y105584D01*
X29311Y104500D01*
X29454Y103416D01*
X29873Y102406D01*
X30538Y101538D01*
X31406Y100873D01*
X32416Y100454D01*
X33500Y100311D01*
X34584Y100454D01*
X34892Y100582D01*
X37444Y98029D01*
X38089Y97598D01*
X38850Y97447D01*
X39419D01*
X39812Y96447D01*
X39454Y95584D01*
X39311Y94500D01*
X39454Y93416D01*
X39708Y92804D01*
X38860Y92237D01*
X37562Y93536D01*
X37689Y94500D01*
X37546Y95584D01*
X37127Y96594D01*
X36462Y97462D01*
X35594Y98127D01*
X34584Y98546D01*
X33500Y98689D01*
X32416Y98546D01*
X31406Y98127D01*
X30538Y97462D01*
X29873Y96594D01*
X29454Y95584D01*
X29311Y94500D01*
X29454Y93416D01*
X29873Y92406D01*
X30538Y91538D01*
X31406Y90873D01*
X32416Y90454D01*
X33500Y90311D01*
X34584Y90454D01*
X34892Y90582D01*
X37444Y88029D01*
X38089Y87598D01*
X38850Y87447D01*
X39419D01*
X39812Y86447D01*
X39454Y85584D01*
X39311Y84500D01*
X39454Y83416D01*
X39708Y82804D01*
X38860Y82237D01*
X37562Y83536D01*
X37689Y84500D01*
X37546Y85584D01*
X37127Y86594D01*
X36462Y87462D01*
X35594Y88127D01*
X34584Y88546D01*
X33500Y88689D01*
X32416Y88546D01*
X31406Y88127D01*
X30538Y87462D01*
X29873Y86594D01*
X29454Y85584D01*
X29311Y84500D01*
X29454Y83416D01*
X29873Y82406D01*
X30538Y81538D01*
X31406Y80873D01*
X32416Y80454D01*
X33500Y80311D01*
X34584Y80454D01*
X34892Y80582D01*
X37444Y78029D01*
X38089Y77598D01*
X38850Y77447D01*
X39419D01*
X39812Y76447D01*
X39454Y75584D01*
X39312Y74500D01*
X39454Y73416D01*
X39873Y72406D01*
X40538Y71538D01*
X41406Y70873D01*
X42416Y70454D01*
X43500Y70311D01*
X44584Y70454D01*
X45595Y70873D01*
X46462Y71538D01*
X46595Y71712D01*
X59567D01*
X60074Y71052D01*
X61064Y70292D01*
X62218Y69814D01*
X63457Y69651D01*
X64244D01*
X65482Y69814D01*
X66636Y70292D01*
X67627Y71052D01*
X68387Y72043D01*
X68865Y73197D01*
X69028Y74435D01*
X68865Y75673D01*
X68545Y76447D01*
X68681Y76891D01*
X68950Y77339D01*
X69130Y77502D01*
X69611Y77598D01*
X70256Y78029D01*
X71907Y79680D01*
X72509Y79430D01*
X73850Y79254D01*
X75191Y79430D01*
X76441Y79948D01*
X77514Y80771D01*
X78338Y81844D01*
X78855Y83094D01*
X79032Y84435D01*
X78855Y85776D01*
X78338Y87026D01*
X77514Y88099D01*
X76489Y88885D01*
X76410Y89425D01*
Y89445D01*
X76489Y89985D01*
X77514Y90771D01*
X78338Y91844D01*
X78855Y93094D01*
X79032Y94435D01*
X78855Y95776D01*
X78338Y97026D01*
X77514Y98099D01*
X76489Y98885D01*
X76410Y99425D01*
Y99445D01*
X76489Y99985D01*
X77514Y100771D01*
X78338Y101844D01*
X78855Y103094D01*
X79032Y104435D01*
X78855Y105776D01*
X78338Y107026D01*
X77514Y108099D01*
X76489Y108885D01*
X76410Y109425D01*
Y109445D01*
X76489Y109985D01*
X77514Y110771D01*
X78338Y111844D01*
X78855Y113094D01*
X79032Y114435D01*
X78855Y115776D01*
X78338Y117026D01*
X77514Y118099D01*
X76489Y118885D01*
X76410Y119425D01*
Y119445D01*
X76489Y119985D01*
X77514Y120771D01*
X78338Y121844D01*
X78855Y123094D01*
X79032Y124435D01*
X78855Y125776D01*
X78338Y127026D01*
X77514Y128099D01*
X76489Y128885D01*
X76410Y129425D01*
Y129445D01*
X76489Y129985D01*
X77514Y130771D01*
X78338Y131844D01*
X78855Y133094D01*
X79032Y134435D01*
X78855Y135776D01*
X78338Y137026D01*
X77514Y138099D01*
X76441Y138922D01*
X75191Y139440D01*
X73850Y139616D01*
X72509Y139440D01*
X71260Y138922D01*
X70187Y138099D01*
X69363Y137026D01*
X68955Y136943D01*
X68265Y136987D01*
X67627Y137818D01*
X66636Y138578D01*
X65874Y138894D01*
Y139976D01*
X66636Y140292D01*
X67627Y141052D01*
X68387Y142043D01*
X68865Y143197D01*
X69028Y144435D01*
X68865Y145673D01*
X68545Y146447D01*
X68681Y146891D01*
X68950Y147339D01*
X69130Y147502D01*
X69611Y147598D01*
X70256Y148029D01*
X71907Y149680D01*
X72509Y149430D01*
X73850Y149254D01*
X75191Y149430D01*
X76441Y149948D01*
X77514Y150771D01*
X78338Y151844D01*
X78855Y153094D01*
X79032Y154435D01*
X78855Y155776D01*
X78338Y157026D01*
X77514Y158099D01*
X76489Y158885D01*
X76410Y159425D01*
Y159445D01*
X76489Y159985D01*
X77514Y160771D01*
X78338Y161844D01*
X78855Y163094D01*
X79032Y164435D01*
X78855Y165776D01*
X78338Y167026D01*
X77514Y168099D01*
X76489Y168885D01*
X76410Y169425D01*
Y169445D01*
X76489Y169985D01*
X77514Y170771D01*
X78338Y171844D01*
X78855Y173094D01*
X79032Y174435D01*
X78855Y175776D01*
X78338Y177026D01*
X77514Y178099D01*
X76489Y178885D01*
X76410Y179425D01*
Y179445D01*
X76489Y179985D01*
X77514Y180771D01*
X78338Y181844D01*
X78855Y183094D01*
X79032Y184435D01*
X78855Y185776D01*
X78338Y187026D01*
X77514Y188099D01*
X76489Y188885D01*
X76410Y189425D01*
Y189445D01*
X76489Y189985D01*
X77514Y190771D01*
X78338Y191844D01*
X78855Y193094D01*
X79032Y194435D01*
X78855Y195776D01*
X78338Y197026D01*
X77514Y198099D01*
X76489Y198885D01*
X76410Y199425D01*
Y199445D01*
X76489Y199985D01*
X77477Y200743D01*
X77535Y200769D01*
X78694Y200666D01*
X78701Y200655D01*
X79830Y199526D01*
X80392Y199151D01*
X81055Y199019D01*
X81430D01*
Y198174D01*
X81439D01*
Y194828D01*
X81439D01*
Y194472D01*
X81439D01*
Y189119D01*
X86989D01*
Y189964D01*
X90014D01*
X90677Y190095D01*
X91240Y190471D01*
X92123Y191355D01*
X92499Y191917D01*
X92631Y192580D01*
Y193253D01*
X93672D01*
Y195112D01*
X94627Y195893D01*
X95307Y195771D01*
X95454Y195552D01*
Y194118D01*
X95349Y194037D01*
X94936Y193498D01*
X94676Y192871D01*
X94587Y192198D01*
X94676Y191525D01*
X94936Y190898D01*
X95349Y190360D01*
X95888Y189946D01*
X96515Y189687D01*
X97188Y189598D01*
X97753Y189673D01*
X97928Y189633D01*
X98753Y188974D01*
Y186757D01*
X103219D01*
Y179782D01*
X102541Y179501D01*
X101550Y178741D01*
X100790Y177750D01*
X100312Y176596D01*
X100149Y175358D01*
X100312Y174120D01*
X100790Y172966D01*
X101550Y171975D01*
X102541Y171215D01*
X103219Y170934D01*
Y169960D01*
X101265D01*
Y155560D01*
X101285D01*
Y143724D01*
X101892D01*
X101924Y143600D01*
X101147Y142600D01*
X82574D01*
X82106Y142507D01*
X81709Y142242D01*
X81444Y141845D01*
X81350Y141376D01*
Y138227D01*
X81444Y137759D01*
X81709Y137362D01*
X81836Y137276D01*
Y135570D01*
X97636D01*
Y137003D01*
X103539D01*
X104007Y137096D01*
X104404Y137362D01*
X104505Y137514D01*
X104785Y137327D01*
X105468Y137191D01*
X106152Y137327D01*
X106453Y137528D01*
X106754Y137327D01*
X107437Y137191D01*
X108120Y137327D01*
X108700Y137714D01*
X108850Y137939D01*
X108858Y137942D01*
X109953D01*
X109961Y137939D01*
X110111Y137714D01*
X110691Y137327D01*
X111374Y137191D01*
X112057Y137327D01*
X112637Y137714D01*
X112873Y138068D01*
X114107D01*
Y137032D01*
X119460D01*
Y142582D01*
X118994D01*
X118611Y143506D01*
X118937Y143832D01*
X119313Y144394D01*
X119401Y144837D01*
X125605D01*
Y150190D01*
X121339D01*
X120486Y150546D01*
Y155899D01*
X115661D01*
Y169960D01*
X108215D01*
Y171898D01*
X108316Y171975D01*
X109076Y172966D01*
X109554Y174120D01*
X109717Y175358D01*
X109554Y176596D01*
X109076Y177750D01*
X108316Y178741D01*
X108215Y178819D01*
Y189532D01*
Y196979D01*
X109215Y197391D01*
X109383Y197221D01*
Y192465D01*
X114932D01*
Y196052D01*
X117064D01*
X117728Y196184D01*
X118290Y196559D01*
X119207Y197476D01*
X119547Y197508D01*
X120452Y197308D01*
X120661Y197035D01*
X121200Y196622D01*
X121827Y196362D01*
X122500Y196274D01*
X123173Y196362D01*
X123800Y196622D01*
X124339Y197035D01*
X124752Y197574D01*
X125012Y198201D01*
X125100Y198874D01*
X125012Y199547D01*
X124752Y200174D01*
X124339Y200713D01*
X124066Y200922D01*
X123888Y201730D01*
X124480Y202562D01*
X151033D01*
X151265Y202327D01*
X151626Y201562D01*
X151482Y201217D01*
X151394Y200543D01*
X151482Y199871D01*
X151742Y199243D01*
X152155Y198705D01*
X152694Y198292D01*
X153321Y198032D01*
X153994Y197943D01*
X154667Y198032D01*
X154821Y198096D01*
X155320Y198270D01*
X156080Y197634D01*
X156382Y197240D01*
X156920Y196827D01*
X157057Y196771D01*
X157600Y196346D01*
X157794Y195526D01*
X157786Y195458D01*
X157791Y195414D01*
X157692Y195226D01*
X156737Y194941D01*
X156041Y195636D01*
X155479Y196012D01*
X154816Y196144D01*
X138973D01*
X138310Y196012D01*
X137748Y195636D01*
X136326Y194214D01*
X135950Y193652D01*
X135878Y193291D01*
X134973D01*
Y188989D01*
X128962D01*
X127774Y190178D01*
X127791Y190309D01*
X127703Y190982D01*
X127443Y191609D01*
X127030Y192148D01*
X126491Y192561D01*
X125864Y192821D01*
X125191Y192909D01*
X124518Y192821D01*
X123891Y192561D01*
X123353Y192148D01*
X122939Y191609D01*
X122680Y190982D01*
X122591Y190309D01*
X122653Y189841D01*
X122566Y189709D01*
X122218Y189389D01*
X121793Y189162D01*
X121492Y189287D01*
X120819Y189376D01*
X120146Y189287D01*
X119519Y189027D01*
X118980Y188614D01*
X118567Y188076D01*
X118307Y187449D01*
X118219Y186776D01*
X118307Y186103D01*
X118567Y185476D01*
X118923Y185012D01*
X118841Y184889D01*
X118567Y184532D01*
X118307Y183905D01*
X118219Y183232D01*
X118307Y182559D01*
X118567Y181932D01*
X118980Y181394D01*
X119519Y180980D01*
X120146Y180721D01*
X120819Y180632D01*
X121492Y180721D01*
X121503Y180725D01*
X122571Y180202D01*
X122599Y180153D01*
X122841Y179570D01*
X123254Y179032D01*
X123793Y178618D01*
X124420Y178358D01*
X124749Y178315D01*
X125577Y177898D01*
Y177898D01*
X125577Y177898D01*
X131126D01*
Y179137D01*
X144247D01*
X144740Y178137D01*
X144444Y177750D01*
X143965Y176596D01*
X143802Y175358D01*
X143965Y174120D01*
X144444Y172966D01*
X145204Y171975D01*
X145611Y171663D01*
Y169960D01*
X140855D01*
Y155560D01*
X144687D01*
Y143724D01*
X144687D01*
X144644Y142741D01*
X144582Y142600D01*
X125976D01*
X125507Y142507D01*
X125110Y142242D01*
X124845Y141845D01*
X124752Y141376D01*
Y138227D01*
X124845Y137759D01*
X125110Y137362D01*
X125238Y137276D01*
Y135570D01*
X141038D01*
Y137003D01*
X146863D01*
X146917Y136993D01*
X147601Y137128D01*
X147902Y137329D01*
X148203Y137128D01*
X148886Y136993D01*
X149569Y137128D01*
X149870Y137329D01*
X150171Y137128D01*
X150854Y136993D01*
X151538Y137128D01*
X152117Y137515D01*
X152267Y137741D01*
X152276Y137744D01*
X153370D01*
X153378Y137741D01*
X153529Y137515D01*
X154108Y137128D01*
X154791Y136993D01*
X155475Y137128D01*
X156054Y137515D01*
X156423Y138068D01*
X157725D01*
Y136678D01*
X163275D01*
Y141091D01*
X163458Y141166D01*
X163996Y141579D01*
X164085Y141696D01*
X170013D01*
Y140064D01*
X169117Y139813D01*
X169003Y139790D01*
X168441Y139415D01*
X164475Y135449D01*
X164099Y134886D01*
X163968Y134223D01*
Y130889D01*
X162926D01*
Y129921D01*
X156423D01*
X156054Y130474D01*
X155475Y130861D01*
X154791Y130997D01*
X154108Y130861D01*
X153529Y130474D01*
X153378Y130248D01*
X153370Y130245D01*
X152276D01*
X152267Y130248D01*
X152117Y130474D01*
X151538Y130861D01*
X150854Y130997D01*
X150800Y130986D01*
X148940D01*
X148886Y130997D01*
X148203Y130861D01*
X147902Y130659D01*
X147601Y130861D01*
X146917Y130997D01*
X146863Y130986D01*
X141038D01*
Y132470D01*
X125238D01*
Y130713D01*
X125110Y130627D01*
X125047Y130533D01*
X124929Y130449D01*
X124088Y130253D01*
X123831Y130260D01*
X123694Y130366D01*
X123067Y130626D01*
X122394Y130714D01*
X121721Y130626D01*
X121094Y130366D01*
X120555Y129953D01*
X120474Y129848D01*
X113072D01*
X113024Y130093D01*
X112637Y130672D01*
X112057Y131059D01*
X111374Y131195D01*
X110691Y131059D01*
X110111Y130672D01*
X109961Y130447D01*
X109953Y130444D01*
X108858D01*
X108850Y130447D01*
X108700Y130672D01*
X108120Y131059D01*
X107437Y131195D01*
X106754Y131059D01*
X106453Y130858D01*
X106152Y131059D01*
X105468Y131195D01*
X104785Y131059D01*
X104484Y130858D01*
X104183Y131059D01*
X103500Y131195D01*
X102817Y131059D01*
X102707Y130986D01*
X97636D01*
Y132470D01*
X81836D01*
Y130713D01*
X81709Y130627D01*
X81444Y130230D01*
X81350Y129762D01*
Y126613D01*
X81444Y126144D01*
X81709Y125747D01*
X82106Y125482D01*
X82574Y125389D01*
X97737D01*
X97986Y124492D01*
X97986D01*
Y122228D01*
X96205D01*
Y123015D01*
X91299D01*
X90655Y123015D01*
X89655Y123015D01*
X84750D01*
Y117465D01*
X85544D01*
Y116214D01*
X84699D01*
Y110664D01*
X90052D01*
Y116214D01*
X89880D01*
X89466Y117214D01*
X89718Y117465D01*
X90299D01*
X91299Y117465D01*
X96205D01*
Y118252D01*
X97986D01*
Y110092D01*
X99764D01*
Y107992D01*
X99891Y107026D01*
X100264Y106126D01*
X100690Y105571D01*
X99977Y104858D01*
X99516Y105212D01*
X98175Y105986D01*
X96745Y106578D01*
X95249Y106979D01*
X93714Y107181D01*
X92166D01*
X90631Y106979D01*
X89135Y106578D01*
X87705Y105986D01*
X86364Y105212D01*
X85136Y104269D01*
X84041Y103174D01*
X83098Y101946D01*
X82324Y100605D01*
X81732Y99175D01*
X81331Y97679D01*
X81129Y96144D01*
Y94596D01*
X81331Y93061D01*
X81732Y91565D01*
X82324Y90135D01*
X83098Y88794D01*
X84041Y87566D01*
X85136Y86471D01*
X86364Y85528D01*
X87705Y84754D01*
X89135Y84162D01*
X90631Y83761D01*
X92166Y83559D01*
X93714D01*
X95249Y83761D01*
X96745Y84162D01*
X98175Y84754D01*
X99516Y85528D01*
X100744Y86471D01*
X101839Y87566D01*
X102782Y88794D01*
X103556Y90135D01*
X104148Y91565D01*
X104549Y93061D01*
X104751Y94596D01*
Y96144D01*
X104549Y97679D01*
X104197Y98993D01*
X104480Y99512D01*
X104909Y99950D01*
X114700D01*
Y100162D01*
X136631D01*
X136783Y99983D01*
X137085Y99203D01*
X136116Y98233D01*
X126502D01*
X125838Y98101D01*
X125276Y97726D01*
X114436Y86885D01*
X114060Y86323D01*
X113928Y85660D01*
Y82191D01*
X112507Y80769D01*
X112131Y80207D01*
X111999Y79544D01*
Y72602D01*
X112131Y71939D01*
X112507Y71377D01*
X117603Y66280D01*
X118166Y65904D01*
X118829Y65773D01*
X119085Y65824D01*
X137758D01*
X137878Y65667D01*
X138416Y65254D01*
X139044Y64994D01*
X139716Y64906D01*
X140390Y64994D01*
X141017Y65254D01*
X141555Y65667D01*
X141968Y66206D01*
X142228Y66833D01*
X142317Y67506D01*
X142228Y68179D01*
X141968Y68806D01*
X141555Y69345D01*
X141017Y69758D01*
X140390Y70017D01*
X139716Y70106D01*
X139044Y70017D01*
X138416Y69758D01*
X137878Y69345D01*
X137758Y69188D01*
X119598D01*
X115466Y73320D01*
Y74726D01*
X116466Y75065D01*
X116998Y74372D01*
X118071Y73548D01*
X119320Y73031D01*
X120661Y72854D01*
X122002Y73031D01*
X123252Y73548D01*
X124325Y74372D01*
X125112Y75397D01*
X125651Y75476D01*
X125672D01*
X126211Y75397D01*
X126998Y74372D01*
X128071Y73548D01*
X129320Y73031D01*
X130661Y72854D01*
X132002Y73031D01*
X132640Y73295D01*
X138682D01*
X139320Y73031D01*
X140661Y72854D01*
X142002Y73031D01*
X142676Y73310D01*
X149655D01*
X149870Y73221D01*
X150543Y73132D01*
X157006D01*
X157298Y72772D01*
X157570Y72132D01*
X157394Y71707D01*
X157305Y71034D01*
X157394Y70361D01*
X157654Y69734D01*
X158067Y69195D01*
X158606Y68782D01*
X159233Y68522D01*
X159906Y68434D01*
X160579Y68522D01*
X161206Y68782D01*
X161744Y69195D01*
X162157Y69734D01*
X162417Y70361D01*
X162432Y70470D01*
X163487Y70829D01*
X168902Y65414D01*
X168911Y65363D01*
X168698Y65085D01*
X168438Y64458D01*
X168349Y63785D01*
X168438Y63112D01*
X168698Y62485D01*
X169111Y61946D01*
X169649Y61533D01*
X170276Y61273D01*
X170949Y61184D01*
X171281Y61228D01*
X172072Y60721D01*
X172281Y60464D01*
Y50428D01*
X172452Y49570D01*
X172938Y48842D01*
X175174Y46607D01*
X175901Y46121D01*
X176760Y45950D01*
X254748D01*
X255606Y46121D01*
X256334Y46607D01*
X258586Y48859D01*
X259072Y49587D01*
X259107Y49763D01*
X259420Y49988D01*
X260221Y50262D01*
X260966Y49954D01*
X262050Y49811D01*
X263134Y49954D01*
X264144Y50373D01*
X265012Y51038D01*
X265677Y51906D01*
X266096Y52916D01*
X266239Y54000D01*
X266096Y55084D01*
X265677Y56094D01*
X265012Y56962D01*
X264144Y57627D01*
X263134Y58046D01*
X262050Y58189D01*
X260966Y58046D01*
X260243Y57746D01*
X259243Y58221D01*
Y59779D01*
X260243Y60254D01*
X260966Y59954D01*
X262050Y59811D01*
X263134Y59954D01*
X264144Y60373D01*
X265012Y61038D01*
X265677Y61906D01*
X266096Y62916D01*
X266239Y64000D01*
X266096Y65084D01*
X265677Y66094D01*
X265012Y66962D01*
X264144Y67627D01*
X263134Y68046D01*
X262050Y68189D01*
X260966Y68046D01*
X260243Y67747D01*
X259243Y68221D01*
Y77431D01*
X259688Y77911D01*
X259846Y78035D01*
X260178Y78186D01*
X260898Y78091D01*
X261828Y78213D01*
X262694Y78572D01*
X263438Y79143D01*
X264009Y79887D01*
X264256Y80484D01*
X268764D01*
X268862Y79484D01*
X268448Y79401D01*
X267674Y78884D01*
X267156Y78109D01*
X266975Y77196D01*
Y75542D01*
X267156Y74628D01*
X267674Y73854D01*
X268448Y73336D01*
X269362Y73154D01*
X270276Y73336D01*
X271051Y73854D01*
X271568Y74628D01*
X271750Y75542D01*
Y77196D01*
X271568Y78109D01*
X271051Y78884D01*
X270276Y79401D01*
X269862Y79484D01*
X269960Y80484D01*
X274468D01*
X274715Y79887D01*
X275286Y79143D01*
X276030Y78572D01*
X276897Y78213D01*
X277827Y78091D01*
X278757Y78213D01*
X279194Y78394D01*
X280194Y77836D01*
Y40306D01*
X23806D01*
Y366694D01*
X280194D01*
Y189815D01*
D02*
G37*
G36*
X233300Y291970D02*
X233451Y291209D01*
X233473Y291176D01*
X233205Y290176D01*
X228225D01*
Y289790D01*
X225892D01*
X225228Y289658D01*
X225058Y289544D01*
X223814D01*
Y286569D01*
X225058D01*
X225228Y286455D01*
X225892Y286323D01*
X228225D01*
Y284824D01*
X229136D01*
Y283373D01*
X226680Y280917D01*
X226304Y280355D01*
X226172Y279691D01*
Y277916D01*
X225248Y277533D01*
X221143Y281638D01*
Y286794D01*
X220694D01*
X220492Y287709D01*
X220489Y287722D01*
Y289544D01*
X219245D01*
X219075Y289658D01*
X218411Y289790D01*
X217748Y289658D01*
X217578Y289544D01*
X216334D01*
Y286794D01*
X215791D01*
Y281245D01*
X216817D01*
X217186Y280693D01*
X224158Y273720D01*
Y271397D01*
X223235Y271015D01*
X207592Y286658D01*
Y288193D01*
X208633D01*
Y293545D01*
X208633D01*
Y293688D01*
X209148Y294688D01*
X215344D01*
X216334Y294662D01*
X216334Y293688D01*
Y291687D01*
X220489D01*
X220489Y294662D01*
X221479Y294688D01*
X222825D01*
X223814Y294662D01*
X223814Y293688D01*
Y291687D01*
X227970D01*
X227970Y294662D01*
X228959Y294688D01*
X233300D01*
Y291970D01*
D02*
G37*
G36*
X253731Y288630D02*
X252706Y287605D01*
X250264D01*
X250264Y287605D01*
X249601Y287473D01*
X249038Y287098D01*
X249038Y287098D01*
X248063Y286123D01*
X247688Y285560D01*
X247620Y285220D01*
X246514Y285220D01*
Y285220D01*
X246383D01*
X245912Y285476D01*
X245641Y286364D01*
X245641D01*
Y290236D01*
X253731D01*
Y288630D01*
D02*
G37*
G36*
X264408Y285500D02*
Y257809D01*
X263440Y257089D01*
X263098Y257210D01*
Y257210D01*
X261216D01*
X260833Y258134D01*
X261360Y258661D01*
X261714Y259190D01*
X261838Y259814D01*
Y269043D01*
X261714Y269667D01*
X261360Y270196D01*
X260162Y271394D01*
X259633Y271748D01*
X259009Y271872D01*
X254102D01*
X253831Y271926D01*
X252819D01*
Y272938D01*
X252765Y273209D01*
Y274248D01*
X255902D01*
Y279670D01*
Y285220D01*
X255902D01*
X255703Y285700D01*
X256690Y286686D01*
X257066Y287249D01*
X257198Y287912D01*
X257198Y287912D01*
Y290236D01*
X259671D01*
X264408Y285500D01*
D02*
G37*
G36*
X240805Y282849D02*
Y279797D01*
X240800D01*
Y274248D01*
X242519D01*
X242712Y274078D01*
X243211Y273248D01*
X243149Y272938D01*
Y272643D01*
X243093Y272546D01*
X242149Y271900D01*
X242018Y271926D01*
X240562D01*
X239917Y271798D01*
X239371Y271432D01*
X239005Y270886D01*
X238877Y270241D01*
X239005Y269596D01*
X239371Y269049D01*
X239371Y268282D01*
X239212Y268044D01*
X239005Y267736D01*
X238877Y267091D01*
X237971Y266519D01*
X237469Y266453D01*
X236842Y266193D01*
X236614Y266018D01*
X235641Y266423D01*
X235614Y266448D01*
Y278964D01*
X239881Y283232D01*
X240805Y282849D01*
D02*
G37*
G36*
X248914Y269924D02*
X249558Y269796D01*
X249997Y269884D01*
X250418Y269590D01*
X250483Y269525D01*
X250649Y269287D01*
X250740Y268923D01*
X250689Y268666D01*
X250817Y268021D01*
X250913Y267878D01*
X250817Y267736D01*
X250689Y267091D01*
X250817Y266446D01*
X251183Y265899D01*
X251183Y265133D01*
X251023Y264894D01*
X250817Y264587D01*
X250689Y263942D01*
X250740Y263684D01*
X250649Y263320D01*
X250483Y263082D01*
X250418Y263018D01*
X250180Y262851D01*
X249816Y262760D01*
X249558Y262811D01*
X248914Y262683D01*
X248771Y262587D01*
X248628Y262683D01*
X247983Y262811D01*
X247339Y262683D01*
X247197Y262588D01*
X247054Y262683D01*
X246410Y262811D01*
X245764Y262683D01*
X245622Y262587D01*
X245479Y262683D01*
X244834Y262811D01*
X244577Y262760D01*
X244213Y262851D01*
X243975Y263018D01*
X243910Y263082D01*
X243744Y263320D01*
X243653Y263684D01*
X243704Y263942D01*
X243576Y264587D01*
X243480Y264729D01*
X243576Y264872D01*
X243704Y265517D01*
X243576Y266162D01*
X243481Y266304D01*
X243576Y266446D01*
X243704Y267091D01*
X243576Y267736D01*
X243210Y268282D01*
X243210Y269049D01*
X243361Y269275D01*
X244190Y269924D01*
X244834Y269796D01*
X245479Y269924D01*
X245622Y270020D01*
X245764Y269924D01*
X246410Y269796D01*
X247054Y269924D01*
X247197Y270020D01*
X247339Y269924D01*
X247983Y269796D01*
X248628Y269924D01*
X248771Y270020D01*
X248914Y269924D01*
D02*
G37*
G36*
X254814Y260707D02*
X254828Y260672D01*
X255241Y260134D01*
X255780Y259721D01*
X256213Y259541D01*
X256469Y258914D01*
X256522Y258437D01*
X255849Y257764D01*
X255496Y257235D01*
X255491Y257210D01*
X252036D01*
Y252502D01*
X252036D01*
Y249003D01*
X251683Y248727D01*
X251036Y248388D01*
X250562Y248482D01*
X250268D01*
X250171Y248538D01*
X249524Y249482D01*
X249550Y249613D01*
Y251069D01*
X249422Y251714D01*
X249057Y252261D01*
X248510Y252626D01*
X247865Y252754D01*
X247220Y252626D01*
X246673Y252261D01*
X245907Y252261D01*
X245669Y252420D01*
X245360Y252626D01*
X244715Y252754D01*
X244156Y252643D01*
X243836Y252753D01*
X243197Y253100D01*
Y253602D01*
X243073Y254226D01*
X242719Y254755D01*
X240929Y256546D01*
X240400Y256899D01*
X239776Y257024D01*
X238888D01*
X238729Y257231D01*
X238191Y257644D01*
X237563Y257904D01*
X237503Y257912D01*
X236793Y258872D01*
X236781Y258978D01*
X236798Y259035D01*
X240593D01*
X240677Y259052D01*
X241702Y259025D01*
X242068Y258478D01*
X242615Y258113D01*
X243260Y257984D01*
X243904Y258113D01*
X244047Y258208D01*
X244190Y258113D01*
X244834Y257984D01*
X245479Y258113D01*
X245622Y258208D01*
X245764Y258113D01*
X246410Y257984D01*
X247054Y258113D01*
X247197Y258208D01*
X247339Y258113D01*
X247983Y257984D01*
X248628Y258113D01*
X248771Y258208D01*
X248914Y258113D01*
X249558Y257984D01*
X250203Y258113D01*
X250346Y258208D01*
X250488Y258113D01*
X251133Y257984D01*
X251778Y258113D01*
X252325Y258478D01*
X252691Y259025D01*
X252819Y259670D01*
Y260681D01*
X253831D01*
X254475Y260809D01*
X254814Y260707D01*
D02*
G37*
G36*
X246673Y248421D02*
X246900Y248270D01*
X247549Y247442D01*
X247421Y246797D01*
X247549Y246152D01*
X247644Y246010D01*
X247549Y245867D01*
X247421Y245222D01*
X247549Y244577D01*
X247644Y244435D01*
X247549Y244293D01*
X247421Y243648D01*
X247549Y243003D01*
X247644Y242861D01*
X247549Y242718D01*
X247421Y242073D01*
X247472Y241815D01*
X247287Y241079D01*
X246953Y240636D01*
X246673Y240449D01*
X245907Y240449D01*
X245669Y240608D01*
X245360Y240814D01*
X244715Y240942D01*
X244070Y240814D01*
X243928Y240719D01*
X243786Y240814D01*
X243141Y240942D01*
X242496Y240814D01*
X242354Y240719D01*
X242211Y240814D01*
X241566Y240942D01*
X241308Y240891D01*
X240944Y240983D01*
X240706Y241149D01*
X240642Y241214D01*
X240476Y241452D01*
X240384Y241815D01*
X240435Y242073D01*
X240307Y242718D01*
X240212Y242861D01*
X240307Y243003D01*
X240435Y243648D01*
X240307Y244293D01*
X240212Y244435D01*
X240307Y244577D01*
X240435Y245222D01*
X240307Y245867D01*
X240212Y246010D01*
X240307Y246152D01*
X240435Y246797D01*
X240384Y247055D01*
X240476Y247419D01*
X240642Y247657D01*
X240706Y247721D01*
X240944Y247887D01*
X241308Y247979D01*
X241566Y247928D01*
X242211Y248056D01*
X242354Y248151D01*
X242496Y248056D01*
X243141Y247928D01*
X243786Y248056D01*
X243928Y248151D01*
X244070Y248056D01*
X244715Y247928D01*
X245360Y248056D01*
X245907Y248421D01*
X246673Y248421D01*
D02*
G37*
G36*
X89808Y258908D02*
X90506Y258769D01*
X91450Y257961D01*
X91464Y257891D01*
X91840Y257329D01*
X93891Y255277D01*
Y252791D01*
X93799Y252327D01*
Y247209D01*
X93596Y246961D01*
X93230D01*
X92332Y247877D01*
Y252327D01*
X92193Y253025D01*
X91797Y253618D01*
X91205Y254013D01*
X90506Y254152D01*
X89808Y254013D01*
X89250Y253641D01*
X89043Y253681D01*
X88250Y253973D01*
Y258949D01*
X89043Y259240D01*
X89250Y259280D01*
X89808Y258908D01*
D02*
G37*
G36*
X207808Y262874D02*
Y262347D01*
X216863D01*
Y261541D01*
X222235D01*
Y249742D01*
X219300Y246807D01*
X215277D01*
X215125Y246777D01*
X212579D01*
X211915Y246645D01*
X211353Y246269D01*
X210940Y245856D01*
X210092Y246422D01*
X210111Y246468D01*
X210200Y247141D01*
X210111Y247814D01*
X209852Y248441D01*
X209438Y248980D01*
X208900Y249393D01*
X208273Y249653D01*
X207600Y249741D01*
X206927Y249653D01*
X206300Y249393D01*
X205761Y248980D01*
X205348Y248441D01*
X205088Y247814D01*
X204733Y247683D01*
X203733Y248379D01*
Y260214D01*
X206808Y263288D01*
X207808Y262874D01*
D02*
G37*
G36*
X265138Y252570D02*
X265633Y252195D01*
Y242733D01*
X264634Y241733D01*
X260438D01*
X260438Y241733D01*
X259775Y241601D01*
X259631Y241506D01*
X259375Y241637D01*
X258696Y242348D01*
X258820Y242972D01*
Y246950D01*
X258742Y247344D01*
X258820Y247738D01*
Y251660D01*
X263098D01*
Y252702D01*
X264126D01*
X264633Y252803D01*
X265138Y252570D01*
D02*
G37*
G36*
X224969Y243268D02*
Y239222D01*
X225131D01*
Y236442D01*
X223477D01*
X222813Y236310D01*
X222639Y236194D01*
X222394Y236226D01*
X221721Y236137D01*
X221094Y235878D01*
X220555Y235464D01*
X220142Y234926D01*
X220012Y234613D01*
X214520D01*
Y231760D01*
X214500Y231658D01*
Y229792D01*
X213174D01*
X212711Y230744D01*
X212892Y230925D01*
X213267Y231487D01*
X213399Y232150D01*
Y238340D01*
X216700Y241640D01*
X221317D01*
X221980Y241772D01*
X222543Y242148D01*
X224045Y243651D01*
X224969Y243268D01*
D02*
G37*
G36*
X262039Y231926D02*
X262969Y231934D01*
X262969Y231934D01*
X268322D01*
Y231934D01*
X268516D01*
X269515Y231542D01*
Y229214D01*
X268678Y228822D01*
X268322D01*
Y228822D01*
X262969D01*
X262969Y228822D01*
X262000Y228746D01*
X261964Y228741D01*
X260964Y229514D01*
Y231181D01*
X261964Y231937D01*
X262039Y231926D01*
D02*
G37*
G36*
X129478Y241819D02*
Y234693D01*
X125219Y230434D01*
X124843Y229872D01*
X124711Y229208D01*
Y227934D01*
X123670D01*
Y227934D01*
X123314D01*
Y227934D01*
X120509D01*
X120205Y228934D01*
X120410Y229070D01*
X121197Y229858D01*
X121628Y230503D01*
X121780Y231264D01*
Y231884D01*
X122043Y232227D01*
X122303Y232854D01*
X122391Y233527D01*
X122303Y234200D01*
X122052Y234807D01*
X122303Y235413D01*
X122391Y236086D01*
X122303Y236759D01*
X122052Y237366D01*
X122303Y237972D01*
X122391Y238645D01*
X122303Y239318D01*
X122052Y239925D01*
X122303Y240531D01*
X122391Y241204D01*
X122303Y241877D01*
X122124Y242310D01*
X122386Y242935D01*
X122685Y243310D01*
X127987D01*
X129478Y241819D01*
D02*
G37*
G36*
X175227Y234566D02*
X175789Y234190D01*
X176453Y234058D01*
X177409D01*
Y231934D01*
X183456D01*
Y227329D01*
X183588Y226666D01*
X183963Y226103D01*
X184315Y225752D01*
X182390Y223827D01*
X181355D01*
X179976Y225206D01*
X179976Y225206D01*
X179414Y225582D01*
X178751Y225714D01*
X176131D01*
X175267Y226042D01*
Y229792D01*
X173143D01*
Y233764D01*
X173233Y234219D01*
Y235081D01*
X173339Y235161D01*
X174578Y235215D01*
X175227Y234566D01*
D02*
G37*
G36*
X212827Y225855D02*
Y224175D01*
X212722Y224034D01*
X211827Y223546D01*
X211607Y223638D01*
X210934Y223726D01*
X210261Y223638D01*
X209634Y223378D01*
X209096Y222965D01*
X208091D01*
X207552Y223378D01*
X206925Y223638D01*
X206252Y223726D01*
X205579Y223638D01*
X204952Y223378D01*
X204413Y222965D01*
X204000Y222426D01*
X203740Y221799D01*
X203652Y221126D01*
X203740Y220453D01*
X204000Y219826D01*
X204413Y219287D01*
X204639Y219114D01*
X204717Y218878D01*
Y218157D01*
X204639Y217921D01*
X204413Y217748D01*
X204000Y217210D01*
X203740Y216582D01*
X203652Y215910D01*
X203740Y215236D01*
X204000Y214609D01*
X204165Y214394D01*
X203661Y214008D01*
X203248Y213469D01*
X202988Y212842D01*
X202900Y212169D01*
X202988Y211496D01*
X203248Y210869D01*
X203661Y210331D01*
X204200Y209917D01*
X204271Y209888D01*
Y208806D01*
X204249Y208797D01*
X204038Y208635D01*
X203305Y208574D01*
X202784Y208819D01*
X202579Y209087D01*
X202040Y209500D01*
X201413Y209760D01*
X200740Y209848D01*
X200067Y209760D01*
X199440Y209500D01*
X198901Y209087D01*
X198488Y208548D01*
X198347Y208207D01*
X198241Y208120D01*
X197563Y207885D01*
X197213Y207865D01*
X197045Y207994D01*
X196418Y208254D01*
X195745Y208342D01*
X195072Y208254D01*
X194445Y207994D01*
X193906Y207581D01*
X193493Y207042D01*
X193234Y206415D01*
X193145Y205742D01*
X193234Y205069D01*
X193493Y204442D01*
X193774Y204076D01*
X193599Y203451D01*
X193343Y203076D01*
X184265D01*
Y220199D01*
Y220799D01*
X187484Y224019D01*
X200716D01*
X201379Y224151D01*
X201941Y224526D01*
X203599Y226184D01*
X211964D01*
X212827Y225855D01*
D02*
G37*
G36*
X248468Y228599D02*
X248623Y227662D01*
X248623D01*
Y226451D01*
X248146Y226132D01*
X245981Y223967D01*
X243752D01*
X243089Y223835D01*
X242526Y223460D01*
X241837Y222771D01*
X241462Y222208D01*
X241330Y221545D01*
Y221539D01*
X239583D01*
X239358Y221901D01*
X239800Y222952D01*
X239860Y222991D01*
X240434Y223229D01*
X240972Y223642D01*
X241386Y224180D01*
X241646Y224807D01*
X241667Y224969D01*
X241909D01*
Y228766D01*
X248393D01*
X248468Y228599D01*
D02*
G37*
G36*
X78023Y227269D02*
X78193Y227076D01*
Y218771D01*
X77193Y218345D01*
X76441Y218922D01*
X75191Y219440D01*
X73850Y219616D01*
X72509Y219440D01*
X71260Y218922D01*
X70187Y218099D01*
X69363Y217026D01*
X68955Y216943D01*
X68265Y216987D01*
X67627Y217818D01*
X66636Y218578D01*
X65874Y218894D01*
Y219976D01*
X66636Y220292D01*
X67627Y221052D01*
X68387Y222043D01*
X68865Y223197D01*
X69028Y224435D01*
X68865Y225673D01*
X68477Y226610D01*
X69568Y227702D01*
X76864D01*
X77193Y227767D01*
X78023Y227269D01*
D02*
G37*
G36*
X227232Y216073D02*
X227905Y215984D01*
X228578Y216073D01*
X228915Y216212D01*
X229681Y215634D01*
X229757Y215524D01*
Y212446D01*
Y208509D01*
Y204572D01*
X233497D01*
Y200832D01*
X232947Y200059D01*
X232748Y199800D01*
X232488Y199173D01*
X232400Y198500D01*
X232488Y197827D01*
X232748Y197200D01*
X233161Y196661D01*
X233700Y196248D01*
X233989Y196128D01*
Y191481D01*
X239342D01*
Y197178D01*
X241614D01*
X242505Y196353D01*
X242594Y195680D01*
X242853Y195053D01*
X243267Y194515D01*
X243805Y194101D01*
X244190Y193942D01*
X244466Y193216D01*
X244488Y192826D01*
X241294Y189631D01*
X230358D01*
X228382Y191607D01*
Y193716D01*
X228397Y193789D01*
Y193789D01*
X228382Y193863D01*
Y202650D01*
X228258Y203274D01*
X227904Y203804D01*
X222322Y209386D01*
X221793Y209739D01*
X221169Y209864D01*
X220543D01*
Y212263D01*
Y215913D01*
X225775D01*
X225775Y215913D01*
X226775Y216262D01*
X227232Y216073D01*
D02*
G37*
G36*
X244914Y215830D02*
Y212446D01*
Y210477D01*
Y206381D01*
X243787D01*
X243339Y206381D01*
Y206381D01*
X242787D01*
Y206381D01*
X239402D01*
X239402Y206381D01*
X238850D01*
Y206381D01*
X238402Y206381D01*
X235306D01*
Y208509D01*
Y212446D01*
Y215830D01*
X236240Y215989D01*
X243980D01*
X244914Y215830D01*
D02*
G37*
G36*
X91605Y242936D02*
X91868Y242310D01*
X91689Y241878D01*
X91601Y241205D01*
X91689Y240532D01*
X91941Y239926D01*
X91689Y239319D01*
X91601Y238646D01*
X91689Y237973D01*
X91941Y237366D01*
X91689Y236760D01*
X91601Y236087D01*
X91689Y235414D01*
X91941Y234807D01*
X91689Y234201D01*
X91601Y233528D01*
X91689Y232855D01*
X91949Y232228D01*
X92213Y231884D01*
Y231264D01*
X92364Y230503D01*
X92795Y229858D01*
X93582Y229070D01*
X94227Y228640D01*
X94988Y228488D01*
X95092Y227744D01*
X94635Y226974D01*
X93963Y226886D01*
X93335Y226626D01*
X92797Y226213D01*
X92384Y225674D01*
X92124Y225047D01*
X92035Y224374D01*
X92124Y223701D01*
X92384Y223074D01*
X92797Y222535D01*
X93335Y222122D01*
X93963Y221862D01*
X94635Y221774D01*
X95308Y221862D01*
X95936Y222122D01*
X96314Y222412D01*
X96536Y222376D01*
X97226Y221915D01*
X98040Y221753D01*
X98853Y221915D01*
X99319Y222226D01*
X99785Y221915D01*
X100599Y221753D01*
X101412Y221915D01*
X101878Y222226D01*
X102344Y221915D01*
X103158Y221753D01*
X103972Y221915D01*
X104437Y222226D01*
X104903Y221915D01*
X105717Y221753D01*
X106530Y221915D01*
X106996Y222226D01*
X107462Y221915D01*
X108276Y221753D01*
X109090Y221915D01*
X109555Y222226D01*
X110021Y221915D01*
X110835Y221753D01*
X111649Y221915D01*
X112114Y222226D01*
X112580Y221915D01*
X113394Y221753D01*
X114208Y221915D01*
X114673Y222226D01*
X115139Y221915D01*
X115953Y221753D01*
X116767Y221915D01*
X117071Y222118D01*
X117961Y222384D01*
X117961Y222384D01*
Y222384D01*
X117961Y222384D01*
X123314D01*
Y222384D01*
X123670D01*
Y222384D01*
X124732D01*
X124843Y221825D01*
X125219Y221263D01*
X128648Y217833D01*
X129211Y217458D01*
X129874Y217326D01*
X139501D01*
Y212741D01*
Y207840D01*
X121646D01*
X120982Y207708D01*
X120420Y207332D01*
X118766Y205678D01*
X117502Y205828D01*
X117457Y205895D01*
X116767Y206356D01*
X115953Y206518D01*
X115139Y206356D01*
X114673Y206045D01*
X114208Y206356D01*
X113394Y206518D01*
X112580Y206356D01*
X112114Y206045D01*
X111649Y206356D01*
X110835Y206518D01*
X110021Y206356D01*
X109331Y205895D01*
X108870Y205205D01*
X108785Y204781D01*
X107766D01*
X107682Y205205D01*
X107220Y205895D01*
X106530Y206356D01*
X105717Y206518D01*
X104903Y206356D01*
X104437Y206045D01*
X103972Y206356D01*
X103158Y206518D01*
X102344Y206356D01*
X101878Y206045D01*
X101412Y206356D01*
X100599Y206518D01*
X99785Y206356D01*
X99319Y206045D01*
X98853Y206356D01*
X98040Y206518D01*
X97226Y206356D01*
X96536Y205895D01*
X96075Y205205D01*
X95913Y204391D01*
Y202423D01*
X94913Y201669D01*
X94835Y201679D01*
X94673Y201658D01*
X93672Y202375D01*
Y204708D01*
X93673Y204708D01*
X93438Y205708D01*
X93498Y206163D01*
X93409Y206836D01*
X93150Y207463D01*
X92736Y208002D01*
X92198Y208415D01*
X91571Y208675D01*
X90898Y208763D01*
X90225Y208675D01*
X89597Y208415D01*
X89566Y208391D01*
X86980D01*
Y209235D01*
X81660D01*
Y225143D01*
X85405D01*
Y230692D01*
X84597D01*
X84473Y230990D01*
X84295Y231692D01*
X84601Y232150D01*
X84733Y232813D01*
Y241407D01*
X86636Y243310D01*
X91306D01*
X91605Y242936D01*
D02*
G37*
G36*
X253737Y218442D02*
X251949Y216654D01*
X251595Y216125D01*
X251471Y215500D01*
Y204656D01*
X250464D01*
Y208509D01*
Y212446D01*
Y215830D01*
X247658D01*
X246724Y215989D01*
Y220506D01*
X247362Y220633D01*
X247925Y221008D01*
X249226Y222310D01*
X253737D01*
Y218442D01*
D02*
G37*
G36*
X179412Y220868D02*
X179412Y220868D01*
X180798Y219481D01*
Y202060D01*
X178861Y200123D01*
X176131D01*
X175267Y200452D01*
Y202911D01*
X176267Y203672D01*
X176331Y203663D01*
X177004Y203752D01*
X177631Y204012D01*
X178169Y204425D01*
X178583Y204964D01*
X178842Y205591D01*
X178931Y206264D01*
X178842Y206937D01*
X178583Y207564D01*
X178169Y208102D01*
X177631Y208516D01*
X177004Y208775D01*
X176331Y208864D01*
X176267Y208856D01*
X175267Y209616D01*
Y214231D01*
Y218168D01*
Y222247D01*
X178033D01*
X179412Y220868D01*
D02*
G37*
G36*
X223284Y197770D02*
X223518Y197539D01*
Y194497D01*
X223538Y194396D01*
X223518Y194295D01*
Y190445D01*
X223642Y189821D01*
X223996Y189291D01*
X224029Y189258D01*
X224097Y189156D01*
X226576Y186677D01*
X226194Y185753D01*
X220974D01*
X219796Y186931D01*
Y194776D01*
X219796Y194776D01*
X219664Y195439D01*
X219614Y195515D01*
X220148Y196515D01*
X220543D01*
Y197086D01*
X221500Y197900D01*
X222173Y197988D01*
X222518Y198131D01*
X223284Y197770D01*
D02*
G37*
G36*
X214361Y185221D02*
X214493Y184557D01*
X214869Y183995D01*
X216161Y182703D01*
X215779Y181779D01*
X213304D01*
Y179060D01*
X210120D01*
X206607Y182572D01*
Y185794D01*
X206936Y186658D01*
X210686D01*
Y188135D01*
X214361D01*
Y185221D01*
D02*
G37*
G36*
X241650Y166920D02*
Y163350D01*
X239725D01*
Y162225D01*
X239237Y161899D01*
X239237Y161899D01*
X238128Y160790D01*
X237752Y160227D01*
X237620Y159564D01*
Y155160D01*
X233696D01*
Y166424D01*
X234649Y166538D01*
X239244D01*
X239907Y166670D01*
X240470Y167046D01*
X240726Y167303D01*
X241650Y166920D01*
D02*
G37*
G36*
X251397Y185279D02*
Y152666D01*
X250995Y151833D01*
X246086D01*
X245372Y152234D01*
X245275Y152762D01*
Y157641D01*
X245275D01*
Y157997D01*
X245275D01*
Y160487D01*
X246000Y161400D01*
X246673Y161488D01*
X247300Y161748D01*
X247839Y162161D01*
X248252Y162700D01*
X248512Y163327D01*
X248600Y164000D01*
X248512Y164673D01*
X248273Y165250D01*
X248512Y165827D01*
X248600Y166500D01*
X248512Y167173D01*
X248252Y167800D01*
X248243Y167812D01*
Y167838D01*
X248252Y167850D01*
X248512Y168477D01*
X248600Y169150D01*
X248512Y169823D01*
X248252Y170450D01*
X248243Y170461D01*
Y183431D01*
X250474Y185662D01*
X251397Y185279D01*
D02*
G37*
G36*
X156437Y179022D02*
Y176638D01*
X156569Y175975D01*
X156944Y175412D01*
X159647Y172709D01*
X160209Y172334D01*
X160873Y172202D01*
X161310D01*
Y168253D01*
X166860D01*
Y168253D01*
X167136Y168367D01*
X168118Y167386D01*
Y150190D01*
X164741D01*
X163888Y150546D01*
X163888Y151011D01*
Y155899D01*
X158775D01*
Y156531D01*
X156121D01*
Y169960D01*
X151562D01*
Y171663D01*
X151970Y171975D01*
X152730Y172966D01*
X153208Y174120D01*
X153371Y175358D01*
X153208Y176596D01*
X152730Y177750D01*
X152434Y178137D01*
X152927Y179137D01*
X156321D01*
X156437Y179022D01*
D02*
G37*
G36*
X201759Y166328D02*
X201776Y165911D01*
X201580Y165093D01*
X201264Y164850D01*
X200851Y164312D01*
X200591Y163685D01*
X200502Y163012D01*
X200591Y162339D01*
X200851Y161712D01*
X201264Y161173D01*
X201802Y160760D01*
X202429Y160500D01*
X203102Y160412D01*
X203775Y160500D01*
X204052Y160615D01*
X204232Y160523D01*
X205052Y160064D01*
X205052Y160064D01*
X205052Y160064D01*
X212160D01*
X212290Y159413D01*
X212629Y158906D01*
Y154430D01*
X212761Y153767D01*
X213137Y153205D01*
X214140Y152201D01*
X214702Y151825D01*
X215366Y151693D01*
X238350D01*
X239014Y151825D01*
X239725Y152288D01*
X240767D01*
Y149865D01*
X240629Y149534D01*
X240541Y148861D01*
X240629Y148188D01*
X240889Y147561D01*
X241302Y147022D01*
X241841Y146609D01*
X242468Y146349D01*
X243141Y146261D01*
X243814Y146349D01*
X244441Y146609D01*
X244446Y146613D01*
X245446Y146119D01*
Y142740D01*
X250995D01*
X251397Y141907D01*
Y117949D01*
X251520Y117334D01*
X251868Y116813D01*
X252389Y116465D01*
X253003Y116343D01*
X253311D01*
X253626Y115932D01*
X253867Y115343D01*
X253680Y114893D01*
X253592Y114220D01*
X253680Y113547D01*
X253940Y112920D01*
X254353Y112381D01*
X254892Y111968D01*
X255519Y111708D01*
X256192Y111620D01*
X257185Y111079D01*
Y111079D01*
X260352D01*
X260461Y110777D01*
X260519Y110079D01*
X260098Y109798D01*
X255917Y105616D01*
X255530Y105038D01*
X255394Y104355D01*
Y97569D01*
X255530Y96886D01*
X255917Y96307D01*
X257305Y94919D01*
X257598Y94723D01*
X257906Y93701D01*
X257910Y93540D01*
X257899Y93510D01*
X257651Y92910D01*
X257562Y92237D01*
X257651Y91564D01*
X257910Y90936D01*
X258324Y90398D01*
X258862Y89985D01*
X259489Y89725D01*
X260162Y89636D01*
X260835Y89725D01*
X261462Y89985D01*
X261982Y90384D01*
X263221D01*
Y88200D01*
X259789D01*
X259664Y88284D01*
X258805Y88455D01*
X257947Y88284D01*
X257219Y87797D01*
X254666Y85244D01*
X254180Y84517D01*
X254009Y83658D01*
Y78508D01*
X254180Y77649D01*
X254666Y76922D01*
X254757Y76831D01*
Y68321D01*
X253757Y67788D01*
X253134Y68046D01*
X252050Y68189D01*
X250966Y68046D01*
X249956Y67627D01*
X249088Y66962D01*
X248423Y66094D01*
X248004Y65084D01*
X247861Y64000D01*
X248004Y62916D01*
X248423Y61906D01*
X249088Y61038D01*
X249956Y60373D01*
X250966Y59954D01*
X252050Y59811D01*
X253134Y59954D01*
X253757Y60212D01*
X254757Y59679D01*
Y58321D01*
X253757Y57788D01*
X253134Y58046D01*
X252050Y58189D01*
X250966Y58046D01*
X249956Y57627D01*
X249088Y56962D01*
X248423Y56094D01*
X248004Y55084D01*
X247861Y54000D01*
X248004Y52916D01*
X248423Y51906D01*
X248783Y51436D01*
X248290Y50436D01*
X245810D01*
X245317Y51436D01*
X245677Y51906D01*
X246096Y52916D01*
X246239Y54000D01*
X246096Y55084D01*
X245677Y56094D01*
X245012Y56962D01*
X244144Y57627D01*
X243134Y58046D01*
X242050Y58189D01*
X240966Y58046D01*
X239956Y57627D01*
X239088Y56962D01*
X238423Y56094D01*
X238004Y55084D01*
X237861Y54000D01*
X238004Y52916D01*
X238423Y51906D01*
X238783Y51436D01*
X238290Y50436D01*
X235810D01*
X235317Y51436D01*
X235677Y51906D01*
X236096Y52916D01*
X236239Y54000D01*
X236096Y55084D01*
X235677Y56094D01*
X235012Y56962D01*
X234144Y57627D01*
X233134Y58046D01*
X232050Y58189D01*
X230966Y58046D01*
X229956Y57627D01*
X229088Y56962D01*
X228423Y56094D01*
X228004Y55084D01*
X227861Y54000D01*
X228004Y52916D01*
X228423Y51906D01*
X228783Y51436D01*
X228290Y50436D01*
X225810D01*
X225317Y51436D01*
X225677Y51906D01*
X226096Y52916D01*
X226239Y54000D01*
X226096Y55084D01*
X225677Y56094D01*
X225012Y56962D01*
X224144Y57627D01*
X223134Y58046D01*
X222050Y58189D01*
X220966Y58046D01*
X219956Y57627D01*
X219088Y56962D01*
X218423Y56094D01*
X218004Y55084D01*
X217861Y54000D01*
X218004Y52916D01*
X218423Y51906D01*
X218783Y51436D01*
X218290Y50436D01*
X215810D01*
X215317Y51436D01*
X215677Y51906D01*
X216096Y52916D01*
X216239Y54000D01*
X216096Y55084D01*
X215677Y56094D01*
X215012Y56962D01*
X214144Y57627D01*
X213134Y58046D01*
X212050Y58189D01*
X210966Y58046D01*
X209956Y57627D01*
X209088Y56962D01*
X208423Y56094D01*
X208004Y55084D01*
X207861Y54000D01*
X208004Y52916D01*
X208423Y51906D01*
X208783Y51436D01*
X208290Y50436D01*
X205810D01*
X205317Y51436D01*
X205677Y51906D01*
X206096Y52916D01*
X206239Y54000D01*
X206096Y55084D01*
X205677Y56094D01*
X205012Y56962D01*
X204144Y57627D01*
X203134Y58046D01*
X202050Y58189D01*
X200966Y58046D01*
X199956Y57627D01*
X199088Y56962D01*
X198423Y56094D01*
X198004Y55084D01*
X197861Y54000D01*
X198004Y52916D01*
X198423Y51906D01*
X198783Y51436D01*
X198290Y50436D01*
X195810D01*
X195317Y51436D01*
X195677Y51906D01*
X196096Y52916D01*
X196239Y54000D01*
X196096Y55084D01*
X195677Y56094D01*
X195012Y56962D01*
X194144Y57627D01*
X193134Y58046D01*
X192050Y58189D01*
X190966Y58046D01*
X189956Y57627D01*
X189088Y56962D01*
X188423Y56094D01*
X188004Y55084D01*
X187861Y54000D01*
X188004Y52916D01*
X188423Y51906D01*
X188783Y51436D01*
X188290Y50436D01*
X185810D01*
X185317Y51436D01*
X185677Y51906D01*
X186096Y52916D01*
X186239Y54000D01*
X186096Y55084D01*
X185677Y56094D01*
X185012Y56962D01*
X184144Y57627D01*
X183134Y58046D01*
X182050Y58189D01*
X181080Y58061D01*
X179483Y59658D01*
Y64991D01*
X179467Y65071D01*
Y69517D01*
X180331Y69847D01*
X180467Y69847D01*
X188636D01*
Y78153D01*
X180331D01*
Y71253D01*
X179331Y71154D01*
X179297Y71325D01*
X178811Y72053D01*
X176675Y74189D01*
X175947Y74675D01*
X175089Y74845D01*
X174423Y74713D01*
X174312Y74787D01*
X173551Y74939D01*
X171208D01*
X170447Y74787D01*
X170153Y74591D01*
X169928D01*
X166431Y78088D01*
X166513Y78455D01*
X167301Y79131D01*
X167965Y78999D01*
X168112D01*
X168193Y78894D01*
X168731Y78480D01*
X169359Y78221D01*
X170031Y78132D01*
X176724D01*
X177397Y78221D01*
X178024Y78480D01*
X178563Y78894D01*
X178976Y79432D01*
X179236Y80059D01*
X179321Y80705D01*
X179874Y80632D01*
X180547Y80721D01*
X181174Y80980D01*
X181712Y81394D01*
X182125Y81932D01*
X182385Y82559D01*
X182474Y83232D01*
X182385Y83905D01*
X182125Y84532D01*
X181712Y85071D01*
X181515Y85222D01*
X181493Y85550D01*
X181869Y86112D01*
X182001Y86776D01*
Y88813D01*
X182106Y88894D01*
X182520Y89432D01*
X182779Y90059D01*
X182868Y90732D01*
X182779Y91405D01*
X182520Y92032D01*
X182106Y92571D01*
X181568Y92984D01*
X180941Y93244D01*
X180268Y93332D01*
X179595Y93244D01*
X178968Y92984D01*
X178496Y92622D01*
X178024Y92984D01*
X177959Y93011D01*
X177315Y93745D01*
Y99295D01*
X176159D01*
X175968Y99422D01*
X175500Y99515D01*
X175404D01*
X174597Y99981D01*
Y101771D01*
X174656Y102067D01*
X174597Y102363D01*
Y107461D01*
Y109251D01*
X174656Y109547D01*
X174597Y109843D01*
Y111633D01*
X173203D01*
X172413Y111790D01*
X165039D01*
X164180Y111619D01*
X163673Y111280D01*
X162916Y111742D01*
X162807Y111866D01*
X162877Y112218D01*
Y118848D01*
X162926Y119827D01*
X164077D01*
X164786Y118827D01*
X164762Y118646D01*
X164850Y117973D01*
X165110Y117346D01*
X165524Y116807D01*
X166062Y116394D01*
X166689Y116134D01*
X167362Y116046D01*
X168035Y116134D01*
X168662Y116394D01*
X169650Y116103D01*
X169783Y115993D01*
X170155Y115436D01*
X171088Y114504D01*
X171669Y114115D01*
Y113135D01*
X177022D01*
Y113135D01*
X177378D01*
Y113135D01*
X180502D01*
X180915Y112721D01*
Y111633D01*
X180464D01*
Y107461D01*
X183045D01*
Y104914D01*
X182283Y104153D01*
X180464D01*
Y99981D01*
X180915D01*
Y99741D01*
X181047Y99078D01*
X181423Y98515D01*
X186605Y93333D01*
Y92300D01*
X185761D01*
Y86750D01*
X186605D01*
Y84599D01*
X186625Y84501D01*
X186617Y84482D01*
X186528Y83809D01*
X186617Y83136D01*
X186876Y82509D01*
X187290Y81971D01*
X187828Y81558D01*
X188455Y81298D01*
X189128Y81209D01*
X189801Y81298D01*
X190428Y81558D01*
X190967Y81971D01*
X191380Y82509D01*
X191640Y83136D01*
X191693Y83539D01*
X192378Y83888D01*
X192717Y83929D01*
X201332Y75314D01*
X201894Y74938D01*
X202558Y74806D01*
X211391D01*
X212054Y74938D01*
X212617Y75314D01*
X215611Y78308D01*
X219127D01*
X219771Y78308D01*
X220127Y77455D01*
Y73584D01*
Y68859D01*
X220316D01*
X220515Y67859D01*
X219956Y67627D01*
X219088Y66962D01*
X218423Y66094D01*
X218004Y65084D01*
X217861Y64000D01*
X218004Y62916D01*
X218423Y61906D01*
X219088Y61038D01*
X219956Y60373D01*
X220966Y59954D01*
X222050Y59811D01*
X223134Y59954D01*
X224144Y60373D01*
X225012Y61038D01*
X225677Y61906D01*
X226096Y62916D01*
X226239Y64000D01*
X226096Y65084D01*
X225677Y66094D01*
X225012Y66962D01*
X224144Y67627D01*
X223585Y67859D01*
X223784Y68859D01*
X225480D01*
Y68975D01*
X225768Y69033D01*
X226330Y69408D01*
X226782Y69860D01*
X232385D01*
Y70702D01*
X234564D01*
X235228Y70834D01*
X235790Y71209D01*
X238383Y73803D01*
X238383Y73803D01*
X238759Y74365D01*
X238891Y75028D01*
X238891Y75028D01*
Y81794D01*
X242692Y85596D01*
X242824Y85579D01*
X243497Y85667D01*
X243581Y85702D01*
X245733D01*
Y84678D01*
X244388D01*
X243885Y84578D01*
X243767Y84563D01*
X243731Y84548D01*
X243529Y84507D01*
X243358Y84393D01*
X243140Y84303D01*
X242602Y83890D01*
X242189Y83351D01*
X241929Y82724D01*
X241840Y82051D01*
X241929Y81378D01*
X242189Y80751D01*
X242602Y80212D01*
X242484Y79339D01*
X242071Y78800D01*
X241811Y78173D01*
X241722Y77500D01*
X241811Y76827D01*
X242071Y76200D01*
X242484Y75661D01*
X243023Y75248D01*
X243650Y74988D01*
X244323Y74900D01*
X244733Y74954D01*
X245733Y74860D01*
X245733Y74860D01*
X252857D01*
Y79860D01*
Y84860D01*
Y89860D01*
Y94860D01*
Y99860D01*
Y104860D01*
Y110410D01*
X252355D01*
Y110956D01*
X252223Y111619D01*
X251848Y112181D01*
X249152Y114877D01*
X249150Y114880D01*
X249150Y114880D01*
X247159Y116872D01*
Y119532D01*
X249480D01*
Y131972D01*
X248275D01*
Y136311D01*
X242725D01*
Y131972D01*
X241371D01*
Y121249D01*
X240447Y120867D01*
X236490Y124824D01*
X235927Y125200D01*
X235264Y125331D01*
X234913D01*
Y131972D01*
X234112D01*
Y136322D01*
X228562D01*
X228341Y137230D01*
Y138963D01*
X220941D01*
Y138963D01*
X220626Y138878D01*
X219641Y139629D01*
Y142713D01*
X213641D01*
Y137400D01*
X211326Y135085D01*
X210950Y134522D01*
X210818Y133859D01*
Y128668D01*
X210496Y128393D01*
X209818Y128096D01*
X209414Y128264D01*
X208741Y128352D01*
X208068Y128264D01*
X207441Y128004D01*
X206903Y127591D01*
X206489Y127052D01*
X206230Y126425D01*
X206141Y125752D01*
X206230Y125079D01*
X206489Y124452D01*
X206903Y123913D01*
X207441Y123500D01*
X208068Y123240D01*
X208741Y123152D01*
X209725Y122353D01*
Y119415D01*
X208884Y119030D01*
X206559D01*
Y120297D01*
X200559D01*
Y114297D01*
X206559D01*
Y115564D01*
X209725D01*
Y113706D01*
X209725D01*
X210097Y113331D01*
Y112131D01*
X206559D01*
Y112797D01*
X200559D01*
Y106797D01*
X205221D01*
X205489Y105797D01*
X204474Y105212D01*
X203246Y104269D01*
X202151Y103174D01*
X201209Y101946D01*
X200435Y100605D01*
X199842Y99175D01*
X199441Y97679D01*
X199239Y96144D01*
Y94596D01*
X199441Y93061D01*
X199842Y91565D01*
X200435Y90135D01*
X201209Y88794D01*
X202151Y87566D01*
X202289Y87428D01*
X202190Y87300D01*
X201930Y86673D01*
X201842Y86000D01*
X201930Y85327D01*
X202190Y84700D01*
X202603Y84161D01*
X203142Y83748D01*
X203769Y83488D01*
X204442Y83400D01*
X205115Y83488D01*
X205742Y83748D01*
X206281Y84161D01*
X206514Y84465D01*
X207246Y84162D01*
X208741Y83761D01*
X210276Y83559D01*
X211824D01*
X213359Y83761D01*
X213419Y83777D01*
X214419Y83010D01*
Y81713D01*
X214271Y81684D01*
X213709Y81308D01*
X211552Y79152D01*
X210605Y79619D01*
X210641Y79891D01*
X210552Y80564D01*
X210292Y81191D01*
X209879Y81729D01*
X209341Y82142D01*
X208714Y82402D01*
X208040Y82491D01*
X207367Y82402D01*
X206740Y82142D01*
X206202Y81729D01*
X205789Y81191D01*
X205529Y80564D01*
X205440Y79891D01*
X205522Y79273D01*
X205519Y79204D01*
X204838Y78273D01*
X203276D01*
X195722Y85826D01*
X196105Y86750D01*
X196822D01*
Y91284D01*
X197019D01*
Y96834D01*
X193303D01*
Y108839D01*
X195010Y110547D01*
X199259D01*
Y116547D01*
X197292D01*
Y121217D01*
X197160Y121881D01*
X196785Y122443D01*
X192421Y126806D01*
X192836Y127806D01*
X193098D01*
X193761Y127938D01*
X193940Y128058D01*
X194588Y128179D01*
X195259Y127836D01*
X195358Y127707D01*
X195897Y127294D01*
X196524Y127034D01*
X197197Y126945D01*
X197870Y127034D01*
X198497Y127294D01*
X199036Y127707D01*
X199449Y128246D01*
X199708Y128873D01*
X199797Y129546D01*
X199708Y130219D01*
X199449Y130846D01*
X199036Y131384D01*
X198497Y131798D01*
X197870Y132057D01*
X197197Y132146D01*
X196520Y132068D01*
X196282Y132724D01*
X196023Y133351D01*
X195609Y133890D01*
X195071Y134303D01*
X194444Y134563D01*
X193771Y134651D01*
X193098Y134563D01*
X192839Y134456D01*
X191958Y134092D01*
X191958Y134092D01*
X191958Y134092D01*
X186408D01*
Y125575D01*
X185896Y125508D01*
X185268Y125248D01*
X185263Y125244D01*
X184263Y125737D01*
Y127327D01*
X184166Y127814D01*
Y130064D01*
X185208D01*
Y135613D01*
X184166D01*
Y137042D01*
X190163Y143038D01*
X190324Y143063D01*
X191314Y142775D01*
X191402Y142562D01*
X191815Y142024D01*
X192353Y141610D01*
X192981Y141351D01*
X193654Y141262D01*
X194326Y141351D01*
X194954Y141610D01*
X195492Y142024D01*
X195905Y142562D01*
X196165Y143189D01*
X196254Y143862D01*
X196165Y144535D01*
X195905Y145162D01*
X195492Y145701D01*
X194954Y146114D01*
X194741Y146202D01*
X194453Y147192D01*
X194478Y147353D01*
X196060Y148936D01*
X196436Y149498D01*
X196568Y150161D01*
Y165050D01*
X197045Y165248D01*
X197584Y165661D01*
X197997Y166200D01*
X198257Y166827D01*
X198345Y167500D01*
X198257Y168173D01*
X198084Y168589D01*
X198932Y169155D01*
X201759Y166328D01*
D02*
G37*
G36*
X120555Y126276D02*
X121094Y125862D01*
X121721Y125603D01*
X122394Y125514D01*
X123067Y125603D01*
X123694Y125862D01*
X123857Y125987D01*
X124046Y126017D01*
X124935Y125861D01*
X125100Y125763D01*
X125110Y125747D01*
X125346Y125590D01*
X125352Y124592D01*
X125352D01*
Y118593D01*
X131351D01*
Y118725D01*
X132663D01*
X133573Y117973D01*
X133662Y117300D01*
X133672Y117275D01*
X133013Y116275D01*
X130469D01*
Y115280D01*
X127602D01*
Y117292D01*
X121601D01*
Y110556D01*
X110513D01*
X109186Y111883D01*
Y125684D01*
X109808Y125963D01*
X110186Y126050D01*
X110691Y125713D01*
X111374Y125577D01*
X112057Y125713D01*
X112637Y126100D01*
X112824Y126381D01*
X120474D01*
X120555Y126276D01*
D02*
G37*
G36*
X161164Y125530D02*
X159918Y124285D01*
X159542Y123722D01*
X159410Y123059D01*
Y112936D01*
X158607Y112133D01*
X152820D01*
X152629Y112366D01*
Y125448D01*
X153168Y125719D01*
X153629Y125834D01*
X154108Y125514D01*
X154791Y125378D01*
X155475Y125514D01*
X156054Y125901D01*
X156423Y126454D01*
X160781D01*
X161164Y125530D01*
D02*
G37*
G36*
X193826Y120499D02*
Y116547D01*
X191859D01*
Y112299D01*
X190344Y110783D01*
X189968Y110221D01*
X189836Y109557D01*
Y96419D01*
X188836Y96005D01*
X184833Y100008D01*
Y101800D01*
X186004Y102971D01*
X186379Y103533D01*
X186511Y104196D01*
Y117394D01*
X186379Y118057D01*
X186004Y118619D01*
X184677Y119946D01*
X185268Y120744D01*
X185896Y120484D01*
X186568Y120396D01*
X187241Y120484D01*
X187869Y120744D01*
X188407Y121157D01*
X188820Y121696D01*
X189080Y122323D01*
X189169Y122996D01*
X189080Y123669D01*
X188966Y123945D01*
X189813Y124512D01*
X193826Y120499D01*
D02*
G37*
G36*
X178141Y134547D02*
Y124774D01*
X178273Y124111D01*
X178648Y123549D01*
X178712Y123485D01*
Y118684D01*
X177378D01*
Y118684D01*
X177022D01*
Y118684D01*
X175151D01*
X174811Y119043D01*
X174336Y119838D01*
X174336D01*
X174336Y119838D01*
Y125191D01*
X174336Y125191D01*
Y125547D01*
X174336D01*
X174336Y126191D01*
Y130900D01*
X174336D01*
X174701Y131748D01*
X174842Y131932D01*
X175102Y132559D01*
X175191Y133232D01*
X175122Y133756D01*
X175237Y134063D01*
X175832Y134756D01*
X176283D01*
X176946Y134888D01*
X177141Y135018D01*
X178141Y134547D01*
D02*
G37*
G36*
X280194Y108356D02*
Y104429D01*
X279194Y103871D01*
X278757Y104052D01*
X277827Y104174D01*
X276897Y104052D01*
X276030Y103693D01*
X275286Y103122D01*
X274715Y102378D01*
X274468Y101781D01*
X269757D01*
Y101781D01*
X268968D01*
Y101781D01*
X264256D01*
X264009Y102378D01*
X263438Y103122D01*
X262694Y103693D01*
X261828Y104052D01*
X260931Y104170D01*
X260854Y104272D01*
X260474Y105127D01*
X262099Y106752D01*
X266196D01*
X266830Y105979D01*
X266814Y105896D01*
X267008Y104921D01*
X267560Y104095D01*
X268387Y103542D01*
X269362Y103348D01*
X270337Y103542D01*
X271164Y104095D01*
X271716Y104921D01*
X271910Y105896D01*
X271894Y105979D01*
X272528Y106752D01*
X276608D01*
X277291Y106888D01*
X277870Y107274D01*
X279071Y108476D01*
X279194Y108659D01*
X280194Y108356D01*
D02*
G37*
G36*
X145150Y101058D02*
Y94891D01*
X153050D01*
Y99278D01*
X154841Y101068D01*
X156840D01*
X157552Y100356D01*
Y94268D01*
X157552Y93747D01*
X156615Y93332D01*
X150543D01*
X149870Y93244D01*
X149243Y92984D01*
X149232Y92975D01*
X140297D01*
X139439Y92805D01*
X138711Y92318D01*
X137778Y91385D01*
X131800D01*
Y84075D01*
X130926Y83182D01*
X130661Y83217D01*
X129320Y83040D01*
X129202Y82991D01*
X129170Y82985D01*
X129142Y82966D01*
X128071Y82523D01*
X126998Y81699D01*
X126211Y80674D01*
X125672Y80595D01*
X125651D01*
X125112Y80674D01*
X124325Y81699D01*
X123252Y82523D01*
X122002Y83040D01*
X120661Y83217D01*
X119320Y83040D01*
X118395Y82657D01*
X117395Y83153D01*
Y84942D01*
X127220Y94767D01*
X136834D01*
X137497Y94899D01*
X138060Y95274D01*
X144226Y101441D01*
X145150Y101058D01*
D02*
G37*
%LPC*%
G36*
X109046Y336440D02*
X99954D01*
Y330103D01*
X109046D01*
Y331700D01*
X110133D01*
X110214Y331594D01*
X110753Y331181D01*
X111380Y330922D01*
X112053Y330833D01*
X112726Y330922D01*
X113353Y331181D01*
X113891Y331594D01*
X114305Y332133D01*
X114564Y332760D01*
X114653Y333433D01*
X114564Y334106D01*
X114305Y334733D01*
X113891Y335272D01*
X113353Y335685D01*
X112726Y335945D01*
X112053Y336033D01*
X111380Y335945D01*
X110753Y335685D01*
X110214Y335272D01*
X110133Y335166D01*
X109046D01*
Y336440D01*
D02*
G37*
G36*
X130000Y317689D02*
X128916Y317546D01*
X127906Y317127D01*
X127038Y316462D01*
X126373Y315594D01*
X125954Y314584D01*
X125811Y313500D01*
X125954Y312416D01*
X126373Y311406D01*
X127038Y310538D01*
X127906Y309873D01*
X128916Y309454D01*
X130000Y309311D01*
X131084Y309454D01*
X132094Y309873D01*
X132962Y310538D01*
X133627Y311406D01*
X134046Y312416D01*
X134189Y313500D01*
X134046Y314584D01*
X133627Y315594D01*
X132962Y316462D01*
X132094Y317127D01*
X131084Y317546D01*
X130000Y317689D01*
D02*
G37*
G36*
X120000D02*
X118916Y317546D01*
X117906Y317127D01*
X117038Y316462D01*
X116373Y315594D01*
X115954Y314584D01*
X115811Y313500D01*
X115954Y312416D01*
X116373Y311406D01*
X117038Y310538D01*
X117906Y309873D01*
X118916Y309454D01*
X120000Y309311D01*
X121084Y309454D01*
X122094Y309873D01*
X122962Y310538D01*
X123627Y311406D01*
X124046Y312416D01*
X124189Y313500D01*
X124046Y314584D01*
X123627Y315594D01*
X122962Y316462D01*
X122094Y317127D01*
X121084Y317546D01*
X120000Y317689D01*
D02*
G37*
G36*
X100000D02*
X98916Y317546D01*
X97906Y317127D01*
X97038Y316462D01*
X96373Y315594D01*
X95954Y314584D01*
X95811Y313500D01*
X95954Y312416D01*
X96373Y311406D01*
X97038Y310538D01*
X97906Y309873D01*
X98916Y309454D01*
X100000Y309311D01*
X101084Y309454D01*
X102094Y309873D01*
X102962Y310538D01*
X103627Y311406D01*
X104046Y312416D01*
X104189Y313500D01*
X104046Y314584D01*
X103627Y315594D01*
X102962Y316462D01*
X102094Y317127D01*
X101084Y317546D01*
X100000Y317689D01*
D02*
G37*
G36*
X251278Y355211D02*
X249730D01*
X248195Y355009D01*
X246699Y354608D01*
X245269Y354016D01*
X243928Y353242D01*
X242700Y352299D01*
X241605Y351204D01*
X240662Y349976D01*
X239888Y348635D01*
X239296Y347205D01*
X238895Y345709D01*
X238693Y344174D01*
Y342626D01*
X238895Y341091D01*
X239296Y339595D01*
X239888Y338165D01*
X240662Y336824D01*
X241605Y335596D01*
X242700Y334501D01*
X243928Y333558D01*
X245269Y332784D01*
X246699Y332192D01*
X248195Y331791D01*
X249730Y331589D01*
X251278D01*
X252813Y331791D01*
X254309Y332192D01*
X255739Y332784D01*
X257080Y333558D01*
X258308Y334501D01*
X259403Y335596D01*
X260346Y336824D01*
X261120Y338165D01*
X261712Y339595D01*
X262113Y341091D01*
X262315Y342626D01*
Y344174D01*
X262113Y345709D01*
X261712Y347205D01*
X261120Y348635D01*
X260346Y349976D01*
X259403Y351204D01*
X258308Y352299D01*
X257080Y353242D01*
X255739Y354016D01*
X254309Y354608D01*
X252813Y355009D01*
X251278Y355211D01*
D02*
G37*
G36*
X54418D02*
X52870D01*
X51335Y355009D01*
X49839Y354608D01*
X48409Y354016D01*
X47068Y353242D01*
X45840Y352299D01*
X44745Y351204D01*
X43802Y349976D01*
X43028Y348635D01*
X42436Y347205D01*
X42035Y345709D01*
X41833Y344174D01*
Y342626D01*
X42035Y341091D01*
X42436Y339595D01*
X43028Y338165D01*
X43802Y336824D01*
X44745Y335596D01*
X45840Y334501D01*
X47068Y333558D01*
X48409Y332784D01*
X49839Y332192D01*
X51335Y331791D01*
X52870Y331589D01*
X54418D01*
X55953Y331791D01*
X57449Y332192D01*
X58879Y332784D01*
X60220Y333558D01*
X61448Y334501D01*
X62543Y335596D01*
X63485Y336824D01*
X64260Y338165D01*
X64852Y339595D01*
X65253Y341091D01*
X65455Y342626D01*
Y344174D01*
X65253Y345709D01*
X64852Y347205D01*
X64260Y348635D01*
X63485Y349976D01*
X62543Y351204D01*
X61448Y352299D01*
X60220Y353242D01*
X58879Y354016D01*
X57449Y354608D01*
X55953Y355009D01*
X54418Y355211D01*
D02*
G37*
G36*
X219165Y317342D02*
X218081Y317199D01*
X217071Y316781D01*
X216204Y316115D01*
X215538Y315248D01*
X215120Y314238D01*
X214977Y313154D01*
X215120Y312070D01*
X215538Y311059D01*
X216204Y310192D01*
X217071Y309526D01*
X218081Y309108D01*
X219165Y308965D01*
X220249Y309108D01*
X221260Y309526D01*
X222127Y310192D01*
X222793Y311059D01*
X223211Y312070D01*
X223354Y313154D01*
X223211Y314238D01*
X222793Y315248D01*
X222127Y316115D01*
X221260Y316781D01*
X220249Y317199D01*
X219165Y317342D01*
D02*
G37*
G36*
X209165D02*
X208081Y317199D01*
X207071Y316781D01*
X206204Y316115D01*
X205538Y315248D01*
X205119Y314238D01*
X204977Y313154D01*
X205119Y312070D01*
X205538Y311059D01*
X206204Y310192D01*
X207071Y309526D01*
X208081Y309108D01*
X209165Y308965D01*
X210249Y309108D01*
X211260Y309526D01*
X212127Y310192D01*
X212793Y311059D01*
X213211Y312070D01*
X213354Y313154D01*
X213211Y314238D01*
X212793Y315248D01*
X212127Y316115D01*
X211260Y316781D01*
X210249Y317199D01*
X209165Y317342D01*
D02*
G37*
G36*
X189165D02*
X188081Y317199D01*
X187071Y316781D01*
X186204Y316115D01*
X185538Y315248D01*
X185119Y314238D01*
X184977Y313154D01*
X185119Y312070D01*
X185538Y311059D01*
X186204Y310192D01*
X187071Y309526D01*
X188081Y309108D01*
X189165Y308965D01*
X190249Y309108D01*
X191260Y309526D01*
X192127Y310192D01*
X192793Y311059D01*
X193211Y312070D01*
X193354Y313154D01*
X193211Y314238D01*
X192793Y315248D01*
X192127Y316115D01*
X191260Y316781D01*
X190249Y317199D01*
X189165Y317342D01*
D02*
G37*
G36*
X54418Y327652D02*
X52870D01*
X51335Y327450D01*
X49839Y327049D01*
X48409Y326457D01*
X47068Y325682D01*
X45840Y324740D01*
X44745Y323645D01*
X43802Y322417D01*
X43028Y321076D01*
X42436Y319646D01*
X42035Y318150D01*
X41833Y316615D01*
Y315067D01*
X42035Y313532D01*
X42436Y312036D01*
X43028Y310606D01*
X43802Y309265D01*
X44745Y308037D01*
X45840Y306942D01*
X47068Y305999D01*
X48409Y305225D01*
X49839Y304633D01*
X51335Y304232D01*
X52870Y304030D01*
X54418D01*
X55953Y304232D01*
X57449Y304633D01*
X58879Y305225D01*
X60220Y305999D01*
X61448Y306942D01*
X62543Y308037D01*
X63485Y309265D01*
X64260Y310606D01*
X64852Y312036D01*
X65253Y313532D01*
X65455Y315067D01*
Y316615D01*
X65253Y318150D01*
X64852Y319646D01*
X64260Y321076D01*
X63485Y322417D01*
X62543Y323645D01*
X61448Y324740D01*
X60220Y325682D01*
X58879Y326457D01*
X57449Y327049D01*
X55953Y327450D01*
X54418Y327652D01*
D02*
G37*
G36*
X37653Y268653D02*
X29347D01*
Y260347D01*
X37653D01*
Y268653D01*
D02*
G37*
G36*
X33500Y248689D02*
X32416Y248546D01*
X31406Y248127D01*
X30538Y247462D01*
X29873Y246594D01*
X29454Y245584D01*
X29311Y244500D01*
X29454Y243416D01*
X29873Y242406D01*
X30538Y241538D01*
X31406Y240873D01*
X32416Y240454D01*
X33500Y240311D01*
X34584Y240454D01*
X35594Y240873D01*
X36462Y241538D01*
X37127Y242406D01*
X37546Y243416D01*
X37689Y244500D01*
X37546Y245584D01*
X37127Y246594D01*
X36462Y247462D01*
X35594Y248127D01*
X34584Y248546D01*
X33500Y248689D01*
D02*
G37*
G36*
Y238689D02*
X32416Y238546D01*
X31406Y238127D01*
X30538Y237462D01*
X29873Y236594D01*
X29454Y235584D01*
X29311Y234500D01*
X29454Y233416D01*
X29873Y232406D01*
X30538Y231538D01*
X31406Y230873D01*
X32416Y230454D01*
X33500Y230311D01*
X34584Y230454D01*
X35594Y230873D01*
X36462Y231538D01*
X37127Y232406D01*
X37546Y233416D01*
X37689Y234500D01*
X37546Y235584D01*
X37127Y236594D01*
X36462Y237462D01*
X35594Y238127D01*
X34584Y238546D01*
X33500Y238689D01*
D02*
G37*
G36*
X104630Y80298D02*
X96325D01*
Y71993D01*
X104630D01*
Y80298D01*
D02*
G37*
G36*
X272050Y68189D02*
X270966Y68046D01*
X269956Y67627D01*
X269088Y66962D01*
X268423Y66094D01*
X268004Y65084D01*
X267861Y64000D01*
X268004Y62916D01*
X268423Y61906D01*
X269088Y61038D01*
X269956Y60373D01*
X270966Y59954D01*
X272050Y59811D01*
X273134Y59954D01*
X274144Y60373D01*
X275012Y61038D01*
X275677Y61906D01*
X276096Y62916D01*
X276239Y64000D01*
X276096Y65084D01*
X275677Y66094D01*
X275012Y66962D01*
X274144Y67627D01*
X273134Y68046D01*
X272050Y68189D01*
D02*
G37*
G36*
X106803Y60067D02*
X105462Y59891D01*
X104212Y59373D01*
X103139Y58550D01*
X102353Y57525D01*
X101813Y57446D01*
X101793D01*
X101253Y57525D01*
X100467Y58550D01*
X99394Y59373D01*
X98144Y59891D01*
X96803Y60067D01*
X95462Y59891D01*
X94213Y59373D01*
X93139Y58550D01*
X92316Y57477D01*
X91798Y56227D01*
X91622Y54886D01*
X91798Y53545D01*
X92316Y52295D01*
X93139Y51222D01*
X94213Y50399D01*
X95462Y49881D01*
X96803Y49705D01*
X98144Y49881D01*
X99394Y50399D01*
X100467Y51222D01*
X101253Y52247D01*
X101793Y52326D01*
X101813D01*
X102353Y52247D01*
X103139Y51222D01*
X104212Y50399D01*
X105462Y49881D01*
X106803Y49705D01*
X108144Y49881D01*
X109394Y50399D01*
X110467Y51222D01*
X111290Y52295D01*
X111808Y53545D01*
X111985Y54886D01*
X111808Y56227D01*
X111290Y57477D01*
X110467Y58550D01*
X109394Y59373D01*
X108144Y59891D01*
X106803Y60067D01*
D02*
G37*
G36*
X140661Y63785D02*
X139173Y63589D01*
X137787Y63014D01*
X136596Y62101D01*
X135682Y60910D01*
X135108Y59523D01*
X134912Y58035D01*
X135108Y56547D01*
X135682Y55161D01*
X136596Y53970D01*
X137787Y53057D01*
X139173Y52482D01*
X140661Y52286D01*
X142149Y52482D01*
X143536Y53057D01*
X144727Y53970D01*
X145640Y55161D01*
X146215Y56547D01*
X146411Y58035D01*
X146215Y59523D01*
X145640Y60910D01*
X144727Y62101D01*
X143536Y63014D01*
X142149Y63589D01*
X140661Y63785D01*
D02*
G37*
G36*
X120661D02*
X119173Y63589D01*
X117787Y63014D01*
X116596Y62101D01*
X115682Y60910D01*
X115108Y59523D01*
X114912Y58035D01*
X115108Y56547D01*
X115682Y55161D01*
X116596Y53970D01*
X117787Y53057D01*
X119173Y52482D01*
X120661Y52286D01*
X122149Y52482D01*
X123536Y53057D01*
X124727Y53970D01*
X125640Y55161D01*
X126215Y56547D01*
X126411Y58035D01*
X126215Y59523D01*
X125640Y60910D01*
X124727Y62101D01*
X123536Y63014D01*
X122149Y63589D01*
X120661Y63785D01*
D02*
G37*
G36*
X272050Y58189D02*
X270966Y58046D01*
X269956Y57627D01*
X269088Y56962D01*
X268423Y56094D01*
X268004Y55084D01*
X267861Y54000D01*
X268004Y52916D01*
X268423Y51906D01*
X269088Y51038D01*
X269956Y50373D01*
X270966Y49954D01*
X272050Y49811D01*
X273134Y49954D01*
X274144Y50373D01*
X275012Y51038D01*
X275677Y51906D01*
X276096Y52916D01*
X276239Y54000D01*
X276096Y55084D01*
X275677Y56094D01*
X275012Y56962D01*
X274144Y57627D01*
X273134Y58046D01*
X272050Y58189D01*
D02*
G37*
G36*
X39659Y67063D02*
X38110D01*
X36575Y66861D01*
X35080Y66461D01*
X33650Y65868D01*
X32309Y65094D01*
X31080Y64151D01*
X29985Y63057D01*
X29043Y61828D01*
X28269Y60487D01*
X27676Y59057D01*
X27276Y57561D01*
X27073Y56026D01*
Y54478D01*
X27276Y52943D01*
X27676Y51448D01*
X28269Y50017D01*
X29043Y48676D01*
X29985Y47448D01*
X31080Y46353D01*
X32309Y45411D01*
X33650Y44637D01*
X35080Y44044D01*
X36575Y43643D01*
X38110Y43441D01*
X39659D01*
X41194Y43643D01*
X42689Y44044D01*
X44120Y44637D01*
X45461Y45411D01*
X46689Y46353D01*
X47784Y47448D01*
X48726Y48676D01*
X49500Y50017D01*
X50093Y51448D01*
X50494Y52943D01*
X50696Y54478D01*
Y56026D01*
X50494Y57561D01*
X50093Y59057D01*
X49500Y60487D01*
X48726Y61828D01*
X47784Y63057D01*
X46689Y64151D01*
X45461Y65094D01*
X44120Y65868D01*
X42689Y66461D01*
X41194Y66861D01*
X39659Y67063D01*
D02*
G37*
G36*
X209008Y151187D02*
X208335Y151098D01*
X207708Y150838D01*
X207169Y150425D01*
X206756Y149887D01*
X206496Y149260D01*
X206408Y148587D01*
X206496Y147914D01*
X206756Y147286D01*
X207169Y146748D01*
X207708Y146335D01*
X208335Y146075D01*
X209008Y145986D01*
X209681Y146075D01*
X210308Y146335D01*
X210846Y146748D01*
X211260Y147286D01*
X211520Y147914D01*
X211608Y148587D01*
X211520Y149260D01*
X211260Y149887D01*
X210846Y150425D01*
X210308Y150838D01*
X209681Y151098D01*
X209008Y151187D01*
D02*
G37*
G36*
X242050Y68189D02*
X240966Y68046D01*
X239956Y67627D01*
X239088Y66962D01*
X238423Y66094D01*
X238004Y65084D01*
X237861Y64000D01*
X238004Y62916D01*
X238423Y61906D01*
X239088Y61038D01*
X239956Y60373D01*
X240966Y59954D01*
X242050Y59811D01*
X243134Y59954D01*
X244144Y60373D01*
X245012Y61038D01*
X245677Y61906D01*
X246096Y62916D01*
X246239Y64000D01*
X246096Y65084D01*
X245677Y66094D01*
X245012Y66962D01*
X244144Y67627D01*
X243134Y68046D01*
X242050Y68189D01*
D02*
G37*
G36*
X232050D02*
X230966Y68046D01*
X229956Y67627D01*
X229088Y66962D01*
X228423Y66094D01*
X228004Y65084D01*
X227861Y64000D01*
X228004Y62916D01*
X228423Y61906D01*
X229088Y61038D01*
X229956Y60373D01*
X230966Y59954D01*
X232050Y59811D01*
X233134Y59954D01*
X234144Y60373D01*
X235012Y61038D01*
X235677Y61906D01*
X236096Y62916D01*
X236239Y64000D01*
X236096Y65084D01*
X235677Y66094D01*
X235012Y66962D01*
X234144Y67627D01*
X233134Y68046D01*
X232050Y68189D01*
D02*
G37*
G36*
X212050D02*
X210966Y68046D01*
X209956Y67627D01*
X209088Y66962D01*
X208423Y66094D01*
X208004Y65084D01*
X207861Y64000D01*
X208004Y62916D01*
X208423Y61906D01*
X209088Y61038D01*
X209956Y60373D01*
X210966Y59954D01*
X212050Y59811D01*
X213134Y59954D01*
X214144Y60373D01*
X215012Y61038D01*
X215677Y61906D01*
X216096Y62916D01*
X216239Y64000D01*
X216096Y65084D01*
X215677Y66094D01*
X215012Y66962D01*
X214144Y67627D01*
X213134Y68046D01*
X212050Y68189D01*
D02*
G37*
G36*
X202050Y68734D02*
X201019Y68598D01*
X200058Y68200D01*
X199233Y67567D01*
X198600Y66742D01*
X198202Y65781D01*
X198066Y64750D01*
Y63250D01*
X198202Y62219D01*
X198600Y61258D01*
X199233Y60433D01*
X200058Y59800D01*
X201019Y59402D01*
X202050Y59266D01*
X203081Y59402D01*
X204042Y59800D01*
X204867Y60433D01*
X205500Y61258D01*
X205898Y62219D01*
X206034Y63250D01*
Y64750D01*
X205898Y65781D01*
X205500Y66742D01*
X204867Y67567D01*
X204042Y68200D01*
X203081Y68598D01*
X202050Y68734D01*
D02*
G37*
G36*
X192050D02*
X191019Y68598D01*
X190058Y68200D01*
X189233Y67567D01*
X188600Y66742D01*
X188202Y65781D01*
X188066Y64750D01*
Y63250D01*
X188202Y62219D01*
X188600Y61258D01*
X189233Y60433D01*
X190058Y59800D01*
X191019Y59402D01*
X192050Y59266D01*
X193081Y59402D01*
X194042Y59800D01*
X194867Y60433D01*
X195500Y61258D01*
X195898Y62219D01*
X196034Y63250D01*
Y64750D01*
X195898Y65781D01*
X195500Y66742D01*
X194867Y67567D01*
X194042Y68200D01*
X193081Y68598D01*
X192050Y68734D01*
D02*
G37*
%LPD*%
D10*
X151224Y104435D02*
X158614D01*
X157716Y103364D02*
X159000Y102080D01*
X159250Y103364D02*
Y104571D01*
Y102331D02*
Y103364D01*
X159405Y105993D02*
X159795Y105603D01*
X159250Y106148D02*
X159405Y105993D01*
X159250Y105839D02*
X159411Y106000D01*
X155710Y107500D02*
X157898D01*
X159795Y101285D02*
Y105603D01*
X159250Y104571D02*
X159500Y104321D01*
X159000Y104821D02*
X159250Y104571D01*
Y103364D02*
X159264D01*
X158260D02*
X159250D01*
X159219Y105807D02*
X159250Y105839D01*
Y102331D02*
X159500Y102580D01*
X159000Y102080D02*
X159250Y102331D01*
Y105839D02*
Y106148D01*
Y104571D02*
Y105839D01*
X152595Y105807D02*
X156994D01*
X155710Y107500D02*
X157210Y106000D01*
X157898Y107500D02*
X159250Y106148D01*
X150100Y99500D02*
X153964Y103364D01*
X150100Y99500D02*
Y101255D01*
X149100Y101209D02*
Y102600D01*
X154000Y107500D01*
X155710D01*
X156994Y105807D02*
X157017D01*
X156994D02*
X157017Y105785D01*
X182649Y296676D02*
X188142D01*
X167818Y99582D02*
X170303Y102067D01*
X167818Y99582D02*
Y102426D01*
X156437Y106148D02*
X156654D01*
X156994Y105807D01*
X154100Y103500D02*
X154288Y103312D01*
X157392D01*
X157580Y103500D01*
X159264Y102817D02*
Y103364D01*
Y102817D02*
X159500Y102580D01*
X159264Y103364D02*
Y104085D01*
X159500Y104321D01*
X158124Y103500D02*
X158260Y103364D01*
X159250Y106148D02*
X159264D01*
X159411Y106000D01*
X157743Y106148D02*
X159250D01*
X157403Y105807D02*
X157743Y106148D01*
X157988Y103364D02*
X158124Y103500D01*
X153964Y103364D02*
X154100Y103500D01*
X157580D02*
X157716Y103364D01*
X167135Y109547D02*
X172413D01*
X157210Y106000D02*
X157403Y105807D01*
X157852Y103500D02*
X157988Y103364D01*
X162550Y95039D02*
Y106990D01*
X162790Y107230D01*
X159795Y93747D02*
Y101285D01*
X159000Y102080D02*
X159795Y101285D01*
X157017Y105807D02*
X157210Y106000D01*
X158614Y104435D02*
X159000Y104821D01*
X159795Y93747D02*
X160976Y92566D01*
X157716Y103364D02*
X157852Y103500D01*
X162790Y107230D02*
Y107298D01*
X165039Y109547D01*
X162550Y95039D02*
X163732Y93857D01*
X151224Y104435D02*
X152595Y105807D01*
X150100Y101255D02*
Y103312D01*
X151224Y104435D01*
X152209Y103364D02*
X153964D01*
X150100Y101255D02*
X152209Y103364D01*
X168262Y101527D02*
Y102426D01*
X170880Y96520D02*
X174639D01*
X201163Y296983D02*
X201470Y296676D01*
X197197Y297012D02*
X199165Y298980D01*
X201163Y296983D01*
X214362Y160272D02*
Y162996D01*
X209205Y163429D02*
X213929D01*
X214362Y162996D01*
X256252Y78508D02*
X257000Y77760D01*
Y50445D02*
Y77760D01*
X254748Y48193D02*
X257000Y50445D01*
X172455Y67000D02*
X174524Y64931D01*
X170488Y67000D02*
X172455D01*
X174524Y50428D02*
Y64931D01*
X106996Y214135D02*
X111796Y218935D01*
X88492Y222234D02*
Y237366D01*
X140343Y89124D02*
X157433D01*
X138784Y87566D02*
X140343Y89124D01*
X137827Y86608D02*
X138784Y87566D01*
X157500D01*
X137827Y86608D02*
X138703Y85732D01*
X137000Y87435D02*
X137827Y86608D01*
X138703Y85732D02*
X154087D01*
X137000Y87435D02*
X140297Y90732D01*
X154087D01*
X170303Y102067D02*
X172413D01*
X167818Y99582D02*
X170880Y96520D01*
X160976Y76512D02*
Y92566D01*
X165039Y109547D02*
X167135D01*
X168000Y108682D01*
X163732Y77614D02*
Y93857D01*
X244388Y82435D02*
X249834D01*
X174524Y50428D02*
X176760Y48193D01*
X160976Y76512D02*
X170488Y67000D01*
X177224Y65007D02*
Y70467D01*
Y65007D02*
X177240Y64991D01*
Y58729D02*
Y64991D01*
Y58729D02*
X182000Y53969D01*
X175089Y72602D02*
X177224Y70467D01*
X163732Y77614D02*
X168744Y72602D01*
X246000Y169150D02*
Y184360D01*
Y166500D02*
Y169150D01*
Y164000D02*
Y166500D01*
Y184360D02*
X251837Y190197D01*
X178575Y296500D02*
X178751Y296676D01*
X161173Y309413D02*
X165044D01*
X161123Y303508D02*
X165017D01*
X111796Y218935D02*
X112902D01*
X115855D01*
X88492Y222234D02*
X91791Y218935D01*
X98138D02*
X101091D01*
X102196D01*
X91791D02*
X95185D01*
X98138D01*
X115855D02*
X118807D01*
X121690D01*
X244323Y77500D02*
X249770D01*
X249834Y77435D01*
X244388Y82435D02*
X244441Y82382D01*
Y82051D02*
Y82382D01*
X256252Y78508D02*
Y83658D01*
X258805Y86211D01*
X267003Y190197D02*
X268500Y191694D01*
X251837Y190197D02*
X267003D01*
X176760Y48193D02*
X254748D01*
X121690Y218935D02*
X123492Y220737D01*
X179422Y286440D02*
X188142D01*
X178299Y287563D02*
X179422Y286440D01*
X178299Y287563D02*
Y296224D01*
X199165Y298980D02*
Y313154D01*
Y297406D02*
Y298587D01*
X102196Y218935D02*
X106996Y214135D01*
D11*
X89736Y129370D02*
G03*
X92591Y128187I2854J2854D01*
G01*
X170431Y128322D02*
X171561D01*
X147971Y110400D02*
X159156D01*
X144444Y106873D02*
X147971Y110400D01*
X144444Y104109D02*
Y106873D01*
X136834Y96500D02*
X144444Y104109D01*
X159207Y110451D02*
X159376D01*
X159156Y110400D02*
X159207Y110451D01*
X159376D02*
X161144Y112218D01*
X164085Y170831D02*
X167124D01*
X243260Y137491D02*
Y138189D01*
Y137491D02*
X243404Y137346D01*
X244124Y138066D01*
X243568Y87435D02*
X249834D01*
X226905Y72435D02*
X234564D01*
X222902Y76358D02*
Y80083D01*
Y70634D02*
Y76358D01*
X244124Y138066D02*
X245000Y138942D01*
X234362Y175626D02*
Y181106D01*
X193063Y229167D02*
X193979Y230083D01*
X242500Y149502D02*
X243141Y148861D01*
X246646D01*
X248221Y147286D01*
X127958Y180870D02*
X128351Y181264D01*
X127958Y180870D02*
X157039D01*
X29985Y300949D02*
X60583D01*
X126502Y96500D02*
X136834D01*
X196410Y245830D02*
X196772Y245468D01*
X191784Y324943D02*
Y327330D01*
X257080Y201881D02*
Y214756D01*
X227906Y241997D02*
Y279691D01*
X160189Y230279D02*
X166070D01*
X126444Y225159D02*
Y229208D01*
X109282Y263821D02*
X109555Y263547D01*
X93065Y263154D02*
Y267136D01*
X272787Y248744D02*
Y253705D01*
X215898Y200358D02*
X221500D01*
X156000Y215516D02*
X157827D01*
X142276D02*
X156000D01*
X156500Y214189D02*
X157827Y215516D01*
X153807Y211496D02*
X156500Y214189D01*
X156000Y215516D02*
X156500Y215016D01*
Y214189D02*
Y215016D01*
X181764Y222094D02*
X183108D01*
X180638D02*
X181764D01*
X182340Y221517D01*
X182531D01*
X183108Y222094D01*
X182531Y220199D02*
Y221517D01*
X202000Y179059D02*
X208417Y172642D01*
X182433Y127327D02*
Y137760D01*
X188339Y84599D02*
Y89525D01*
X191685Y195859D02*
X192262Y196435D01*
X155268Y308823D02*
Y309413D01*
X216685Y222038D02*
X231029D01*
X245031Y196427D02*
X245105Y196353D01*
X245031Y196427D02*
Y203606D01*
X202000Y179059D02*
Y181362D01*
X165110Y212980D02*
X166269Y214138D01*
X171409D01*
X161106Y216106D02*
X171409D01*
X157233Y212233D02*
X161106Y216106D01*
X157233Y209583D02*
Y212233D01*
X155685Y208035D02*
X157233Y209583D01*
X151921Y208035D02*
X155685D01*
X153807Y211000D02*
Y211496D01*
X129602Y247500D02*
X134303Y242799D01*
X110000Y247500D02*
X129602D01*
X134303Y235000D02*
Y242799D01*
X131660Y251427D02*
X139000Y244087D01*
Y228295D02*
Y244087D01*
X134205Y223500D02*
X139000Y228295D01*
X130968Y249500D02*
X137039Y243429D01*
Y232539D02*
Y243429D01*
X134239Y229739D02*
X137039Y232539D01*
X132500Y229739D02*
X134239D01*
X249289Y282445D02*
Y284897D01*
X230869Y288056D02*
X233911D01*
X230869Y282655D02*
Y288056D01*
X227906Y237465D02*
Y241997D01*
X185189Y242287D02*
X185780Y242878D01*
X257080Y198627D02*
Y201881D01*
X208811Y190319D02*
Y195210D01*
Y190319D02*
X212179D01*
X156252Y230279D02*
X160189D01*
X104831Y268272D02*
X109282Y263821D01*
X93065Y258555D02*
Y263154D01*
X170492Y176736D02*
X174165Y173063D01*
X176579D01*
X172394D02*
X174165D01*
X165110Y122416D02*
X171561D01*
X167962Y193468D02*
X170464Y195970D01*
X126444Y222488D02*
Y225159D01*
X81055Y200752D02*
X84205D01*
X165091Y193468D02*
X167962D01*
X137551Y190516D02*
Y192989D01*
X164085Y176736D02*
X167814D01*
X131211Y233975D02*
Y242537D01*
X126444Y229208D02*
X131211Y233975D01*
X114154Y249500D02*
X130968D01*
X100500Y263154D02*
X114154Y249500D01*
X98184Y263154D02*
X100500D01*
X107732Y249768D02*
X110000Y247500D01*
X98184Y249768D02*
X107732D01*
X171500Y234219D02*
Y237000D01*
X173500Y238988D02*
Y241000D01*
X173378Y238866D02*
X173500Y238988D01*
X218411Y281919D02*
Y288056D01*
X210000Y209336D02*
X210865Y210201D01*
X216685D01*
X205500Y212169D02*
X205500Y212169D01*
X216685D01*
X195745Y167214D02*
Y167500D01*
X194835Y166303D02*
X195745Y167214D01*
X176331Y206264D02*
X176331Y206264D01*
X171409Y206264D02*
X176331D01*
X206251Y216501D02*
X208613Y214138D01*
X157827Y215516D02*
X160386Y218075D01*
X171409D01*
X103516Y333433D02*
X112053D01*
X162004Y220043D02*
X171409D01*
X156000Y226047D02*
X162004Y220043D01*
X171409Y234128D02*
X171500Y234219D01*
X171409Y227917D02*
Y234128D01*
X173378Y238866D02*
X176453Y235791D01*
X179283D01*
X223305Y134938D02*
Y135963D01*
X221781Y136746D02*
X222564Y135963D01*
X223305D02*
Y136046D01*
X223303Y136213D02*
X223304Y136059D01*
X223305Y135963D01*
X221000Y160500D02*
Y164158D01*
X218461Y166697D02*
X221000Y164158D01*
X203842Y166697D02*
X218461D01*
X221000Y160272D02*
Y160500D01*
X226194Y160272D02*
Y165274D01*
X222409Y169059D02*
X226194Y165274D01*
X204299Y169059D02*
X222409D01*
X215356Y175626D02*
Y177327D01*
X204874Y181854D02*
Y191303D01*
X209402Y177327D02*
X215356D01*
X221000Y173032D02*
Y175854D01*
Y173032D02*
X225760Y168272D01*
X239244D01*
X240463Y160673D02*
X242500D01*
X239354Y159564D02*
X240463Y160673D01*
X239354Y154430D02*
Y159564D01*
X238350Y153427D02*
X239354Y154430D01*
X242500Y160673D02*
X243383Y161557D01*
X242500Y149502D02*
Y154965D01*
X198969Y174390D02*
X204299Y169059D01*
X198969Y174390D02*
Y190516D01*
X197000Y173539D02*
X203842Y166697D01*
X197000Y173539D02*
Y190516D01*
X174524Y325984D02*
X177039Y328500D01*
X169500Y325984D02*
X174524D01*
X259230Y238792D02*
X260438Y240000D01*
X259230Y216906D02*
Y238792D01*
X257080Y214756D02*
X259230Y216906D01*
X259381Y214546D02*
X262039Y217204D01*
X259381Y195852D02*
Y214546D01*
X243383Y184931D02*
X257080Y198627D01*
X215701Y116134D02*
X219835Y112000D01*
X215701Y116134D02*
Y129509D01*
X219835Y112000D02*
X232221D01*
X215701Y108730D02*
Y112965D01*
X211368Y117297D02*
X215701Y112965D01*
X212551Y133859D02*
X217519Y138827D01*
X212551Y122012D02*
Y133859D01*
X221781Y136046D02*
Y136746D01*
X222564Y135963D02*
X223305D01*
X256192Y114220D02*
X259932D01*
X183108Y222094D02*
X186766Y225752D01*
X180638Y222094D02*
X182531Y220199D01*
Y201342D02*
Y220199D01*
X106434Y283212D02*
X121646Y268000D01*
X83811Y287169D02*
X87769Y283212D01*
X106434D01*
X93065Y258555D02*
X95624Y255995D01*
Y258820D02*
X97984Y256461D01*
X95624Y258820D02*
Y263154D01*
X90898Y201933D02*
Y206163D01*
X148335Y162760D02*
X148587Y163012D01*
X177531Y105807D02*
Y111374D01*
X176405Y112500D02*
X177531Y111374D01*
X169891Y112500D02*
X176405D01*
X168000Y114391D02*
X169891Y112500D01*
X218314Y71584D02*
X219244D01*
X218264Y71634D02*
X218314Y71584D01*
X217130Y70500D02*
X218264Y71634D01*
X218007Y76369D02*
X219244D01*
X216997Y75358D02*
X218007Y76369D01*
X216997Y70634D02*
X217130Y70500D01*
X188592Y127918D02*
Y130022D01*
X195559Y113547D02*
Y121217D01*
X189183Y127594D02*
X195559Y121217D01*
X189183Y127594D02*
Y129546D01*
X189189Y129540D01*
X193098D01*
X193771Y130213D01*
Y132051D01*
X169500Y320177D02*
X169540Y320137D01*
X79926Y227917D02*
Y229739D01*
X83000Y242125D02*
X85918Y245043D01*
X83000Y232813D02*
Y242125D01*
X79926Y229739D02*
X83000Y232813D01*
X79109Y243571D02*
Y244278D01*
X79102Y243565D02*
X79109Y243571D01*
X79102Y240728D02*
Y243565D01*
X77809Y239435D02*
X79102Y240728D01*
X80802Y242860D02*
X87710Y249768D01*
X80802Y233373D02*
Y242860D01*
X76864Y229435D02*
X80802Y233373D01*
X85918Y245043D02*
X95624D01*
X79109Y244278D02*
X86516Y251686D01*
X68850Y239435D02*
X77809D01*
X63850Y234435D02*
X68850Y239435D01*
X256347Y298173D02*
Y300264D01*
X256252Y300358D02*
X256347Y300264D01*
X251129Y298173D02*
Y300096D01*
X251000Y300224D02*
X251129Y300096D01*
X251000Y300224D02*
X251134Y300358D01*
X249190Y282445D02*
X249289D01*
X247222D02*
X249190D01*
X243476Y277023D02*
X245343D01*
X243378D02*
X243476D01*
X227906Y235863D02*
Y237465D01*
Y279691D02*
X230869Y282655D01*
X265528Y255837D02*
X266141Y256450D01*
X264126Y254435D02*
X265528Y255837D01*
X266754D02*
X267367Y255224D01*
X266141Y256450D02*
X266754Y255837D01*
X265528D02*
X266754D01*
X267367Y242015D02*
Y255224D01*
X265352Y240000D02*
X267367Y242015D01*
X260438Y240000D02*
X265352D01*
X260520Y254435D02*
X264126D01*
X254614Y245223D02*
Y254435D01*
X254614Y241240D02*
Y245222D01*
X231805Y193000D02*
X233000D01*
X235000Y198500D02*
X235115D01*
X235595Y198980D01*
X115661Y85660D02*
X126502Y96500D01*
X115661Y81473D02*
Y85660D01*
X113732Y79544D02*
X115661Y81473D01*
X113732Y72602D02*
Y79544D01*
X171561Y128223D02*
Y128322D01*
Y126614D02*
Y128223D01*
X113732Y72602D02*
X118829Y67506D01*
X223969Y117181D02*
X235769D01*
X242472Y105626D02*
Y110478D01*
X235769Y117181D02*
X242472Y110478D01*
X233631Y114121D02*
X239323Y108429D01*
X221101Y114121D02*
X233631D01*
X219244Y115978D02*
X221101Y114121D01*
X232221Y112000D02*
X235609Y108612D01*
Y88833D02*
Y108612D01*
X204159Y110398D02*
X212773D01*
X217577Y106854D02*
X219815D01*
X215701Y108730D02*
X217577Y106854D01*
X203559Y117297D02*
X211368D01*
X191569Y109557D02*
X195559Y113547D01*
X191569Y87495D02*
Y109557D01*
Y87495D02*
X192214Y86850D01*
X192247D01*
X202558Y76539D01*
X166747Y173935D02*
X174165Y166517D01*
X160873Y173935D02*
X166747D01*
X158170Y176638D02*
X160873Y173935D01*
X138634Y121500D02*
X138732D01*
X137178D02*
X138634D01*
X188339Y90909D02*
Y94051D01*
X182649Y99741D02*
X188339Y94051D01*
X182649Y99741D02*
Y102067D01*
X179087Y105807D02*
X182649D01*
X184778Y104196D02*
Y117394D01*
X182530Y119642D02*
X184778Y117394D01*
X182530Y119642D02*
Y127327D01*
X231029Y291331D02*
Y293278D01*
X231000Y293307D02*
X231029Y293278D01*
X145579Y113547D02*
Y117292D01*
X122547Y139764D02*
Y143429D01*
Y139764D02*
X122591Y139807D01*
X128705Y245043D02*
X131211Y242537D01*
X95624Y245043D02*
X128705D01*
X116840Y251427D02*
X131660D01*
X224195Y284000D02*
X224254D01*
X224176Y284020D02*
X224195Y284000D01*
X224254D02*
X226500D01*
X79926Y227917D02*
X82728D01*
X224254Y284000D02*
X224274Y284020D01*
X161144Y112218D02*
Y123059D01*
X249140Y255057D02*
X249834Y254363D01*
Y248372D02*
Y254363D01*
X177000Y240713D02*
X179408D01*
X163852Y225181D02*
Y226244D01*
X206978Y265909D02*
X212551D01*
X202000Y260932D02*
X206978Y265909D01*
X202000Y244435D02*
Y260932D01*
X200937Y243372D02*
X202000Y244435D01*
X200937Y235791D02*
Y243372D01*
X212551Y265909D02*
X214243Y264218D01*
X219638D01*
Y255500D02*
Y255867D01*
X219505Y256000D02*
X219638Y255867D01*
X219505Y256000D02*
X219638Y256133D01*
Y258509D01*
X196803Y256461D02*
X197197Y256067D01*
Y252000D02*
Y256067D01*
Y252000D02*
X199448Y249748D01*
Y244500D02*
Y249748D01*
X198969Y244020D02*
X199448Y244500D01*
X198969Y235791D02*
Y244020D01*
X189988Y258537D02*
X192064Y256461D01*
X196803D01*
X195622Y285940D02*
X205858D01*
X223969Y249024D02*
Y267830D01*
X205858Y285940D02*
X223969Y267830D01*
X182649Y290770D02*
X191882D01*
X245000Y138942D02*
X245500Y139442D01*
X222394Y231756D02*
Y233626D01*
Y231658D02*
Y231756D01*
X215366Y153427D02*
X238350D01*
X250622Y107435D02*
Y110956D01*
X245228Y133536D02*
X245425Y133339D01*
Y125752D02*
Y133339D01*
X230858Y133069D02*
X231337Y133547D01*
X230858Y125752D02*
Y133069D01*
X231337Y137500D02*
Y139306D01*
X231264Y139380D02*
X231337Y139306D01*
X152315Y307642D02*
X154087D01*
X152315Y304030D02*
X154695D01*
X154087Y307642D02*
X155268Y308823D01*
X154695Y304030D02*
X155217Y303508D01*
X76000Y327528D02*
X79823D01*
X67491Y307857D02*
X94024D01*
X60583Y300949D02*
X67491Y307857D01*
X125093Y180870D02*
X127958D01*
X111463Y128114D02*
X122394D01*
X109421Y135963D02*
Y139802D01*
X89736D02*
X103516D01*
X107453Y133994D02*
X109421Y135963D01*
X107453Y133994D02*
X109421Y132026D01*
X92591Y128187D02*
X103516D01*
X111390D02*
X111463Y128114D01*
X109421Y128187D02*
Y132026D01*
X150854Y141806D02*
X152068Y143020D01*
X150854Y139802D02*
Y141806D01*
X133138Y139802D02*
X146917D01*
X152823Y135963D02*
Y139802D01*
X107453D02*
Y141806D01*
X108666Y143020D01*
X115674D01*
X117712Y145057D01*
X103117Y203071D02*
X103158Y203112D01*
X112157Y195142D02*
Y197425D01*
X110835Y198748D02*
X112157Y197425D01*
X110835Y198748D02*
Y203112D01*
X101528Y195142D02*
Y197785D01*
X103117Y199374D01*
Y203071D01*
X63850Y224435D02*
X68850Y229435D01*
X76864D01*
X161113Y147415D02*
Y147514D01*
X117712Y145057D02*
Y147415D01*
Y147514D01*
X122830D01*
X107453Y111165D02*
Y128187D01*
Y111165D02*
X109795Y108823D01*
X123181D01*
X124601Y110243D01*
Y113593D01*
X124647Y113547D01*
X128351Y121592D02*
X132734D01*
X132827Y121500D01*
X206842Y186972D02*
X208811Y185004D01*
X226751Y234709D02*
X227906Y235863D01*
X84205Y197611D02*
Y200752D01*
Y197611D02*
X84214Y197602D01*
Y191697D02*
X90014D01*
X90898Y192580D01*
X84205Y206658D02*
X89621D01*
X97228Y199079D02*
X98040Y199891D01*
X97188Y192198D02*
Y196510D01*
X100599Y199921D01*
X94835Y199079D02*
X97228D01*
X101528Y189335D02*
X105520D01*
X111390Y139802D02*
X116685D01*
X154791D02*
X160087D01*
X105520Y189335D02*
X105717Y189532D01*
X79926Y201881D02*
X81055Y200752D01*
X266094Y90148D02*
X268286D01*
X270255Y92117D01*
X272630D01*
X247924Y113653D02*
X250622Y110956D01*
X247924Y113653D02*
Y113654D01*
X182433Y109763D02*
X182649Y109547D01*
Y113439D01*
X89615Y206663D02*
X89621Y206658D01*
X166656Y89525D02*
X167863Y90732D01*
X173180D01*
X166656Y82041D02*
Y89525D01*
Y82041D02*
X167965Y80732D01*
X173180D01*
X172413Y91500D02*
X173180Y90732D01*
X219244Y123193D02*
Y126126D01*
X87710Y249768D02*
X90506D01*
X95624D02*
Y255995D01*
X94635Y224374D02*
X97941D01*
X97984Y256461D02*
X99953D01*
X86516Y251686D02*
Y261350D01*
X88320Y263154D01*
X90506D01*
X223969Y123193D02*
Y126125D01*
X223968Y123193D02*
X223969Y123193D01*
X170464Y195970D02*
X170603Y195831D01*
X73850Y244435D02*
X84598Y255183D01*
X191882Y290770D02*
Y291558D01*
X93065Y267136D02*
X94201Y268272D01*
X104831D01*
X152823Y128187D02*
Y132026D01*
X244323Y103543D02*
X245431Y102435D01*
X95624Y245043D02*
Y249768D01*
X161144Y123059D02*
X163443Y125358D01*
X180268Y86776D02*
Y90732D01*
X87278Y113439D02*
Y120240D01*
X79926Y201881D02*
Y227819D01*
X214362Y154430D02*
Y160272D01*
Y154430D02*
X215366Y153427D01*
X124647Y113547D02*
X132827D01*
X136173Y117973D02*
Y120495D01*
X137178Y121500D01*
X150496Y189138D02*
X151134D01*
X182952Y182570D02*
X185189Y184807D01*
X144965Y183856D02*
X146251Y182570D01*
X151134Y189138D02*
X153231D01*
X175650Y187670D02*
X177905Y189925D01*
X178890D01*
X167814Y176736D02*
X167814Y176736D01*
X176579Y173063D02*
X176626Y173016D01*
X29985Y306854D02*
Y312366D01*
X249834Y82435D02*
X250622D01*
X249834Y77435D02*
X250622D01*
X173180Y75732D02*
X173378D01*
X218411Y288056D02*
X218759Y287709D01*
X115953Y225750D02*
X116543Y225159D01*
X120539D01*
X260162Y92237D02*
X260282Y92117D01*
X272630D02*
X275526D01*
X276457Y93047D01*
X260162Y92237D02*
X261000D01*
X275433Y90148D02*
X276457Y89124D01*
X272630Y90148D02*
X275433D01*
X272630D02*
X272643Y90135D01*
X260282Y92117D02*
X266094D01*
X180446Y115642D02*
X182649Y113439D01*
X163443Y125358D02*
X170305D01*
X171561Y126614D01*
X154791Y128187D02*
X165479D01*
X165701D02*
Y128311D01*
X90898Y192580D02*
Y196028D01*
X219505Y223775D02*
X226322D01*
X227905Y225358D01*
X216685Y220043D02*
X222304D01*
X222394Y219953D01*
X265504Y194534D02*
X265547Y194577D01*
X237158Y193468D02*
X237158Y193468D01*
X236272Y222012D02*
X237158Y221126D01*
Y218764D02*
Y221126D01*
X231055Y222012D02*
X236272D01*
X216685Y222012D02*
Y222038D01*
X231029D02*
X231055Y222012D01*
X228085Y218764D02*
X235189D01*
X227905Y218584D02*
X228085Y218764D01*
X267059Y221716D02*
X268500Y220276D01*
X262000Y221716D02*
X267059D01*
X254614Y245222D02*
X254614Y245223D01*
X256826Y267091D02*
X256921Y266996D01*
X230869Y288056D02*
X230869Y288056D01*
X225892Y288056D02*
X230869D01*
X266141Y256450D02*
Y286217D01*
X245343Y277023D02*
X246434Y278114D01*
Y281658D01*
X247222Y282445D01*
X260389Y291970D02*
X266141Y286217D01*
X233911Y288056D02*
X235288Y289434D01*
Y291970D01*
X255465D01*
X260389D01*
X222394Y231658D02*
X222394Y231658D01*
X223477Y234709D02*
X226751D01*
X222394Y233626D02*
X223477Y234709D01*
X209402Y229886D02*
X211666Y232150D01*
Y239058D01*
X200647Y229886D02*
X209402D01*
X199547Y228785D02*
X200647Y229886D01*
X249289Y284897D02*
X250264Y285872D01*
X253424D01*
X255465Y287912D01*
Y291970D01*
X259381Y195852D02*
X259402D01*
X275543Y219059D02*
Y236003D01*
X272787Y238759D02*
X275543Y236003D01*
X272787Y238759D02*
Y248744D01*
X245431Y102435D02*
X249834D01*
X250622D01*
X230858Y123598D02*
Y125752D01*
X245425Y116154D02*
Y125752D01*
Y116154D02*
X247924Y113654D01*
X235264Y123598D02*
X244323Y114540D01*
Y103543D02*
Y114540D01*
X230858Y123598D02*
X235264D01*
X234211Y87435D02*
X235609Y88833D01*
X230150Y87435D02*
X234211D01*
X224908Y85836D02*
X228309Y82435D01*
X229362D01*
X224908Y85836D02*
Y101762D01*
X173180Y85732D02*
X173378D01*
X143457Y190516D02*
X146606D01*
X96606Y301146D02*
X96803Y301343D01*
X83220Y287760D02*
Y290488D01*
Y287760D02*
X83811Y287169D01*
X96803Y301343D02*
Y305079D01*
X100599Y199921D02*
Y202521D01*
Y203112D01*
X142276Y210398D02*
X149559D01*
X118061Y202521D02*
X121646Y206106D01*
X115953Y202521D02*
X118061D01*
X117064Y197785D02*
X123575Y204295D01*
X94024Y307857D02*
X96803Y305079D01*
Y294849D02*
Y301343D01*
X94410Y292456D02*
X96803Y294849D01*
X90701Y292456D02*
X94410D01*
X109008Y263547D02*
X109555D01*
X185189Y235791D02*
Y242287D01*
X163852Y210201D02*
X171409D01*
X121646Y206106D02*
X159757D01*
X163852Y210201D01*
X164483Y208232D02*
X171409D01*
X123575Y204295D02*
X160542D01*
X162242Y205995D01*
X162247D01*
X164483Y208232D01*
X202906Y191303D02*
Y196618D01*
X199695Y204670D02*
X206244Y198121D01*
X219244Y115978D02*
Y117287D01*
X216508Y132346D02*
X216641Y132213D01*
X165701Y134223D02*
X169667Y138189D01*
X169064Y129689D02*
X170431Y128322D01*
X169064Y129689D02*
Y134430D01*
X179874Y124774D02*
X180446Y124203D01*
X169064Y134430D02*
X171123Y136489D01*
X203559Y109797D02*
X204159Y110398D01*
X219815Y106854D02*
X224908Y101762D01*
X215701Y129509D02*
X217519Y131327D01*
X233417Y182051D02*
X234362Y181106D01*
X239244Y168272D02*
X241193Y170221D01*
X188592Y130022D02*
X188592Y130022D01*
X194244Y89525D02*
Y94059D01*
X238535Y184020D02*
X241193Y181362D01*
Y170221D02*
Y181362D01*
X167814Y176736D02*
X170492D01*
X169851Y146284D02*
X172707Y143429D01*
X174165D01*
X171123Y136489D02*
X176283D01*
X169667Y138189D02*
X175579D01*
X177553Y140164D01*
X177574D01*
X178218Y140808D01*
Y140828D01*
X176283Y136489D02*
X178258Y138464D01*
X178278D01*
X179918Y140104D01*
X179874Y124774D02*
Y137656D01*
X181618Y139400D01*
Y139420D01*
X179918Y140104D02*
Y140124D01*
X193063Y150865D02*
Y190516D01*
X178218Y140828D02*
X189126Y151736D01*
Y190516D01*
X179918Y140124D02*
X191095Y151301D01*
Y190516D01*
X181618Y139420D02*
X193063Y150865D01*
X180446Y115642D02*
Y124203D01*
X182433Y137760D02*
X194835Y150161D01*
X240898Y104051D02*
X242472Y105626D01*
X240898Y103705D02*
Y104051D01*
X225104Y70634D02*
X226905Y72435D01*
X214934Y80083D02*
X216997D01*
X182649Y102067D02*
X184778Y104196D01*
X173378Y85732D02*
X178728D01*
X178806Y85810D01*
X179302D01*
X180268Y86776D01*
X188339Y84599D02*
X189128Y83809D01*
X202558Y76539D02*
X211391D01*
X214934Y80083D01*
X174506Y153429D02*
X181764D01*
X187157Y158823D01*
X173615Y152539D02*
X174506Y153429D01*
X187157Y158823D02*
Y191303D01*
X243383Y161557D02*
Y184931D01*
X265547Y204098D02*
Y207601D01*
X268500Y210554D01*
Y220276D01*
X265547Y194577D02*
Y204098D01*
X150347Y209610D02*
X151921Y208035D01*
X149559Y210398D02*
X150347Y209610D01*
X166070Y230279D02*
X167364Y228986D01*
Y224920D02*
Y228986D01*
Y224920D02*
X168304Y223980D01*
X171409D01*
X210934Y219692D02*
Y221126D01*
X210386Y204295D02*
X215898D01*
X188142Y228785D02*
Y229167D01*
X196772Y225783D02*
Y229935D01*
X171409Y223980D02*
X178751D01*
X196608Y196618D02*
X197197D01*
X145669Y185556D02*
X146955Y184270D01*
X195031Y238972D02*
X196772Y240713D01*
X193979Y230083D02*
X194509D01*
X186766Y225752D02*
X196803D01*
X193063Y235791D02*
Y241158D01*
X198594Y231757D02*
X207927D01*
X185189Y235791D02*
X185189Y235791D01*
Y227329D02*
Y235791D01*
X208613Y214138D02*
X216685D01*
X195031Y190516D02*
Y193665D01*
X205956Y221126D02*
X206252D01*
X216488Y228114D02*
X216685Y227917D01*
X195031Y235791D02*
Y238972D01*
X197000Y232573D02*
Y235004D01*
X196803Y225752D02*
X200716D01*
X146409Y187256D02*
X147695Y185970D01*
X189126Y230151D02*
Y235791D01*
X191095D02*
Y240122D01*
X196772Y225783D02*
X196803Y225752D01*
X191685Y195859D02*
Y196618D01*
X212551Y218075D02*
X215898D01*
X193063Y190516D02*
X193256Y190322D01*
X200716Y225752D02*
X202881Y227917D01*
X163642Y202327D02*
X171409D01*
X188142Y229167D02*
X189126Y230151D01*
X190504Y240713D02*
X191095Y240122D01*
X207927Y231757D02*
X208811Y232641D01*
X200937Y190516D02*
Y195130D01*
X163852Y225181D02*
X167021Y222012D01*
X205661Y216501D02*
X206252Y215910D01*
X197197Y196618D02*
X197197Y196618D01*
X180801Y185970D02*
X181252Y186421D01*
X193654Y241749D02*
Y241894D01*
X205549Y206545D02*
X208136D01*
X210934Y219692D02*
X212551Y218075D01*
X202881Y227917D02*
X215898D01*
X197197Y196618D02*
X199448D01*
X196410Y245830D02*
X196803D01*
X208811Y232641D02*
Y235791D01*
X181857Y184270D02*
X183221Y185634D01*
X210976Y216106D02*
X215898D01*
X196772Y229935D02*
X198594Y231757D01*
X167021Y222012D02*
X171409D01*
X208136Y206545D02*
X210386Y204295D01*
X204776Y202327D02*
X216685D01*
X200740Y206362D02*
X204776Y202327D01*
X199448Y196618D02*
X200937Y195130D01*
X193063Y241158D02*
X193654Y241749D01*
X200740Y206362D02*
Y207248D01*
X192262Y196435D02*
X195031Y193665D01*
X193063Y190516D02*
Y191303D01*
X162946Y204295D02*
X171409D01*
X196772Y240713D02*
Y245468D01*
X194509Y230083D02*
X197000Y232573D01*
X189126Y190516D02*
Y191303D01*
X206842Y235791D02*
Y239307D01*
X193063Y229167D02*
Y230083D01*
X190504Y240713D02*
Y247406D01*
X179408Y240713D02*
X181252Y238869D01*
Y235791D02*
Y238869D01*
X180954Y241916D02*
X183221Y239650D01*
Y235791D02*
Y239650D01*
X180954Y241916D02*
X181055Y242017D01*
Y243075D01*
X204874Y235791D02*
Y240024D01*
X202906Y235791D02*
Y240909D01*
X234564Y72435D02*
X237158Y75028D01*
Y82512D01*
X242824Y88179D01*
X206842Y186972D02*
Y191303D01*
X191882Y290770D02*
X200937D01*
X205858Y285940D02*
Y290770D01*
X202906Y240909D02*
X204677Y242681D01*
Y244256D01*
X199672Y204670D02*
X199695D01*
X195745Y205742D02*
X198600D01*
X198623D01*
X198600D02*
X199672Y204670D01*
X112053Y256214D02*
Y265774D01*
X107587Y270240D02*
X112053Y265774D01*
Y256214D02*
X116840Y251427D01*
X84598Y255183D02*
Y262425D01*
X92413Y270240D01*
X107587D01*
X126444Y222488D02*
X129874Y219059D01*
X145031D01*
X156252Y230279D01*
X185189Y227329D02*
X186766Y225752D01*
X153994Y200543D02*
X155706Y202255D01*
X160906D01*
X162946Y204295D01*
X205539Y196421D02*
X207600D01*
X208811Y195210D01*
X98040Y225159D02*
Y225750D01*
Y226244D01*
X120195Y183856D02*
X120819Y183232D01*
X113394Y198895D02*
Y202521D01*
Y198895D02*
X114504Y197785D01*
X117064D01*
X120819Y183232D02*
X121443Y183856D01*
X144965D01*
X153231Y189138D02*
X154698Y187670D01*
X98040Y199891D02*
Y202521D01*
Y203112D01*
X183221Y185634D02*
Y191303D01*
X89621Y206658D02*
X90506Y205772D01*
X185189Y184807D02*
Y191303D01*
X158170Y176638D02*
Y179740D01*
X174165Y163429D02*
Y166517D01*
X167124Y170831D02*
X169851Y168104D01*
Y146284D02*
Y168104D01*
X120819Y186776D02*
X121784Y185810D01*
X121887D01*
X122141Y185556D01*
X145669D01*
X222902Y70634D02*
X225104D01*
X242824Y88179D02*
X243568Y87435D01*
X236764Y198600D02*
X236764Y198600D01*
X237158Y193468D02*
Y194256D01*
Y203128D01*
X235989Y199374D02*
X236764Y198600D01*
X235595Y198980D02*
X235989Y199374D01*
X240732Y194047D02*
Y196213D01*
X230858Y193947D02*
X231805Y193000D01*
X216685Y196154D02*
Y198390D01*
X208811Y185004D02*
X212179D01*
X206244Y198121D02*
X210722D01*
X216094Y192749D01*
Y185221D02*
Y192749D01*
Y185221D02*
X219264Y182051D01*
X233417D01*
X216685Y196154D02*
X218063Y194776D01*
Y186213D02*
Y194776D01*
Y186213D02*
X220256Y184020D01*
X238535D01*
X253872Y240498D02*
X254614Y241240D01*
X243063Y218764D02*
Y221545D01*
X243752Y222234D01*
X246699D01*
X249372Y224907D01*
X250117D01*
X239134Y225480D02*
Y227547D01*
X262221Y217386D02*
X265547D01*
X262039Y217204D02*
X262221Y217386D01*
X265449Y226146D02*
X265547Y226047D01*
X262000Y226146D02*
X265449D01*
X262039Y234527D02*
X265365D01*
X265547Y234709D01*
X204874Y240024D02*
X207600Y242750D01*
Y247141D01*
X205956Y221126D02*
X210976Y216106D01*
X206842Y239307D02*
X212579Y245043D01*
X211666Y239058D02*
X215982Y243374D01*
X221317D01*
X225892Y247948D01*
X212579Y245043D02*
X215247D01*
X215277Y245074D01*
X220018D01*
X223969Y249024D01*
X262039Y212873D02*
X265365D01*
X265547Y213055D01*
X183124Y199459D02*
X200064D01*
X202906Y196618D01*
X200619Y201342D02*
X205539Y196421D01*
X172197Y198390D02*
X179579D01*
X182531Y201342D01*
X200619D01*
X178751Y223980D02*
X180638Y222094D01*
X171409Y225949D02*
X178100D01*
X179480Y227329D01*
X146606Y190516D02*
X148288Y192198D01*
X153191D01*
X137551Y192989D02*
X138973Y194411D01*
X125191Y174866D02*
X128351D01*
X125093Y174965D02*
X125191Y174866D01*
X128244Y187256D02*
X146409D01*
X125191Y190309D02*
X128244Y187256D01*
X181252Y186421D02*
Y191303D01*
X208417Y172642D02*
X209205Y173429D01*
X194835Y150161D02*
Y166303D01*
X204874Y181854D02*
X209402Y177327D01*
X212179Y183746D02*
Y185004D01*
X209795Y181362D02*
X212179Y183746D01*
X236000Y173684D02*
Y175854D01*
Y173684D02*
X237641Y172043D01*
X200937Y153429D02*
X209205D01*
X203115Y143429D02*
X209205D01*
X200937Y145607D02*
X203115Y143429D01*
X200937Y145607D02*
X201134Y145804D01*
X244089Y72435D02*
X249834D01*
X240504Y76020D02*
X244089Y72435D01*
X177531Y105807D02*
X179087D01*
Y104304D02*
Y105807D01*
Y104304D02*
X180446Y102945D01*
Y96520D02*
Y102945D01*
X194244Y99965D02*
Y100274D01*
X197984Y104014D01*
X176724Y125842D02*
Y132839D01*
Y125842D02*
X177209Y125358D01*
X152068Y143020D02*
X156197D01*
X160592Y147415D01*
X161113D01*
Y147514D02*
X166231D01*
X163069Y143429D02*
X172707D01*
X184992Y248538D02*
X185189Y248734D01*
X184992Y246618D02*
Y248538D01*
X118851Y117593D02*
X119860D01*
X120852Y118584D01*
Y121592D01*
X93183Y113439D02*
X96409D01*
X231264Y139380D02*
X231337Y139453D01*
X202709Y129295D02*
Y134807D01*
X150854Y133994D02*
X152823Y132026D01*
X156461Y134737D02*
X160051D01*
X160564Y134224D01*
X165701Y128311D02*
Y134223D01*
X165463Y128261D02*
X165479Y128187D01*
X165701D01*
X163058Y143418D02*
X163069Y143429D01*
X162157Y143418D02*
X163058D01*
X112157Y189335D02*
X116135D01*
X271607Y194534D02*
X273994D01*
X271410Y199374D02*
X272394D01*
X273969Y197799D01*
X205661Y216501D02*
X206251D01*
X260519Y249727D02*
X263339D01*
X260519Y244961D02*
X263339D01*
X262827Y266996D02*
X262945Y267113D01*
Y270240D01*
X259033Y282445D02*
X261852D01*
X259230Y277023D02*
X259320Y276933D01*
X261764D01*
X246311Y288548D02*
X249130D01*
X243752Y296619D02*
Y299439D01*
X238634Y296619D02*
Y299439D01*
X218411Y290615D02*
X221231D01*
X218411Y281919D02*
X225892Y274438D01*
Y247948D02*
Y274438D01*
X241290Y268665D02*
X241290Y268666D01*
X238142Y268665D02*
X241290D01*
X243259Y272209D02*
X243260Y272210D01*
X238142Y272209D02*
X243259D01*
X191882Y283621D02*
Y286440D01*
X219008Y320433D02*
X219165Y320590D01*
Y324413D01*
X103516Y320433D02*
Y324256D01*
X90701Y290488D02*
X90898Y290291D01*
Y287563D02*
Y290291D01*
X78693Y292287D02*
X78862Y292456D01*
X83220D01*
X29985Y318519D02*
Y322342D01*
X187157Y235791D02*
Y239531D01*
X188535Y240909D01*
Y245043D01*
X186961Y246618D02*
X188535Y245043D01*
X184992Y246618D02*
X186961D01*
X185189Y248734D02*
X186961Y246963D01*
Y246618D02*
Y246963D01*
X138973Y194411D02*
X154816D01*
X157039Y180870D02*
X158170Y179740D01*
X146251Y182570D02*
X182952D01*
X146955Y184270D02*
X181857D01*
X147695Y185970D02*
X180801D01*
X154698Y187670D02*
X175650D01*
X153191Y192198D02*
X155692Y189698D01*
X173362D01*
X183124Y199459D01*
X154816Y194411D02*
X156545Y192681D01*
X164304D01*
X165091Y193468D01*
X160394Y199079D02*
X163642Y202327D01*
X159394Y199079D02*
X160394D01*
D18*
X161484Y163020D02*
X161484Y163020D01*
D19*
X233983Y227109D02*
Y250341D01*
X231055Y245194D02*
Y279969D01*
X227906Y231658D02*
X231055D01*
X221500Y226500D02*
X222354D01*
X165091Y236227D02*
Y238744D01*
X252000Y229167D02*
X253049D01*
X253708Y228508D01*
X215898Y208232D02*
X221169D01*
X255369Y217767D02*
Y226848D01*
X253102Y215500D02*
X255369Y217767D01*
X253102Y199133D02*
Y215500D01*
X215898Y206264D02*
X221016D01*
X257000Y217262D02*
Y242783D01*
X254602Y214864D02*
X257000Y217262D01*
X254602Y198512D02*
Y214864D01*
X253708Y228508D02*
X255369Y226848D01*
X257000Y247139D02*
Y247549D01*
Y247139D02*
X257189Y246950D01*
Y242972D02*
Y246950D01*
X257000Y242783D02*
X257189Y242972D01*
X257000Y251904D02*
Y252257D01*
Y251904D02*
X257189Y251716D01*
Y247738D02*
Y251716D01*
X257000Y247549D02*
X257189Y247738D01*
X257003Y256610D02*
X260207Y259814D01*
X257003Y256610D02*
X257189Y256424D01*
Y252446D02*
Y256424D01*
X257000Y252257D02*
X257189Y252446D01*
X241193Y286850D02*
Y288548D01*
X233983Y279640D02*
X241193Y286850D01*
X233983Y260666D02*
Y279640D01*
X238634Y287547D02*
Y288548D01*
X231055Y279969D02*
X238634Y287547D01*
X231055Y231658D02*
Y239094D01*
X230500Y239650D02*
X231055Y239094D01*
X230500Y239650D02*
Y244639D01*
X231055Y245194D01*
X237625Y230398D02*
X249284D01*
X235836Y232187D02*
X237625Y230398D01*
X235836Y232187D02*
Y236290D01*
X249284Y230398D02*
X252315Y233429D01*
X225251Y190310D02*
X229061Y186500D01*
X229682Y188000D02*
X241969D01*
X226751Y190931D02*
X229682Y188000D01*
X229061Y186500D02*
X242590D01*
X241969Y188000D02*
X253102Y199133D01*
X242590Y186500D02*
X254602Y198512D01*
X225251Y190310D02*
Y190344D01*
X225150Y190445D02*
X225251Y190344D01*
X226751Y190931D02*
Y193775D01*
X225150Y190445D02*
Y194295D01*
X223000Y214586D02*
Y214965D01*
Y214586D02*
X223213Y214373D01*
X222409Y213570D02*
X223213Y214373D01*
X222409Y213570D02*
X223000Y212980D01*
X231055Y228785D02*
Y231658D01*
X232232Y225358D02*
X233983Y227109D01*
X239126Y211185D02*
X240110D01*
X243063D01*
X240929Y200235D02*
X241834D01*
X241094Y199459D02*
Y203606D01*
X227905Y225358D02*
X232232D01*
X247689Y201881D02*
X250937D01*
X247689D02*
Y206264D01*
Y198600D02*
X247984D01*
X244715Y238529D02*
X244715D01*
X235836Y236290D02*
X241087D01*
X241566Y236769D01*
Y238529D01*
X235836Y247757D02*
X236451Y248372D01*
X238022D01*
X235836Y236290D02*
Y247757D01*
X233983Y250341D02*
X239991D01*
X241566D02*
Y253602D01*
X236891Y255392D02*
X239776D01*
X241566Y253602D01*
X239211Y234020D02*
X241193D01*
X243141Y235967D01*
Y238529D01*
X247865Y236791D02*
Y238529D01*
Y236791D02*
X249383Y235273D01*
X244715Y236394D02*
Y238529D01*
Y236394D02*
X245425Y235684D01*
Y234020D02*
Y235684D01*
X241290Y261364D02*
Y262367D01*
X240593Y260666D02*
X241290Y261364D01*
X253102Y270241D02*
X259009D01*
X260207Y269043D01*
Y259814D02*
Y269043D01*
X253102Y263942D02*
X255111D01*
X257080Y261972D01*
X233983Y260666D02*
X240593D01*
X233983Y250341D02*
Y260666D01*
X241193Y296619D02*
Y301976D01*
X241193Y301976D01*
X243752Y285176D02*
Y288548D01*
X251133Y272210D02*
Y276951D01*
X251205Y277023D01*
X249283D02*
X251205D01*
X253128D01*
X246311Y294453D02*
Y296619D01*
Y294453D02*
X251134D01*
X256252D01*
X241193Y295122D02*
Y296619D01*
Y295122D02*
X241862Y294453D01*
X246311D01*
X243383Y284807D02*
X243752Y285176D01*
X243383Y282445D02*
Y284807D01*
X253128Y277023D02*
Y282445D01*
X245031Y216106D02*
X247689D01*
X232531D02*
X235189D01*
X240110Y211185D01*
X243481Y214555D02*
X245031Y216106D01*
X250347Y265517D02*
X253102D01*
X252315Y233429D02*
Y240498D01*
X249834D02*
X252315D01*
X243063Y203606D02*
Y208035D01*
X230858Y193947D02*
Y194256D01*
X239126Y203606D02*
Y211185D01*
X243063Y208035D02*
Y211185D01*
X247689Y198600D02*
Y201881D01*
X230858Y194256D02*
X230858Y194256D01*
X230858Y194256D02*
Y203592D01*
X230873Y203606D01*
X226765Y193789D02*
Y193789D01*
X251397Y219179D02*
Y221336D01*
X251406Y221344D01*
X252315Y240498D02*
X253872D01*
X245360Y225358D02*
Y227425D01*
X189988Y264146D02*
Y264344D01*
X222394Y237563D02*
Y239531D01*
X200799Y288741D02*
Y290812D01*
X217295Y235579D02*
Y237744D01*
X196803Y265909D02*
X201334D01*
X201470Y265774D01*
X206252Y256461D02*
X212551D01*
X216685Y225949D02*
X221803D01*
X166076Y200358D02*
X171409D01*
X165091Y199374D02*
X166076Y200358D01*
X171409D02*
X176331D01*
X177905Y201933D01*
X134205Y215516D02*
X136370D01*
Y210398D02*
X138535D01*
X160189Y235988D02*
Y238505D01*
X165049Y236185D02*
X165091Y236227D01*
X221016Y206264D02*
X225150Y202130D01*
Y194497D02*
Y202130D01*
X221169Y208232D02*
X226751Y202650D01*
Y193804D02*
Y202650D01*
X238142Y263942D02*
X241290D01*
X237549Y263348D02*
Y263348D01*
Y263348D02*
X238142Y263941D01*
X238142Y263942D01*
X246290Y238529D02*
Y250340D01*
X246290Y250341D01*
Y255057D01*
D41*
X166900Y101209D02*
D03*
X149100D02*
D03*
D42*
X249295Y72635D02*
D03*
Y77635D02*
D03*
Y82635D02*
D03*
X228823Y72635D02*
D03*
Y82635D02*
D03*
X249295Y87635D02*
D03*
Y92635D02*
D03*
Y97635D02*
D03*
X228823Y92635D02*
D03*
Y97635D02*
D03*
Y102635D02*
D03*
X249295D02*
D03*
X228823Y87635D02*
D03*
Y107635D02*
D03*
X249295D02*
D03*
X228823Y77635D02*
D03*
D43*
X97209Y343400D02*
D03*
X85791D02*
D03*
D44*
X208811Y235791D02*
D03*
X206842D02*
D03*
X204874D02*
D03*
X202906D02*
D03*
X200937D02*
D03*
X198969D02*
D03*
X197000D02*
D03*
X195031D02*
D03*
X193063D02*
D03*
X191095D02*
D03*
X189126D02*
D03*
X187157D02*
D03*
X185189D02*
D03*
X183221D02*
D03*
X181252D02*
D03*
X179283D02*
D03*
Y190516D02*
D03*
X181252D02*
D03*
X183221D02*
D03*
X185189D02*
D03*
X187157D02*
D03*
X189126D02*
D03*
X191095D02*
D03*
X193063D02*
D03*
X195031D02*
D03*
X197000D02*
D03*
X198969D02*
D03*
X200937D02*
D03*
X202906D02*
D03*
X204874D02*
D03*
X206842D02*
D03*
X208811D02*
D03*
D45*
X171409Y227917D02*
D03*
Y225949D02*
D03*
Y223980D02*
D03*
Y222012D02*
D03*
Y220043D02*
D03*
Y218075D02*
D03*
Y216106D02*
D03*
Y214138D02*
D03*
Y212169D02*
D03*
Y210201D02*
D03*
Y208232D02*
D03*
Y206264D02*
D03*
Y204295D02*
D03*
Y202327D02*
D03*
Y200358D02*
D03*
Y198390D02*
D03*
X216685D02*
D03*
Y200358D02*
D03*
Y202327D02*
D03*
Y204295D02*
D03*
Y206264D02*
D03*
Y208232D02*
D03*
Y210201D02*
D03*
Y216106D02*
D03*
Y218075D02*
D03*
Y220043D02*
D03*
Y222012D02*
D03*
Y223980D02*
D03*
Y225949D02*
D03*
Y227917D02*
D03*
Y212169D02*
D03*
Y214138D02*
D03*
D46*
X162453Y318661D02*
D03*
Y321220D02*
D03*
Y323780D02*
D03*
Y326339D02*
D03*
X149067Y318661D02*
D03*
Y321220D02*
D03*
Y323780D02*
D03*
Y326339D02*
D03*
D47*
X124000Y295437D02*
D03*
Y304886D02*
D03*
X116543Y295535D02*
D03*
Y304984D02*
D03*
D48*
X137000Y105235D02*
D03*
Y87435D02*
D03*
X109500Y103900D02*
D03*
Y86100D02*
D03*
D49*
X103500Y128386D02*
D03*
X105468D02*
D03*
X107437D02*
D03*
X109406D02*
D03*
X111374D02*
D03*
Y140000D02*
D03*
X109406D02*
D03*
X107437D02*
D03*
X105468D02*
D03*
X103500D02*
D03*
X146917Y128187D02*
D03*
X148886D02*
D03*
X150854D02*
D03*
X152823D02*
D03*
X154791D02*
D03*
Y139802D02*
D03*
X152823D02*
D03*
X150854D02*
D03*
X148886D02*
D03*
X146917D02*
D03*
D50*
X137650Y190516D02*
D03*
X143358D02*
D03*
X235293Y303311D02*
D03*
X241001D02*
D03*
X243482Y282445D02*
D03*
X249190D02*
D03*
X243476Y277023D02*
D03*
X249185D02*
D03*
X257020Y266996D02*
D03*
X262729D02*
D03*
X253226Y282445D02*
D03*
X258935D02*
D03*
X253226Y277023D02*
D03*
X258935D02*
D03*
X233354Y241997D02*
D03*
X227646D02*
D03*
X260421Y254435D02*
D03*
X254713D02*
D03*
X254712Y244961D02*
D03*
X260421D02*
D03*
X254712Y249727D02*
D03*
X260421D02*
D03*
X236665Y194256D02*
D03*
X230957D02*
D03*
X236665Y198600D02*
D03*
X230957D02*
D03*
X194146Y89525D02*
D03*
X188437D02*
D03*
X218482Y110556D02*
D03*
X212773D02*
D03*
X217095Y81083D02*
D03*
X222804D02*
D03*
X265646Y234709D02*
D03*
X271354D02*
D03*
X265646Y213055D02*
D03*
X271354D02*
D03*
X265646Y217386D02*
D03*
X271354D02*
D03*
X265646Y226047D02*
D03*
X271354D02*
D03*
X222804Y76358D02*
D03*
X217095D02*
D03*
X222804Y71634D02*
D03*
X217095D02*
D03*
X265602Y194534D02*
D03*
X271311D02*
D03*
X265602Y199374D02*
D03*
X271311D02*
D03*
X259862Y113854D02*
D03*
X265570D02*
D03*
X180054Y115909D02*
D03*
X174346D02*
D03*
X176823Y132839D02*
D03*
X182531D02*
D03*
X138634Y121500D02*
D03*
X132925D02*
D03*
X133146Y113500D02*
D03*
X138854D02*
D03*
X142177Y210398D02*
D03*
X136469D02*
D03*
X174639Y96520D02*
D03*
X180347D02*
D03*
X142177Y215516D02*
D03*
X136469D02*
D03*
X93085Y113439D02*
D03*
X87376D02*
D03*
X116783Y139807D02*
D03*
X122492D02*
D03*
X126346Y225159D02*
D03*
X120637D02*
D03*
X82728Y227917D02*
D03*
X88437D02*
D03*
X218467Y284020D02*
D03*
X224176D02*
D03*
X155366Y309413D02*
D03*
X161075D02*
D03*
X155315Y303508D02*
D03*
X161024D02*
D03*
D51*
X128351Y180575D02*
D03*
Y174866D02*
D03*
X242500Y154965D02*
D03*
Y160673D02*
D03*
X256252Y294551D02*
D03*
Y300260D02*
D03*
X251134Y294551D02*
D03*
Y300260D02*
D03*
X227906Y231756D02*
D03*
Y237465D02*
D03*
X239134Y233354D02*
D03*
Y227646D02*
D03*
X240732Y199854D02*
D03*
Y194146D02*
D03*
X251397Y224986D02*
D03*
Y219278D02*
D03*
X245360Y233232D02*
D03*
Y227524D02*
D03*
X212500Y116383D02*
D03*
Y122091D02*
D03*
X223969Y117386D02*
D03*
Y123094D02*
D03*
X219244Y117386D02*
D03*
Y123094D02*
D03*
X231337Y133646D02*
D03*
Y139354D02*
D03*
X245500Y133635D02*
D03*
Y139343D02*
D03*
X164085Y170929D02*
D03*
Y176638D02*
D03*
X171561Y128223D02*
D03*
Y122515D02*
D03*
X205858Y290869D02*
D03*
Y296578D02*
D03*
X165701Y128213D02*
D03*
Y122504D02*
D03*
X168000Y108682D02*
D03*
Y114391D02*
D03*
X182649Y296578D02*
D03*
Y290869D02*
D03*
X231000Y287500D02*
D03*
Y293209D02*
D03*
X166231Y153222D02*
D03*
Y147514D02*
D03*
X161113Y147514D02*
D03*
Y153222D02*
D03*
X156000Y153854D02*
D03*
Y148146D02*
D03*
X122830Y153222D02*
D03*
Y147514D02*
D03*
X117712D02*
D03*
Y153222D02*
D03*
X112594D02*
D03*
Y147514D02*
D03*
X160500Y139354D02*
D03*
Y133646D02*
D03*
X84205Y206559D02*
D03*
Y200850D02*
D03*
X84214Y191795D02*
D03*
Y197504D02*
D03*
X112157Y195142D02*
D03*
Y189433D02*
D03*
X101528D02*
D03*
Y195142D02*
D03*
X29985Y306756D02*
D03*
Y301047D02*
D03*
X185189Y242927D02*
D03*
Y248636D02*
D03*
X223000Y212881D02*
D03*
Y218590D02*
D03*
X165049Y230378D02*
D03*
Y236087D02*
D03*
X212179Y190811D02*
D03*
Y185102D02*
D03*
X165500Y193646D02*
D03*
Y199354D02*
D03*
X200799Y296619D02*
D03*
Y290911D02*
D03*
X217295Y231937D02*
D03*
Y237646D02*
D03*
X160189Y230378D02*
D03*
Y236087D02*
D03*
X222394Y231756D02*
D03*
Y237465D02*
D03*
X219638Y264218D02*
D03*
Y258509D02*
D03*
X189988Y258537D02*
D03*
Y264245D02*
D03*
X169500Y325984D02*
D03*
Y320276D02*
D03*
X208811Y338888D02*
D03*
Y344597D02*
D03*
X76000Y333354D02*
D03*
Y327646D02*
D03*
D52*
X234835Y147286D02*
D03*
X248221D02*
D03*
X189183Y129546D02*
D03*
X202569D02*
D03*
D53*
X272000Y207000D02*
D03*
X266000D02*
D03*
D54*
X83220Y296393D02*
D03*
Y294425D02*
D03*
Y292456D02*
D03*
Y290488D02*
D03*
X90701D02*
D03*
Y292456D02*
D03*
Y294425D02*
D03*
Y296393D02*
D03*
D55*
X72000Y301300D02*
D03*
Y314700D02*
D03*
D56*
X104500Y320272D02*
D03*
X84500D02*
D03*
X198500D02*
D03*
X218500D02*
D03*
D57*
X104500Y333272D02*
D03*
X84500D02*
D03*
X198500D02*
D03*
X218500D02*
D03*
D58*
X273451Y267091D02*
D03*
Y253705D02*
D03*
D59*
X113710Y237957D02*
D03*
X127110D02*
D03*
X100200Y238000D02*
D03*
X86800D02*
D03*
D60*
X256744Y201881D02*
D03*
X251035D02*
D03*
D61*
X266094Y101959D02*
D03*
Y99991D02*
D03*
Y98022D02*
D03*
Y96054D02*
D03*
Y94085D02*
D03*
Y92117D02*
D03*
Y90148D02*
D03*
Y88180D02*
D03*
Y86211D02*
D03*
Y84243D02*
D03*
Y82274D02*
D03*
Y80306D02*
D03*
X272630D02*
D03*
Y82274D02*
D03*
Y84243D02*
D03*
Y86211D02*
D03*
Y88180D02*
D03*
Y90148D02*
D03*
Y92117D02*
D03*
Y94085D02*
D03*
Y96054D02*
D03*
Y98022D02*
D03*
Y99991D02*
D03*
Y101959D02*
D03*
D62*
X154087Y85732D02*
D03*
Y90732D02*
D03*
X173378Y85732D02*
D03*
X154087Y75732D02*
D03*
Y80732D02*
D03*
D63*
X164220Y162760D02*
D03*
X152220D02*
D03*
X132755Y162760D02*
D03*
X144755D02*
D03*
X136587Y150924D02*
D03*
X148587D02*
D03*
X156000Y117500D02*
D03*
X144000D02*
D03*
X93185Y150924D02*
D03*
X105185D02*
D03*
X123761Y162760D02*
D03*
X111761D02*
D03*
X93165D02*
D03*
X105165D02*
D03*
X113886Y117292D02*
D03*
X101886D02*
D03*
D64*
X87525Y120240D02*
D03*
X93430D02*
D03*
X271597Y114121D02*
D03*
X277502D02*
D03*
X170922Y303508D02*
D03*
X165017D02*
D03*
X170949Y309413D02*
D03*
X165044D02*
D03*
D65*
X243260Y260398D02*
D03*
X244834D02*
D03*
X246410D02*
D03*
X247983D02*
D03*
X249558D02*
D03*
X251133D02*
D03*
Y272210D02*
D03*
X249558D02*
D03*
X247983D02*
D03*
X246410D02*
D03*
X244834D02*
D03*
X243260D02*
D03*
X239991Y238529D02*
D03*
X241566D02*
D03*
X243141D02*
D03*
X244715D02*
D03*
X246290D02*
D03*
X247865D02*
D03*
Y250341D02*
D03*
X246290D02*
D03*
X244715D02*
D03*
X243141D02*
D03*
X241566D02*
D03*
X239991D02*
D03*
D66*
X253102Y262367D02*
D03*
Y263942D02*
D03*
Y265517D02*
D03*
Y267091D02*
D03*
Y268666D02*
D03*
Y270241D02*
D03*
X241290D02*
D03*
Y268666D02*
D03*
Y267091D02*
D03*
Y265517D02*
D03*
Y263942D02*
D03*
Y262367D02*
D03*
X238022Y248372D02*
D03*
Y246797D02*
D03*
Y245222D02*
D03*
Y243648D02*
D03*
Y242073D02*
D03*
Y240498D02*
D03*
X249834D02*
D03*
Y242073D02*
D03*
Y243648D02*
D03*
Y245222D02*
D03*
Y246797D02*
D03*
Y248372D02*
D03*
D67*
X232531Y216106D02*
D03*
Y214138D02*
D03*
Y212169D02*
D03*
Y210201D02*
D03*
Y208232D02*
D03*
Y206264D02*
D03*
X247689D02*
D03*
Y208232D02*
D03*
Y210201D02*
D03*
Y212169D02*
D03*
Y214138D02*
D03*
Y216106D02*
D03*
D68*
X235189Y203606D02*
D03*
X237158D02*
D03*
X239126D02*
D03*
X241094D02*
D03*
X243063D02*
D03*
X245031D02*
D03*
Y218764D02*
D03*
X243063D02*
D03*
X241094D02*
D03*
X239126D02*
D03*
X237158D02*
D03*
X235189D02*
D03*
D69*
X89736Y138670D02*
D03*
Y129370D02*
D03*
X133138Y138670D02*
D03*
Y129370D02*
D03*
D70*
X120852Y121592D02*
D03*
X128351D02*
D03*
D71*
X124601Y113593D02*
D03*
D72*
X216000Y175854D02*
D03*
X221000D02*
D03*
X226000D02*
D03*
X231000D02*
D03*
X236000D02*
D03*
Y160500D02*
D03*
X231000D02*
D03*
X226000D02*
D03*
X221000D02*
D03*
X216000D02*
D03*
D73*
X191882Y286440D02*
D03*
X191882Y296676D02*
D03*
X195622D02*
D03*
X188142Y286440D02*
D03*
X195622D02*
D03*
X188142Y296676D02*
D03*
D75*
X196803Y265909D02*
D03*
X212551D02*
D03*
X196803Y256461D02*
D03*
X212551D02*
D03*
D76*
X115953Y225750D02*
D03*
X113394D02*
D03*
X110835D02*
D03*
X108276D02*
D03*
X105717D02*
D03*
X103158D02*
D03*
X100599D02*
D03*
X98040D02*
D03*
X115953Y202521D02*
D03*
X113394D02*
D03*
X110835D02*
D03*
X108276D02*
D03*
X105717D02*
D03*
X103158D02*
D03*
X100599D02*
D03*
X98040D02*
D03*
D77*
X106996Y214135D02*
D03*
D79*
X172413Y102067D02*
D03*
X182649Y109547D02*
D03*
Y102067D02*
D03*
X172413Y109547D02*
D03*
Y105807D02*
D03*
X182649Y105807D02*
D03*
D80*
X218411Y288056D02*
D03*
Y290615D02*
D03*
Y293174D02*
D03*
X225892D02*
D03*
Y288056D02*
D03*
D81*
X90898Y201933D02*
D03*
Y196028D02*
D03*
X29985Y312613D02*
D03*
Y318519D02*
D03*
X194244Y99965D02*
D03*
Y94059D02*
D03*
D82*
X203559Y117297D02*
D03*
Y109797D02*
D03*
X216641Y139713D02*
D03*
Y132213D02*
D03*
D83*
X195559Y113547D02*
D03*
X224641Y135963D02*
D03*
D84*
X245425Y125752D02*
D03*
X230858D02*
D03*
D85*
X173378Y75732D02*
D03*
Y80732D02*
D03*
Y90732D02*
D03*
D86*
X209205Y143429D02*
D03*
X174165D02*
D03*
X209205Y153429D02*
D03*
X174165D02*
D03*
X209205Y163429D02*
D03*
X174165D02*
D03*
X209205Y173429D02*
D03*
X174165D02*
D03*
D87*
X243752Y296619D02*
D03*
X246311D02*
D03*
X238634D02*
D03*
X241193D02*
D03*
Y288548D02*
D03*
X238634D02*
D03*
X246311D02*
D03*
X243752D02*
D03*
D88*
X98184Y263154D02*
D03*
X95624D02*
D03*
X93065D02*
D03*
X90506D02*
D03*
X98184Y249768D02*
D03*
X95624D02*
D03*
X93065D02*
D03*
X90506D02*
D03*
D157*
X107437Y133996D02*
D03*
X150854Y133994D02*
D03*
D158*
X86961Y293440D02*
D03*
D159*
X240110Y211185D02*
D03*
D160*
X191882Y291558D02*
D03*
D161*
X177531Y105807D02*
D03*
D162*
X155071Y149768D02*
X157433D01*
X97228Y342681D02*
Y353273D01*
X92079Y295437D02*
Y298587D01*
X92000Y299400D02*
Y304440D01*
X87722Y300161D02*
X92000Y304440D01*
X87722Y300161D02*
X90504D01*
X148587Y162760D02*
Y163012D01*
Y150924D02*
Y162760D01*
X148295Y150924D02*
X149451Y149768D01*
X118562Y160398D02*
Y162760D01*
Y160398D02*
X122499D01*
X118562Y162760D02*
Y165193D01*
Y165248D02*
X122963D01*
X118562Y162760D02*
X123470D01*
X149451Y149768D02*
X152709D01*
X133046Y162760D02*
X137954D01*
X133553Y165248D02*
X137954D01*
X134017Y160398D02*
X137954D01*
Y162760D01*
Y165193D01*
X273451Y267091D02*
Y269311D01*
X92000Y299400D02*
X92446Y298954D01*
X123891Y237853D02*
Y240122D01*
Y235584D02*
Y237853D01*
X161764Y160327D02*
X166231Y155859D01*
X161484Y165382D02*
X165421D01*
X161484Y163020D02*
Y165382D01*
X166231Y153222D02*
Y155859D01*
X161764Y160327D02*
Y162760D01*
X53850Y244435D02*
X63850D01*
X92079Y298587D02*
X92446Y298954D01*
X43811Y234435D02*
X63850D01*
X43811Y224435D02*
X63850D01*
X43811Y214435D02*
X63850D01*
X43811Y154435D02*
X63850D01*
X43811Y164435D02*
X63850D01*
X43811Y184435D02*
X63850D01*
X43811Y194435D02*
X63850D01*
X43811Y114435D02*
X63850D01*
X43811Y124435D02*
X63850D01*
X43811Y134435D02*
X63850D01*
X43811Y144435D02*
X63850D01*
X43811Y74435D02*
X63850D01*
X43811Y84435D02*
X63850D01*
X43811Y94435D02*
X63850D01*
X97000Y353500D02*
X97228Y353273D01*
X53890Y264435D02*
Y289501D01*
X68488Y304098D01*
X71213D01*
X43811Y104435D02*
X53831D01*
X63850D01*
X43811Y174435D02*
X53831D01*
X63850D01*
X43811Y204435D02*
X53831D01*
X63850D01*
X71606Y303902D02*
X79243D01*
X82196Y300949D01*
Y295410D02*
Y300949D01*
X90504Y300161D02*
X92079Y298587D01*
X43811Y244435D02*
X53850D01*
X137385Y153412D02*
X141786D01*
X137849Y148561D02*
X141786D01*
X136878Y150924D02*
X141786D01*
X141786Y148561D02*
Y150924D01*
Y153357D01*
X98365Y162760D02*
Y165193D01*
Y160398D02*
Y162760D01*
X93457Y162760D02*
X98365D01*
X94428Y160398D02*
X98365D01*
X93964Y165248D02*
X98365D01*
X98384Y150924D02*
Y153357D01*
Y148561D02*
Y150924D01*
X93476Y150924D02*
X98384D01*
X94447Y148561D02*
X98384D01*
X93984Y153412D02*
X98384D01*
X152709Y149768D02*
X155071D01*
D163*
X149025Y148411D02*
X156434D01*
X208790Y338909D02*
X212945Y343063D01*
X203315Y333433D02*
X208790Y338909D01*
X76000Y333433D02*
X83516D01*
X212945Y343063D02*
Y357555D01*
X199008Y333433D02*
X203315D01*
X177039Y323209D02*
Y328500D01*
X199165Y296676D02*
X200937D01*
X235288D02*
Y303311D01*
X205858Y296676D02*
X235131D01*
X197197D02*
X199165D01*
X170922Y309413D02*
Y314422D01*
X132439Y253705D02*
X141685Y244459D01*
Y221815D02*
Y244459D01*
X235288Y291970D02*
Y296676D01*
X201470D02*
X205858D01*
X195622Y297799D02*
X196409Y297012D01*
X195791Y296676D02*
X197197D01*
X216488Y231658D02*
X222394D01*
X177039Y333039D02*
X190138Y346138D01*
X170922Y303508D02*
Y309413D01*
X171561Y116842D02*
Y122416D01*
X121646Y288000D02*
X125000D01*
Y278000D02*
X127916D01*
X130772Y280856D01*
Y292875D01*
X128210Y295437D02*
X130772Y292875D01*
X124000Y295437D02*
X128210D01*
X168457Y321220D02*
X169500Y320177D01*
X162453Y321220D02*
X168457D01*
X177039Y333039D02*
Y333583D01*
Y328500D02*
Y333039D01*
Y320539D02*
Y323209D01*
X146472Y346138D02*
X164485D01*
X142177Y341843D02*
X146472Y346138D01*
X142177Y323538D02*
Y341843D01*
X164485Y346138D02*
X177039Y333583D01*
X123902Y304598D02*
Y304984D01*
X155500Y318500D02*
Y322342D01*
X135000Y298000D02*
X155500Y318500D01*
X130500Y298000D02*
X135000D01*
X149067Y315572D02*
Y318661D01*
X141137Y307642D02*
X149067Y315572D01*
X139716Y307642D02*
X141137D01*
X155200Y314700D02*
X160000D01*
X148587Y308087D02*
X155200Y314700D01*
X148587Y307457D02*
Y308087D01*
X170922Y314422D02*
X177039Y320539D01*
X142177Y323538D02*
X144495Y321220D01*
X149067D01*
X123902Y304598D02*
X130500Y298000D01*
X155500Y322342D02*
X156938Y323780D01*
X162453D01*
X123902Y304984D02*
X124000Y304886D01*
X116543Y304984D02*
X123902D01*
X116543Y293102D02*
X121646Y288000D01*
X116543Y293102D02*
Y295535D01*
X110000Y291591D02*
Y313500D01*
Y291591D02*
X113591Y288000D01*
X121646D01*
X162453Y317153D02*
Y318661D01*
X160000Y314700D02*
X162453Y317153D01*
X138535Y297406D02*
X148587Y307457D01*
X133811Y301736D02*
X139716Y307642D01*
X149067Y326339D02*
Y331556D01*
X147039Y333583D02*
X149067Y331556D01*
X158635Y326339D02*
X162453D01*
X157039Y327934D02*
X158635Y326339D01*
X157039Y327934D02*
Y333583D01*
X73181Y213766D02*
Y214435D01*
X94201Y231264D02*
X94988Y230476D01*
X94201Y231264D02*
Y233528D01*
X71606Y324571D02*
Y343430D01*
Y324571D02*
X75744Y320433D01*
X71606Y343430D02*
X91723Y363547D01*
X117709Y253705D02*
X132439D01*
X168744Y72602D02*
X170860D01*
X173899D02*
X175089D01*
X173551Y72951D02*
X173899Y72602D01*
X171208Y72951D02*
X173551D01*
X170860Y72602D02*
X171208Y72951D01*
X68850Y219435D02*
X73850Y224435D01*
X33850D02*
X38850Y219435D01*
Y209435D02*
X68850D01*
X33850Y214435D02*
X38850Y209435D01*
X68850Y199435D02*
X73850Y204435D01*
X38850Y199435D02*
X68850D01*
X33850Y204435D02*
X38850Y199435D01*
X68850Y189435D02*
X73850Y194435D01*
X38850Y189435D02*
X68850D01*
X33850Y194435D02*
X38850Y189435D01*
X68850Y179435D02*
X73850Y184435D01*
X38850Y179435D02*
X68850D01*
X33850Y184435D02*
X38850Y179435D01*
X68850Y169435D02*
X73850Y174435D01*
X38850Y169435D02*
X68850D01*
X33850Y174435D02*
X38850Y169435D01*
X68850Y159435D02*
X73850Y164435D01*
X38850Y159435D02*
X68850D01*
X33850Y164435D02*
X38850Y159435D01*
X68850Y129435D02*
X73850Y134435D01*
X38850Y129435D02*
X68850D01*
X33850Y134435D02*
X38850Y129435D01*
X68850Y119435D02*
X73850Y124435D01*
X38850Y119435D02*
X68850D01*
X33850Y124435D02*
X38850Y119435D01*
X68850Y109435D02*
X73850Y114435D01*
X38850Y109435D02*
X68850D01*
X33850Y114435D02*
X38850Y109435D01*
X68850Y99435D02*
X73850Y104435D01*
X38850Y99435D02*
X68850D01*
X33850Y104435D02*
X38850Y99435D01*
X68850Y89435D02*
X73850Y94435D01*
X38850Y89435D02*
X68850D01*
X33850Y94435D02*
X38850Y89435D01*
X68850Y79435D02*
X73850Y84435D01*
X38850Y79435D02*
X68850D01*
X33850Y84435D02*
X38850Y79435D01*
X68850Y249435D02*
X73850Y254435D01*
X33850D02*
X38850Y249435D01*
X68850Y149435D02*
X73850Y154435D01*
X38850Y149435D02*
X68850D01*
X33850Y154435D02*
X38850Y149435D01*
X119004Y230476D02*
X119791Y231264D01*
Y233528D01*
X110835Y225159D02*
Y229886D01*
X94988Y230476D02*
X98630D01*
X100599Y228508D01*
X99910Y233134D02*
Y237169D01*
Y233134D02*
X103158Y229886D01*
Y225159D02*
Y229886D01*
X108276Y232543D02*
X109162Y233429D01*
X113394Y228508D02*
X115362Y230476D01*
X119004D01*
X110835Y229886D02*
X114083Y233134D01*
Y237366D01*
X38850Y249435D02*
X68850D01*
Y209435D02*
X73181Y213766D01*
X73850Y214435D01*
X155995Y153222D02*
X161113D01*
X112594D02*
X117712D01*
X83728Y333645D02*
Y342681D01*
X83516Y333433D02*
X83728Y333645D01*
Y342681D02*
Y352440D01*
X215145Y340481D02*
Y358466D01*
X219008Y333433D02*
Y336618D01*
X215145Y340481D02*
X219008Y336618D01*
X105185Y147514D02*
X106476D01*
X266094Y86211D02*
X272630D01*
X107000Y353500D02*
Y357055D01*
X108768Y358823D01*
X200607D01*
X202000Y357430D01*
Y348272D02*
Y357430D01*
X104631Y233429D02*
X105717Y232344D01*
X102177Y117292D02*
Y120240D01*
X272630Y86211D02*
X277854D01*
X272630Y96054D02*
X277407D01*
X38850Y219435D02*
X53850D01*
X68850D01*
X83728Y352440D02*
X92472Y361185D01*
X209315D01*
X212945Y357555D01*
X91723Y363547D02*
X210064D01*
X215145Y358466D01*
X108276Y200452D02*
Y202521D01*
X266094Y96054D02*
X272630D01*
X171561Y116842D02*
X172494Y115909D01*
X174247D01*
X216488Y228114D02*
Y231658D01*
X249833Y97437D02*
X249834Y97435D01*
X258805Y86211D02*
X266094D01*
X113394Y225159D02*
Y225750D01*
Y228508D01*
X106476Y147514D02*
X112594D01*
X100599Y225159D02*
Y225750D01*
Y228508D01*
X105717Y225159D02*
Y225750D01*
Y232344D01*
X108276Y225159D02*
Y225750D01*
Y232543D01*
X245228Y97437D02*
X249833D01*
Y92437D02*
X249834Y92435D01*
X245228Y92437D02*
X249833D01*
X170603Y195831D02*
Y197602D01*
X171194Y198193D01*
X277854Y86211D02*
X279478Y87836D01*
Y93983D01*
X279285Y94177D02*
X279478Y93983D01*
X277407Y96054D02*
X277586Y95875D01*
X277628D01*
X279285Y94219D01*
Y94177D02*
Y94219D01*
X108276Y202521D02*
Y212856D01*
X106996Y214135D02*
X108276Y212856D01*
X108571Y272209D02*
X114126Y266654D01*
Y257287D02*
Y266654D01*
Y257287D02*
X117709Y253705D01*
X73850Y254435D02*
X91624Y272209D01*
X108571D01*
X170922Y303508D02*
X193457D01*
X195622Y301343D01*
X195622Y296676D02*
X195622Y296676D01*
X196409Y297012D02*
X197197D01*
X195622Y296676D02*
Y297799D01*
Y301343D01*
X190138Y346138D02*
X199866D01*
X202000Y348272D01*
X75744Y320433D02*
X83516D01*
X93678Y120240D02*
X102177D01*
X128796Y103894D02*
X129087Y103603D01*
D164*
X271453Y213055D02*
Y234709D01*
Y205520D02*
Y213055D01*
X268500Y202567D02*
X271453Y205520D01*
X268500Y191694D02*
Y202567D01*
D165*
X277810Y109737D02*
Y114121D01*
X261360Y108536D02*
X276608D01*
X257178Y104355D02*
X261360Y108536D01*
X276608D02*
X277810Y109737D01*
X265967Y96181D02*
X266094Y96054D01*
X258566Y96181D02*
X265967D01*
X257178Y97569D02*
X258566Y96181D01*
X257178Y97569D02*
Y104355D01*
D166*
X90898Y256520D02*
X93065Y254352D01*
Y249768D02*
Y254352D01*
X265936Y114121D02*
X271350D01*
X253102Y267091D02*
X256826D01*
X85437Y290967D02*
X86961Y292490D01*
X118829Y67506D02*
X139716D01*
D167*
X148587Y162760D02*
X149877D01*
X148335D02*
X148587D01*
X148076D02*
X148335D01*
X160500Y297500D02*
X177575D01*
X157500D02*
X160500D01*
X177575D02*
X178575Y296500D01*
X182473D01*
X105717Y189532D02*
Y198980D01*
X104874Y162760D02*
X106476D01*
X105717Y163602D02*
Y175358D01*
X106476Y162760D02*
X112053D01*
X105717Y175358D02*
Y189532D01*
D168*
X148587Y163012D02*
Y170240D01*
Y175358D01*
D169*
X143944Y117556D02*
X145447Y119059D01*
X110000Y103894D02*
X128796D01*
X139776Y108790D02*
Y113439D01*
X138720Y107734D02*
X139776Y108790D01*
X138720Y106955D02*
Y107734D01*
X137000Y105235D02*
X138720Y106955D01*
X139936Y113547D02*
X143944Y117556D01*
X136713Y103894D02*
X137527Y104708D01*
X107594Y103894D02*
X110000D01*
X63850Y254435D02*
Y255500D01*
Y264435D01*
X63000D02*
X63850D01*
X43811Y254435D02*
Y264435D01*
X103496Y107992D02*
X107594Y103894D01*
X43811Y264435D02*
X53890D01*
X63000D01*
X103496Y107992D02*
Y118665D01*
X128796Y103894D02*
X136713D01*
D170*
X105717Y198980D02*
Y203112D01*
D171*
X130661Y78035D02*
X139044D01*
D172*
X149877Y155687D02*
D03*
X106476D02*
D03*
D173*
X150620Y151253D02*
D03*
D174*
X151605Y149028D02*
D03*
D175*
X113037Y133418D02*
D03*
Y134993D02*
D03*
Y136567D02*
D03*
Y131843D02*
D03*
X101837D02*
D03*
Y136567D02*
D03*
Y134993D02*
D03*
Y133418D02*
D03*
X156454Y133221D02*
D03*
Y134796D02*
D03*
Y136371D02*
D03*
Y131647D02*
D03*
X145254D02*
D03*
Y136371D02*
D03*
Y134796D02*
D03*
Y133221D02*
D03*
D176*
X157778Y88193D02*
D03*
Y78193D02*
D03*
D177*
X155510Y117091D02*
D03*
D178*
X146592Y118764D02*
D03*
X103191D02*
D03*
D179*
X105484Y126379D02*
D03*
X109422D02*
D03*
X152843Y126452D02*
D03*
X105484Y141610D02*
D03*
X148886D02*
D03*
D180*
X93056Y128187D02*
D03*
Y139802D02*
D03*
X136458Y128187D02*
D03*
Y139802D02*
D03*
D181*
X104684Y125356D02*
D03*
X148085D02*
D03*
X106285Y143445D02*
D03*
X149687D02*
D03*
D182*
X110222Y125356D02*
D03*
X104684Y142633D02*
D03*
X148085D02*
D03*
D183*
X112089Y118764D02*
D03*
D184*
X149870Y120277D02*
D03*
D185*
X149854Y128840D02*
D03*
D186*
X155313Y123759D02*
D03*
D187*
X104768Y154986D02*
D03*
D188*
X153484Y122898D02*
D03*
D189*
X154534Y122209D02*
D03*
D190*
X173956Y94896D02*
D03*
D191*
X143585Y78194D02*
D03*
D192*
X170524Y197110D02*
D03*
D193*
X95091Y175358D02*
D03*
X104933D02*
D03*
X138744D02*
D03*
X148587D02*
D03*
D194*
X187039Y333583D02*
D03*
X90000Y313500D02*
D03*
X184484Y74000D02*
D03*
X100478Y76146D02*
D03*
X179165Y313154D02*
D03*
X97000Y353500D02*
D03*
D195*
X177039Y333583D02*
D03*
X157039D02*
D03*
X147039D02*
D03*
X137039D02*
D03*
X167039D02*
D03*
X140000Y313500D02*
D03*
X130000D02*
D03*
X120000D02*
D03*
X110000D02*
D03*
X100000D02*
D03*
X43500Y74500D02*
D03*
X33500D02*
D03*
Y254500D02*
D03*
Y234500D02*
D03*
Y84500D02*
D03*
Y224500D02*
D03*
Y214500D02*
D03*
Y204500D02*
D03*
Y194500D02*
D03*
Y184500D02*
D03*
Y244500D02*
D03*
Y174500D02*
D03*
Y164500D02*
D03*
Y154500D02*
D03*
Y144500D02*
D03*
X33500Y134500D02*
D03*
X33500Y124500D02*
D03*
Y114500D02*
D03*
Y104500D02*
D03*
Y94500D02*
D03*
X43500D02*
D03*
Y104500D02*
D03*
Y114500D02*
D03*
Y124500D02*
D03*
X43500Y134500D02*
D03*
X43500Y144500D02*
D03*
Y154500D02*
D03*
Y164500D02*
D03*
Y174500D02*
D03*
Y244500D02*
D03*
Y184500D02*
D03*
Y194500D02*
D03*
Y204500D02*
D03*
Y214500D02*
D03*
Y224500D02*
D03*
Y84500D02*
D03*
Y234500D02*
D03*
Y254500D02*
D03*
Y264500D02*
D03*
X125000Y278000D02*
D03*
Y268000D02*
D03*
X194484Y74000D02*
D03*
X262050Y54000D02*
D03*
Y64000D02*
D03*
X272050Y54000D02*
D03*
Y64000D02*
D03*
X242050Y54000D02*
D03*
Y64000D02*
D03*
X252050Y54000D02*
D03*
Y64000D02*
D03*
X222050Y54000D02*
D03*
Y64000D02*
D03*
X232050Y54000D02*
D03*
Y64000D02*
D03*
X202050Y54000D02*
D03*
X212050D02*
D03*
Y64000D02*
D03*
X192050Y54000D02*
D03*
X182050Y64000D02*
D03*
Y54000D02*
D03*
X90478Y76146D02*
D03*
X229165Y313154D02*
D03*
X219165D02*
D03*
X209165D02*
D03*
X199165D02*
D03*
X189165D02*
D03*
X207000Y353500D02*
D03*
X197000D02*
D03*
X107000D02*
D03*
X127000D02*
D03*
X137000D02*
D03*
X147000D02*
D03*
X157000D02*
D03*
X167000D02*
D03*
X177000D02*
D03*
X187000D02*
D03*
X117000D02*
D03*
D196*
X68713Y55262D02*
D03*
X159264Y55262D02*
D03*
Y283608D02*
D03*
X68713D02*
D03*
D197*
X63850Y74435D02*
D03*
Y84435D02*
D03*
Y94435D02*
D03*
Y104435D02*
D03*
Y114435D02*
D03*
Y124435D02*
D03*
Y134435D02*
D03*
Y144435D02*
D03*
Y154435D02*
D03*
Y164435D02*
D03*
Y174435D02*
D03*
Y184435D02*
D03*
Y194435D02*
D03*
Y204435D02*
D03*
Y214435D02*
D03*
Y224435D02*
D03*
Y234435D02*
D03*
Y244435D02*
D03*
Y254435D02*
D03*
X73850Y224435D02*
D03*
Y234435D02*
D03*
Y244435D02*
D03*
D198*
X63850Y264435D02*
D03*
X73850Y74435D02*
D03*
Y84435D02*
D03*
Y94435D02*
D03*
Y104435D02*
D03*
Y114435D02*
D03*
Y124435D02*
D03*
Y134435D02*
D03*
Y144435D02*
D03*
Y154435D02*
D03*
Y164435D02*
D03*
Y174435D02*
D03*
Y184435D02*
D03*
Y194435D02*
D03*
Y204435D02*
D03*
Y214435D02*
D03*
Y254435D02*
D03*
X140661Y78035D02*
D03*
X130661D02*
D03*
X120661D02*
D03*
X106803Y54886D02*
D03*
X96803D02*
D03*
D199*
X73850Y264435D02*
D03*
D200*
X33500Y264500D02*
D03*
X125000Y288000D02*
D03*
D201*
X260898Y81684D02*
D03*
Y100582D02*
D03*
X277827Y81684D02*
D03*
Y100582D02*
D03*
D202*
X269362Y105896D02*
D03*
D203*
Y76369D02*
D03*
D204*
X140661Y58035D02*
D03*
X120661D02*
D03*
D205*
X86803Y54886D02*
D03*
D206*
X104500Y135594D02*
D03*
X110406Y132395D02*
D03*
X107453D02*
D03*
X110406Y135594D02*
D03*
X104500Y132395D02*
D03*
X107453Y135594D02*
D03*
X98814Y135595D02*
D03*
Y132420D02*
D03*
X116092D02*
D03*
Y135595D02*
D03*
X96255Y133994D02*
D03*
X93302D02*
D03*
X90350D02*
D03*
X119044Y135595D02*
D03*
Y132395D02*
D03*
X133751Y133994D02*
D03*
X136704D02*
D03*
X139657D02*
D03*
X142216Y132420D02*
D03*
Y135595D02*
D03*
X98138Y209336D02*
D03*
Y218935D02*
D03*
Y215735D02*
D03*
Y212536D02*
D03*
X115855Y209336D02*
D03*
Y218935D02*
D03*
Y215735D02*
D03*
Y212536D02*
D03*
X121997Y132395D02*
D03*
Y135595D02*
D03*
X130738Y133969D02*
D03*
X127726Y133944D02*
D03*
X87397Y133994D02*
D03*
X101091Y209336D02*
D03*
Y212536D02*
D03*
Y215735D02*
D03*
Y218935D02*
D03*
X106996Y212536D02*
D03*
X104043D02*
D03*
X109949D02*
D03*
Y215735D02*
D03*
X104043D02*
D03*
X106996D02*
D03*
Y218935D02*
D03*
X104043D02*
D03*
X109949D02*
D03*
X106996Y209336D02*
D03*
X109949D02*
D03*
X104043D02*
D03*
X112902D02*
D03*
Y218935D02*
D03*
Y215735D02*
D03*
Y212536D02*
D03*
X150854Y132395D02*
D03*
X147902Y135594D02*
D03*
Y132395D02*
D03*
X150854Y135594D02*
D03*
X153807Y132395D02*
D03*
Y135594D02*
D03*
X159906Y71034D02*
D03*
X155519Y71052D02*
D03*
X154000Y107500D02*
D03*
X167362Y118646D02*
D03*
X156437Y106148D02*
D03*
X159264Y103364D02*
D03*
X159250Y106148D02*
D03*
X243260Y138189D02*
D03*
X243141Y148861D02*
D03*
X196947Y221142D02*
D03*
X189500Y209336D02*
D03*
X185982Y205000D02*
D03*
X186568Y214236D02*
D03*
X197197Y214500D02*
D03*
X143944Y99741D02*
D03*
X167423Y102708D02*
D03*
X167434Y105000D02*
D03*
X191791Y324935D02*
D03*
X26000Y43000D02*
D03*
X278500Y45500D02*
D03*
X276030Y42500D02*
D03*
X261500Y72053D02*
D03*
X261462Y75732D02*
D03*
X264872Y77435D02*
D03*
X274715Y105339D02*
D03*
X264000Y105127D02*
D03*
X245105Y196353D02*
D03*
X221500Y226500D02*
D03*
X202000Y181362D02*
D03*
X165110Y212980D02*
D03*
X153807Y211000D02*
D03*
X134303Y235000D02*
D03*
X132500Y229739D02*
D03*
X134205Y223500D02*
D03*
X171500Y237000D02*
D03*
X173500Y241000D02*
D03*
X210000Y209336D02*
D03*
X205500Y212169D02*
D03*
X195745Y167500D02*
D03*
X176331Y206264D02*
D03*
X156000Y226047D02*
D03*
X160189Y238744D02*
D03*
X165091D02*
D03*
X155000Y240000D02*
D03*
X204442Y86000D02*
D03*
X237641Y172043D02*
D03*
X252000Y229167D02*
D03*
X221781Y136046D02*
D03*
X195745Y205742D02*
D03*
X154500Y341305D02*
D03*
X149845D02*
D03*
X275000Y360000D02*
D03*
X270000Y350000D02*
D03*
X275000Y340000D02*
D03*
X270000Y330000D02*
D03*
X275000Y320000D02*
D03*
X270000Y310000D02*
D03*
X275000Y300000D02*
D03*
X270000Y290000D02*
D03*
X275000Y280000D02*
D03*
Y260000D02*
D03*
X265000Y360000D02*
D03*
Y340000D02*
D03*
X260000Y330000D02*
D03*
X265000Y320000D02*
D03*
X260000Y310000D02*
D03*
X265000Y300000D02*
D03*
X255000Y360000D02*
D03*
X250000Y330000D02*
D03*
Y170000D02*
D03*
X245000Y360000D02*
D03*
X240000Y330000D02*
D03*
Y130000D02*
D03*
X235000Y360000D02*
D03*
X230000Y350000D02*
D03*
X235000Y340000D02*
D03*
X230000Y330000D02*
D03*
X235000Y320000D02*
D03*
Y140000D02*
D03*
X225000Y360000D02*
D03*
X220000Y350000D02*
D03*
X225000Y340000D02*
D03*
Y320000D02*
D03*
Y300000D02*
D03*
Y280000D02*
D03*
X220000Y250000D02*
D03*
X210000Y330000D02*
D03*
X205000Y280000D02*
D03*
Y260000D02*
D03*
X195000Y340000D02*
D03*
Y280000D02*
D03*
X190000Y270000D02*
D03*
X185000Y60000D02*
D03*
X170000Y250000D02*
D03*
X160000D02*
D03*
X150000Y270000D02*
D03*
X140000Y50000D02*
D03*
X135000Y340000D02*
D03*
X130000Y150000D02*
D03*
X125000Y320000D02*
D03*
Y260000D02*
D03*
X115000Y340000D02*
D03*
Y320000D02*
D03*
X90000Y350000D02*
D03*
X95000Y320000D02*
D03*
X90000Y110000D02*
D03*
X95000Y80000D02*
D03*
X90000Y50000D02*
D03*
X85000Y280000D02*
D03*
Y160000D02*
D03*
Y80000D02*
D03*
X75000Y360000D02*
D03*
X70000Y350000D02*
D03*
X75000Y340000D02*
D03*
X70000Y70000D02*
D03*
X65000Y360000D02*
D03*
X60000Y330000D02*
D03*
Y70000D02*
D03*
X55000Y360000D02*
D03*
X50000Y330000D02*
D03*
Y290000D02*
D03*
Y70000D02*
D03*
X55000Y60000D02*
D03*
X45000Y360000D02*
D03*
X40000Y350000D02*
D03*
Y330000D02*
D03*
Y310000D02*
D03*
Y70000D02*
D03*
X35000Y360000D02*
D03*
X30000Y350000D02*
D03*
X35000Y340000D02*
D03*
X30000Y330000D02*
D03*
X35000Y320000D02*
D03*
X30000Y290000D02*
D03*
Y270000D02*
D03*
Y250000D02*
D03*
Y230000D02*
D03*
Y210000D02*
D03*
Y190000D02*
D03*
Y170000D02*
D03*
Y150000D02*
D03*
Y130000D02*
D03*
Y110000D02*
D03*
Y90000D02*
D03*
Y70000D02*
D03*
X122500Y198874D02*
D03*
X90898Y256520D02*
D03*
Y206163D02*
D03*
X90974Y229761D02*
D03*
X118562Y160398D02*
D03*
Y162760D02*
D03*
X152709Y149768D02*
D03*
X137954Y160398D02*
D03*
Y162760D02*
D03*
X171706Y119059D02*
D03*
X219244Y71584D02*
D03*
Y76369D02*
D03*
X273451Y269311D02*
D03*
X92000Y304440D02*
D03*
X123891Y235584D02*
D03*
Y237853D02*
D03*
Y240122D02*
D03*
X94201Y241205D02*
D03*
Y238646D02*
D03*
Y233528D02*
D03*
Y236087D02*
D03*
X256347Y298173D02*
D03*
X251129D02*
D03*
X233000Y193000D02*
D03*
X235000Y198500D02*
D03*
X172281Y70106D02*
D03*
X170949Y63785D02*
D03*
X154698Y94435D02*
D03*
X156650Y95757D02*
D03*
X161484Y165382D02*
D03*
Y163020D02*
D03*
X231029Y291331D02*
D03*
X161764Y160272D02*
D03*
X153890Y120240D02*
D03*
X154087Y114121D02*
D03*
Y117287D02*
D03*
X122547Y143429D02*
D03*
X125777Y153321D02*
D03*
X226500Y284000D02*
D03*
X169000Y76827D02*
D03*
X53850Y244435D02*
D03*
X160500Y297500D02*
D03*
X157500D02*
D03*
X177000Y240713D02*
D03*
X163852Y226244D02*
D03*
X219638Y255500D02*
D03*
X223000Y214965D02*
D03*
X221500Y200500D02*
D03*
X222500Y195000D02*
D03*
X246000Y164000D02*
D03*
Y166500D02*
D03*
Y169150D02*
D03*
X231337Y137500D02*
D03*
X152315Y307642D02*
D03*
Y304030D02*
D03*
X79823Y327528D02*
D03*
X86961Y292490D02*
D03*
Y295410D02*
D03*
X122394Y128114D02*
D03*
X104631Y238547D02*
D03*
Y241106D02*
D03*
Y235988D02*
D03*
Y233429D02*
D03*
X109162Y241106D02*
D03*
Y238547D02*
D03*
Y235988D02*
D03*
Y233429D02*
D03*
X119791Y238645D02*
D03*
Y233527D02*
D03*
Y236086D02*
D03*
Y241204D02*
D03*
X230985Y255392D02*
D03*
X231055Y222012D02*
D03*
Y228785D02*
D03*
X97188Y192198D02*
D03*
X94835Y199079D02*
D03*
X118851Y117593D02*
D03*
X110685Y114121D02*
D03*
X95185Y218935D02*
D03*
Y215735D02*
D03*
Y212536D02*
D03*
X118807Y218935D02*
D03*
Y215735D02*
D03*
Y212536D02*
D03*
X121760Y218935D02*
D03*
X110685Y117287D02*
D03*
Y120453D02*
D03*
X148587Y170240D02*
D03*
X199547Y228785D02*
D03*
X124713Y215735D02*
D03*
Y218935D02*
D03*
X121760Y215735D02*
D03*
Y212536D02*
D03*
X94635Y224374D02*
D03*
X99953Y256461D02*
D03*
X276457Y89124D02*
D03*
X272787Y248744D02*
D03*
X240504Y76020D02*
D03*
X208040Y79891D02*
D03*
X180268Y90732D02*
D03*
X136173Y117973D02*
D03*
X53831Y204435D02*
D03*
X55071Y43643D02*
D03*
X53850Y219435D02*
D03*
X53831Y174435D02*
D03*
Y139694D02*
D03*
Y104435D02*
D03*
X191882Y291558D02*
D03*
X151134Y189138D02*
D03*
X167814Y176736D02*
D03*
X188535Y291558D02*
D03*
X236236Y164563D02*
D03*
X244323Y77500D02*
D03*
X118807Y209336D02*
D03*
X276457Y93047D02*
D03*
X260162Y92237D02*
D03*
X95185Y209336D02*
D03*
X121760D02*
D03*
X124713Y212536D02*
D03*
Y209336D02*
D03*
X227905Y225358D02*
D03*
Y218584D02*
D03*
X249140Y255057D02*
D03*
X245031D02*
D03*
X247984Y198600D02*
D03*
X262000Y221716D02*
D03*
X236891Y255392D02*
D03*
X249383Y235273D02*
D03*
X257080Y261972D02*
D03*
X251205Y277023D02*
D03*
X250347Y265517D02*
D03*
X262039Y217204D02*
D03*
X275543Y219059D02*
D03*
X244441Y82051D02*
D03*
X237020Y208035D02*
D03*
X240110D02*
D03*
X243063D02*
D03*
X239323Y108429D02*
D03*
X222787Y149826D02*
D03*
X242824Y88179D02*
D03*
X219112Y147950D02*
D03*
X223969Y126125D02*
D03*
X222394Y145607D02*
D03*
X219244Y126126D02*
D03*
X215570Y149492D02*
D03*
X215087Y145831D02*
D03*
X259402Y195852D02*
D03*
X146606Y190516D02*
D03*
X96803Y301343D02*
D03*
X90110Y302524D02*
D03*
X87722Y300161D02*
D03*
X83811Y287169D02*
D03*
X109008Y263547D02*
D03*
X186568Y122996D02*
D03*
X208741Y125752D02*
D03*
X193654Y143862D02*
D03*
X193771Y132051D02*
D03*
X203102Y163012D02*
D03*
X209008Y148587D02*
D03*
X245228Y97437D02*
D03*
Y92437D02*
D03*
X240898Y103705D02*
D03*
X179874Y83232D02*
D03*
X189128Y83809D02*
D03*
X256192Y114220D02*
D03*
X139716Y67506D02*
D03*
X150347Y209610D02*
D03*
X210934Y221126D02*
D03*
X193654Y241894D02*
D03*
X200740Y207248D02*
D03*
X196608Y196618D02*
D03*
X196803Y245830D02*
D03*
X206252Y221126D02*
D03*
X193063Y230083D02*
D03*
X206252Y215910D02*
D03*
X205549Y206545D02*
D03*
X191685Y196618D02*
D03*
X170603Y195831D02*
D03*
X188142Y228785D02*
D03*
X190504Y247406D02*
D03*
X181055Y243075D02*
D03*
X112053Y333433D02*
D03*
X157433Y149768D02*
D03*
X204677Y244256D02*
D03*
X172591Y133232D02*
D03*
X141685Y221815D02*
D03*
X153994Y200543D02*
D03*
X138535Y297406D02*
D03*
X133811Y301736D02*
D03*
X120819Y183232D02*
D03*
Y186776D02*
D03*
X141786Y148561D02*
D03*
Y153412D02*
D03*
Y150924D02*
D03*
X98365Y162760D02*
D03*
Y160398D02*
D03*
X98384Y150924D02*
D03*
Y153412D02*
D03*
Y148561D02*
D03*
X240732Y196213D02*
D03*
X230873Y203606D02*
D03*
X251406Y221344D02*
D03*
X245360Y225358D02*
D03*
X239134Y225480D02*
D03*
X262000Y226146D02*
D03*
X262039Y234527D02*
D03*
X189988Y262122D02*
D03*
X207600Y247141D02*
D03*
X222394Y239531D02*
D03*
X200799Y288741D02*
D03*
X217295Y235579D02*
D03*
X201470Y265774D02*
D03*
X206252Y256461D02*
D03*
X262039Y212873D02*
D03*
X177905Y201933D02*
D03*
X179480Y227329D02*
D03*
X134205Y215516D02*
D03*
X138535Y210398D02*
D03*
X129480Y197366D02*
D03*
X129495Y201435D02*
D03*
X125093Y180870D02*
D03*
Y174965D02*
D03*
X125191Y190309D02*
D03*
X209795Y181362D02*
D03*
X200937Y153429D02*
D03*
Y145607D02*
D03*
X179087Y105807D02*
D03*
X176579Y105807D02*
D03*
X197984Y104014D02*
D03*
X177209Y125358D02*
D03*
X155071Y149768D02*
D03*
X184992Y246618D02*
D03*
X96409Y113439D02*
D03*
X187747Y109217D02*
D03*
X202709Y134807D02*
D03*
X197197Y129546D02*
D03*
X162157Y143418D02*
D03*
X116135Y189532D02*
D03*
X274002Y194542D02*
D03*
X273969Y197799D02*
D03*
X238142Y263941D02*
D03*
X263339Y249727D02*
D03*
Y244961D02*
D03*
X262039Y230398D02*
D03*
X262945Y270240D02*
D03*
X261852Y282445D02*
D03*
X261764Y276933D02*
D03*
X249130Y288548D02*
D03*
X243752Y299439D02*
D03*
X238634D02*
D03*
X221231Y290615D02*
D03*
X238142Y268665D02*
D03*
Y272209D02*
D03*
X191882Y283621D02*
D03*
X219165Y324413D02*
D03*
X103516Y324256D02*
D03*
X90898Y287563D02*
D03*
X78693Y292287D02*
D03*
X29985Y322342D02*
D03*
X222394Y233626D02*
D03*
X158221Y199079D02*
D03*
X160386Y195458D02*
D03*
D207*
X202050Y64000D02*
D03*
X192050D02*
D03*
M02*
