G04*
G04 #@! TF.GenerationSoftware,Altium Limited,Altium Designer,19.0.10 (269)*
G04*
G04 Layer_Color=8421504*
%FSLAX25Y25*%
%MOIN*%
G70*
G01*
G75*
%ADD36R,0.02370X0.00980*%
%ADD37R,0.02270X0.00980*%
%ADD38R,0.03543X0.02559*%
%ADD39R,0.03150X0.02362*%
%ADD40R,0.03000X0.03000*%
%ADD41R,0.05500X0.10236*%
%ADD42R,0.04724X0.03150*%
%ADD43R,0.04724X0.05906*%
%ADD44R,0.01350X0.05315*%
%ADD45R,0.05315X0.01350*%
%ADD46O,0.06299X0.01181*%
%ADD47R,0.02165X0.03347*%
%ADD48R,0.08000X0.05500*%
%ADD49O,0.01102X0.03150*%
%ADD50R,0.02953X0.03150*%
%ADD51R,0.03150X0.02953*%
%ADD52R,0.03150X0.06693*%
%ADD53R,0.03900X0.04000*%
G04:AMPARAMS|DCode=54|XSize=9.84mil|YSize=23.62mil|CornerRadius=4.92mil|HoleSize=0mil|Usage=FLASHONLY|Rotation=90.000|XOffset=0mil|YOffset=0mil|HoleType=Round|Shape=RoundedRectangle|*
%AMROUNDEDRECTD54*
21,1,0.00984,0.01378,0,0,90.0*
21,1,0.00000,0.02362,0,0,90.0*
1,1,0.00984,0.00689,0.00000*
1,1,0.00984,0.00689,0.00000*
1,1,0.00984,-0.00689,0.00000*
1,1,0.00984,-0.00689,0.00000*
%
%ADD54ROUNDEDRECTD54*%
%ADD55R,0.07000X0.06400*%
%ADD56R,0.06693X0.03937*%
%ADD57R,0.06693X0.03937*%
%ADD58R,0.06693X0.03150*%
%ADD59R,0.04500X0.07000*%
%ADD60R,0.02100X0.03150*%
%ADD61R,0.03347X0.01181*%
%ADD62O,0.09843X0.02756*%
%ADD63R,0.05400X0.12000*%
%ADD64R,0.03150X0.03150*%
G04:AMPARAMS|DCode=65|XSize=23.62mil|YSize=9.06mil|CornerRadius=4.53mil|HoleSize=0mil|Usage=FLASHONLY|Rotation=90.000|XOffset=0mil|YOffset=0mil|HoleType=Round|Shape=RoundedRectangle|*
%AMROUNDEDRECTD65*
21,1,0.02362,0.00000,0,0,90.0*
21,1,0.01456,0.00906,0,0,90.0*
1,1,0.00906,0.00000,0.00728*
1,1,0.00906,0.00000,-0.00728*
1,1,0.00906,0.00000,-0.00728*
1,1,0.00906,0.00000,0.00728*
%
%ADD65ROUNDEDRECTD65*%
G04:AMPARAMS|DCode=66|XSize=23.62mil|YSize=9.06mil|CornerRadius=4.53mil|HoleSize=0mil|Usage=FLASHONLY|Rotation=180.000|XOffset=0mil|YOffset=0mil|HoleType=Round|Shape=RoundedRectangle|*
%AMROUNDEDRECTD66*
21,1,0.02362,0.00000,0,0,180.0*
21,1,0.01456,0.00906,0,0,180.0*
1,1,0.00906,-0.00728,0.00000*
1,1,0.00906,0.00728,0.00000*
1,1,0.00906,0.00728,0.00000*
1,1,0.00906,-0.00728,0.00000*
%
%ADD66ROUNDEDRECTD66*%
%ADD67R,0.03150X0.00984*%
%ADD68R,0.00984X0.03150*%
%ADD69R,0.13400X0.03800*%
%ADD70R,0.03600X0.03600*%
%ADD71R,0.03600X0.05000*%
%ADD72R,0.02992X0.09449*%
%ADD73R,0.01772X0.01968*%
G04:AMPARAMS|DCode=74|XSize=41.34mil|YSize=70.87mil|CornerRadius=0mil|HoleSize=0mil|Usage=FLASHONLY|Rotation=90.000|XOffset=0mil|YOffset=0mil|HoleType=Round|Shape=RoundedRectangle|*
%AMROUNDEDRECTD74*
21,1,0.04134,0.07087,0,0,90.0*
21,1,0.04134,0.07087,0,0,90.0*
1,1,0.00000,0.03543,0.02067*
1,1,0.00000,0.03543,-0.02067*
1,1,0.00000,-0.03543,-0.02067*
1,1,0.00000,-0.03543,0.02067*
%
%ADD74ROUNDEDRECTD74*%
%ADD75R,0.07087X0.04724*%
%ADD76O,0.01772X0.05512*%
%ADD77R,0.12953X0.09488*%
G04:AMPARAMS|DCode=78|XSize=41.34mil|YSize=70.87mil|CornerRadius=0mil|HoleSize=0mil|Usage=FLASHONLY|Rotation=180.000|XOffset=0mil|YOffset=0mil|HoleType=Round|Shape=RoundedRectangle|*
%AMROUNDEDRECTD78*
21,1,0.04134,0.07087,0,0,180.0*
21,1,0.04134,0.07087,0,0,180.0*
1,1,0.00000,-0.02067,0.03543*
1,1,0.00000,0.02067,0.03543*
1,1,0.00000,0.02067,-0.03543*
1,1,0.00000,-0.02067,-0.03543*
%
%ADD78ROUNDEDRECTD78*%
%ADD79R,0.01968X0.01772*%
%ADD80R,0.02756X0.01575*%
%ADD81R,0.03150X0.03150*%
%ADD82R,0.03600X0.03600*%
%ADD83R,0.05000X0.03600*%
%ADD84R,0.05709X0.10039*%
%ADD85O,0.09449X0.02756*%
%ADD86R,0.05906X0.04331*%
%ADD87R,0.01378X0.01968*%
%ADD88O,0.01181X0.06299*%
D36*
X113222Y133403D02*
D03*
Y134978D02*
D03*
Y131833D02*
D03*
Y136553D02*
D03*
X156639Y133207D02*
D03*
Y134782D02*
D03*
Y131637D02*
D03*
Y136356D02*
D03*
D37*
X101602Y136553D02*
D03*
Y131833D02*
D03*
Y134978D02*
D03*
Y133403D02*
D03*
X145019Y136356D02*
D03*
Y131637D02*
D03*
Y134782D02*
D03*
Y133207D02*
D03*
D38*
X109642Y135976D02*
D03*
Y132409D02*
D03*
X105232D02*
D03*
Y135976D02*
D03*
X153059Y135776D02*
D03*
Y132209D02*
D03*
X148650D02*
D03*
Y135776D02*
D03*
D39*
X86961Y291865D02*
D03*
Y295015D02*
D03*
D40*
X237610Y208685D02*
D03*
Y213685D02*
D03*
X242610D02*
D03*
Y208685D02*
D03*
D41*
X166900Y101209D02*
D03*
X149100D02*
D03*
D42*
X249295Y72635D02*
D03*
Y77635D02*
D03*
Y82635D02*
D03*
X228823Y72635D02*
D03*
Y82635D02*
D03*
X249295Y87635D02*
D03*
Y92635D02*
D03*
Y97635D02*
D03*
X228823Y92635D02*
D03*
Y97635D02*
D03*
Y102635D02*
D03*
X249295D02*
D03*
X228823Y87635D02*
D03*
Y107635D02*
D03*
X249295D02*
D03*
X228823Y77635D02*
D03*
D43*
X97209Y343400D02*
D03*
X85791D02*
D03*
D44*
X208811Y235791D02*
D03*
X206842D02*
D03*
X204874D02*
D03*
X202906D02*
D03*
X200937D02*
D03*
X198969D02*
D03*
X197000D02*
D03*
X195031D02*
D03*
X193063D02*
D03*
X191095D02*
D03*
X189126D02*
D03*
X187157D02*
D03*
X185189D02*
D03*
X183221D02*
D03*
X181252D02*
D03*
X179283D02*
D03*
Y190516D02*
D03*
X181252D02*
D03*
X183221D02*
D03*
X185189D02*
D03*
X187157D02*
D03*
X189126D02*
D03*
X191095D02*
D03*
X193063D02*
D03*
X195031D02*
D03*
X197000D02*
D03*
X198969D02*
D03*
X200937D02*
D03*
X202906D02*
D03*
X204874D02*
D03*
X206842D02*
D03*
X208811D02*
D03*
D45*
X171409Y227917D02*
D03*
Y225949D02*
D03*
Y223980D02*
D03*
Y222012D02*
D03*
Y220043D02*
D03*
Y218075D02*
D03*
Y216106D02*
D03*
Y214138D02*
D03*
Y212169D02*
D03*
Y210201D02*
D03*
Y208232D02*
D03*
Y206264D02*
D03*
Y204295D02*
D03*
Y202327D02*
D03*
Y200358D02*
D03*
Y198390D02*
D03*
X216685D02*
D03*
Y200358D02*
D03*
Y202327D02*
D03*
Y204295D02*
D03*
Y206264D02*
D03*
Y208232D02*
D03*
Y210201D02*
D03*
Y216106D02*
D03*
Y218075D02*
D03*
Y220043D02*
D03*
Y222012D02*
D03*
Y223980D02*
D03*
Y225949D02*
D03*
Y227917D02*
D03*
Y212169D02*
D03*
Y214138D02*
D03*
D46*
X162453Y318661D02*
D03*
Y321220D02*
D03*
Y323780D02*
D03*
Y326339D02*
D03*
X149067Y318661D02*
D03*
Y321220D02*
D03*
Y323780D02*
D03*
Y326339D02*
D03*
D47*
X124000Y295437D02*
D03*
Y304886D02*
D03*
X116543Y295535D02*
D03*
Y304984D02*
D03*
D48*
X137000Y105235D02*
D03*
Y87435D02*
D03*
X109500Y103900D02*
D03*
Y86100D02*
D03*
D49*
X103500Y128386D02*
D03*
X105468D02*
D03*
X107437D02*
D03*
X109406D02*
D03*
X111374D02*
D03*
Y140000D02*
D03*
X109406D02*
D03*
X107437D02*
D03*
X105468D02*
D03*
X103500D02*
D03*
X146917Y128187D02*
D03*
X148886D02*
D03*
X150854D02*
D03*
X152823D02*
D03*
X154791D02*
D03*
Y139802D02*
D03*
X152823D02*
D03*
X150854D02*
D03*
X148886D02*
D03*
X146917D02*
D03*
D50*
X137650Y190516D02*
D03*
X143358D02*
D03*
X235293Y303311D02*
D03*
X241001D02*
D03*
X243482Y282445D02*
D03*
X249190D02*
D03*
X243476Y277023D02*
D03*
X249185D02*
D03*
X257020Y266996D02*
D03*
X262729D02*
D03*
X253226Y282445D02*
D03*
X258935D02*
D03*
X253226Y277023D02*
D03*
X258935D02*
D03*
X233354Y241997D02*
D03*
X227646D02*
D03*
X260421Y254435D02*
D03*
X254713D02*
D03*
X254712Y244961D02*
D03*
X260421D02*
D03*
X254712Y249727D02*
D03*
X260421D02*
D03*
X236665Y194256D02*
D03*
X230957D02*
D03*
X236665Y198600D02*
D03*
X230957D02*
D03*
X194146Y89525D02*
D03*
X188437D02*
D03*
X218482Y110556D02*
D03*
X212773D02*
D03*
X217095Y81083D02*
D03*
X222804D02*
D03*
X265646Y234709D02*
D03*
X271354D02*
D03*
X265646Y213055D02*
D03*
X271354D02*
D03*
X265646Y217386D02*
D03*
X271354D02*
D03*
X265646Y226047D02*
D03*
X271354D02*
D03*
X222804Y76358D02*
D03*
X217095D02*
D03*
X222804Y71634D02*
D03*
X217095D02*
D03*
X265602Y194534D02*
D03*
X271311D02*
D03*
X265602Y199374D02*
D03*
X271311D02*
D03*
X259862Y113854D02*
D03*
X265570D02*
D03*
X180054Y115909D02*
D03*
X174346D02*
D03*
X176823Y132839D02*
D03*
X182531D02*
D03*
X138634Y121500D02*
D03*
X132925D02*
D03*
X133146Y113500D02*
D03*
X138854D02*
D03*
X142177Y210398D02*
D03*
X136469D02*
D03*
X174639Y96520D02*
D03*
X180347D02*
D03*
X142177Y215516D02*
D03*
X136469D02*
D03*
X93085Y113439D02*
D03*
X87376D02*
D03*
X116783Y139807D02*
D03*
X122492D02*
D03*
X126346Y225159D02*
D03*
X120637D02*
D03*
X82728Y227917D02*
D03*
X88437D02*
D03*
X218467Y284020D02*
D03*
X224176D02*
D03*
X155366Y309413D02*
D03*
X161075D02*
D03*
X155315Y303508D02*
D03*
X161024D02*
D03*
D51*
X128351Y180575D02*
D03*
Y174866D02*
D03*
X242500Y154965D02*
D03*
Y160673D02*
D03*
X256252Y294551D02*
D03*
Y300260D02*
D03*
X251134Y294551D02*
D03*
Y300260D02*
D03*
X227906Y231756D02*
D03*
Y237465D02*
D03*
X239134Y233354D02*
D03*
Y227646D02*
D03*
X240732Y199854D02*
D03*
Y194146D02*
D03*
X251397Y224986D02*
D03*
Y219278D02*
D03*
X245360Y233232D02*
D03*
Y227524D02*
D03*
X212500Y116383D02*
D03*
Y122091D02*
D03*
X223969Y117386D02*
D03*
Y123094D02*
D03*
X219244Y117386D02*
D03*
Y123094D02*
D03*
X231337Y133646D02*
D03*
Y139354D02*
D03*
X245500Y133635D02*
D03*
Y139343D02*
D03*
X164085Y170929D02*
D03*
Y176638D02*
D03*
X171561Y128223D02*
D03*
Y122515D02*
D03*
X205858Y290869D02*
D03*
Y296578D02*
D03*
X165701Y128213D02*
D03*
Y122504D02*
D03*
X168000Y108682D02*
D03*
Y114391D02*
D03*
X182649Y296578D02*
D03*
Y290869D02*
D03*
X231000Y287500D02*
D03*
Y293209D02*
D03*
X166231Y153222D02*
D03*
Y147514D02*
D03*
X161113Y147514D02*
D03*
Y153222D02*
D03*
X156000Y153854D02*
D03*
Y148146D02*
D03*
X122830Y153222D02*
D03*
Y147514D02*
D03*
X117712D02*
D03*
Y153222D02*
D03*
X112594D02*
D03*
Y147514D02*
D03*
X160500Y139354D02*
D03*
Y133646D02*
D03*
X84205Y206559D02*
D03*
Y200850D02*
D03*
X84214Y191795D02*
D03*
Y197504D02*
D03*
X112157Y195142D02*
D03*
Y189433D02*
D03*
X101528D02*
D03*
Y195142D02*
D03*
X29985Y306756D02*
D03*
Y301047D02*
D03*
X185189Y242927D02*
D03*
Y248636D02*
D03*
X223000Y212881D02*
D03*
Y218590D02*
D03*
X165049Y230378D02*
D03*
Y236087D02*
D03*
X212179Y190811D02*
D03*
Y185102D02*
D03*
X165500Y193646D02*
D03*
Y199354D02*
D03*
X200799Y296619D02*
D03*
Y290911D02*
D03*
X217295Y231937D02*
D03*
Y237646D02*
D03*
X160189Y230378D02*
D03*
Y236087D02*
D03*
X222394Y231756D02*
D03*
Y237465D02*
D03*
X219638Y264218D02*
D03*
Y258509D02*
D03*
X189988Y258537D02*
D03*
Y264245D02*
D03*
X169500Y325984D02*
D03*
Y320276D02*
D03*
X208811Y338888D02*
D03*
Y344597D02*
D03*
X76000Y333354D02*
D03*
Y327646D02*
D03*
D52*
X234835Y147286D02*
D03*
X248221D02*
D03*
X189183Y129546D02*
D03*
X202569D02*
D03*
D53*
X272000Y207000D02*
D03*
X266000D02*
D03*
D54*
X83220Y296393D02*
D03*
Y294425D02*
D03*
Y292456D02*
D03*
Y290488D02*
D03*
X90701D02*
D03*
Y292456D02*
D03*
Y294425D02*
D03*
Y296393D02*
D03*
D55*
X72000Y301300D02*
D03*
Y314700D02*
D03*
D56*
X104500Y320272D02*
D03*
X84500D02*
D03*
X198500D02*
D03*
X218500D02*
D03*
D57*
X104500Y333272D02*
D03*
X84500D02*
D03*
X198500D02*
D03*
X218500D02*
D03*
D58*
X273451Y267091D02*
D03*
Y253705D02*
D03*
D59*
X113710Y237957D02*
D03*
X127110D02*
D03*
X100200Y238000D02*
D03*
X86800D02*
D03*
D60*
X256744Y201881D02*
D03*
X251035D02*
D03*
D61*
X266094Y101959D02*
D03*
Y99991D02*
D03*
Y98022D02*
D03*
Y96054D02*
D03*
Y94085D02*
D03*
Y92117D02*
D03*
Y90148D02*
D03*
Y88180D02*
D03*
Y86211D02*
D03*
Y84243D02*
D03*
Y82274D02*
D03*
Y80306D02*
D03*
X272630D02*
D03*
Y82274D02*
D03*
Y84243D02*
D03*
Y86211D02*
D03*
Y88180D02*
D03*
Y90148D02*
D03*
Y92117D02*
D03*
Y94085D02*
D03*
Y96054D02*
D03*
Y98022D02*
D03*
Y99991D02*
D03*
Y101959D02*
D03*
D62*
X154087Y85732D02*
D03*
Y90732D02*
D03*
X173378Y85732D02*
D03*
X154087Y75732D02*
D03*
Y80732D02*
D03*
D63*
X164220Y162760D02*
D03*
X152220D02*
D03*
X132755Y162760D02*
D03*
X144755D02*
D03*
X136587Y150924D02*
D03*
X148587D02*
D03*
X156000Y117500D02*
D03*
X144000D02*
D03*
X93185Y150924D02*
D03*
X105185D02*
D03*
X123761Y162760D02*
D03*
X111761D02*
D03*
X93165D02*
D03*
X105165D02*
D03*
X113886Y117292D02*
D03*
X101886D02*
D03*
D64*
X87525Y120240D02*
D03*
X93430D02*
D03*
X271597Y114121D02*
D03*
X277502D02*
D03*
X170922Y303508D02*
D03*
X165017D02*
D03*
X170949Y309413D02*
D03*
X165044D02*
D03*
D65*
X243260Y260398D02*
D03*
X244834D02*
D03*
X246410D02*
D03*
X247983D02*
D03*
X249558D02*
D03*
X251133D02*
D03*
Y272210D02*
D03*
X249558D02*
D03*
X247983D02*
D03*
X246410D02*
D03*
X244834D02*
D03*
X243260D02*
D03*
X239991Y238529D02*
D03*
X241566D02*
D03*
X243141D02*
D03*
X244715D02*
D03*
X246290D02*
D03*
X247865D02*
D03*
Y250341D02*
D03*
X246290D02*
D03*
X244715D02*
D03*
X243141D02*
D03*
X241566D02*
D03*
X239991D02*
D03*
D66*
X253102Y262367D02*
D03*
Y263942D02*
D03*
Y265517D02*
D03*
Y267091D02*
D03*
Y268666D02*
D03*
Y270241D02*
D03*
X241290D02*
D03*
Y268666D02*
D03*
Y267091D02*
D03*
Y265517D02*
D03*
Y263942D02*
D03*
Y262367D02*
D03*
X238022Y248372D02*
D03*
Y246797D02*
D03*
Y245222D02*
D03*
Y243648D02*
D03*
Y242073D02*
D03*
Y240498D02*
D03*
X249834D02*
D03*
Y242073D02*
D03*
Y243648D02*
D03*
Y245222D02*
D03*
Y246797D02*
D03*
Y248372D02*
D03*
D67*
X232531Y216106D02*
D03*
Y214138D02*
D03*
Y212169D02*
D03*
Y210201D02*
D03*
Y208232D02*
D03*
Y206264D02*
D03*
X247689D02*
D03*
Y208232D02*
D03*
Y210201D02*
D03*
Y212169D02*
D03*
Y214138D02*
D03*
Y216106D02*
D03*
D68*
X235189Y203606D02*
D03*
X237158D02*
D03*
X239126D02*
D03*
X241094D02*
D03*
X243063D02*
D03*
X245031D02*
D03*
Y218764D02*
D03*
X243063D02*
D03*
X241094D02*
D03*
X239126D02*
D03*
X237158D02*
D03*
X235189D02*
D03*
D69*
X89736Y138670D02*
D03*
Y129370D02*
D03*
X133138Y138670D02*
D03*
Y129370D02*
D03*
D70*
X120852Y121592D02*
D03*
X128351D02*
D03*
D71*
X124601Y113593D02*
D03*
D72*
X216000Y175854D02*
D03*
X221000D02*
D03*
X226000D02*
D03*
X231000D02*
D03*
X236000D02*
D03*
Y160500D02*
D03*
X231000D02*
D03*
X226000D02*
D03*
X221000D02*
D03*
X216000D02*
D03*
D73*
X191882Y286440D02*
D03*
X191882Y296676D02*
D03*
X195622D02*
D03*
X188142Y286440D02*
D03*
X195622D02*
D03*
X188142Y296676D02*
D03*
D74*
X191882Y291558D02*
D03*
D75*
X196803Y265909D02*
D03*
X212551D02*
D03*
X196803Y256461D02*
D03*
X212551D02*
D03*
D76*
X115953Y225750D02*
D03*
X113394D02*
D03*
X110835D02*
D03*
X108276D02*
D03*
X105717D02*
D03*
X103158D02*
D03*
X100599D02*
D03*
X98040D02*
D03*
X115953Y202521D02*
D03*
X113394D02*
D03*
X110835D02*
D03*
X108276D02*
D03*
X105717D02*
D03*
X103158D02*
D03*
X100599D02*
D03*
X98040D02*
D03*
D77*
X106996Y214135D02*
D03*
D78*
X177531Y105807D02*
D03*
D79*
X172413Y102067D02*
D03*
X182649Y109547D02*
D03*
Y102067D02*
D03*
X172413Y109547D02*
D03*
Y105807D02*
D03*
X182649Y105807D02*
D03*
D80*
X218411Y288056D02*
D03*
Y290615D02*
D03*
Y293174D02*
D03*
X225892D02*
D03*
Y288056D02*
D03*
D81*
X90898Y201933D02*
D03*
Y196028D02*
D03*
X29985Y312613D02*
D03*
Y318519D02*
D03*
X194244Y99965D02*
D03*
Y94059D02*
D03*
D82*
X203559Y117297D02*
D03*
Y109797D02*
D03*
X216641Y139713D02*
D03*
Y132213D02*
D03*
D83*
X195559Y113547D02*
D03*
X224641Y135963D02*
D03*
D84*
X245425Y125752D02*
D03*
X230858D02*
D03*
D85*
X173378Y75732D02*
D03*
Y80732D02*
D03*
Y90732D02*
D03*
D86*
X209205Y143429D02*
D03*
X174165D02*
D03*
X209205Y153429D02*
D03*
X174165D02*
D03*
X209205Y163429D02*
D03*
X174165D02*
D03*
X209205Y173429D02*
D03*
X174165D02*
D03*
D87*
X243752Y296619D02*
D03*
X246311D02*
D03*
X238634D02*
D03*
X241193D02*
D03*
Y288548D02*
D03*
X238634D02*
D03*
X246311D02*
D03*
X243752D02*
D03*
D88*
X98184Y263154D02*
D03*
X95624D02*
D03*
X93065D02*
D03*
X90506D02*
D03*
X98184Y249768D02*
D03*
X95624D02*
D03*
X93065D02*
D03*
X90506D02*
D03*
M02*
