G04*
G04 #@! TF.GenerationSoftware,Altium Limited,Altium Designer,19.0.10 (269)*
G04*
G04 Layer_Color=16711935*
%FSLAX25Y25*%
%MOIN*%
G70*
G01*
G75*
%ADD100R,0.03753X0.03950*%
%ADD101R,0.03950X0.03753*%
%ADD118R,0.03950X0.01784*%
%ADD119R,0.01784X0.03950*%
%ADD120R,0.11430X0.11430*%
%ADD121R,0.14200X0.04600*%
%ADD140O,0.01981X0.07099*%
%ADD141C,0.07887*%
%ADD142R,0.06706X0.06706*%
%ADD143C,0.06706*%
%ADD144C,0.22800*%
%ADD145O,0.08674X0.07887*%
%ADD146C,0.08674*%
%ADD147R,0.08674X0.08674*%
%ADD148R,0.06706X0.06706*%
%ADD149C,0.00800*%
%ADD150C,0.05524*%
%ADD151C,0.03398*%
%ADD152O,0.03084X0.04737*%
%ADD153C,0.09800*%
%ADD154O,0.07300X0.08674*%
%ADD155O,0.06300X0.07800*%
%ADD156C,0.03556*%
%ADD246R,0.03005X0.02847*%
%ADD247R,0.02572X0.02572*%
%ADD248R,0.02572X0.02572*%
%ADD249R,0.08005X0.05288*%
%ADD250R,0.05131X0.03556*%
%ADD251R,0.13910X0.03556*%
%ADD252R,0.11824X0.04186*%
%ADD253R,0.04461X0.04343*%
%ADD254R,0.03871X0.04934*%
%ADD255R,0.02800X0.03950*%
%ADD256R,0.12800X0.04800*%
%ADD257R,0.07200X0.07800*%
%ADD258R,0.03950X0.02600*%
%ADD259R,0.03950X0.02800*%
%ADD260R,0.04343X0.03950*%
%ADD261R,0.03950X0.04343*%
%ADD262R,0.04343X0.07493*%
%ADD263R,0.07493X0.04343*%
%ADD264R,0.06706X0.04343*%
%ADD265R,0.16548X0.16548*%
D100*
X207138Y47205D02*
D03*
X212846D02*
D03*
X253988Y97190D02*
D03*
X248280D02*
D03*
X253988Y92500D02*
D03*
X248280D02*
D03*
X159472Y110200D02*
D03*
X153764D02*
D03*
X133354Y69521D02*
D03*
X127646D02*
D03*
X133354Y64519D02*
D03*
X127646D02*
D03*
X134303Y44340D02*
D03*
X128595D02*
D03*
Y49374D02*
D03*
X134303D02*
D03*
X159315Y126546D02*
D03*
X153606D02*
D03*
X137650Y192287D02*
D03*
X131941D02*
D03*
X137650Y197351D02*
D03*
X131941D02*
D03*
D101*
X179480Y97119D02*
D03*
Y102828D02*
D03*
X142197Y115146D02*
D03*
Y120854D02*
D03*
X149634Y109118D02*
D03*
Y114827D02*
D03*
X174632Y185563D02*
D03*
Y179854D02*
D03*
X175135Y197504D02*
D03*
Y191795D02*
D03*
D118*
X161567Y96976D02*
D03*
Y95007D02*
D03*
Y93039D02*
D03*
Y91070D02*
D03*
Y89102D02*
D03*
Y87133D02*
D03*
X146409D02*
D03*
Y89102D02*
D03*
Y91070D02*
D03*
Y93039D02*
D03*
Y95007D02*
D03*
Y96976D02*
D03*
D119*
X158909Y84476D02*
D03*
X156941D02*
D03*
X154972D02*
D03*
X153004D02*
D03*
X151035D02*
D03*
X149067D02*
D03*
Y99633D02*
D03*
X151035D02*
D03*
X153004D02*
D03*
X154972D02*
D03*
X156941D02*
D03*
X158909D02*
D03*
D120*
X153988Y92054D02*
D03*
D121*
X118500Y95905D02*
D03*
Y105205D02*
D03*
D140*
X185189Y102510D02*
D03*
X187748D02*
D03*
X190307D02*
D03*
X192866D02*
D03*
X185189Y89124D02*
D03*
X187748D02*
D03*
X190307D02*
D03*
X192866D02*
D03*
D141*
X95091Y175358D02*
D03*
X104933D02*
D03*
X138744D02*
D03*
X148587D02*
D03*
D142*
X187039Y333583D02*
D03*
X90000Y313500D02*
D03*
X184484Y74000D02*
D03*
X100478Y76146D02*
D03*
X179165Y313154D02*
D03*
X97000Y353500D02*
D03*
D143*
X177039Y333583D02*
D03*
X157039D02*
D03*
X147039D02*
D03*
X137039D02*
D03*
X167039D02*
D03*
X140000Y313500D02*
D03*
X130000D02*
D03*
X120000D02*
D03*
X110000D02*
D03*
X100000D02*
D03*
X43500Y74500D02*
D03*
X33500D02*
D03*
Y254500D02*
D03*
Y234500D02*
D03*
Y84500D02*
D03*
Y224500D02*
D03*
Y214500D02*
D03*
Y204500D02*
D03*
Y194500D02*
D03*
Y184500D02*
D03*
Y244500D02*
D03*
Y174500D02*
D03*
Y164500D02*
D03*
Y154500D02*
D03*
Y144500D02*
D03*
X33500Y134500D02*
D03*
X33500Y124500D02*
D03*
Y114500D02*
D03*
Y104500D02*
D03*
Y94500D02*
D03*
X43500D02*
D03*
Y104500D02*
D03*
Y114500D02*
D03*
Y124500D02*
D03*
X43500Y134500D02*
D03*
X43500Y144500D02*
D03*
Y154500D02*
D03*
Y164500D02*
D03*
Y174500D02*
D03*
Y244500D02*
D03*
Y184500D02*
D03*
Y194500D02*
D03*
Y204500D02*
D03*
Y214500D02*
D03*
Y224500D02*
D03*
Y84500D02*
D03*
Y234500D02*
D03*
Y254500D02*
D03*
Y264500D02*
D03*
X125000Y278000D02*
D03*
Y268000D02*
D03*
X194484Y74000D02*
D03*
X262050Y54000D02*
D03*
Y64000D02*
D03*
X272050Y54000D02*
D03*
Y64000D02*
D03*
X242050Y54000D02*
D03*
Y64000D02*
D03*
X252050Y54000D02*
D03*
Y64000D02*
D03*
X222050Y54000D02*
D03*
Y64000D02*
D03*
X232050Y54000D02*
D03*
Y64000D02*
D03*
X202050Y54000D02*
D03*
X212050D02*
D03*
Y64000D02*
D03*
X192050Y54000D02*
D03*
X182050Y64000D02*
D03*
Y54000D02*
D03*
X90478Y76146D02*
D03*
X229165Y313154D02*
D03*
X219165D02*
D03*
X209165D02*
D03*
X199165D02*
D03*
X189165D02*
D03*
X207000Y353500D02*
D03*
X197000D02*
D03*
X107000D02*
D03*
X127000D02*
D03*
X137000D02*
D03*
X147000D02*
D03*
X157000D02*
D03*
X167000D02*
D03*
X177000D02*
D03*
X187000D02*
D03*
X117000D02*
D03*
D144*
X68713Y55262D02*
D03*
X159264Y55262D02*
D03*
Y283608D02*
D03*
X68713D02*
D03*
D145*
X63850Y74435D02*
D03*
Y84435D02*
D03*
Y94435D02*
D03*
Y104435D02*
D03*
Y114435D02*
D03*
Y124435D02*
D03*
Y134435D02*
D03*
Y144435D02*
D03*
Y154435D02*
D03*
Y164435D02*
D03*
Y174435D02*
D03*
Y184435D02*
D03*
Y194435D02*
D03*
Y204435D02*
D03*
Y214435D02*
D03*
Y224435D02*
D03*
Y234435D02*
D03*
Y244435D02*
D03*
Y254435D02*
D03*
X73850Y224435D02*
D03*
Y234435D02*
D03*
Y244435D02*
D03*
D146*
X63850Y264435D02*
D03*
X73850Y74435D02*
D03*
Y84435D02*
D03*
Y94435D02*
D03*
Y104435D02*
D03*
Y114435D02*
D03*
Y124435D02*
D03*
Y134435D02*
D03*
Y144435D02*
D03*
Y154435D02*
D03*
Y164435D02*
D03*
Y174435D02*
D03*
Y184435D02*
D03*
Y194435D02*
D03*
Y204435D02*
D03*
Y214435D02*
D03*
Y254435D02*
D03*
X140661Y78035D02*
D03*
X130661D02*
D03*
X120661D02*
D03*
X106803Y54886D02*
D03*
X96803D02*
D03*
D147*
X73850Y264435D02*
D03*
D148*
X33500Y264500D02*
D03*
X125000Y288000D02*
D03*
D149*
X38811Y55262D02*
D03*
Y283609D02*
D03*
X250430Y343410D02*
D03*
X210976Y95380D02*
D03*
X53570Y343410D02*
D03*
X92866Y95380D02*
D03*
X53570Y315851D02*
D03*
X250430D02*
D03*
D150*
X260898Y81684D02*
D03*
Y100582D02*
D03*
X277827Y81684D02*
D03*
Y100582D02*
D03*
D151*
X269362Y105896D02*
D03*
D152*
Y76369D02*
D03*
D153*
X140661Y58035D02*
D03*
X120661D02*
D03*
D154*
X86803Y54886D02*
D03*
D155*
X202050Y64000D02*
D03*
X192050D02*
D03*
D156*
X196947Y221142D02*
D03*
X189500Y209336D02*
D03*
X185982Y205000D02*
D03*
X186568Y214236D02*
D03*
X197197Y214500D02*
D03*
X143944Y99741D02*
D03*
X26000Y43000D02*
D03*
X278500Y45500D02*
D03*
X276030Y42500D02*
D03*
X261500Y72053D02*
D03*
X261462Y75732D02*
D03*
X264872Y77435D02*
D03*
X274715Y105339D02*
D03*
X264000Y105127D02*
D03*
X245105Y196353D02*
D03*
X165110Y212980D02*
D03*
X134303Y235000D02*
D03*
X132500Y229739D02*
D03*
X210000Y209336D02*
D03*
X205500Y212169D02*
D03*
X154500Y341305D02*
D03*
X149845D02*
D03*
D246*
X255519Y78214D02*
D03*
Y81284D02*
D03*
D247*
X251868Y81462D02*
D03*
Y78313D02*
D03*
X125401Y196971D02*
D03*
Y200121D02*
D03*
D248*
X265400Y49000D02*
D03*
X268549D02*
D03*
X268583Y67594D02*
D03*
X265433D02*
D03*
D249*
X266141Y193165D02*
D03*
D250*
X266488Y208542D02*
D03*
Y212873D02*
D03*
Y221535D02*
D03*
Y217204D02*
D03*
Y230196D02*
D03*
Y225865D02*
D03*
Y238857D02*
D03*
Y234527D02*
D03*
D251*
X222197Y192893D02*
D03*
X222197Y244074D02*
D03*
D252*
X264421Y242991D02*
D03*
D253*
X217472Y201357D02*
D03*
D254*
X217177Y218483D02*
D03*
D255*
X159349Y78114D02*
D03*
X165057D02*
D03*
X165012Y73655D02*
D03*
X159303D02*
D03*
X155041Y78173D02*
D03*
X149332D02*
D03*
X149431Y73783D02*
D03*
X155140D02*
D03*
D256*
X136173Y103026D02*
D03*
Y91026D02*
D03*
D257*
X86954Y65481D02*
D03*
X100354D02*
D03*
D258*
X125543Y89774D02*
D03*
D259*
Y84066D02*
D03*
D260*
X179232Y200358D02*
D03*
X187106Y197799D02*
D03*
X179232Y195240D02*
D03*
D261*
X137354Y202563D02*
D03*
X134795Y210437D02*
D03*
X132236Y202563D02*
D03*
D262*
X249559Y187563D02*
D03*
X244559D02*
D03*
X239559D02*
D03*
X234559D02*
D03*
X229559D02*
D03*
X224559D02*
D03*
X219559D02*
D03*
X214559D02*
D03*
X209559D02*
D03*
X204559D02*
D03*
X199559D02*
D03*
X194559D02*
D03*
X189559D02*
D03*
X184559D02*
D03*
Y116697D02*
D03*
X189559D02*
D03*
X194559D02*
D03*
X199559D02*
D03*
X204559D02*
D03*
X209559D02*
D03*
X214559D02*
D03*
X219559D02*
D03*
X224559D02*
D03*
X229559D02*
D03*
X234559D02*
D03*
X239559D02*
D03*
X244559D02*
D03*
X249559D02*
D03*
D263*
X178654Y174630D02*
D03*
Y154630D02*
D03*
Y149630D02*
D03*
Y144630D02*
D03*
Y139630D02*
D03*
Y134630D02*
D03*
Y129630D02*
D03*
D264*
Y169630D02*
D03*
Y164630D02*
D03*
Y159630D02*
D03*
D265*
X220386Y149374D02*
D03*
M02*
