G04*
G04 #@! TF.GenerationSoftware,Altium Limited,Altium Designer,21.0.8 (223)*
G04*
G04 Layer_Color=8421504*
%FSLAX25Y25*%
%MOIN*%
G70*
G04*
G04 #@! TF.SameCoordinates,C8F2EFAD-F301-47D2-81E3-A82B1A8C5C35*
G04*
G04*
G04 #@! TF.FilePolarity,Positive*
G04*
G01*
G75*
%ADD37R,0.03150X0.02362*%
%ADD38R,0.02370X0.00980*%
%ADD39R,0.02270X0.00980*%
%ADD40R,0.03543X0.02559*%
%ADD41R,0.03150X0.03150*%
%ADD42R,0.03150X0.02953*%
%ADD43R,0.02953X0.03150*%
%ADD44R,0.05709X0.10039*%
%ADD45R,0.07087X0.04724*%
G04:AMPARAMS|DCode=46|XSize=9.84mil|YSize=23.62mil|CornerRadius=4.92mil|HoleSize=0mil|Usage=FLASHONLY|Rotation=90.000|XOffset=0mil|YOffset=0mil|HoleType=Round|Shape=RoundedRectangle|*
%AMROUNDEDRECTD46*
21,1,0.00984,0.01378,0,0,90.0*
21,1,0.00000,0.02362,0,0,90.0*
1,1,0.00984,0.00689,0.00000*
1,1,0.00984,0.00689,0.00000*
1,1,0.00984,-0.00689,0.00000*
1,1,0.00984,-0.00689,0.00000*
%
%ADD46ROUNDEDRECTD46*%
%ADD47O,0.01181X0.06299*%
%ADD48R,0.01968X0.01772*%
G04:AMPARAMS|DCode=49|XSize=68.9mil|YSize=98.43mil|CornerRadius=3.45mil|HoleSize=0mil|Usage=FLASHONLY|Rotation=180.000|XOffset=0mil|YOffset=0mil|HoleType=Round|Shape=RoundedRectangle|*
%AMROUNDEDRECTD49*
21,1,0.06890,0.09153,0,0,180.0*
21,1,0.06201,0.09843,0,0,180.0*
1,1,0.00689,-0.03100,0.04577*
1,1,0.00689,0.03100,0.04577*
1,1,0.00689,0.03100,-0.04577*
1,1,0.00689,-0.03100,-0.04577*
%
%ADD49ROUNDEDRECTD49*%
%ADD50R,0.01772X0.01968*%
G04:AMPARAMS|DCode=51|XSize=68.9mil|YSize=98.43mil|CornerRadius=3.45mil|HoleSize=0mil|Usage=FLASHONLY|Rotation=90.000|XOffset=0mil|YOffset=0mil|HoleType=Round|Shape=RoundedRectangle|*
%AMROUNDEDRECTD51*
21,1,0.06890,0.09153,0,0,90.0*
21,1,0.06201,0.09843,0,0,90.0*
1,1,0.00689,0.04577,0.03100*
1,1,0.00689,0.04577,-0.03100*
1,1,0.00689,-0.04577,-0.03100*
1,1,0.00689,-0.04577,0.03100*
%
%ADD51ROUNDEDRECTD51*%
%ADD52O,0.01102X0.03150*%
%ADD53R,0.12953X0.09488*%
%ADD54O,0.01772X0.05512*%
%ADD55O,0.06299X0.01181*%
%ADD56R,0.02756X0.01575*%
%ADD57R,0.01378X0.01968*%
G04:AMPARAMS|DCode=58|XSize=23.62mil|YSize=9.06mil|CornerRadius=4.53mil|HoleSize=0mil|Usage=FLASHONLY|Rotation=0.000|XOffset=0mil|YOffset=0mil|HoleType=Round|Shape=RoundedRectangle|*
%AMROUNDEDRECTD58*
21,1,0.02362,0.00000,0,0,0.0*
21,1,0.01456,0.00906,0,0,0.0*
1,1,0.00906,0.00728,0.00000*
1,1,0.00906,-0.00728,0.00000*
1,1,0.00906,-0.00728,0.00000*
1,1,0.00906,0.00728,0.00000*
%
%ADD58ROUNDEDRECTD58*%
G04:AMPARAMS|DCode=59|XSize=23.62mil|YSize=9.06mil|CornerRadius=4.53mil|HoleSize=0mil|Usage=FLASHONLY|Rotation=270.000|XOffset=0mil|YOffset=0mil|HoleType=Round|Shape=RoundedRectangle|*
%AMROUNDEDRECTD59*
21,1,0.02362,0.00000,0,0,270.0*
21,1,0.01456,0.00906,0,0,270.0*
1,1,0.00906,0.00000,-0.00728*
1,1,0.00906,0.00000,0.00728*
1,1,0.00906,0.00000,0.00728*
1,1,0.00906,0.00000,-0.00728*
%
%ADD59ROUNDEDRECTD59*%
%ADD60O,0.01181X0.07087*%
%ADD61O,0.07087X0.01181*%
%ADD62R,0.08000X0.05500*%
%ADD63R,0.05906X0.04331*%
%ADD64R,0.03150X0.06693*%
%ADD65R,0.06693X0.03150*%
%ADD66R,0.06400X0.07000*%
%ADD67R,0.03600X0.03600*%
%ADD68R,0.03600X0.05000*%
%ADD69R,0.03600X0.03600*%
%ADD70R,0.05000X0.03600*%
%ADD71R,0.02992X0.09449*%
%ADD72R,0.13400X0.03800*%
%ADD73R,0.03347X0.01181*%
%ADD74R,0.03900X0.04000*%
%ADD75R,0.03150X0.03150*%
%ADD76R,0.02165X0.03347*%
%ADD77R,0.06693X0.03937*%
%ADD78R,0.06693X0.03937*%
%ADD79R,0.04724X0.05906*%
%ADD80R,0.05500X0.10236*%
%ADD81R,0.07000X0.06400*%
%ADD82R,0.05400X0.12000*%
%ADD83R,0.01350X0.05315*%
%ADD84R,0.05315X0.01350*%
%ADD85O,0.09843X0.02756*%
%ADD86O,0.09449X0.02756*%
D37*
X86961Y291865D02*
D03*
Y295015D02*
D03*
D38*
X156639Y133204D02*
D03*
Y134779D02*
D03*
Y131635D02*
D03*
Y136354D02*
D03*
X113222Y133403D02*
D03*
Y134978D02*
D03*
Y131833D02*
D03*
Y136553D02*
D03*
D39*
X145019Y136354D02*
D03*
Y131635D02*
D03*
Y134779D02*
D03*
Y133204D02*
D03*
X101602Y136553D02*
D03*
Y131833D02*
D03*
Y134978D02*
D03*
Y133403D02*
D03*
D40*
X153059Y135778D02*
D03*
X153059Y132211D02*
D03*
X148650Y132211D02*
D03*
X148650Y135778D02*
D03*
X109642Y135976D02*
D03*
X109642Y132410D02*
D03*
X105232Y132410D02*
D03*
X105232Y135976D02*
D03*
D41*
X219909Y136921D02*
D03*
X214003D02*
D03*
X198817Y132150D02*
D03*
X204723D02*
D03*
X87525Y120240D02*
D03*
X93430D02*
D03*
X167492Y260365D02*
D03*
X173397D02*
D03*
X167465Y254459D02*
D03*
X173370D02*
D03*
X276670Y119707D02*
D03*
X270765D02*
D03*
D42*
X214028Y127494D02*
D03*
Y133203D02*
D03*
X208969Y126908D02*
D03*
Y132616D02*
D03*
X266211Y115520D02*
D03*
Y121228D02*
D03*
X29985Y301047D02*
D03*
Y306756D02*
D03*
X128351Y180575D02*
D03*
Y174866D02*
D03*
X205858Y296578D02*
D03*
Y290869D02*
D03*
X165701Y122504D02*
D03*
Y128213D02*
D03*
X122830Y147514D02*
D03*
Y153222D02*
D03*
X117712D02*
D03*
Y147514D02*
D03*
X112594D02*
D03*
Y153222D02*
D03*
X84205Y200850D02*
D03*
Y206559D02*
D03*
X84214Y197504D02*
D03*
Y191795D02*
D03*
X168797Y347534D02*
D03*
Y341825D02*
D03*
X243601Y152347D02*
D03*
Y146638D02*
D03*
X248017Y152169D02*
D03*
Y146460D02*
D03*
X194244Y111386D02*
D03*
Y105677D02*
D03*
X223000Y218590D02*
D03*
Y212881D02*
D03*
X164085Y176638D02*
D03*
Y170929D02*
D03*
X171561Y122515D02*
D03*
Y128223D02*
D03*
X166656Y115323D02*
D03*
Y109614D02*
D03*
X182649Y290869D02*
D03*
Y296578D02*
D03*
X231000Y293209D02*
D03*
Y287500D02*
D03*
X160500Y133646D02*
D03*
Y139354D02*
D03*
X183456Y81388D02*
D03*
Y87097D02*
D03*
X112157Y189433D02*
D03*
Y195142D02*
D03*
X101528D02*
D03*
Y189433D02*
D03*
X185189Y248636D02*
D03*
Y242927D02*
D03*
X208811Y344597D02*
D03*
Y338888D02*
D03*
X76000Y327646D02*
D03*
Y333354D02*
D03*
X256252Y300260D02*
D03*
Y294551D02*
D03*
X251134Y300260D02*
D03*
Y294551D02*
D03*
X258308Y241784D02*
D03*
Y247493D02*
D03*
X258592Y257534D02*
D03*
Y251825D02*
D03*
X262513Y257534D02*
D03*
Y251825D02*
D03*
X247814Y237213D02*
D03*
Y231504D02*
D03*
X243484Y237213D02*
D03*
Y231504D02*
D03*
X220005Y145954D02*
D03*
Y140245D02*
D03*
X165049Y236087D02*
D03*
Y230378D02*
D03*
X212179Y185102D02*
D03*
Y190811D02*
D03*
X200799Y290911D02*
D03*
Y296619D02*
D03*
X217295Y237646D02*
D03*
Y231937D02*
D03*
X160189Y236087D02*
D03*
Y230378D02*
D03*
X222394Y237465D02*
D03*
Y231756D02*
D03*
X219638Y258509D02*
D03*
Y264218D02*
D03*
X189988Y264245D02*
D03*
Y258537D02*
D03*
X236862Y270021D02*
D03*
Y275729D02*
D03*
X227778Y231120D02*
D03*
Y236829D02*
D03*
X252841Y215740D02*
D03*
Y221449D02*
D03*
X248195Y221545D02*
D03*
Y227253D02*
D03*
X158500Y149139D02*
D03*
Y143430D02*
D03*
D43*
X270666Y115542D02*
D03*
X276375D02*
D03*
X256359Y92801D02*
D03*
X250650D02*
D03*
X236959Y92313D02*
D03*
X242668D02*
D03*
X239373Y88180D02*
D03*
X245082D02*
D03*
X174346Y115909D02*
D03*
X180054D02*
D03*
X137650Y190516D02*
D03*
X143358D02*
D03*
X182531Y132839D02*
D03*
X176823D02*
D03*
X132925Y121500D02*
D03*
X138634D02*
D03*
X138854Y113500D02*
D03*
X133146D02*
D03*
X87376Y113439D02*
D03*
X93085D02*
D03*
X122157Y225087D02*
D03*
X127866D02*
D03*
X241001Y303311D02*
D03*
X235293D02*
D03*
X249190Y282445D02*
D03*
X243482D02*
D03*
X249185Y277023D02*
D03*
X243476D02*
D03*
X262497Y247406D02*
D03*
X268206D02*
D03*
X204625Y124644D02*
D03*
X198916D02*
D03*
X188240Y89464D02*
D03*
X193949D02*
D03*
X278354Y234500D02*
D03*
X272646D02*
D03*
X278354Y213000D02*
D03*
X272646D02*
D03*
X278354Y217500D02*
D03*
X272646D02*
D03*
X278354Y226000D02*
D03*
X272646D02*
D03*
X163523Y260365D02*
D03*
X157814D02*
D03*
X163472Y254459D02*
D03*
X157763D02*
D03*
X237384Y185424D02*
D03*
X243093D02*
D03*
X227646Y242144D02*
D03*
X233354D02*
D03*
X276409Y123904D02*
D03*
X270700D02*
D03*
X88437Y227917D02*
D03*
X82728D02*
D03*
X136469Y210398D02*
D03*
X142177D02*
D03*
X180347Y96520D02*
D03*
X174639D02*
D03*
X122492Y139807D02*
D03*
X116783D02*
D03*
X136469Y215516D02*
D03*
X142177D02*
D03*
X224176Y284020D02*
D03*
X218467D02*
D03*
X262729Y269406D02*
D03*
X257020D02*
D03*
X258935Y282445D02*
D03*
X253226D02*
D03*
X258935Y277023D02*
D03*
X253226D02*
D03*
X257020Y221449D02*
D03*
X262729D02*
D03*
X257020Y216344D02*
D03*
X262729D02*
D03*
X250646Y100605D02*
D03*
X256354D02*
D03*
X250650Y84927D02*
D03*
X256359D02*
D03*
X250650Y88864D02*
D03*
X256359D02*
D03*
X271311Y194534D02*
D03*
X265602D02*
D03*
X271311Y199374D02*
D03*
X265602D02*
D03*
X163893Y193181D02*
D03*
X169601D02*
D03*
X260911Y264908D02*
D03*
X266620D02*
D03*
X242968Y195964D02*
D03*
X248676D02*
D03*
X207788Y184435D02*
D03*
X202080D02*
D03*
X165508Y199079D02*
D03*
X159799D02*
D03*
D44*
X244854Y78705D02*
D03*
X230287D02*
D03*
D45*
X212551Y256461D02*
D03*
X196803D02*
D03*
X212551Y265909D02*
D03*
X196803D02*
D03*
D46*
X83220Y296393D02*
D03*
Y294425D02*
D03*
Y292456D02*
D03*
Y290488D02*
D03*
X90701D02*
D03*
Y292456D02*
D03*
Y294425D02*
D03*
Y296393D02*
D03*
D47*
X90506Y249768D02*
D03*
X93065D02*
D03*
X95624D02*
D03*
X98184D02*
D03*
X90506Y263154D02*
D03*
X93065D02*
D03*
X95624D02*
D03*
X98184D02*
D03*
D48*
X182649Y105807D02*
D03*
X172413Y105807D02*
D03*
Y109547D02*
D03*
X182649Y102067D02*
D03*
Y109547D02*
D03*
X172413Y102067D02*
D03*
D49*
X177531Y105807D02*
D03*
D50*
X191882Y286440D02*
D03*
X191882Y296676D02*
D03*
X195622D02*
D03*
X188142Y286440D02*
D03*
X195622D02*
D03*
X188142Y296676D02*
D03*
X257694Y236758D02*
D03*
X257694Y226522D02*
D03*
X253954D02*
D03*
X261434Y236758D02*
D03*
X253954D02*
D03*
X261434Y226522D02*
D03*
D51*
X191882Y291558D02*
D03*
X257694Y231640D02*
D03*
D52*
X146917Y128187D02*
D03*
X148886D02*
D03*
X150854D02*
D03*
X152823D02*
D03*
X154791D02*
D03*
Y139802D02*
D03*
X152823D02*
D03*
X150854D02*
D03*
X148886D02*
D03*
X146917D02*
D03*
X103500Y128386D02*
D03*
X105468D02*
D03*
X107437D02*
D03*
X109406D02*
D03*
X111374D02*
D03*
Y140000D02*
D03*
X109406D02*
D03*
X107437D02*
D03*
X105468D02*
D03*
X103500D02*
D03*
D53*
X106996Y214135D02*
D03*
D54*
X98040Y202521D02*
D03*
X100599D02*
D03*
X103158D02*
D03*
X105717D02*
D03*
X108276D02*
D03*
X110835D02*
D03*
X113394D02*
D03*
X115953D02*
D03*
X98040Y225750D02*
D03*
X100599D02*
D03*
X103158D02*
D03*
X105717D02*
D03*
X108276D02*
D03*
X110835D02*
D03*
X113394D02*
D03*
X115953D02*
D03*
D55*
X159693Y339592D02*
D03*
Y342151D02*
D03*
Y344710D02*
D03*
Y347269D02*
D03*
X146307Y339592D02*
D03*
Y342151D02*
D03*
Y344710D02*
D03*
Y347269D02*
D03*
X249193Y203161D02*
D03*
Y205720D02*
D03*
Y208279D02*
D03*
Y210839D02*
D03*
X235807Y203161D02*
D03*
Y205720D02*
D03*
Y208279D02*
D03*
Y210839D02*
D03*
D56*
X225892Y288056D02*
D03*
Y293174D02*
D03*
X218411D02*
D03*
Y290615D02*
D03*
Y288056D02*
D03*
D57*
X243752Y288548D02*
D03*
X246311D02*
D03*
X238634D02*
D03*
X241193D02*
D03*
Y296619D02*
D03*
X238634D02*
D03*
X246311D02*
D03*
X243752D02*
D03*
D58*
X241290Y262367D02*
D03*
Y263942D02*
D03*
Y265517D02*
D03*
Y267091D02*
D03*
Y268666D02*
D03*
Y270241D02*
D03*
X253102D02*
D03*
Y268666D02*
D03*
Y267091D02*
D03*
Y265517D02*
D03*
Y263942D02*
D03*
Y262367D02*
D03*
X250740Y243468D02*
D03*
Y245043D02*
D03*
Y246619D02*
D03*
Y248193D02*
D03*
Y249767D02*
D03*
Y251343D02*
D03*
X238928D02*
D03*
Y249767D02*
D03*
Y248193D02*
D03*
Y246619D02*
D03*
Y245043D02*
D03*
Y243468D02*
D03*
D59*
X243260Y272210D02*
D03*
X244834D02*
D03*
X246410D02*
D03*
X247983D02*
D03*
X249558D02*
D03*
X251133D02*
D03*
Y260398D02*
D03*
X249558D02*
D03*
X247983D02*
D03*
X246410D02*
D03*
X244834D02*
D03*
X243260D02*
D03*
X240897Y241499D02*
D03*
X242472D02*
D03*
X244047D02*
D03*
X245621D02*
D03*
X247196D02*
D03*
X248771D02*
D03*
Y253311D02*
D03*
X247196D02*
D03*
X245621D02*
D03*
X244047D02*
D03*
X242472D02*
D03*
X240897D02*
D03*
D60*
X247538Y101445D02*
D03*
X245570D02*
D03*
X243601D02*
D03*
X241633D02*
D03*
X239664D02*
D03*
X237696D02*
D03*
X235727D02*
D03*
X233759D02*
D03*
X231790D02*
D03*
X229822D02*
D03*
X227853D02*
D03*
X225885D02*
D03*
Y133335D02*
D03*
X227853D02*
D03*
X229822D02*
D03*
X231790D02*
D03*
X233759D02*
D03*
X235727D02*
D03*
X237696D02*
D03*
X239664D02*
D03*
X241633D02*
D03*
X243601D02*
D03*
X245570D02*
D03*
X247538D02*
D03*
D61*
X220767Y106563D02*
D03*
Y108531D02*
D03*
Y110500D02*
D03*
Y112469D02*
D03*
Y114437D02*
D03*
Y116405D02*
D03*
Y118374D02*
D03*
Y120343D02*
D03*
Y122311D02*
D03*
Y124279D02*
D03*
Y126248D02*
D03*
Y128217D02*
D03*
X252656D02*
D03*
Y126248D02*
D03*
Y124279D02*
D03*
Y122311D02*
D03*
Y120343D02*
D03*
Y118374D02*
D03*
Y116405D02*
D03*
Y114437D02*
D03*
Y112469D02*
D03*
Y110500D02*
D03*
Y108531D02*
D03*
Y106563D02*
D03*
D62*
X111761Y103883D02*
D03*
Y86083D02*
D03*
X137000Y105235D02*
D03*
Y87435D02*
D03*
D63*
X174165Y173429D02*
D03*
X209205D02*
D03*
X174165Y163429D02*
D03*
X209205D02*
D03*
X174165Y153429D02*
D03*
X209205D02*
D03*
X174165Y143429D02*
D03*
X209205D02*
D03*
D64*
X276055Y131891D02*
D03*
X262669D02*
D03*
D65*
X152243Y233331D02*
D03*
Y246717D02*
D03*
X275000Y267091D02*
D03*
Y253705D02*
D03*
D66*
X131100Y237500D02*
D03*
X117700D02*
D03*
X87300Y238000D02*
D03*
X100700D02*
D03*
D67*
X120852Y121592D02*
D03*
X128351D02*
D03*
X197845Y115776D02*
D03*
X190345D02*
D03*
D68*
X124601Y113593D02*
D03*
X194095Y123776D02*
D03*
D69*
X203927Y112690D02*
D03*
Y120190D02*
D03*
D70*
X211927Y116440D02*
D03*
D71*
X216000Y175854D02*
D03*
X221000D02*
D03*
X226000D02*
D03*
X231000D02*
D03*
X236000D02*
D03*
Y160500D02*
D03*
X231000D02*
D03*
X226000D02*
D03*
X221000D02*
D03*
X216000D02*
D03*
D72*
X133138Y129370D02*
D03*
Y138670D02*
D03*
X89736Y129370D02*
D03*
Y138670D02*
D03*
D73*
X266094Y101959D02*
D03*
Y99991D02*
D03*
Y98022D02*
D03*
Y96054D02*
D03*
Y94085D02*
D03*
Y92117D02*
D03*
Y90148D02*
D03*
Y88180D02*
D03*
Y86211D02*
D03*
Y84243D02*
D03*
Y82274D02*
D03*
Y80306D02*
D03*
X272630D02*
D03*
Y82274D02*
D03*
Y84243D02*
D03*
Y86211D02*
D03*
Y88180D02*
D03*
Y90148D02*
D03*
Y92117D02*
D03*
Y94085D02*
D03*
Y96054D02*
D03*
Y98022D02*
D03*
Y99991D02*
D03*
Y101959D02*
D03*
D74*
X278000Y204669D02*
D03*
X272000D02*
D03*
D75*
X29985Y318519D02*
D03*
Y312613D02*
D03*
X90898Y201933D02*
D03*
Y196028D02*
D03*
X194244Y99965D02*
D03*
Y94059D02*
D03*
D76*
X117043Y315207D02*
D03*
Y305758D02*
D03*
X109587Y315305D02*
D03*
Y305856D02*
D03*
D77*
X198500Y333272D02*
D03*
X218500D02*
D03*
X84500D02*
D03*
X104500D02*
D03*
D78*
X198500Y320272D02*
D03*
X218500D02*
D03*
X84500D02*
D03*
X104500D02*
D03*
D79*
X84402Y343013D02*
D03*
X95819D02*
D03*
D80*
X166900Y101209D02*
D03*
X149100D02*
D03*
D81*
X72000Y314700D02*
D03*
Y301300D02*
D03*
D82*
X164220Y162760D02*
D03*
X152220D02*
D03*
X132755Y162760D02*
D03*
X144755D02*
D03*
X136587Y150924D02*
D03*
X148587D02*
D03*
X156000Y117500D02*
D03*
X144000D02*
D03*
X93185Y150924D02*
D03*
X105185D02*
D03*
X123761Y162760D02*
D03*
X111761D02*
D03*
X93165D02*
D03*
X105165D02*
D03*
X113886Y117292D02*
D03*
X101886D02*
D03*
D83*
X208811Y235791D02*
D03*
X206842D02*
D03*
X204874D02*
D03*
X202906D02*
D03*
X200937D02*
D03*
X198969D02*
D03*
X197000D02*
D03*
X195031D02*
D03*
X193063D02*
D03*
X191095D02*
D03*
X189126D02*
D03*
X187157D02*
D03*
X185189D02*
D03*
X183221D02*
D03*
X181252D02*
D03*
X179283D02*
D03*
Y190516D02*
D03*
X181252D02*
D03*
X183221D02*
D03*
X185189D02*
D03*
X187157D02*
D03*
X189126D02*
D03*
X191095D02*
D03*
X193063D02*
D03*
X195031D02*
D03*
X197000D02*
D03*
X198969D02*
D03*
X200937D02*
D03*
X202906D02*
D03*
X204874D02*
D03*
X206842D02*
D03*
X208811D02*
D03*
D84*
X171409Y227917D02*
D03*
Y225949D02*
D03*
Y223980D02*
D03*
Y222012D02*
D03*
Y220043D02*
D03*
Y218075D02*
D03*
Y216106D02*
D03*
Y214138D02*
D03*
Y212169D02*
D03*
Y210201D02*
D03*
Y208232D02*
D03*
Y206264D02*
D03*
Y204295D02*
D03*
Y202327D02*
D03*
Y200358D02*
D03*
Y198390D02*
D03*
X216685D02*
D03*
Y200358D02*
D03*
Y202327D02*
D03*
Y204295D02*
D03*
Y206264D02*
D03*
Y208232D02*
D03*
Y210201D02*
D03*
Y216106D02*
D03*
Y218075D02*
D03*
Y220043D02*
D03*
Y222012D02*
D03*
Y223980D02*
D03*
Y225949D02*
D03*
Y227917D02*
D03*
Y212169D02*
D03*
Y214138D02*
D03*
D85*
X154087Y85732D02*
D03*
Y90732D02*
D03*
X173378Y85732D02*
D03*
X154087Y75732D02*
D03*
Y80732D02*
D03*
D86*
X173378Y75732D02*
D03*
Y80732D02*
D03*
Y90732D02*
D03*
M02*
