G04*
G04 #@! TF.GenerationSoftware,Altium Limited,Altium Designer,21.0.8 (223)*
G04*
G04 Layer_Physical_Order=4*
G04 Layer_Color=16711680*
%FSLAX25Y25*%
%MOIN*%
G70*
G04*
G04 #@! TF.SameCoordinates,C8F2EFAD-F301-47D2-81E3-A82B1A8C5C35*
G04*
G04*
G04 #@! TF.FilePolarity,Positive*
G04*
G01*
G75*
%ADD10C,0.01000*%
%ADD14C,0.02000*%
%ADD18C,0.00600*%
%ADD20C,0.00800*%
%ADD42R,0.03150X0.02953*%
%ADD43R,0.02953X0.03150*%
%ADD47O,0.01181X0.06299*%
%ADD66R,0.06400X0.07000*%
%ADD72R,0.13400X0.03800*%
%ADD153C,0.01500*%
%ADD154C,0.03000*%
%ADD155C,0.02500*%
%ADD156C,0.00900*%
%ADD158C,0.01100*%
%ADD162C,0.03500*%
%ADD164C,0.07000*%
%ADD185C,0.07874*%
%ADD186C,0.09000*%
%ADD187C,0.05906*%
%ADD188R,0.05906X0.05906*%
%ADD189R,0.05906X0.05906*%
%ADD190C,0.23622*%
%ADD191O,0.07874X0.05906*%
%ADD192R,0.07874X0.05906*%
%ADD193C,0.04724*%
%ADD194C,0.02598*%
%ADD195O,0.02284X0.03937*%
%ADD196C,0.07087*%
%ADD197P,0.08352X4X90.0*%
%ADD198C,0.02756*%
%ADD199O,0.05500X0.07000*%
%ADD210R,0.02000X0.03150*%
%ADD211R,0.03543X0.06693*%
%ADD212R,0.06693X0.03543*%
%ADD213R,0.15748X0.15748*%
%ADD214R,0.10630X0.10630*%
%ADD215R,0.00984X0.03150*%
%ADD216R,0.03150X0.00984*%
%ADD217R,0.01772X0.02165*%
%ADD218R,0.03150X0.03543*%
%ADD219R,0.03543X0.03150*%
%ADD220R,0.07205X0.04488*%
%ADD221R,0.04331X0.02756*%
%ADD222R,0.13110X0.02756*%
%ADD223R,0.11024X0.03386*%
%ADD224R,0.03661X0.03543*%
%ADD225R,0.03071X0.04134*%
%ADD226R,0.12000X0.05400*%
%ADD227C,0.02600*%
%ADD228C,0.06000*%
%ADD229C,0.08000*%
%ADD230R,0.16327X0.02957*%
%ADD231R,0.02534X0.03543*%
%ADD232R,0.02953X0.03665*%
%ADD233R,0.02903X0.02953*%
G36*
X92946Y300827D02*
X93142Y300354D01*
X93555Y299816D01*
X93660Y299735D01*
Y287185D01*
X86996Y280521D01*
X86534Y280712D01*
Y282825D01*
Y287169D01*
X86441Y287874D01*
X86169Y288531D01*
X86106Y288614D01*
Y295849D01*
X87695Y297438D01*
X87722D01*
X88426Y297531D01*
X89083Y297803D01*
X89647Y298236D01*
X92420Y301009D01*
X92946Y300827D01*
D02*
G37*
G36*
X280194Y242557D02*
X279732Y242365D01*
X279293Y242804D01*
X278731Y243179D01*
X278068Y243311D01*
X274736D01*
X274073Y243179D01*
X273511Y242804D01*
X270316Y239608D01*
X269853Y239800D01*
Y241435D01*
X263123D01*
Y236279D01*
Y231949D01*
X269798D01*
X269967Y231926D01*
X270640Y232015D01*
X271267Y232275D01*
X271805Y232688D01*
X272219Y233227D01*
X272478Y233854D01*
X272567Y234527D01*
X272478Y235200D01*
X272219Y235827D01*
X271879Y236269D01*
X274026Y238417D01*
X274534Y238217D01*
X274748Y237700D01*
X275161Y237161D01*
X275267Y237081D01*
Y209148D01*
X274740Y208621D01*
X274278Y208812D01*
Y224059D01*
X274146Y224722D01*
X273770Y225285D01*
X272508Y226547D01*
X272478Y226771D01*
X272219Y227398D01*
X271805Y227937D01*
X271267Y228350D01*
X270640Y228610D01*
X269967Y228699D01*
X269294Y228610D01*
X268891Y228443D01*
X263123D01*
Y223287D01*
Y218957D01*
Y214626D01*
Y210295D01*
Y207162D01*
X262260D01*
X255883Y213539D01*
X255321Y213915D01*
X254657Y214047D01*
X217646D01*
X216983Y213915D01*
X216421Y213539D01*
X212473Y209591D01*
X211945Y209770D01*
X211913Y210009D01*
X211653Y210636D01*
X211240Y211174D01*
X210702Y211588D01*
X210075Y211847D01*
X209402Y211936D01*
X208729Y211847D01*
X208102Y211588D01*
X207580Y211187D01*
X207493Y211196D01*
X207056Y211335D01*
X207012Y211673D01*
X206820Y212136D01*
X207080Y212244D01*
X207618Y212657D01*
X207995Y213149D01*
X208418Y212974D01*
X209091Y212885D01*
X209764Y212974D01*
X210391Y213233D01*
X210929Y213647D01*
X211343Y214185D01*
X211602Y214812D01*
X211691Y215485D01*
X211602Y216158D01*
X211343Y216785D01*
X210929Y217324D01*
X210391Y217737D01*
X209764Y217997D01*
X209091Y218085D01*
X208418Y217997D01*
X207791Y217737D01*
X207252Y217324D01*
X206875Y216832D01*
X206452Y217007D01*
X205780Y217096D01*
X205233Y217024D01*
X204733Y217325D01*
Y222526D01*
X205473Y223266D01*
X205735Y223249D01*
X206273Y222835D01*
X206900Y222576D01*
X207573Y222487D01*
X208246Y222576D01*
X208873Y222835D01*
X209412Y223249D01*
X209493D01*
X209865Y222764D01*
X210403Y222351D01*
X211031Y222091D01*
X211704Y222002D01*
X212377Y222091D01*
X213004Y222351D01*
X213542Y222764D01*
X213955Y223303D01*
X214215Y223930D01*
X214304Y224603D01*
X214215Y225276D01*
X213955Y225903D01*
X213542Y226441D01*
X213004Y226854D01*
X212377Y227114D01*
X211704Y227203D01*
X211572Y227186D01*
X211033Y227725D01*
Y232868D01*
X210901Y233531D01*
X210525Y234094D01*
X203519Y241100D01*
X203555Y241604D01*
X203967Y241866D01*
X204261Y241744D01*
X204934Y241656D01*
X205607Y241744D01*
X206234Y242004D01*
X206772Y242417D01*
X207186Y242956D01*
X207446Y243583D01*
X207507Y244049D01*
X207600Y244541D01*
X208273Y244630D01*
X208900Y244889D01*
X209438Y245303D01*
X209852Y245841D01*
X210111Y246468D01*
X210200Y247141D01*
X210111Y247814D01*
X209852Y248441D01*
X209438Y248980D01*
X209398Y249010D01*
X209377Y249527D01*
X210391Y250541D01*
X210767Y251104D01*
X210899Y251767D01*
Y303941D01*
X210767Y304604D01*
X210391Y305167D01*
X205333Y310224D01*
Y346900D01*
X205201Y347563D01*
X204826Y348126D01*
X200896Y352055D01*
X201046Y352416D01*
X201189Y353500D01*
X201046Y354584D01*
X200627Y355594D01*
X199962Y356462D01*
X199094Y357127D01*
X198084Y357546D01*
X197000Y357689D01*
X195916Y357546D01*
X194906Y357127D01*
X194038Y356462D01*
X193373Y355594D01*
X192954Y354584D01*
X192811Y353500D01*
X192954Y352416D01*
X193373Y351406D01*
X194038Y350538D01*
X194906Y349873D01*
X195916Y349454D01*
X197000Y349311D01*
X198084Y349454D01*
X198445Y349604D01*
X201867Y346182D01*
Y309506D01*
X201999Y308843D01*
X202374Y308281D01*
X207432Y303223D01*
Y252485D01*
X206374Y251427D01*
X205998Y250865D01*
X205866Y250201D01*
Y249061D01*
X205761Y248980D01*
X205348Y248441D01*
X205088Y247814D01*
X205027Y247348D01*
X204934Y246856D01*
X204261Y246767D01*
X203798Y246576D01*
X203554Y246548D01*
X203139Y246759D01*
X202924Y247081D01*
X193930Y256076D01*
X193876Y256111D01*
X185155Y264832D01*
Y281980D01*
X185023Y282643D01*
X184648Y283206D01*
X168733Y299120D01*
Y307823D01*
X169094Y307973D01*
X169962Y308638D01*
X170627Y309506D01*
X171046Y310516D01*
X171189Y311600D01*
X171046Y312684D01*
X170627Y313694D01*
X169962Y314562D01*
X169094Y315227D01*
X168084Y315646D01*
X167000Y315789D01*
X165916Y315646D01*
X164906Y315227D01*
X164038Y314562D01*
X163373Y313694D01*
X162954Y312684D01*
X162811Y311600D01*
X162954Y310516D01*
X163373Y309506D01*
X164038Y308638D01*
X164906Y307973D01*
X165267Y307823D01*
Y299886D01*
X164805Y299695D01*
X158733Y305766D01*
Y307823D01*
X159094Y307973D01*
X159962Y308638D01*
X160627Y309506D01*
X161046Y310516D01*
X161189Y311600D01*
X161046Y312684D01*
X160627Y313694D01*
X159962Y314562D01*
X159094Y315227D01*
X158084Y315646D01*
X157000Y315789D01*
X155916Y315646D01*
X154906Y315227D01*
X154038Y314562D01*
X153373Y313694D01*
X152954Y312684D01*
X152811Y311600D01*
X152954Y310516D01*
X153373Y309506D01*
X154038Y308638D01*
X154906Y307973D01*
X155267Y307823D01*
Y305048D01*
X155399Y304385D01*
X155774Y303823D01*
X179477Y280120D01*
Y263128D01*
X179609Y262464D01*
X179985Y261902D01*
X191120Y250767D01*
X191097Y250350D01*
X190654Y249986D01*
X190504Y250006D01*
X189831Y249917D01*
X189204Y249657D01*
X188665Y249244D01*
X188252Y248706D01*
X187992Y248078D01*
X187904Y247406D01*
X187992Y246732D01*
X188252Y246105D01*
X188665Y245567D01*
X189204Y245154D01*
X189831Y244894D01*
X190504Y244805D01*
X191177Y244894D01*
X191739Y245127D01*
X191856Y244952D01*
X192220Y244588D01*
X192128Y243973D01*
X191815Y243732D01*
X191402Y243194D01*
X191142Y242567D01*
X191053Y241894D01*
X191142Y241221D01*
X191402Y240594D01*
X191815Y240055D01*
X192353Y239642D01*
X192981Y239382D01*
X193654Y239294D01*
X194326Y239382D01*
X194954Y239642D01*
X195492Y240055D01*
X195733Y240369D01*
X196348Y240460D01*
X197613Y239195D01*
X197422Y238733D01*
X179382D01*
X179135Y239233D01*
X179264Y239401D01*
X179524Y240028D01*
X179575Y240419D01*
X179649Y240501D01*
X180077Y240715D01*
X180094Y240716D01*
X180537Y240532D01*
X181210Y240444D01*
X181883Y240532D01*
X182510Y240792D01*
X183049Y241205D01*
X183462Y241744D01*
X183722Y242371D01*
X183810Y243044D01*
X183722Y243717D01*
X183462Y244344D01*
X183049Y244882D01*
X182510Y245296D01*
X181883Y245555D01*
X181210Y245644D01*
X180537Y245555D01*
X179910Y245296D01*
X179372Y244882D01*
X178958Y244344D01*
X178699Y243717D01*
X178647Y243326D01*
X178573Y243243D01*
X178146Y243029D01*
X178128Y243029D01*
X177685Y243212D01*
X177012Y243301D01*
X176339Y243212D01*
X175712Y242953D01*
X175422Y242730D01*
X175339Y242839D01*
X174800Y243252D01*
X174173Y243512D01*
X173500Y243600D01*
X172827Y243512D01*
X172200Y243252D01*
X171661Y242839D01*
X171248Y242300D01*
X170988Y241673D01*
X170900Y241000D01*
X170988Y240327D01*
X171102Y240052D01*
X170827Y239512D01*
X170821Y239509D01*
X170200Y239252D01*
X169661Y238839D01*
X169248Y238300D01*
X168988Y237673D01*
X168900Y237000D01*
X168988Y236327D01*
X169248Y235700D01*
X169661Y235161D01*
X170200Y234748D01*
X170606Y234580D01*
X170759Y234027D01*
X169966Y233233D01*
X163014D01*
X161470Y234778D01*
X160907Y235153D01*
X160244Y235285D01*
X150666D01*
X138569Y247382D01*
X138600Y247621D01*
X138512Y248294D01*
X138252Y248921D01*
X137839Y249460D01*
X137300Y249873D01*
X136673Y250133D01*
X136000Y250221D01*
X135327Y250133D01*
X134700Y249873D01*
X134161Y249460D01*
X133748Y248921D01*
X133488Y248294D01*
X133400Y247621D01*
X133488Y246948D01*
X133748Y246321D01*
X134161Y245783D01*
X134700Y245369D01*
X135327Y245110D01*
X136000Y245021D01*
X136024Y245024D01*
X148055Y232994D01*
X147864Y232532D01*
X142214D01*
X141550Y232400D01*
X140988Y232024D01*
X138876Y229912D01*
X138744Y229929D01*
X138071Y229841D01*
X137444Y229581D01*
X136906Y229168D01*
X136492Y228629D01*
X136233Y228002D01*
X136144Y227329D01*
X136233Y226656D01*
X136492Y226029D01*
X136906Y225490D01*
X137444Y225077D01*
X137818Y224922D01*
X137959Y224356D01*
X133589Y219986D01*
X133213Y219423D01*
X133081Y218760D01*
Y213409D01*
X132020D01*
Y207465D01*
X137570D01*
Y213409D01*
X136548D01*
Y218042D01*
X137820Y219314D01*
X138450Y219237D01*
X138661Y218961D01*
X139200Y218548D01*
X139827Y218288D01*
X140500Y218200D01*
X141173Y218288D01*
X141800Y218548D01*
X142339Y218961D01*
X142752Y219500D01*
X143012Y220127D01*
X143100Y220800D01*
X143083Y220932D01*
X144494Y222343D01*
X145069Y222249D01*
X145141Y222145D01*
X145095Y221800D01*
X145184Y221127D01*
X145444Y220500D01*
X145857Y219962D01*
X146395Y219548D01*
X147022Y219289D01*
X147695Y219200D01*
X148368Y219289D01*
X148995Y219548D01*
X149534Y219962D01*
X149615Y220067D01*
X154157D01*
X155200Y219024D01*
X155123Y218394D01*
X154847Y218182D01*
X154434Y217644D01*
X154174Y217017D01*
X154113Y216554D01*
X153604Y216357D01*
X153219Y216741D01*
X152657Y217117D01*
X151994Y217249D01*
X149615D01*
X149534Y217354D01*
X148995Y217768D01*
X148368Y218027D01*
X147695Y218116D01*
X147022Y218027D01*
X146395Y217768D01*
X145857Y217354D01*
X145444Y216816D01*
X145184Y216189D01*
X145095Y215516D01*
X145184Y214843D01*
X145444Y214216D01*
X145706Y213873D01*
X145661Y213839D01*
X145248Y213300D01*
X144988Y212673D01*
X144900Y212000D01*
X144988Y211327D01*
X145248Y210700D01*
X145661Y210161D01*
X146200Y209748D01*
X146827Y209488D01*
X147500Y209400D01*
X147505Y209400D01*
X147900Y209039D01*
Y185686D01*
X148032Y185023D01*
X148408Y184461D01*
X152093Y180775D01*
Y179277D01*
X151593Y179030D01*
X150979Y179501D01*
X149825Y179980D01*
X148587Y180142D01*
X147348Y179980D01*
X146195Y179501D01*
X145204Y178741D01*
X144444Y177750D01*
X143965Y176596D01*
X143802Y175358D01*
X143965Y174120D01*
X144444Y172966D01*
X145204Y171975D01*
X145526Y171728D01*
X145566Y171071D01*
X144078Y169582D01*
X91011D01*
X86106Y174487D01*
Y184527D01*
X86603Y184679D01*
X86606Y184679D01*
X91641Y179645D01*
X91641Y179645D01*
X92203Y179269D01*
X92866Y179137D01*
X101311D01*
X101470Y178637D01*
X100790Y177750D01*
X100312Y176596D01*
X100149Y175358D01*
X100312Y174120D01*
X100790Y172966D01*
X101550Y171975D01*
X102541Y171215D01*
X103695Y170737D01*
X104933Y170574D01*
X106171Y170737D01*
X107325Y171215D01*
X108316Y171975D01*
X109076Y172966D01*
X109554Y174120D01*
X109717Y175358D01*
X109554Y176596D01*
X109076Y177750D01*
X108396Y178637D01*
X108555Y179137D01*
X118962D01*
X119088Y179053D01*
X119751Y178921D01*
X123398D01*
X123793Y178618D01*
X124420Y178358D01*
X125093Y178270D01*
X125766Y178358D01*
X126393Y178618D01*
X126931Y179032D01*
X127345Y179570D01*
X127604Y180197D01*
X127693Y180870D01*
X127604Y181543D01*
X127345Y182170D01*
X126931Y182709D01*
X126393Y183122D01*
X125766Y183382D01*
X125093Y183470D01*
X124420Y183382D01*
X123914Y183172D01*
X123821Y183183D01*
X123567Y183303D01*
X123391Y183444D01*
X123330Y183905D01*
X123071Y184532D01*
X122709Y185004D01*
X123071Y185476D01*
X123330Y186103D01*
X123419Y186776D01*
X123330Y187449D01*
X123071Y188076D01*
X123463Y188386D01*
X123891Y188057D01*
X124518Y187798D01*
X125191Y187709D01*
X125864Y187798D01*
X126491Y188057D01*
X127030Y188471D01*
X127443Y189009D01*
X127703Y189636D01*
X127791Y190309D01*
X127703Y190982D01*
X127443Y191609D01*
X127030Y192148D01*
X126491Y192561D01*
X125864Y192821D01*
X125191Y192909D01*
X125060Y192892D01*
X124223Y193728D01*
X123661Y194104D01*
X122997Y194236D01*
X106512D01*
X97768Y202980D01*
X97785Y203112D01*
X97697Y203785D01*
X97437Y204412D01*
X97024Y204950D01*
X96485Y205364D01*
X95858Y205623D01*
X95185Y205712D01*
X94512Y205623D01*
X93885Y205364D01*
X93871Y205353D01*
X93822Y205368D01*
X93430Y205644D01*
X93498Y206163D01*
X93409Y206836D01*
X93150Y207463D01*
X92736Y208002D01*
X92631Y208082D01*
Y220703D01*
X93840Y221913D01*
X93963Y221862D01*
X94635Y221774D01*
X95308Y221862D01*
X95936Y222122D01*
X96474Y222535D01*
X96887Y223074D01*
X97147Y223701D01*
X97236Y224374D01*
X97147Y225047D01*
X96887Y225674D01*
X96474Y226213D01*
X95936Y226626D01*
X95727Y226712D01*
X95629Y227203D01*
X101178Y232752D01*
X101554Y233314D01*
X101686Y233977D01*
Y254541D01*
X101791Y254622D01*
X102205Y255160D01*
X102464Y255788D01*
X102553Y256461D01*
X102464Y257134D01*
X102205Y257761D01*
X101791Y258299D01*
X101253Y258713D01*
X100626Y258972D01*
X99953Y259061D01*
X99280Y258972D01*
X98653Y258713D01*
X98114Y258299D01*
X97712Y257776D01*
X97664Y257770D01*
X97212Y257888D01*
Y261780D01*
X98997Y263565D01*
X98997Y263565D01*
X99470Y264181D01*
X99767Y264899D01*
X99869Y265669D01*
Y268840D01*
X99869Y268840D01*
X99767Y269611D01*
X99470Y270328D01*
X98997Y270944D01*
X98046Y271895D01*
Y275194D01*
X98508Y275385D01*
X101697Y272196D01*
X107570Y278069D01*
X102178Y283461D01*
X102527Y283917D01*
X102824Y284634D01*
X102926Y285404D01*
Y301302D01*
X102928Y301323D01*
Y302597D01*
X103428Y302918D01*
X103861Y302738D01*
X104631Y302637D01*
X105401Y302738D01*
X106119Y303035D01*
X106735Y303508D01*
X107208Y304125D01*
X107505Y304842D01*
X107607Y305612D01*
Y305788D01*
X116040D01*
X119289Y302539D01*
Y295314D01*
X118975Y295208D01*
X118789Y295182D01*
X117933Y295839D01*
X116923Y296257D01*
X115839Y296400D01*
X114755Y296257D01*
X113745Y295839D01*
X112877Y295173D01*
X112212Y294306D01*
X111793Y293296D01*
X111650Y292212D01*
X111793Y291127D01*
X112212Y290117D01*
X112877Y289250D01*
X113745Y288584D01*
X114755Y288166D01*
X115839Y288023D01*
X116923Y288166D01*
X117933Y288584D01*
X118789Y289241D01*
X118975Y289215D01*
X119289Y289109D01*
Y276064D01*
X104892Y261667D01*
X104419Y261051D01*
X104122Y260333D01*
X104021Y259563D01*
Y243482D01*
Y240918D01*
Y238355D01*
Y235718D01*
X104122Y234948D01*
X104419Y234230D01*
X104892Y233614D01*
X105508Y233141D01*
X106226Y232844D01*
X106996Y232742D01*
X107766Y232844D01*
X108484Y233141D01*
X109100Y233614D01*
X109262Y233824D01*
X109892D01*
X110054Y233614D01*
X110670Y233141D01*
X111387Y232844D01*
X112157Y232742D01*
X112928Y232844D01*
X113645Y233141D01*
X114261Y233614D01*
X114734Y234230D01*
X115032Y234948D01*
X115133Y235718D01*
Y238281D01*
Y240845D01*
Y243409D01*
Y256655D01*
X129025Y270547D01*
X129333Y270477D01*
X129525Y270353D01*
Y265930D01*
X121658Y258063D01*
X121185Y257446D01*
X120887Y256729D01*
X120786Y255959D01*
Y242191D01*
Y239627D01*
Y237064D01*
Y234500D01*
X120887Y233730D01*
X121185Y233012D01*
X121658Y232396D01*
X122274Y231923D01*
X122991Y231626D01*
X123761Y231524D01*
X124532Y231626D01*
X125249Y231923D01*
X125865Y232396D01*
X126338Y233012D01*
X126636Y233730D01*
X126737Y234500D01*
Y237064D01*
Y239627D01*
Y242191D01*
Y254726D01*
X134604Y262593D01*
X135077Y263210D01*
X135374Y263927D01*
X135476Y264697D01*
X135476Y264697D01*
Y297067D01*
X135976Y297100D01*
X136024Y296732D01*
X136284Y296105D01*
X136697Y295567D01*
X137235Y295154D01*
X137862Y294894D01*
X138535Y294805D01*
X139208Y294894D01*
X139836Y295154D01*
X140374Y295567D01*
X140787Y296105D01*
X141047Y296732D01*
X141136Y297406D01*
X141047Y298078D01*
X140787Y298706D01*
X140374Y299244D01*
X139836Y299657D01*
X139714Y299708D01*
Y300249D01*
X139836Y300299D01*
X140374Y300712D01*
X140787Y301251D01*
X141047Y301878D01*
X141136Y302551D01*
X141047Y303224D01*
X140787Y303851D01*
X140374Y304389D01*
X139836Y304803D01*
X139208Y305062D01*
X138535Y305151D01*
X137862Y305062D01*
X137235Y304803D01*
X136697Y304389D01*
X136284Y303851D01*
X136024Y303224D01*
X135976Y302856D01*
X135476Y302889D01*
Y307214D01*
X135911Y307551D01*
X135921Y307554D01*
X137000Y307411D01*
X138084Y307554D01*
X139094Y307973D01*
X139962Y308638D01*
X140627Y309506D01*
X141046Y310516D01*
X141189Y311600D01*
X141046Y312684D01*
X140627Y313694D01*
X139962Y314562D01*
X139174Y315166D01*
X139104Y315258D01*
X138488Y315730D01*
X137770Y316028D01*
X137000Y316129D01*
X136230Y316028D01*
X135512Y315730D01*
X134896Y315258D01*
X134735Y315096D01*
X134038Y314562D01*
X133504Y313865D01*
X131640Y312001D01*
X131112Y312181D01*
X131046Y312684D01*
X130627Y313694D01*
X129962Y314562D01*
X129094Y315227D01*
X128084Y315646D01*
X127000Y315789D01*
X125916Y315646D01*
X124906Y315227D01*
X124038Y314562D01*
X123373Y313694D01*
X122954Y312684D01*
X122811Y311600D01*
X122954Y310516D01*
X123373Y309506D01*
X124024Y308656D01*
Y306873D01*
X123563Y306682D01*
X119377Y310868D01*
X118761Y311341D01*
X118043Y311638D01*
X117273Y311739D01*
X107607D01*
Y315067D01*
X107505Y315837D01*
X107208Y316554D01*
X106735Y317171D01*
X106119Y317644D01*
X105401Y317941D01*
X104631Y318042D01*
X104591Y318037D01*
X104358Y318511D01*
X106025Y320178D01*
X122847D01*
Y317447D01*
X131153D01*
Y325753D01*
X128434D01*
X127770Y326028D01*
X127000Y326129D01*
X104793D01*
X104023Y326028D01*
X103305Y325730D01*
X102689Y325257D01*
X97849Y320417D01*
X97376Y319801D01*
X97079Y319084D01*
X96977Y318314D01*
Y304276D01*
X96477Y303996D01*
X96067Y304166D01*
X95394Y304254D01*
X95200Y304229D01*
X95073Y304285D01*
X94723Y304671D01*
Y347372D01*
X96699Y349347D01*
X97301D01*
X101370Y345279D01*
X101934Y344846D01*
X102591Y344574D01*
X103295Y344481D01*
X135456D01*
X135756Y343981D01*
X135747Y343966D01*
X135633Y343893D01*
X132336D01*
X131673Y343761D01*
X131110Y343386D01*
X127132Y339407D01*
X127000Y339424D01*
X126327Y339336D01*
X125700Y339076D01*
X125161Y338663D01*
X124748Y338124D01*
X124488Y337497D01*
X124400Y336824D01*
X124488Y336151D01*
X124748Y335524D01*
X125161Y334985D01*
X125700Y334572D01*
X126327Y334313D01*
X127000Y334224D01*
X127673Y334313D01*
X128300Y334572D01*
X128839Y334985D01*
X129252Y335524D01*
X129512Y336151D01*
X129600Y336824D01*
X129583Y336956D01*
X133054Y340426D01*
X136104D01*
X136161Y340351D01*
X136700Y339938D01*
X137327Y339678D01*
X138000Y339590D01*
X138673Y339678D01*
X139300Y339938D01*
X139839Y340351D01*
X140252Y340890D01*
X140512Y341517D01*
X140600Y342190D01*
X140512Y342863D01*
X140252Y343490D01*
X139875Y343981D01*
X139916Y344180D01*
X140070Y344481D01*
X152290D01*
X163257Y333514D01*
X162954Y332784D01*
X162811Y331700D01*
X162954Y330616D01*
X163296Y329790D01*
X163035Y329290D01*
X160965D01*
X160704Y329790D01*
X161046Y330616D01*
X161189Y331700D01*
X161046Y332784D01*
X160627Y333794D01*
X159962Y334662D01*
X159094Y335327D01*
X158084Y335746D01*
X157000Y335889D01*
X155916Y335746D01*
X154906Y335327D01*
X154038Y334662D01*
X153373Y333794D01*
X152954Y332784D01*
X152811Y331700D01*
X152954Y330616D01*
X153296Y329790D01*
X153035Y329290D01*
X151016D01*
X150889Y329393D01*
X150794Y329521D01*
X150691Y329760D01*
X151046Y330616D01*
X151189Y331700D01*
X151046Y332784D01*
X150627Y333794D01*
X149962Y334662D01*
X149094Y335327D01*
X148084Y335746D01*
X147000Y335889D01*
X145916Y335746D01*
X144906Y335327D01*
X144038Y334662D01*
X143373Y333794D01*
X142954Y332784D01*
X142811Y331700D01*
X142954Y330616D01*
X143373Y329606D01*
X144038Y328738D01*
X144906Y328073D01*
X145916Y327654D01*
X147000Y327511D01*
X147551Y327584D01*
X147785Y327110D01*
X146846Y326172D01*
X146551Y325729D01*
X145916Y325646D01*
X144906Y325227D01*
X144038Y324562D01*
X143373Y323694D01*
X142954Y322684D01*
X142811Y321600D01*
X142954Y320516D01*
X143373Y319506D01*
X144038Y318638D01*
X144906Y317973D01*
X145916Y317554D01*
X147000Y317411D01*
X148084Y317554D01*
X149094Y317973D01*
X149962Y318638D01*
X150627Y319506D01*
X151046Y320516D01*
X151189Y321600D01*
X151046Y322684D01*
X150653Y323634D01*
X151823Y324804D01*
X153594D01*
X153840Y324304D01*
X153373Y323694D01*
X152954Y322684D01*
X152811Y321600D01*
X152954Y320516D01*
X153373Y319506D01*
X154038Y318638D01*
X154906Y317973D01*
X155916Y317554D01*
X157000Y317411D01*
X158084Y317554D01*
X159094Y317973D01*
X159962Y318638D01*
X160627Y319506D01*
X161046Y320516D01*
X161189Y321600D01*
X161046Y322684D01*
X160627Y323694D01*
X160160Y324304D01*
X160406Y324804D01*
X163594D01*
X163840Y324304D01*
X163373Y323694D01*
X162954Y322684D01*
X162811Y321600D01*
X162954Y320516D01*
X163373Y319506D01*
X164038Y318638D01*
X164906Y317973D01*
X165916Y317554D01*
X167000Y317411D01*
X168084Y317554D01*
X169094Y317973D01*
X169962Y318638D01*
X170627Y319506D01*
X171046Y320516D01*
X171189Y321600D01*
X171046Y322684D01*
X170627Y323694D01*
X170159Y324304D01*
X170406Y324804D01*
X170503D01*
X171362Y324975D01*
X172090Y325461D01*
X174790Y328162D01*
X174906Y328073D01*
X175916Y327654D01*
X177000Y327511D01*
X178084Y327654D01*
X179094Y328073D01*
X179962Y328738D01*
X180627Y329606D01*
X181046Y330616D01*
X181189Y331700D01*
X181046Y332784D01*
X180627Y333794D01*
X179962Y334662D01*
X179094Y335327D01*
X178084Y335746D01*
X177000Y335889D01*
X175916Y335746D01*
X174906Y335327D01*
X174038Y334662D01*
X173373Y333794D01*
X172954Y332784D01*
X172937Y332653D01*
X171618Y331334D01*
X171169Y331555D01*
X171189Y331700D01*
X171046Y332784D01*
X170627Y333794D01*
X169962Y334662D01*
X169118Y335309D01*
X168965Y335509D01*
X155343Y349130D01*
X155288Y349173D01*
X155540Y349610D01*
X155916Y349454D01*
X157000Y349311D01*
X158084Y349454D01*
X159094Y349873D01*
X159962Y350538D01*
X160627Y351406D01*
X161046Y352416D01*
X161189Y353500D01*
X161046Y354584D01*
X160627Y355594D01*
X159962Y356462D01*
X159094Y357127D01*
X158084Y357546D01*
X157000Y357689D01*
X155916Y357546D01*
X154906Y357127D01*
X154038Y356462D01*
X153373Y355594D01*
X152954Y354584D01*
X152811Y353500D01*
X152954Y352416D01*
X153373Y351406D01*
X154038Y350538D01*
X154397Y350262D01*
X154145Y349826D01*
X154123Y349835D01*
X153418Y349928D01*
X149944D01*
X149784Y350401D01*
X149962Y350538D01*
X150627Y351406D01*
X151046Y352416D01*
X151189Y353500D01*
X151046Y354584D01*
X150627Y355594D01*
X149962Y356462D01*
X149094Y357127D01*
X148084Y357546D01*
X147000Y357689D01*
X145916Y357546D01*
X144906Y357127D01*
X144038Y356462D01*
X143373Y355594D01*
X142954Y354584D01*
X142811Y353500D01*
X142954Y352416D01*
X143373Y351406D01*
X144038Y350538D01*
X144217Y350401D01*
X144056Y349928D01*
X139944D01*
X139784Y350401D01*
X139962Y350538D01*
X140627Y351406D01*
X141046Y352416D01*
X141189Y353500D01*
X141046Y354584D01*
X140627Y355594D01*
X139962Y356462D01*
X139094Y357127D01*
X138084Y357546D01*
X137000Y357689D01*
X135916Y357546D01*
X134906Y357127D01*
X134038Y356462D01*
X133373Y355594D01*
X132954Y354584D01*
X132811Y353500D01*
X132954Y352416D01*
X133373Y351406D01*
X134038Y350538D01*
X134216Y350401D01*
X134056Y349928D01*
X129944D01*
X129783Y350401D01*
X129962Y350538D01*
X130627Y351406D01*
X131046Y352416D01*
X131189Y353500D01*
X131046Y354584D01*
X130627Y355594D01*
X129962Y356462D01*
X129094Y357127D01*
X128084Y357546D01*
X127000Y357689D01*
X125916Y357546D01*
X124906Y357127D01*
X124038Y356462D01*
X123373Y355594D01*
X122954Y354584D01*
X122811Y353500D01*
X122954Y352416D01*
X123373Y351406D01*
X124038Y350538D01*
X124216Y350401D01*
X124056Y349928D01*
X119944D01*
X119783Y350401D01*
X119962Y350538D01*
X120627Y351406D01*
X121046Y352416D01*
X121189Y353500D01*
X121046Y354584D01*
X120627Y355594D01*
X119962Y356462D01*
X119094Y357127D01*
X118084Y357546D01*
X117000Y357689D01*
X115916Y357546D01*
X114906Y357127D01*
X114038Y356462D01*
X113373Y355594D01*
X112954Y354584D01*
X112811Y353500D01*
X112954Y352416D01*
X113373Y351406D01*
X114038Y350538D01*
X114216Y350401D01*
X114056Y349928D01*
X109944D01*
X109783Y350401D01*
X109962Y350538D01*
X110627Y351406D01*
X111046Y352416D01*
X111189Y353500D01*
X111046Y354584D01*
X110627Y355594D01*
X109962Y356462D01*
X109094Y357127D01*
X108084Y357546D01*
X107000Y357689D01*
X105916Y357546D01*
X104906Y357127D01*
X104038Y356462D01*
X103373Y355594D01*
X102954Y354584D01*
X102811Y353500D01*
X102954Y352416D01*
X103174Y351884D01*
X102751Y351601D01*
X101153Y353199D01*
Y357653D01*
X92847D01*
Y353199D01*
X90074Y350426D01*
X89641Y349862D01*
X89369Y349205D01*
X89277Y348500D01*
Y305568D01*
X86594Y302885D01*
X86567D01*
X85862Y302792D01*
X85205Y302520D01*
X84641Y302087D01*
X81457Y298903D01*
X81024Y298339D01*
X80752Y297682D01*
X80659Y296977D01*
Y287598D01*
X80752Y286893D01*
X81024Y286236D01*
X81088Y286153D01*
Y282825D01*
Y280592D01*
X79162Y278667D01*
X78729Y278103D01*
X78457Y277446D01*
X78364Y276741D01*
Y269398D01*
X78405Y269088D01*
X77985Y268588D01*
X72509D01*
X69451Y271646D01*
X68806Y272077D01*
X68045Y272228D01*
X43604D01*
X43505Y272728D01*
X44120Y272983D01*
X45461Y273757D01*
X46689Y274700D01*
X47784Y275795D01*
X48726Y277023D01*
X49500Y278364D01*
X50093Y279794D01*
X50494Y281290D01*
X50696Y282825D01*
Y284373D01*
X50494Y285908D01*
X50093Y287403D01*
X49500Y288834D01*
X48726Y290175D01*
X47784Y291403D01*
X46689Y292498D01*
X45461Y293440D01*
X44120Y294215D01*
X42689Y294807D01*
X41194Y295208D01*
X39659Y295410D01*
X38110D01*
X36575Y295208D01*
X35080Y294807D01*
X33650Y294215D01*
X32309Y293440D01*
X31080Y292498D01*
X29985Y291403D01*
X29043Y290175D01*
X28269Y288834D01*
X27676Y287403D01*
X27276Y285908D01*
X27073Y284373D01*
Y282825D01*
X27276Y281290D01*
X27676Y279794D01*
X28269Y278364D01*
X29043Y277023D01*
X29985Y275795D01*
X31080Y274700D01*
X32309Y273757D01*
X33650Y272983D01*
X35080Y272391D01*
X36575Y271990D01*
X37734Y271837D01*
X37913Y271309D01*
X35256Y268653D01*
X29347D01*
Y260347D01*
X37653D01*
Y265426D01*
X40285Y268058D01*
X40450Y268024D01*
X40574Y267489D01*
X40538Y267462D01*
X39873Y266594D01*
X39454Y265584D01*
X39311Y264500D01*
X39454Y263416D01*
X39873Y262406D01*
X40538Y261538D01*
X41406Y260873D01*
X42416Y260454D01*
X43500Y260311D01*
X44584Y260454D01*
X45594Y260873D01*
X46462Y261538D01*
X47127Y262406D01*
X47546Y263416D01*
X47689Y264500D01*
X47546Y265584D01*
X47127Y266594D01*
X46462Y267462D01*
X46084Y267752D01*
X46253Y268252D01*
X60197D01*
X60367Y267752D01*
X59904Y267397D01*
X59239Y266529D01*
X58820Y265519D01*
X58678Y264435D01*
X58820Y263351D01*
X59239Y262341D01*
X59904Y261473D01*
X60772Y260808D01*
X61782Y260389D01*
X62866Y260246D01*
X64835D01*
X65919Y260389D01*
X66929Y260808D01*
X67796Y261473D01*
X68213Y262017D01*
X68713Y261847D01*
Y260282D01*
X78987D01*
Y266940D01*
X79487Y267147D01*
X80659Y265975D01*
Y173359D01*
X80752Y172655D01*
X81024Y171998D01*
X81457Y171434D01*
X87957Y164933D01*
X88521Y164501D01*
X89178Y164228D01*
X89883Y164136D01*
X145206D01*
X145910Y164228D01*
X146240Y164365D01*
X146524Y163941D01*
X141416Y158834D01*
X85880D01*
X85217Y158702D01*
X84654Y158326D01*
X82232Y155903D01*
X82100Y155921D01*
X81427Y155832D01*
X80800Y155572D01*
X80261Y155159D01*
X79848Y154621D01*
X79588Y153994D01*
X79500Y153321D01*
X79588Y152648D01*
X79848Y152021D01*
X80261Y151482D01*
X80800Y151069D01*
X81427Y150809D01*
X82100Y150721D01*
X82773Y150809D01*
X83400Y151069D01*
X83939Y151482D01*
X84352Y152021D01*
X84612Y152648D01*
X84700Y153321D01*
X84683Y153452D01*
X86598Y155367D01*
X142134D01*
X142797Y155499D01*
X143360Y155875D01*
X145789Y158304D01*
X146251Y158113D01*
Y147080D01*
X146383Y146416D01*
X146759Y145854D01*
X154727Y137885D01*
Y131588D01*
X152987Y129848D01*
X124313D01*
X124232Y129953D01*
X123694Y130366D01*
X123067Y130626D01*
X122394Y130714D01*
X121721Y130626D01*
X121094Y130366D01*
X120555Y129953D01*
X120142Y129414D01*
X119882Y128787D01*
X119793Y128114D01*
X119882Y127441D01*
X120142Y126814D01*
X120555Y126276D01*
X121094Y125862D01*
X121721Y125603D01*
X122394Y125514D01*
X123067Y125603D01*
X123694Y125862D01*
X124232Y126276D01*
X124313Y126381D01*
X137272D01*
X137424Y125887D01*
X137424Y125881D01*
X135250Y123707D01*
X134875Y123145D01*
X134743Y122481D01*
Y120124D01*
X134335Y119811D01*
X133921Y119273D01*
X133662Y118646D01*
X133573Y117973D01*
X133662Y117300D01*
X133921Y116673D01*
X134335Y116134D01*
X134873Y115721D01*
X135500Y115461D01*
X136173Y115373D01*
X136846Y115461D01*
X137473Y115721D01*
X138012Y116134D01*
X138425Y116673D01*
X138685Y117300D01*
X138773Y117973D01*
X138685Y118646D01*
X138425Y119273D01*
X138209Y119554D01*
Y121763D01*
X139369Y122923D01*
X152836D01*
X153499Y123055D01*
X154062Y123431D01*
X157964Y127334D01*
X157999Y127385D01*
X158574Y127961D01*
X158626Y127995D01*
X158781Y128151D01*
X159243Y127959D01*
Y122257D01*
X159217Y122125D01*
Y116618D01*
X159349Y115955D01*
X159725Y115393D01*
X159890Y115227D01*
X160159Y114825D01*
X161547Y113437D01*
X161356Y112975D01*
X156796D01*
X156796Y112975D01*
X156440D01*
Y112975D01*
X156296Y112975D01*
X152603D01*
X150442Y115136D01*
Y117415D01*
X144972D01*
Y117822D01*
X139422D01*
Y112469D01*
X139007Y112264D01*
X126712D01*
X125756Y112074D01*
X124945Y111532D01*
X121718Y108305D01*
X110600D01*
Y102105D01*
X126400D01*
Y105921D01*
X127747Y107268D01*
X142197D01*
X143153Y107458D01*
X143963Y108000D01*
X144143Y108017D01*
X151288Y100872D01*
Y98071D01*
X151312Y97953D01*
Y96858D01*
X152457D01*
X152512Y96847D01*
X155465D01*
X155519Y96858D01*
X158792D01*
Y91347D01*
Y87250D01*
X149196D01*
Y89594D01*
X149184Y89653D01*
Y91347D01*
Y95284D01*
Y98668D01*
X147363D01*
X145250Y100781D01*
X144686Y101214D01*
X144029Y101486D01*
X143324Y101579D01*
X128732D01*
X128027Y101486D01*
X127370Y101214D01*
X126806Y100781D01*
X125053Y99028D01*
X123700D01*
X123523Y99005D01*
X110600D01*
Y96656D01*
X109244Y95300D01*
X108811Y94736D01*
X108539Y94079D01*
X108446Y93374D01*
Y89773D01*
X108422Y89594D01*
X108469Y89237D01*
Y86819D01*
X113678D01*
X113822Y86819D01*
Y86819D01*
X114178D01*
Y86819D01*
X119531D01*
Y89819D01*
X119658Y89946D01*
X122727D01*
X122808Y89841D01*
X122839Y89817D01*
X122872Y89318D01*
X118859Y85306D01*
X118313Y84489D01*
X116600Y82776D01*
X112232D01*
X111005Y82614D01*
X109862Y82141D01*
X108880Y81388D01*
X107875Y80382D01*
X100478D01*
X99843Y80298D01*
X96325D01*
Y76780D01*
X96241Y76146D01*
X96325Y75511D01*
Y71993D01*
X99843D01*
X100478Y71909D01*
X102063D01*
Y70181D01*
X95954D01*
Y60781D01*
X102063D01*
Y56865D01*
X102053Y56842D01*
X101553D01*
X101290Y57477D01*
X100467Y58550D01*
X99394Y59373D01*
X98144Y59891D01*
X96803Y60067D01*
X95462Y59891D01*
X94213Y59373D01*
X93139Y58550D01*
X92316Y57477D01*
X91798Y56227D01*
X91622Y54886D01*
X91798Y53545D01*
X92316Y52295D01*
X93139Y51222D01*
X94213Y50399D01*
X94560Y50255D01*
Y50161D01*
X94731Y49303D01*
X95217Y48575D01*
X97579Y46213D01*
X98307Y45727D01*
X99165Y45556D01*
X120059D01*
X120811Y45706D01*
X121074Y45485D01*
X121188Y45310D01*
X121188Y45310D01*
X121100Y44637D01*
X121188Y43964D01*
X121448Y43336D01*
X121861Y42798D01*
X122400Y42385D01*
X123027Y42125D01*
X123700Y42036D01*
X124373Y42125D01*
X125000Y42385D01*
X125290Y42607D01*
X125918D01*
Y41565D01*
X131271D01*
Y46251D01*
X131627Y46599D01*
X136979D01*
Y52149D01*
X136135D01*
Y53508D01*
X136070Y53835D01*
X136538Y54046D01*
X136596Y53970D01*
X137787Y53057D01*
X139173Y52482D01*
X140661Y52286D01*
X142149Y52482D01*
X143536Y53057D01*
X144727Y53970D01*
X145640Y55161D01*
X146215Y56547D01*
X146411Y58035D01*
X146215Y59523D01*
X145640Y60910D01*
X144727Y62101D01*
X143536Y63014D01*
X142149Y63589D01*
X140661Y63785D01*
X139173Y63589D01*
X137787Y63014D01*
X136596Y62101D01*
X136531Y62015D01*
X136031Y62185D01*
Y62980D01*
X136189Y63012D01*
X136718Y63365D01*
X137857Y64505D01*
X138100Y64867D01*
X138240Y65039D01*
X138738Y65121D01*
X139044Y64994D01*
X139716Y64906D01*
X139912Y64931D01*
X140026Y64817D01*
X140572Y64452D01*
X141216Y64324D01*
X152015D01*
X152659Y64452D01*
X152938Y64639D01*
X152960Y64606D01*
X153514Y64945D01*
X153490Y64986D01*
X153836Y65217D01*
X155309Y66690D01*
X169593D01*
X170236Y66818D01*
X170782Y67182D01*
X170938Y67339D01*
X171517Y67267D01*
X171788Y66843D01*
X171448Y66400D01*
X171188Y65773D01*
X171100Y65100D01*
X171188Y64427D01*
X171448Y63800D01*
X171861Y63261D01*
X172400Y62848D01*
X173027Y62588D01*
X173700Y62500D01*
X174373Y62588D01*
X174914Y62812D01*
X179104Y58622D01*
X179667Y58246D01*
X179988Y58182D01*
X180039Y57662D01*
X179956Y57627D01*
X179088Y56962D01*
X178423Y56094D01*
X178004Y55084D01*
X177861Y54000D01*
X178004Y52916D01*
X178423Y51906D01*
X179088Y51038D01*
X179757Y50525D01*
Y48969D01*
X179928Y48110D01*
X180414Y47383D01*
X185733Y42064D01*
X186460Y41578D01*
X187319Y41407D01*
X270081D01*
X270940Y41578D01*
X271668Y42064D01*
X279413Y49809D01*
X279694Y50229D01*
X280194Y50078D01*
Y40306D01*
X23806D01*
Y366694D01*
X280194D01*
Y242557D01*
D02*
G37*
G36*
X92096Y280010D02*
Y270663D01*
X92197Y269893D01*
X92270Y269716D01*
X91765Y269507D01*
X91227Y269093D01*
X90813Y268555D01*
X90554Y267928D01*
X90465Y267255D01*
X90554Y266582D01*
X90813Y265955D01*
X91227Y265416D01*
X91765Y265003D01*
X91838Y264732D01*
X91660Y264500D01*
X91363Y263783D01*
X91261Y263013D01*
Y255171D01*
X91225Y254898D01*
Y241205D01*
Y238646D01*
Y236087D01*
Y233528D01*
X91327Y232758D01*
X91624Y232040D01*
X92097Y231424D01*
X92713Y230951D01*
X93431Y230654D01*
X93531Y230641D01*
X93691Y230167D01*
X90389Y226864D01*
X88549D01*
X88175Y227238D01*
Y268514D01*
X88043Y269177D01*
X87667Y269740D01*
X87667Y269740D01*
X85733Y271673D01*
Y274355D01*
X91596Y280217D01*
X92096Y280010D01*
D02*
G37*
G36*
X258968Y202928D02*
X258777Y202466D01*
X258134D01*
X257919Y202620D01*
X257900Y202762D01*
X257640Y203389D01*
X257227Y203928D01*
X256688Y204341D01*
X256061Y204601D01*
X255388Y204689D01*
X254715Y204601D01*
X254088Y204341D01*
X253550Y203928D01*
X253136Y203389D01*
X252877Y202762D01*
X252788Y202089D01*
X252877Y201416D01*
X253136Y200789D01*
X253550Y200251D01*
X254083Y199841D01*
X254152Y199787D01*
X254196Y199343D01*
X253874Y198982D01*
X231440D01*
X228697Y201726D01*
X228135Y202101D01*
X227471Y202233D01*
X223610D01*
X223529Y202339D01*
X222990Y202752D01*
X222363Y203012D01*
X221690Y203100D01*
X221017Y203012D01*
X220390Y202752D01*
X219852Y202339D01*
X219439Y201800D01*
X219179Y201173D01*
X219090Y200500D01*
X219135Y200155D01*
X218744Y199655D01*
X216808D01*
X216145Y199523D01*
X215582Y199148D01*
X212824Y196389D01*
X212448Y195827D01*
X212316Y195164D01*
Y192035D01*
X210474D01*
Y200286D01*
X219069Y208880D01*
X224980D01*
X225355Y208380D01*
X225305Y208000D01*
X225394Y207327D01*
X225653Y206700D01*
X226066Y206161D01*
X226605Y205748D01*
X227232Y205488D01*
X227905Y205400D01*
X228578Y205488D01*
X229205Y205748D01*
X229744Y206161D01*
X230157Y206700D01*
X230417Y207327D01*
X230505Y208000D01*
X230455Y208380D01*
X230831Y208880D01*
X253016D01*
X258968Y202928D01*
D02*
G37*
G36*
X196964Y228917D02*
X196947Y228785D01*
X197035Y228112D01*
X197295Y227485D01*
X197708Y226947D01*
X198247Y226534D01*
X198874Y226274D01*
X199547Y226185D01*
X199658Y226200D01*
X199948Y225734D01*
X199699Y225361D01*
X199567Y224698D01*
Y210554D01*
X199699Y209891D01*
X200074Y209329D01*
X200840Y208562D01*
X200707Y207989D01*
X200349Y207841D01*
X199810Y207428D01*
X199397Y206889D01*
X199137Y206262D01*
X199065Y205718D01*
X198577Y205230D01*
X198146Y204585D01*
X197995Y203824D01*
Y198710D01*
X197495Y198378D01*
X197173Y198512D01*
X196500Y198600D01*
X195827Y198512D01*
X195200Y198252D01*
X194661Y197839D01*
X194339D01*
X193800Y198252D01*
X193173Y198512D01*
X192500Y198600D01*
X191827Y198512D01*
X191200Y198252D01*
X190896Y198019D01*
X190339Y198205D01*
X190305Y198350D01*
X192592Y200637D01*
X193124Y200416D01*
X193797Y200328D01*
X194470Y200416D01*
X195097Y200676D01*
X195636Y201089D01*
X196049Y201628D01*
X196309Y202255D01*
X196398Y202928D01*
X196309Y203601D01*
X196049Y204228D01*
X195636Y204767D01*
X195531Y204848D01*
Y229160D01*
X195531Y229160D01*
X195511Y229257D01*
X195575Y229410D01*
X195597Y229577D01*
X196124Y229756D01*
X196964Y228917D01*
D02*
G37*
G36*
X280194Y206115D02*
Y188306D01*
X255395D01*
X254780Y188183D01*
X254259Y187835D01*
X253911Y187314D01*
X253789Y186700D01*
Y182533D01*
X253327Y182342D01*
X251743Y183926D01*
X251181Y184301D01*
X250518Y184433D01*
X247645D01*
Y189772D01*
X247913Y190041D01*
X248112Y190339D01*
X248358Y190585D01*
X248656Y190784D01*
X249181Y191308D01*
X257804D01*
X258467Y191440D01*
X259029Y191816D01*
X259270Y192057D01*
X259402Y192040D01*
X260074Y192128D01*
X260702Y192388D01*
X261240Y192801D01*
X261653Y193340D01*
X261913Y193967D01*
X262002Y194640D01*
X261913Y195313D01*
X261653Y195940D01*
X261240Y196478D01*
X261125Y196567D01*
X261295Y197067D01*
X269775D01*
X270438Y197199D01*
X271000Y197574D01*
X279732Y206306D01*
X280194Y206115D01*
D02*
G37*
G36*
X228449Y193736D02*
X229012Y193360D01*
X229675Y193228D01*
X245446D01*
X245638Y192766D01*
X245462Y192591D01*
X245263Y192292D01*
X245005Y192035D01*
X215783D01*
Y194446D01*
X217526Y196189D01*
X225997D01*
X228449Y193736D01*
D02*
G37*
G36*
X186146Y229231D02*
X186097Y228857D01*
X186186Y228185D01*
X186445Y227557D01*
X186859Y227019D01*
X187397Y226606D01*
X188024Y226346D01*
X188697Y226257D01*
X189370Y226346D01*
X189997Y226606D01*
X190536Y227019D01*
X190949Y227557D01*
X191033Y227761D01*
X191642Y227924D01*
X191763Y227831D01*
X192064Y227706D01*
Y204848D01*
X191959Y204767D01*
X191778Y204531D01*
X191769Y204529D01*
X191206Y204154D01*
X187627Y200574D01*
X184135D01*
Y195025D01*
X190078D01*
X190208Y194798D01*
X190248Y194700D01*
X190661Y194161D01*
X191200Y193748D01*
X191827Y193488D01*
X192500Y193400D01*
X193173Y193488D01*
X193800Y193748D01*
X194145Y194013D01*
X194500Y194115D01*
X194855Y194013D01*
X195163Y193777D01*
X195255Y193647D01*
X195335Y193242D01*
X194129Y192035D01*
X182373D01*
X182204Y192465D01*
X182204D01*
Y198015D01*
X176261D01*
Y194720D01*
X176013Y194472D01*
X173372D01*
X173038Y194972D01*
X173115Y195158D01*
X173203Y195831D01*
X173115Y196504D01*
X172855Y197131D01*
X172442Y197669D01*
X171903Y198082D01*
X171276Y198342D01*
X170603Y198431D01*
X169930Y198342D01*
X169303Y198082D01*
X168764Y197669D01*
X168351Y197131D01*
X168091Y196504D01*
X168003Y195831D01*
X168020Y195699D01*
X167076Y194755D01*
X166576Y194962D01*
Y216743D01*
X166444Y217406D01*
X166068Y217969D01*
X162753Y221283D01*
X162761Y221346D01*
X162977Y221767D01*
X170352D01*
X171016Y221899D01*
X171578Y222274D01*
X179035Y229731D01*
X185768D01*
X186146Y229231D01*
D02*
G37*
G36*
X93347Y201273D02*
X93885Y200860D01*
X94512Y200600D01*
X95185Y200512D01*
X95317Y200529D01*
X104569Y191277D01*
X105131Y190902D01*
X105794Y190770D01*
X122265D01*
X122603Y190404D01*
X122591Y190309D01*
X122680Y189636D01*
X122939Y189009D01*
X122547Y188699D01*
X122119Y189027D01*
X121492Y189287D01*
X120819Y189376D01*
X120146Y189287D01*
X119519Y189027D01*
X118980Y188614D01*
X118900Y188509D01*
X100057D01*
X98921Y189645D01*
Y190279D01*
X99026Y190360D01*
X99439Y190898D01*
X99699Y191525D01*
X99788Y192198D01*
X99699Y192871D01*
X99439Y193498D01*
X99026Y194037D01*
X98488Y194450D01*
X97860Y194710D01*
X97188Y194799D01*
X96515Y194710D01*
X95888Y194450D01*
X95349Y194037D01*
X94936Y193498D01*
X94676Y192871D01*
X94587Y192198D01*
X94676Y191525D01*
X94936Y190898D01*
X95349Y190360D01*
X95454Y190279D01*
Y188927D01*
X95586Y188263D01*
X95962Y187701D01*
X98113Y185550D01*
X98239Y185466D01*
X98088Y184966D01*
X94706D01*
X92631Y187041D01*
Y201384D01*
X93131Y201554D01*
X93347Y201273D01*
D02*
G37*
G36*
X221164Y182481D02*
X198695Y160012D01*
X198233Y160204D01*
Y162432D01*
X198101Y163095D01*
X197726Y163658D01*
X195359Y166024D01*
X195592Y166498D01*
X195745Y166478D01*
X196418Y166566D01*
X197045Y166826D01*
X197584Y167239D01*
X197997Y167778D01*
X198257Y168405D01*
X198345Y169078D01*
X198328Y169210D01*
X201069Y171951D01*
X201640D01*
X201720Y171845D01*
X202259Y171432D01*
X202886Y171172D01*
X203559Y171084D01*
X204232Y171172D01*
X204859Y171432D01*
X205398Y171845D01*
X205811Y172384D01*
X206071Y173011D01*
X206159Y173684D01*
X206071Y174357D01*
X205811Y174984D01*
X205398Y175523D01*
X204859Y175936D01*
X204232Y176196D01*
X203559Y176284D01*
X202886Y176196D01*
X202259Y175936D01*
X201720Y175523D01*
X201640Y175417D01*
X200351D01*
X199688Y175285D01*
X199126Y174910D01*
X195877Y171661D01*
X195745Y171678D01*
X195072Y171590D01*
X194445Y171330D01*
X193906Y170917D01*
X193493Y170378D01*
X193234Y169751D01*
X193145Y169078D01*
X193165Y168925D01*
X192691Y168692D01*
X191292Y170091D01*
Y182942D01*
X220972D01*
X221164Y182481D01*
D02*
G37*
G36*
X163107Y166141D02*
Y148782D01*
X162810Y148583D01*
X162607Y148520D01*
X162000Y148600D01*
X161327Y148512D01*
X160700Y148252D01*
X160161Y147839D01*
X159748Y147300D01*
X159488Y146673D01*
X159400Y146000D01*
X159405Y145960D01*
X159375Y145915D01*
X159243Y145251D01*
Y142115D01*
X158781Y141924D01*
X155680Y145025D01*
X155797Y145615D01*
X155998Y145698D01*
X156537Y146112D01*
X156950Y146650D01*
X157210Y147277D01*
X157298Y147950D01*
X157210Y148623D01*
X156950Y149250D01*
X156731Y149536D01*
X156916Y149778D01*
X157176Y150405D01*
X157264Y151078D01*
X157176Y151751D01*
X156916Y152378D01*
X156643Y152734D01*
X156950Y153135D01*
X157210Y153762D01*
X157298Y154435D01*
X157210Y155108D01*
X156950Y155735D01*
X156537Y156274D01*
X155998Y156687D01*
X155371Y156947D01*
X154698Y157035D01*
X154025Y156947D01*
X153398Y156687D01*
X152860Y156274D01*
X152446Y155735D01*
X152187Y155108D01*
X152186Y155104D01*
X151686Y155137D01*
Y158857D01*
X159202Y166373D01*
X159578Y166936D01*
X159710Y167599D01*
Y168885D01*
X160172Y169076D01*
X163107Y166141D01*
D02*
G37*
G36*
X244436Y155047D02*
Y146191D01*
X243936Y145796D01*
X243601Y145840D01*
X242928Y145751D01*
X242301Y145492D01*
X241763Y145078D01*
X241349Y144540D01*
X241090Y143913D01*
X241001Y143240D01*
X241090Y142567D01*
X241349Y141940D01*
X241763Y141401D01*
X242301Y140988D01*
X242928Y140728D01*
X242943Y140707D01*
X242885Y140414D01*
Y128651D01*
X242385Y128256D01*
X242050Y128300D01*
X241377Y128212D01*
X240750Y127952D01*
X240211Y127539D01*
X239798Y127000D01*
X239538Y126373D01*
X239450Y125700D01*
X239538Y125027D01*
X239798Y124400D01*
X240142Y123952D01*
X239798Y123505D01*
X239654Y123156D01*
X239076Y123026D01*
X238796Y123307D01*
X238234Y123682D01*
X237570Y123814D01*
X234688D01*
X234370Y124314D01*
X234436Y124822D01*
X234348Y125495D01*
X234088Y126122D01*
X233675Y126661D01*
X233570Y126741D01*
Y128553D01*
X233570Y128553D01*
X233438Y129216D01*
X233062Y129779D01*
X230714Y132126D01*
X230152Y132502D01*
X229489Y132634D01*
X225573D01*
X224910Y132502D01*
X224407Y132166D01*
X224273Y132159D01*
X224247Y132164D01*
X223832Y132318D01*
X223647Y132765D01*
X223234Y133303D01*
X222695Y133716D01*
X222296Y133882D01*
X222138Y134395D01*
X222369Y134691D01*
X224928D01*
X225591Y134823D01*
X226153Y135199D01*
X230588Y139633D01*
X230704Y139744D01*
X231275Y139706D01*
X231474Y139553D01*
X232101Y139293D01*
X232433Y139250D01*
X232400Y139000D01*
X232488Y138327D01*
X232748Y137700D01*
X233161Y137161D01*
X233700Y136748D01*
X234327Y136488D01*
X235000Y136400D01*
X235673Y136488D01*
X236300Y136748D01*
X236839Y137161D01*
X237252Y137700D01*
X237512Y138327D01*
X237600Y139000D01*
X237512Y139673D01*
X237252Y140300D01*
X236839Y140839D01*
X236300Y141252D01*
X235673Y141512D01*
X235342Y141555D01*
X235375Y141805D01*
X235286Y142478D01*
X235026Y143105D01*
X234613Y143643D01*
X234074Y144056D01*
X233668Y144225D01*
X233514Y144778D01*
X243974Y155238D01*
X244436Y155047D01*
D02*
G37*
G36*
X189026Y157729D02*
X189564Y157315D01*
X190191Y157055D01*
X190864Y156967D01*
X191537Y157055D01*
X191912Y157211D01*
X192412Y156910D01*
Y154651D01*
X189828Y152067D01*
X189452Y151505D01*
X189320Y150841D01*
Y150431D01*
X189215Y150350D01*
X188802Y149812D01*
X188542Y149185D01*
X188453Y148512D01*
X188542Y147839D01*
X188802Y147212D01*
X189215Y146673D01*
X189753Y146260D01*
X190380Y146000D01*
X190899Y145932D01*
X191173Y145591D01*
X191232Y145431D01*
X191142Y145213D01*
X191053Y144540D01*
X191142Y143867D01*
X191402Y143240D01*
X191428Y143206D01*
X191181Y142706D01*
X188501D01*
X186665Y144541D01*
Y157842D01*
X188939D01*
X189026Y157729D01*
D02*
G37*
G36*
X253789Y171295D02*
Y137700D01*
X253911Y137085D01*
X254259Y136565D01*
X254780Y136217D01*
X255395Y136094D01*
Y115128D01*
X255388Y115122D01*
X258263D01*
X258375Y114653D01*
X257748Y114394D01*
X257300Y114050D01*
X256942Y113979D01*
X256297Y113548D01*
X251894Y109145D01*
X251463Y108500D01*
X251312Y107739D01*
Y98166D01*
X251066Y97573D01*
X250978Y96900D01*
X251066Y96227D01*
X251326Y95600D01*
X251739Y95061D01*
X252278Y94648D01*
X252905Y94388D01*
X253578Y94300D01*
X254251Y94388D01*
X254878Y94648D01*
X254976Y94723D01*
X255059Y94660D01*
X255686Y94400D01*
X256359Y94311D01*
X257030Y94400D01*
X257270Y94352D01*
X257992D01*
X258061Y94261D01*
X258600Y93848D01*
X259227Y93588D01*
X259611Y93538D01*
X259932Y93050D01*
X259934Y93012D01*
X259842Y92790D01*
X259753Y92117D01*
X259842Y91444D01*
X260102Y90817D01*
X260515Y90278D01*
X261054Y89865D01*
X261681Y89605D01*
X262354Y89517D01*
X262485Y89534D01*
X264121Y87899D01*
X264683Y87523D01*
X265346Y87391D01*
X274537D01*
X274618Y87286D01*
X275157Y86873D01*
X275784Y86613D01*
X276457Y86524D01*
X277130Y86613D01*
X277367Y86711D01*
X277867Y86377D01*
Y85312D01*
X277827Y85277D01*
X276897Y85154D01*
X276030Y84795D01*
X275286Y84224D01*
X274715Y83480D01*
X274689Y83417D01*
X264035D01*
X264009Y83480D01*
X263438Y84224D01*
X262694Y84795D01*
X261828Y85154D01*
X260898Y85277D01*
X259968Y85154D01*
X259336Y84893D01*
X258856Y85173D01*
X258837Y85203D01*
Y86690D01*
Y92239D01*
X253484D01*
Y86690D01*
Y82367D01*
X256385D01*
X257341Y81411D01*
X257427Y80754D01*
X257786Y79887D01*
X258357Y79143D01*
X259101Y78572D01*
X259968Y78213D01*
X260898Y78091D01*
X261828Y78213D01*
X262694Y78572D01*
X263438Y79143D01*
X264009Y79887D01*
X264035Y79950D01*
X268646D01*
X268695Y79451D01*
X268448Y79401D01*
X267674Y78884D01*
X267156Y78109D01*
X266975Y77196D01*
Y75542D01*
X267156Y74628D01*
X267481Y74142D01*
X267214Y73642D01*
X251718D01*
X242502Y82858D01*
Y104826D01*
X245302Y107625D01*
X247581D01*
Y112076D01*
X247645D01*
Y121169D01*
X247371D01*
Y139485D01*
X248265Y140379D01*
X248562Y140823D01*
X249127Y140588D01*
X249800Y140500D01*
X250473Y140588D01*
X251100Y140848D01*
X251639Y141261D01*
X252052Y141800D01*
X252312Y142427D01*
X252400Y143100D01*
X252312Y143773D01*
X252052Y144400D01*
X251639Y144939D01*
X251100Y145352D01*
X250473Y145612D01*
X249800Y145700D01*
X249422Y145650D01*
X248922Y146027D01*
Y163321D01*
X248751Y164179D01*
X248534Y164505D01*
X248512Y164673D01*
X248273Y165250D01*
X248512Y165827D01*
X248600Y166500D01*
X248512Y167173D01*
X248252Y167800D01*
X248243Y167812D01*
Y167838D01*
X248252Y167850D01*
X248512Y168477D01*
X248600Y169150D01*
X248520Y169760D01*
X248576Y169954D01*
X248780Y170260D01*
X251382D01*
X252046Y170392D01*
X252608Y170768D01*
X253327Y171487D01*
X253789Y171295D01*
D02*
G37*
G36*
X227940Y181938D02*
X228072Y181274D01*
X228448Y180712D01*
X234515Y174644D01*
X235078Y174269D01*
X235741Y174137D01*
X243484D01*
X243533Y173637D01*
X243322Y173595D01*
X242760Y173219D01*
X242174Y172633D01*
X241799Y172071D01*
X241667Y171408D01*
Y157833D01*
X228248Y144415D01*
X227873Y143853D01*
X227741Y143189D01*
Y141688D01*
X224210Y138157D01*
X221505D01*
X221505Y138158D01*
X220842Y138026D01*
X220280Y137650D01*
X217217Y134588D01*
X197084D01*
X197003Y134693D01*
X196465Y135106D01*
X196060Y135274D01*
X195907Y135828D01*
X199826Y139747D01*
X199826Y139747D01*
X200201Y140310D01*
X200333Y140973D01*
Y156748D01*
X225785Y182199D01*
X225785Y182199D01*
X226160Y182761D01*
X226197Y182942D01*
X227940D01*
Y181938D01*
D02*
G37*
G36*
X186557Y139747D02*
X186557Y139747D01*
X187119Y139371D01*
X187783Y139240D01*
X187783Y139240D01*
X191734D01*
X191815Y139134D01*
X192353Y138721D01*
X192981Y138461D01*
X193000Y138459D01*
X193161Y137985D01*
X191361Y136185D01*
X190985Y135623D01*
X190853Y134959D01*
Y134387D01*
X190347Y133880D01*
X189717Y133957D01*
X189505Y134233D01*
X188967Y134646D01*
X188340Y134906D01*
X187667Y134995D01*
X186994Y134906D01*
X186367Y134646D01*
X185828Y134233D01*
X185415Y133695D01*
X185155Y133068D01*
X185066Y132395D01*
X185155Y131722D01*
X185169Y131688D01*
X178352Y124870D01*
X177976Y124308D01*
X177844Y123645D01*
Y115053D01*
X177382Y114862D01*
X174169Y118076D01*
X174353Y118521D01*
X174441Y119194D01*
X174353Y119867D01*
X174093Y120494D01*
X173680Y121032D01*
X173141Y121446D01*
X172945Y121527D01*
X172731Y121847D01*
X172731Y121847D01*
X171674Y122904D01*
Y130328D01*
X172174Y130687D01*
X172591Y130632D01*
X173264Y130721D01*
X173891Y130980D01*
X174429Y131394D01*
X174575Y131584D01*
X183314D01*
Y136584D01*
Y142304D01*
X183390Y142361D01*
X183814Y142490D01*
X186557Y139747D01*
D02*
G37*
G36*
X230103Y127835D02*
Y126741D01*
X229998Y126661D01*
X229584Y126122D01*
X229325Y125495D01*
X229279Y125145D01*
X228759Y124820D01*
X228757D01*
X228578Y124894D01*
X227905Y124983D01*
X227232Y124894D01*
X226605Y124635D01*
X226066Y124222D01*
X225754Y123814D01*
X211803D01*
X211686Y124097D01*
X211273Y124636D01*
X210734Y125049D01*
X210107Y125309D01*
X209434Y125398D01*
X208761Y125309D01*
X208134Y125049D01*
X207595Y124636D01*
X207182Y124097D01*
X206922Y123470D01*
X206834Y122797D01*
X206922Y122124D01*
X207111Y121669D01*
X206857Y121169D01*
X193105D01*
X192914Y121631D01*
X198387Y127104D01*
X198977Y126987D01*
X199048Y126814D01*
X199461Y126276D01*
X200000Y125862D01*
X200627Y125603D01*
X201300Y125514D01*
X201973Y125603D01*
X202600Y125862D01*
X203139Y126276D01*
X203552Y126814D01*
X203812Y127441D01*
X203900Y128114D01*
X203855Y128459D01*
X204246Y128959D01*
X213974D01*
X215582Y127351D01*
X216144Y126975D01*
X216808Y126843D01*
X223249D01*
X223913Y126975D01*
X224475Y127351D01*
X226291Y129167D01*
X228771D01*
X230103Y127835D01*
D02*
G37*
G36*
X261054Y109890D02*
X261681Y109630D01*
X262354Y109541D01*
X263027Y109630D01*
X263450Y109805D01*
X263950Y109532D01*
Y107038D01*
X264991D01*
Y97206D01*
X262769Y94984D01*
X262345Y95267D01*
X262412Y95427D01*
X262500Y96100D01*
X262412Y96773D01*
X262207Y97268D01*
X262694Y97470D01*
X263438Y98041D01*
X264009Y98785D01*
X264368Y99651D01*
X264491Y100582D01*
X264368Y101511D01*
X264009Y102378D01*
X263438Y103122D01*
X262694Y103693D01*
X261828Y104052D01*
X260898Y104174D01*
X259968Y104052D01*
X259101Y103693D01*
X258357Y103122D01*
X257786Y102378D01*
X257427Y101511D01*
X257305Y100582D01*
X257406Y99809D01*
X257095Y99488D01*
X256978Y99430D01*
X256359Y99512D01*
X255788Y99437D01*
X255288Y99724D01*
Y106915D01*
X258112Y109739D01*
X258375Y109630D01*
X259048Y109541D01*
X259721Y109630D01*
X260348Y109890D01*
X260692Y110153D01*
X260710D01*
X261054Y109890D01*
D02*
G37*
G36*
X204719Y111638D02*
X205441Y110916D01*
X206003Y110540D01*
X206667Y110408D01*
X209337D01*
X212127Y107619D01*
X211906Y107170D01*
X211824Y107181D01*
X210276D01*
X208741Y106979D01*
X207246Y106578D01*
X205815Y105986D01*
X204474Y105212D01*
X203246Y104269D01*
X202151Y103174D01*
X201209Y101946D01*
X200556Y100816D01*
X200056Y100950D01*
Y102834D01*
X200056Y102834D01*
X199924Y103497D01*
X199549Y104059D01*
X199082Y104526D01*
X199230Y105085D01*
X199623Y105248D01*
X200162Y105661D01*
X200575Y106200D01*
X200835Y106827D01*
X200923Y107500D01*
X200906Y107632D01*
X202874Y109600D01*
X203250Y110162D01*
X203382Y110826D01*
Y112076D01*
X204426D01*
X204719Y111638D01*
D02*
G37*
G36*
X276528Y114205D02*
X280194D01*
Y103821D01*
X279745Y103600D01*
X279623Y103693D01*
X278757Y104052D01*
X277827Y104174D01*
X276897Y104052D01*
X276030Y103693D01*
X275286Y103122D01*
X274778Y102460D01*
X274457Y102506D01*
X274278Y102594D01*
Y107032D01*
X275320D01*
Y112385D01*
X275320D01*
Y112741D01*
X275320D01*
Y115122D01*
X276528D01*
Y114205D01*
D02*
G37*
G36*
X182729Y102208D02*
Y101500D01*
X182861Y100836D01*
X183237Y100274D01*
X183336Y100175D01*
Y97654D01*
X183178Y97589D01*
X182836Y97503D01*
X182325Y97844D01*
X182255Y97858D01*
Y99795D01*
X176706D01*
Y98392D01*
X176244Y98200D01*
X173901Y100543D01*
Y110076D01*
X173838Y110393D01*
X174299Y110639D01*
X182729Y102208D01*
D02*
G37*
G36*
X223308Y94162D02*
Y68479D01*
X222809Y68089D01*
X222050Y68189D01*
X220966Y68046D01*
X220118Y67694D01*
X219618Y67943D01*
Y69265D01*
X219618Y69265D01*
X219490Y69908D01*
X219125Y70454D01*
X219125Y70454D01*
X217374Y72205D01*
X217400Y72400D01*
X217312Y73073D01*
X217052Y73700D01*
X216639Y74239D01*
X216100Y74652D01*
X215473Y74912D01*
X214800Y75000D01*
X214127Y74912D01*
X213500Y74652D01*
X212961Y74239D01*
X212548Y73700D01*
X212288Y73073D01*
X212200Y72400D01*
X212288Y71727D01*
X212548Y71100D01*
X212844Y70714D01*
X212835Y70707D01*
X212421Y70168D01*
X212162Y69541D01*
X212073Y68868D01*
X212098Y68680D01*
X212094Y68645D01*
X211665Y68138D01*
X210966Y68046D01*
X209956Y67627D01*
X209615Y67366D01*
X209166Y67587D01*
Y77759D01*
X209034Y78422D01*
X208659Y78985D01*
X199718Y87926D01*
Y90560D01*
X200218Y90659D01*
X200435Y90135D01*
X201209Y88794D01*
X202151Y87566D01*
X203246Y86471D01*
X204474Y85528D01*
X205815Y84754D01*
X207246Y84162D01*
X208741Y83761D01*
X210276Y83559D01*
X211824D01*
X213359Y83761D01*
X214855Y84162D01*
X216285Y84754D01*
X217626Y85528D01*
X218855Y86471D01*
X219949Y87566D01*
X220892Y88794D01*
X221666Y90135D01*
X222258Y91565D01*
X222659Y93061D01*
X222809Y94195D01*
X223308Y94162D01*
D02*
G37*
G36*
X126119Y75413D02*
X126953Y74327D01*
X128039Y73493D01*
X128928Y73125D01*
Y72296D01*
X124969D01*
Y66746D01*
Y62545D01*
X124469Y62298D01*
X123536Y63014D01*
X122149Y63589D01*
X120661Y63785D01*
X119173Y63589D01*
X117787Y63014D01*
X116596Y62101D01*
X115682Y60910D01*
X115108Y59523D01*
X114912Y58035D01*
X115108Y56547D01*
X115682Y55161D01*
X116596Y53970D01*
X117787Y53057D01*
X119173Y52482D01*
X120661Y52286D01*
X120710Y52293D01*
X120931Y51844D01*
X119130Y50042D01*
X109751D01*
X109581Y50542D01*
X110467Y51222D01*
X111290Y52295D01*
X111808Y53545D01*
X111985Y54886D01*
X111808Y56227D01*
X111544Y56865D01*
Y65417D01*
Y70643D01*
X114196Y73295D01*
X118683D01*
X119320Y73031D01*
X120661Y72854D01*
X122002Y73031D01*
X123252Y73548D01*
X124325Y74372D01*
X125149Y75445D01*
X125377Y75997D01*
X125877D01*
X126119Y75413D01*
D02*
G37*
G36*
X173231Y82792D02*
Y74390D01*
X168896Y70054D01*
X163945D01*
X163555Y70554D01*
X163600Y70900D01*
X163583Y71032D01*
X164544Y71993D01*
X164920Y72555D01*
X165052Y73219D01*
Y73371D01*
X165995D01*
Y75663D01*
X166491Y75995D01*
X167077Y76581D01*
X167453Y77143D01*
X167585Y77806D01*
Y82886D01*
X167493Y83346D01*
X167810Y83846D01*
X172178D01*
X173231Y82792D01*
D02*
G37*
G36*
X157985Y75995D02*
X158548Y75619D01*
X159211Y75487D01*
X160642D01*
Y73453D01*
X160327Y73412D01*
X159700Y73152D01*
X159161Y72739D01*
X158748Y72200D01*
X158488Y71573D01*
X158400Y70900D01*
X158445Y70554D01*
X158055Y70054D01*
X154612D01*
X154612Y70054D01*
X153968Y69926D01*
X153423Y69562D01*
X153422Y69562D01*
X151649Y67789D01*
X151376Y67782D01*
X151287Y67803D01*
X151139Y68316D01*
X153073Y70250D01*
X153404Y70746D01*
X153521Y71331D01*
Y75525D01*
X156700D01*
Y76567D01*
X157413D01*
X157985Y75995D01*
D02*
G37*
G36*
X274715Y79887D02*
X275286Y79143D01*
X276030Y78572D01*
X276897Y78213D01*
X277827Y78091D01*
X278757Y78213D01*
X279623Y78572D01*
X279745Y78666D01*
X280194Y78445D01*
Y68657D01*
X279694Y68505D01*
X279413Y68925D01*
X275353Y72986D01*
X274625Y73472D01*
X273767Y73642D01*
X271511D01*
X271243Y74142D01*
X271568Y74628D01*
X271750Y75542D01*
Y77196D01*
X271568Y78109D01*
X271051Y78884D01*
X270276Y79401D01*
X270029Y79451D01*
X270079Y79950D01*
X274689D01*
X274715Y79887D01*
D02*
G37*
G36*
X179647Y85086D02*
X180209Y84711D01*
X180872Y84579D01*
X180872Y84579D01*
X183336D01*
Y82248D01*
X183475Y81549D01*
X183870Y80957D01*
X184463Y80561D01*
X185161Y80422D01*
X185860Y80561D01*
X186441Y80949D01*
X186924Y80627D01*
X187136Y80082D01*
X187077Y80005D01*
X186817Y79378D01*
X186729Y78705D01*
X186817Y78032D01*
X187077Y77405D01*
X187490Y76866D01*
X188029Y76453D01*
X188656Y76193D01*
X189329Y76104D01*
X189571Y76136D01*
X189947Y75807D01*
Y71203D01*
X185612Y66869D01*
X185237Y66306D01*
X185105Y65643D01*
Y63633D01*
X183052Y61580D01*
X181048D01*
X176303Y66326D01*
X175806Y66658D01*
X175589Y67155D01*
X175871Y67523D01*
X176130Y68150D01*
X176219Y68823D01*
X176202Y68955D01*
X177866Y70619D01*
X178242Y71182D01*
X178374Y71845D01*
Y85706D01*
X178836Y85897D01*
X179647Y85086D01*
D02*
G37*
%LPC*%
G36*
X187000Y357689D02*
X185916Y357546D01*
X184906Y357127D01*
X184038Y356462D01*
X183373Y355594D01*
X182954Y354584D01*
X182811Y353500D01*
X182954Y352416D01*
X183373Y351406D01*
X184038Y350538D01*
X184906Y349873D01*
X185916Y349454D01*
X187000Y349311D01*
X188084Y349454D01*
X189094Y349873D01*
X189962Y350538D01*
X190627Y351406D01*
X191046Y352416D01*
X191189Y353500D01*
X191046Y354584D01*
X190627Y355594D01*
X189962Y356462D01*
X189094Y357127D01*
X188084Y357546D01*
X187000Y357689D01*
D02*
G37*
G36*
X177000D02*
X175916Y357546D01*
X174906Y357127D01*
X174038Y356462D01*
X173373Y355594D01*
X172954Y354584D01*
X172811Y353500D01*
X172954Y352416D01*
X173373Y351406D01*
X174038Y350538D01*
X174906Y349873D01*
X175916Y349454D01*
X177000Y349311D01*
X178084Y349454D01*
X179094Y349873D01*
X179962Y350538D01*
X180627Y351406D01*
X181046Y352416D01*
X181189Y353500D01*
X181046Y354584D01*
X180627Y355594D01*
X179962Y356462D01*
X179094Y357127D01*
X178084Y357546D01*
X177000Y357689D01*
D02*
G37*
G36*
X167000D02*
X165916Y357546D01*
X164906Y357127D01*
X164038Y356462D01*
X163373Y355594D01*
X162954Y354584D01*
X162811Y353500D01*
X162954Y352416D01*
X163373Y351406D01*
X164038Y350538D01*
X164906Y349873D01*
X165916Y349454D01*
X167000Y349311D01*
X168084Y349454D01*
X169094Y349873D01*
X169962Y350538D01*
X170627Y351406D01*
X171046Y352416D01*
X171189Y353500D01*
X171046Y354584D01*
X170627Y355594D01*
X169962Y356462D01*
X169094Y357127D01*
X168084Y357546D01*
X167000Y357689D01*
D02*
G37*
G36*
X251278Y355211D02*
X249730D01*
X248195Y355009D01*
X246699Y354608D01*
X245269Y354016D01*
X243928Y353242D01*
X242700Y352299D01*
X241605Y351204D01*
X240662Y349976D01*
X239888Y348635D01*
X239296Y347205D01*
X238895Y345709D01*
X238693Y344174D01*
Y342626D01*
X238895Y341091D01*
X239296Y339595D01*
X239888Y338165D01*
X240662Y336824D01*
X241605Y335596D01*
X242700Y334501D01*
X243928Y333558D01*
X245269Y332784D01*
X246699Y332192D01*
X248195Y331791D01*
X249730Y331589D01*
X251278D01*
X252813Y331791D01*
X254309Y332192D01*
X255739Y332784D01*
X257080Y333558D01*
X258308Y334501D01*
X259403Y335596D01*
X260346Y336824D01*
X261120Y338165D01*
X261712Y339595D01*
X262113Y341091D01*
X262315Y342626D01*
Y344174D01*
X262113Y345709D01*
X261712Y347205D01*
X261120Y348635D01*
X260346Y349976D01*
X259403Y351204D01*
X258308Y352299D01*
X257080Y353242D01*
X255739Y354016D01*
X254309Y354608D01*
X252813Y355009D01*
X251278Y355211D01*
D02*
G37*
G36*
X54418D02*
X52870D01*
X51335Y355009D01*
X49839Y354608D01*
X48409Y354016D01*
X47068Y353242D01*
X45840Y352299D01*
X44745Y351204D01*
X43802Y349976D01*
X43028Y348635D01*
X42436Y347205D01*
X42035Y345709D01*
X41833Y344174D01*
Y342626D01*
X42035Y341091D01*
X42436Y339595D01*
X43028Y338165D01*
X43802Y336824D01*
X44745Y335596D01*
X45840Y334501D01*
X47068Y333558D01*
X48409Y332784D01*
X49839Y332192D01*
X51335Y331791D01*
X52870Y331589D01*
X54418D01*
X55953Y331791D01*
X57449Y332192D01*
X58879Y332784D01*
X60220Y333558D01*
X61448Y334501D01*
X62543Y335596D01*
X63485Y336824D01*
X64260Y338165D01*
X64852Y339595D01*
X65253Y341091D01*
X65455Y342626D01*
Y344174D01*
X65253Y345709D01*
X64852Y347205D01*
X64260Y348635D01*
X63485Y349976D01*
X62543Y351204D01*
X61448Y352299D01*
X60220Y353242D01*
X58879Y354016D01*
X57449Y354608D01*
X55953Y355009D01*
X54418Y355211D01*
D02*
G37*
G36*
X98000Y335600D02*
X97327Y335512D01*
X96700Y335252D01*
X96161Y334839D01*
X95748Y334300D01*
X95488Y333673D01*
X95400Y333000D01*
X95488Y332327D01*
X95748Y331700D01*
X96161Y331161D01*
X96700Y330748D01*
X97327Y330488D01*
X98000Y330400D01*
X98673Y330488D01*
X99300Y330748D01*
X99839Y331161D01*
X100252Y331700D01*
X100512Y332327D01*
X100600Y333000D01*
X100512Y333673D01*
X100252Y334300D01*
X99839Y334839D01*
X99300Y335252D01*
X98673Y335512D01*
X98000Y335600D01*
D02*
G37*
G36*
X137000Y325789D02*
X135916Y325646D01*
X134906Y325227D01*
X134038Y324562D01*
X133373Y323694D01*
X132954Y322684D01*
X132811Y321600D01*
X132954Y320516D01*
X133373Y319506D01*
X134038Y318638D01*
X134906Y317973D01*
X135916Y317554D01*
X137000Y317411D01*
X138084Y317554D01*
X139094Y317973D01*
X139962Y318638D01*
X140627Y319506D01*
X141046Y320516D01*
X141189Y321600D01*
X141046Y322684D01*
X140627Y323694D01*
X139962Y324562D01*
X139094Y325227D01*
X138084Y325646D01*
X137000Y325789D01*
D02*
G37*
G36*
X147000Y315789D02*
X145916Y315646D01*
X144906Y315227D01*
X144038Y314562D01*
X143373Y313694D01*
X142954Y312684D01*
X142811Y311600D01*
X142954Y310516D01*
X143373Y309506D01*
X144038Y308638D01*
X144906Y307973D01*
X145916Y307554D01*
X147000Y307411D01*
X148084Y307554D01*
X149094Y307973D01*
X149962Y308638D01*
X150627Y309506D01*
X151046Y310516D01*
X151189Y311600D01*
X151046Y312684D01*
X150627Y313694D01*
X149962Y314562D01*
X149094Y315227D01*
X148084Y315646D01*
X147000Y315789D01*
D02*
G37*
G36*
X54418Y327652D02*
X52870D01*
X51335Y327450D01*
X49839Y327049D01*
X48409Y326457D01*
X47068Y325682D01*
X45840Y324740D01*
X44745Y323645D01*
X43802Y322417D01*
X43028Y321076D01*
X42436Y319646D01*
X42035Y318150D01*
X41833Y316615D01*
Y315067D01*
X42035Y313532D01*
X42436Y312036D01*
X43028Y310606D01*
X43802Y309265D01*
X44745Y308037D01*
X45840Y306942D01*
X47068Y305999D01*
X48409Y305225D01*
X49839Y304633D01*
X51335Y304232D01*
X52870Y304030D01*
X54418D01*
X55953Y304232D01*
X57449Y304633D01*
X58879Y305225D01*
X60220Y305999D01*
X61448Y306942D01*
X62543Y308037D01*
X63485Y309265D01*
X64260Y310606D01*
X64852Y312036D01*
X65253Y313532D01*
X65455Y315067D01*
Y316615D01*
X65253Y318150D01*
X64852Y319646D01*
X64260Y321076D01*
X63485Y322417D01*
X62543Y323645D01*
X61448Y324740D01*
X60220Y325682D01*
X58879Y326457D01*
X57449Y327049D01*
X55953Y327450D01*
X54418Y327652D01*
D02*
G37*
G36*
X251278Y327652D02*
X249730D01*
X248195Y327450D01*
X246699Y327049D01*
X245269Y326457D01*
X243928Y325682D01*
X242700Y324740D01*
X241605Y323645D01*
X240662Y322417D01*
X239888Y321076D01*
X239296Y319646D01*
X238895Y318150D01*
X238693Y316615D01*
Y315067D01*
X238895Y313532D01*
X239296Y312036D01*
X239888Y310606D01*
X240662Y309265D01*
X241605Y308037D01*
X242700Y306942D01*
X243928Y305999D01*
X245269Y305225D01*
X246699Y304633D01*
X248195Y304232D01*
X249730Y304030D01*
X251278D01*
X252813Y304232D01*
X254309Y304633D01*
X255739Y305225D01*
X257080Y305999D01*
X258308Y306942D01*
X259403Y308037D01*
X260346Y309265D01*
X261120Y310606D01*
X261712Y312036D01*
X262113Y313532D01*
X262315Y315067D01*
Y316615D01*
X262113Y318150D01*
X261712Y319646D01*
X261120Y321076D01*
X260346Y322417D01*
X259403Y323645D01*
X258308Y324740D01*
X257080Y325682D01*
X255739Y326457D01*
X254309Y327049D01*
X252813Y327450D01*
X251278Y327652D01*
D02*
G37*
G36*
X108768Y289329D02*
X107684Y289186D01*
X106674Y288768D01*
X105806Y288102D01*
X105140Y287235D01*
X104722Y286225D01*
X104579Y285140D01*
X104722Y284056D01*
X105140Y283046D01*
X105806Y282179D01*
X106674Y281513D01*
X107684Y281095D01*
X108768Y280952D01*
X109852Y281095D01*
X110862Y281513D01*
X111730Y282179D01*
X112395Y283046D01*
X112814Y284056D01*
X112956Y285140D01*
X112814Y286225D01*
X112395Y287235D01*
X111730Y288102D01*
X110862Y288768D01*
X109852Y289186D01*
X108768Y289329D01*
D02*
G37*
G36*
X251205Y279623D02*
X250532Y279534D01*
X249905Y279274D01*
X249367Y278861D01*
X248954Y278323D01*
X248694Y277695D01*
X248605Y277023D01*
X248694Y276349D01*
X248954Y275722D01*
X249367Y275184D01*
X249905Y274771D01*
X250532Y274511D01*
X251205Y274422D01*
X251261Y274430D01*
X251612Y273972D01*
X251488Y273673D01*
X251400Y273000D01*
X251488Y272327D01*
X251748Y271700D01*
X252161Y271161D01*
X252700Y270748D01*
X253327Y270488D01*
X254000Y270400D01*
X254673Y270488D01*
X254772Y270530D01*
X255188Y270252D01*
Y267436D01*
X255083Y267355D01*
X254670Y266817D01*
X254410Y266190D01*
X254321Y265517D01*
X254410Y264844D01*
X254670Y264216D01*
X255083Y263678D01*
X255621Y263265D01*
X256248Y263005D01*
X256921Y262916D01*
X257594Y263005D01*
X258222Y263265D01*
X258760Y263678D01*
X259173Y264216D01*
X259433Y264844D01*
X259522Y265517D01*
X259433Y266190D01*
X259173Y266817D01*
X258760Y267355D01*
X258655Y267436D01*
Y275217D01*
X258523Y275881D01*
X258147Y276443D01*
X256342Y278248D01*
X255780Y278624D01*
X255116Y278756D01*
X253125D01*
X253044Y278861D01*
X252505Y279274D01*
X251878Y279534D01*
X251205Y279623D01*
D02*
G37*
G36*
X238142Y266541D02*
X237469Y266453D01*
X236842Y266193D01*
X236303Y265780D01*
X235890Y265241D01*
X235630Y264614D01*
X235542Y263941D01*
X235630Y263268D01*
X235890Y262641D01*
X235906Y262620D01*
X231244Y257958D01*
X230985Y257992D01*
X230312Y257904D01*
X229685Y257644D01*
X229146Y257231D01*
X228733Y256692D01*
X228473Y256065D01*
X228385Y255392D01*
X228473Y254719D01*
X228733Y254092D01*
X229146Y253554D01*
X229685Y253140D01*
X230312Y252881D01*
X230985Y252792D01*
X231658Y252881D01*
X232285Y253140D01*
X232824Y253554D01*
X233237Y254092D01*
X233497Y254719D01*
X233585Y255392D01*
X233551Y255651D01*
X238968Y261068D01*
X239322Y261598D01*
X239331Y261643D01*
X239442Y261689D01*
X239980Y262102D01*
X240394Y262641D01*
X240653Y263268D01*
X240742Y263941D01*
X240653Y264614D01*
X240394Y265241D01*
X239980Y265780D01*
X239442Y266193D01*
X238815Y266453D01*
X238142Y266541D01*
D02*
G37*
G36*
X74835Y258624D02*
X72866D01*
X71782Y258481D01*
X70772Y258063D01*
X69904Y257397D01*
X69239Y256529D01*
X69100Y256195D01*
X68600D01*
X68462Y256529D01*
X67796Y257397D01*
X66929Y258063D01*
X65919Y258481D01*
X64835Y258624D01*
X62866D01*
X61782Y258481D01*
X60772Y258063D01*
X59904Y257397D01*
X59239Y256529D01*
X58820Y255519D01*
X58678Y254435D01*
X58820Y253351D01*
X59239Y252341D01*
X59904Y251473D01*
X60772Y250808D01*
X61782Y250389D01*
X62866Y250247D01*
X64835D01*
X65919Y250389D01*
X66929Y250808D01*
X67796Y251473D01*
X68462Y252341D01*
X68600Y252675D01*
X69100D01*
X69239Y252341D01*
X69904Y251473D01*
X70772Y250808D01*
X71782Y250389D01*
X72866Y250247D01*
X74835D01*
X75919Y250389D01*
X76929Y250808D01*
X77796Y251473D01*
X78462Y252341D01*
X78881Y253351D01*
X79023Y254435D01*
X78881Y255519D01*
X78462Y256529D01*
X77796Y257397D01*
X76929Y258063D01*
X75919Y258481D01*
X74835Y258624D01*
D02*
G37*
G36*
X153572Y262600D02*
X152899Y262512D01*
X152271Y262252D01*
X151733Y261839D01*
X151320Y261300D01*
X151060Y260673D01*
X150971Y260000D01*
X151060Y259327D01*
X151320Y258700D01*
X151733Y258161D01*
X152271Y257748D01*
X152799Y257530D01*
X152832Y257371D01*
Y257171D01*
X152799Y257013D01*
X152271Y256794D01*
X151733Y256381D01*
X151320Y255843D01*
X151060Y255215D01*
X150971Y254542D01*
X151060Y253870D01*
X151320Y253242D01*
X151733Y252704D01*
X152271Y252291D01*
X152899Y252031D01*
X153572Y251942D01*
X154245Y252031D01*
X154872Y252291D01*
X155410Y252704D01*
X155824Y253242D01*
X156083Y253870D01*
X156172Y254542D01*
X156083Y255215D01*
X155824Y255843D01*
X155410Y256381D01*
X154872Y256794D01*
X154344Y257013D01*
X154311Y257171D01*
Y257371D01*
X154344Y257530D01*
X154872Y257748D01*
X155410Y258161D01*
X155824Y258700D01*
X156083Y259327D01*
X156172Y260000D01*
X156083Y260673D01*
X155824Y261300D01*
X155410Y261839D01*
X154872Y262252D01*
X154245Y262512D01*
X153572Y262600D01*
D02*
G37*
G36*
X43500Y258689D02*
X42416Y258546D01*
X41406Y258127D01*
X40538Y257462D01*
X39873Y256594D01*
X39454Y255584D01*
X39311Y254500D01*
X39454Y253416D01*
X39873Y252406D01*
X40538Y251538D01*
X41406Y250873D01*
X42416Y250454D01*
X43500Y250311D01*
X44584Y250454D01*
X45594Y250873D01*
X46462Y251538D01*
X47127Y252406D01*
X47546Y253416D01*
X47689Y254500D01*
X47546Y255584D01*
X47127Y256594D01*
X46462Y257462D01*
X45594Y258127D01*
X44584Y258546D01*
X43500Y258689D01*
D02*
G37*
G36*
X33500D02*
X32416Y258546D01*
X31406Y258127D01*
X30538Y257462D01*
X29873Y256594D01*
X29454Y255584D01*
X29311Y254500D01*
X29454Y253416D01*
X29873Y252406D01*
X30538Y251538D01*
X31406Y250873D01*
X32416Y250454D01*
X33500Y250311D01*
X34584Y250454D01*
X35594Y250873D01*
X36462Y251538D01*
X37127Y252406D01*
X37546Y253416D01*
X37689Y254500D01*
X37546Y255584D01*
X37127Y256594D01*
X36462Y257462D01*
X35594Y258127D01*
X34584Y258546D01*
X33500Y258689D01*
D02*
G37*
G36*
X254000Y254600D02*
X253327Y254512D01*
X252700Y254252D01*
X252161Y253839D01*
X251748Y253300D01*
X251488Y252673D01*
X251400Y252000D01*
X251488Y251327D01*
X251748Y250700D01*
X252161Y250161D01*
X252700Y249748D01*
X253327Y249488D01*
X254000Y249400D01*
X254673Y249488D01*
X255300Y249748D01*
X255839Y250161D01*
X256252Y250700D01*
X256512Y251327D01*
X256600Y252000D01*
X256512Y252673D01*
X256252Y253300D01*
X255839Y253839D01*
X255300Y254252D01*
X254673Y254512D01*
X254000Y254600D01*
D02*
G37*
G36*
X274337Y251344D02*
X273664Y251256D01*
X273037Y250996D01*
X272498Y250583D01*
X272085Y250044D01*
X271825Y249417D01*
X271737Y248744D01*
X271825Y248071D01*
X272085Y247444D01*
X272498Y246905D01*
X273037Y246492D01*
X273664Y246233D01*
X274337Y246144D01*
X275010Y246233D01*
X275637Y246492D01*
X276175Y246905D01*
X276589Y247444D01*
X276848Y248071D01*
X276937Y248744D01*
X276848Y249417D01*
X276589Y250044D01*
X276175Y250583D01*
X275637Y250996D01*
X275010Y251256D01*
X274337Y251344D01*
D02*
G37*
G36*
X33500Y248689D02*
X32416Y248546D01*
X31406Y248127D01*
X30538Y247462D01*
X29873Y246594D01*
X29454Y245584D01*
X29311Y244500D01*
X29454Y243416D01*
X29873Y242406D01*
X30538Y241538D01*
X31406Y240873D01*
X32416Y240454D01*
X33500Y240311D01*
X34584Y240454D01*
X34892Y240582D01*
X37444Y238029D01*
X38089Y237598D01*
X38850Y237447D01*
X39961D01*
X40183Y236998D01*
X39873Y236594D01*
X39454Y235584D01*
X39311Y234500D01*
X39454Y233416D01*
X39873Y232406D01*
X40112Y232094D01*
X39887Y231595D01*
X39542Y231555D01*
X37562Y233536D01*
X37689Y234500D01*
X37546Y235584D01*
X37127Y236594D01*
X36462Y237462D01*
X35594Y238127D01*
X34584Y238546D01*
X33500Y238689D01*
X32416Y238546D01*
X31406Y238127D01*
X30538Y237462D01*
X29873Y236594D01*
X29454Y235584D01*
X29311Y234500D01*
X29454Y233416D01*
X29873Y232406D01*
X30538Y231538D01*
X31406Y230873D01*
X32416Y230454D01*
X33500Y230311D01*
X34584Y230454D01*
X34892Y230582D01*
X37444Y228029D01*
X38089Y227598D01*
X38850Y227447D01*
X39961D01*
X40183Y226998D01*
X39873Y226594D01*
X39454Y225584D01*
X39311Y224500D01*
X39454Y223416D01*
X39873Y222406D01*
X40538Y221538D01*
X41406Y220873D01*
X42416Y220454D01*
X43500Y220311D01*
X44584Y220454D01*
X45594Y220873D01*
X46462Y221538D01*
X47127Y222406D01*
X47546Y223416D01*
X47689Y224500D01*
X47546Y225584D01*
X47127Y226594D01*
X46817Y226998D01*
X47038Y227447D01*
X59312D01*
X59559Y226947D01*
X59239Y226529D01*
X58820Y225519D01*
X58678Y224435D01*
X58820Y223351D01*
X59239Y222341D01*
X59904Y221473D01*
X60772Y220808D01*
X61782Y220389D01*
X62866Y220247D01*
X64835D01*
X65919Y220389D01*
X66929Y220808D01*
X67796Y221473D01*
X68462Y222341D01*
X68880Y223351D01*
X69023Y224435D01*
X68880Y225519D01*
X68462Y226529D01*
X68142Y226947D01*
X68388Y227447D01*
X68850D01*
X69611Y227598D01*
X70256Y228029D01*
X72519Y230292D01*
X72866Y230246D01*
X74835D01*
X75919Y230389D01*
X76929Y230808D01*
X77796Y231473D01*
X78462Y232341D01*
X78881Y233351D01*
X79023Y234435D01*
X78881Y235519D01*
X78462Y236529D01*
X77796Y237397D01*
X76929Y238063D01*
X75919Y238481D01*
X74835Y238624D01*
X72866D01*
X71782Y238481D01*
X71156Y238221D01*
X70872Y238645D01*
X72519Y240292D01*
X72866Y240247D01*
X74835D01*
X75919Y240389D01*
X76929Y240808D01*
X77796Y241473D01*
X78462Y242341D01*
X78881Y243351D01*
X79023Y244435D01*
X78881Y245519D01*
X78462Y246529D01*
X77796Y247397D01*
X76929Y248062D01*
X75919Y248481D01*
X74835Y248624D01*
X72866D01*
X71782Y248481D01*
X70772Y248062D01*
X69904Y247397D01*
X69239Y246529D01*
X68820Y245519D01*
X68678Y244435D01*
X68820Y243351D01*
X69152Y242549D01*
X68027Y241423D01*
X39674D01*
X37562Y243536D01*
X37689Y244500D01*
X37546Y245584D01*
X37127Y246594D01*
X36462Y247462D01*
X35594Y248127D01*
X34584Y248546D01*
X33500Y248689D01*
D02*
G37*
G36*
X221922Y236226D02*
X221249Y236137D01*
X220622Y235878D01*
X220083Y235464D01*
X219670Y234926D01*
X219410Y234299D01*
X219322Y233626D01*
X219410Y232953D01*
X219670Y232326D01*
X220083Y231787D01*
X220622Y231374D01*
X221249Y231114D01*
X221922Y231026D01*
X222595Y231114D01*
X223222Y231374D01*
X223761Y231787D01*
X224174Y232326D01*
X224434Y232953D01*
X224522Y233626D01*
X224498Y233811D01*
X224544Y234043D01*
X224412Y234706D01*
X224036Y235268D01*
X223779Y235440D01*
X223761Y235464D01*
X223222Y235878D01*
X222595Y236137D01*
X221922Y236226D01*
D02*
G37*
G36*
X231055Y231386D02*
X230382Y231297D01*
X229755Y231037D01*
X229217Y230624D01*
X228803Y230085D01*
X228543Y229458D01*
X228455Y228785D01*
X228516Y228318D01*
X228438Y228032D01*
X228133Y227798D01*
X227711Y227743D01*
X227083Y227483D01*
X226545Y227070D01*
X226132Y226531D01*
X225872Y225904D01*
X225783Y225231D01*
X225872Y224558D01*
X226132Y223931D01*
X226411Y223567D01*
Y220687D01*
X226066Y220423D01*
X225653Y219884D01*
X225394Y219257D01*
X225305Y218584D01*
X225394Y217911D01*
X225653Y217284D01*
X226066Y216746D01*
X226605Y216333D01*
X227232Y216073D01*
X227905Y215984D01*
X228578Y216073D01*
X229205Y216333D01*
X229744Y216746D01*
X230157Y217284D01*
X230417Y217911D01*
X230505Y218584D01*
X230452Y218987D01*
X230822Y219413D01*
X230879Y219435D01*
X231055Y219412D01*
X231728Y219500D01*
X232355Y219760D01*
X232894Y220173D01*
X233307Y220712D01*
X233567Y221339D01*
X233655Y222012D01*
X233567Y222685D01*
X233307Y223312D01*
X232894Y223850D01*
X232788Y223931D01*
Y226866D01*
X232894Y226947D01*
X233307Y227485D01*
X233567Y228112D01*
X233655Y228785D01*
X233567Y229458D01*
X233307Y230085D01*
X232894Y230624D01*
X232355Y231037D01*
X231728Y231297D01*
X231055Y231386D01*
D02*
G37*
G36*
X74835Y218624D02*
X72866D01*
X71782Y218481D01*
X70772Y218062D01*
X69904Y217397D01*
X69239Y216529D01*
X69100Y216195D01*
X68600D01*
X68462Y216529D01*
X67796Y217397D01*
X66929Y218062D01*
X65919Y218481D01*
X64835Y218624D01*
X62866D01*
X61782Y218481D01*
X60772Y218062D01*
X59904Y217397D01*
X59239Y216529D01*
X58820Y215519D01*
X58678Y214435D01*
X58820Y213351D01*
X59239Y212341D01*
X59904Y211473D01*
X60772Y210808D01*
X61782Y210389D01*
X62866Y210246D01*
X64835D01*
X65919Y210389D01*
X66929Y210808D01*
X67796Y211473D01*
X68462Y212341D01*
X68600Y212675D01*
X69100D01*
X69239Y212341D01*
X69904Y211473D01*
X70772Y210808D01*
X71782Y210389D01*
X72866Y210246D01*
X74835D01*
X75919Y210389D01*
X76929Y210808D01*
X77796Y211473D01*
X78462Y212341D01*
X78881Y213351D01*
X79023Y214435D01*
X78881Y215519D01*
X78462Y216529D01*
X77796Y217397D01*
X76929Y218062D01*
X75919Y218481D01*
X74835Y218624D01*
D02*
G37*
G36*
X43500Y218689D02*
X42416Y218546D01*
X41406Y218127D01*
X40538Y217462D01*
X39873Y216594D01*
X39454Y215584D01*
X39311Y214500D01*
X39454Y213416D01*
X39873Y212406D01*
X40538Y211538D01*
X41406Y210873D01*
X42416Y210454D01*
X43500Y210311D01*
X44584Y210454D01*
X45594Y210873D01*
X46462Y211538D01*
X47127Y212406D01*
X47546Y213416D01*
X47689Y214500D01*
X47546Y215584D01*
X47127Y216594D01*
X46462Y217462D01*
X45594Y218127D01*
X44584Y218546D01*
X43500Y218689D01*
D02*
G37*
G36*
X33500D02*
X32416Y218546D01*
X31406Y218127D01*
X30538Y217462D01*
X29873Y216594D01*
X29454Y215584D01*
X29311Y214500D01*
X29454Y213416D01*
X29873Y212406D01*
X30538Y211538D01*
X31406Y210873D01*
X32416Y210454D01*
X33500Y210311D01*
X34584Y210454D01*
X35594Y210873D01*
X36462Y211538D01*
X37127Y212406D01*
X37546Y213416D01*
X37689Y214500D01*
X37546Y215584D01*
X37127Y216594D01*
X36462Y217462D01*
X35594Y218127D01*
X34584Y218546D01*
X33500Y218689D01*
D02*
G37*
G36*
Y208689D02*
X32416Y208546D01*
X31406Y208127D01*
X30538Y207462D01*
X29873Y206594D01*
X29454Y205584D01*
X29311Y204500D01*
X29454Y203416D01*
X29873Y202406D01*
X30538Y201538D01*
X31406Y200873D01*
X32416Y200454D01*
X33500Y200311D01*
X34584Y200454D01*
X35594Y200873D01*
X36462Y201538D01*
X37127Y202406D01*
X37546Y203416D01*
X37689Y204500D01*
X37546Y205584D01*
X37127Y206594D01*
X36462Y207462D01*
X35594Y208127D01*
X34584Y208546D01*
X33500Y208689D01*
D02*
G37*
G36*
X74835Y208624D02*
X72866D01*
X71782Y208481D01*
X70772Y208063D01*
X69904Y207397D01*
X69239Y206529D01*
X68820Y205519D01*
X68678Y204435D01*
X68820Y203351D01*
X69239Y202341D01*
X69904Y201473D01*
X70772Y200808D01*
X71782Y200389D01*
X72866Y200247D01*
X74835D01*
X75919Y200389D01*
X76929Y200808D01*
X77796Y201473D01*
X78462Y202341D01*
X78881Y203351D01*
X79023Y204435D01*
X78881Y205519D01*
X78462Y206529D01*
X77796Y207397D01*
X76929Y208063D01*
X75919Y208481D01*
X74835Y208624D01*
D02*
G37*
G36*
Y198624D02*
X72866D01*
X71782Y198481D01*
X70772Y198063D01*
X69904Y197397D01*
X69239Y196529D01*
X69100Y196195D01*
X68600D01*
X68462Y196529D01*
X67796Y197397D01*
X66929Y198063D01*
X65919Y198481D01*
X64835Y198624D01*
X62866D01*
X61782Y198481D01*
X60772Y198063D01*
X59904Y197397D01*
X59239Y196529D01*
X58820Y195519D01*
X58678Y194435D01*
X58820Y193351D01*
X59239Y192341D01*
X59904Y191473D01*
X60772Y190808D01*
X61782Y190389D01*
X62866Y190246D01*
X64835D01*
X65919Y190389D01*
X66929Y190808D01*
X67796Y191473D01*
X68462Y192341D01*
X68600Y192675D01*
X69100D01*
X69239Y192341D01*
X69904Y191473D01*
X70772Y190808D01*
X71782Y190389D01*
X72866Y190246D01*
X74835D01*
X75919Y190389D01*
X76929Y190808D01*
X77796Y191473D01*
X78462Y192341D01*
X78881Y193351D01*
X79023Y194435D01*
X78881Y195519D01*
X78462Y196529D01*
X77796Y197397D01*
X76929Y198063D01*
X75919Y198481D01*
X74835Y198624D01*
D02*
G37*
G36*
X43500Y198689D02*
X42416Y198546D01*
X41406Y198127D01*
X40538Y197462D01*
X39873Y196594D01*
X39454Y195584D01*
X39311Y194500D01*
X39454Y193416D01*
X39873Y192406D01*
X40538Y191538D01*
X41406Y190873D01*
X42416Y190454D01*
X43500Y190311D01*
X44584Y190454D01*
X45594Y190873D01*
X46462Y191538D01*
X47127Y192406D01*
X47546Y193416D01*
X47689Y194500D01*
X47546Y195584D01*
X47127Y196594D01*
X46462Y197462D01*
X45594Y198127D01*
X44584Y198546D01*
X43500Y198689D01*
D02*
G37*
G36*
X33500D02*
X32416Y198546D01*
X31406Y198127D01*
X30538Y197462D01*
X29873Y196594D01*
X29454Y195584D01*
X29311Y194500D01*
X29454Y193416D01*
X29873Y192406D01*
X30538Y191538D01*
X31406Y190873D01*
X32416Y190454D01*
X33500Y190311D01*
X34584Y190454D01*
X35594Y190873D01*
X36462Y191538D01*
X37127Y192406D01*
X37546Y193416D01*
X37689Y194500D01*
X37546Y195584D01*
X37127Y196594D01*
X36462Y197462D01*
X35594Y198127D01*
X34584Y198546D01*
X33500Y198689D01*
D02*
G37*
G36*
X122857Y205775D02*
X122502D01*
X122357Y205775D01*
X117149D01*
Y200225D01*
X119728D01*
X120062Y199725D01*
X119988Y199547D01*
X119900Y198874D01*
X119988Y198201D01*
X120248Y197574D01*
X120661Y197035D01*
X121200Y196622D01*
X121827Y196362D01*
X122500Y196274D01*
X123173Y196362D01*
X123369Y196444D01*
X123933Y196175D01*
X124308Y195612D01*
X128859Y191062D01*
X128859Y191062D01*
X129265Y190791D01*
Y189513D01*
X134473D01*
X134617Y189513D01*
X134973D01*
X135117Y189513D01*
X140326D01*
Y194577D01*
Y200126D01*
X140129D01*
Y205535D01*
X134580D01*
Y199591D01*
X134973D01*
Y195410D01*
X134617Y195062D01*
X134473Y195062D01*
X129761D01*
X127267Y197556D01*
Y200225D01*
X128210D01*
Y205775D01*
X122857D01*
Y205775D01*
D02*
G37*
G36*
X74835Y188624D02*
X72866D01*
X71782Y188481D01*
X70772Y188063D01*
X69904Y187397D01*
X69239Y186529D01*
X69100Y186195D01*
X68600D01*
X68462Y186529D01*
X67796Y187397D01*
X66929Y188063D01*
X65919Y188481D01*
X64835Y188624D01*
X62866D01*
X61782Y188481D01*
X60772Y188063D01*
X59904Y187397D01*
X59239Y186529D01*
X58820Y185519D01*
X58678Y184435D01*
X58820Y183351D01*
X59239Y182341D01*
X59904Y181473D01*
X60772Y180808D01*
X61782Y180389D01*
X62866Y180246D01*
X64835D01*
X65919Y180389D01*
X66929Y180808D01*
X67796Y181473D01*
X68462Y182341D01*
X68600Y182675D01*
X69100D01*
X69239Y182341D01*
X69904Y181473D01*
X70772Y180808D01*
X71782Y180389D01*
X72866Y180246D01*
X74835D01*
X75919Y180389D01*
X76929Y180808D01*
X77796Y181473D01*
X78462Y182341D01*
X78881Y183351D01*
X79023Y184435D01*
X78881Y185519D01*
X78462Y186529D01*
X77796Y187397D01*
X76929Y188063D01*
X75919Y188481D01*
X74835Y188624D01*
D02*
G37*
G36*
X43500Y188689D02*
X42416Y188546D01*
X41406Y188127D01*
X40538Y187462D01*
X39873Y186594D01*
X39454Y185584D01*
X39311Y184500D01*
X39454Y183416D01*
X39873Y182406D01*
X40538Y181538D01*
X41406Y180873D01*
X42416Y180454D01*
X43500Y180311D01*
X44584Y180454D01*
X45594Y180873D01*
X46462Y181538D01*
X47127Y182406D01*
X47546Y183416D01*
X47689Y184500D01*
X47546Y185584D01*
X47127Y186594D01*
X46462Y187462D01*
X45594Y188127D01*
X44584Y188546D01*
X43500Y188689D01*
D02*
G37*
G36*
X33500D02*
X32416Y188546D01*
X31406Y188127D01*
X30538Y187462D01*
X29873Y186594D01*
X29454Y185584D01*
X29311Y184500D01*
X29454Y183416D01*
X29873Y182406D01*
X30538Y181538D01*
X31406Y180873D01*
X32416Y180454D01*
X33500Y180311D01*
X34584Y180454D01*
X35594Y180873D01*
X36462Y181538D01*
X37127Y182406D01*
X37546Y183416D01*
X37689Y184500D01*
X37546Y185584D01*
X37127Y186594D01*
X36462Y187462D01*
X35594Y188127D01*
X34584Y188546D01*
X33500Y188689D01*
D02*
G37*
G36*
Y178689D02*
X32416Y178546D01*
X31406Y178127D01*
X30538Y177462D01*
X29873Y176594D01*
X29454Y175584D01*
X29311Y174500D01*
X29454Y173416D01*
X29873Y172406D01*
X30538Y171538D01*
X31406Y170873D01*
X32416Y170454D01*
X33500Y170311D01*
X34584Y170454D01*
X35594Y170873D01*
X36462Y171538D01*
X37127Y172406D01*
X37546Y173416D01*
X37689Y174500D01*
X37546Y175584D01*
X37127Y176594D01*
X36462Y177462D01*
X35594Y178127D01*
X34584Y178546D01*
X33500Y178689D01*
D02*
G37*
G36*
X74835Y178624D02*
X72866D01*
X71782Y178481D01*
X70772Y178062D01*
X69904Y177397D01*
X69239Y176529D01*
X68820Y175519D01*
X68678Y174435D01*
X68820Y173351D01*
X69239Y172341D01*
X69904Y171473D01*
X70772Y170808D01*
X71782Y170389D01*
X72866Y170247D01*
X74835D01*
X75919Y170389D01*
X76929Y170808D01*
X77796Y171473D01*
X78462Y172341D01*
X78881Y173351D01*
X79023Y174435D01*
X78881Y175519D01*
X78462Y176529D01*
X77796Y177397D01*
X76929Y178062D01*
X75919Y178481D01*
X74835Y178624D01*
D02*
G37*
G36*
Y168624D02*
X72866D01*
X71782Y168481D01*
X70772Y168062D01*
X69904Y167397D01*
X69239Y166529D01*
X69100Y166195D01*
X68600D01*
X68462Y166529D01*
X67796Y167397D01*
X66929Y168062D01*
X65919Y168481D01*
X64835Y168624D01*
X62866D01*
X61782Y168481D01*
X60772Y168062D01*
X59904Y167397D01*
X59239Y166529D01*
X58820Y165519D01*
X58678Y164435D01*
X58820Y163351D01*
X59239Y162341D01*
X59904Y161473D01*
X60772Y160808D01*
X61782Y160389D01*
X62866Y160247D01*
X64835D01*
X65919Y160389D01*
X66929Y160808D01*
X67796Y161473D01*
X68462Y162341D01*
X68600Y162675D01*
X69100D01*
X69239Y162341D01*
X69904Y161473D01*
X70772Y160808D01*
X71782Y160389D01*
X72866Y160247D01*
X74835D01*
X75919Y160389D01*
X76929Y160808D01*
X77796Y161473D01*
X78462Y162341D01*
X78881Y163351D01*
X79023Y164435D01*
X78881Y165519D01*
X78462Y166529D01*
X77796Y167397D01*
X76929Y168062D01*
X75919Y168481D01*
X74835Y168624D01*
D02*
G37*
G36*
X43500Y168689D02*
X42416Y168546D01*
X41406Y168127D01*
X40538Y167462D01*
X39873Y166594D01*
X39454Y165584D01*
X39311Y164500D01*
X39454Y163416D01*
X39873Y162406D01*
X40538Y161538D01*
X41406Y160873D01*
X42416Y160454D01*
X43500Y160311D01*
X44584Y160454D01*
X45594Y160873D01*
X46462Y161538D01*
X47127Y162406D01*
X47546Y163416D01*
X47689Y164500D01*
X47546Y165584D01*
X47127Y166594D01*
X46462Y167462D01*
X45594Y168127D01*
X44584Y168546D01*
X43500Y168689D01*
D02*
G37*
G36*
X33500D02*
X32416Y168546D01*
X31406Y168127D01*
X30538Y167462D01*
X29873Y166594D01*
X29454Y165584D01*
X29311Y164500D01*
X29454Y163416D01*
X29873Y162406D01*
X30538Y161538D01*
X31406Y160873D01*
X32416Y160454D01*
X33500Y160311D01*
X34584Y160454D01*
X35594Y160873D01*
X36462Y161538D01*
X37127Y162406D01*
X37546Y163416D01*
X37689Y164500D01*
X37546Y165584D01*
X37127Y166594D01*
X36462Y167462D01*
X35594Y168127D01*
X34584Y168546D01*
X33500Y168689D01*
D02*
G37*
G36*
X74835Y158624D02*
X72866D01*
X71782Y158481D01*
X70772Y158063D01*
X69904Y157397D01*
X69239Y156529D01*
X69100Y156195D01*
X68600D01*
X68462Y156529D01*
X67796Y157397D01*
X66929Y158063D01*
X65919Y158481D01*
X64835Y158624D01*
X62866D01*
X61782Y158481D01*
X60772Y158063D01*
X59904Y157397D01*
X59239Y156529D01*
X58820Y155519D01*
X58678Y154435D01*
X58820Y153351D01*
X59239Y152341D01*
X59904Y151473D01*
X60772Y150808D01*
X61782Y150389D01*
X62866Y150247D01*
X64835D01*
X65919Y150389D01*
X66929Y150808D01*
X67796Y151473D01*
X68462Y152341D01*
X68600Y152675D01*
X69100D01*
X69239Y152341D01*
X69904Y151473D01*
X70772Y150808D01*
X71782Y150389D01*
X72866Y150247D01*
X74835D01*
X75919Y150389D01*
X76929Y150808D01*
X77796Y151473D01*
X78462Y152341D01*
X78881Y153351D01*
X79023Y154435D01*
X78881Y155519D01*
X78462Y156529D01*
X77796Y157397D01*
X76929Y158063D01*
X75919Y158481D01*
X74835Y158624D01*
D02*
G37*
G36*
X43500Y158689D02*
X42416Y158546D01*
X41406Y158127D01*
X40538Y157462D01*
X39873Y156594D01*
X39454Y155584D01*
X39311Y154500D01*
X39454Y153416D01*
X39873Y152406D01*
X40538Y151538D01*
X41406Y150873D01*
X42416Y150454D01*
X43500Y150311D01*
X44584Y150454D01*
X45594Y150873D01*
X46462Y151538D01*
X47127Y152406D01*
X47546Y153416D01*
X47689Y154500D01*
X47546Y155584D01*
X47127Y156594D01*
X46462Y157462D01*
X45594Y158127D01*
X44584Y158546D01*
X43500Y158689D01*
D02*
G37*
G36*
X33500D02*
X32416Y158546D01*
X31406Y158127D01*
X30538Y157462D01*
X29873Y156594D01*
X29454Y155584D01*
X29311Y154500D01*
X29454Y153416D01*
X29873Y152406D01*
X30538Y151538D01*
X31406Y150873D01*
X32416Y150454D01*
X33500Y150311D01*
X34584Y150454D01*
X35594Y150873D01*
X36462Y151538D01*
X37127Y152406D01*
X37546Y153416D01*
X37689Y154500D01*
X37546Y155584D01*
X37127Y156594D01*
X36462Y157462D01*
X35594Y158127D01*
X34584Y158546D01*
X33500Y158689D01*
D02*
G37*
G36*
X43500Y148689D02*
X42416Y148546D01*
X41406Y148127D01*
X40538Y147462D01*
X39873Y146594D01*
X39454Y145584D01*
X39311Y144500D01*
X39454Y143416D01*
X39873Y142406D01*
X40538Y141538D01*
X41406Y140873D01*
X42416Y140454D01*
X43500Y140311D01*
X44584Y140454D01*
X45594Y140873D01*
X46462Y141538D01*
X47127Y142406D01*
X47546Y143416D01*
X47689Y144500D01*
X47546Y145584D01*
X47127Y146594D01*
X46462Y147462D01*
X45594Y148127D01*
X44584Y148546D01*
X43500Y148689D01*
D02*
G37*
G36*
X64835Y148624D02*
X62866D01*
X61782Y148481D01*
X60772Y148063D01*
X59904Y147397D01*
X59239Y146529D01*
X58820Y145519D01*
X58678Y144435D01*
X58820Y143351D01*
X59239Y142341D01*
X59904Y141473D01*
X60772Y140808D01*
X61782Y140389D01*
X62866Y140246D01*
X64835D01*
X65919Y140389D01*
X66929Y140808D01*
X67796Y141473D01*
X68462Y142341D01*
X68880Y143351D01*
X69023Y144435D01*
X68880Y145519D01*
X68462Y146529D01*
X67796Y147397D01*
X66929Y148063D01*
X65919Y148481D01*
X64835Y148624D01*
D02*
G37*
G36*
X74835Y138624D02*
X72866D01*
X71782Y138481D01*
X70772Y138063D01*
X69904Y137397D01*
X69239Y136529D01*
X69100Y136195D01*
X68600D01*
X68462Y136529D01*
X67796Y137397D01*
X66929Y138063D01*
X65919Y138481D01*
X64835Y138624D01*
X62866D01*
X61782Y138481D01*
X60772Y138063D01*
X59904Y137397D01*
X59239Y136529D01*
X58820Y135519D01*
X58678Y134435D01*
X58820Y133351D01*
X59239Y132341D01*
X59904Y131473D01*
X60772Y130808D01*
X61782Y130389D01*
X62866Y130246D01*
X64835D01*
X65919Y130389D01*
X66929Y130808D01*
X67796Y131473D01*
X68462Y132341D01*
X68600Y132675D01*
X69100D01*
X69239Y132341D01*
X69904Y131473D01*
X70772Y130808D01*
X71782Y130389D01*
X72866Y130246D01*
X74835D01*
X75919Y130389D01*
X76929Y130808D01*
X77796Y131473D01*
X78462Y132341D01*
X78881Y133351D01*
X79023Y134435D01*
X78881Y135519D01*
X78462Y136529D01*
X77796Y137397D01*
X76929Y138063D01*
X75919Y138481D01*
X74835Y138624D01*
D02*
G37*
G36*
X43500Y138689D02*
X42416Y138546D01*
X41406Y138128D01*
X40538Y137462D01*
X39873Y136595D01*
X39454Y135584D01*
X39312Y134500D01*
X39454Y133416D01*
X39873Y132406D01*
X40538Y131539D01*
X41406Y130873D01*
X42416Y130455D01*
X43500Y130312D01*
X44584Y130455D01*
X45595Y130873D01*
X46462Y131539D01*
X47128Y132406D01*
X47546Y133416D01*
X47689Y134500D01*
X47546Y135584D01*
X47128Y136595D01*
X46462Y137462D01*
X45595Y138128D01*
X44584Y138546D01*
X43500Y138689D01*
D02*
G37*
G36*
X33500D02*
X32416Y138546D01*
X31406Y138128D01*
X30538Y137462D01*
X29873Y136595D01*
X29454Y135584D01*
X29312Y134500D01*
X29454Y133416D01*
X29873Y132406D01*
X30538Y131539D01*
X31406Y130873D01*
X32416Y130455D01*
X33500Y130312D01*
X34584Y130455D01*
X35595Y130873D01*
X36462Y131539D01*
X37128Y132406D01*
X37546Y133416D01*
X37689Y134500D01*
X37546Y135584D01*
X37128Y136595D01*
X36462Y137462D01*
X35595Y138128D01*
X34584Y138546D01*
X33500Y138689D01*
D02*
G37*
G36*
X33500Y128689D02*
X32416Y128546D01*
X31406Y128127D01*
X30538Y127462D01*
X29873Y126594D01*
X29454Y125584D01*
X29311Y124500D01*
X29454Y123416D01*
X29873Y122406D01*
X30538Y121538D01*
X31406Y120873D01*
X32416Y120454D01*
X33500Y120311D01*
X34584Y120454D01*
X35594Y120873D01*
X36462Y121538D01*
X37127Y122406D01*
X37546Y123416D01*
X37689Y124500D01*
X37546Y125584D01*
X37127Y126594D01*
X36462Y127462D01*
X35594Y128127D01*
X34584Y128546D01*
X33500Y128689D01*
D02*
G37*
G36*
X74835Y128624D02*
X72866D01*
X71782Y128481D01*
X70772Y128062D01*
X69904Y127397D01*
X69239Y126529D01*
X68820Y125519D01*
X68678Y124435D01*
X68820Y123351D01*
X69239Y122341D01*
X69904Y121473D01*
X70772Y120808D01*
X71782Y120389D01*
X72866Y120247D01*
X74835D01*
X75919Y120389D01*
X76929Y120808D01*
X77796Y121473D01*
X78462Y122341D01*
X78881Y123351D01*
X79023Y124435D01*
X78881Y125519D01*
X78462Y126529D01*
X77796Y127397D01*
X76929Y128062D01*
X75919Y128481D01*
X74835Y128624D01*
D02*
G37*
G36*
Y118624D02*
X72866D01*
X71782Y118481D01*
X70772Y118062D01*
X69904Y117397D01*
X69239Y116529D01*
X69100Y116195D01*
X68600D01*
X68462Y116529D01*
X67796Y117397D01*
X66929Y118062D01*
X65919Y118481D01*
X64835Y118624D01*
X62866D01*
X61782Y118481D01*
X60772Y118062D01*
X59904Y117397D01*
X59239Y116529D01*
X58820Y115519D01*
X58678Y114435D01*
X58820Y113351D01*
X59239Y112341D01*
X59904Y111473D01*
X60772Y110808D01*
X61782Y110389D01*
X62866Y110247D01*
X64835D01*
X65919Y110389D01*
X66929Y110808D01*
X67796Y111473D01*
X68462Y112341D01*
X68600Y112675D01*
X69100D01*
X69239Y112341D01*
X69904Y111473D01*
X70772Y110808D01*
X71782Y110389D01*
X72866Y110247D01*
X74835D01*
X75919Y110389D01*
X76929Y110808D01*
X77796Y111473D01*
X78462Y112341D01*
X78881Y113351D01*
X79023Y114435D01*
X78881Y115519D01*
X78462Y116529D01*
X77796Y117397D01*
X76929Y118062D01*
X75919Y118481D01*
X74835Y118624D01*
D02*
G37*
G36*
X43500Y118689D02*
X42416Y118546D01*
X41406Y118127D01*
X40538Y117462D01*
X39873Y116594D01*
X39454Y115584D01*
X39311Y114500D01*
X39454Y113416D01*
X39873Y112406D01*
X40538Y111538D01*
X41406Y110873D01*
X42416Y110454D01*
X43500Y110311D01*
X44584Y110454D01*
X45594Y110873D01*
X46462Y111538D01*
X47127Y112406D01*
X47546Y113416D01*
X47689Y114500D01*
X47546Y115584D01*
X47127Y116594D01*
X46462Y117462D01*
X45594Y118127D01*
X44584Y118546D01*
X43500Y118689D01*
D02*
G37*
G36*
X33500D02*
X32416Y118546D01*
X31406Y118127D01*
X30538Y117462D01*
X29873Y116594D01*
X29454Y115584D01*
X29311Y114500D01*
X29454Y113416D01*
X29873Y112406D01*
X30538Y111538D01*
X31406Y110873D01*
X32416Y110454D01*
X33500Y110311D01*
X34584Y110454D01*
X35594Y110873D01*
X36462Y111538D01*
X37127Y112406D01*
X37546Y113416D01*
X37689Y114500D01*
X37546Y115584D01*
X37127Y116594D01*
X36462Y117462D01*
X35594Y118127D01*
X34584Y118546D01*
X33500Y118689D01*
D02*
G37*
G36*
Y108689D02*
X32416Y108546D01*
X31406Y108127D01*
X30538Y107462D01*
X29873Y106594D01*
X29454Y105584D01*
X29311Y104500D01*
X29454Y103416D01*
X29873Y102406D01*
X30538Y101538D01*
X31406Y100873D01*
X32416Y100454D01*
X33500Y100311D01*
X34584Y100454D01*
X35594Y100873D01*
X36462Y101538D01*
X37127Y102406D01*
X37546Y103416D01*
X37689Y104500D01*
X37546Y105584D01*
X37127Y106594D01*
X36462Y107462D01*
X35594Y108127D01*
X34584Y108546D01*
X33500Y108689D01*
D02*
G37*
G36*
X74835Y108624D02*
X72866D01*
X71782Y108481D01*
X70772Y108063D01*
X69904Y107397D01*
X69239Y106529D01*
X68820Y105519D01*
X68678Y104435D01*
X68820Y103351D01*
X69239Y102341D01*
X69904Y101473D01*
X70772Y100808D01*
X71782Y100389D01*
X72866Y100247D01*
X74835D01*
X75919Y100389D01*
X76929Y100808D01*
X77796Y101473D01*
X78462Y102341D01*
X78881Y103351D01*
X79023Y104435D01*
X78881Y105519D01*
X78462Y106529D01*
X77796Y107397D01*
X76929Y108063D01*
X75919Y108481D01*
X74835Y108624D01*
D02*
G37*
G36*
Y98624D02*
X72866D01*
X71782Y98481D01*
X70772Y98062D01*
X69904Y97397D01*
X69239Y96529D01*
X69100Y96195D01*
X68600D01*
X68462Y96529D01*
X67796Y97397D01*
X66929Y98062D01*
X65919Y98481D01*
X64835Y98624D01*
X62866D01*
X61782Y98481D01*
X60772Y98062D01*
X59904Y97397D01*
X59239Y96529D01*
X58820Y95519D01*
X58678Y94435D01*
X58820Y93351D01*
X59239Y92341D01*
X59904Y91473D01*
X60772Y90808D01*
X61782Y90389D01*
X62866Y90246D01*
X64835D01*
X65919Y90389D01*
X66929Y90808D01*
X67796Y91473D01*
X68462Y92341D01*
X68600Y92675D01*
X69100D01*
X69239Y92341D01*
X69904Y91473D01*
X70772Y90808D01*
X71782Y90389D01*
X72866Y90246D01*
X74835D01*
X75919Y90389D01*
X76929Y90808D01*
X77796Y91473D01*
X78462Y92341D01*
X78881Y93351D01*
X79023Y94435D01*
X78881Y95519D01*
X78462Y96529D01*
X77796Y97397D01*
X76929Y98062D01*
X75919Y98481D01*
X74835Y98624D01*
D02*
G37*
G36*
X43500Y98689D02*
X42416Y98546D01*
X41406Y98127D01*
X40538Y97462D01*
X39873Y96594D01*
X39454Y95584D01*
X39311Y94500D01*
X39454Y93416D01*
X39873Y92406D01*
X40538Y91538D01*
X41406Y90873D01*
X42416Y90454D01*
X43500Y90311D01*
X44584Y90454D01*
X45594Y90873D01*
X46462Y91538D01*
X47127Y92406D01*
X47546Y93416D01*
X47689Y94500D01*
X47546Y95584D01*
X47127Y96594D01*
X46462Y97462D01*
X45594Y98127D01*
X44584Y98546D01*
X43500Y98689D01*
D02*
G37*
G36*
X33500D02*
X32416Y98546D01*
X31406Y98127D01*
X30538Y97462D01*
X29873Y96594D01*
X29454Y95584D01*
X29311Y94500D01*
X29454Y93416D01*
X29873Y92406D01*
X30538Y91538D01*
X31406Y90873D01*
X32416Y90454D01*
X33500Y90311D01*
X34584Y90454D01*
X35594Y90873D01*
X36462Y91538D01*
X37127Y92406D01*
X37546Y93416D01*
X37689Y94500D01*
X37546Y95584D01*
X37127Y96594D01*
X36462Y97462D01*
X35594Y98127D01*
X34584Y98546D01*
X33500Y98689D01*
D02*
G37*
G36*
X74835Y88624D02*
X72866D01*
X71782Y88481D01*
X70772Y88063D01*
X69904Y87397D01*
X69239Y86529D01*
X69100Y86195D01*
X68600D01*
X68462Y86529D01*
X67796Y87397D01*
X66929Y88063D01*
X65919Y88481D01*
X64835Y88624D01*
X62866D01*
X61782Y88481D01*
X60772Y88063D01*
X59904Y87397D01*
X59239Y86529D01*
X58820Y85519D01*
X58678Y84435D01*
X58820Y83351D01*
X59239Y82341D01*
X59904Y81473D01*
X60772Y80808D01*
X61782Y80389D01*
X62866Y80247D01*
X64835D01*
X65919Y80389D01*
X66929Y80808D01*
X67796Y81473D01*
X68462Y82341D01*
X68600Y82675D01*
X69100D01*
X69239Y82341D01*
X69904Y81473D01*
X70772Y80808D01*
X71782Y80389D01*
X72866Y80247D01*
X74835D01*
X75919Y80389D01*
X76929Y80808D01*
X77796Y81473D01*
X78462Y82341D01*
X78881Y83351D01*
X79023Y84435D01*
X78881Y85519D01*
X78462Y86529D01*
X77796Y87397D01*
X76929Y88063D01*
X75919Y88481D01*
X74835Y88624D01*
D02*
G37*
G36*
X93714Y107181D02*
X92166D01*
X90631Y106979D01*
X89135Y106578D01*
X87705Y105986D01*
X86364Y105212D01*
X85136Y104269D01*
X84041Y103174D01*
X83098Y101946D01*
X82324Y100605D01*
X81732Y99175D01*
X81331Y97679D01*
X81129Y96144D01*
Y94596D01*
X81331Y93061D01*
X81732Y91565D01*
X82324Y90135D01*
X83098Y88794D01*
X84041Y87566D01*
X85136Y86471D01*
X86364Y85528D01*
X87705Y84754D01*
X89135Y84162D01*
X90631Y83761D01*
X92166Y83559D01*
X93714D01*
X95249Y83761D01*
X96745Y84162D01*
X98175Y84754D01*
X99516Y85528D01*
X100744Y86471D01*
X101839Y87566D01*
X102782Y88794D01*
X103556Y90135D01*
X104148Y91565D01*
X104549Y93061D01*
X104751Y94596D01*
Y96144D01*
X104549Y97679D01*
X104148Y99175D01*
X103556Y100605D01*
X102782Y101946D01*
X101839Y103174D01*
X100744Y104269D01*
X99516Y105212D01*
X98175Y105986D01*
X96745Y106578D01*
X95249Y106979D01*
X93714Y107181D01*
D02*
G37*
G36*
X43500Y88689D02*
X42416Y88546D01*
X41406Y88127D01*
X40538Y87462D01*
X39873Y86594D01*
X39454Y85584D01*
X39311Y84500D01*
X39454Y83416D01*
X39873Y82406D01*
X40538Y81538D01*
X41406Y80873D01*
X42416Y80454D01*
X43500Y80311D01*
X44584Y80454D01*
X45594Y80873D01*
X46462Y81538D01*
X47127Y82406D01*
X47546Y83416D01*
X47689Y84500D01*
X47546Y85584D01*
X47127Y86594D01*
X46462Y87462D01*
X45594Y88127D01*
X44584Y88546D01*
X43500Y88689D01*
D02*
G37*
G36*
X33500D02*
X32416Y88546D01*
X31406Y88127D01*
X30538Y87462D01*
X29873Y86594D01*
X29454Y85584D01*
X29311Y84500D01*
X29454Y83416D01*
X29873Y82406D01*
X30538Y81538D01*
X31406Y80873D01*
X32416Y80454D01*
X33500Y80311D01*
X34584Y80454D01*
X35594Y80873D01*
X36462Y81538D01*
X37127Y82406D01*
X37546Y83416D01*
X37689Y84500D01*
X37546Y85584D01*
X37127Y86594D01*
X36462Y87462D01*
X35594Y88127D01*
X34584Y88546D01*
X33500Y88689D01*
D02*
G37*
G36*
X82028Y77100D02*
X81355Y77012D01*
X80728Y76752D01*
X80189Y76339D01*
X79776Y75800D01*
X79516Y75173D01*
X79428Y74500D01*
X79516Y73827D01*
X79776Y73200D01*
X80189Y72661D01*
X80728Y72248D01*
X81355Y71988D01*
X82028Y71900D01*
X82701Y71988D01*
X83328Y72248D01*
X83867Y72661D01*
X84280Y73200D01*
X84540Y73827D01*
X84628Y74500D01*
X84540Y75173D01*
X84280Y75800D01*
X83867Y76339D01*
X83328Y76752D01*
X82701Y77012D01*
X82028Y77100D01*
D02*
G37*
G36*
X43500Y78689D02*
X42416Y78546D01*
X41406Y78127D01*
X40538Y77462D01*
X39873Y76594D01*
X39454Y75584D01*
X39312Y74500D01*
X39454Y73416D01*
X39873Y72406D01*
X40538Y71538D01*
X41406Y70873D01*
X42416Y70454D01*
X43500Y70311D01*
X44584Y70454D01*
X45595Y70873D01*
X46462Y71538D01*
X47128Y72406D01*
X47546Y73416D01*
X47689Y74500D01*
X47546Y75584D01*
X47128Y76594D01*
X46462Y77462D01*
X45595Y78127D01*
X44584Y78546D01*
X43500Y78689D01*
D02*
G37*
G36*
X64835Y78624D02*
X62866D01*
X61782Y78481D01*
X60772Y78062D01*
X59904Y77397D01*
X59239Y76529D01*
X58820Y75519D01*
X58678Y74435D01*
X58820Y73351D01*
X59239Y72341D01*
X59904Y71473D01*
X60772Y70808D01*
X61782Y70389D01*
X62866Y70246D01*
X64835D01*
X65919Y70389D01*
X66929Y70808D01*
X67796Y71473D01*
X68462Y72341D01*
X68880Y73351D01*
X69023Y74435D01*
X68880Y75519D01*
X68462Y76529D01*
X67796Y77397D01*
X66929Y78062D01*
X65919Y78481D01*
X64835Y78624D01*
D02*
G37*
G36*
X39659Y67063D02*
X38110D01*
X36575Y66861D01*
X35080Y66461D01*
X33650Y65868D01*
X32309Y65094D01*
X31080Y64151D01*
X29985Y63057D01*
X29043Y61828D01*
X28269Y60487D01*
X27676Y59057D01*
X27276Y57561D01*
X27073Y56026D01*
Y54478D01*
X27276Y52943D01*
X27676Y51448D01*
X28269Y50017D01*
X29043Y48676D01*
X29985Y47448D01*
X31080Y46353D01*
X32309Y45411D01*
X33650Y44637D01*
X35080Y44044D01*
X36575Y43643D01*
X38110Y43441D01*
X39659D01*
X41194Y43643D01*
X42689Y44044D01*
X44120Y44637D01*
X45461Y45411D01*
X46689Y46353D01*
X47784Y47448D01*
X48726Y48676D01*
X49500Y50017D01*
X50093Y51448D01*
X50494Y52943D01*
X50696Y54478D01*
Y56026D01*
X50494Y57561D01*
X50093Y59057D01*
X49500Y60487D01*
X48726Y61828D01*
X47784Y63057D01*
X46689Y64151D01*
X45461Y65094D01*
X44120Y65868D01*
X42689Y66461D01*
X41194Y66861D01*
X39659Y67063D01*
D02*
G37*
G36*
X225892Y174594D02*
X225219Y174505D01*
X224592Y174245D01*
X224053Y173832D01*
X223640Y173293D01*
X223380Y172666D01*
X223291Y171993D01*
X223380Y171320D01*
X223640Y170693D01*
X224053Y170155D01*
X224592Y169742D01*
X225219Y169482D01*
X225892Y169393D01*
X226565Y169482D01*
X227192Y169742D01*
X227730Y170155D01*
X228144Y170693D01*
X228403Y171320D01*
X228492Y171993D01*
X228403Y172666D01*
X228144Y173293D01*
X227730Y173832D01*
X227192Y174245D01*
X226565Y174505D01*
X225892Y174594D01*
D02*
G37*
G36*
X236981Y172230D02*
X236308Y172142D01*
X235681Y171882D01*
X235142Y171468D01*
X234729Y170930D01*
X234470Y170303D01*
X234381Y169630D01*
X234470Y168957D01*
X234729Y168330D01*
X235142Y167791D01*
X235681Y167378D01*
X236308Y167118D01*
X236981Y167030D01*
X237654Y167118D01*
X238281Y167378D01*
X238820Y167791D01*
X239233Y168330D01*
X239493Y168957D01*
X239581Y169630D01*
X239493Y170303D01*
X239233Y170930D01*
X238820Y171468D01*
X238281Y171882D01*
X237654Y172142D01*
X236981Y172230D01*
D02*
G37*
%LPD*%
D10*
X243986Y171993D02*
X251382D01*
X253320Y173931D02*
Y179898D01*
X251382Y171993D02*
X253320Y173931D01*
X250518Y182700D02*
X253320Y179898D01*
X235741Y175870D02*
X250742D01*
X237570Y179854D02*
X249078D01*
X240259Y182700D02*
X250518D01*
X239673Y183286D02*
Y185914D01*
Y187489D01*
Y183286D02*
X240259Y182700D01*
X154454Y70926D02*
X154480Y70900D01*
X154454Y70926D02*
Y73800D01*
X203600Y309506D02*
X209165Y303941D01*
X197000Y353500D02*
X203600Y346900D01*
Y309506D02*
Y346900D01*
X190686Y98193D02*
Y104432D01*
Y94498D02*
Y98193D01*
X187702Y84826D02*
X187721Y84807D01*
X187702Y84826D02*
Y93080D01*
X187721Y93061D02*
X189249D01*
X184673Y121759D02*
X185798Y122885D01*
Y123360D01*
X180258Y96243D02*
X181662D01*
X172168Y99825D02*
X177450Y94543D01*
X180957D01*
X185161Y90339D01*
X179480Y97021D02*
X180258Y96243D01*
X181662D02*
X183961Y93943D01*
X118940Y91680D02*
X124647D01*
X116854Y89594D02*
X118940Y91680D01*
X176641Y71845D02*
Y86622D01*
X173619Y68823D02*
X176641Y71845D01*
X210667Y122081D02*
X227905D01*
X209951Y122797D02*
X210667Y122081D01*
X227905D02*
X237570D01*
X209434Y122797D02*
X209951D01*
X195165Y132854D02*
X217935D01*
X221505Y136424D02*
X224928D01*
X217935Y132854D02*
X221505Y136424D01*
X224928D02*
X229474Y140970D01*
X243400Y157115D02*
Y171408D01*
X229474Y143189D02*
X243400Y157115D01*
X229474Y140970D02*
Y143189D01*
X243400Y171408D02*
X243986Y171993D01*
X207039Y47205D02*
Y54924D01*
X184559Y171122D02*
Y187563D01*
X190855Y122023D02*
X199524Y130692D01*
X214692D01*
X190690Y122023D02*
X190855D01*
X189975Y121308D02*
X190690Y122023D01*
X189500Y121308D02*
X189975D01*
X272000Y63969D02*
Y66655D01*
X191053Y148512D02*
Y150841D01*
X194146Y153934D01*
X187783Y140973D02*
X193654D01*
X184932Y143823D02*
X187783Y140973D01*
X184932Y143823D02*
Y158709D01*
X192587Y133669D02*
Y134959D01*
X198600Y140973D01*
Y157466D01*
X138651Y124657D02*
X152836D01*
X136476Y122481D02*
X138651Y124657D01*
X152836D02*
X156739Y128559D01*
X84000Y270955D02*
Y275073D01*
X95394Y286467D02*
Y301654D01*
X84000Y275073D02*
X95394Y286467D01*
X87520Y225442D02*
X87831Y225131D01*
X86441Y226520D02*
X87520Y225442D01*
X91107Y225131D02*
X99953Y233977D01*
X87831Y225131D02*
X91107D01*
X86441Y226520D02*
Y268514D01*
X87831Y185905D02*
Y225131D01*
X84000Y270955D02*
X86441Y268514D01*
X168241Y119149D02*
X184463Y102926D01*
X87831Y185905D02*
X92866Y180870D01*
X99953Y233977D02*
Y256461D01*
X178317Y231465D02*
X191681D01*
X162816Y223500D02*
X170352D01*
X178317Y231465D01*
X163852Y226244D02*
X170443D01*
X177431Y233232D02*
X195100D01*
X170443Y226244D02*
X177431Y233232D01*
X176795Y235000D02*
X199438D01*
X161293Y229435D02*
X171230D01*
X176795Y235000D01*
X176184Y237000D02*
X199855D01*
X162296Y231500D02*
X170684D01*
X176184Y237000D01*
X164784Y117459D02*
X172168Y110076D01*
Y99825D02*
Y110076D01*
X170233Y99356D02*
X175106Y94483D01*
Y94483D02*
X177909Y91680D01*
X168482Y98269D02*
Y108953D01*
X163084Y116755D02*
X170233Y109606D01*
Y99356D02*
Y109606D01*
X161384Y116051D02*
X168482Y108953D01*
X175106Y94483D02*
Y94483D01*
X168482Y98269D02*
X170819Y95933D01*
X171505Y119530D02*
X171841Y119194D01*
X171505Y119530D02*
Y120621D01*
X169941Y122186D02*
X171505Y120621D01*
X172177Y117616D02*
Y118858D01*
Y117616D02*
X182375Y107418D01*
X185161Y98193D02*
Y100801D01*
X184463Y101500D02*
X185161Y100801D01*
X184463Y101500D02*
Y102926D01*
X182375Y107418D02*
X187700D01*
X179578Y112620D02*
X182308Y109890D01*
X179578Y112620D02*
Y123645D01*
X182308Y109890D02*
X187632D01*
X192866Y104656D01*
X189567Y111590D02*
X198323Y102834D01*
X183032Y111590D02*
X189567D01*
X181802Y112821D02*
X183032Y111590D01*
X161000Y70900D02*
X163319Y73219D01*
Y76146D02*
Y76244D01*
Y73219D02*
Y76146D01*
X261510Y120539D02*
X266626Y115423D01*
X260898Y120539D02*
X261510D01*
X263900Y125054D02*
X265176D01*
X271470Y118760D01*
X234992Y109997D02*
X237570Y107419D01*
Y80555D02*
Y107419D01*
Y80555D02*
X249157Y68969D01*
X230157Y112362D02*
X235741Y106779D01*
Y79359D02*
X251131Y63969D01*
X235741Y79359D02*
Y106779D01*
X233900Y78104D02*
Y105722D01*
X225945Y113678D02*
X233900Y105722D01*
Y78104D02*
X247000Y65004D01*
X231541Y74509D02*
Y105677D01*
X225042Y112176D02*
X231541Y105677D01*
Y74509D02*
X242050Y64000D01*
X224338Y110476D02*
X229489Y105325D01*
X232050Y64000D02*
Y64346D01*
X229489Y66907D02*
Y105325D01*
Y66907D02*
X232050Y64346D01*
X223634Y108776D02*
X227232Y105178D01*
Y59182D02*
Y105178D01*
X225042Y67214D02*
Y104122D01*
X222000Y64172D02*
X225042Y67214D01*
X222087Y107076D02*
X225042Y104122D01*
X222050Y54000D02*
X227232Y59182D01*
X215121Y107076D02*
X222087D01*
X222000Y63969D02*
Y64172D01*
X198600Y157466D02*
X224559Y183425D01*
X193654Y144540D02*
X196500Y147386D01*
Y162432D01*
X189559Y169373D02*
X196500Y162432D01*
X194146Y153934D02*
Y161535D01*
X184559Y171122D02*
X194146Y161535D01*
X188734Y129817D02*
X192587Y133669D01*
X214692Y130692D02*
X216808Y128577D01*
X223249D01*
X225573Y130901D01*
X179578Y123645D02*
X187667Y131734D01*
Y132395D01*
X181802Y112821D02*
Y123009D01*
X188610Y129817D01*
X188734D01*
X205945Y112864D02*
X206667Y112142D01*
X210055D02*
X215121Y107076D01*
X205945Y112864D02*
Y115351D01*
X206667Y112142D02*
X210055D01*
X204673Y116623D02*
X205945Y115351D01*
X212446Y112176D02*
X212525D01*
X215925Y108776D02*
X223634D01*
X212525Y112176D02*
X215925Y108776D01*
X211739Y112883D02*
Y112982D01*
X209673Y115048D02*
X211739Y112982D01*
Y112883D02*
X212446Y112176D01*
X209673Y115048D02*
Y116623D01*
X192866Y97117D02*
Y104656D01*
X192000Y53969D02*
Y55201D01*
X219673Y116623D02*
X220945Y115351D01*
X222347Y112176D02*
X225042D01*
X220945Y113578D02*
X222347Y112176D01*
X215859Y112569D02*
X217951Y110476D01*
X220945Y113578D02*
Y115351D01*
X217951Y110476D02*
X224338D01*
X225945Y113678D02*
Y113776D01*
X230157Y112362D02*
Y116098D01*
X224658Y115063D02*
X225945Y113776D01*
X229559Y116697D02*
X230157Y116098D01*
X234992Y109997D02*
Y114729D01*
X231836Y124822D02*
Y128553D01*
X229489Y130901D02*
X231836Y128553D01*
X225573Y130901D02*
X229489D01*
X198323Y107500D02*
X201649Y110826D01*
Y113265D01*
X194559Y113191D02*
X196650Y111100D01*
X198100D01*
X184932Y160441D02*
Y167499D01*
Y158709D02*
Y159575D01*
Y158709D02*
X185798Y159575D01*
X184932D02*
Y160441D01*
X185798Y159575D02*
X190857D01*
X184932D02*
X185798D01*
X184932Y160441D02*
X185798Y159575D01*
X190857D02*
X190864Y159567D01*
X268780Y67594D02*
X271061D01*
X268583D02*
X268780D01*
X178768Y169556D02*
X182876D01*
X184932Y167499D01*
X151185Y229098D02*
X157217D01*
X145153D02*
X151185D01*
X150524Y227187D02*
X150860Y227523D01*
Y228774D01*
X151185Y229098D01*
X138744Y227329D02*
X142214Y230798D01*
X159930D01*
X161293Y229435D01*
X154500Y78300D02*
X158131D01*
X159211Y77220D01*
X162342D01*
X163319Y76244D01*
X164295Y77220D01*
X165266D01*
X165851Y77806D02*
Y82886D01*
X165266Y77220D02*
X165851Y77806D01*
X164976Y83761D02*
X165851Y82886D01*
X162562Y83761D02*
X164976D01*
X161847Y84476D02*
X162562Y83761D01*
X163447Y89102D02*
X165341Y87208D01*
X176055D02*
X176641Y86622D01*
X165341Y87208D02*
X176055D01*
X177909Y91680D02*
X180175D01*
X185161Y86228D02*
Y90339D01*
Y84807D02*
Y86228D01*
X185078Y86312D02*
X185161Y86228D01*
X180872Y86312D02*
X185078D01*
X163883Y91070D02*
X165851Y89102D01*
X178083D02*
X180872Y86312D01*
X165851Y89102D02*
X178083D01*
X164318Y93039D02*
X166287Y91070D01*
X170233D01*
X170819Y91656D02*
Y95933D01*
X170233Y91070D02*
X170819Y91656D01*
X158909Y84476D02*
X161847D01*
X161567Y91070D02*
X163883D01*
X161567Y89102D02*
X163447D01*
X161567Y93039D02*
X164318D01*
X148746Y73800D02*
Y80596D01*
X149332Y81183D01*
X136000Y247500D02*
Y247621D01*
Y247500D02*
X149948Y233552D01*
X160244D01*
X134814Y210456D02*
Y218760D01*
X134795Y210437D02*
X134814Y210456D01*
Y218760D02*
X145153Y229098D01*
X144078Y224378D02*
X154646D01*
X140500Y220800D02*
X144078Y224378D01*
X154646D02*
X155509Y223515D01*
X160244Y233552D02*
X162296Y231500D01*
X159264Y194146D02*
Y217411D01*
X154875Y221800D02*
X159264Y217411D01*
X147695Y221800D02*
X154875D01*
X173700Y65100D02*
X175077D01*
X180330Y59847D01*
X122394Y128114D02*
X153705D01*
X156461Y130870D01*
X136476Y118275D02*
Y122481D01*
X136173Y117973D02*
X136476Y118275D01*
X119756Y95905D02*
X122283D01*
X149067Y83668D02*
Y84476D01*
X149059Y83660D02*
X149067Y83668D01*
X125949Y83660D02*
X149059D01*
X85880Y157101D02*
X142134D01*
X82100Y153321D02*
X85880Y157101D01*
X128496Y44340D02*
Y49374D01*
Y44340D02*
X128595D01*
X123996D02*
X128496D01*
X123700Y44637D02*
X123996Y44340D01*
X249157Y68969D02*
X254256D01*
X251131Y63969D02*
X252000D01*
X197197Y51666D02*
Y55803D01*
X200087Y58693D02*
X204658D01*
X197197Y55803D02*
X200087Y58693D01*
X199000Y70202D02*
Y79926D01*
X192839Y84666D02*
Y84807D01*
Y84666D02*
X192922Y84583D01*
X194343D01*
X199000Y79926D01*
X200937Y69242D02*
Y81181D01*
X195353Y86765D02*
Y94629D01*
Y86765D02*
X200937Y81181D01*
X207433Y61469D02*
Y77759D01*
X197984Y87208D02*
Y98517D01*
Y87208D02*
X207433Y77759D01*
X187700Y107418D02*
X190686Y104432D01*
X216285Y50935D02*
Y67256D01*
X214673Y68868D02*
X216285Y67256D01*
X267689Y45850D02*
X270500Y48661D01*
X189559Y169373D02*
Y187563D01*
X268746Y49000D02*
X270161D01*
X268549D02*
X268746D01*
X277827Y81684D02*
Y82359D01*
X279600Y84132D01*
Y98133D01*
X277827Y99907D02*
X279600Y98133D01*
X277827Y99907D02*
Y100582D01*
X260898Y81684D02*
X277827D01*
X272545Y96959D02*
X276457Y93047D01*
X256160Y85043D02*
Y85141D01*
Y85043D02*
X258807Y82397D01*
X260185D01*
X260898Y81684D01*
X256160Y85141D02*
Y89464D01*
X229673Y181938D02*
X235741Y175870D01*
X229673Y181938D02*
Y187489D01*
X234673Y182752D02*
X237570Y179854D01*
X234673Y182752D02*
Y187489D01*
X184673Y116623D02*
Y121759D01*
X189500Y116756D02*
X189559Y116697D01*
X189500Y116756D02*
Y121308D01*
X238768Y117528D02*
X239673Y116623D01*
X238768Y117528D02*
Y120884D01*
X237570Y122081D02*
X238768Y120884D01*
X239196Y116145D02*
X239515Y116465D01*
X239196Y110400D02*
Y116145D01*
X271470Y116394D02*
Y118760D01*
X272446Y115417D02*
X272545D01*
X271470Y116394D02*
X272446Y115417D01*
X266626Y115423D02*
X266724D01*
X272545Y96959D02*
Y109709D01*
X266724Y96488D02*
Y109714D01*
X262354Y92117D02*
X266724Y96488D01*
X265346Y89124D02*
X276457D01*
X262354Y92117D02*
X265346Y89124D01*
X215859Y112569D02*
Y115438D01*
X214673Y116623D02*
X215859Y115438D01*
X199559Y115122D02*
Y116697D01*
Y115122D02*
X200831Y113850D01*
X201063D01*
X201649Y113265D01*
X198323Y98856D02*
Y102834D01*
X197984Y98517D02*
X198323Y98856D01*
X247000Y58969D02*
Y65004D01*
X242000Y53969D02*
X247000Y58969D01*
X256247Y58216D02*
Y66352D01*
X256252Y66356D01*
Y66972D01*
X254256Y68969D02*
X256252Y66972D01*
X252000Y53969D02*
X256247Y58216D01*
X157383Y129221D02*
X157400D01*
X158454Y130275D02*
Y139799D01*
X157400Y129221D02*
X158454Y130275D01*
X156739Y128577D02*
X157383Y129221D01*
X156739Y128559D02*
Y128577D01*
X254650Y197249D02*
X258134Y200733D01*
X230722Y197249D02*
X254650D01*
X227471Y200500D02*
X230722Y197249D01*
X258134Y200733D02*
X269303D01*
X259133Y198800D02*
X269775D01*
X255294Y194962D02*
X259133Y198800D01*
X229675Y194962D02*
X255294D01*
X226715Y197922D02*
X229675Y194962D01*
X193063Y229894D02*
X193797Y229160D01*
Y202928D02*
Y229160D01*
X192432Y202928D02*
X193797D01*
X193063Y229894D02*
Y230083D01*
X191681Y231465D02*
X193063Y230083D01*
X187303Y197799D02*
X192432Y202928D01*
X187106Y197799D02*
X187303D01*
X208741Y188381D02*
X209559Y187563D01*
X208741Y201004D02*
X218351Y210613D01*
X208741Y188381D02*
Y201004D01*
X204559Y191539D02*
X206071Y193051D01*
Y200738D02*
X217646Y212313D01*
X206071Y193051D02*
Y200738D01*
X257804Y193042D02*
X259402Y194640D01*
X248463Y193042D02*
X257804D01*
X247431Y192009D02*
X248463Y193042D01*
X244559Y189138D02*
X246687Y191266D01*
Y191365D01*
X247332Y192009D01*
X247431D01*
X244559Y187563D02*
Y189138D01*
X193082Y246178D02*
Y251256D01*
X181210Y263128D02*
Y280838D01*
Y263128D02*
X193082Y251256D01*
X192704Y254850D02*
X201698Y245856D01*
X192686Y254850D02*
X192704D01*
X183422Y264114D02*
X192686Y254850D01*
X183422Y264114D02*
Y281980D01*
X201698Y240470D02*
Y245856D01*
X209300Y227007D02*
X211704Y224603D01*
X209300Y227007D02*
Y232868D01*
X201698Y240470D02*
X209300Y232868D01*
X207573Y225087D02*
Y225218D01*
X207600Y225244D01*
X167000Y298402D02*
X183422Y281980D01*
X167000Y298402D02*
Y313154D01*
X205000Y225244D02*
Y231855D01*
X199855Y237000D02*
X205000Y231855D01*
X207600Y225244D02*
Y231660D01*
X193082Y246178D02*
X207600Y231660D01*
X157000Y305048D02*
X181210Y280838D01*
X157000Y305048D02*
Y313154D01*
X147695Y215516D02*
X151994D01*
X156500Y191291D02*
Y211009D01*
X151994Y215516D02*
X156500Y211009D01*
X149634Y185686D02*
X153827Y181493D01*
X147500Y212000D02*
X149634Y209866D01*
Y185686D02*
Y209866D01*
X156500Y191291D02*
X160555Y187236D01*
X155509Y223515D02*
X158071D01*
X164842Y171666D02*
Y216743D01*
X158071Y223515D02*
X164842Y216743D01*
X157217Y229098D02*
X162816Y223500D01*
X127000Y336824D02*
X132336Y342160D01*
X137000D01*
X251205Y277023D02*
X255116D01*
X256921Y265517D02*
Y275217D01*
X255116Y277023D02*
X256921Y275217D01*
X221922Y233626D02*
X222394D01*
X222811Y234043D01*
X221690Y200500D02*
X227471D01*
X204500Y211000D02*
Y211000D01*
X203000Y212500D02*
Y223244D01*
Y212500D02*
X204500Y211000D01*
X203432Y208422D02*
X208013D01*
X201300Y210554D02*
X203432Y208422D01*
X201300Y210554D02*
Y224698D01*
X208013Y208422D02*
X208927Y209336D01*
X209402D01*
X269775Y198800D02*
X279578Y208604D01*
X272545Y206402D02*
Y224059D01*
X261542Y205429D02*
X269168D01*
X269754Y206015D02*
Y212644D01*
X269643Y203500D02*
X272545Y206402D01*
X269303Y200733D02*
X277000Y208430D01*
X254657Y212313D02*
X261542Y205429D01*
X260848Y203500D02*
X269643D01*
X269168Y205429D02*
X269754Y206015D01*
X269000Y226146D02*
X270458D01*
X266488D02*
X269000D01*
X253734Y210613D02*
X260848Y203500D01*
X279578Y208604D02*
Y240068D01*
X277000Y208430D02*
Y239000D01*
X270458Y226146D02*
X272545Y224059D01*
X269638Y212760D02*
X269754Y212644D01*
X278068Y241578D02*
X279578Y240068D01*
X274736Y241578D02*
X278068D01*
X268563Y235405D02*
X274736Y241578D01*
X212945Y43650D02*
Y47205D01*
X267366Y235405D02*
X268563D01*
X266488Y234527D02*
X267366Y235405D01*
X227905Y218584D02*
X228144Y218824D01*
Y224992D01*
X228384Y225231D01*
X218351Y210613D02*
X253734D01*
X217646Y212313D02*
X254657D01*
X201300Y224698D02*
X203102Y226500D01*
X154298Y102145D02*
X154972Y101471D01*
Y99633D02*
Y101471D01*
X189249Y93061D02*
X190686Y94498D01*
X160950Y122125D02*
X160976Y122152D01*
Y145251D01*
X161725Y146000D02*
X162000D01*
X160976Y145251D02*
X161725Y146000D01*
X164841Y123612D02*
Y166859D01*
X166541Y122410D02*
Y167563D01*
X168241Y119149D02*
Y168267D01*
X169941Y122186D02*
Y169150D01*
X167814Y171276D02*
X169941Y169150D01*
X164842Y171666D02*
X168241Y168267D01*
X163080Y171024D02*
X166541Y167563D01*
X160555Y171145D02*
X164841Y166859D01*
X164500Y120370D02*
X166541Y122410D01*
X162650Y121421D02*
X164841Y123612D01*
X149953Y148301D02*
Y159575D01*
X157977Y167599D02*
Y185543D01*
X149953Y159575D02*
X157977Y167599D01*
X155760Y168322D02*
Y182108D01*
X147984Y160547D02*
X155760Y168322D01*
X147984Y147080D02*
Y160547D01*
X142134Y157101D02*
X153827Y168793D01*
Y181493D01*
X154283Y183584D02*
X155760Y182108D01*
X149953Y148301D02*
X158454Y139799D01*
X95185Y203112D02*
X105794Y192503D01*
X122997D01*
X159264Y194146D02*
X161354D01*
X163080Y192420D01*
Y171024D02*
Y192420D01*
X160555Y171145D02*
Y187236D01*
X154283Y183584D02*
Y188927D01*
X224559Y183425D02*
Y187563D01*
X161715Y94859D02*
X166621D01*
X161567Y95007D02*
X161715Y94859D01*
X166621D02*
X167814Y93666D01*
X186838Y62915D02*
Y65643D01*
X183770Y59847D02*
X186838Y62915D01*
X180330Y59847D02*
X183770D01*
X186838Y65643D02*
X194146Y72951D01*
X192050Y64000D02*
X192518D01*
X194524Y66006D01*
X194804D01*
X199000Y70202D01*
X192000Y61469D02*
Y63969D01*
X159535Y109766D02*
X161842D01*
Y100194D02*
Y109766D01*
X161281Y99633D02*
X161842Y100194D01*
X164784Y117459D02*
Y117593D01*
X163084Y116755D02*
Y116888D01*
X161384Y116051D02*
Y116184D01*
X194559Y113191D02*
Y116697D01*
X190279Y80131D02*
Y84807D01*
X183961Y93943D02*
X186838D01*
X187721Y93061D01*
X189329Y79180D02*
X190279Y80131D01*
X189329Y78705D02*
Y79180D01*
X192866Y97117D02*
X195353Y94629D01*
X217177Y218483D02*
X223232D01*
X226688Y215028D02*
Y215028D01*
X223232Y218483D02*
X226688Y215028D01*
X200351Y173684D02*
X203559D01*
X195745Y169078D02*
X200351Y173684D01*
X167814Y176736D02*
Y193042D01*
X122500Y198984D02*
Y200325D01*
X119825Y203000D02*
X122500Y200325D01*
X125534Y196838D02*
Y203000D01*
X160950Y116618D02*
X161384Y116184D01*
X162650Y117322D02*
X163084Y116888D01*
X164500Y117877D02*
X164784Y117593D01*
X164500Y117877D02*
Y120370D01*
X162650Y117322D02*
Y121421D01*
X160950Y116618D02*
Y122125D01*
X124431Y180654D02*
X124647Y180870D01*
X119751Y180654D02*
X124431D01*
X119535Y180870D02*
X119751Y180654D01*
X92866Y180870D02*
X119535D01*
X199438Y235000D02*
X203102Y231336D01*
X195100Y233232D02*
X199547Y228785D01*
X203000Y223244D02*
X205000Y225244D01*
X203102Y226500D02*
Y231336D01*
X216285Y50935D02*
X221371Y45850D01*
X207039Y54924D02*
X212000Y59884D01*
Y63969D01*
X270500Y48661D02*
X272000Y50161D01*
X270161Y49000D02*
X270500Y48661D01*
X271061Y67594D02*
X272000Y66655D01*
X197197Y65502D02*
X200937Y69242D01*
X174632Y188308D02*
X175135Y188811D01*
X174632Y185563D02*
Y188308D01*
X175135Y188811D02*
Y191795D01*
X176940Y174630D02*
X178654D01*
X174632Y176938D02*
X176940Y174630D01*
X174632Y176938D02*
Y179854D01*
X175150Y191795D02*
X175787D01*
X179232Y195240D01*
X122500Y198874D02*
Y198984D01*
X122265Y199219D02*
X122500Y198984D01*
X125534Y196838D02*
X130084Y192287D01*
X131941D01*
X90898Y206163D02*
Y221421D01*
Y186323D02*
Y206163D01*
X214049Y187563D02*
Y195164D01*
X158909Y99633D02*
X161281D01*
X149067D02*
X151035D01*
X216808Y197922D02*
X226715D01*
X214049Y195164D02*
X216808Y197922D01*
X90898Y221421D02*
X93850Y224374D01*
X94635D01*
X272000Y50161D02*
Y53969D01*
X186961Y56429D02*
X192000Y61469D01*
X221371Y45850D02*
X267689D01*
X186961Y51469D02*
Y56429D01*
Y51469D02*
X189329Y49101D01*
X194632D01*
X197197Y51666D01*
X130661Y57248D02*
Y78035D01*
Y57248D02*
X134402Y53508D01*
Y49374D02*
Y53508D01*
X151035Y95007D02*
Y99633D01*
Y95007D02*
X153988Y92054D01*
X231055Y222012D02*
Y228785D01*
X266488Y212873D02*
X266601Y212760D01*
X269638D01*
X204559Y187563D02*
Y191539D01*
X173988Y134630D02*
X178654D01*
X204658Y58693D02*
X207433Y61469D01*
X192000Y55201D02*
X197197Y60398D01*
Y65502D01*
X167814Y193042D02*
X170603Y195831D01*
X167814Y171276D02*
Y176736D01*
X172591Y133232D02*
X173988Y134630D01*
X137354Y192583D02*
X137650Y192287D01*
X137354Y192583D02*
Y202563D01*
X90898Y186323D02*
X93988Y183232D01*
X120819D01*
X99339Y186776D02*
X120819D01*
Y186683D02*
X121081Y186421D01*
X120819Y186683D02*
Y186776D01*
X97188Y188927D02*
Y192198D01*
Y188927D02*
X99339Y186776D01*
X207600Y247141D02*
Y250201D01*
X209165Y251767D01*
Y303941D01*
X175135Y191795D02*
X175430Y192091D01*
X122997Y192503D02*
X125191Y190309D01*
X178654Y126803D02*
Y129630D01*
X177209Y125358D02*
X178654Y126803D01*
X156461Y130870D02*
Y138603D01*
X147984Y147080D02*
X156461Y138603D01*
D14*
X170503Y327047D02*
X177039Y333583D01*
X147000Y323153D02*
X147497D01*
X246679Y141965D02*
Y163321D01*
X245128Y140414D02*
X246679Y141965D01*
X245128Y116623D02*
Y140414D01*
X246000Y164000D02*
X246679Y163321D01*
X152790Y109616D02*
X154283D01*
X154480Y106165D02*
Y107500D01*
Y106165D02*
X155760Y104886D01*
X273767Y71399D02*
X277827Y67339D01*
X240259Y81929D02*
X250789Y71399D01*
X273767D01*
X240259Y105755D02*
X244904Y110400D01*
X240259Y81929D02*
Y105755D01*
X127709Y55449D02*
Y64555D01*
Y69846D01*
X154480Y108096D02*
Y109419D01*
X147667Y114738D02*
X152790Y109616D01*
X150894Y327047D02*
X170503D01*
X147497Y323153D02*
X148433Y324089D01*
Y324586D01*
X150894Y327047D01*
X244789Y110516D02*
X244904Y110400D01*
X244789Y110516D02*
Y116507D01*
X244673Y116623D02*
X244789Y116507D01*
X277827Y51395D02*
Y67339D01*
X220974Y204669D02*
X225892D01*
X217567Y201263D02*
X220974Y204669D01*
X155760Y104886D02*
X156681Y105807D01*
X156437Y106052D02*
X156681Y105807D01*
X156437Y106052D02*
Y106148D01*
X159250Y103378D02*
Y106148D01*
Y103378D02*
X159264Y103364D01*
X156654Y106148D02*
X159250D01*
X115855Y78035D02*
Y78425D01*
X217472Y201357D02*
X217567Y201263D01*
X246000Y166500D02*
Y169150D01*
Y164000D02*
Y166500D01*
X270081Y43650D02*
X277827Y51395D01*
X182000Y48969D02*
Y53969D01*
Y48969D02*
X187319Y43650D01*
X212945D01*
X270081D01*
X96803Y50161D02*
Y54886D01*
Y50161D02*
X99165Y47799D01*
X120059D01*
X127709Y55449D01*
X154283Y109616D02*
X154480Y109419D01*
D18*
X151991Y71331D02*
Y79704D01*
X154780Y82493D01*
X149826Y69166D02*
X151991Y71331D01*
X154780Y82493D02*
Y84284D01*
X149883Y71090D02*
X150691Y71898D01*
Y80421D01*
X142500Y69166D02*
X149826D01*
X150691Y80421D02*
X153004Y82733D01*
X144646Y71090D02*
X149883D01*
X154780Y84284D02*
X154972Y84476D01*
X153004Y82733D02*
Y84476D01*
D20*
X176659Y201565D02*
X178274D01*
X179466Y200373D01*
X176659Y201565D02*
X177538D01*
X177853Y201881D01*
X143693Y72043D02*
X144646Y71090D01*
X158889Y80546D02*
X163119D01*
X141543Y70123D02*
X142500Y69166D01*
X137958Y70123D02*
X141543D01*
X136704Y65658D02*
Y68868D01*
X135876Y72043D02*
X143693D01*
X133354Y69521D02*
X135876Y72043D01*
X133354Y64519D02*
X135564D01*
X136704Y65658D01*
Y68868D02*
X137958Y70123D01*
X230985Y255392D02*
X230985D01*
X237815Y263614D02*
X238142Y263941D01*
X230985Y255392D02*
X237815Y262222D01*
Y263614D01*
X149332Y81183D02*
X151035Y82886D01*
Y84476D01*
X222500Y194640D02*
Y195000D01*
X222459Y194599D02*
X222500Y194640D01*
X156941Y82493D02*
Y84476D01*
Y82493D02*
X158889Y80546D01*
X222197Y192893D02*
X223181Y193877D01*
X175135Y197504D02*
Y200733D01*
X176283Y201881D01*
X177853D01*
X129495Y197351D02*
X131941D01*
X129480Y197366D02*
X129495Y197351D01*
X131108Y201435D02*
X132236Y202563D01*
X129495Y201435D02*
X131108D01*
X222459Y194599D02*
X223181Y193877D01*
D42*
X272545Y115417D02*
D03*
Y109709D02*
D03*
X266724Y115423D02*
D03*
Y109714D02*
D03*
X175135Y191795D02*
D03*
Y197504D02*
D03*
X174632Y179854D02*
D03*
Y185563D02*
D03*
X179480Y102828D02*
D03*
Y97119D02*
D03*
X142197Y120854D02*
D03*
Y115146D02*
D03*
X147667Y120447D02*
D03*
Y114738D02*
D03*
D43*
X128595Y44340D02*
D03*
X134303D02*
D03*
Y49374D02*
D03*
X128595D02*
D03*
X212846Y47205D02*
D03*
X207138D02*
D03*
X250451Y89464D02*
D03*
X256160D02*
D03*
X244904Y110400D02*
D03*
X239196D02*
D03*
X137650Y197351D02*
D03*
X131941D02*
D03*
Y192287D02*
D03*
X137650D02*
D03*
X163319Y76146D02*
D03*
X169027D02*
D03*
X153764Y110200D02*
D03*
X159472D02*
D03*
X127646Y69521D02*
D03*
X133354D02*
D03*
X127646Y64519D02*
D03*
X133354D02*
D03*
X168827Y80546D02*
D03*
X163119D02*
D03*
X250451Y85141D02*
D03*
X256160D02*
D03*
X116854Y89594D02*
D03*
X111146D02*
D03*
X119825Y203000D02*
D03*
X125534D02*
D03*
D47*
X185161Y98193D02*
D03*
X187721D02*
D03*
X190279D02*
D03*
X192839D02*
D03*
X185161Y84807D02*
D03*
X187721D02*
D03*
X190279D02*
D03*
X192839D02*
D03*
D66*
X86954Y65481D02*
D03*
X100354D02*
D03*
D72*
X118500Y95905D02*
D03*
Y105205D02*
D03*
D153*
X119756Y95562D02*
Y95905D01*
X253300Y96900D02*
Y107739D01*
X253306Y96906D02*
X256353D01*
X253300Y96900D02*
X253578D01*
X68045Y270240D02*
X73850Y264435D01*
X121877Y95562D02*
X122684Y94755D01*
X119756Y95562D02*
X121877D01*
X259048Y112142D02*
X262354D01*
X257703D02*
X259048D01*
X253300Y107739D02*
X257703Y112142D01*
X256353Y96906D02*
X256359Y96912D01*
X259660Y96340D02*
X259900Y96100D01*
X257270Y96340D02*
X259660D01*
X256699Y96912D02*
X257270Y96340D01*
X256359Y96912D02*
X256699D01*
X202699Y202640D02*
X205780Y205720D01*
X201649Y205490D02*
Y205589D01*
X202699Y193136D02*
Y202640D01*
X199559Y189996D02*
X202699Y193136D01*
X199983Y203824D02*
X201649Y205490D01*
X199983Y195078D02*
Y203824D01*
X194559Y189654D02*
X199983Y195078D01*
X199559Y187563D02*
Y189996D01*
X263355Y67594D02*
X265433D01*
X262050Y66290D02*
X263355Y67594D01*
X262050Y64000D02*
Y66290D01*
X263661Y49000D02*
X265400D01*
X262050Y50611D02*
X263661Y49000D01*
X262050Y50611D02*
Y54000D01*
X33811Y244435D02*
X33850D01*
X38850Y239435D01*
X68850Y229435D02*
X73850Y234435D01*
X38850Y229435D02*
X68850D01*
X33850Y234435D02*
X38850Y229435D01*
Y239435D02*
X68850D01*
X73850Y244435D01*
X33850Y264435D02*
X39656Y270240D01*
X68045D01*
X194559Y187563D02*
Y189654D01*
D154*
X87722Y300161D02*
X92000Y304440D01*
X83383Y173359D02*
Y267103D01*
X81088Y269398D02*
X83383Y267103D01*
Y173359D02*
X89883Y166859D01*
X81088Y276741D02*
X83811Y279465D01*
X81088Y269398D02*
Y276741D01*
X143324Y98856D02*
X146052Y96127D01*
X122283Y95905D02*
X123300D01*
X111146Y89594D02*
X111169Y89617D01*
Y93374D01*
X113700Y95905D01*
X118500D01*
X126181Y96305D02*
X128732Y98856D01*
X123300Y95905D02*
X123700Y96305D01*
X126181D01*
X118500Y95905D02*
X119756D01*
X128732Y98856D02*
X143324D01*
X83811Y279465D02*
Y282825D01*
Y287169D01*
X97000Y353500D02*
X103295Y347205D01*
X153418D01*
X167039Y333583D01*
X92000Y348500D02*
X97000Y353500D01*
X92000Y304440D02*
Y348500D01*
X148587Y170240D02*
Y175358D01*
X145206Y166859D02*
X148587Y170240D01*
X89883Y166859D02*
X145206D01*
X83383Y296977D02*
X86567Y300161D01*
X83383Y287598D02*
Y296977D01*
Y287598D02*
X83811Y287169D01*
X86567Y300161D02*
X87722D01*
X100354Y65481D02*
X106739D01*
X106803Y65417D01*
D155*
X125338Y88180D02*
X145363D01*
X142197Y113496D02*
Y115146D01*
Y111262D02*
Y113496D01*
X153440Y102253D01*
X142197Y109766D02*
Y111262D01*
X126712Y109766D02*
X142197D01*
X122997Y106052D02*
X126712Y109766D01*
D156*
X152646Y66406D02*
G03*
X152015Y66006I6617J-11144D01*
G01*
X174914Y73693D02*
Y83489D01*
X164217Y85528D02*
X172874D01*
X174914Y83489D01*
X169593Y68372D02*
X174914Y73693D01*
X154612Y68372D02*
X169593D01*
X152646Y66406D02*
X154612Y68372D01*
X152015Y66006D02*
X152015D01*
X141216D02*
X152015D01*
X162613Y87133D02*
X164217Y85528D01*
X161567Y87133D02*
X162613D01*
X140953Y66270D02*
X141216Y66006D01*
X139716Y67506D02*
X140953Y66270D01*
X217935Y51689D02*
Y69265D01*
X214800Y72400D02*
X217935Y69265D01*
Y51689D02*
X222125Y47500D01*
X187667Y98247D02*
Y102923D01*
X188108Y103364D01*
X187667Y98247D02*
X187721Y98193D01*
X266724Y58693D02*
X272000Y63969D01*
X259693Y58693D02*
X266724D01*
X257827Y56827D02*
X259693Y58693D01*
X257827Y49374D02*
Y56827D01*
X222125Y47500D02*
X255953D01*
X257827Y49374D01*
D158*
X156437Y105204D02*
X157017Y105785D01*
X156437Y103312D02*
Y103393D01*
X156654Y106148D02*
X157017Y105785D01*
X156437Y103393D02*
X156500Y103457D01*
X156437Y103393D02*
Y105204D01*
X156941Y102819D02*
X157039Y102917D01*
X156500Y103457D02*
X157039Y102917D01*
X156941Y99633D02*
Y102819D01*
X156437Y106148D02*
X156654D01*
D162*
X112157Y243409D02*
Y257888D01*
X127000Y272730D02*
Y311600D01*
X112157Y257888D02*
X127000Y272730D01*
X106996Y243482D02*
Y259563D01*
X122265Y274831D02*
Y303772D01*
X106996Y259563D02*
X122265Y274831D01*
X99950Y285404D02*
Y301320D01*
X95071Y270663D02*
Y280525D01*
X99950Y285404D01*
X94237Y263013D02*
X96893Y265669D01*
X94237Y254934D02*
Y263013D01*
X95071Y270663D02*
X96893Y268840D01*
Y265669D02*
Y268840D01*
X94201Y254898D02*
X94237Y254934D01*
X94201Y241205D02*
Y254898D01*
Y238646D02*
Y241205D01*
Y236087D02*
Y238646D01*
Y233528D02*
Y236087D01*
X112157Y240845D02*
Y243409D01*
Y238281D02*
Y240845D01*
Y235718D02*
Y238281D01*
X106996Y240918D02*
Y243482D01*
Y238355D02*
Y240918D01*
Y235791D02*
Y238355D01*
Y235718D02*
Y235791D01*
X123761Y242191D02*
Y255959D01*
Y239627D02*
Y242191D01*
Y237064D02*
Y239627D01*
Y234500D02*
Y237064D01*
Y255959D02*
X132500Y264697D01*
X104631Y308764D02*
X117273D01*
X122265Y303772D01*
X99950Y301320D02*
X99953Y301323D01*
X104631Y311915D02*
Y315067D01*
Y308764D02*
Y311915D01*
Y305612D02*
Y308764D01*
X99953Y301323D02*
Y318314D01*
X104793Y323153D02*
X127000D01*
X99953Y318314D02*
X104793Y323153D01*
X132500Y308653D02*
X137000Y313154D01*
X132500Y264697D02*
Y308653D01*
D164*
X106803Y65417D02*
Y72606D01*
Y54886D02*
Y65417D01*
X115855Y78035D02*
X120661D01*
X107313Y73116D02*
X112232Y78035D01*
X115855D01*
D185*
X120661D02*
D03*
X130661D02*
D03*
X140661D02*
D03*
X96803Y54886D02*
D03*
X106803D02*
D03*
X86803D02*
D03*
D186*
X120661Y58035D02*
D03*
X140661D02*
D03*
D187*
X43500Y74500D02*
D03*
X33500D02*
D03*
Y254500D02*
D03*
Y234500D02*
D03*
Y84500D02*
D03*
Y224500D02*
D03*
Y214500D02*
D03*
Y204500D02*
D03*
Y194500D02*
D03*
Y184500D02*
D03*
Y244500D02*
D03*
Y174500D02*
D03*
Y164500D02*
D03*
Y154500D02*
D03*
Y144500D02*
D03*
X33500Y134500D02*
D03*
X33500Y124500D02*
D03*
Y114500D02*
D03*
Y104500D02*
D03*
Y94500D02*
D03*
X43500D02*
D03*
Y104500D02*
D03*
Y114500D02*
D03*
Y124500D02*
D03*
X43500Y134500D02*
D03*
X43500Y144500D02*
D03*
Y154500D02*
D03*
Y164500D02*
D03*
Y174500D02*
D03*
Y244500D02*
D03*
Y184500D02*
D03*
Y194500D02*
D03*
Y204500D02*
D03*
Y214500D02*
D03*
Y224500D02*
D03*
Y84500D02*
D03*
Y234500D02*
D03*
Y254500D02*
D03*
Y264500D02*
D03*
X90478Y76146D02*
D03*
X177000Y311600D02*
D03*
Y321600D02*
D03*
X157000Y311600D02*
D03*
Y321600D02*
D03*
X127000Y311600D02*
D03*
X137000Y321600D02*
D03*
Y311600D02*
D03*
X147000Y321600D02*
D03*
Y311600D02*
D03*
X167000D02*
D03*
Y321600D02*
D03*
X184100Y74100D02*
D03*
X117000Y353500D02*
D03*
X187000D02*
D03*
X177000D02*
D03*
X167000D02*
D03*
X157000D02*
D03*
X147000D02*
D03*
X137000D02*
D03*
X127000D02*
D03*
X107000D02*
D03*
X197000D02*
D03*
X207000D02*
D03*
X167000Y331700D02*
D03*
X137000D02*
D03*
X147000D02*
D03*
X157000D02*
D03*
X177000D02*
D03*
X115839Y292212D02*
D03*
X108768Y285140D02*
D03*
X262050Y54000D02*
D03*
Y64000D02*
D03*
X272050Y54000D02*
D03*
Y64000D02*
D03*
X242050Y54000D02*
D03*
Y64000D02*
D03*
X252050Y54000D02*
D03*
Y64000D02*
D03*
X222050Y54000D02*
D03*
Y64000D02*
D03*
X232050Y54000D02*
D03*
Y64000D02*
D03*
X202050Y54000D02*
D03*
X212050D02*
D03*
Y64000D02*
D03*
X192050Y54000D02*
D03*
X182050Y64000D02*
D03*
Y54000D02*
D03*
D188*
X33500Y264500D02*
D03*
D189*
X100478Y76146D02*
D03*
X127000Y321600D02*
D03*
X194100Y74100D02*
D03*
X97000Y353500D02*
D03*
X187000Y331700D02*
D03*
D190*
X68713Y55262D02*
D03*
X159264Y55262D02*
D03*
Y283608D02*
D03*
X68713D02*
D03*
D191*
X63850Y74435D02*
D03*
Y84435D02*
D03*
Y94435D02*
D03*
Y104435D02*
D03*
Y114435D02*
D03*
Y124435D02*
D03*
Y134435D02*
D03*
Y144435D02*
D03*
Y154435D02*
D03*
Y164435D02*
D03*
Y174435D02*
D03*
Y184435D02*
D03*
Y194435D02*
D03*
Y204435D02*
D03*
Y214435D02*
D03*
Y224435D02*
D03*
Y234435D02*
D03*
Y244435D02*
D03*
Y254435D02*
D03*
Y264435D02*
D03*
X73850Y74435D02*
D03*
Y84435D02*
D03*
Y94435D02*
D03*
Y104435D02*
D03*
Y114435D02*
D03*
Y124435D02*
D03*
Y134435D02*
D03*
Y144435D02*
D03*
Y154435D02*
D03*
Y164435D02*
D03*
Y174435D02*
D03*
Y184435D02*
D03*
Y194435D02*
D03*
Y204435D02*
D03*
Y214435D02*
D03*
Y224435D02*
D03*
Y234435D02*
D03*
Y244435D02*
D03*
Y254435D02*
D03*
D192*
Y264435D02*
D03*
D193*
X260898Y81684D02*
D03*
Y100582D02*
D03*
X277827Y81684D02*
D03*
Y100582D02*
D03*
D194*
X269362Y105896D02*
D03*
D195*
Y76369D02*
D03*
D196*
X148587Y175358D02*
D03*
X138744D02*
D03*
X104933D02*
D03*
X95091D02*
D03*
D197*
X101697Y278069D02*
D03*
D198*
X104500Y135594D02*
D03*
X110406Y132395D02*
D03*
X107453D02*
D03*
X110406Y135594D02*
D03*
X104500Y132395D02*
D03*
X107453Y135594D02*
D03*
X99319Y135819D02*
D03*
Y132395D02*
D03*
X116092Y132420D02*
D03*
Y135595D02*
D03*
X96255Y133994D02*
D03*
X93302D02*
D03*
X90350D02*
D03*
X119044Y135595D02*
D03*
Y132395D02*
D03*
X133751Y133994D02*
D03*
X136704D02*
D03*
X139657D02*
D03*
X142676Y132470D02*
D03*
Y135613D02*
D03*
X98138Y209336D02*
D03*
Y218935D02*
D03*
Y215735D02*
D03*
Y212536D02*
D03*
X115855Y209336D02*
D03*
Y218935D02*
D03*
Y215735D02*
D03*
Y212536D02*
D03*
X121997Y132395D02*
D03*
Y135595D02*
D03*
X130738Y133969D02*
D03*
X127726Y133944D02*
D03*
X87397Y133994D02*
D03*
X101091Y209336D02*
D03*
Y212536D02*
D03*
Y215735D02*
D03*
Y218935D02*
D03*
X106996Y212536D02*
D03*
X104043D02*
D03*
X109949D02*
D03*
Y215735D02*
D03*
X104043D02*
D03*
X106996D02*
D03*
Y218935D02*
D03*
X104043D02*
D03*
X109949D02*
D03*
X106996Y209336D02*
D03*
X109949D02*
D03*
X104043D02*
D03*
X112902D02*
D03*
Y218935D02*
D03*
Y215735D02*
D03*
Y212536D02*
D03*
X150854Y132395D02*
D03*
X147902Y135594D02*
D03*
Y132395D02*
D03*
X150854Y135594D02*
D03*
X153807Y132395D02*
D03*
Y135594D02*
D03*
X204934Y301251D02*
D03*
X201178Y303271D02*
D03*
X230985Y300712D02*
D03*
X214243Y252000D02*
D03*
X211824Y249244D02*
D03*
X77800Y312684D02*
D03*
Y315646D02*
D03*
X25700Y85912D02*
D03*
X26000Y132341D02*
D03*
X25700Y180454D02*
D03*
Y215584D02*
D03*
Y264400D02*
D03*
X27300Y295500D02*
D03*
X46007Y296732D02*
D03*
X169820Y265522D02*
D03*
X160003Y247141D02*
D03*
X164525Y249793D02*
D03*
X95097Y199086D02*
D03*
X94936Y186683D02*
D03*
X130084Y150721D02*
D03*
Y146112D02*
D03*
X86803Y150311D02*
D03*
Y145025D02*
D03*
X83098Y162760D02*
D03*
X88000Y42385D02*
D03*
X144000D02*
D03*
X168241Y42607D02*
D03*
X173901Y42798D02*
D03*
X212592Y79143D02*
D03*
X216285Y76369D02*
D03*
X259443Y105409D02*
D03*
X262694Y105212D02*
D03*
X278500Y107306D02*
D03*
X275286Y105212D02*
D03*
X261828Y75000D02*
D03*
X277407D02*
D03*
X274093D02*
D03*
X265012D02*
D03*
X274093Y78032D02*
D03*
X265012Y78228D02*
D03*
X235772Y127457D02*
D03*
X250742Y175870D02*
D03*
X249078Y179854D02*
D03*
X274160Y130994D02*
D03*
X154480Y70900D02*
D03*
X185798Y123360D02*
D03*
X255388Y202089D02*
D03*
X104349Y87598D02*
D03*
Y84284D02*
D03*
X124647Y91680D02*
D03*
X169667Y76752D02*
D03*
X161000Y70900D02*
D03*
X173619Y68823D02*
D03*
X192703Y127994D02*
D03*
X209434Y122797D02*
D03*
X249800Y143100D02*
D03*
X232774Y141805D02*
D03*
X235000Y139000D02*
D03*
X221395Y131465D02*
D03*
X240000Y160000D02*
D03*
X239602Y139354D02*
D03*
X243601Y143240D02*
D03*
X236776Y156234D02*
D03*
X195165Y132854D02*
D03*
X191053Y148512D02*
D03*
X193654Y140973D02*
D03*
X188029Y144633D02*
D03*
X187661Y137291D02*
D03*
X109949Y268689D02*
D03*
X114906Y273772D02*
D03*
X117961Y243600D02*
D03*
Y247929D02*
D03*
X125249Y264732D02*
D03*
X128084Y267255D02*
D03*
X87964Y274045D02*
D03*
X105163Y273370D02*
D03*
X93065Y267255D02*
D03*
X99953Y256461D02*
D03*
X90409Y256520D02*
D03*
X276000Y360000D02*
D03*
X272000Y352000D02*
D03*
X276000Y344000D02*
D03*
X272000Y336000D02*
D03*
X276000Y328000D02*
D03*
X272000Y320000D02*
D03*
X276000Y312000D02*
D03*
X272000Y304000D02*
D03*
X276000Y296000D02*
D03*
X272000Y288000D02*
D03*
X276000Y280000D02*
D03*
X272000Y272000D02*
D03*
X268000Y360000D02*
D03*
X264000Y352000D02*
D03*
X268000Y344000D02*
D03*
X264000Y336000D02*
D03*
X268000Y328000D02*
D03*
X264000Y320000D02*
D03*
X268000Y312000D02*
D03*
X264000Y304000D02*
D03*
X268000Y296000D02*
D03*
X260000Y360000D02*
D03*
Y328000D02*
D03*
X252000Y360000D02*
D03*
X244000D02*
D03*
X240000Y352000D02*
D03*
X244000Y328000D02*
D03*
X236000Y360000D02*
D03*
X232000Y352000D02*
D03*
X236000Y344000D02*
D03*
X232000Y336000D02*
D03*
X236000Y328000D02*
D03*
X232000Y320000D02*
D03*
X236000Y312000D02*
D03*
X228000Y360000D02*
D03*
X224000Y352000D02*
D03*
X228000Y344000D02*
D03*
Y328000D02*
D03*
X224000Y320000D02*
D03*
X228000Y312000D02*
D03*
X224000Y304000D02*
D03*
X220000Y360000D02*
D03*
Y344000D02*
D03*
Y328000D02*
D03*
Y312000D02*
D03*
X216000Y304000D02*
D03*
X212000Y328000D02*
D03*
Y312000D02*
D03*
X204000Y280000D02*
D03*
Y152000D02*
D03*
X184000Y320000D02*
D03*
X168000Y272000D02*
D03*
X148000Y264000D02*
D03*
X144000Y256000D02*
D03*
Y48000D02*
D03*
X140000Y280000D02*
D03*
Y264000D02*
D03*
X120000Y336000D02*
D03*
Y176000D02*
D03*
X124000Y72000D02*
D03*
X112000Y336000D02*
D03*
Y176000D02*
D03*
X108000Y328000D02*
D03*
X88000Y48000D02*
D03*
X84000Y328000D02*
D03*
Y312000D02*
D03*
X80000Y160000D02*
D03*
Y64000D02*
D03*
X76000Y360000D02*
D03*
X72000Y352000D02*
D03*
X68000Y360000D02*
D03*
X64000Y352000D02*
D03*
X68000Y344000D02*
D03*
Y328000D02*
D03*
X60000Y360000D02*
D03*
Y328000D02*
D03*
X56000Y256000D02*
D03*
Y64000D02*
D03*
Y48000D02*
D03*
X52000Y360000D02*
D03*
Y296000D02*
D03*
X44000Y360000D02*
D03*
X40000Y352000D02*
D03*
Y336000D02*
D03*
X44000Y328000D02*
D03*
X40000Y320000D02*
D03*
X36000Y360000D02*
D03*
X32000Y352000D02*
D03*
X36000Y344000D02*
D03*
X32000Y336000D02*
D03*
X36000Y328000D02*
D03*
Y312000D02*
D03*
X32000Y272000D02*
D03*
X190323Y267136D02*
D03*
X185700Y217386D02*
D03*
X188697Y228857D02*
D03*
X182952Y228373D02*
D03*
X176659Y201565D02*
D03*
X179323Y204546D02*
D03*
X176664Y207285D02*
D03*
X178689Y218200D02*
D03*
X176051Y105599D02*
D03*
X171841Y119194D02*
D03*
X156654Y95757D02*
D03*
X153514Y94291D02*
D03*
X106512Y98427D02*
D03*
X215356Y260684D02*
D03*
X278594Y258478D02*
D03*
X269556Y257984D02*
D03*
X255395Y259025D02*
D03*
X240937Y257534D02*
D03*
X237009Y254600D02*
D03*
X224254Y246963D02*
D03*
X217295Y235579D02*
D03*
X128536Y232400D02*
D03*
X131100D02*
D03*
X133664D02*
D03*
X259402Y125842D02*
D03*
X260898Y120539D02*
D03*
X263900Y125700D02*
D03*
X270765Y127994D02*
D03*
X256353Y103863D02*
D03*
X245600Y106700D02*
D03*
X246309Y93047D02*
D03*
X253578Y96900D02*
D03*
X250542Y80306D02*
D03*
X254119Y74533D02*
D03*
X250542Y76369D02*
D03*
X222394Y103124D02*
D03*
X201300Y128114D02*
D03*
X187667Y132395D02*
D03*
X208936Y108776D02*
D03*
X227232Y127240D02*
D03*
X198323Y107500D02*
D03*
X198100Y111100D02*
D03*
X227905Y122383D02*
D03*
X258972Y131891D02*
D03*
X150524Y227187D02*
D03*
X180175Y91680D02*
D03*
X139716Y67506D02*
D03*
X112157Y243409D02*
D03*
Y240845D02*
D03*
Y238281D02*
D03*
Y235718D02*
D03*
X106996Y243482D02*
D03*
Y240918D02*
D03*
Y238355D02*
D03*
Y235791D02*
D03*
X136000Y247621D02*
D03*
X138744Y227329D02*
D03*
X132236Y215485D02*
D03*
X140500Y220800D02*
D03*
X153572Y260000D02*
D03*
Y254542D02*
D03*
X147695Y221800D02*
D03*
X123761Y234500D02*
D03*
Y237064D02*
D03*
Y239627D02*
D03*
Y242191D02*
D03*
X173700Y65100D02*
D03*
X179283Y72606D02*
D03*
X125949Y83660D02*
D03*
X154000Y107500D02*
D03*
X82100Y153321D02*
D03*
X82028Y74500D02*
D03*
X123700Y44637D02*
D03*
X231836Y124822D02*
D03*
X214800Y72400D02*
D03*
X214673Y68868D02*
D03*
X276457Y93047D02*
D03*
X259048Y112142D02*
D03*
X262354D02*
D03*
X259900Y96100D02*
D03*
X256359Y96912D02*
D03*
X236981Y169630D02*
D03*
X190864Y159567D02*
D03*
X189500Y121308D02*
D03*
X242050Y122205D02*
D03*
Y125700D02*
D03*
X262354Y92117D02*
D03*
X237009Y257632D02*
D03*
X244809Y268686D02*
D03*
X249579Y268691D02*
D03*
X249584Y263921D02*
D03*
X244814Y263916D02*
D03*
X242452Y245018D02*
D03*
X242447Y249788D02*
D03*
X247217Y249793D02*
D03*
X247222Y245023D02*
D03*
X244047Y205180D02*
D03*
X251129Y200373D02*
D03*
X247222Y216840D02*
D03*
X215450Y271703D02*
D03*
X219008Y268282D02*
D03*
X214243Y288741D02*
D03*
X214520Y293054D02*
D03*
X214374Y282445D02*
D03*
X221690Y279691D02*
D03*
X224643Y274300D02*
D03*
X244487Y219059D02*
D03*
X240787Y237213D02*
D03*
X193797Y202928D02*
D03*
X198078Y207989D02*
D03*
Y217386D02*
D03*
X192500Y196000D02*
D03*
X238928Y199827D02*
D03*
X201649Y205589D02*
D03*
X211824Y199079D02*
D03*
X211704Y180721D02*
D03*
X258444Y212974D02*
D03*
X261240Y210295D02*
D03*
X257500Y230870D02*
D03*
X201922Y181566D02*
D03*
X104631Y305612D02*
D03*
Y308764D02*
D03*
Y311915D02*
D03*
Y315067D02*
D03*
X103510Y326760D02*
D03*
X95394Y301654D02*
D03*
X181210Y243044D02*
D03*
X185000Y252549D02*
D03*
X207573Y225087D02*
D03*
X83811Y279465D02*
D03*
Y282825D02*
D03*
X152709Y201933D02*
D03*
Y205429D02*
D03*
X159264Y194146D02*
D03*
X156686Y216344D02*
D03*
X161842Y206654D02*
D03*
X156150Y226520D02*
D03*
X163852Y226244D02*
D03*
X127000Y336824D02*
D03*
X138000Y342190D02*
D03*
X98000Y333000D02*
D03*
X254000Y273000D02*
D03*
X221922Y233626D02*
D03*
X221690Y200500D02*
D03*
X205780Y214496D02*
D03*
X160189Y238744D02*
D03*
X165542D02*
D03*
X177012Y240701D02*
D03*
X198078Y245830D02*
D03*
X204934Y244256D02*
D03*
X191076Y283621D02*
D03*
X209091Y215485D02*
D03*
X211704Y224603D02*
D03*
X204500Y211000D02*
D03*
X205780Y205720D02*
D03*
X196500Y196000D02*
D03*
X125093Y174965D02*
D03*
X78693Y292287D02*
D03*
X240734Y273500D02*
D03*
X269967Y234527D02*
D03*
Y226098D02*
D03*
Y230500D02*
D03*
X274715Y199459D02*
D03*
Y194776D02*
D03*
X269967Y222012D02*
D03*
X277000Y239000D02*
D03*
X269967Y217386D02*
D03*
X261634Y241784D02*
D03*
X256921Y265517D02*
D03*
X254000Y252000D02*
D03*
X228384Y225231D02*
D03*
X221922Y239531D02*
D03*
X269967Y212818D02*
D03*
X225892Y204669D02*
D03*
X222500D02*
D03*
X227905Y208000D02*
D03*
X259402Y194640D02*
D03*
X188108Y103364D02*
D03*
X162000Y146000D02*
D03*
X154664Y151078D02*
D03*
X154698Y154435D02*
D03*
Y147950D02*
D03*
X95185Y203112D02*
D03*
X138535Y302551D02*
D03*
X147695Y215516D02*
D03*
X147500Y212000D02*
D03*
X157977Y185543D02*
D03*
X154283Y188927D02*
D03*
X193654Y144540D02*
D03*
X165573Y103705D02*
D03*
Y100582D02*
D03*
Y97437D02*
D03*
X167814Y93666D02*
D03*
X176051Y102253D02*
D03*
X168241Y119054D02*
D03*
X189329Y78705D02*
D03*
X195745Y101766D02*
D03*
X209402Y209336D02*
D03*
X226751Y214965D02*
D03*
X225892Y171993D02*
D03*
X203559Y173684D02*
D03*
X195745Y169078D02*
D03*
X167814Y176736D02*
D03*
X143000Y197918D02*
D03*
X141113Y201259D02*
D03*
X144500D02*
D03*
X156437Y106148D02*
D03*
X159264Y103364D02*
D03*
X159250Y106148D02*
D03*
X26000Y43000D02*
D03*
X278500Y45500D02*
D03*
X276030Y42500D02*
D03*
X221500Y226500D02*
D03*
X171500Y237000D02*
D03*
X173500Y241000D02*
D03*
X122500Y198874D02*
D03*
X90898Y206163D02*
D03*
X90974Y229761D02*
D03*
X118562Y160398D02*
D03*
Y162760D02*
D03*
X137954Y160398D02*
D03*
Y162760D02*
D03*
X275000Y269311D02*
D03*
X92000Y304440D02*
D03*
X94201Y241205D02*
D03*
Y238646D02*
D03*
Y233528D02*
D03*
Y236087D02*
D03*
X256347Y298173D02*
D03*
X251129D02*
D03*
X161484Y165382D02*
D03*
Y163020D02*
D03*
X231029Y291331D02*
D03*
X161764Y160272D02*
D03*
X153890Y120240D02*
D03*
X154087Y114121D02*
D03*
Y117287D02*
D03*
X122547Y143429D02*
D03*
X125777Y153321D02*
D03*
X226500Y284000D02*
D03*
X53850Y244435D02*
D03*
X219638Y255500D02*
D03*
X222500Y195000D02*
D03*
X246000Y164000D02*
D03*
Y166500D02*
D03*
Y169150D02*
D03*
X79823Y327528D02*
D03*
X86961Y292490D02*
D03*
Y295410D02*
D03*
X122394Y128114D02*
D03*
X230985Y255392D02*
D03*
X231055Y222012D02*
D03*
Y228785D02*
D03*
X97188Y192198D02*
D03*
X118851Y117593D02*
D03*
X110685Y114121D02*
D03*
X95185Y218935D02*
D03*
Y215735D02*
D03*
Y212536D02*
D03*
X118807Y218935D02*
D03*
Y215735D02*
D03*
Y212536D02*
D03*
X121760Y218935D02*
D03*
X110685Y117287D02*
D03*
Y120453D02*
D03*
X148587Y170240D02*
D03*
X199547Y228785D02*
D03*
X124713Y215735D02*
D03*
Y218935D02*
D03*
X121760Y215735D02*
D03*
Y212536D02*
D03*
X94635Y224374D02*
D03*
X276457Y89124D02*
D03*
X274337Y248744D02*
D03*
X136173Y117973D02*
D03*
X53831Y204435D02*
D03*
X55071Y43643D02*
D03*
X53850Y219435D02*
D03*
X53831Y174435D02*
D03*
Y139694D02*
D03*
Y104435D02*
D03*
X191882Y291558D02*
D03*
X188535D02*
D03*
X118807Y209336D02*
D03*
X95185D02*
D03*
X121760D02*
D03*
X124713Y212536D02*
D03*
Y209336D02*
D03*
X227905Y218584D02*
D03*
X251205Y277023D02*
D03*
X222787Y149826D02*
D03*
X219112Y147950D02*
D03*
X222394Y145607D02*
D03*
X215570Y149492D02*
D03*
X215087Y145831D02*
D03*
X90110Y302524D02*
D03*
X87722Y300161D02*
D03*
X83811Y287169D02*
D03*
X193654Y241894D02*
D03*
X193063Y230083D02*
D03*
X170603Y195831D02*
D03*
X190504Y247406D02*
D03*
X172591Y133232D02*
D03*
X138535Y297406D02*
D03*
X120819Y183232D02*
D03*
Y186776D02*
D03*
X141786Y148561D02*
D03*
Y153412D02*
D03*
Y150924D02*
D03*
X98365Y162760D02*
D03*
Y160398D02*
D03*
X98384Y150924D02*
D03*
Y153412D02*
D03*
Y148561D02*
D03*
X207600Y247141D02*
D03*
X200799Y288741D02*
D03*
X201470Y265774D02*
D03*
X206252Y256461D02*
D03*
X179480Y227329D02*
D03*
X138535Y210398D02*
D03*
X129480Y197366D02*
D03*
X129495Y201435D02*
D03*
X125093Y180870D02*
D03*
X125191Y190309D02*
D03*
X177209Y125358D02*
D03*
X96409Y113439D02*
D03*
X116135Y189532D02*
D03*
X238142Y263941D02*
D03*
X262513Y260451D02*
D03*
X262945Y272650D02*
D03*
X261852Y282445D02*
D03*
X261764Y276933D02*
D03*
X249130Y288548D02*
D03*
X243752Y299439D02*
D03*
X238634D02*
D03*
X221231Y290615D02*
D03*
X90898Y287563D02*
D03*
X29985Y322342D02*
D03*
D199*
X202050Y64000D02*
D03*
X192050D02*
D03*
D210*
X148746Y73800D02*
D03*
X154454D02*
D03*
X148791Y78300D02*
D03*
X154500D02*
D03*
D211*
X249673Y187489D02*
D03*
X244673D02*
D03*
X239673D02*
D03*
X234673D02*
D03*
X229673D02*
D03*
X224673D02*
D03*
X219673D02*
D03*
X214673D02*
D03*
X209673D02*
D03*
X204673D02*
D03*
X199673D02*
D03*
X194673D02*
D03*
X189673D02*
D03*
X184673D02*
D03*
Y116623D02*
D03*
X189673D02*
D03*
X194673D02*
D03*
X199673D02*
D03*
X204673D02*
D03*
X209673D02*
D03*
X214673D02*
D03*
X219673D02*
D03*
X224673D02*
D03*
X229673D02*
D03*
X234673D02*
D03*
X239673D02*
D03*
X244673D02*
D03*
X249673D02*
D03*
D212*
X178768Y174556D02*
D03*
Y169556D02*
D03*
Y164556D02*
D03*
Y159556D02*
D03*
Y154556D02*
D03*
Y149556D02*
D03*
Y144556D02*
D03*
Y139556D02*
D03*
Y134556D02*
D03*
Y129556D02*
D03*
D213*
X220500Y149300D02*
D03*
D214*
X153988Y92054D02*
D03*
D215*
X158909Y99633D02*
D03*
X156941D02*
D03*
X154972D02*
D03*
X153004D02*
D03*
X151035D02*
D03*
X149067D02*
D03*
Y84476D02*
D03*
X151035D02*
D03*
X153004D02*
D03*
X154972D02*
D03*
X156941D02*
D03*
X158909D02*
D03*
D216*
X146409Y96976D02*
D03*
Y95007D02*
D03*
Y93039D02*
D03*
Y91070D02*
D03*
Y89102D02*
D03*
Y87133D02*
D03*
X161567D02*
D03*
Y89102D02*
D03*
Y91070D02*
D03*
Y93039D02*
D03*
Y95007D02*
D03*
Y96976D02*
D03*
D217*
X265236Y67594D02*
D03*
X268780D02*
D03*
X268746Y49000D02*
D03*
X265203D02*
D03*
D218*
X137354Y202563D02*
D03*
X134795Y210437D02*
D03*
X132236Y202563D02*
D03*
D219*
X179232Y195240D02*
D03*
X187106Y197799D02*
D03*
X179232Y200358D02*
D03*
D220*
X266141Y193165D02*
D03*
D221*
X266488Y208542D02*
D03*
Y212873D02*
D03*
Y221535D02*
D03*
Y217204D02*
D03*
Y230196D02*
D03*
Y225865D02*
D03*
Y238857D02*
D03*
Y234527D02*
D03*
D222*
X222197Y192893D02*
D03*
X222197Y244074D02*
D03*
D223*
X264421Y242991D02*
D03*
D224*
X217472Y201357D02*
D03*
D225*
X217177Y218483D02*
D03*
D226*
X134402Y104856D02*
D03*
Y92856D02*
D03*
D227*
X120661Y83232D02*
Y83503D01*
X125338Y88180D01*
X116760Y79331D02*
X120661Y83232D01*
X115855Y78425D02*
X116760Y79331D01*
X120661Y78035D02*
Y83232D01*
D228*
X100478Y76146D02*
X108909D01*
D229*
X130661Y78035D02*
X140661D01*
D230*
X139737Y92022D02*
D03*
D231*
X158208Y103803D02*
D03*
D232*
X153988Y99904D02*
D03*
D233*
X146521Y88117D02*
D03*
M02*
