G04*
G04 #@! TF.GenerationSoftware,Altium Limited,Altium Designer,21.0.8 (223)*
G04*
G04 Layer_Color=32896*
%FSLAX25Y25*%
%MOIN*%
G70*
G04*
G04 #@! TF.SameCoordinates,C8F2EFAD-F301-47D2-81E3-A82B1A8C5C35*
G04*
G04*
G04 #@! TF.FilePolarity,Positive*
G04*
G01*
G75*
%ADD10C,0.01000*%
%ADD11C,0.00394*%
%ADD12C,0.01575*%
%ADD13C,0.00984*%
%ADD14C,0.02000*%
%ADD17C,0.00787*%
%ADD18C,0.00600*%
%ADD20C,0.00800*%
G36*
X256543Y179689D02*
X254676D01*
Y181583D01*
X256543D01*
Y179689D01*
D02*
G37*
G36*
Y169804D02*
X254642D01*
Y171741D01*
X256543D01*
Y169804D01*
D02*
G37*
G36*
X276228Y179697D02*
Y171741D01*
Y169827D01*
Y159976D01*
Y159961D01*
X270534D01*
Y159965D01*
X266386D01*
Y152056D01*
X274260D01*
Y150079D01*
X266386D01*
Y150079D01*
X264615D01*
Y150079D01*
X264610D01*
Y152056D01*
X264615D01*
Y161898D01*
X274314D01*
Y169827D01*
X256666D01*
Y171741D01*
X274314D01*
Y179697D01*
X256660D01*
Y181583D01*
X276228D01*
Y179697D01*
D02*
G37*
G36*
Y140205D02*
X274452D01*
Y152056D01*
X276228D01*
Y140205D01*
D02*
G37*
G36*
X274260Y140205D02*
X266386D01*
Y132371D01*
X274260D01*
Y130317D01*
X264604D01*
Y130370D01*
X264489D01*
Y142213D01*
X274260D01*
Y140205D01*
D02*
G37*
G36*
X258512Y120480D02*
X256643D01*
Y122528D01*
X258512D01*
Y120480D01*
D02*
G37*
G36*
X276228Y120524D02*
Y120473D01*
X258626D01*
Y122528D01*
X274325D01*
Y132371D01*
X276228D01*
Y120524D01*
D02*
G37*
G36*
X211937Y359974D02*
X92472D01*
Y366697D01*
X211937D01*
Y359974D01*
D02*
G37*
G36*
X234800Y316134D02*
Y306900D01*
X183619D01*
Y316134D01*
X234800D01*
D02*
G37*
G36*
X234600Y317700D02*
X183419D01*
Y326934D01*
X234600D01*
Y317700D01*
D02*
G37*
%LPC*%
G36*
X144861Y365285D02*
X144823D01*
D01*
X143955D01*
X144823D01*
X144790Y365279D01*
X144757D01*
X144714Y365274D01*
X144621Y365257D01*
X144512Y365230D01*
X144402Y365192D01*
X144293Y365137D01*
X144195Y365061D01*
Y365055D01*
X144184Y365050D01*
X144157Y365017D01*
X144118Y364968D01*
X144075Y364902D01*
X144031Y364821D01*
X143993Y364722D01*
X143966Y364608D01*
X143960Y364548D01*
X143955Y364482D01*
Y364482D01*
Y364444D01*
X143960Y364400D01*
X143971Y364346D01*
X143982Y364280D01*
X143998Y364214D01*
X144026Y364143D01*
X144064Y364072D01*
X144069Y364062D01*
X144086Y364040D01*
X144107Y364007D01*
X144146Y363969D01*
X144184Y363925D01*
X144239Y363876D01*
X144299Y363832D01*
X144370Y363794D01*
X144380Y363789D01*
X144408Y363778D01*
X144451Y363761D01*
X144517Y363734D01*
X144599Y363707D01*
X144697Y363679D01*
X144817Y363652D01*
X144948Y363625D01*
X144954D01*
X144970Y363619D01*
X144998Y363614D01*
X145030Y363608D01*
X145074Y363603D01*
X145123Y363592D01*
X145232Y363565D01*
X145347Y363537D01*
X145467Y363510D01*
X145571Y363477D01*
X145620Y363461D01*
X145658Y363445D01*
Y363374D01*
Y363363D01*
Y363341D01*
X145653Y363303D01*
X145647Y363253D01*
X145631Y363204D01*
X145615Y363155D01*
X145587Y363112D01*
X145549Y363073D01*
X145544Y363068D01*
X145527Y363057D01*
X145500Y363046D01*
X145462Y363024D01*
X145407Y363008D01*
X145342Y362997D01*
X145260Y362986D01*
X145161Y362981D01*
X145129D01*
X145096Y362986D01*
X145052Y362991D01*
X145003Y363002D01*
X144948Y363013D01*
X144899Y363035D01*
X144855Y363062D01*
X144850Y363068D01*
X144839Y363079D01*
X144817Y363095D01*
X144796Y363123D01*
X144763Y363161D01*
X144735Y363210D01*
X144708Y363264D01*
X144681Y363330D01*
X144031Y363210D01*
Y363204D01*
X144036Y363193D01*
X144042Y363172D01*
X144053Y363144D01*
X144064Y363112D01*
X144080Y363073D01*
X144118Y362986D01*
X144173Y362893D01*
X144239Y362795D01*
X144315Y362702D01*
X144408Y362620D01*
X144413D01*
X144419Y362609D01*
X144435Y362604D01*
X144457Y362587D01*
X144490Y362577D01*
X144523Y362560D01*
X144566Y362538D01*
X144610Y362522D01*
X144664Y362506D01*
X144725Y362484D01*
X144790Y362467D01*
X144867Y362456D01*
X144943Y362440D01*
X145030Y362435D01*
X145118Y362424D01*
X146526D01*
X145298D01*
X145336Y362429D01*
X145380D01*
X145489Y362440D01*
X145604Y362451D01*
X145724Y362473D01*
X145838Y362506D01*
X145887Y362522D01*
X145937Y362544D01*
X145942D01*
X145948Y362549D01*
X145975Y362566D01*
X146019Y362587D01*
X146068Y362620D01*
X146128Y362664D01*
X146182Y362713D01*
X146231Y362773D01*
X146275Y362833D01*
X146281Y362844D01*
X146291Y362866D01*
X146308Y362915D01*
X146313Y362942D01*
X146324Y362981D01*
X146335Y363019D01*
X146341Y363068D01*
X146352Y363123D01*
X146357Y363182D01*
X146362Y363248D01*
X146368Y363319D01*
X146373Y363396D01*
Y363483D01*
X146362Y364329D01*
Y364335D01*
Y364346D01*
Y364362D01*
Y364389D01*
Y364455D01*
X146368Y364531D01*
Y364618D01*
X146379Y364706D01*
X146384Y364793D01*
X146395Y364864D01*
Y364870D01*
X146401Y364892D01*
X146412Y364930D01*
X146423Y364973D01*
X146444Y365028D01*
X146466Y365088D01*
X146493Y365154D01*
X146526Y365225D01*
X145811D01*
Y365219D01*
X145806Y365214D01*
X145800Y365192D01*
X145789Y365170D01*
X145778Y365143D01*
X145767Y365105D01*
X145756Y365061D01*
X145740Y365012D01*
Y365006D01*
X145735Y365001D01*
X145729Y364979D01*
X145718Y364952D01*
X145713Y364930D01*
X145702Y364935D01*
X145680Y364957D01*
X145642Y364990D01*
X145593Y365028D01*
X145533Y365072D01*
X145467Y365121D01*
X145391Y365159D01*
X145314Y365197D01*
X145303Y365203D01*
X145276Y365208D01*
X145232Y365225D01*
X145178Y365241D01*
X145112Y365257D01*
X145036Y365268D01*
X144948Y365279D01*
X144861Y365285D01*
D02*
G37*
G36*
X143136D02*
X143103D01*
X143065Y365279D01*
X143016Y365274D01*
X142961Y365268D01*
X142901Y365257D01*
X142841Y365241D01*
X142781Y365219D01*
X142775Y365214D01*
X142753Y365208D01*
X142726Y365192D01*
X142693Y365176D01*
X142617Y365121D01*
X142579Y365088D01*
X142546Y365050D01*
X142541Y365044D01*
X142535Y365028D01*
X142524Y365006D01*
X142508Y364973D01*
X142491Y364935D01*
X142475Y364886D01*
X142459Y364831D01*
X142448Y364771D01*
Y364766D01*
X142442Y364744D01*
Y364711D01*
X142437Y364657D01*
X142431Y364586D01*
Y364498D01*
X142426Y364449D01*
Y364389D01*
Y364329D01*
Y364258D01*
Y363062D01*
X142093D01*
Y362484D01*
X142426D01*
Y361938D01*
X143152Y361512D01*
X142093D01*
X143709D01*
X143152D01*
Y362484D01*
X143649D01*
Y363062D01*
X143152D01*
Y364171D01*
Y364176D01*
Y364187D01*
Y364204D01*
Y364225D01*
Y364280D01*
Y364346D01*
X143157Y364411D01*
Y364477D01*
Y364526D01*
X143163Y364548D01*
Y364559D01*
X143168Y364569D01*
X143179Y364591D01*
X143196Y364618D01*
X143228Y364651D01*
X143239Y364657D01*
X143261Y364668D01*
X143299Y364679D01*
X143349Y364684D01*
X143370D01*
X143392Y364679D01*
X143425Y364673D01*
X143469Y364668D01*
X143518Y364657D01*
X143578Y364640D01*
X143643Y364618D01*
X143709Y365181D01*
X143703D01*
X143698Y365186D01*
X143665Y365197D01*
X143611Y365214D01*
X143540Y365230D01*
X143458Y365252D01*
X143359Y365268D01*
X143250Y365279D01*
X143136Y365285D01*
D02*
G37*
G36*
X177861Y365285D02*
D01*
Y364406D01*
X177856Y364433D01*
X177850Y364460D01*
X177845Y364498D01*
X177823Y364591D01*
X177785Y364689D01*
X177758Y364744D01*
X177730Y364799D01*
X177692Y364853D01*
X177648Y364908D01*
X177599Y364963D01*
X177545Y365017D01*
X177539Y365023D01*
X177528Y365028D01*
X177512Y365039D01*
X177485Y365061D01*
X177452Y365077D01*
X177413Y365099D01*
X177364Y365126D01*
X177310Y365148D01*
X177250Y365176D01*
X177179Y365197D01*
X177102Y365225D01*
X177020Y365241D01*
X176928Y365257D01*
X176829Y365274D01*
X176726Y365279D01*
X176616Y365285D01*
X177861D01*
X176616D01*
D01*
X175306D01*
X176562D01*
X176523Y365279D01*
X176474D01*
X176420Y365274D01*
X176360Y365268D01*
X176294Y365257D01*
X176152Y365230D01*
X176005Y365192D01*
X175857Y365137D01*
X175792Y365099D01*
X175726Y365061D01*
X175721Y365055D01*
X175710Y365050D01*
X175694Y365039D01*
X175677Y365017D01*
X175617Y364968D01*
X175552Y364897D01*
X175481Y364810D01*
X175415Y364706D01*
X175355Y364580D01*
X175306Y364444D01*
D01*
X176032Y364335D01*
Y364346D01*
X176043Y364367D01*
X176054Y364406D01*
X176070Y364455D01*
X176098Y364509D01*
X176130Y364559D01*
X176169Y364613D01*
X176218Y364657D01*
X176223Y364662D01*
X176245Y364673D01*
X176278Y364689D01*
X176321Y364706D01*
X176376Y364728D01*
X176447Y364744D01*
X176523Y364755D01*
X176616Y364760D01*
X176660D01*
X176715Y364755D01*
X176775Y364750D01*
X176840Y364739D01*
X176911Y364717D01*
X176977Y364695D01*
X177037Y364662D01*
X177042Y364657D01*
X177053Y364646D01*
X177069Y364630D01*
X177086Y364608D01*
X177102Y364580D01*
X177119Y364548D01*
X177130Y364509D01*
X177135Y364466D01*
Y364460D01*
Y364449D01*
X177130Y364417D01*
X177113Y364373D01*
X177081Y364329D01*
X177069Y364318D01*
X177053Y364313D01*
X177031Y364296D01*
X176999Y364285D01*
X176955Y364269D01*
X176906Y364253D01*
X176840Y364236D01*
X176829D01*
X176802Y364225D01*
X176758Y364214D01*
X176698Y364204D01*
X176627Y364187D01*
X176551Y364165D01*
X176463Y364143D01*
X176371Y364116D01*
X176180Y364062D01*
X176087Y364034D01*
X175999Y364002D01*
X175917Y363974D01*
X175841Y363942D01*
X175776Y363909D01*
X175726Y363881D01*
X175721Y363876D01*
X175710Y363871D01*
X175699Y363860D01*
X175677Y363838D01*
X175623Y363789D01*
X175568Y363718D01*
X175508Y363630D01*
X175453Y363527D01*
X175432Y363467D01*
X175421Y363401D01*
X175410Y363335D01*
X175404Y363264D01*
Y363259D01*
Y363248D01*
Y363232D01*
X175410Y363204D01*
X175415Y363177D01*
X175421Y363139D01*
X175437Y363057D01*
X175470Y362964D01*
X175524Y362866D01*
X175552Y362811D01*
X175590Y362762D01*
X175634Y362713D01*
X175683Y362669D01*
X175688Y362664D01*
X175694Y362658D01*
X175710Y362648D01*
X175737Y362631D01*
X175765Y362615D01*
X175803Y362593D01*
X175847Y362571D01*
X175896Y362544D01*
X175956Y362522D01*
X176021Y362500D01*
X176092Y362478D01*
X176169Y362462D01*
X176256Y362445D01*
X176349Y362435D01*
X176447Y362424D01*
X176649D01*
X176693Y362429D01*
X176747Y362435D01*
X176807Y362440D01*
X176873Y362445D01*
X177009Y362467D01*
X177146Y362500D01*
X177277Y362549D01*
X177337Y362577D01*
X177392Y362609D01*
X177397D01*
X177403Y362620D01*
X177435Y362642D01*
X177485Y362686D01*
X177539Y362746D01*
X177605Y362817D01*
X177665Y362910D01*
X177725Y363019D01*
X177768Y363144D01*
X177086Y363270D01*
Y363264D01*
X177075Y363243D01*
X177064Y363215D01*
X177048Y363183D01*
X177026Y363139D01*
X176993Y363101D01*
X176960Y363062D01*
X176917Y363030D01*
X176911Y363024D01*
X176895Y363013D01*
X176867Y363002D01*
X176829Y362986D01*
X176780Y362970D01*
X176720Y362953D01*
X176649Y362948D01*
X176567Y362942D01*
X176518D01*
X176469Y362948D01*
X176409Y362953D01*
X176338Y362964D01*
X176272Y362975D01*
X176212Y362997D01*
X176158Y363024D01*
X176152D01*
X176147Y363035D01*
X176119Y363062D01*
X176087Y363112D01*
X176081Y363139D01*
X176076Y363172D01*
Y363177D01*
Y363183D01*
X176087Y363215D01*
X176109Y363259D01*
X176125Y363281D01*
X176147Y363303D01*
X176152Y363308D01*
X176174Y363314D01*
X176185Y363324D01*
X176207Y363330D01*
X176234Y363341D01*
X176267Y363357D01*
X176311Y363368D01*
X176354Y363385D01*
X176409Y363401D01*
X176474Y363417D01*
X176545Y363439D01*
X176627Y363461D01*
X176720Y363483D01*
X176824Y363510D01*
X176829D01*
X176851Y363516D01*
X176878Y363521D01*
X176917Y363532D01*
X176966Y363548D01*
X177020Y363559D01*
X177140Y363597D01*
X177277Y363647D01*
X177408Y363701D01*
X177474Y363734D01*
X177534Y363761D01*
X177583Y363800D01*
X177632Y363832D01*
X177643Y363843D01*
X177670Y363865D01*
X177703Y363909D01*
X177747Y363969D01*
X177790Y364045D01*
X177823Y364138D01*
X177850Y364247D01*
X177861Y364367D01*
Y362424D01*
D01*
Y365285D01*
D02*
G37*
G36*
X162295D02*
X162262D01*
X162229Y365279D01*
X162180D01*
X162120Y365268D01*
X162049Y365257D01*
X161973Y365246D01*
X161896Y365225D01*
X161809Y365203D01*
X161722Y365170D01*
X161634Y365132D01*
X161547Y365088D01*
X161459Y365034D01*
X161378Y364973D01*
X161307Y364902D01*
X161235Y364821D01*
X161230Y364815D01*
X161225Y364804D01*
X161214Y364782D01*
X161192Y364755D01*
X161176Y364717D01*
X161154Y364673D01*
X161126Y364624D01*
X161105Y364564D01*
X161077Y364498D01*
X161055Y364427D01*
X161028Y364351D01*
X161012Y364264D01*
X160995Y364176D01*
X160979Y364084D01*
X160974Y363980D01*
X160968Y363876D01*
Y363810D01*
X160974Y363761D01*
X160979Y363707D01*
X160984Y363641D01*
X160995Y363570D01*
X161012Y363488D01*
X161055Y363319D01*
X161083Y363232D01*
X161115Y363139D01*
X161159Y363052D01*
X161208Y362970D01*
X161263Y362888D01*
X161323Y362811D01*
X161328Y362806D01*
X161339Y362795D01*
X161361Y362773D01*
X161388Y362751D01*
X161421Y362724D01*
X161465Y362691D01*
X161514Y362653D01*
X161569Y362615D01*
X161629Y362582D01*
X161700Y362544D01*
X161771Y362511D01*
X161853Y362484D01*
X161934Y362462D01*
X162027Y362440D01*
X162120Y362429D01*
X162218Y362424D01*
X160968D01*
X163523D01*
D01*
X162278D01*
X162322Y362429D01*
X162371Y362435D01*
X162431Y362445D01*
X162497Y362456D01*
X162568Y362473D01*
X162644Y362495D01*
X162721Y362522D01*
X162803Y362555D01*
X162884Y362598D01*
X162961Y362642D01*
X163037Y362697D01*
X163114Y362762D01*
X163179Y362833D01*
X163185Y362839D01*
X163196Y362849D01*
X163212Y362877D01*
X163234Y362910D01*
X163261Y362953D01*
X163288Y363002D01*
X163321Y363068D01*
X163354Y363139D01*
X163387Y363221D01*
X163419Y363314D01*
X163447Y363412D01*
X163474Y363527D01*
X163496Y363647D01*
X163512Y363778D01*
X163523Y363914D01*
Y364067D01*
X161711D01*
Y364072D01*
Y364084D01*
Y364100D01*
X161716Y364122D01*
X161722Y364176D01*
X161732Y364253D01*
X161754Y364329D01*
X161787Y364417D01*
X161825Y364498D01*
X161880Y364569D01*
X161885Y364575D01*
X161913Y364597D01*
X161945Y364624D01*
X161995Y364657D01*
X162055Y364689D01*
X162131Y364717D01*
X162213Y364739D01*
X162300Y364744D01*
X162328D01*
X162360Y364739D01*
X162399Y364733D01*
X162442Y364722D01*
X162491Y364706D01*
X162540Y364684D01*
X162584Y364651D01*
X162590Y364646D01*
X162606Y364635D01*
X162628Y364613D01*
X162650Y364580D01*
X162682Y364537D01*
X162710Y364488D01*
X162737Y364422D01*
X162764Y364351D01*
X163485Y364471D01*
Y364477D01*
X163480Y364488D01*
X163469Y364509D01*
X163458Y364537D01*
X163441Y364569D01*
X163425Y364608D01*
X163376Y364695D01*
X163316Y364793D01*
X163239Y364897D01*
X163146Y364990D01*
X163043Y365077D01*
X163037D01*
X163032Y365088D01*
X163010Y365094D01*
X162988Y365110D01*
X162961Y365126D01*
X162923Y365143D01*
X162884Y365159D01*
X162835Y365181D01*
X162726Y365219D01*
X162601Y365252D01*
X162453Y365274D01*
X162295Y365285D01*
D02*
G37*
G36*
X155595D02*
X154334D01*
X154301Y365279D01*
X154252D01*
X154192Y365268D01*
X154121Y365257D01*
X154045Y365246D01*
X153968Y365225D01*
X153881Y365203D01*
X153794Y365170D01*
X153706Y365132D01*
X153619Y365088D01*
X153532Y365034D01*
X153450Y364973D01*
X153379Y364902D01*
X153308Y364821D01*
X153302Y364815D01*
X153297Y364804D01*
X153286Y364782D01*
X153264Y364755D01*
X153248Y364717D01*
X153226Y364673D01*
X153198Y364624D01*
X153177Y364564D01*
X153149Y364498D01*
X153127Y364427D01*
X153100Y364351D01*
X153084Y364264D01*
X153067Y364176D01*
X153051Y364084D01*
X153045Y363980D01*
X153040Y363876D01*
Y363810D01*
X153045Y363761D01*
X153051Y363707D01*
X153057Y363641D01*
X153067Y363570D01*
X153084Y363488D01*
X153127Y363319D01*
X153155Y363232D01*
X153188Y363139D01*
X153231Y363052D01*
X153280Y362970D01*
X153335Y362888D01*
X153395Y362811D01*
X153400Y362806D01*
X153411Y362795D01*
X153433Y362773D01*
X153461Y362751D01*
X153493Y362724D01*
X153537Y362691D01*
X153586Y362653D01*
X153641Y362615D01*
X153701Y362582D01*
X153772Y362544D01*
X153843Y362511D01*
X153925Y362484D01*
X154007Y362462D01*
X154099Y362440D01*
X154192Y362429D01*
X154290Y362424D01*
X155595D01*
X154350D01*
X154394Y362429D01*
X154443Y362435D01*
X154503Y362445D01*
X154569Y362456D01*
X154640Y362473D01*
X154716Y362495D01*
X154793Y362522D01*
X154875Y362555D01*
X154956Y362598D01*
X155033Y362642D01*
X155109Y362697D01*
X155186Y362762D01*
X155251Y362833D01*
X155257Y362839D01*
X155268Y362849D01*
X155284Y362877D01*
X155306Y362910D01*
X155333Y362953D01*
X155361Y363002D01*
X155393Y363068D01*
X155426Y363139D01*
X155459Y363221D01*
X155492Y363314D01*
X155519Y363412D01*
X155546Y363527D01*
X155568Y363647D01*
X155584Y363778D01*
X155595Y363914D01*
Y364078D01*
Y364067D01*
X153783D01*
Y364072D01*
Y364084D01*
Y364100D01*
X153788Y364122D01*
X153794Y364176D01*
X153805Y364253D01*
X153826Y364329D01*
X153859Y364417D01*
X153897Y364498D01*
X153952Y364569D01*
X153957Y364575D01*
X153985Y364597D01*
X154017Y364624D01*
X154067Y364657D01*
X154127Y364689D01*
X154203Y364717D01*
X154285Y364739D01*
X154372Y364744D01*
X154400D01*
X154432Y364739D01*
X154471Y364733D01*
X154514Y364722D01*
X154563Y364706D01*
X154613Y364684D01*
X154656Y364651D01*
X154662Y364646D01*
X154678Y364635D01*
X154700Y364613D01*
X154722Y364580D01*
X154754Y364537D01*
X154782Y364488D01*
X154809Y364422D01*
X154836Y364351D01*
X155557Y364471D01*
Y364477D01*
X155552Y364488D01*
X155541Y364509D01*
X155530Y364537D01*
X155514Y364569D01*
X155497Y364608D01*
X155448Y364695D01*
X155388Y364793D01*
X155311Y364897D01*
X155219Y364990D01*
X155115Y365077D01*
X155109D01*
X155104Y365088D01*
X155082Y365094D01*
X155060Y365110D01*
X155033Y365126D01*
X154995Y365143D01*
X154956Y365159D01*
X154907Y365181D01*
X154798Y365219D01*
X154673Y365252D01*
X154525Y365274D01*
X154367Y365285D01*
X155595D01*
D02*
G37*
G36*
X138860Y365285D02*
X137599D01*
X137566Y365279D01*
X137517D01*
X137457Y365268D01*
X137386Y365257D01*
X137310Y365246D01*
X137233Y365225D01*
X137146Y365203D01*
X137059Y365170D01*
X136971Y365132D01*
X136884Y365088D01*
X136797Y365034D01*
X136715Y364973D01*
X136644Y364902D01*
X136573Y364821D01*
X136567Y364815D01*
X136562Y364804D01*
X136551Y364782D01*
X136529Y364755D01*
X136513Y364717D01*
X136491Y364673D01*
X136463Y364624D01*
X136442Y364564D01*
X136414Y364498D01*
X136392Y364427D01*
X136365Y364351D01*
X136349Y364264D01*
X136332Y364176D01*
X136316Y364083D01*
X136311Y363980D01*
X136305Y363876D01*
Y363810D01*
X136311Y363761D01*
X136316Y363707D01*
X136322Y363641D01*
X136332Y363570D01*
X136349Y363488D01*
X136392Y363319D01*
X136420Y363232D01*
X136453Y363139D01*
X136496Y363052D01*
X136545Y362970D01*
X136600Y362888D01*
X136660Y362811D01*
X136665Y362806D01*
X136677Y362795D01*
X136698Y362773D01*
X136726Y362751D01*
X136758Y362724D01*
X136802Y362691D01*
X136851Y362653D01*
X136906Y362615D01*
X136966Y362582D01*
X137037Y362544D01*
X137108Y362511D01*
X137190Y362484D01*
X137272Y362462D01*
X137364Y362440D01*
X137457Y362429D01*
X137556Y362424D01*
X138860D01*
X137616D01*
X137659Y362429D01*
X137708Y362435D01*
X137768Y362445D01*
X137834Y362456D01*
X137905Y362473D01*
X137981Y362495D01*
X138058Y362522D01*
X138140Y362555D01*
X138222Y362598D01*
X138298Y362642D01*
X138374Y362697D01*
X138451Y362762D01*
X138516Y362833D01*
X138522Y362839D01*
X138533Y362849D01*
X138549Y362877D01*
X138571Y362910D01*
X138598Y362953D01*
X138626Y363002D01*
X138658Y363068D01*
X138691Y363139D01*
X138724Y363221D01*
X138757Y363314D01*
X138784Y363412D01*
X138811Y363527D01*
X138833Y363647D01*
X138849Y363778D01*
X138860Y363914D01*
Y364067D01*
D01*
X137048D01*
Y364072D01*
Y364083D01*
Y364100D01*
X137053Y364122D01*
X137059Y364176D01*
X137070Y364253D01*
X137091Y364329D01*
X137124Y364417D01*
X137162Y364498D01*
X137217Y364569D01*
X137223Y364575D01*
X137250Y364597D01*
X137283Y364624D01*
X137332Y364657D01*
X137392Y364689D01*
X137468Y364717D01*
X137550Y364739D01*
X137637Y364744D01*
X137665D01*
X137698Y364739D01*
X137736Y364733D01*
X137779Y364722D01*
X137829Y364706D01*
X137878Y364684D01*
X137921Y364651D01*
X137927Y364646D01*
X137943Y364635D01*
X137965Y364613D01*
X137987Y364580D01*
X138020Y364537D01*
X138047Y364488D01*
X138074Y364422D01*
X138101Y364351D01*
X138822Y364471D01*
Y364477D01*
X138817Y364488D01*
X138806Y364509D01*
X138795Y364537D01*
X138779Y364569D01*
X138762Y364608D01*
X138713Y364695D01*
X138653Y364793D01*
X138576Y364897D01*
X138484Y364990D01*
X138380Y365077D01*
X138374D01*
X138369Y365088D01*
X138347Y365094D01*
X138325Y365110D01*
X138298Y365126D01*
X138260Y365143D01*
X138222Y365159D01*
X138172Y365181D01*
X138063Y365219D01*
X137938Y365252D01*
X137790Y365274D01*
X137632Y365285D01*
X138860D01*
D02*
G37*
G36*
X131468D02*
X131435D01*
X131402Y365279D01*
X131353D01*
X131293Y365268D01*
X131222Y365257D01*
X131146Y365246D01*
X131069Y365225D01*
X130982Y365203D01*
X130894Y365170D01*
X130807Y365132D01*
X130720Y365088D01*
X130632Y365034D01*
X130550Y364973D01*
X130479Y364902D01*
X130408Y364821D01*
X130403Y364815D01*
X130397Y364804D01*
X130386Y364782D01*
X130365Y364755D01*
X130348Y364717D01*
X130326Y364673D01*
X130299Y364624D01*
X130277Y364564D01*
X130250Y364498D01*
X130228Y364427D01*
X130201Y364351D01*
X130184Y364264D01*
X130168Y364176D01*
X130152Y364083D01*
X130146Y363980D01*
X130141Y363876D01*
Y363810D01*
X130146Y363761D01*
X130152Y363707D01*
X130157Y363641D01*
X130168Y363570D01*
X130184Y363488D01*
X130228Y363319D01*
X130255Y363232D01*
X130288Y363139D01*
X130332Y363052D01*
X130381Y362970D01*
X130436Y362888D01*
X130496Y362811D01*
X130501Y362806D01*
X130512Y362795D01*
X130534Y362773D01*
X130561Y362751D01*
X130594Y362724D01*
X130638Y362691D01*
X130687Y362653D01*
X130741Y362615D01*
X130801Y362582D01*
X130872Y362544D01*
X130944Y362511D01*
X131025Y362484D01*
X131107Y362462D01*
X131200Y362440D01*
X131293Y362429D01*
X131391Y362424D01*
X130141D01*
X132696D01*
D01*
X131451D01*
X131495Y362429D01*
X131544Y362435D01*
X131604Y362445D01*
X131670Y362456D01*
X131741Y362473D01*
X131817Y362495D01*
X131894Y362522D01*
X131975Y362555D01*
X132057Y362598D01*
X132134Y362642D01*
X132210Y362697D01*
X132287Y362762D01*
X132352Y362833D01*
X132358Y362839D01*
X132369Y362849D01*
X132385Y362877D01*
X132407Y362910D01*
X132434Y362953D01*
X132461Y363002D01*
X132494Y363068D01*
X132527Y363139D01*
X132560Y363221D01*
X132592Y363314D01*
X132620Y363412D01*
X132647Y363527D01*
X132669Y363647D01*
X132685Y363778D01*
X132696Y363914D01*
Y364067D01*
D01*
X130883D01*
Y364072D01*
Y364083D01*
Y364100D01*
X130889Y364122D01*
X130894Y364176D01*
X130905Y364253D01*
X130927Y364329D01*
X130960Y364417D01*
X130998Y364498D01*
X131053Y364569D01*
X131058Y364575D01*
X131085Y364597D01*
X131118Y364624D01*
X131167Y364657D01*
X131227Y364689D01*
X131304Y364717D01*
X131386Y364739D01*
X131473Y364744D01*
X131500D01*
X131533Y364739D01*
X131571Y364733D01*
X131615Y364722D01*
X131664Y364706D01*
X131713Y364684D01*
X131757Y364651D01*
X131763Y364646D01*
X131779Y364635D01*
X131801Y364613D01*
X131823Y364580D01*
X131855Y364537D01*
X131883Y364488D01*
X131910Y364422D01*
X131937Y364351D01*
X132658Y364471D01*
Y364477D01*
X132652Y364488D01*
X132641Y364509D01*
X132631Y364537D01*
X132614Y364569D01*
X132598Y364608D01*
X132549Y364695D01*
X132489Y364793D01*
X132412Y364897D01*
X132319Y364990D01*
X132216Y365077D01*
X132210D01*
X132205Y365088D01*
X132183Y365094D01*
X132161Y365110D01*
X132134Y365126D01*
X132096Y365143D01*
X132057Y365159D01*
X132008Y365181D01*
X131899Y365219D01*
X131773Y365252D01*
X131626Y365274D01*
X131468Y365285D01*
D02*
G37*
G36*
X141874Y364264D02*
Y364264D01*
D01*
Y364264D01*
D02*
G37*
G36*
Y364187D02*
D01*
D01*
D01*
D02*
G37*
G36*
X152734Y365285D02*
X150152D01*
X151402D01*
X151364Y365279D01*
X151315Y365274D01*
X151255Y365263D01*
X151189Y365252D01*
X151118Y365235D01*
X151042Y365219D01*
X150965Y365192D01*
X150883Y365164D01*
X150807Y365126D01*
X150725Y365083D01*
X150649Y365034D01*
X150578Y364973D01*
X150507Y364908D01*
X150501Y364902D01*
X150490Y364892D01*
X150474Y364870D01*
X150452Y364837D01*
X150425Y364799D01*
X150392Y364755D01*
X150365Y364700D01*
X150332Y364635D01*
X150294Y364564D01*
X150266Y364488D01*
X150234Y364400D01*
X150206Y364307D01*
X150185Y364204D01*
X150168Y364100D01*
X150157Y363980D01*
X150152Y363860D01*
Y363794D01*
X150157Y363750D01*
X150163Y363690D01*
X150168Y363625D01*
X150179Y363554D01*
X150195Y363472D01*
X150239Y363303D01*
X150266Y363215D01*
X150299Y363128D01*
X150343Y363041D01*
X150392Y362959D01*
X150447Y362882D01*
X150507Y362806D01*
X150512Y362800D01*
X150523Y362789D01*
X150545Y362773D01*
X150572Y362746D01*
X150610Y362719D01*
X150654Y362686D01*
X150703Y362648D01*
X150763Y362615D01*
X150829Y362577D01*
X150900Y362544D01*
X150982Y362511D01*
X151069Y362484D01*
X151156Y362456D01*
X151260Y362440D01*
X151364Y362429D01*
X151473Y362424D01*
X152734D01*
X151522D01*
X151555Y362429D01*
X151599D01*
X151648Y362435D01*
X151702Y362440D01*
X151762Y362451D01*
X151888Y362478D01*
X152019Y362516D01*
X152150Y362571D01*
X152270Y362642D01*
X152276D01*
X152281Y362653D01*
X152297Y362664D01*
X152319Y362680D01*
X152368Y362729D01*
X152434Y362800D01*
X152505Y362893D01*
X152576Y363002D01*
X152641Y363133D01*
X152696Y363286D01*
X151981Y363417D01*
Y363406D01*
X151975Y363385D01*
X151964Y363346D01*
X151948Y363297D01*
X151921Y363248D01*
X151893Y363193D01*
X151855Y363144D01*
X151812Y363101D01*
X151806Y363095D01*
X151790Y363084D01*
X151762Y363068D01*
X151724Y363046D01*
X151675Y363024D01*
X151620Y363008D01*
X151555Y362997D01*
X151484Y362991D01*
X151473D01*
X151440Y362997D01*
X151391Y363002D01*
X151326Y363013D01*
X151260Y363041D01*
X151189Y363073D01*
X151118Y363117D01*
X151053Y363183D01*
X151047Y363193D01*
X151031Y363221D01*
X151004Y363264D01*
X150976Y363330D01*
X150943Y363417D01*
X150933Y363467D01*
X150922Y363521D01*
X150911Y363587D01*
X150900Y363652D01*
X150894Y363729D01*
Y363805D01*
Y363810D01*
Y363827D01*
Y363854D01*
X150900Y363887D01*
Y363925D01*
X150905Y363969D01*
X150916Y364078D01*
X150933Y364193D01*
X150965Y364307D01*
X151004Y364411D01*
X151031Y364455D01*
X151058Y364498D01*
X151064Y364509D01*
X151091Y364531D01*
X151124Y364559D01*
X151173Y364597D01*
X151238Y364635D01*
X151309Y364662D01*
X151397Y364684D01*
X151495Y364695D01*
X151528D01*
X151566Y364689D01*
X151615Y364679D01*
X151670Y364668D01*
X151724Y364646D01*
X151779Y364618D01*
X151833Y364580D01*
X151839Y364575D01*
X151855Y364559D01*
X151877Y364531D01*
X151910Y364488D01*
X151943Y364433D01*
X151970Y364362D01*
X152003Y364275D01*
X152024Y364176D01*
X152734Y364296D01*
Y364302D01*
X152729Y364318D01*
X152723Y364346D01*
X152713Y364378D01*
X152696Y364417D01*
X152680Y364466D01*
X152636Y364575D01*
X152581Y364695D01*
X152505Y364815D01*
X152412Y364935D01*
X152358Y364990D01*
X152303Y365039D01*
X152297D01*
X152287Y365050D01*
X152270Y365061D01*
X152248Y365077D01*
X152216Y365094D01*
X152177Y365115D01*
X152134Y365137D01*
X152079Y365159D01*
X152024Y365186D01*
X151959Y365208D01*
X151893Y365230D01*
X151817Y365246D01*
X151735Y365263D01*
X151648Y365274D01*
X151560Y365279D01*
X151462Y365285D01*
X152734D01*
D02*
G37*
G36*
X140602Y365285D02*
X140489D01*
X140542D01*
X140504Y365279D01*
X140455Y365274D01*
X140395Y365263D01*
X140329Y365252D01*
X140258Y365235D01*
X140182Y365219D01*
X140105Y365192D01*
X140023Y365164D01*
X139947Y365126D01*
X139865Y365083D01*
X139789Y365034D01*
X139718Y364973D01*
X139647Y364908D01*
X139641Y364902D01*
X139630Y364892D01*
X139614Y364870D01*
X139592Y364837D01*
X139565Y364799D01*
X139532Y364755D01*
X139505Y364700D01*
X139472Y364635D01*
X139434Y364564D01*
X139407Y364488D01*
X139374Y364400D01*
X139346Y364307D01*
X139325Y364204D01*
X139308Y364100D01*
X139297Y363980D01*
X139292Y363860D01*
Y363794D01*
X139297Y363750D01*
X139303Y363690D01*
X139308Y363625D01*
X139319Y363554D01*
X139336Y363472D01*
X139379Y363303D01*
X139407Y363215D01*
X139439Y363128D01*
X139483Y363041D01*
X139532Y362959D01*
X139587Y362882D01*
X139647Y362806D01*
X139652Y362800D01*
X139663Y362789D01*
X139685Y362773D01*
X139712Y362746D01*
X139750Y362718D01*
X139794Y362686D01*
X139843Y362648D01*
X139903Y362615D01*
X139969Y362577D01*
X140040Y362544D01*
X140122Y362511D01*
X140209Y362484D01*
X140296Y362456D01*
X140400Y362440D01*
X140504Y362429D01*
X140613Y362424D01*
X139292D01*
D01*
X141874D01*
X140662D01*
X140695Y362429D01*
X140739D01*
X140788Y362435D01*
X140842Y362440D01*
X140902Y362451D01*
X141028Y362478D01*
X141159Y362516D01*
X141290Y362571D01*
X141410Y362642D01*
X141416D01*
X141421Y362653D01*
X141438Y362664D01*
X141459Y362680D01*
X141509Y362729D01*
X141574Y362800D01*
X141645Y362893D01*
X141716Y363002D01*
X141782Y363133D01*
X141836Y363286D01*
X141121Y363417D01*
Y363406D01*
X141115Y363385D01*
X141104Y363346D01*
X141088Y363297D01*
X141061Y363248D01*
X141033Y363193D01*
X140995Y363144D01*
X140952Y363101D01*
X140946Y363095D01*
X140930Y363084D01*
X140902Y363068D01*
X140864Y363046D01*
X140815Y363024D01*
X140761Y363008D01*
X140695Y362997D01*
X140624Y362991D01*
X140613D01*
X140580Y362997D01*
X140531Y363002D01*
X140466Y363013D01*
X140400Y363041D01*
X140329Y363073D01*
X140258Y363117D01*
X140193Y363182D01*
X140187Y363193D01*
X140171Y363221D01*
X140144Y363264D01*
X140116Y363330D01*
X140084Y363417D01*
X140073Y363467D01*
X140062Y363521D01*
X140051Y363587D01*
X140040Y363652D01*
X140034Y363728D01*
Y363805D01*
Y363810D01*
Y363827D01*
Y363854D01*
X140040Y363887D01*
Y363925D01*
X140045Y363969D01*
X140056Y364078D01*
X140073Y364193D01*
X140105Y364307D01*
X140144Y364411D01*
X140171Y364455D01*
X140198Y364498D01*
X140204Y364509D01*
X140231Y364531D01*
X140264Y364559D01*
X140313Y364597D01*
X140378Y364635D01*
X140449Y364662D01*
X140537Y364684D01*
X140635Y364695D01*
X140668D01*
X140706Y364689D01*
X140755Y364679D01*
X140810Y364668D01*
X140864Y364646D01*
X140919Y364618D01*
X140973Y364580D01*
X140979Y364575D01*
X140995Y364559D01*
X141017Y364531D01*
X141050Y364488D01*
X141083Y364433D01*
X141110Y364362D01*
X141143Y364275D01*
X141165Y364176D01*
X141874Y364296D01*
Y364302D01*
X141869Y364318D01*
X141864Y364346D01*
X141852Y364378D01*
X141836Y364417D01*
X141820Y364466D01*
X141776Y364575D01*
X141721Y364695D01*
X141645Y364815D01*
X141552Y364935D01*
X141498Y364990D01*
X141443Y365039D01*
X141438D01*
X141427Y365050D01*
X141410Y365061D01*
X141388Y365077D01*
X141356Y365094D01*
X141317Y365115D01*
X141274Y365137D01*
X141219Y365159D01*
X141165Y365186D01*
X141099Y365208D01*
X141033Y365230D01*
X140957Y365246D01*
X140875Y365263D01*
X140788Y365274D01*
X140700Y365279D01*
X140602Y365285D01*
D02*
G37*
G36*
X141874Y364040D02*
D01*
D01*
D01*
D02*
G37*
G36*
Y363974D02*
Y363969D01*
D01*
Y363974D01*
D02*
G37*
G36*
X172942Y365285D02*
D01*
Y363909D01*
X172936Y363952D01*
X172931Y364007D01*
X172920Y364067D01*
X172909Y364138D01*
X172893Y364209D01*
X172871Y364291D01*
X172844Y364373D01*
X172811Y364460D01*
X172773Y364548D01*
X172723Y364635D01*
X172669Y364717D01*
X172609Y364799D01*
X172538Y364881D01*
X172532Y364886D01*
X172521Y364897D01*
X172500Y364919D01*
X172467Y364946D01*
X172429Y364973D01*
X172379Y365006D01*
X172325Y365044D01*
X172265Y365083D01*
X172194Y365121D01*
X172117Y365159D01*
X172035Y365192D01*
X171943Y365219D01*
X171850Y365246D01*
X171746Y365268D01*
X171642Y365279D01*
X171528Y365285D01*
X171489D01*
X171462Y365279D01*
X171429D01*
X171391Y365274D01*
X171298Y365263D01*
X171184Y365241D01*
X171063Y365214D01*
X170938Y365170D01*
X170807Y365115D01*
X170801D01*
X170791Y365110D01*
X170774Y365099D01*
X170752Y365083D01*
X170692Y365044D01*
X170616Y364990D01*
X170534Y364919D01*
X170447Y364831D01*
X170365Y364733D01*
X170288Y364618D01*
Y364613D01*
X170283Y364602D01*
X170272Y364586D01*
X170261Y364559D01*
X170250Y364526D01*
X170234Y364488D01*
X170217Y364444D01*
X170201Y364395D01*
X170185Y364340D01*
X170168Y364280D01*
X170141Y364143D01*
X170119Y363985D01*
X170114Y363816D01*
Y363778D01*
X170119Y363756D01*
Y363723D01*
X170124Y363685D01*
X170135Y363592D01*
X170157Y363488D01*
X170190Y363374D01*
X170228Y363248D01*
X170288Y363123D01*
Y363117D01*
X170299Y363106D01*
X170305Y363090D01*
X170321Y363068D01*
X170365Y363008D01*
X170419Y362931D01*
X170490Y362849D01*
X170578Y362762D01*
X170676Y362680D01*
X170791Y362604D01*
X170796D01*
X170807Y362598D01*
X170823Y362587D01*
X170851Y362577D01*
X170878Y362560D01*
X170916Y362549D01*
X170960Y362533D01*
X171003Y362511D01*
X171113Y362478D01*
X171238Y362451D01*
X171375Y362429D01*
X171522Y362424D01*
X170114D01*
X172942D01*
Y365285D01*
D02*
G37*
G36*
X141874Y363881D02*
D01*
D01*
D01*
D02*
G37*
G36*
Y363789D02*
Y363783D01*
D01*
Y363789D01*
D02*
G37*
G36*
Y363477D02*
Y363472D01*
D01*
Y363477D01*
D02*
G37*
G36*
X166608Y365225D02*
X165882D01*
Y363832D01*
Y363827D01*
Y363810D01*
Y363789D01*
Y363761D01*
Y363723D01*
Y363685D01*
X165876Y363592D01*
X165871Y363499D01*
X165860Y363401D01*
X165849Y363319D01*
X165844Y363286D01*
X165833Y363259D01*
Y363253D01*
X165822Y363237D01*
X165811Y363215D01*
X165795Y363183D01*
X165745Y363117D01*
X165718Y363084D01*
X165680Y363057D01*
X165674Y363052D01*
X165664Y363046D01*
X165642Y363035D01*
X165609Y363019D01*
X165571Y363002D01*
X165533Y362991D01*
X165483Y362986D01*
X165429Y362981D01*
X165396D01*
X165363Y362986D01*
X165320Y362991D01*
X165265Y363008D01*
X165210Y363024D01*
X165150Y363052D01*
X165090Y363084D01*
X165085Y363090D01*
X165068Y363101D01*
X165041Y363128D01*
X165008Y363155D01*
X164976Y363199D01*
X164943Y363243D01*
X164910Y363303D01*
X164888Y363363D01*
Y363368D01*
X164877Y363396D01*
X164872Y363439D01*
X164861Y363505D01*
X164856Y363543D01*
X164850Y363592D01*
X164845Y363641D01*
Y363701D01*
X164839Y363761D01*
X164834Y363832D01*
Y363909D01*
Y363991D01*
Y365225D01*
X164108D01*
Y362424D01*
Y362484D01*
X164779D01*
Y362888D01*
X164785Y362882D01*
X164795Y362866D01*
X164817Y362844D01*
X164845Y362817D01*
X164877Y362778D01*
X164921Y362740D01*
X164970Y362697D01*
X165025Y362653D01*
X165085Y362615D01*
X165156Y362571D01*
X165227Y362533D01*
X165309Y362495D01*
X165396Y362467D01*
X165483Y362445D01*
X165582Y362429D01*
X165680Y362424D01*
X164108D01*
X166608D01*
D01*
X165718D01*
X165767Y362429D01*
X165827Y362435D01*
X165893Y362445D01*
X165964Y362462D01*
X166040Y362484D01*
X166117Y362511D01*
X166128Y362516D01*
X166149Y362527D01*
X166188Y362544D01*
X166231Y362571D01*
X166281Y362604D01*
X166330Y362642D01*
X166379Y362686D01*
X166422Y362735D01*
X166428Y362740D01*
X166439Y362757D01*
X166455Y362784D01*
X166477Y362822D01*
X166504Y362866D01*
X166526Y362920D01*
X166548Y362975D01*
X166565Y363041D01*
Y363046D01*
X166570Y363073D01*
X166581Y363112D01*
X166586Y363166D01*
X166597Y363232D01*
X166603Y363319D01*
X166608Y363412D01*
Y365225D01*
D02*
G37*
G36*
X149578Y365225D02*
X148852D01*
Y363832D01*
Y363827D01*
Y363810D01*
Y363789D01*
Y363761D01*
Y363723D01*
Y363685D01*
X148847Y363592D01*
X148841Y363499D01*
X148830Y363401D01*
X148819Y363319D01*
X148814Y363286D01*
X148803Y363259D01*
Y363253D01*
X148792Y363237D01*
X148781Y363215D01*
X148765Y363182D01*
X148716Y363117D01*
X148688Y363084D01*
X148650Y363057D01*
X148645Y363052D01*
X148634Y363046D01*
X148612Y363035D01*
X148579Y363019D01*
X148541Y363002D01*
X148503Y362991D01*
X148454Y362986D01*
X148399Y362981D01*
X148366D01*
X148334Y362986D01*
X148290Y362991D01*
X148235Y363008D01*
X148181Y363024D01*
X148121Y363052D01*
X148061Y363084D01*
X148055Y363090D01*
X148039Y363101D01*
X148011Y363128D01*
X147979Y363155D01*
X147946Y363199D01*
X147913Y363243D01*
X147880Y363303D01*
X147859Y363363D01*
Y363368D01*
X147848Y363396D01*
X147842Y363439D01*
X147831Y363505D01*
X147826Y363543D01*
X147820Y363592D01*
X147815Y363641D01*
Y363701D01*
X147809Y363761D01*
X147804Y363832D01*
Y363909D01*
Y363991D01*
Y365225D01*
X147078D01*
Y362424D01*
Y362484D01*
X147749D01*
Y362888D01*
X147755Y362882D01*
X147766Y362866D01*
X147788Y362844D01*
X147815Y362817D01*
X147848Y362778D01*
X147891Y362740D01*
X147940Y362697D01*
X147995Y362653D01*
X148055Y362615D01*
X148126Y362571D01*
X148197Y362533D01*
X148279Y362495D01*
X148366Y362467D01*
X148454Y362445D01*
X148552Y362429D01*
X148650Y362424D01*
X147078D01*
X149578D01*
D01*
X148688D01*
X148738Y362429D01*
X148798Y362435D01*
X148863Y362445D01*
X148934Y362462D01*
X149011Y362484D01*
X149087Y362511D01*
X149098Y362516D01*
X149120Y362527D01*
X149158Y362544D01*
X149202Y362571D01*
X149251Y362604D01*
X149300Y362642D01*
X149349Y362686D01*
X149393Y362735D01*
X149398Y362740D01*
X149409Y362757D01*
X149426Y362784D01*
X149447Y362822D01*
X149475Y362866D01*
X149496Y362920D01*
X149518Y362975D01*
X149535Y363041D01*
Y363046D01*
X149540Y363073D01*
X149551Y363112D01*
X149557Y363166D01*
X149567Y363232D01*
X149573Y363319D01*
X149578Y363412D01*
Y365225D01*
D02*
G37*
G36*
X141874Y362888D02*
Y362882D01*
D01*
Y362888D01*
D02*
G37*
G36*
X168399Y365285D02*
X168344D01*
X168306Y365279D01*
X168257D01*
X168202Y365274D01*
X168142Y365268D01*
X168077Y365257D01*
X167935Y365230D01*
X167788Y365192D01*
X167640Y365137D01*
X167575Y365099D01*
X167509Y365061D01*
X167504Y365055D01*
X167493Y365050D01*
X167476Y365039D01*
X167460Y365017D01*
X167400Y364968D01*
X167334Y364897D01*
X167263Y364810D01*
X167198Y364706D01*
X167138Y364580D01*
X167089Y364444D01*
X167815Y364335D01*
Y364346D01*
X167826Y364367D01*
X167837Y364406D01*
X167853Y364455D01*
X167880Y364509D01*
X167913Y364559D01*
X167951Y364613D01*
X168000Y364657D01*
X168006Y364662D01*
X168028Y364673D01*
X168061Y364689D01*
X168104Y364706D01*
X168159Y364728D01*
X168230Y364744D01*
X168306Y364755D01*
X168399Y364760D01*
X168443D01*
X168497Y364755D01*
X168557Y364750D01*
X168623Y364739D01*
X168694Y364717D01*
X168759Y364695D01*
X168819Y364662D01*
X168825Y364657D01*
X168836Y364646D01*
X168852Y364630D01*
X168869Y364608D01*
X168885Y364580D01*
X168901Y364548D01*
X168912Y364509D01*
X168918Y364466D01*
Y364460D01*
Y364449D01*
X168912Y364417D01*
X168896Y364373D01*
X168863Y364329D01*
X168852Y364318D01*
X168836Y364313D01*
X168814Y364296D01*
X168781Y364285D01*
X168738Y364269D01*
X168688Y364253D01*
X168623Y364236D01*
X168612D01*
X168585Y364225D01*
X168541Y364214D01*
X168481Y364204D01*
X168410Y364187D01*
X168333Y364165D01*
X168246Y364143D01*
X168153Y364116D01*
X167962Y364062D01*
X167869Y364034D01*
X167782Y364002D01*
X167700Y363974D01*
X167624Y363942D01*
X167558Y363909D01*
X167509Y363881D01*
X167504Y363876D01*
X167493Y363871D01*
X167482Y363860D01*
X167460Y363838D01*
X167405Y363789D01*
X167351Y363718D01*
X167291Y363630D01*
X167236Y363527D01*
X167214Y363467D01*
X167203Y363401D01*
X167192Y363335D01*
X167187Y363264D01*
Y363259D01*
Y363248D01*
Y363232D01*
X167192Y363204D01*
X167198Y363177D01*
X167203Y363139D01*
X167220Y363057D01*
X167253Y362964D01*
X167307Y362866D01*
X167334Y362811D01*
X167373Y362762D01*
X167416Y362713D01*
X167465Y362669D01*
X167471Y362664D01*
X167476Y362658D01*
X167493Y362648D01*
X167520Y362631D01*
X167547Y362615D01*
X167586Y362593D01*
X167629Y362571D01*
X167678Y362544D01*
X167738Y362522D01*
X167804Y362500D01*
X167875Y362478D01*
X167951Y362462D01*
X168039Y362445D01*
X168131Y362435D01*
X168230Y362424D01*
X167089D01*
D01*
X168432D01*
X168475Y362429D01*
X168530Y362435D01*
X168590Y362440D01*
X168656Y362445D01*
X168792Y362467D01*
X168929Y362500D01*
X169060Y362549D01*
X169120Y362577D01*
X169174Y362609D01*
X169180D01*
X169185Y362620D01*
X169218Y362642D01*
X169267Y362686D01*
X169322Y362746D01*
X169387Y362817D01*
X169447Y362910D01*
X169507Y363019D01*
X169551Y363144D01*
X168869Y363270D01*
Y363264D01*
X168858Y363243D01*
X168847Y363215D01*
X168830Y363183D01*
X168809Y363139D01*
X168776Y363101D01*
X168743Y363062D01*
X168699Y363030D01*
X168694Y363024D01*
X168677Y363013D01*
X168650Y363002D01*
X168612Y362986D01*
X168563Y362970D01*
X168503Y362953D01*
X168432Y362948D01*
X168350Y362942D01*
X168301D01*
X168252Y362948D01*
X168192Y362953D01*
X168121Y362964D01*
X168055Y362975D01*
X167995Y362997D01*
X167940Y363024D01*
X167935D01*
X167929Y363035D01*
X167902Y363062D01*
X167869Y363112D01*
X167864Y363139D01*
X167859Y363172D01*
Y363177D01*
Y363183D01*
X167869Y363215D01*
X167891Y363259D01*
X167908Y363281D01*
X167929Y363303D01*
X167935Y363308D01*
X167957Y363314D01*
X167968Y363324D01*
X167990Y363330D01*
X168017Y363341D01*
X168050Y363357D01*
X168093Y363368D01*
X168137Y363385D01*
X168192Y363401D01*
X168257Y363417D01*
X168328Y363439D01*
X168410Y363461D01*
X168503Y363483D01*
X168606Y363510D01*
X168612D01*
X168634Y363516D01*
X168661Y363521D01*
X168699Y363532D01*
X168748Y363548D01*
X168803Y363559D01*
X168923Y363597D01*
X169060Y363647D01*
X169191Y363701D01*
X169256Y363734D01*
X169316Y363761D01*
X169366Y363800D01*
X169415Y363832D01*
X169425Y363843D01*
X169453Y363865D01*
X169486Y363909D01*
X169529Y363969D01*
X169573Y364045D01*
X169606Y364138D01*
X169633Y364247D01*
X169644Y364367D01*
Y362686D01*
Y364406D01*
X169639Y364433D01*
X169633Y364460D01*
X169628Y364498D01*
X169606Y364591D01*
X169568Y364689D01*
X169540Y364744D01*
X169513Y364799D01*
X169475Y364853D01*
X169431Y364908D01*
X169382Y364963D01*
X169327Y365017D01*
X169322Y365023D01*
X169311Y365028D01*
X169295Y365039D01*
X169267Y365061D01*
X169234Y365077D01*
X169196Y365099D01*
X169147Y365126D01*
X169093Y365148D01*
X169032Y365176D01*
X168961Y365197D01*
X168885Y365225D01*
X168803Y365241D01*
X168710Y365257D01*
X168612Y365274D01*
X168508Y365279D01*
X168399Y365285D01*
D02*
G37*
G36*
X176447Y362424D02*
D01*
X175306D01*
X176447D01*
D02*
G37*
G36*
X175246Y365225D02*
D01*
Y362424D01*
X174809D01*
X174858Y362429D01*
X174918Y362440D01*
X174995Y362456D01*
X175077Y362484D01*
X175159Y362516D01*
X175246Y362566D01*
X175017Y363193D01*
X175011Y363188D01*
X174984Y363177D01*
X174951Y363155D01*
X174907Y363133D01*
X174853Y363112D01*
X174798Y363090D01*
X174738Y363079D01*
X174678Y363073D01*
X174656D01*
X174624Y363079D01*
X174591Y363084D01*
X174553Y363095D01*
X174509Y363112D01*
X174465Y363133D01*
X174421Y363161D01*
X174416Y363166D01*
X174405Y363177D01*
X174383Y363199D01*
X174361Y363232D01*
X174334Y363270D01*
X174307Y363324D01*
X174279Y363390D01*
X174258Y363467D01*
Y363477D01*
X174252Y363494D01*
X174247Y363510D01*
Y363538D01*
X174241Y363570D01*
X174236Y363614D01*
X174230Y363663D01*
X174225Y363718D01*
X174219Y363789D01*
X174214Y363860D01*
Y363947D01*
X174208Y364040D01*
X174203Y364143D01*
Y364258D01*
Y364384D01*
Y365225D01*
X173477D01*
Y362484D01*
X174148D01*
Y362871D01*
X174154Y362866D01*
X174176Y362833D01*
X174208Y362784D01*
X174252Y362724D01*
X174296Y362664D01*
X174351Y362604D01*
X174400Y362549D01*
X174454Y362511D01*
X174460Y362506D01*
X174476Y362495D01*
X174509Y362484D01*
X174547Y362467D01*
X174591Y362451D01*
X174645Y362435D01*
X174700Y362429D01*
X174765Y362424D01*
X173477D01*
X175246D01*
Y365225D01*
D02*
G37*
G36*
X135770Y365225D02*
X135044D01*
Y361446D01*
X135770D01*
Y365225D01*
D02*
G37*
G36*
X129944D02*
X126548D01*
Y361446D01*
X128252D01*
X128301Y361452D01*
X128361D01*
X128421Y361457D01*
X128492D01*
X128634Y361474D01*
X128781Y361490D01*
X128918Y361517D01*
X128978Y361534D01*
X129033Y361550D01*
X129038D01*
X129043Y361556D01*
X129076Y361572D01*
X129125Y361599D01*
X129191Y361632D01*
X129262Y361686D01*
X129333Y361747D01*
X129404Y361823D01*
X129469Y361916D01*
Y361921D01*
X129475Y361927D01*
X129486Y361943D01*
X129497Y361960D01*
X129524Y362014D01*
X129557Y362085D01*
X129584Y362172D01*
X129611Y362271D01*
X129633Y362385D01*
X129639Y362506D01*
Y362511D01*
Y362522D01*
Y362549D01*
X129633Y362577D01*
Y362615D01*
X129628Y362653D01*
X129606Y362751D01*
X129578Y362866D01*
X129535Y362981D01*
X129469Y363101D01*
X129431Y363155D01*
X129387Y363210D01*
X129382Y363215D01*
X129376Y363221D01*
X129360Y363237D01*
X129338Y363253D01*
X129316Y363275D01*
X129284Y363303D01*
X129245Y363330D01*
X129202Y363357D01*
X129153Y363390D01*
X129093Y363417D01*
X129033Y363445D01*
X128967Y363472D01*
X128891Y363499D01*
X128814Y363521D01*
X128732Y363543D01*
X128639Y363559D01*
X128645D01*
X128650Y363565D01*
X128683Y363587D01*
X128727Y363614D01*
X128781Y363652D01*
X128847Y363701D01*
X128912Y363750D01*
X128983Y363810D01*
X129043Y363876D01*
X129049Y363881D01*
X129076Y363909D01*
X129109Y363952D01*
X129158Y364018D01*
X129224Y364100D01*
X129256Y364154D01*
X129295Y364209D01*
X129338Y364269D01*
X129382Y364335D01*
X129431Y364411D01*
X129480Y364488D01*
X129944Y365225D01*
D02*
G37*
G36*
X160537Y365296D02*
X157463D01*
X158948D01*
X158899Y365290D01*
X158839Y365285D01*
X158773Y365279D01*
X158697Y365268D01*
X158615Y365252D01*
X158435Y365214D01*
X158342Y365186D01*
X158254Y365159D01*
X158162Y365121D01*
X158074Y365077D01*
X157992Y365028D01*
X157916Y364968D01*
X157910Y364963D01*
X157899Y364952D01*
X157878Y364935D01*
X157856Y364908D01*
X157823Y364870D01*
X157790Y364826D01*
X157752Y364777D01*
X157714Y364722D01*
X157676Y364657D01*
X157637Y364586D01*
X157599Y364504D01*
X157561Y364417D01*
X157534Y364324D01*
X157501Y364220D01*
X157479Y364111D01*
X157463Y363996D01*
X158205Y363925D01*
Y363931D01*
X158211Y363942D01*
Y363963D01*
X158216Y363985D01*
X158238Y364051D01*
X158265Y364133D01*
X158298Y364225D01*
X158347Y364318D01*
X158402Y364400D01*
X158473Y364477D01*
X158484Y364482D01*
X158511Y364504D01*
X158555Y364531D01*
X158620Y364564D01*
X158702Y364597D01*
X158795Y364624D01*
X158904Y364646D01*
X159030Y364651D01*
X159090D01*
X159155Y364640D01*
X159237Y364630D01*
X159325Y364613D01*
X159417Y364586D01*
X159505Y364548D01*
X159581Y364498D01*
X159592Y364493D01*
X159614Y364471D01*
X159641Y364438D01*
X159679Y364395D01*
X159712Y364340D01*
X159745Y364275D01*
X159767Y364209D01*
X159772Y364133D01*
Y364127D01*
Y364111D01*
X159767Y364084D01*
X159761Y364051D01*
X159750Y364018D01*
X159739Y363980D01*
X159718Y363942D01*
X159690Y363903D01*
X159685Y363898D01*
X159674Y363887D01*
X159658Y363871D01*
X159630Y363849D01*
X159592Y363821D01*
X159543Y363794D01*
X159488Y363767D01*
X159417Y363739D01*
X159412D01*
X159390Y363729D01*
X159352Y363718D01*
X159325Y363707D01*
X159292Y363701D01*
X159254Y363690D01*
X159210Y363674D01*
X159161Y363663D01*
X159106Y363647D01*
X159041Y363630D01*
X158970Y363614D01*
X158893Y363592D01*
X158806Y363570D01*
X158800D01*
X158779Y363565D01*
X158746Y363554D01*
X158708Y363543D01*
X158658Y363527D01*
X158598Y363510D01*
X158538Y363488D01*
X158467Y363467D01*
X158325Y363412D01*
X158189Y363346D01*
X158118Y363314D01*
X158058Y363275D01*
X157998Y363237D01*
X157949Y363199D01*
X157943Y363193D01*
X157932Y363183D01*
X157916Y363166D01*
X157894Y363144D01*
X157867Y363112D01*
X157839Y363073D01*
X157807Y363035D01*
X157779Y362986D01*
X157714Y362871D01*
X157659Y362740D01*
X157637Y362669D01*
X157621Y362598D01*
X157610Y362516D01*
X157605Y362435D01*
Y362429D01*
Y362424D01*
Y362407D01*
Y362385D01*
X157616Y362331D01*
X157626Y362260D01*
X157643Y362178D01*
X157670Y362085D01*
X157708Y361987D01*
X157763Y361894D01*
Y361889D01*
X157768Y361883D01*
X157796Y361850D01*
X157828Y361807D01*
X157883Y361752D01*
X157949Y361692D01*
X158030Y361627D01*
X158123Y361566D01*
X158232Y361512D01*
X158238D01*
X158249Y361506D01*
X158265Y361501D01*
X158287Y361490D01*
X158320Y361479D01*
X158353Y361468D01*
X158396Y361457D01*
X158446Y361441D01*
X158555Y361419D01*
X158680Y361397D01*
X158822Y361381D01*
X158981Y361375D01*
X157463D01*
X159046D01*
X159095Y361381D01*
X159155Y361386D01*
X159226Y361392D01*
X159297Y361403D01*
X159379Y361414D01*
X159554Y361452D01*
X159641Y361479D01*
X159729Y361506D01*
X159816Y361545D01*
X159898Y361588D01*
X159974Y361637D01*
X160045Y361692D01*
X160051Y361697D01*
X160062Y361708D01*
X160078Y361725D01*
X160100Y361747D01*
X160127Y361779D01*
X160160Y361818D01*
X160193Y361861D01*
X160231Y361910D01*
X160264Y361970D01*
X160296Y362031D01*
X160329Y362102D01*
X160356Y362178D01*
X160384Y362254D01*
X160406Y362342D01*
X160422Y362429D01*
X160427Y362527D01*
X159663Y362555D01*
Y362549D01*
Y362544D01*
X159652Y362506D01*
X159641Y362456D01*
X159619Y362396D01*
X159592Y362325D01*
X159554Y362260D01*
X159505Y362194D01*
X159450Y362140D01*
X159445Y362134D01*
X159423Y362118D01*
X159385Y362096D01*
X159330Y362074D01*
X159265Y362052D01*
X159183Y362031D01*
X159084Y362014D01*
X158970Y362009D01*
X158915D01*
X158855Y362014D01*
X158784Y362025D01*
X158702Y362041D01*
X158615Y362069D01*
X158533Y362102D01*
X158456Y362151D01*
X158451Y362156D01*
X158440Y362167D01*
X158418Y362183D01*
X158396Y362211D01*
X158375Y362243D01*
X158353Y362287D01*
X158342Y362331D01*
X158336Y362385D01*
Y362391D01*
Y362407D01*
X158342Y362435D01*
X158353Y362462D01*
X158364Y362500D01*
X158380Y362538D01*
X158407Y362577D01*
X158446Y362615D01*
X158451Y362620D01*
X158478Y362637D01*
X158495Y362648D01*
X158522Y362658D01*
X158549Y362675D01*
X158587Y362691D01*
X158631Y362707D01*
X158680Y362729D01*
X158740Y362751D01*
X158800Y362773D01*
X158877Y362795D01*
X158959Y362817D01*
X159046Y362839D01*
X159144Y362866D01*
X159150D01*
X159172Y362871D01*
X159199Y362877D01*
X159237Y362888D01*
X159281Y362899D01*
X159335Y362915D01*
X159396Y362931D01*
X159456Y362948D01*
X159587Y362991D01*
X159723Y363035D01*
X159854Y363084D01*
X159909Y363112D01*
X159963Y363139D01*
X159969D01*
X159974Y363144D01*
X160007Y363166D01*
X160056Y363199D01*
X160116Y363243D01*
X160182Y363297D01*
X160253Y363363D01*
X160324Y363439D01*
X160384Y363527D01*
X160389Y363538D01*
X160406Y363570D01*
X160433Y363619D01*
X160460Y363690D01*
X160487Y363778D01*
X160515Y363881D01*
X160531Y363996D01*
X160537Y364127D01*
Y364182D01*
X160531Y364209D01*
X160526Y364247D01*
X160515Y364324D01*
X160493Y364422D01*
X160460Y364526D01*
X160411Y364630D01*
X160351Y364739D01*
Y364744D01*
X160340Y364750D01*
X160318Y364782D01*
X160275Y364837D01*
X160220Y364897D01*
X160149Y364968D01*
X160056Y365034D01*
X159958Y365099D01*
X159838Y365159D01*
X159832D01*
X159821Y365164D01*
X159805Y365170D01*
X159778Y365181D01*
X159745Y365192D01*
X159707Y365203D01*
X159663Y365214D01*
X159614Y365225D01*
X159554Y365241D01*
X159494Y365252D01*
X159352Y365274D01*
X159194Y365290D01*
X159019Y365296D01*
X160537D01*
D02*
G37*
G36*
X134099Y365225D02*
X133373D01*
Y363052D01*
X132969D01*
Y362484D01*
X133373D01*
Y362282D01*
Y362276D01*
Y362265D01*
Y362249D01*
Y362222D01*
X133379Y362161D01*
X133384Y362085D01*
X133389Y362003D01*
X133406Y361916D01*
X133422Y361834D01*
X133444Y361763D01*
X133450Y361757D01*
X133460Y361736D01*
X133477Y361703D01*
X133504Y361665D01*
X133542Y361621D01*
X133586Y361572D01*
X133646Y361528D01*
X133712Y361485D01*
X133723Y361479D01*
X133750Y361468D01*
X133794Y361452D01*
X133848Y361430D01*
X133925Y361408D01*
X134007Y361392D01*
X134105Y361381D01*
X134214Y361375D01*
X132969D01*
D01*
X134826D01*
X134269D01*
X134329Y361381D01*
X134405Y361386D01*
X134498Y361397D01*
X134602Y361414D01*
X134711Y361435D01*
X134826Y361468D01*
X134727Y361976D01*
X134722D01*
X134700Y361970D01*
X134662Y361960D01*
X134618Y361954D01*
X134569Y361943D01*
X134514Y361938D01*
X134394Y361932D01*
X134367D01*
X134340Y361938D01*
X134307Y361943D01*
X134230Y361965D01*
X134198Y361981D01*
X134165Y362009D01*
Y362014D01*
X134154Y362025D01*
X134143Y362041D01*
X134132Y362074D01*
X134121Y362112D01*
X134110Y362161D01*
X134105Y362222D01*
X134099Y362293D01*
Y362484D01*
X134640D01*
Y363052D01*
X134099D01*
Y365225D01*
D02*
G37*
%LPD*%
G36*
X145150Y364771D02*
X145200Y364760D01*
X145260Y364744D01*
X145320Y364722D01*
X145391Y364695D01*
X145456Y364651D01*
X145462Y364646D01*
X145478Y364635D01*
X145500Y364613D01*
X145527Y364586D01*
X145554Y364548D01*
X145582Y364509D01*
X145609Y364460D01*
X145625Y364411D01*
Y364406D01*
X145631Y364395D01*
X145636Y364367D01*
X145642Y364335D01*
X145647Y364285D01*
X145653Y364225D01*
X145658Y364149D01*
Y364062D01*
Y363914D01*
X145653D01*
X145631Y363925D01*
X145598Y363931D01*
X145549Y363947D01*
X145489Y363963D01*
X145407Y363985D01*
X145320Y364007D01*
X145210Y364029D01*
X145200D01*
X145183Y364034D01*
X145161Y364040D01*
X145112Y364051D01*
X145047Y364067D01*
X144981Y364083D01*
X144916Y364105D01*
X144861Y364133D01*
X144817Y364154D01*
X144812Y364160D01*
X144796Y364171D01*
X144774Y364193D01*
X144752Y364220D01*
X144725Y364258D01*
X144703Y364302D01*
X144686Y364351D01*
X144681Y364406D01*
Y364411D01*
Y364433D01*
X144686Y364460D01*
X144697Y364493D01*
X144708Y364537D01*
X144725Y364580D01*
X144752Y364624D01*
X144790Y364668D01*
X144796Y364673D01*
X144812Y364684D01*
X144834Y364700D01*
X144872Y364722D01*
X144910Y364744D01*
X144959Y364760D01*
X145019Y364771D01*
X145079Y364777D01*
X145112D01*
X145150Y364771D01*
D02*
G37*
G36*
X162803Y363619D02*
Y363608D01*
Y363597D01*
X162797Y363576D01*
X162792Y363516D01*
X162781Y363450D01*
X162759Y363374D01*
X162732Y363292D01*
X162688Y363215D01*
X162639Y363150D01*
X162633Y363144D01*
X162611Y363123D01*
X162579Y363095D01*
X162535Y363062D01*
X162480Y363035D01*
X162415Y363008D01*
X162344Y362986D01*
X162262Y362981D01*
X162224D01*
X162180Y362991D01*
X162126Y363002D01*
X162065Y363024D01*
X162000Y363052D01*
X161934Y363095D01*
X161874Y363155D01*
X161869Y363161D01*
X161853Y363188D01*
X161825Y363226D01*
X161798Y363281D01*
X161765Y363346D01*
X161743Y363428D01*
X161727Y363521D01*
X161722Y363625D01*
X162803D01*
Y363619D01*
D02*
G37*
G36*
X154875D02*
Y363608D01*
Y363597D01*
X154869Y363576D01*
X154864Y363516D01*
X154853Y363450D01*
X154831Y363374D01*
X154804Y363292D01*
X154760Y363215D01*
X154711Y363150D01*
X154705Y363144D01*
X154683Y363123D01*
X154651Y363095D01*
X154607Y363062D01*
X154552Y363035D01*
X154487Y363008D01*
X154416Y362986D01*
X154334Y362981D01*
X154296D01*
X154252Y362991D01*
X154198Y363002D01*
X154138Y363024D01*
X154072Y363052D01*
X154007Y363095D01*
X153946Y363155D01*
X153941Y363161D01*
X153925Y363188D01*
X153897Y363226D01*
X153870Y363281D01*
X153837Y363346D01*
X153815Y363428D01*
X153799Y363521D01*
X153794Y363625D01*
X154875D01*
Y363619D01*
D02*
G37*
G36*
X138140Y363619D02*
Y363608D01*
Y363597D01*
X138134Y363576D01*
X138129Y363516D01*
X138118Y363450D01*
X138096Y363374D01*
X138069Y363292D01*
X138025Y363215D01*
X137976Y363150D01*
X137970Y363144D01*
X137949Y363123D01*
X137916Y363095D01*
X137872Y363062D01*
X137818Y363035D01*
X137752Y363008D01*
X137681Y362986D01*
X137599Y362981D01*
X137561D01*
X137517Y362991D01*
X137463Y363002D01*
X137403Y363024D01*
X137337Y363052D01*
X137272Y363095D01*
X137212Y363155D01*
X137206Y363161D01*
X137190Y363188D01*
X137162Y363226D01*
X137135Y363281D01*
X137102Y363346D01*
X137081Y363428D01*
X137064Y363521D01*
X137059Y363625D01*
X138140D01*
Y363619D01*
D02*
G37*
G36*
X131975D02*
Y363608D01*
Y363597D01*
X131970Y363576D01*
X131965Y363516D01*
X131954Y363450D01*
X131932Y363374D01*
X131904Y363292D01*
X131861Y363215D01*
X131812Y363150D01*
X131806Y363144D01*
X131784Y363123D01*
X131752Y363095D01*
X131708Y363062D01*
X131653Y363035D01*
X131588Y363008D01*
X131517Y362986D01*
X131435Y362981D01*
X131397D01*
X131353Y362991D01*
X131298Y363002D01*
X131238Y363024D01*
X131173Y363052D01*
X131107Y363095D01*
X131047Y363155D01*
X131042Y363161D01*
X131025Y363188D01*
X130998Y363226D01*
X130971Y363281D01*
X130938Y363346D01*
X130916Y363428D01*
X130900Y363521D01*
X130894Y363625D01*
X131975D01*
Y363619D01*
D02*
G37*
G36*
X171577Y364689D02*
X171626Y364684D01*
X171691Y364668D01*
X171768Y364640D01*
X171850Y364608D01*
X171926Y364553D01*
X172003Y364482D01*
X172014Y364471D01*
X172035Y364444D01*
X172063Y364389D01*
X172101Y364324D01*
X172139Y364231D01*
X172167Y364127D01*
X172188Y363996D01*
X172199Y363854D01*
Y363849D01*
Y363838D01*
Y363816D01*
X172194Y363789D01*
Y363756D01*
X172188Y363712D01*
X172177Y363625D01*
X172150Y363527D01*
X172117Y363423D01*
X172068Y363319D01*
X172003Y363232D01*
X171992Y363221D01*
X171970Y363199D01*
X171926Y363161D01*
X171872Y363123D01*
X171801Y363084D01*
X171724Y363046D01*
X171631Y363024D01*
X171528Y363013D01*
X171500D01*
X171478Y363019D01*
X171429Y363024D01*
X171364Y363041D01*
X171287Y363068D01*
X171205Y363106D01*
X171124Y363161D01*
X171047Y363232D01*
X171042Y363243D01*
X171020Y363270D01*
X170987Y363324D01*
X170954Y363390D01*
X170916Y363477D01*
X170889Y363587D01*
X170867Y363712D01*
X170856Y363854D01*
Y363860D01*
Y363871D01*
Y363892D01*
X170861Y363920D01*
Y363958D01*
X170867Y363996D01*
X170878Y364084D01*
X170905Y364187D01*
X170938Y364291D01*
X170982Y364395D01*
X171047Y364482D01*
X171058Y364493D01*
X171080Y364515D01*
X171124Y364548D01*
X171184Y364586D01*
X171249Y364630D01*
X171331Y364662D01*
X171424Y364684D01*
X171528Y364695D01*
X171555D01*
X171577Y364689D01*
D02*
G37*
G36*
X172942Y362424D02*
X171582D01*
X171626Y362429D01*
X171680Y362435D01*
X171741Y362445D01*
X171812Y362456D01*
X171882Y362473D01*
X171964Y362495D01*
X172046Y362522D01*
X172128Y362555D01*
X172216Y362593D01*
X172303Y362642D01*
X172385Y362697D01*
X172467Y362757D01*
X172543Y362828D01*
X172549Y362833D01*
X172560Y362844D01*
X172581Y362871D01*
X172603Y362899D01*
X172636Y362942D01*
X172669Y362986D01*
X172707Y363046D01*
X172745Y363106D01*
X172778Y363177D01*
X172816Y363253D01*
X172849Y363341D01*
X172882Y363428D01*
X172904Y363527D01*
X172925Y363625D01*
X172936Y363734D01*
X172942Y363849D01*
Y362424D01*
D02*
G37*
G36*
X128481Y364406D02*
X128475Y364400D01*
X128470Y364384D01*
X128454Y364362D01*
X128432Y364335D01*
X128410Y364302D01*
X128383Y364258D01*
X128323Y364171D01*
X128252Y364072D01*
X128186Y363985D01*
X128126Y363903D01*
X128099Y363876D01*
X128077Y363849D01*
X128071Y363843D01*
X128061Y363832D01*
X128039Y363810D01*
X128011Y363783D01*
X127973Y363761D01*
X127935Y363734D01*
X127891Y363712D01*
X127848Y363690D01*
X127842D01*
X127826Y363685D01*
X127798Y363674D01*
X127755Y363668D01*
X127700Y363658D01*
X127635Y363652D01*
X127558Y363647D01*
X127313D01*
Y365225D01*
X129027D01*
X128481Y364406D01*
D02*
G37*
G36*
X128164Y363041D02*
X128279Y363035D01*
X128394Y363030D01*
X128443Y363024D01*
X128487Y363019D01*
X128530Y363008D01*
X128557Y363002D01*
X128563D01*
X128579Y362991D01*
X128607Y362981D01*
X128634Y362964D01*
X128705Y362915D01*
X128738Y362882D01*
X128770Y362844D01*
X128776Y362839D01*
X128781Y362822D01*
X128798Y362800D01*
X128814Y362768D01*
X128825Y362724D01*
X128841Y362675D01*
X128847Y362620D01*
X128852Y362560D01*
Y362549D01*
Y362527D01*
X128847Y362495D01*
X128841Y362451D01*
X128825Y362402D01*
X128809Y362353D01*
X128781Y362298D01*
X128749Y362254D01*
X128743Y362249D01*
X128732Y362232D01*
X128705Y362216D01*
X128672Y362189D01*
X128634Y362161D01*
X128585Y362140D01*
X128525Y362118D01*
X128459Y362102D01*
X128454D01*
X128437Y362096D01*
X128405D01*
X128355Y362090D01*
X128235D01*
X128186Y362085D01*
X127313D01*
Y363046D01*
X128055D01*
X128164Y363041D01*
D02*
G37*
%LPC*%
G36*
X230686Y313877D02*
X227309D01*
X229717D01*
Y309932D01*
X227309D01*
Y309123D01*
X230686D01*
Y313877D01*
D02*
G37*
G36*
X226617Y313911D02*
X223067D01*
Y313102D01*
X225648D01*
Y312043D01*
X223247D01*
Y311233D01*
X225648D01*
Y309932D01*
X222977D01*
Y309123D01*
X226617D01*
Y313911D01*
D02*
G37*
G36*
X222153D02*
X218866D01*
Y313102D01*
X221184D01*
Y311967D01*
X219185D01*
Y311157D01*
X221184D01*
Y309123D01*
X218866D01*
X222153D01*
Y313911D01*
D02*
G37*
G36*
X218403D02*
X214604D01*
Y313102D01*
X216015D01*
Y309123D01*
X216984D01*
Y313102D01*
X218403D01*
Y309123D01*
D01*
D01*
Y313911D01*
D02*
G37*
G36*
X212126D02*
X207518D01*
Y309123D01*
X208410D01*
X208417Y312887D01*
X209358Y309123D01*
X210292D01*
X211234Y312887D01*
Y309123D01*
X212126D01*
Y313911D01*
D02*
G37*
G36*
X201670Y313911D02*
X197871D01*
Y313102D01*
X199283D01*
Y309123D01*
X200252D01*
Y313102D01*
X201670D01*
Y309123D01*
D01*
D01*
Y313911D01*
D02*
G37*
G36*
X192037D02*
X187733D01*
D01*
X189878D01*
X189816Y313905D01*
X189740D01*
X189664Y313898D01*
X189574D01*
X189394Y313877D01*
X189207Y313856D01*
X189034Y313822D01*
X188958Y313801D01*
X188889Y313780D01*
X188882D01*
X188875Y313773D01*
X188833Y313752D01*
X188771Y313718D01*
X188688Y313676D01*
X188598Y313607D01*
X188508Y313531D01*
X188418Y313434D01*
X188335Y313316D01*
Y313309D01*
X188328Y313302D01*
X188314Y313282D01*
X188301Y313261D01*
X188266Y313192D01*
X188224Y313102D01*
X188190Y312991D01*
X188155Y312866D01*
X188128Y312721D01*
X188121Y312569D01*
Y312562D01*
Y312548D01*
Y312514D01*
X188128Y312479D01*
Y312431D01*
X188135Y312382D01*
X188162Y312258D01*
X188197Y312112D01*
X188252Y311967D01*
X188335Y311815D01*
X188384Y311746D01*
X188439Y311676D01*
X188446Y311669D01*
X188453Y311662D01*
X188474Y311642D01*
X188501Y311621D01*
X188529Y311593D01*
X188571Y311559D01*
X188619Y311524D01*
X188674Y311489D01*
X188737Y311448D01*
X188813Y311413D01*
X188889Y311379D01*
X188972Y311344D01*
X189069Y311310D01*
X189166Y311282D01*
X189269Y311254D01*
X189387Y311233D01*
X189380D01*
X189373Y311227D01*
X189332Y311199D01*
X189276Y311164D01*
X189207Y311116D01*
X189124Y311053D01*
X189041Y310991D01*
X188951Y310915D01*
X188875Y310832D01*
X188868Y310825D01*
X188833Y310790D01*
X188792Y310735D01*
X188730Y310652D01*
X188647Y310548D01*
X188605Y310479D01*
X188557Y310410D01*
X188501Y310334D01*
X188446Y310251D01*
X188384Y310154D01*
X188321Y310057D01*
X187733Y309123D01*
D01*
X188896D01*
X189588Y310161D01*
X189595Y310168D01*
X189602Y310189D01*
X189622Y310216D01*
X189650Y310251D01*
X189678Y310292D01*
X189712Y310348D01*
X189788Y310458D01*
X189878Y310583D01*
X189962Y310694D01*
X190038Y310797D01*
X190072Y310832D01*
X190100Y310867D01*
X190107Y310874D01*
X190121Y310887D01*
X190148Y310915D01*
X190183Y310950D01*
X190231Y310977D01*
X190280Y311012D01*
X190335Y311040D01*
X190391Y311067D01*
X190397D01*
X190418Y311074D01*
X190453Y311088D01*
X190508Y311095D01*
X190577Y311109D01*
X190660Y311116D01*
X190757Y311123D01*
X191069D01*
Y309123D01*
X192037D01*
Y313911D01*
D02*
G37*
G36*
X204424Y314001D02*
X204376D01*
X204321Y313995D01*
X204251D01*
X204161Y313981D01*
X204058Y313967D01*
X203940Y313946D01*
X203815Y313918D01*
X203684Y313884D01*
X203545Y313842D01*
X203407Y313787D01*
X203262Y313725D01*
X203123Y313649D01*
X202985Y313559D01*
X202853Y313455D01*
X202729Y313337D01*
X202722Y313330D01*
X202701Y313309D01*
X202667Y313268D01*
X202632Y313219D01*
X202584Y313150D01*
X202528Y313067D01*
X202473Y312970D01*
X202411Y312860D01*
X202348Y312742D01*
X202293Y312603D01*
X202238Y312451D01*
X202189Y312292D01*
X202148Y312112D01*
X202120Y311925D01*
X202099Y311725D01*
X202092Y311510D01*
Y311462D01*
X202099Y311400D01*
Y311316D01*
X202113Y311220D01*
X202127Y311109D01*
X202148Y310977D01*
X202168Y310846D01*
X202203Y310700D01*
X202244Y310548D01*
X202300Y310396D01*
X202362Y310244D01*
X202431Y310099D01*
X202521Y309953D01*
X202618Y309815D01*
X202729Y309683D01*
X202736Y309676D01*
X202757Y309656D01*
X202791Y309621D01*
X202847Y309579D01*
X202909Y309531D01*
X202985Y309476D01*
X203075Y309420D01*
X203172Y309358D01*
X203289Y309296D01*
X203414Y309240D01*
X203552Y309185D01*
X203705Y309137D01*
X203864Y309095D01*
X204037Y309061D01*
X204217Y309040D01*
X204410Y309033D01*
X202092D01*
X206736Y309033D01*
Y311552D01*
X206729Y311607D01*
Y311669D01*
X206722Y311738D01*
X206715Y311822D01*
X206708Y311912D01*
X206680Y312105D01*
X206646Y312313D01*
X206590Y312521D01*
X206521Y312714D01*
Y312721D01*
X206514Y312728D01*
X206500Y312749D01*
X206493Y312776D01*
X206452Y312846D01*
X206403Y312936D01*
X206341Y313039D01*
X206265Y313143D01*
X206175Y313261D01*
X206078Y313372D01*
X206071Y313379D01*
X206064Y313386D01*
X206030Y313420D01*
X205967Y313475D01*
X205891Y313538D01*
X205801Y313607D01*
X205698Y313683D01*
X205580Y313752D01*
X205455Y313808D01*
X205448D01*
X205435Y313814D01*
X205407Y313828D01*
X205372Y313835D01*
X205331Y313856D01*
X205282Y313870D01*
X205220Y313884D01*
X205158Y313905D01*
X205006Y313939D01*
X204833Y313974D01*
X204632Y313995D01*
X204424Y314001D01*
D02*
G37*
G36*
X195131D02*
X195082D01*
X195027Y313995D01*
X194958D01*
X194868Y313981D01*
X194764Y313967D01*
X194646Y313946D01*
X194522Y313918D01*
X194390Y313884D01*
X194252Y313842D01*
X194114Y313787D01*
X193968Y313725D01*
X193830Y313649D01*
X193691Y313559D01*
X193560Y313455D01*
X193435Y313337D01*
X193428Y313330D01*
X193408Y313309D01*
X193373Y313268D01*
X193338Y313219D01*
X193290Y313150D01*
X193235Y313067D01*
X193179Y312970D01*
X193117Y312860D01*
X193055Y312742D01*
X192999Y312603D01*
X192944Y312451D01*
X192896Y312292D01*
X192854Y312112D01*
X192826Y311925D01*
X192806Y311725D01*
X192799Y311510D01*
Y309033D01*
Y311462D01*
X192806Y311400D01*
Y311316D01*
X192819Y311220D01*
X192833Y311109D01*
X192854Y310977D01*
X192875Y310846D01*
X192909Y310700D01*
X192951Y310548D01*
X193006Y310396D01*
X193069Y310244D01*
X193138Y310099D01*
X193228Y309953D01*
X193325Y309815D01*
X193435Y309683D01*
X193442Y309676D01*
X193463Y309656D01*
X193498Y309621D01*
X193553Y309579D01*
X193615Y309531D01*
X193691Y309476D01*
X193781Y309420D01*
X193878Y309358D01*
X193996Y309296D01*
X194120Y309240D01*
X194259Y309185D01*
X194411Y309137D01*
X194570Y309095D01*
X194743Y309061D01*
X194923Y309040D01*
X195117Y309033D01*
X197442D01*
Y311552D01*
X197435Y311607D01*
Y311669D01*
X197428Y311738D01*
X197421Y311822D01*
X197414Y311912D01*
X197387Y312105D01*
X197352Y312313D01*
X197297Y312521D01*
X197228Y312714D01*
Y312721D01*
X197221Y312728D01*
X197207Y312749D01*
X197200Y312776D01*
X197158Y312846D01*
X197110Y312936D01*
X197048Y313039D01*
X196971Y313143D01*
X196881Y313261D01*
X196785Y313372D01*
X196778Y313379D01*
X196771Y313386D01*
X196736Y313420D01*
X196674Y313475D01*
X196598Y313538D01*
X196508Y313607D01*
X196404Y313683D01*
X196286Y313752D01*
X196162Y313808D01*
X196155D01*
X196141Y313814D01*
X196113Y313828D01*
X196079Y313835D01*
X196037Y313856D01*
X195989Y313870D01*
X195926Y313884D01*
X195864Y313905D01*
X195712Y313939D01*
X195539Y313974D01*
X195338Y313995D01*
X195131Y314001D01*
D02*
G37*
%LPD*%
G36*
X209822Y310638D02*
X208971Y313911D01*
X210680D01*
X209822Y310638D01*
D02*
G37*
G36*
X191069Y311884D02*
X190128D01*
X189989Y311891D01*
X189844Y311898D01*
X189699Y311905D01*
X189636Y311912D01*
X189581Y311918D01*
X189525Y311932D01*
X189491Y311939D01*
X189484D01*
X189463Y311953D01*
X189429Y311967D01*
X189394Y311988D01*
X189304Y312050D01*
X189263Y312091D01*
X189221Y312140D01*
X189214Y312147D01*
X189207Y312168D01*
X189186Y312195D01*
X189166Y312237D01*
X189152Y312292D01*
X189131Y312354D01*
X189124Y312424D01*
X189117Y312500D01*
Y312514D01*
Y312541D01*
X189124Y312583D01*
X189131Y312638D01*
X189152Y312700D01*
X189173Y312763D01*
X189207Y312832D01*
X189249Y312887D01*
X189256Y312894D01*
X189269Y312915D01*
X189304Y312936D01*
X189346Y312970D01*
X189394Y313005D01*
X189456Y313033D01*
X189532Y313060D01*
X189615Y313081D01*
X189622D01*
X189643Y313088D01*
X189685D01*
X189747Y313095D01*
X189899D01*
X189962Y313102D01*
X191069D01*
Y311884D01*
D02*
G37*
G36*
X204507Y313171D02*
X204563Y313164D01*
X204618Y313157D01*
X204756Y313129D01*
X204909Y313074D01*
X204992Y313046D01*
X205075Y313005D01*
X205151Y312957D01*
X205234Y312901D01*
X205310Y312839D01*
X205379Y312763D01*
X205386Y312756D01*
X205393Y312742D01*
X205414Y312721D01*
X205435Y312687D01*
X205462Y312638D01*
X205490Y312590D01*
X205524Y312527D01*
X205559Y312451D01*
X205594Y312368D01*
X205628Y312278D01*
X205656Y312175D01*
X205684Y312064D01*
X205704Y311939D01*
X205725Y311808D01*
X205732Y311669D01*
X205739Y311517D01*
Y311510D01*
Y311483D01*
Y311441D01*
X205732Y311386D01*
X205725Y311316D01*
X205718Y311233D01*
X205704Y311150D01*
X205691Y311053D01*
X205649Y310853D01*
X205580Y310652D01*
X205538Y310548D01*
X205490Y310451D01*
X205428Y310362D01*
X205365Y310278D01*
X205359Y310272D01*
X205345Y310258D01*
X205324Y310237D01*
X205296Y310216D01*
X205262Y310181D01*
X205213Y310147D01*
X205165Y310105D01*
X205102Y310071D01*
X204971Y309988D01*
X204805Y309926D01*
X204715Y309898D01*
X204618Y309877D01*
X204514Y309863D01*
X204410Y309856D01*
X204355D01*
X204314Y309863D01*
X204265Y309870D01*
X204210Y309877D01*
X204078Y309912D01*
X203926Y309960D01*
X203850Y309995D01*
X203767Y310029D01*
X203691Y310078D01*
X203608Y310133D01*
X203532Y310195D01*
X203462Y310272D01*
X203455Y310278D01*
X203449Y310292D01*
X203428Y310313D01*
X203407Y310348D01*
X203372Y310396D01*
X203345Y310451D01*
X203310Y310514D01*
X203275Y310590D01*
X203241Y310673D01*
X203206Y310763D01*
X203172Y310867D01*
X203144Y310984D01*
X203123Y311102D01*
X203102Y311233D01*
X203096Y311379D01*
X203089Y311531D01*
Y311538D01*
Y311565D01*
Y311607D01*
X203096Y311669D01*
X203102Y311738D01*
X203110Y311815D01*
X203116Y311905D01*
X203137Y311995D01*
X203179Y312195D01*
X203241Y312403D01*
X203282Y312507D01*
X203331Y312597D01*
X203393Y312687D01*
X203455Y312770D01*
X203462Y312776D01*
X203469Y312790D01*
X203490Y312804D01*
X203518Y312832D01*
X203559Y312866D01*
X203601Y312901D01*
X203649Y312936D01*
X203712Y312977D01*
X203774Y313012D01*
X203850Y313046D01*
X204009Y313116D01*
X204099Y313143D01*
X204196Y313157D01*
X204300Y313171D01*
X204410Y313178D01*
X204466D01*
X204507Y313171D01*
D02*
G37*
G36*
X206736Y309033D02*
X204459Y309033D01*
X204514Y309040D01*
X204583Y309047D01*
X204673Y309054D01*
X204777Y309067D01*
X204895Y309088D01*
X205019Y309116D01*
X205158Y309151D01*
X205289Y309192D01*
X205435Y309247D01*
X205573Y309310D01*
X205718Y309379D01*
X205850Y309469D01*
X205981Y309566D01*
X206106Y309683D01*
X206113Y309690D01*
X206134Y309711D01*
X206161Y309752D01*
X206203Y309801D01*
X206251Y309870D01*
X206307Y309953D01*
X206362Y310043D01*
X206417Y310154D01*
X206480Y310272D01*
X206535Y310410D01*
X206590Y310555D01*
X206639Y310714D01*
X206680Y310887D01*
X206708Y311074D01*
X206729Y311275D01*
X206736Y311483D01*
Y309033D01*
D02*
G37*
G36*
X195214Y313171D02*
X195269Y313164D01*
X195325Y313157D01*
X195463Y313129D01*
X195615Y313074D01*
X195698Y313046D01*
X195781Y313005D01*
X195857Y312957D01*
X195940Y312901D01*
X196017Y312839D01*
X196086Y312763D01*
X196093Y312756D01*
X196099Y312742D01*
X196120Y312721D01*
X196141Y312687D01*
X196169Y312638D01*
X196196Y312590D01*
X196231Y312527D01*
X196266Y312451D01*
X196300Y312368D01*
X196335Y312278D01*
X196362Y312175D01*
X196390Y312064D01*
X196411Y311939D01*
X196432Y311808D01*
X196439Y311669D01*
X196446Y311517D01*
Y311510D01*
Y311483D01*
Y311441D01*
X196439Y311386D01*
X196432Y311316D01*
X196425Y311233D01*
X196411Y311150D01*
X196397Y311053D01*
X196355Y310853D01*
X196286Y310652D01*
X196245Y310548D01*
X196196Y310451D01*
X196134Y310362D01*
X196072Y310278D01*
X196065Y310272D01*
X196051Y310258D01*
X196030Y310237D01*
X196003Y310216D01*
X195968Y310181D01*
X195920Y310147D01*
X195871Y310105D01*
X195809Y310071D01*
X195677Y309988D01*
X195511Y309926D01*
X195421Y309898D01*
X195325Y309877D01*
X195221Y309863D01*
X195117Y309856D01*
X195062D01*
X195020Y309863D01*
X194972Y309870D01*
X194916Y309877D01*
X194785Y309912D01*
X194632Y309960D01*
X194556Y309995D01*
X194473Y310029D01*
X194397Y310078D01*
X194314Y310133D01*
X194238Y310195D01*
X194169Y310272D01*
X194162Y310278D01*
X194155Y310292D01*
X194134Y310313D01*
X194114Y310348D01*
X194079Y310396D01*
X194051Y310451D01*
X194017Y310514D01*
X193982Y310590D01*
X193947Y310673D01*
X193913Y310763D01*
X193878Y310867D01*
X193851Y310984D01*
X193830Y311102D01*
X193809Y311233D01*
X193802Y311379D01*
X193795Y311531D01*
Y311538D01*
Y311565D01*
Y311607D01*
X193802Y311669D01*
X193809Y311738D01*
X193816Y311815D01*
X193823Y311905D01*
X193844Y311995D01*
X193885Y312195D01*
X193947Y312403D01*
X193989Y312507D01*
X194037Y312597D01*
X194100Y312687D01*
X194162Y312770D01*
X194169Y312776D01*
X194176Y312790D01*
X194196Y312804D01*
X194224Y312832D01*
X194266Y312866D01*
X194307Y312901D01*
X194356Y312936D01*
X194418Y312977D01*
X194480Y313012D01*
X194556Y313046D01*
X194715Y313116D01*
X194806Y313143D01*
X194902Y313157D01*
X195006Y313171D01*
X195117Y313178D01*
X195172D01*
X195214Y313171D01*
D02*
G37*
G36*
X197442Y309033D02*
X195165D01*
X195221Y309040D01*
X195290Y309047D01*
X195380Y309054D01*
X195484Y309067D01*
X195601Y309088D01*
X195726Y309116D01*
X195864Y309151D01*
X195996Y309192D01*
X196141Y309247D01*
X196279Y309310D01*
X196425Y309379D01*
X196556Y309469D01*
X196688Y309566D01*
X196812Y309683D01*
X196819Y309690D01*
X196840Y309711D01*
X196868Y309752D01*
X196909Y309801D01*
X196958Y309870D01*
X197013Y309953D01*
X197068Y310043D01*
X197124Y310154D01*
X197186Y310272D01*
X197241Y310410D01*
X197297Y310555D01*
X197345Y310714D01*
X197387Y310887D01*
X197414Y311074D01*
X197435Y311275D01*
X197442Y311483D01*
Y309033D01*
D02*
G37*
%LPC*%
G36*
X220642Y324711D02*
X219673D01*
Y322829D01*
X217784D01*
Y324711D01*
X216815D01*
Y319923D01*
X217784D01*
Y322020D01*
X219673D01*
Y319923D01*
X218729D01*
X220642D01*
Y324711D01*
D02*
G37*
G36*
X192879Y324801D02*
X192831D01*
X192775Y324795D01*
X192706D01*
X192616Y324781D01*
X192512Y324767D01*
X192394Y324746D01*
X192270Y324718D01*
X192139Y324684D01*
X192000Y324642D01*
X191862Y324587D01*
X191716Y324525D01*
X191578Y324448D01*
X191440Y324359D01*
X191308Y324255D01*
X191183Y324137D01*
X191177Y324130D01*
X191156Y324109D01*
X191121Y324068D01*
X191087Y324019D01*
X191038Y323950D01*
X190983Y323867D01*
X190928Y323770D01*
X190865Y323660D01*
X190803Y323542D01*
X190748Y323404D01*
X190692Y323251D01*
X190644Y323092D01*
X190602Y322912D01*
X190575Y322725D01*
X190554Y322525D01*
X190547Y322310D01*
Y324801D01*
D01*
D01*
Y319833D01*
D01*
Y322262D01*
X190554Y322200D01*
Y322116D01*
X190568Y322020D01*
X190582Y321909D01*
X190602Y321777D01*
X190623Y321646D01*
X190658Y321500D01*
X190699Y321348D01*
X190754Y321196D01*
X190817Y321044D01*
X190886Y320899D01*
X190976Y320753D01*
X191073Y320615D01*
X191183Y320483D01*
X191191Y320476D01*
X191211Y320456D01*
X191246Y320421D01*
X191301Y320379D01*
X191363Y320331D01*
X191440Y320276D01*
X191530Y320220D01*
X191626Y320158D01*
X191744Y320096D01*
X191869Y320040D01*
X192007Y319985D01*
X192159Y319937D01*
X192318Y319895D01*
X192491Y319861D01*
X192671Y319840D01*
X192865Y319833D01*
X190547D01*
X195190D01*
D01*
X192913D01*
X192969Y319840D01*
X193038Y319847D01*
X193128Y319854D01*
X193232Y319867D01*
X193350Y319888D01*
X193474Y319916D01*
X193612Y319951D01*
X193744Y319992D01*
X193889Y320047D01*
X194028Y320110D01*
X194173Y320179D01*
X194304Y320269D01*
X194436Y320366D01*
X194561Y320483D01*
X194567Y320490D01*
X194588Y320511D01*
X194616Y320552D01*
X194657Y320601D01*
X194706Y320670D01*
X194761Y320753D01*
X194817Y320843D01*
X194872Y320954D01*
X194934Y321072D01*
X194990Y321210D01*
X195045Y321355D01*
X195093Y321514D01*
X195135Y321687D01*
X195162Y321874D01*
X195183Y322075D01*
X195190Y322283D01*
Y322352D01*
X195183Y322407D01*
Y322469D01*
X195176Y322538D01*
X195169Y322622D01*
X195162Y322711D01*
X195135Y322905D01*
X195100Y323113D01*
X195045Y323321D01*
X194976Y323514D01*
Y323521D01*
X194969Y323528D01*
X194955Y323549D01*
X194948Y323576D01*
X194906Y323646D01*
X194858Y323736D01*
X194796Y323839D01*
X194720Y323943D01*
X194630Y324061D01*
X194533Y324172D01*
X194526Y324179D01*
X194519Y324185D01*
X194484Y324220D01*
X194422Y324275D01*
X194346Y324338D01*
X194256Y324407D01*
X194152Y324483D01*
X194035Y324552D01*
X193910Y324608D01*
X193903D01*
X193889Y324615D01*
X193862Y324628D01*
X193827Y324635D01*
X193785Y324656D01*
X193737Y324670D01*
X193675Y324684D01*
X193612Y324705D01*
X193460Y324739D01*
X193287Y324774D01*
X193087Y324795D01*
X192879Y324801D01*
D02*
G37*
G36*
X209874Y324711D02*
X207739D01*
X208428D01*
X207570Y321438D01*
X206719Y324711D01*
X205266Y324711D01*
Y319923D01*
X206158Y319923D01*
X206165Y323687D01*
X207106Y319923D01*
X208041D01*
X208982Y323687D01*
Y319923D01*
X209874D01*
Y324711D01*
D02*
G37*
G36*
X223645Y324801D02*
X223562D01*
X223500Y324795D01*
X223424Y324788D01*
X223334Y324781D01*
X223237Y324774D01*
X223133Y324753D01*
X222912Y324711D01*
X222683Y324642D01*
X222566Y324601D01*
X222455Y324552D01*
X222351Y324497D01*
X222254Y324428D01*
X222247Y324421D01*
X222234Y324414D01*
X222206Y324386D01*
X222171Y324359D01*
X222130Y324324D01*
X222088Y324275D01*
X222040Y324220D01*
X221985Y324158D01*
X221929Y324089D01*
X221874Y324012D01*
X221818Y323930D01*
X221770Y323833D01*
X221715Y323736D01*
X221673Y323632D01*
X221632Y323514D01*
X221604Y323397D01*
X222566Y323217D01*
Y323224D01*
X222573Y323231D01*
X222586Y323272D01*
X222614Y323334D01*
X222656Y323417D01*
X222704Y323507D01*
X222773Y323597D01*
X222856Y323687D01*
X222953Y323770D01*
X222967Y323777D01*
X223002Y323805D01*
X223064Y323839D01*
X223140Y323874D01*
X223244Y323916D01*
X223361Y323943D01*
X223493Y323971D01*
X223645Y323978D01*
X223708D01*
X223749Y323971D01*
X223804Y323964D01*
X223867Y323957D01*
X223936Y323943D01*
X224012Y323930D01*
X224171Y323881D01*
X224254Y323846D01*
X224337Y323805D01*
X224420Y323757D01*
X224503Y323708D01*
X224579Y323639D01*
X224656Y323570D01*
X224662Y323563D01*
X224669Y323549D01*
X224690Y323528D01*
X224711Y323494D01*
X224739Y323452D01*
X224773Y323404D01*
X224808Y323341D01*
X224835Y323272D01*
X224870Y323189D01*
X224905Y323099D01*
X224939Y323002D01*
X224967Y322898D01*
X224988Y322781D01*
X225009Y322649D01*
X225015Y322518D01*
X225022Y322373D01*
Y322365D01*
Y322338D01*
Y322289D01*
X225015Y322234D01*
X225009Y322158D01*
X225002Y322082D01*
X224988Y321985D01*
X224974Y321888D01*
X224932Y321680D01*
X224863Y321466D01*
X224822Y321362D01*
X224773Y321265D01*
X224711Y321168D01*
X224649Y321085D01*
X224642Y321078D01*
X224628Y321065D01*
X224607Y321044D01*
X224579Y321016D01*
X224538Y320988D01*
X224496Y320947D01*
X224441Y320912D01*
X224379Y320871D01*
X224310Y320829D01*
X224240Y320795D01*
X224067Y320725D01*
X223971Y320698D01*
X223874Y320677D01*
X223763Y320663D01*
X223652Y320656D01*
X223597D01*
X223541Y320663D01*
X223458Y320670D01*
X223368Y320684D01*
X223265Y320705D01*
X223154Y320732D01*
X223043Y320774D01*
X223036D01*
X223029Y320781D01*
X222995Y320795D01*
X222933Y320822D01*
X222863Y320857D01*
X222780Y320899D01*
X222690Y320947D01*
X222600Y321002D01*
X222517Y321065D01*
Y321680D01*
X223624D01*
Y322490D01*
X221542D01*
Y319833D01*
Y320566D01*
X221555Y320552D01*
X221576Y320539D01*
X221597Y320518D01*
X221632Y320490D01*
X221666Y320463D01*
X221763Y320393D01*
X221895Y320317D01*
X222047Y320227D01*
X222220Y320137D01*
X222427Y320054D01*
X222434D01*
X222455Y320047D01*
X222483Y320034D01*
X222524Y320020D01*
X222580Y320006D01*
X222642Y319985D01*
X222711Y319964D01*
X222787Y319944D01*
X222960Y319902D01*
X223161Y319867D01*
X223368Y319840D01*
X223590Y319833D01*
X221542D01*
X223666D01*
X223714Y319840D01*
X223784D01*
X223860Y319847D01*
X223943Y319861D01*
X224040Y319874D01*
X224240Y319909D01*
X224462Y319964D01*
X224690Y320040D01*
X224794Y320089D01*
X224905Y320144D01*
X224912Y320151D01*
X224925Y320158D01*
X224960Y320179D01*
X224995Y320206D01*
X225043Y320234D01*
X225092Y320276D01*
X225154Y320324D01*
X225216Y320379D01*
X225355Y320504D01*
X225493Y320663D01*
X225624Y320843D01*
X225742Y321051D01*
Y321058D01*
X225756Y321078D01*
X225770Y321113D01*
X225783Y321155D01*
X225804Y321210D01*
X225832Y321272D01*
X225853Y321348D01*
X225880Y321431D01*
X225908Y321521D01*
X225929Y321625D01*
X225977Y321840D01*
X226005Y322075D01*
X226019Y322331D01*
Y320518D01*
Y322407D01*
X226012Y322456D01*
Y322525D01*
X226005Y322601D01*
X225991Y322684D01*
X225977Y322781D01*
X225943Y322981D01*
X225887Y323210D01*
X225811Y323438D01*
X225763Y323549D01*
X225707Y323660D01*
X225700Y323667D01*
X225694Y323687D01*
X225673Y323715D01*
X225652Y323757D01*
X225618Y323805D01*
X225576Y323860D01*
X225528Y323923D01*
X225479Y323992D01*
X225417Y324061D01*
X225348Y324137D01*
X225272Y324213D01*
X225188Y324289D01*
X225098Y324359D01*
X225009Y324435D01*
X224794Y324559D01*
X224787D01*
X224773Y324573D01*
X224745Y324580D01*
X224711Y324601D01*
X224662Y324615D01*
X224614Y324635D01*
X224545Y324656D01*
X224476Y324684D01*
X224399Y324705D01*
X224310Y324725D01*
X224213Y324746D01*
X224116Y324767D01*
X223894Y324795D01*
X223645Y324801D01*
D02*
G37*
G36*
X232537Y324711D02*
X230378D01*
X230316Y324705D01*
X230240D01*
X230164Y324698D01*
X230074D01*
X229894Y324677D01*
X229707Y324656D01*
X229534Y324622D01*
X229458Y324601D01*
X229389Y324580D01*
X229382D01*
X229375Y324573D01*
X229333Y324552D01*
X229271Y324518D01*
X229188Y324476D01*
X229098Y324407D01*
X229008Y324331D01*
X228918Y324234D01*
X228835Y324116D01*
Y324109D01*
X228828Y324102D01*
X228815Y324082D01*
X228801Y324061D01*
X228766Y323992D01*
X228725Y323902D01*
X228690Y323791D01*
X228655Y323667D01*
X228628Y323521D01*
X228621Y323369D01*
Y323362D01*
Y323348D01*
Y323314D01*
X228628Y323279D01*
Y323231D01*
X228635Y323182D01*
X228662Y323058D01*
X228697Y322912D01*
X228752Y322767D01*
X228835Y322615D01*
X228884Y322546D01*
X228939Y322476D01*
X228946Y322469D01*
X228953Y322462D01*
X228974Y322442D01*
X229001Y322421D01*
X229029Y322393D01*
X229070Y322359D01*
X229119Y322324D01*
X229174Y322289D01*
X229237Y322248D01*
X229313Y322213D01*
X229389Y322179D01*
X229472Y322144D01*
X229569Y322110D01*
X229666Y322082D01*
X229769Y322054D01*
X229887Y322033D01*
X229880D01*
X229873Y322026D01*
X229832Y321999D01*
X229776Y321964D01*
X229707Y321916D01*
X229624Y321853D01*
X229541Y321791D01*
X229451Y321715D01*
X229375Y321632D01*
X229368Y321625D01*
X229333Y321590D01*
X229292Y321535D01*
X229230Y321452D01*
X229147Y321348D01*
X229105Y321279D01*
X229057Y321210D01*
X229001Y321134D01*
X228946Y321051D01*
X228884Y320954D01*
X228821Y320857D01*
X228233Y319923D01*
X232537D01*
Y324711D01*
D02*
G37*
G36*
X227742D02*
X226773D01*
Y319923D01*
X227742D01*
Y324711D01*
D02*
G37*
G36*
X216151D02*
X212352D01*
Y319923D01*
Y323902D01*
X213763D01*
Y319923D01*
X214732D01*
Y323902D01*
X216151D01*
Y324711D01*
D02*
G37*
G36*
X199418Y324711D02*
X195619D01*
Y319923D01*
Y323902D01*
X197031D01*
Y319923D01*
X198000D01*
Y323902D01*
X199418D01*
Y324711D01*
D02*
G37*
G36*
X189786D02*
X187627D01*
X187564Y324705D01*
X187488D01*
X187412Y324698D01*
X187322D01*
X187142Y324677D01*
X186955Y324656D01*
X186782Y324622D01*
X186706Y324601D01*
X186637Y324580D01*
X186630D01*
X186623Y324573D01*
X186582Y324552D01*
X186520Y324518D01*
X186436Y324476D01*
X186346Y324407D01*
X186257Y324331D01*
X186167Y324234D01*
X186083Y324116D01*
Y324109D01*
X186077Y324102D01*
X186063Y324082D01*
X186049Y324061D01*
X186014Y323992D01*
X185973Y323902D01*
X185938Y323791D01*
X185904Y323667D01*
X185876Y323521D01*
X185869Y323369D01*
Y323362D01*
Y323348D01*
Y323314D01*
X185876Y323279D01*
Y323231D01*
X185883Y323182D01*
X185910Y323058D01*
X185945Y322912D01*
X186001Y322767D01*
X186083Y322615D01*
X186132Y322546D01*
X186187Y322476D01*
X186194Y322469D01*
X186201Y322462D01*
X186222Y322442D01*
X186250Y322421D01*
X186277Y322393D01*
X186319Y322359D01*
X186367Y322324D01*
X186423Y322289D01*
X186485Y322248D01*
X186561Y322213D01*
X186637Y322179D01*
X186720Y322144D01*
X186817Y322110D01*
X186914Y322082D01*
X187018Y322054D01*
X187135Y322033D01*
X187128D01*
X187121Y322026D01*
X187080Y321999D01*
X187025Y321964D01*
X186955Y321916D01*
X186872Y321853D01*
X186789Y321791D01*
X186699Y321715D01*
X186623Y321632D01*
X186616Y321625D01*
X186582Y321590D01*
X186540Y321535D01*
X186478Y321452D01*
X186395Y321348D01*
X186353Y321279D01*
X186305Y321210D01*
X186250Y321134D01*
X186194Y321051D01*
X186132Y320954D01*
X186070Y320857D01*
X185481Y319923D01*
X189786D01*
Y324711D01*
D02*
G37*
G36*
X204484Y324801D02*
X199840D01*
Y319833D01*
Y322262D01*
X199847Y322200D01*
Y322116D01*
X199861Y322020D01*
X199875Y321909D01*
X199896Y321777D01*
X199917Y321646D01*
X199951Y321500D01*
X199993Y321348D01*
X200048Y321196D01*
X200110Y321044D01*
X200180Y320899D01*
X200270Y320753D01*
X200366Y320615D01*
X200477Y320483D01*
X200484Y320476D01*
X200505Y320456D01*
X200539Y320421D01*
X200595Y320379D01*
X200657Y320331D01*
X200733Y320276D01*
X200823Y320220D01*
X200920Y320158D01*
X201038Y320096D01*
X201162Y320040D01*
X201301Y319985D01*
X201453Y319937D01*
X201612Y319895D01*
X201785Y319861D01*
X201965Y319840D01*
X202159Y319833D01*
X202207D01*
X202262Y319840D01*
X202332Y319847D01*
X202422Y319854D01*
X202525Y319867D01*
X202643Y319888D01*
X202768Y319916D01*
X202906Y319951D01*
X203038Y319992D01*
X203183Y320047D01*
X203321Y320110D01*
X203467Y320179D01*
X203598Y320269D01*
X203730Y320366D01*
X203854Y320483D01*
X203861Y320490D01*
X203882Y320511D01*
X203909Y320552D01*
X203951Y320601D01*
X203999Y320670D01*
X204055Y320753D01*
X204110Y320843D01*
X204166Y320954D01*
X204228Y321072D01*
X204283Y321210D01*
X204338Y321355D01*
X204387Y321514D01*
X204428Y321687D01*
X204456Y321874D01*
X204477Y322075D01*
X204484Y322283D01*
Y322352D01*
X204477Y322407D01*
Y322469D01*
X204470Y322538D01*
X204463Y322622D01*
X204456Y322711D01*
X204428Y322905D01*
X204394Y323113D01*
X204338Y323321D01*
X204269Y323514D01*
Y323521D01*
X204262Y323528D01*
X204248Y323549D01*
X204242Y323576D01*
X204200Y323646D01*
X204152Y323736D01*
X204089Y323839D01*
X204013Y323943D01*
X203923Y324061D01*
X203826Y324172D01*
X203819Y324179D01*
X203813Y324185D01*
X203778Y324220D01*
X203716Y324275D01*
X203640Y324338D01*
X203550Y324407D01*
X203446Y324483D01*
X203328Y324552D01*
X203204Y324608D01*
X203197D01*
X203183Y324615D01*
X203155Y324628D01*
X203120Y324635D01*
X203079Y324656D01*
X203031Y324670D01*
X202968Y324684D01*
X202906Y324705D01*
X202754Y324739D01*
X202581Y324774D01*
X202380Y324795D01*
X202172Y324801D01*
X204484D01*
D02*
G37*
%LPD*%
G36*
X192962Y323971D02*
X193017Y323964D01*
X193073Y323957D01*
X193211Y323930D01*
X193363Y323874D01*
X193446Y323846D01*
X193529Y323805D01*
X193605Y323757D01*
X193689Y323701D01*
X193765Y323639D01*
X193834Y323563D01*
X193841Y323556D01*
X193848Y323542D01*
X193869Y323521D01*
X193889Y323487D01*
X193917Y323438D01*
X193945Y323390D01*
X193979Y323327D01*
X194014Y323251D01*
X194048Y323168D01*
X194083Y323078D01*
X194111Y322974D01*
X194138Y322864D01*
X194159Y322739D01*
X194180Y322608D01*
X194187Y322469D01*
X194194Y322317D01*
Y322310D01*
Y322283D01*
Y322241D01*
X194187Y322186D01*
X194180Y322116D01*
X194173Y322033D01*
X194159Y321950D01*
X194145Y321853D01*
X194104Y321653D01*
X194035Y321452D01*
X193993Y321348D01*
X193945Y321251D01*
X193882Y321162D01*
X193820Y321078D01*
X193813Y321072D01*
X193799Y321058D01*
X193779Y321037D01*
X193751Y321016D01*
X193716Y320982D01*
X193668Y320947D01*
X193619Y320905D01*
X193557Y320871D01*
X193426Y320788D01*
X193260Y320725D01*
X193170Y320698D01*
X193073Y320677D01*
X192969Y320663D01*
X192865Y320656D01*
X192810D01*
X192768Y320663D01*
X192720Y320670D01*
X192664Y320677D01*
X192533Y320712D01*
X192381Y320760D01*
X192305Y320795D01*
X192221Y320829D01*
X192145Y320878D01*
X192062Y320933D01*
X191986Y320995D01*
X191917Y321072D01*
X191910Y321078D01*
X191903Y321092D01*
X191882Y321113D01*
X191862Y321148D01*
X191827Y321196D01*
X191799Y321251D01*
X191765Y321314D01*
X191730Y321390D01*
X191696Y321473D01*
X191661Y321563D01*
X191626Y321667D01*
X191599Y321784D01*
X191578Y321902D01*
X191557Y322033D01*
X191550Y322179D01*
X191543Y322331D01*
Y322338D01*
Y322365D01*
Y322407D01*
X191550Y322469D01*
X191557Y322538D01*
X191564Y322615D01*
X191571Y322705D01*
X191592Y322795D01*
X191633Y322995D01*
X191696Y323203D01*
X191737Y323307D01*
X191786Y323397D01*
X191848Y323487D01*
X191910Y323570D01*
X191917Y323576D01*
X191924Y323590D01*
X191945Y323604D01*
X191972Y323632D01*
X192014Y323667D01*
X192055Y323701D01*
X192104Y323736D01*
X192166Y323777D01*
X192228Y323812D01*
X192305Y323846D01*
X192464Y323916D01*
X192554Y323943D01*
X192651Y323957D01*
X192754Y323971D01*
X192865Y323978D01*
X192920D01*
X192962Y323971D01*
D02*
G37*
G36*
X231569Y322684D02*
X230627D01*
X230489Y322691D01*
X230344Y322698D01*
X230199Y322705D01*
X230136Y322711D01*
X230081Y322719D01*
X230026Y322732D01*
X229991Y322739D01*
X229984D01*
X229963Y322753D01*
X229929Y322767D01*
X229894Y322788D01*
X229804Y322850D01*
X229763Y322891D01*
X229721Y322940D01*
X229714Y322947D01*
X229707Y322968D01*
X229686Y322995D01*
X229666Y323037D01*
X229652Y323092D01*
X229631Y323154D01*
X229624Y323224D01*
X229617Y323300D01*
Y323314D01*
Y323341D01*
X229624Y323383D01*
X229631Y323438D01*
X229652Y323500D01*
X229673Y323563D01*
X229707Y323632D01*
X229749Y323687D01*
X229756Y323694D01*
X229769Y323715D01*
X229804Y323736D01*
X229846Y323770D01*
X229894Y323805D01*
X229956Y323833D01*
X230032Y323860D01*
X230116Y323881D01*
X230122D01*
X230143Y323888D01*
X230185D01*
X230247Y323895D01*
X230399D01*
X230462Y323902D01*
X231569D01*
Y322684D01*
D02*
G37*
G36*
Y319923D02*
X229396D01*
X230088Y320961D01*
X230095Y320968D01*
X230102Y320988D01*
X230122Y321016D01*
X230150Y321051D01*
X230178Y321092D01*
X230212Y321148D01*
X230289Y321258D01*
X230378Y321383D01*
X230462Y321494D01*
X230538Y321597D01*
X230572Y321632D01*
X230600Y321667D01*
X230607Y321673D01*
X230621Y321687D01*
X230648Y321715D01*
X230683Y321750D01*
X230731Y321777D01*
X230780Y321812D01*
X230835Y321840D01*
X230890Y321867D01*
X230897D01*
X230918Y321874D01*
X230953Y321888D01*
X231008Y321895D01*
X231077Y321909D01*
X231160Y321916D01*
X231257Y321923D01*
X231569D01*
Y319923D01*
D02*
G37*
G36*
X188817Y322684D02*
X187876D01*
X187737Y322691D01*
X187592Y322698D01*
X187447Y322705D01*
X187384Y322711D01*
X187329Y322719D01*
X187274Y322732D01*
X187239Y322739D01*
X187232D01*
X187211Y322753D01*
X187177Y322767D01*
X187142Y322788D01*
X187052Y322850D01*
X187011Y322891D01*
X186969Y322940D01*
X186962Y322947D01*
X186955Y322968D01*
X186935Y322995D01*
X186914Y323037D01*
X186900Y323092D01*
X186879Y323154D01*
X186872Y323224D01*
X186865Y323300D01*
Y323314D01*
Y323341D01*
X186872Y323383D01*
X186879Y323438D01*
X186900Y323500D01*
X186921Y323563D01*
X186955Y323632D01*
X186997Y323687D01*
X187004Y323694D01*
X187018Y323715D01*
X187052Y323736D01*
X187094Y323770D01*
X187142Y323805D01*
X187205Y323833D01*
X187281Y323860D01*
X187364Y323881D01*
X187371D01*
X187391Y323888D01*
X187433D01*
X187495Y323895D01*
X187647D01*
X187710Y323902D01*
X188817D01*
Y322684D01*
D02*
G37*
G36*
Y319923D02*
X186644D01*
X187336Y320961D01*
X187343Y320968D01*
X187350Y320988D01*
X187371Y321016D01*
X187398Y321051D01*
X187426Y321092D01*
X187461Y321148D01*
X187537Y321258D01*
X187627Y321383D01*
X187710Y321494D01*
X187786Y321597D01*
X187820Y321632D01*
X187848Y321667D01*
X187855Y321673D01*
X187869Y321687D01*
X187897Y321715D01*
X187931Y321750D01*
X187980Y321777D01*
X188028Y321812D01*
X188083Y321840D01*
X188139Y321867D01*
X188146D01*
X188166Y321874D01*
X188201Y321888D01*
X188256Y321895D01*
X188326Y321909D01*
X188409Y321916D01*
X188505Y321923D01*
X188817D01*
Y319923D01*
D02*
G37*
G36*
X202069Y324795D02*
X201999D01*
X201909Y324781D01*
X201806Y324767D01*
X201688Y324746D01*
X201564Y324718D01*
X201432Y324684D01*
X201294Y324642D01*
X201155Y324587D01*
X201010Y324525D01*
X200871Y324448D01*
X200733Y324359D01*
X200602Y324255D01*
X200477Y324137D01*
X200470Y324130D01*
X200449Y324109D01*
X200415Y324068D01*
X200380Y324019D01*
X200332Y323950D01*
X200276Y323867D01*
X200221Y323770D01*
X200159Y323660D01*
X200097Y323542D01*
X200041Y323404D01*
X199986Y323251D01*
X199937Y323092D01*
X199896Y322912D01*
X199868Y322725D01*
X199847Y322525D01*
X199840Y322310D01*
Y324801D01*
X202124D01*
X202069Y324795D01*
D02*
G37*
G36*
X202256Y323971D02*
X202311Y323964D01*
X202366Y323957D01*
X202505Y323930D01*
X202657Y323874D01*
X202740Y323846D01*
X202823Y323805D01*
X202899Y323757D01*
X202982Y323701D01*
X203058Y323639D01*
X203127Y323563D01*
X203134Y323556D01*
X203141Y323542D01*
X203162Y323521D01*
X203183Y323487D01*
X203210Y323438D01*
X203238Y323390D01*
X203273Y323327D01*
X203307Y323251D01*
X203342Y323168D01*
X203377Y323078D01*
X203404Y322974D01*
X203432Y322864D01*
X203453Y322739D01*
X203473Y322608D01*
X203480Y322469D01*
X203487Y322317D01*
Y322310D01*
Y322283D01*
Y322241D01*
X203480Y322186D01*
X203473Y322116D01*
X203467Y322033D01*
X203453Y321950D01*
X203439Y321853D01*
X203397Y321653D01*
X203328Y321452D01*
X203287Y321348D01*
X203238Y321251D01*
X203176Y321162D01*
X203114Y321078D01*
X203107Y321072D01*
X203093Y321058D01*
X203072Y321037D01*
X203044Y321016D01*
X203010Y320982D01*
X202961Y320947D01*
X202913Y320905D01*
X202851Y320871D01*
X202719Y320788D01*
X202553Y320725D01*
X202463Y320698D01*
X202366Y320677D01*
X202262Y320663D01*
X202159Y320656D01*
X202103D01*
X202062Y320663D01*
X202013Y320670D01*
X201958Y320677D01*
X201827Y320712D01*
X201674Y320760D01*
X201598Y320795D01*
X201515Y320829D01*
X201439Y320878D01*
X201356Y320933D01*
X201280Y320995D01*
X201211Y321072D01*
X201204Y321078D01*
X201197Y321092D01*
X201176Y321113D01*
X201155Y321148D01*
X201121Y321196D01*
X201093Y321251D01*
X201058Y321314D01*
X201024Y321390D01*
X200989Y321473D01*
X200955Y321563D01*
X200920Y321667D01*
X200892Y321784D01*
X200871Y321902D01*
X200851Y322033D01*
X200844Y322179D01*
X200837Y322331D01*
Y322338D01*
Y322365D01*
Y322407D01*
X200844Y322469D01*
X200851Y322538D01*
X200858Y322615D01*
X200865Y322705D01*
X200885Y322795D01*
X200927Y322995D01*
X200989Y323203D01*
X201031Y323307D01*
X201079Y323397D01*
X201141Y323487D01*
X201204Y323570D01*
X201211Y323576D01*
X201218Y323590D01*
X201238Y323604D01*
X201266Y323632D01*
X201308Y323667D01*
X201349Y323701D01*
X201397Y323736D01*
X201460Y323777D01*
X201522Y323812D01*
X201598Y323846D01*
X201757Y323916D01*
X201847Y323943D01*
X201944Y323957D01*
X202048Y323971D01*
X202159Y323978D01*
X202214D01*
X202256Y323971D01*
D02*
G37*
D10*
X78722Y63557D02*
G03*
X78875Y47155I-10010J-8295D01*
G01*
X149101Y47155D02*
G03*
X149254Y63557I10163J8107D01*
G01*
X172401Y283609D02*
G03*
X172401Y283609I-13000J0D01*
G01*
X81850D02*
G03*
X81850Y283609I-13000J0D01*
G01*
X178787Y116623D02*
X181740D01*
X178787D02*
Y126465D01*
Y177647D02*
Y187489D01*
X181740D01*
X279181Y116623D02*
Y187489D01*
X253590D02*
X279181D01*
X214323Y246830D02*
X271941D01*
X214323Y193468D02*
Y246830D01*
X271941Y192484D02*
Y246830D01*
D11*
X267008Y66395D02*
Y68795D01*
X266975Y47800D02*
Y50200D01*
D12*
X181449Y93666D02*
G03*
X181449Y93666I-394J0D01*
G01*
D13*
X165602Y100027D02*
G03*
X165602Y100027I-492J0D01*
G01*
X223445Y257626D02*
X222789Y258282D01*
Y259594D01*
X223445Y260250D01*
X226068D01*
X226724Y259594D01*
Y258282D01*
X226068Y257626D01*
X224757D01*
Y258938D01*
X226724Y256314D02*
X222789D01*
X226724Y253690D01*
X222789D01*
Y252379D02*
X226724D01*
Y250411D01*
X226068Y249755D01*
X223445D01*
X222789Y250411D01*
Y252379D01*
X214915Y260250D02*
X218850D01*
Y258282D01*
X218194Y257626D01*
X217538D01*
X216882Y258282D01*
Y260250D01*
Y258282D01*
X216227Y257626D01*
X215571D01*
X214915Y258282D01*
Y260250D01*
X210976D02*
X208353D01*
X207041Y258938D01*
X208353Y257626D01*
X210976D01*
X209009D01*
Y260250D01*
X199823D02*
X199167Y259594D01*
Y258282D01*
X199823Y257626D01*
X200479D01*
X201134Y258282D01*
Y258938D01*
Y258282D01*
X201790Y257626D01*
X202446D01*
X203102Y258282D01*
Y259594D01*
X202446Y260250D01*
X199167Y256314D02*
X201790D01*
X203102Y255002D01*
X201790Y253690D01*
X199167D01*
X199823Y252379D02*
X199167Y251723D01*
Y250411D01*
X199823Y249755D01*
X200479D01*
X201134Y250411D01*
Y251067D01*
Y250411D01*
X201790Y249755D01*
X202446D01*
X203102Y250411D01*
Y251723D01*
X202446Y252379D01*
X195228Y260250D02*
X191293D01*
X192604Y258938D01*
X191293Y257626D01*
X195228D01*
Y253690D02*
Y256314D01*
X192604Y253690D01*
X191949D01*
X191293Y254346D01*
Y255658D01*
X191949Y256314D01*
X187354Y260250D02*
X183419D01*
X184731Y258938D01*
X183419Y257626D01*
X187354D01*
Y256314D02*
Y255002D01*
Y255658D01*
X183419D01*
X184074Y256314D01*
X96324Y260250D02*
X92388D01*
X93700Y258938D01*
X92388Y257626D01*
X96324D01*
Y256314D02*
Y255002D01*
Y255659D01*
X92388D01*
X93044Y256314D01*
X104198Y260250D02*
X100262D01*
X101574Y258938D01*
X100262Y257626D01*
X104198D01*
Y253691D02*
Y256314D01*
X101574Y253691D01*
X100918D01*
X100262Y254346D01*
Y255659D01*
X100918Y256314D01*
X108792Y260250D02*
X108136Y259594D01*
Y258282D01*
X108792Y257627D01*
X109448D01*
X110104Y258282D01*
Y258938D01*
Y258282D01*
X110760Y257627D01*
X111416D01*
X112072Y258282D01*
Y259594D01*
X111416Y260250D01*
X108136Y256315D02*
X110760D01*
X112072Y255003D01*
X110760Y253691D01*
X108136D01*
X108792Y252379D02*
X108136Y251723D01*
Y250411D01*
X108792Y249755D01*
X109448D01*
X110104Y250411D01*
Y251067D01*
Y250411D01*
X110760Y249755D01*
X111416D01*
X112072Y250411D01*
Y251723D01*
X111416Y252379D01*
X119946Y260250D02*
X117322D01*
X116010Y258938D01*
X117322Y257627D01*
X119946D01*
X117978D01*
Y260250D01*
X123884D02*
X127820D01*
Y258282D01*
X127164Y257627D01*
X126508D01*
X125852Y258282D01*
Y260250D01*
Y258282D01*
X125196Y257627D01*
X124540D01*
X123884Y258282D01*
Y260250D01*
X132414Y257627D02*
X131758Y258282D01*
Y259594D01*
X132414Y260250D01*
X135038D01*
X135694Y259594D01*
Y258282D01*
X135038Y257627D01*
X133726D01*
Y258938D01*
X135694Y256315D02*
X131758D01*
X135694Y253691D01*
X131758D01*
Y252379D02*
X135694D01*
Y250411D01*
X135038Y249755D01*
X132414D01*
X131758Y250411D01*
Y252379D01*
X95225Y343190D02*
Y345813D01*
X97193D01*
X96537Y344501D01*
Y343845D01*
X97193Y343190D01*
X98505D01*
X99161Y343845D01*
Y345157D01*
X98505Y345813D01*
X95225Y341878D02*
X97849D01*
X99161Y340566D01*
X97849Y339254D01*
X95225D01*
X105881Y345813D02*
X105225Y345157D01*
Y343845D01*
X105881Y343190D01*
X106537D01*
X107193Y343845D01*
Y344501D01*
Y343845D01*
X107849Y343190D01*
X108505D01*
X109161Y343845D01*
Y345157D01*
X108505Y345813D01*
X105225Y341878D02*
X107849D01*
X109161Y340566D01*
X107849Y339254D01*
X105225D01*
X105881Y337942D02*
X105225Y337286D01*
Y335974D01*
X105881Y335318D01*
X106537D01*
X107193Y335974D01*
Y336630D01*
Y335974D01*
X107849Y335318D01*
X108505D01*
X109161Y335974D01*
Y337286D01*
X108505Y337942D01*
X115881Y343190D02*
X115225Y343845D01*
Y345157D01*
X115881Y345813D01*
X116537D01*
X117193Y345157D01*
Y343845D01*
X117849Y343190D01*
X118505D01*
X119161Y343845D01*
Y345157D01*
X118505Y345813D01*
X119161Y341878D02*
Y340566D01*
Y341222D01*
X115225D01*
X115881Y341878D01*
X125881Y343190D02*
X125225Y343845D01*
Y345157D01*
X125881Y345813D01*
X126537D01*
X127193Y345157D01*
Y343845D01*
X127849Y343190D01*
X128505D01*
X129161Y343845D01*
Y345157D01*
X128505Y345813D01*
X129161Y339254D02*
Y341878D01*
X126537Y339254D01*
X125881D01*
X125225Y339910D01*
Y341222D01*
X125881Y341878D01*
X135881Y343190D02*
X135225Y343845D01*
Y345157D01*
X135881Y345813D01*
X136537D01*
X137193Y345157D01*
Y343845D01*
X137849Y343190D01*
X138505D01*
X139161Y343845D01*
Y345157D01*
X138505Y345813D01*
X135881Y341878D02*
X135225Y341222D01*
Y339910D01*
X135881Y339254D01*
X136537D01*
X137193Y339910D01*
Y340566D01*
Y339910D01*
X137849Y339254D01*
X138505D01*
X139161Y339910D01*
Y341222D01*
X138505Y341878D01*
X145881Y343190D02*
X145225Y343845D01*
Y345157D01*
X145881Y345813D01*
X146537D01*
X147193Y345157D01*
Y343845D01*
X147849Y343190D01*
X148505D01*
X149161Y343845D01*
Y345157D01*
X148505Y345813D01*
X149161Y339910D02*
X145225D01*
X147193Y341878D01*
Y339254D01*
X155881Y343190D02*
X155225Y343845D01*
Y345157D01*
X155881Y345813D01*
X156537D01*
X157193Y345157D01*
Y343845D01*
X157849Y343190D01*
X158505D01*
X159161Y343845D01*
Y345157D01*
X158505Y345813D01*
X155225Y339254D02*
Y341878D01*
X157193D01*
X156537Y340566D01*
Y339910D01*
X157193Y339254D01*
X158505D01*
X159161Y339910D01*
Y341222D01*
X158505Y341878D01*
X165881Y343190D02*
X165225Y343845D01*
Y345157D01*
X165881Y345813D01*
X166537D01*
X167193Y345157D01*
Y343845D01*
X167849Y343190D01*
X168505D01*
X169161Y343845D01*
Y345157D01*
X168505Y345813D01*
X165225Y339254D02*
X165881Y340566D01*
X167193Y341878D01*
X168505D01*
X169161Y341222D01*
Y339910D01*
X168505Y339254D01*
X167849D01*
X167193Y339910D01*
Y341878D01*
X175881Y343190D02*
X175225Y343845D01*
Y345157D01*
X175881Y345813D01*
X176537D01*
X177193Y345157D01*
Y343845D01*
X177849Y343190D01*
X178505D01*
X179161Y343845D01*
Y345157D01*
X178505Y345813D01*
X175225Y341878D02*
Y339254D01*
X175881D01*
X178505Y341878D01*
X179161D01*
X185881Y343190D02*
X185225Y343845D01*
Y345157D01*
X185881Y345813D01*
X186537D01*
X187193Y345157D01*
Y343845D01*
X187849Y343190D01*
X188505D01*
X189161Y343845D01*
Y345157D01*
X188505Y345813D01*
X185881Y341878D02*
X185225Y341222D01*
Y339910D01*
X185881Y339254D01*
X186537D01*
X187193Y339910D01*
X187849Y339254D01*
X188505D01*
X189161Y339910D01*
Y341222D01*
X188505Y341878D01*
X187849D01*
X187193Y341222D01*
X186537Y341878D01*
X185881D01*
X187193Y341222D02*
Y339910D01*
X196001Y346500D02*
Y345500D01*
Y346000D01*
X199000D01*
Y346500D01*
Y345500D01*
Y344001D02*
X196001D01*
Y342501D01*
X196501Y342002D01*
X197501D01*
X198000Y342501D01*
Y344001D01*
Y343001D02*
X199000Y342002D01*
X199500Y341002D02*
Y339002D01*
X196001Y338003D02*
X199000D01*
Y336003D01*
X196001Y333004D02*
Y335004D01*
X199000D01*
Y333004D01*
X197501Y335004D02*
Y334004D01*
X196001Y332005D02*
X199000D01*
Y330505D01*
X198500Y330005D01*
X196501D01*
X196001Y330505D01*
Y332005D01*
X206314Y343190D02*
X205658Y343845D01*
Y345157D01*
X206314Y345813D01*
X208938D01*
X209594Y345157D01*
Y343845D01*
X208938Y343190D01*
X207626D01*
Y344501D01*
X209594Y341878D02*
X205658D01*
X209594Y339254D01*
X205658D01*
Y337942D02*
X209594D01*
Y335974D01*
X208938Y335318D01*
X206314D01*
X205658Y335974D01*
Y337942D01*
X164846Y173851D02*
Y177000D01*
X169569D01*
Y173851D01*
X167208Y177000D02*
Y175426D01*
X165633Y169129D02*
X164846Y169916D01*
Y171490D01*
X165633Y172277D01*
X166421D01*
X167208Y171490D01*
Y169916D01*
X167995Y169129D01*
X168782D01*
X169569Y169916D01*
Y171490D01*
X168782Y172277D01*
X169569Y167554D02*
X164846D01*
Y165193D01*
X165633Y164406D01*
X167208D01*
X167995Y165193D01*
Y167554D01*
X165633Y162831D02*
X164846Y162044D01*
Y160470D01*
X165633Y159683D01*
X166421D01*
X167208Y160470D01*
Y161257D01*
Y160470D01*
X167995Y159683D01*
X168782D01*
X169569Y160470D01*
Y162044D01*
X168782Y162831D01*
X169569Y154960D02*
Y158108D01*
X166421Y154960D01*
X165633D01*
X164846Y155747D01*
Y157321D01*
X165633Y158108D01*
X167208Y153386D02*
Y150237D01*
X164846Y148663D02*
X169569D01*
X167995Y147088D01*
X169569Y145514D01*
X164846D01*
X169569Y143940D02*
X164846D01*
Y141578D01*
X165633Y140791D01*
X167208D01*
X167995Y141578D01*
Y143940D01*
Y142366D02*
X169569Y140791D01*
X164846Y136855D02*
Y138430D01*
X165633Y139217D01*
X168782D01*
X169569Y138430D01*
Y136855D01*
X168782Y136068D01*
X165633D01*
X164846Y136855D01*
Y132133D02*
Y133707D01*
X165633Y134494D01*
X168782D01*
X169569Y133707D01*
Y132133D01*
X168782Y131345D01*
X165633D01*
X164846Y132133D01*
X169569Y129771D02*
X164846D01*
X166421Y128197D01*
X164846Y126623D01*
X169569D01*
X209402Y236382D02*
X204679D01*
X206253Y234808D01*
X204679Y233233D01*
X209402D01*
X204679Y231659D02*
Y230085D01*
Y230872D01*
X209402D01*
Y231659D01*
Y230085D01*
X205466Y224575D02*
X204679Y225362D01*
Y226936D01*
X205466Y227723D01*
X208614D01*
X209402Y226936D01*
Y225362D01*
X208614Y224575D01*
X209402Y223000D02*
X204679D01*
Y220639D01*
X205466Y219852D01*
X207040D01*
X207827Y220639D01*
Y223000D01*
Y221426D02*
X209402Y219852D01*
X204679Y215916D02*
Y217490D01*
X205466Y218278D01*
X208614D01*
X209402Y217490D01*
Y215916D01*
X208614Y215129D01*
X205466D01*
X204679Y215916D01*
X205466Y205683D02*
X204679Y206470D01*
Y208045D01*
X205466Y208832D01*
X206253D01*
X207040Y208045D01*
Y206470D01*
X207827Y205683D01*
X208614D01*
X209402Y206470D01*
Y208045D01*
X208614Y208832D01*
X204679Y204109D02*
X209402D01*
Y201747D01*
X208614Y200960D01*
X205466D01*
X204679Y201747D01*
Y204109D01*
X32000Y348876D02*
Y351500D01*
X29376Y348876D01*
X28720D01*
X28064Y349532D01*
Y350844D01*
X28720Y351500D01*
X28064Y344940D02*
X28720Y346252D01*
X30032Y347564D01*
X31344D01*
X32000Y346908D01*
Y345596D01*
X31344Y344940D01*
X30688D01*
X30032Y345596D01*
Y347564D01*
X28720Y343629D02*
X28064Y342973D01*
Y341661D01*
X28720Y341005D01*
X31344D01*
X32000Y341661D01*
Y342973D01*
X31344Y343629D01*
X28720D01*
Y339693D02*
X28064Y339037D01*
Y337725D01*
X28720Y337069D01*
X31344D01*
X32000Y337725D01*
Y339037D01*
X31344Y339693D01*
X28720D01*
X29376Y335757D02*
X32000Y333133D01*
X30688Y334445D01*
X29376Y333133D01*
X32000Y335757D01*
X28720Y331821D02*
X28064Y331165D01*
Y329853D01*
X28720Y329198D01*
X29376D01*
X30032Y329853D01*
Y330509D01*
Y329853D01*
X30688Y329198D01*
X31344D01*
X32000Y329853D01*
Y331165D01*
X31344Y331821D01*
X28720Y327886D02*
X28064Y327230D01*
Y325918D01*
X28720Y325262D01*
X29376D01*
X30032Y325918D01*
Y326574D01*
Y325918D01*
X30688Y325262D01*
X31344D01*
X32000Y325918D01*
Y327230D01*
X31344Y327886D01*
X28720Y323950D02*
X28064Y323294D01*
Y321982D01*
X28720Y321326D01*
X31344D01*
X32000Y321982D01*
Y323294D01*
X31344Y323950D01*
X28720D01*
Y320014D02*
X28064Y319358D01*
Y318046D01*
X28720Y317390D01*
X31344D01*
X32000Y318046D01*
Y319358D01*
X31344Y320014D01*
X28720D01*
X32000Y316078D02*
X29376D01*
Y315422D01*
X30032Y314766D01*
X32000D01*
X30032D01*
X29376Y314110D01*
X30032Y313455D01*
X32000D01*
Y312143D02*
Y310831D01*
Y311487D01*
X29376D01*
Y312143D01*
X32000Y308863D02*
Y307551D01*
Y308207D01*
X28064D01*
Y308863D01*
X105661Y45764D02*
X105006Y46420D01*
X103694D01*
X103038Y45764D01*
Y45108D01*
X103694Y44452D01*
X104350D01*
X103694D01*
X103038Y43796D01*
Y43140D01*
X103694Y42484D01*
X105006D01*
X105661Y43140D01*
X101726Y44452D02*
X99102D01*
X97790Y42484D02*
X96478D01*
X97134D01*
Y46420D01*
X97790Y45764D01*
X91886Y42484D02*
X94510D01*
X91886Y45108D01*
Y45764D01*
X92542Y46420D01*
X93854D01*
X94510Y45764D01*
X90574Y46420D02*
Y43796D01*
X89262Y42484D01*
X87951Y43796D01*
Y46420D01*
D14*
X257543Y111056D02*
G03*
X257543Y111056I-1000J0D01*
G01*
D17*
X151009Y74981D02*
X152191D01*
X151009Y72619D02*
X152191D01*
X151055Y79481D02*
X152236D01*
X151055Y77119D02*
X152236D01*
X183500Y94000D02*
X194500D01*
X183500Y89000D02*
X194500D01*
X183500D02*
Y94000D01*
X194500Y89000D02*
Y94000D01*
X160976Y83491D02*
X162551D01*
Y85066D01*
X145425Y83491D02*
X147000D01*
X145425D02*
Y85066D01*
Y99042D02*
Y100617D01*
X147000D01*
X160976D02*
X162551D01*
Y99042D02*
Y100617D01*
X130858Y45521D02*
X132039D01*
X130858Y43159D02*
X132039D01*
X130858Y48193D02*
X132039D01*
X130858Y50555D02*
X132039D01*
X209402Y46024D02*
X210583D01*
X209402Y48386D02*
X210583D01*
X273726Y111972D02*
Y113154D01*
X271364Y111972D02*
Y113154D01*
X267905Y111978D02*
Y113159D01*
X265543Y111978D02*
Y113159D01*
X252715Y90646D02*
X253896D01*
X252715Y88283D02*
X253896D01*
X241459Y109219D02*
X242640D01*
X241459Y111581D02*
X242640D01*
X134205Y196170D02*
X135386D01*
X134205Y198532D02*
X135386D01*
X173954Y194059D02*
Y195240D01*
X176316Y194059D02*
Y195240D01*
X134205Y193468D02*
X135386D01*
X134205Y191106D02*
X135386D01*
X173451Y182118D02*
Y183299D01*
X175813Y182118D02*
Y183299D01*
X165582Y77327D02*
X166763D01*
X165582Y74965D02*
X166763D01*
X156027Y111381D02*
X157209D01*
X156027Y109019D02*
X157209D01*
X129909Y70702D02*
X131091D01*
X129909Y68340D02*
X131091D01*
X129909Y65700D02*
X131091D01*
X129909Y63338D02*
X131091D01*
X165382Y79365D02*
X166563D01*
X165382Y81727D02*
X166563D01*
X140110Y205319D02*
Y210437D01*
X137380Y210437D02*
X140110Y210437D01*
X129480D02*
X129480Y205319D01*
X129480Y210437D02*
X132210Y210437D01*
X181988Y192484D02*
X187106D01*
X187106Y195214D01*
X181988Y203114D02*
X187106Y203114D01*
X187106Y200384D01*
X182000Y306600D02*
Y326600D01*
X122000Y306600D02*
Y326600D01*
Y306600D02*
X182000D01*
X122000Y326600D02*
X182000D01*
X58850Y69435D02*
X78850D01*
Y269435D01*
X58850D02*
X78850D01*
X58850Y251935D02*
Y269435D01*
Y69435D02*
Y251935D01*
X99500Y348500D02*
X212000D01*
X92000D02*
X99500D01*
X92000D02*
Y358500D01*
X212000D01*
Y348500D02*
Y358500D01*
X180661Y99383D02*
Y100564D01*
X178299Y99383D02*
Y100564D01*
X252715Y86322D02*
X253896D01*
X252715Y83960D02*
X253896D01*
X113409Y88413D02*
X114591D01*
X113409Y90775D02*
X114591D01*
X139902Y96856D02*
Y100856D01*
X128902Y96856D02*
Y100856D01*
X143378Y117409D02*
Y118591D01*
X141016Y117409D02*
Y118591D01*
X148848Y117002D02*
Y118183D01*
X146486Y117002D02*
Y118183D01*
X122089Y204181D02*
X123270D01*
X122089Y201819D02*
X123270D01*
D18*
X110000Y92055D02*
Y109555D01*
X127000Y91555D02*
Y109555D01*
X91154Y61981D02*
X96153D01*
X91154Y68981D02*
X96153D01*
D20*
X145169Y68306D02*
X145569Y68705D01*
X146369D01*
X146768Y68306D01*
Y66706D01*
X146369Y66306D01*
X145569D01*
X145169Y66706D01*
X142770Y68705D02*
X143570Y68306D01*
X144369Y67506D01*
Y66706D01*
X143969Y66306D01*
X143170D01*
X142770Y66706D01*
Y67106D01*
X143170Y67506D01*
X144369D01*
X280600Y196600D02*
Y198999D01*
X279800Y198199D01*
X279000Y198999D01*
Y196600D01*
X278201D02*
X277401D01*
X277801D01*
Y198999D01*
X278201Y198599D01*
X246157Y85231D02*
X246557Y85631D01*
X247357D01*
X247756Y85231D01*
Y83631D01*
X247357Y83231D01*
X246557D01*
X246157Y83631D01*
X243758Y83231D02*
X245357D01*
X243758Y84831D01*
Y85231D01*
X244158Y85631D01*
X244957D01*
X245357Y85231D01*
X242958D02*
X242558Y85631D01*
X241758D01*
X241358Y85231D01*
Y83631D01*
X241758Y83231D01*
X242558D01*
X242958Y83631D01*
Y85231D01*
X163852Y298173D02*
Y300572D01*
X163052Y299773D01*
X162252Y300572D01*
Y298173D01*
X160253Y300572D02*
X161053D01*
X161453Y300172D01*
Y298573D01*
X161053Y298173D01*
X160253D01*
X159853Y298573D01*
Y300172D01*
X160253Y300572D01*
X159054D02*
Y298173D01*
X157854D01*
X157454Y298573D01*
Y300172D01*
X157854Y300572D01*
X159054D01*
X156654Y298173D02*
X155855D01*
X156254D01*
Y300572D01*
X156654Y300172D01*
X181210Y302886D02*
Y305286D01*
X180011D01*
X179611Y304886D01*
Y304086D01*
X180011Y303686D01*
X181210D01*
X177212Y305286D02*
X178811D01*
Y304086D01*
X178011Y304486D01*
X177611D01*
X177212Y304086D01*
Y303286D01*
X177611Y302886D01*
X178411D01*
X178811Y303286D01*
X269601Y252112D02*
Y252912D01*
Y252512D01*
X271600D01*
X272000Y252912D01*
Y253312D01*
X271600Y253712D01*
X272000Y249713D02*
Y251312D01*
X270401Y249713D01*
X270001D01*
X269601Y250113D01*
Y250912D01*
X270001Y251312D01*
X230141Y111983D02*
Y109583D01*
X231341D01*
X231741Y109983D01*
Y110783D01*
X231341Y111183D01*
X230141D01*
X230941D02*
X231741Y111983D01*
X234140D02*
X232540D01*
X234140Y110383D01*
Y109983D01*
X233740Y109583D01*
X232940D01*
X232540Y109983D01*
X236139Y111983D02*
Y109583D01*
X234940Y110783D01*
X236539D01*
X145098Y42739D02*
Y45138D01*
X143898D01*
X143498Y44738D01*
Y43939D01*
X143898Y43539D01*
X145098D01*
X144298D02*
X143498Y42739D01*
X141099Y45138D02*
X141899Y44738D01*
X142698Y43939D01*
Y43139D01*
X142298Y42739D01*
X141499D01*
X141099Y43139D01*
Y43539D01*
X141499Y43939D01*
X142698D01*
X140299Y44738D02*
X139899Y45138D01*
X139100D01*
X138700Y44738D01*
Y44338D01*
X139100Y43939D01*
X138700Y43539D01*
Y43139D01*
X139100Y42739D01*
X139899D01*
X140299Y43139D01*
Y43539D01*
X139899Y43939D01*
X140299Y44338D01*
Y44738D01*
X139899Y43939D02*
X139100D01*
X144769Y47799D02*
Y50198D01*
X143570D01*
X143170Y49799D01*
Y48999D01*
X143570Y48599D01*
X144769D01*
X143969D02*
X143170Y47799D01*
X140770Y50198D02*
X141570Y49799D01*
X142370Y48999D01*
Y48199D01*
X141970Y47799D01*
X141170D01*
X140770Y48199D01*
Y48599D01*
X141170Y48999D01*
X142370D01*
X139971Y49799D02*
X139571Y50198D01*
X138771D01*
X138371Y49799D01*
Y49399D01*
X138771Y48999D01*
X139171D01*
X138771D01*
X138371Y48599D01*
Y48199D01*
X138771Y47799D01*
X139571D01*
X139971Y48199D01*
X148236Y124417D02*
X148636Y124017D01*
Y123217D01*
X148236Y122817D01*
X146636D01*
X146236Y123217D01*
Y124017D01*
X146636Y124417D01*
X146236Y125216D02*
Y126016D01*
Y125616D01*
X148636D01*
X148236Y125216D01*
X138703Y116100D02*
X139103Y115700D01*
Y114900D01*
X138703Y114500D01*
X137104D01*
X136704Y114900D01*
Y115700D01*
X137104Y116100D01*
X136704Y118499D02*
Y116899D01*
X138303Y118499D01*
X138703D01*
X139103Y118099D01*
Y117299D01*
X138703Y116899D01*
X115511Y85841D02*
X115911Y86241D01*
X116711D01*
X117111Y85841D01*
Y84241D01*
X116711Y83842D01*
X115911D01*
X115511Y84241D01*
X113512Y83842D02*
Y86241D01*
X114711Y85041D01*
X113112D01*
X107999Y63599D02*
X108399Y63200D01*
Y62400D01*
X107999Y62000D01*
X106400D01*
X106000Y62400D01*
Y63200D01*
X106400Y63599D01*
X108399Y65999D02*
Y64399D01*
X107200D01*
X107599Y65199D01*
Y65599D01*
X107200Y65999D01*
X106400D01*
X106000Y65599D01*
Y64799D01*
X106400Y64399D01*
X121453Y114399D02*
Y112000D01*
X119853D01*
X119053D02*
X118254D01*
X118654D01*
Y114399D01*
X119053Y113999D01*
X178270Y79423D02*
Y81823D01*
X177070D01*
X176670Y81423D01*
Y80623D01*
X177070Y80223D01*
X178270D01*
X177470D02*
X176670Y79423D01*
X174271D02*
X175871D01*
X174271Y81023D01*
Y81423D01*
X174671Y81823D01*
X175471D01*
X175871Y81423D01*
X146486Y70900D02*
Y73299D01*
X145287D01*
X144887Y72899D01*
Y72100D01*
X145287Y71700D01*
X146486D01*
X145686D02*
X144887Y70900D01*
X144087Y72899D02*
X143687Y73299D01*
X142887D01*
X142488Y72899D01*
Y72500D01*
X142887Y72100D01*
X142488Y71700D01*
Y71300D01*
X142887Y70900D01*
X143687D01*
X144087Y71300D01*
Y71700D01*
X143687Y72100D01*
X144087Y72500D01*
Y72899D01*
X143687Y72100D02*
X142887D01*
X168400Y69900D02*
Y72299D01*
X167200D01*
X166800Y71899D01*
Y71100D01*
X167200Y70700D01*
X168400D01*
X167600D02*
X166800Y69900D01*
X166001Y70300D02*
X165601Y69900D01*
X164801D01*
X164401Y70300D01*
Y71899D01*
X164801Y72299D01*
X165601D01*
X166001Y71899D01*
Y71500D01*
X165601Y71100D01*
X164401D01*
X203299Y45732D02*
Y48131D01*
X202100D01*
X201700Y47732D01*
Y46932D01*
X202100Y46532D01*
X203299D01*
X202500D02*
X201700Y45732D01*
X200900Y47732D02*
X200500Y48131D01*
X199700D01*
X199301Y47732D01*
Y47332D01*
X199700Y46932D01*
X200100D01*
X199700D01*
X199301Y46532D01*
Y46132D01*
X199700Y45732D01*
X200500D01*
X200900Y46132D01*
X196901Y48131D02*
X198501D01*
Y46932D01*
X197701Y47332D01*
X197301D01*
X196901Y46932D01*
Y46132D01*
X197301Y45732D01*
X198101D01*
X198501Y46132D01*
X168100Y86848D02*
X166101D01*
X165701Y87248D01*
Y88047D01*
X166101Y88447D01*
X168100D01*
X165701Y89247D02*
Y90047D01*
Y89647D01*
X168100D01*
X167700Y89247D01*
X123500Y64500D02*
Y66899D01*
X122300D01*
X121900Y66499D01*
Y65700D01*
X122300Y65300D01*
X123500D01*
X122700D02*
X121900Y64500D01*
X121101Y66499D02*
X120701Y66899D01*
X119901D01*
X119501Y66499D01*
Y66100D01*
X119901Y65700D01*
X120301D01*
X119901D01*
X119501Y65300D01*
Y64900D01*
X119901Y64500D01*
X120701D01*
X121101Y64900D01*
X123500Y68340D02*
Y70739D01*
X122300D01*
X121900Y70340D01*
Y69540D01*
X122300Y69140D01*
X123500D01*
X122700D02*
X121900Y68340D01*
X119901D02*
Y70739D01*
X121101Y69540D01*
X119501D01*
X162937Y112997D02*
Y115396D01*
X161737D01*
X161337Y114996D01*
Y114197D01*
X161737Y113797D01*
X162937D01*
X162137D02*
X161337Y112997D01*
X158938Y115396D02*
X160538D01*
Y114197D01*
X159738Y114596D01*
X159338D01*
X158938Y114197D01*
Y113397D01*
X159338Y112997D01*
X160138D01*
X160538Y113397D01*
X270545Y100358D02*
X272944D01*
Y101558D01*
X272544Y101958D01*
X271744D01*
X271344Y101558D01*
Y100358D01*
Y101158D02*
X270545Y101958D01*
X272544Y102758D02*
X272944Y103157D01*
Y103957D01*
X272544Y104357D01*
X272144D01*
X271744Y103957D01*
Y103557D01*
Y103957D01*
X271344Y104357D01*
X270945D01*
X270545Y103957D01*
Y103157D01*
X270945Y102758D01*
X272544Y105157D02*
X272944Y105557D01*
Y106356D01*
X272544Y106756D01*
X270945D01*
X270545Y106356D01*
Y105557D01*
X270945Y105157D01*
X272544D01*
X264034Y100364D02*
X266433D01*
Y101564D01*
X266034Y101963D01*
X265234D01*
X264834Y101564D01*
Y100364D01*
Y101164D02*
X264034Y101963D01*
Y104363D02*
Y102763D01*
X265634Y104363D01*
X266034D01*
X266433Y103963D01*
Y103163D01*
X266034Y102763D01*
X264434Y105162D02*
X264034Y105562D01*
Y106362D01*
X264434Y106762D01*
X266034D01*
X266433Y106362D01*
Y105562D01*
X266034Y105162D01*
X265634D01*
X265234Y105562D01*
Y106762D01*
X174968Y97357D02*
X175367Y96957D01*
Y96157D01*
X174968Y95757D01*
X173368D01*
X172968Y96157D01*
Y96957D01*
X173368Y97357D01*
X172968Y99756D02*
Y98156D01*
X174568Y99756D01*
X174968D01*
X175367Y99356D01*
Y98556D01*
X174968Y98156D01*
X172968Y100556D02*
Y101355D01*
Y100955D01*
X175367D01*
X174968Y100556D01*
X136285Y87329D02*
X136685Y87729D01*
X137485D01*
X137885Y87329D01*
Y85730D01*
X137485Y85330D01*
X136685D01*
X136285Y85730D01*
X135486Y87329D02*
X135086Y87729D01*
X134286D01*
X133886Y87329D01*
Y86930D01*
X134286Y86530D01*
X134686D01*
X134286D01*
X133886Y86130D01*
Y85730D01*
X134286Y85330D01*
X135086D01*
X135486Y85730D01*
X200928Y88976D02*
X198929D01*
X198529Y89376D01*
Y90175D01*
X198929Y90575D01*
X200928D01*
X200529Y91375D02*
X200928Y91775D01*
Y92575D01*
X200529Y92974D01*
X200129D01*
X199729Y92575D01*
Y92175D01*
Y92575D01*
X199329Y92974D01*
X198929D01*
X198529Y92575D01*
Y91775D01*
X198929Y91375D01*
X187001Y207200D02*
Y208799D01*
X187400Y209199D01*
X188200D01*
X188600Y208799D01*
Y207200D01*
X188200Y206800D01*
X187400D01*
X187800Y207600D02*
X187001Y206800D01*
X187400D02*
X187001Y207200D01*
X186201Y206800D02*
X185401D01*
X185801D01*
Y209199D01*
X186201Y208799D01*
X138101Y216000D02*
Y217599D01*
X138500Y217999D01*
X139300D01*
X139700Y217599D01*
Y216000D01*
X139300Y215600D01*
X138500D01*
X138900Y216400D02*
X138101Y215600D01*
X138500D02*
X138101Y216000D01*
X135701Y215600D02*
X137301D01*
X135701Y217199D01*
Y217599D01*
X136101Y217999D01*
X136901D01*
X137301Y217599D01*
X168277Y179732D02*
X170676D01*
Y180931D01*
X170276Y181331D01*
X169477D01*
X169077Y180931D01*
Y179732D01*
Y180532D02*
X168277Y181331D01*
Y182131D02*
Y182931D01*
Y182531D01*
X170676D01*
X170276Y182131D01*
X170676Y185730D02*
Y184130D01*
X169477D01*
X169877Y184930D01*
Y185330D01*
X169477Y185730D01*
X168677D01*
X168277Y185330D01*
Y184530D01*
X168677Y184130D01*
X148000Y191106D02*
Y193506D01*
X146800D01*
X146400Y193106D01*
Y192306D01*
X146800Y191906D01*
X148000D01*
X147200D02*
X146400Y191106D01*
X145601D02*
X144801D01*
X145201D01*
Y193506D01*
X145601Y193106D01*
X142002Y193506D02*
X142802Y193106D01*
X143601Y192306D01*
Y191506D01*
X143202Y191106D01*
X142402D01*
X142002Y191506D01*
Y191906D01*
X142402Y192306D01*
X143601D01*
X169769Y191500D02*
X172169D01*
Y192700D01*
X171769Y193099D01*
X170969D01*
X170569Y192700D01*
Y191500D01*
Y192300D02*
X169769Y193099D01*
Y193899D02*
Y194699D01*
Y194299D01*
X172169D01*
X171769Y193899D01*
Y195899D02*
X172169Y196298D01*
Y197098D01*
X171769Y197498D01*
X171369D01*
X170969Y197098D01*
X170569Y197498D01*
X170169D01*
X169769Y197098D01*
Y196298D01*
X170169Y195899D01*
X170569D01*
X170969Y196298D01*
X171369Y195899D01*
X171769D01*
X170969Y196298D02*
Y197098D01*
X148000Y196000D02*
Y198399D01*
X146800D01*
X146400Y197999D01*
Y197200D01*
X146800Y196800D01*
X148000D01*
X147200D02*
X146400Y196000D01*
X145601D02*
X144801D01*
X145201D01*
Y198399D01*
X145601Y197999D01*
X143601Y196400D02*
X143202Y196000D01*
X142402D01*
X142002Y196400D01*
Y197999D01*
X142402Y198399D01*
X143202D01*
X143601Y197999D01*
Y197599D01*
X143202Y197200D01*
X142002D01*
X269329Y42531D02*
Y44930D01*
X268129D01*
X267729Y44531D01*
Y43731D01*
X268129Y43331D01*
X269329D01*
X268529D02*
X267729Y42531D01*
X266930Y44531D02*
X266530Y44930D01*
X265730D01*
X265330Y44531D01*
Y44131D01*
X265730Y43731D01*
X266130D01*
X265730D01*
X265330Y43331D01*
Y42931D01*
X265730Y42531D01*
X266530D01*
X266930Y42931D01*
X264530Y44531D02*
X264130Y44930D01*
X263331D01*
X262931Y44531D01*
Y44131D01*
X263331Y43731D01*
X262931Y43331D01*
Y42931D01*
X263331Y42531D01*
X264130D01*
X264530Y42931D01*
Y43331D01*
X264130Y43731D01*
X264530Y44131D01*
Y44531D01*
X264130Y43731D02*
X263331D01*
X269400Y72200D02*
Y74599D01*
X268200D01*
X267800Y74199D01*
Y73400D01*
X268200Y73000D01*
X269400D01*
X268600D02*
X267800Y72200D01*
X267001Y74199D02*
X266601Y74599D01*
X265801D01*
X265401Y74199D01*
Y73800D01*
X265801Y73400D01*
X266201D01*
X265801D01*
X265401Y73000D01*
Y72600D01*
X265801Y72200D01*
X266601D01*
X267001Y72600D01*
X264602D02*
X264202Y72200D01*
X263402D01*
X263002Y72600D01*
Y74199D01*
X263402Y74599D01*
X264202D01*
X264602Y74199D01*
Y73800D01*
X264202Y73400D01*
X263002D01*
X218361Y349509D02*
Y348709D01*
Y349109D01*
X216362D01*
X215962Y348709D01*
Y348309D01*
X216362Y347909D01*
X218361Y351908D02*
X217961Y351108D01*
X217162Y350308D01*
X216362D01*
X215962Y350708D01*
Y351508D01*
X216362Y351908D01*
X216762D01*
X217162Y351508D01*
Y350308D01*
M02*
