G04*
G04 #@! TF.GenerationSoftware,Altium Limited,Altium Designer,21.0.8 (223)*
G04*
G04 Layer_Color=8388736*
%FSLAX25Y25*%
%MOIN*%
G70*
G04*
G04 #@! TF.SameCoordinates,C8F2EFAD-F301-47D2-81E3-A82B1A8C5C35*
G04*
G04*
G04 #@! TF.FilePolarity,Negative*
G04*
G01*
G75*
%ADD87R,0.02850X0.01550*%
%ADD88R,0.03950X0.03950*%
%ADD89R,0.03950X0.03753*%
%ADD90R,0.03753X0.03950*%
%ADD91R,0.06509X0.10839*%
%ADD92R,0.07887X0.05524*%
%ADD93R,0.04737X0.07099*%
G04:AMPARAMS|DCode=94|XSize=17.84mil|YSize=31.62mil|CornerRadius=8.92mil|HoleSize=0mil|Usage=FLASHONLY|Rotation=90.000|XOffset=0mil|YOffset=0mil|HoleType=Round|Shape=RoundedRectangle|*
%AMROUNDEDRECTD94*
21,1,0.01784,0.01378,0,0,90.0*
21,1,0.00000,0.03162,0,0,90.0*
1,1,0.01784,0.00689,0.00000*
1,1,0.01784,0.00689,0.00000*
1,1,0.01784,-0.00689,0.00000*
1,1,0.01784,-0.00689,0.00000*
%
%ADD94ROUNDEDRECTD94*%
%ADD95O,0.01981X0.07099*%
%ADD96R,0.02769X0.02572*%
G04:AMPARAMS|DCode=97|XSize=76.9mil|YSize=106.42mil|CornerRadius=7.45mil|HoleSize=0mil|Usage=FLASHONLY|Rotation=180.000|XOffset=0mil|YOffset=0mil|HoleType=Round|Shape=RoundedRectangle|*
%AMROUNDEDRECTD97*
21,1,0.07690,0.09153,0,0,180.0*
21,1,0.06201,0.10642,0,0,180.0*
1,1,0.01489,-0.03100,0.04577*
1,1,0.01489,0.03100,0.04577*
1,1,0.01489,0.03100,-0.04577*
1,1,0.01489,-0.03100,-0.04577*
%
%ADD97ROUNDEDRECTD97*%
%ADD98R,0.02572X0.02769*%
G04:AMPARAMS|DCode=99|XSize=76.9mil|YSize=106.42mil|CornerRadius=7.45mil|HoleSize=0mil|Usage=FLASHONLY|Rotation=90.000|XOffset=0mil|YOffset=0mil|HoleType=Round|Shape=RoundedRectangle|*
%AMROUNDEDRECTD99*
21,1,0.07690,0.09153,0,0,90.0*
21,1,0.06201,0.10642,0,0,90.0*
1,1,0.01489,0.04577,0.03100*
1,1,0.01489,0.04577,-0.03100*
1,1,0.01489,-0.04577,-0.03100*
1,1,0.01489,-0.04577,0.03100*
%
%ADD99ROUNDEDRECTD99*%
%ADD100O,0.01654X0.03701*%
%ADD101R,0.09016X0.07244*%
%ADD102R,0.13753X0.10288*%
%ADD103O,0.02572X0.06312*%
%ADD104O,0.07099X0.01981*%
%ADD105R,0.03556X0.02375*%
%ADD106R,0.02178X0.02769*%
G04:AMPARAMS|DCode=107|XSize=31.62mil|YSize=17.06mil|CornerRadius=8.53mil|HoleSize=0mil|Usage=FLASHONLY|Rotation=0.000|XOffset=0mil|YOffset=0mil|HoleType=Round|Shape=RoundedRectangle|*
%AMROUNDEDRECTD107*
21,1,0.03162,0.00000,0,0,0.0*
21,1,0.01456,0.01706,0,0,0.0*
1,1,0.01706,0.00728,0.00000*
1,1,0.01706,-0.00728,0.00000*
1,1,0.01706,-0.00728,0.00000*
1,1,0.01706,0.00728,0.00000*
%
%ADD107ROUNDEDRECTD107*%
G04:AMPARAMS|DCode=108|XSize=31.62mil|YSize=17.06mil|CornerRadius=8.53mil|HoleSize=0mil|Usage=FLASHONLY|Rotation=270.000|XOffset=0mil|YOffset=0mil|HoleType=Round|Shape=RoundedRectangle|*
%AMROUNDEDRECTD108*
21,1,0.03162,0.00000,0,0,270.0*
21,1,0.01456,0.01706,0,0,270.0*
1,1,0.01706,0.00000,-0.00728*
1,1,0.01706,0.00000,0.00728*
1,1,0.01706,0.00000,0.00728*
1,1,0.01706,0.00000,-0.00728*
%
%ADD108ROUNDEDRECTD108*%
%ADD109O,0.01981X0.07887*%
%ADD110O,0.07887X0.01981*%
%ADD111R,0.08800X0.06300*%
%ADD112R,0.06706X0.05131*%
%ADD113R,0.03950X0.07493*%
%ADD114R,0.07493X0.03950*%
%ADD115R,0.07200X0.07800*%
%ADD116R,0.04400X0.04400*%
%ADD117R,0.04400X0.05800*%
%ADD118R,0.04400X0.04400*%
%ADD119R,0.05800X0.04400*%
%ADD120R,0.03792X0.10249*%
%ADD121R,0.14200X0.04600*%
%ADD122R,0.04147X0.01981*%
%ADD123R,0.04700X0.04800*%
%ADD124R,0.03950X0.03950*%
%ADD125R,0.02965X0.04147*%
%ADD126R,0.07493X0.04737*%
%ADD127R,0.07493X0.04737*%
%ADD128R,0.05524X0.06706*%
%ADD129R,0.06300X0.11036*%
%ADD130R,0.07800X0.07200*%
%ADD131R,0.06200X0.12800*%
%ADD132R,0.02150X0.06115*%
%ADD133R,0.06115X0.02150*%
%ADD134O,0.10642X0.03556*%
%ADD135O,0.10249X0.03556*%
%ADD136C,0.08674*%
%ADD137C,0.09800*%
%ADD138C,0.06706*%
%ADD139R,0.06706X0.06706*%
%ADD140R,0.06706X0.06706*%
%ADD141C,0.24422*%
%ADD142O,0.08674X0.06706*%
%ADD143R,0.08674X0.06706*%
%ADD144C,0.05524*%
%ADD145C,0.03398*%
%ADD146O,0.03084X0.04737*%
%ADD147C,0.07887*%
%ADD148P,0.09483X4X90.0*%
%ADD149C,0.00800*%
%ADD150O,0.06300X0.07800*%
D87*
X156679Y131620D02*
D03*
Y136370D02*
D03*
Y134795D02*
D03*
Y133207D02*
D03*
X145029D02*
D03*
Y134795D02*
D03*
Y136370D02*
D03*
Y131620D02*
D03*
X113262Y131818D02*
D03*
Y136568D02*
D03*
Y134993D02*
D03*
Y133406D02*
D03*
X101612D02*
D03*
Y134993D02*
D03*
Y136568D02*
D03*
Y131818D02*
D03*
D88*
X219909Y136921D02*
D03*
X214003D02*
D03*
X198817Y132150D02*
D03*
X204723D02*
D03*
X87525Y120240D02*
D03*
X93430D02*
D03*
X167492Y260365D02*
D03*
X173397D02*
D03*
X167465Y254459D02*
D03*
X173370D02*
D03*
X276670Y119707D02*
D03*
X270765D02*
D03*
D89*
X214028Y127494D02*
D03*
Y133203D02*
D03*
X208969Y126908D02*
D03*
Y132616D02*
D03*
X266211Y115520D02*
D03*
Y121228D02*
D03*
X29985Y301047D02*
D03*
Y306756D02*
D03*
X128351Y180575D02*
D03*
Y174866D02*
D03*
X205858Y296578D02*
D03*
Y290869D02*
D03*
X165701Y122504D02*
D03*
Y128213D02*
D03*
X122830Y147514D02*
D03*
Y153222D02*
D03*
X117712D02*
D03*
Y147514D02*
D03*
X112594D02*
D03*
Y153222D02*
D03*
X84205Y200850D02*
D03*
Y206559D02*
D03*
X84214Y197504D02*
D03*
Y191795D02*
D03*
X168797Y347534D02*
D03*
Y341825D02*
D03*
X243601Y152347D02*
D03*
Y146638D02*
D03*
X248017Y152169D02*
D03*
Y146460D02*
D03*
X194244Y111386D02*
D03*
Y105677D02*
D03*
X223000Y218590D02*
D03*
Y212881D02*
D03*
X164085Y176638D02*
D03*
Y170929D02*
D03*
X171561Y122515D02*
D03*
Y128223D02*
D03*
X166656Y115323D02*
D03*
Y109614D02*
D03*
X182649Y290869D02*
D03*
Y296578D02*
D03*
X231000Y293209D02*
D03*
Y287500D02*
D03*
X160500Y133646D02*
D03*
Y139354D02*
D03*
X183456Y81388D02*
D03*
Y87097D02*
D03*
X112157Y189433D02*
D03*
Y195142D02*
D03*
X101528D02*
D03*
Y189433D02*
D03*
X185189Y248636D02*
D03*
Y242927D02*
D03*
X208811Y344597D02*
D03*
Y338888D02*
D03*
X76000Y327646D02*
D03*
Y333354D02*
D03*
X256252Y300260D02*
D03*
Y294551D02*
D03*
X251134Y300260D02*
D03*
Y294551D02*
D03*
X258308Y241784D02*
D03*
Y247493D02*
D03*
X258592Y257534D02*
D03*
Y251825D02*
D03*
X262513Y257534D02*
D03*
Y251825D02*
D03*
X247814Y237213D02*
D03*
Y231504D02*
D03*
X243484Y237213D02*
D03*
Y231504D02*
D03*
X220005Y145954D02*
D03*
Y140245D02*
D03*
X165049Y236087D02*
D03*
Y230378D02*
D03*
X212179Y185102D02*
D03*
Y190811D02*
D03*
X200799Y290911D02*
D03*
Y296619D02*
D03*
X217295Y237646D02*
D03*
Y231937D02*
D03*
X160189Y236087D02*
D03*
Y230378D02*
D03*
X222394Y237465D02*
D03*
Y231756D02*
D03*
X219638Y258509D02*
D03*
Y264218D02*
D03*
X189988Y264245D02*
D03*
Y258537D02*
D03*
X236862Y270021D02*
D03*
Y275729D02*
D03*
X227778Y231120D02*
D03*
Y236829D02*
D03*
X252841Y215740D02*
D03*
Y221449D02*
D03*
X248195Y221545D02*
D03*
Y227253D02*
D03*
X158500Y149139D02*
D03*
Y143430D02*
D03*
D90*
X270666Y115542D02*
D03*
X276375D02*
D03*
X256359Y92801D02*
D03*
X250650D02*
D03*
X236959Y92313D02*
D03*
X242668D02*
D03*
X239373Y88180D02*
D03*
X245082D02*
D03*
X174346Y115909D02*
D03*
X180054D02*
D03*
X137650Y190516D02*
D03*
X143358D02*
D03*
X182531Y132839D02*
D03*
X176823D02*
D03*
X132925Y121500D02*
D03*
X138634D02*
D03*
X138854Y113500D02*
D03*
X133146D02*
D03*
X87376Y113439D02*
D03*
X93085D02*
D03*
X122157Y225087D02*
D03*
X127866D02*
D03*
X241001Y303311D02*
D03*
X235293D02*
D03*
X249190Y282445D02*
D03*
X243482D02*
D03*
X249185Y277023D02*
D03*
X243476D02*
D03*
X262497Y247406D02*
D03*
X268206D02*
D03*
X204625Y124644D02*
D03*
X198916D02*
D03*
X188240Y89464D02*
D03*
X193949D02*
D03*
X278354Y234500D02*
D03*
X272646D02*
D03*
X278354Y213000D02*
D03*
X272646D02*
D03*
X278354Y217500D02*
D03*
X272646D02*
D03*
X278354Y226000D02*
D03*
X272646D02*
D03*
X163523Y260365D02*
D03*
X157814D02*
D03*
X163472Y254459D02*
D03*
X157763D02*
D03*
X237384Y185424D02*
D03*
X243093D02*
D03*
X227646Y242144D02*
D03*
X233354D02*
D03*
X276409Y123904D02*
D03*
X270700D02*
D03*
X88437Y227917D02*
D03*
X82728D02*
D03*
X136469Y210398D02*
D03*
X142177D02*
D03*
X180347Y96520D02*
D03*
X174639D02*
D03*
X122492Y139807D02*
D03*
X116783D02*
D03*
X136469Y215516D02*
D03*
X142177D02*
D03*
X224176Y284020D02*
D03*
X218467D02*
D03*
X262729Y269406D02*
D03*
X257020D02*
D03*
X258935Y282445D02*
D03*
X253226D02*
D03*
X258935Y277023D02*
D03*
X253226D02*
D03*
X257020Y221449D02*
D03*
X262729D02*
D03*
X257020Y216344D02*
D03*
X262729D02*
D03*
X250646Y100605D02*
D03*
X256354D02*
D03*
X250650Y84927D02*
D03*
X256359D02*
D03*
X250650Y88864D02*
D03*
X256359D02*
D03*
X271311Y194534D02*
D03*
X265602D02*
D03*
X271311Y199374D02*
D03*
X265602D02*
D03*
X163893Y193181D02*
D03*
X169601D02*
D03*
X260911Y264908D02*
D03*
X266620D02*
D03*
X242968Y195964D02*
D03*
X248676D02*
D03*
X207788Y184435D02*
D03*
X202080D02*
D03*
X165508Y199079D02*
D03*
X159799D02*
D03*
D91*
X244854Y78705D02*
D03*
X230287D02*
D03*
D92*
X212551Y256461D02*
D03*
X196803D02*
D03*
X212551Y265909D02*
D03*
X196803D02*
D03*
D93*
X86961Y293440D02*
D03*
D94*
X83220Y296393D02*
D03*
Y294425D02*
D03*
Y292456D02*
D03*
Y290488D02*
D03*
X90701D02*
D03*
Y292456D02*
D03*
Y294425D02*
D03*
Y296393D02*
D03*
D95*
X90506Y249768D02*
D03*
X93065D02*
D03*
X95624D02*
D03*
X98184D02*
D03*
X90506Y263154D02*
D03*
X93065D02*
D03*
X95624D02*
D03*
X98184D02*
D03*
D96*
X182649Y105807D02*
D03*
X172413Y105807D02*
D03*
Y109547D02*
D03*
X182649Y102067D02*
D03*
Y109547D02*
D03*
X172413Y102067D02*
D03*
D97*
X177531Y105807D02*
D03*
D98*
X191882Y286440D02*
D03*
X191882Y296676D02*
D03*
X195622D02*
D03*
X188142Y286440D02*
D03*
X195622D02*
D03*
X188142Y296676D02*
D03*
X257694Y236758D02*
D03*
X257694Y226522D02*
D03*
X253954D02*
D03*
X261434Y236758D02*
D03*
X253954D02*
D03*
X261434Y226522D02*
D03*
D99*
X191882Y291558D02*
D03*
X257694Y231640D02*
D03*
D100*
X146917Y128187D02*
D03*
X148886D02*
D03*
X150854D02*
D03*
X152823D02*
D03*
X154791D02*
D03*
Y139802D02*
D03*
X152823D02*
D03*
X150854D02*
D03*
X148886D02*
D03*
X146917D02*
D03*
X103500Y128386D02*
D03*
X105468D02*
D03*
X107437D02*
D03*
X109406D02*
D03*
X111374D02*
D03*
Y140000D02*
D03*
X109406D02*
D03*
X107437D02*
D03*
X105468D02*
D03*
X103500D02*
D03*
D101*
X150854Y133994D02*
D03*
X107437Y134193D02*
D03*
D102*
X106996Y214135D02*
D03*
D103*
X98040Y202521D02*
D03*
X100599D02*
D03*
X103158D02*
D03*
X105717D02*
D03*
X108276D02*
D03*
X110835D02*
D03*
X113394D02*
D03*
X115953D02*
D03*
X98040Y225750D02*
D03*
X100599D02*
D03*
X103158D02*
D03*
X105717D02*
D03*
X108276D02*
D03*
X110835D02*
D03*
X113394D02*
D03*
X115953D02*
D03*
D104*
X159693Y339592D02*
D03*
Y342151D02*
D03*
Y344710D02*
D03*
Y347269D02*
D03*
X146307Y339592D02*
D03*
Y342151D02*
D03*
Y344710D02*
D03*
Y347269D02*
D03*
X249193Y203161D02*
D03*
Y205720D02*
D03*
Y208279D02*
D03*
Y210839D02*
D03*
X235807Y203161D02*
D03*
Y205720D02*
D03*
Y208279D02*
D03*
Y210839D02*
D03*
D105*
X225892Y288056D02*
D03*
Y293174D02*
D03*
X218411D02*
D03*
Y290615D02*
D03*
Y288056D02*
D03*
D106*
X243752Y288548D02*
D03*
X246311D02*
D03*
X238634D02*
D03*
X241193D02*
D03*
Y296619D02*
D03*
X238634D02*
D03*
X246311D02*
D03*
X243752D02*
D03*
D107*
X241290Y262367D02*
D03*
Y263942D02*
D03*
Y265517D02*
D03*
Y267091D02*
D03*
Y268666D02*
D03*
Y270241D02*
D03*
X253102D02*
D03*
Y268666D02*
D03*
Y267091D02*
D03*
Y265517D02*
D03*
Y263942D02*
D03*
Y262367D02*
D03*
X250740Y243468D02*
D03*
Y245043D02*
D03*
Y246619D02*
D03*
Y248193D02*
D03*
Y249767D02*
D03*
Y251343D02*
D03*
X238928D02*
D03*
Y249767D02*
D03*
Y248193D02*
D03*
Y246619D02*
D03*
Y245043D02*
D03*
Y243468D02*
D03*
D108*
X243260Y272210D02*
D03*
X244834D02*
D03*
X246410D02*
D03*
X247983D02*
D03*
X249558D02*
D03*
X251133D02*
D03*
Y260398D02*
D03*
X249558D02*
D03*
X247983D02*
D03*
X246410D02*
D03*
X244834D02*
D03*
X243260D02*
D03*
X240897Y241499D02*
D03*
X242472D02*
D03*
X244047D02*
D03*
X245621D02*
D03*
X247196D02*
D03*
X248771D02*
D03*
Y253311D02*
D03*
X247196D02*
D03*
X245621D02*
D03*
X244047D02*
D03*
X242472D02*
D03*
X240897D02*
D03*
D109*
X247538Y101445D02*
D03*
X245570D02*
D03*
X243601D02*
D03*
X241633D02*
D03*
X239664D02*
D03*
X237696D02*
D03*
X235727D02*
D03*
X233759D02*
D03*
X231790D02*
D03*
X229822D02*
D03*
X227853D02*
D03*
X225885D02*
D03*
Y133335D02*
D03*
X227853D02*
D03*
X229822D02*
D03*
X231790D02*
D03*
X233759D02*
D03*
X235727D02*
D03*
X237696D02*
D03*
X239664D02*
D03*
X241633D02*
D03*
X243601D02*
D03*
X245570D02*
D03*
X247538D02*
D03*
D110*
X220767Y106563D02*
D03*
Y108531D02*
D03*
Y110500D02*
D03*
Y112469D02*
D03*
Y114437D02*
D03*
Y116405D02*
D03*
Y118374D02*
D03*
Y120343D02*
D03*
Y122311D02*
D03*
Y124279D02*
D03*
Y126248D02*
D03*
Y128217D02*
D03*
X252656D02*
D03*
Y126248D02*
D03*
Y124279D02*
D03*
Y122311D02*
D03*
Y120343D02*
D03*
Y118374D02*
D03*
Y116405D02*
D03*
Y114437D02*
D03*
Y112469D02*
D03*
Y110500D02*
D03*
Y108531D02*
D03*
Y106563D02*
D03*
D111*
X111761Y103883D02*
D03*
Y86083D02*
D03*
X137000Y105235D02*
D03*
Y87435D02*
D03*
D112*
X174165Y173429D02*
D03*
X209205D02*
D03*
X174165Y163429D02*
D03*
X209205D02*
D03*
X174165Y153429D02*
D03*
X209205D02*
D03*
X174165Y143429D02*
D03*
X209205D02*
D03*
D113*
X276055Y131891D02*
D03*
X262669D02*
D03*
D114*
X152243Y233331D02*
D03*
Y246717D02*
D03*
X275000Y267091D02*
D03*
Y253705D02*
D03*
D115*
X131100Y237500D02*
D03*
X117700D02*
D03*
X87300Y238000D02*
D03*
X100700D02*
D03*
D116*
X120852Y121592D02*
D03*
X128351D02*
D03*
X197845Y115776D02*
D03*
X190345D02*
D03*
D117*
X124601Y113593D02*
D03*
X194095Y123776D02*
D03*
D118*
X203927Y112690D02*
D03*
Y120190D02*
D03*
D119*
X211927Y116440D02*
D03*
D120*
X216000Y175854D02*
D03*
X221000D02*
D03*
X226000D02*
D03*
X231000D02*
D03*
X236000D02*
D03*
Y160500D02*
D03*
X231000D02*
D03*
X226000D02*
D03*
X221000D02*
D03*
X216000D02*
D03*
D121*
X133138Y129370D02*
D03*
Y138670D02*
D03*
X89736Y129370D02*
D03*
Y138670D02*
D03*
D122*
X266094Y101959D02*
D03*
Y99991D02*
D03*
Y98022D02*
D03*
Y96054D02*
D03*
Y94085D02*
D03*
Y92117D02*
D03*
Y90148D02*
D03*
Y88180D02*
D03*
Y86211D02*
D03*
Y84243D02*
D03*
Y82274D02*
D03*
Y80306D02*
D03*
X272630D02*
D03*
Y82274D02*
D03*
Y84243D02*
D03*
Y86211D02*
D03*
Y88180D02*
D03*
Y90148D02*
D03*
Y92117D02*
D03*
Y94085D02*
D03*
Y96054D02*
D03*
Y98022D02*
D03*
Y99991D02*
D03*
Y101959D02*
D03*
D123*
X278000Y204669D02*
D03*
X272000D02*
D03*
D124*
X29985Y318519D02*
D03*
Y312613D02*
D03*
X90898Y201933D02*
D03*
Y196028D02*
D03*
X194244Y99965D02*
D03*
Y94059D02*
D03*
D125*
X117043Y315207D02*
D03*
Y305758D02*
D03*
X109587Y315305D02*
D03*
Y305856D02*
D03*
D126*
X198500Y333272D02*
D03*
X218500D02*
D03*
X84500D02*
D03*
X104500D02*
D03*
D127*
X198500Y320272D02*
D03*
X218500D02*
D03*
X84500D02*
D03*
X104500D02*
D03*
D128*
X84402Y343013D02*
D03*
X95819D02*
D03*
D129*
X166900Y101209D02*
D03*
X149100D02*
D03*
D130*
X72000Y314700D02*
D03*
Y301300D02*
D03*
D131*
X164220Y162760D02*
D03*
X152220D02*
D03*
X132755Y162760D02*
D03*
X144755D02*
D03*
X136587Y150924D02*
D03*
X148587D02*
D03*
X156000Y117500D02*
D03*
X144000D02*
D03*
X93185Y150924D02*
D03*
X105185D02*
D03*
X123761Y162760D02*
D03*
X111761D02*
D03*
X93165D02*
D03*
X105165D02*
D03*
X113886Y117292D02*
D03*
X101886D02*
D03*
D132*
X208811Y235791D02*
D03*
X206842D02*
D03*
X204874D02*
D03*
X202906D02*
D03*
X200937D02*
D03*
X198969D02*
D03*
X197000D02*
D03*
X195031D02*
D03*
X193063D02*
D03*
X191095D02*
D03*
X189126D02*
D03*
X187157D02*
D03*
X185189D02*
D03*
X183221D02*
D03*
X181252D02*
D03*
X179283D02*
D03*
Y190516D02*
D03*
X181252D02*
D03*
X183221D02*
D03*
X185189D02*
D03*
X187157D02*
D03*
X189126D02*
D03*
X191095D02*
D03*
X193063D02*
D03*
X195031D02*
D03*
X197000D02*
D03*
X198969D02*
D03*
X200937D02*
D03*
X202906D02*
D03*
X204874D02*
D03*
X206842D02*
D03*
X208811D02*
D03*
D133*
X171409Y227917D02*
D03*
Y225949D02*
D03*
Y223980D02*
D03*
Y222012D02*
D03*
Y220043D02*
D03*
Y218075D02*
D03*
Y216106D02*
D03*
Y214138D02*
D03*
Y212169D02*
D03*
Y210201D02*
D03*
Y208232D02*
D03*
Y206264D02*
D03*
Y204295D02*
D03*
Y202327D02*
D03*
Y200358D02*
D03*
Y198390D02*
D03*
X216685D02*
D03*
Y200358D02*
D03*
Y202327D02*
D03*
Y204295D02*
D03*
Y206264D02*
D03*
Y208232D02*
D03*
Y210201D02*
D03*
Y216106D02*
D03*
Y218075D02*
D03*
Y220043D02*
D03*
Y222012D02*
D03*
Y223980D02*
D03*
Y225949D02*
D03*
Y227917D02*
D03*
Y212169D02*
D03*
Y214138D02*
D03*
D134*
X154087Y85732D02*
D03*
Y90732D02*
D03*
X173378Y85732D02*
D03*
X154087Y75732D02*
D03*
Y80732D02*
D03*
D135*
X173378Y75732D02*
D03*
Y80732D02*
D03*
Y90732D02*
D03*
D136*
X120661Y78035D02*
D03*
X130661D02*
D03*
X140661D02*
D03*
X96803Y54886D02*
D03*
X106803D02*
D03*
X86803D02*
D03*
D137*
X120661Y58035D02*
D03*
X140661D02*
D03*
D138*
X43500Y74500D02*
D03*
X33500D02*
D03*
Y254500D02*
D03*
Y234500D02*
D03*
Y84500D02*
D03*
Y224500D02*
D03*
Y214500D02*
D03*
Y204500D02*
D03*
Y194500D02*
D03*
Y184500D02*
D03*
Y244500D02*
D03*
Y174500D02*
D03*
Y164500D02*
D03*
Y154500D02*
D03*
Y144500D02*
D03*
X33500Y134500D02*
D03*
X33500Y124500D02*
D03*
Y114500D02*
D03*
Y104500D02*
D03*
Y94500D02*
D03*
X43500D02*
D03*
Y104500D02*
D03*
Y114500D02*
D03*
Y124500D02*
D03*
X43500Y134500D02*
D03*
X43500Y144500D02*
D03*
Y154500D02*
D03*
Y164500D02*
D03*
Y174500D02*
D03*
Y244500D02*
D03*
Y184500D02*
D03*
Y194500D02*
D03*
Y204500D02*
D03*
Y214500D02*
D03*
Y224500D02*
D03*
Y84500D02*
D03*
Y234500D02*
D03*
Y254500D02*
D03*
Y264500D02*
D03*
X90478Y76146D02*
D03*
X177000Y311600D02*
D03*
Y321600D02*
D03*
X157000Y311600D02*
D03*
Y321600D02*
D03*
X127000Y311600D02*
D03*
X137000Y321600D02*
D03*
Y311600D02*
D03*
X147000Y321600D02*
D03*
Y311600D02*
D03*
X167000D02*
D03*
Y321600D02*
D03*
X184100Y74100D02*
D03*
X117000Y353500D02*
D03*
X187000D02*
D03*
X177000D02*
D03*
X167000D02*
D03*
X157000D02*
D03*
X147000D02*
D03*
X137000D02*
D03*
X127000D02*
D03*
X107000D02*
D03*
X197000D02*
D03*
X207000D02*
D03*
X167000Y331700D02*
D03*
X137000D02*
D03*
X147000D02*
D03*
X157000D02*
D03*
X177000D02*
D03*
X115839Y292212D02*
D03*
X108768Y285140D02*
D03*
X262050Y54000D02*
D03*
Y64000D02*
D03*
X272050Y54000D02*
D03*
Y64000D02*
D03*
X242050Y54000D02*
D03*
Y64000D02*
D03*
X252050Y54000D02*
D03*
Y64000D02*
D03*
X222050Y54000D02*
D03*
Y64000D02*
D03*
X232050Y54000D02*
D03*
Y64000D02*
D03*
X202050Y54000D02*
D03*
X212050D02*
D03*
Y64000D02*
D03*
X192050Y54000D02*
D03*
X182050Y64000D02*
D03*
Y54000D02*
D03*
D139*
X33500Y264500D02*
D03*
D140*
X100478Y76146D02*
D03*
X127000Y321600D02*
D03*
X194100Y74100D02*
D03*
X97000Y353500D02*
D03*
X187000Y331700D02*
D03*
D141*
X68713Y55262D02*
D03*
X159264Y55262D02*
D03*
Y283608D02*
D03*
X68713D02*
D03*
D142*
X63850Y74435D02*
D03*
Y84435D02*
D03*
Y94435D02*
D03*
Y104435D02*
D03*
Y114435D02*
D03*
Y124435D02*
D03*
Y134435D02*
D03*
Y144435D02*
D03*
Y154435D02*
D03*
Y164435D02*
D03*
Y174435D02*
D03*
Y184435D02*
D03*
Y194435D02*
D03*
Y204435D02*
D03*
Y214435D02*
D03*
Y224435D02*
D03*
Y234435D02*
D03*
Y244435D02*
D03*
Y254435D02*
D03*
Y264435D02*
D03*
X73850Y74435D02*
D03*
Y84435D02*
D03*
Y94435D02*
D03*
Y104435D02*
D03*
Y114435D02*
D03*
Y124435D02*
D03*
Y134435D02*
D03*
Y144435D02*
D03*
Y154435D02*
D03*
Y164435D02*
D03*
Y174435D02*
D03*
Y184435D02*
D03*
Y194435D02*
D03*
Y204435D02*
D03*
Y214435D02*
D03*
Y224435D02*
D03*
Y234435D02*
D03*
Y244435D02*
D03*
Y254435D02*
D03*
D143*
Y264435D02*
D03*
D144*
X260898Y81684D02*
D03*
Y100582D02*
D03*
X277827Y81684D02*
D03*
Y100582D02*
D03*
D145*
X269362Y105896D02*
D03*
D146*
Y76369D02*
D03*
D147*
X148587Y175358D02*
D03*
X138744D02*
D03*
X104933D02*
D03*
X95091D02*
D03*
D148*
X101697Y278069D02*
D03*
D149*
X38811Y55262D02*
D03*
Y283609D02*
D03*
X250430Y343410D02*
D03*
X210976Y95380D02*
D03*
X53570Y343410D02*
D03*
X92866Y95380D02*
D03*
X53570Y315851D02*
D03*
X250430D02*
D03*
D150*
X202050Y64000D02*
D03*
X192050D02*
D03*
M02*
