G04*
G04 #@! TF.GenerationSoftware,Altium Limited,Altium Designer,21.0.8 (223)*
G04*
G04 Layer_Color=65535*
%FSLAX25Y25*%
%MOIN*%
G70*
G04*
G04 #@! TF.SameCoordinates,C8F2EFAD-F301-47D2-81E3-A82B1A8C5C35*
G04*
G04*
G04 #@! TF.FilePolarity,Positive*
G04*
G01*
G75*
%ADD10C,0.01000*%
%ADD11C,0.00394*%
%ADD12C,0.01575*%
%ADD13C,0.00984*%
%ADD14C,0.02000*%
%ADD15C,0.00000*%
%ADD16C,0.02362*%
%ADD17C,0.00787*%
%ADD18C,0.00600*%
%ADD19C,0.00500*%
%ADD20C,0.00800*%
%ADD21C,0.01772*%
%ADD22C,0.00709*%
%ADD23R,0.12000X0.01400*%
%ADD24R,0.00900X0.15800*%
%ADD25R,0.02559X0.03316*%
%ADD26R,0.01181X0.02559*%
%ADD27R,0.02559X0.03062*%
%ADD28R,0.01732X0.02559*%
%ADD29R,0.02389X0.04576*%
%ADD30R,0.02913X0.04398*%
%ADD31R,0.02251X0.04637*%
%ADD32R,0.02913X0.04637*%
%ADD33R,0.06221X0.04668*%
%ADD34R,0.06221X0.04269*%
%ADD35R,0.01150X0.02559*%
%ADD36R,0.01102X0.02559*%
G36*
X277056Y40500D02*
X177000D01*
Y47741D01*
X277056D01*
Y40500D01*
D02*
G37*
G36*
X245000Y157819D02*
X240769D01*
Y179130D01*
X245000D01*
Y157819D01*
D02*
G37*
%LPC*%
G36*
X245023Y45906D02*
Y43488D01*
X245018Y43585D01*
X245008Y43672D01*
X244993Y43759D01*
X244977Y43835D01*
X244952Y43912D01*
X244926Y43978D01*
X244901Y44044D01*
X244870Y44100D01*
X244840Y44151D01*
X244814Y44197D01*
X244789Y44233D01*
X244763Y44269D01*
X244748Y44294D01*
X244733Y44309D01*
X244722Y44320D01*
X244717Y44325D01*
X244661Y44381D01*
X244600Y44432D01*
X244539Y44478D01*
X244478Y44513D01*
X244416Y44544D01*
X244355Y44570D01*
X244243Y44610D01*
X244192Y44626D01*
X244141Y44636D01*
X244100Y44641D01*
X244064Y44646D01*
X244034Y44651D01*
X243993D01*
X243922Y44646D01*
X243855Y44636D01*
X243794Y44626D01*
X243733Y44605D01*
X243626Y44554D01*
X243534Y44503D01*
X243463Y44447D01*
X243432Y44422D01*
X243407Y44396D01*
X243386Y44376D01*
X243371Y44366D01*
X243366Y44355D01*
X243361Y44350D01*
X243371Y44457D01*
X243381Y44559D01*
X243391Y44651D01*
X243407Y44733D01*
X243422Y44804D01*
X243437Y44870D01*
X243453Y44927D01*
X243473Y44978D01*
X243488Y45023D01*
X243498Y45059D01*
X243514Y45090D01*
X243524Y45110D01*
X243534Y45131D01*
X243544Y45141D01*
X243549Y45151D01*
X243605Y45217D01*
X243667Y45263D01*
X243728Y45299D01*
X243784Y45319D01*
X243835Y45335D01*
X243876Y45340D01*
X243901Y45345D01*
X243912D01*
X243968Y45340D01*
X244024Y45329D01*
X244070Y45314D01*
X244105Y45299D01*
X244136Y45278D01*
X244156Y45263D01*
X244172Y45253D01*
X244177Y45248D01*
X244212Y45207D01*
X244238Y45161D01*
X244263Y45110D01*
X244279Y45064D01*
X244289Y45018D01*
X244299Y44983D01*
X244304Y44962D01*
Y44952D01*
X244957Y45023D01*
X244921Y45176D01*
X244870Y45304D01*
X244814Y45416D01*
X244758Y45513D01*
X244702Y45584D01*
X244682Y45610D01*
X244656Y45635D01*
X244641Y45651D01*
X244625Y45666D01*
X244620Y45676D01*
X244615D01*
X244564Y45717D01*
X244513Y45753D01*
X244401Y45809D01*
X244289Y45850D01*
X244187Y45875D01*
X244095Y45895D01*
X244054Y45901D01*
X244019D01*
X243993Y45906D01*
X243952D01*
X243845Y45901D01*
X243748Y45885D01*
X243651Y45865D01*
X243565Y45839D01*
X243483Y45804D01*
X243402Y45768D01*
X243335Y45727D01*
X243269Y45691D01*
X243213Y45651D01*
X243162Y45610D01*
X243121Y45574D01*
X243085Y45538D01*
X243055Y45513D01*
X243034Y45493D01*
X243024Y45477D01*
X243019Y45472D01*
X242958Y45386D01*
X242902Y45289D01*
X242856Y45182D01*
X242815Y45074D01*
X242779Y44957D01*
X242749Y44840D01*
X242723Y44723D01*
X242708Y44610D01*
X242693Y44503D01*
X242682Y44401D01*
X242672Y44309D01*
X242667Y44228D01*
X242662Y44161D01*
Y44182D01*
Y44070D01*
X242667Y43896D01*
X242677Y43738D01*
X242693Y43590D01*
X242718Y43458D01*
X242744Y43330D01*
X242769Y43218D01*
X242800Y43121D01*
X242835Y43029D01*
X242866Y42953D01*
X242897Y42886D01*
X242922Y42830D01*
X242953Y42785D01*
X242973Y42749D01*
X242988Y42723D01*
X242999Y42708D01*
X243004Y42703D01*
X243070Y42632D01*
X243141Y42565D01*
X243213Y42509D01*
X243289Y42463D01*
X243361Y42422D01*
X243437Y42392D01*
X243509Y42361D01*
X243575Y42341D01*
X243641Y42325D01*
X243697Y42310D01*
X243753Y42305D01*
X243799Y42295D01*
X243835D01*
X243861Y42290D01*
X245023D01*
Y45906D01*
D02*
G37*
G36*
X242203D02*
Y44916D01*
X242198Y44993D01*
X242188Y45069D01*
X242178Y45141D01*
X242157Y45207D01*
X242106Y45324D01*
X242055Y45426D01*
X242024Y45472D01*
X241999Y45508D01*
X241973Y45544D01*
X241948Y45569D01*
X241928Y45590D01*
X241917Y45610D01*
X241907Y45615D01*
X241902Y45620D01*
X241846Y45671D01*
X241780Y45717D01*
X241719Y45753D01*
X241647Y45783D01*
X241514Y45834D01*
X241382Y45870D01*
X241321Y45880D01*
X241265Y45890D01*
X241214Y45895D01*
X241168Y45901D01*
X241132Y45906D01*
X239831D01*
X241081D01*
X240994Y45901D01*
X240913Y45895D01*
X240755Y45870D01*
X240622Y45829D01*
X240561Y45809D01*
X240505Y45783D01*
X240454Y45763D01*
X240413Y45737D01*
X240372Y45717D01*
X240341Y45702D01*
X240316Y45681D01*
X240301Y45671D01*
X240290Y45666D01*
X240285Y45661D01*
X240229Y45610D01*
X240178Y45559D01*
X240132Y45498D01*
X240092Y45431D01*
X240030Y45299D01*
X239979Y45171D01*
X239964Y45105D01*
X239949Y45049D01*
X239933Y44998D01*
X239928Y44952D01*
X239918Y44911D01*
Y44886D01*
X239913Y44865D01*
Y44860D01*
X240586Y44794D01*
X240597Y44896D01*
X240617Y44983D01*
X240637Y45059D01*
X240663Y45115D01*
X240683Y45161D01*
X240704Y45192D01*
X240719Y45212D01*
X240724Y45217D01*
X240775Y45258D01*
X240831Y45289D01*
X240887Y45314D01*
X240943Y45329D01*
X240989Y45340D01*
X241030Y45345D01*
X241066D01*
X241142Y45340D01*
X241209Y45324D01*
X241265Y45304D01*
X241316Y45283D01*
X241351Y45263D01*
X241382Y45243D01*
X241397Y45227D01*
X241402Y45222D01*
X241443Y45171D01*
X241474Y45115D01*
X241494Y45059D01*
X241509Y45003D01*
X241520Y44952D01*
X241525Y44906D01*
Y44881D01*
Y44875D01*
Y44870D01*
X241520Y44794D01*
X241504Y44723D01*
X241479Y44651D01*
X241453Y44590D01*
X241428Y44534D01*
X241402Y44493D01*
X241387Y44467D01*
X241382Y44457D01*
X241361Y44427D01*
X241331Y44391D01*
X241290Y44345D01*
X241249Y44304D01*
X241158Y44207D01*
X241066Y44111D01*
X240974Y44019D01*
X240933Y43978D01*
X240892Y43947D01*
X240862Y43917D01*
X240841Y43896D01*
X240826Y43881D01*
X240821Y43876D01*
X240719Y43779D01*
X240627Y43687D01*
X240540Y43600D01*
X240464Y43524D01*
X240392Y43448D01*
X240331Y43376D01*
X240275Y43315D01*
X240229Y43254D01*
X240189Y43203D01*
X240153Y43157D01*
X240122Y43121D01*
X240102Y43085D01*
X240081Y43065D01*
X240071Y43045D01*
X240061Y43034D01*
Y43029D01*
X239995Y42912D01*
X239944Y42790D01*
X239903Y42677D01*
X239872Y42575D01*
X239852Y42484D01*
X239847Y42448D01*
X239842Y42417D01*
X239837Y42392D01*
X239831Y42371D01*
Y42356D01*
X242203D01*
Y45906D01*
D02*
G37*
G36*
X209589Y45952D02*
Y43381D01*
X209583Y43504D01*
X209568Y43611D01*
X209543Y43708D01*
X209517Y43789D01*
X209492Y43856D01*
X209466Y43901D01*
X209451Y43932D01*
X209446Y43942D01*
X209390Y44024D01*
X209323Y44095D01*
X209257Y44156D01*
X209196Y44207D01*
X209140Y44248D01*
X209094Y44279D01*
X209063Y44299D01*
X209058Y44304D01*
X209053D01*
X209002Y44330D01*
X208951Y44355D01*
X208829Y44401D01*
X208701Y44442D01*
X208579Y44483D01*
X208523Y44498D01*
X208467Y44513D01*
X208416Y44529D01*
X208375Y44539D01*
X208339Y44549D01*
X208313Y44554D01*
X208293Y44559D01*
X208288D01*
X208196Y44585D01*
X208115Y44605D01*
X208038Y44626D01*
X207967Y44646D01*
X207911Y44666D01*
X207855Y44687D01*
X207809Y44707D01*
X207768Y44723D01*
X207732Y44738D01*
X207707Y44753D01*
X207681Y44763D01*
X207666Y44774D01*
X207640Y44789D01*
X207635Y44794D01*
X207599Y44830D01*
X207574Y44865D01*
X207559Y44901D01*
X207548Y44937D01*
X207538Y44962D01*
X207533Y44988D01*
Y45003D01*
Y45008D01*
X207538Y45059D01*
X207548Y45100D01*
X207569Y45141D01*
X207589Y45171D01*
X207610Y45197D01*
X207630Y45212D01*
X207640Y45222D01*
X207645Y45227D01*
X207717Y45273D01*
X207793Y45304D01*
X207875Y45329D01*
X207951Y45345D01*
X208018Y45355D01*
X208074Y45360D01*
X208125D01*
X208232Y45355D01*
X208324Y45340D01*
X208400Y45319D01*
X208461Y45299D01*
X208512Y45278D01*
X208548Y45258D01*
X208569Y45243D01*
X208574Y45238D01*
X208625Y45187D01*
X208670Y45125D01*
X208706Y45064D01*
X208732Y44998D01*
X208752Y44942D01*
X208762Y44896D01*
X208772Y44860D01*
Y44855D01*
Y44850D01*
X209487Y44875D01*
X209481Y44967D01*
X209466Y45049D01*
X209446Y45131D01*
X209420Y45202D01*
X209395Y45273D01*
X209364Y45340D01*
X209333Y45396D01*
X209303Y45452D01*
X209267Y45498D01*
X209237Y45538D01*
X209206Y45574D01*
X209180Y45605D01*
X209160Y45625D01*
X209145Y45641D01*
X209135Y45651D01*
X209130Y45656D01*
X209063Y45707D01*
X208992Y45753D01*
X208915Y45794D01*
X208834Y45829D01*
X208752Y45855D01*
X208670Y45880D01*
X208507Y45916D01*
X208431Y45926D01*
X208365Y45936D01*
X208298Y45941D01*
X208242Y45946D01*
X208196Y45952D01*
X208135D01*
X207987Y45946D01*
X207855Y45931D01*
X207737Y45911D01*
X207635Y45890D01*
X207589Y45875D01*
X207548Y45865D01*
X207518Y45855D01*
X207487Y45845D01*
X207467Y45834D01*
X207452Y45829D01*
X207441Y45824D01*
X207436D01*
X207334Y45773D01*
X207248Y45717D01*
X207171Y45656D01*
X207110Y45600D01*
X207059Y45549D01*
X207028Y45508D01*
X207003Y45477D01*
X206998Y45472D01*
Y45467D01*
X206947Y45380D01*
X206911Y45289D01*
X206886Y45202D01*
X206870Y45125D01*
X206860Y45059D01*
X206850Y45008D01*
Y44988D01*
Y44972D01*
Y44967D01*
Y44962D01*
X206855Y44886D01*
X206865Y44809D01*
X206880Y44743D01*
X206901Y44677D01*
X206952Y44554D01*
X207013Y44447D01*
X207038Y44401D01*
X207069Y44366D01*
X207095Y44330D01*
X207120Y44299D01*
X207140Y44279D01*
X207156Y44263D01*
X207166Y44253D01*
X207171Y44248D01*
X207217Y44212D01*
X207273Y44177D01*
X207329Y44141D01*
X207396Y44111D01*
X207523Y44049D01*
X207656Y43998D01*
X207722Y43978D01*
X207778Y43957D01*
X207834Y43942D01*
X207880Y43927D01*
X207916Y43917D01*
X207946Y43907D01*
X207967Y43901D01*
X207972D01*
X208053Y43881D01*
X208125Y43861D01*
X208191Y43845D01*
X208252Y43830D01*
X208303Y43815D01*
X208349Y43804D01*
X208390Y43789D01*
X208426Y43779D01*
X208456Y43774D01*
X208482Y43764D01*
X208518Y43753D01*
X208538Y43743D01*
X208543D01*
X208609Y43718D01*
X208660Y43692D01*
X208706Y43667D01*
X208742Y43641D01*
X208767Y43621D01*
X208783Y43606D01*
X208793Y43595D01*
X208798Y43590D01*
X208823Y43555D01*
X208844Y43519D01*
X208854Y43483D01*
X208864Y43453D01*
X208869Y43422D01*
X208875Y43396D01*
Y43381D01*
Y43376D01*
X208869Y43305D01*
X208849Y43244D01*
X208818Y43182D01*
X208788Y43131D01*
X208752Y43091D01*
X208727Y43060D01*
X208706Y43040D01*
X208696Y43034D01*
X208625Y42988D01*
X208543Y42953D01*
X208456Y42927D01*
X208375Y42912D01*
X208298Y42902D01*
X208237Y42892D01*
X208181D01*
X208064Y42897D01*
X207962Y42917D01*
X207875Y42943D01*
X207798Y42973D01*
X207737Y43004D01*
X207696Y43029D01*
X207671Y43050D01*
X207661Y43055D01*
X207594Y43126D01*
X207543Y43203D01*
X207498Y43289D01*
X207467Y43376D01*
X207441Y43453D01*
X207421Y43514D01*
X207416Y43534D01*
Y43555D01*
X207411Y43565D01*
Y43570D01*
X206717Y43504D01*
X206733Y43396D01*
X206753Y43295D01*
X206784Y43198D01*
X206809Y43111D01*
X206845Y43029D01*
X206880Y42953D01*
X206916Y42886D01*
X206952Y42825D01*
X206988Y42774D01*
X207023Y42728D01*
X207054Y42688D01*
X207084Y42652D01*
X207105Y42626D01*
X207125Y42611D01*
X207135Y42601D01*
X207140Y42596D01*
X207212Y42540D01*
X207288Y42494D01*
X207370Y42453D01*
X207457Y42417D01*
X207538Y42392D01*
X207625Y42366D01*
X207793Y42331D01*
X207870Y42315D01*
X207941Y42305D01*
X208002Y42300D01*
X208059Y42295D01*
X208104Y42290D01*
X206717D01*
X208171D01*
X208334Y42295D01*
X208482Y42310D01*
X208614Y42331D01*
X208670Y42341D01*
X208727Y42356D01*
X208772Y42366D01*
X208813Y42377D01*
X208849Y42387D01*
X208880Y42397D01*
X208905Y42407D01*
X208920Y42412D01*
X208931Y42417D01*
X208936D01*
X209048Y42473D01*
X209140Y42535D01*
X209226Y42596D01*
X209293Y42662D01*
X209344Y42718D01*
X209384Y42769D01*
X209405Y42800D01*
X209415Y42805D01*
Y42810D01*
X209471Y42912D01*
X209517Y43009D01*
X209548Y43106D01*
X209568Y43198D01*
X209578Y43269D01*
X209583Y43305D01*
X209589Y43330D01*
Y42290D01*
X209589D01*
X209589D01*
Y45952D01*
D02*
G37*
G36*
X216438D02*
X214729D01*
X216377D01*
X216244Y45946D01*
X216111Y45931D01*
X215994Y45906D01*
X215877Y45875D01*
X215775Y45839D01*
X215673Y45799D01*
X215586Y45753D01*
X215505Y45707D01*
X215428Y45661D01*
X215367Y45615D01*
X215311Y45574D01*
X215265Y45538D01*
X215229Y45508D01*
X215204Y45482D01*
X215188Y45467D01*
X215183Y45462D01*
X215102Y45365D01*
X215035Y45263D01*
X214974Y45156D01*
X214923Y45044D01*
X214877Y44927D01*
X214842Y44814D01*
X214811Y44702D01*
X214785Y44595D01*
X214765Y44488D01*
X214755Y44396D01*
X214745Y44309D01*
X214734Y44238D01*
Y44177D01*
X214729Y44131D01*
D01*
Y44090D01*
X214734Y43937D01*
X214750Y43794D01*
X214770Y43657D01*
X214801Y43534D01*
X214831Y43417D01*
X214872Y43305D01*
X214913Y43208D01*
X214954Y43121D01*
X214995Y43040D01*
X215035Y42968D01*
X215076Y42912D01*
X215107Y42861D01*
X215137Y42825D01*
X215158Y42795D01*
X215173Y42779D01*
X215178Y42774D01*
X215265Y42688D01*
X215357Y42616D01*
X215454Y42550D01*
X215550Y42499D01*
X215647Y42453D01*
X215744Y42412D01*
X215836Y42382D01*
X215923Y42356D01*
X216009Y42336D01*
X216086Y42320D01*
X216157Y42310D01*
X216213Y42305D01*
X216264Y42300D01*
X216300Y42295D01*
X216331D01*
X216438Y42300D01*
X216535Y42305D01*
X216632Y42320D01*
X216718Y42341D01*
X216800Y42361D01*
X216876Y42382D01*
X216948Y42407D01*
X217014Y42438D01*
X217070Y42463D01*
X217121Y42489D01*
X217167Y42509D01*
X217203Y42529D01*
X217233Y42550D01*
X217254Y42565D01*
X217264Y42570D01*
X217269Y42575D01*
X217335Y42632D01*
X217397Y42693D01*
X217509Y42830D01*
X217601Y42973D01*
X217672Y43111D01*
X217703Y43177D01*
X217728Y43238D01*
X217748Y43295D01*
X217769Y43340D01*
X217784Y43381D01*
X217794Y43412D01*
X217799Y43432D01*
Y42489D01*
Y43432D01*
Y43437D01*
X217106Y43652D01*
X217065Y43514D01*
X217019Y43396D01*
X216973Y43300D01*
X216922Y43218D01*
X216881Y43157D01*
X216846Y43116D01*
X216820Y43091D01*
X216810Y43080D01*
X216728Y43019D01*
X216647Y42978D01*
X216565Y42948D01*
X216494Y42922D01*
X216428Y42912D01*
X216371Y42907D01*
X216351Y42902D01*
X216326D01*
X216254Y42907D01*
X216188Y42912D01*
X216066Y42948D01*
X215958Y42988D01*
X215872Y43045D01*
X215800Y43096D01*
X215749Y43136D01*
X215729Y43157D01*
X215714Y43172D01*
X215708Y43177D01*
X215703Y43182D01*
X215663Y43238D01*
X215627Y43305D01*
X215591Y43376D01*
X215566Y43453D01*
X215525Y43611D01*
X215494Y43769D01*
X215484Y43845D01*
X215479Y43912D01*
X215469Y43978D01*
Y44034D01*
X215464Y44075D01*
Y44111D01*
Y44136D01*
Y44141D01*
X215469Y44258D01*
X215474Y44366D01*
X215484Y44462D01*
X215499Y44554D01*
X215520Y44636D01*
X215540Y44712D01*
X215561Y44779D01*
X215586Y44840D01*
X215606Y44891D01*
X215627Y44937D01*
X215647Y44972D01*
X215668Y45003D01*
X215683Y45028D01*
X215693Y45044D01*
X215703Y45054D01*
Y45059D01*
X215749Y45110D01*
X215800Y45156D01*
X215851Y45192D01*
X215907Y45222D01*
X216015Y45273D01*
X216116Y45309D01*
X216203Y45329D01*
X216244Y45335D01*
X216275Y45340D01*
X216305Y45345D01*
X216341D01*
X216443Y45340D01*
X216535Y45319D01*
X216616Y45294D01*
X216688Y45263D01*
X216744Y45232D01*
X216785Y45207D01*
X216810Y45187D01*
X216820Y45182D01*
X216887Y45120D01*
X216948Y45049D01*
X216994Y44978D01*
X217029Y44906D01*
X217055Y44845D01*
X217070Y44799D01*
X217080Y44779D01*
Y44763D01*
X217086Y44758D01*
Y44753D01*
X217789Y44921D01*
X217738Y45069D01*
X217682Y45197D01*
X217621Y45309D01*
X217565Y45401D01*
X217509Y45472D01*
X217488Y45503D01*
X217468Y45528D01*
X217453Y45544D01*
X217437Y45559D01*
X217432Y45569D01*
X217427D01*
X217351Y45635D01*
X217264Y45697D01*
X217182Y45748D01*
X217096Y45788D01*
X217004Y45829D01*
X216917Y45860D01*
X216830Y45885D01*
X216749Y45906D01*
X216672Y45921D01*
X216601Y45931D01*
X216540Y45941D01*
X216484Y45946D01*
X216438Y45952D01*
D02*
G37*
G36*
X236221D02*
X234754D01*
X236221D01*
Y44116D01*
X236216Y44274D01*
X236200Y44422D01*
X236180Y44559D01*
X236149Y44692D01*
X236114Y44809D01*
X236073Y44921D01*
X236032Y45023D01*
X235986Y45110D01*
X235940Y45192D01*
X235899Y45263D01*
X235859Y45324D01*
X235823Y45375D01*
X235797Y45411D01*
X235772Y45442D01*
X235757Y45457D01*
X235752Y45462D01*
X235660Y45549D01*
X235563Y45625D01*
X235461Y45691D01*
X235359Y45748D01*
X235252Y45794D01*
X235150Y45834D01*
X235048Y45865D01*
X234951Y45890D01*
X234859Y45911D01*
X234772Y45926D01*
X234696Y45936D01*
X234630Y45946D01*
X234578D01*
X234538Y45952D01*
X232799D01*
X234502D01*
X234349Y45946D01*
X234201Y45931D01*
X234074Y45906D01*
X233961Y45880D01*
X233915Y45865D01*
X233870Y45855D01*
X233834Y45845D01*
X233803Y45829D01*
X233778Y45824D01*
X233757Y45814D01*
X233747Y45809D01*
X233742D01*
X233650Y45768D01*
X233564Y45717D01*
X233487Y45661D01*
X233421Y45610D01*
X233365Y45564D01*
X233319Y45523D01*
X233293Y45498D01*
X233288Y45493D01*
X233283Y45487D01*
X233212Y45406D01*
X233145Y45319D01*
X233089Y45243D01*
X233043Y45166D01*
X233008Y45100D01*
X232977Y45049D01*
X232972Y45028D01*
X232962Y45013D01*
X232957Y45008D01*
Y45003D01*
X232906Y44860D01*
X232865Y44707D01*
X232839Y44554D01*
X232819Y44411D01*
X232814Y44345D01*
X232809Y44284D01*
X232804Y44233D01*
Y44187D01*
X232799Y44146D01*
Y44095D01*
X232804Y43942D01*
X232819Y43794D01*
X232839Y43657D01*
X232870Y43529D01*
X232906Y43412D01*
X232946Y43305D01*
X232987Y43203D01*
X233033Y43116D01*
X233074Y43034D01*
X233115Y42968D01*
X233156Y42907D01*
X233191Y42856D01*
X233222Y42820D01*
X233242Y42790D01*
X233258Y42774D01*
X233263Y42769D01*
X233354Y42682D01*
X233451Y42611D01*
X233548Y42545D01*
X233655Y42494D01*
X233757Y42448D01*
X233864Y42407D01*
X233961Y42377D01*
X234063Y42351D01*
X234155Y42331D01*
X234242Y42315D01*
X234318Y42305D01*
X234385Y42300D01*
X234436Y42295D01*
X234476Y42290D01*
X234512D01*
X234655Y42295D01*
X234788Y42310D01*
X234915Y42336D01*
X235032Y42366D01*
X235145Y42402D01*
X235247Y42443D01*
X235338Y42484D01*
X235425Y42529D01*
X235496Y42575D01*
X235563Y42616D01*
X235619Y42657D01*
X235665Y42693D01*
X235706Y42723D01*
X235731Y42749D01*
X235746Y42764D01*
X235752Y42769D01*
X235833Y42866D01*
X235905Y42968D01*
X235971Y43075D01*
X236022Y43182D01*
X236068Y43295D01*
X236108Y43407D01*
X236139Y43519D01*
X236165Y43626D01*
X236180Y43723D01*
X236195Y43820D01*
X236205Y43901D01*
X236216Y43973D01*
Y44034D01*
X236221Y44080D01*
Y45952D01*
D02*
G37*
G36*
X250440Y45906D02*
Y44095D01*
X250434Y44279D01*
X250424Y44447D01*
X250409Y44600D01*
X250383Y44743D01*
X250358Y44875D01*
X250332Y44993D01*
X250297Y45100D01*
X250266Y45192D01*
X250236Y45278D01*
X250205Y45345D01*
X250174Y45406D01*
X250149Y45457D01*
X250123Y45493D01*
X250108Y45518D01*
X250098Y45533D01*
X250093Y45538D01*
X250037Y45605D01*
X249975Y45661D01*
X249909Y45707D01*
X249843Y45753D01*
X249777Y45788D01*
X249710Y45814D01*
X249649Y45839D01*
X249583Y45860D01*
X249521Y45875D01*
X249470Y45885D01*
X249419Y45895D01*
X249379Y45901D01*
X249343Y45906D01*
X250440D01*
X248150D01*
D01*
X249292D01*
X249200Y45901D01*
X249113Y45890D01*
X249027Y45870D01*
X248950Y45850D01*
X248879Y45819D01*
X248813Y45788D01*
X248757Y45758D01*
X248700Y45722D01*
X248655Y45686D01*
X248609Y45656D01*
X248573Y45625D01*
X248547Y45595D01*
X248522Y45574D01*
X248507Y45554D01*
X248496Y45544D01*
X248491Y45538D01*
X248430Y45452D01*
X248379Y45350D01*
X248333Y45243D01*
X248292Y45131D01*
X248262Y45013D01*
X248231Y44891D01*
X248211Y44774D01*
X248190Y44656D01*
X248180Y44544D01*
X248170Y44442D01*
X248160Y44345D01*
X248155Y44263D01*
X248150Y44197D01*
D01*
Y44100D01*
X248155Y43917D01*
X248165Y43748D01*
X248180Y43590D01*
X248201Y43448D01*
X248221Y43320D01*
X248247Y43203D01*
X248277Y43101D01*
X248308Y43009D01*
X248333Y42932D01*
X248364Y42861D01*
X248389Y42805D01*
X248415Y42759D01*
X248430Y42728D01*
X248445Y42703D01*
X248456Y42688D01*
X248461Y42682D01*
X248522Y42611D01*
X248588Y42555D01*
X248655Y42499D01*
X248726Y42458D01*
X248792Y42417D01*
X248864Y42387D01*
X248930Y42361D01*
X248996Y42341D01*
X249057Y42320D01*
X249113Y42310D01*
X249165Y42300D01*
X249205Y42295D01*
X249241D01*
X249272Y42290D01*
X249292D01*
X249384Y42295D01*
X249470Y42305D01*
X249557Y42325D01*
X249634Y42346D01*
X249705Y42371D01*
X249771Y42402D01*
X249828Y42438D01*
X249884Y42473D01*
X249929Y42504D01*
X249975Y42540D01*
X250011Y42570D01*
X250042Y42596D01*
X250062Y42616D01*
X250077Y42637D01*
X250088Y42647D01*
X250093Y42652D01*
X250154Y42739D01*
X250205Y42841D01*
X250256Y42948D01*
X250292Y43065D01*
X250327Y43182D01*
X250353Y43300D01*
X250378Y43422D01*
X250399Y43539D01*
X250409Y43652D01*
X250419Y43753D01*
X250429Y43850D01*
X250434Y43932D01*
X250440Y43998D01*
Y42290D01*
X250440D01*
X250440D01*
Y45906D01*
D02*
G37*
G36*
X247828Y45901D02*
D01*
Y43657D01*
X247390D01*
Y45901D01*
X245288D01*
X246818D01*
X245288Y43652D01*
Y43065D01*
X246737D01*
Y42356D01*
X247390D01*
Y43065D01*
X247828D01*
Y45901D01*
D02*
G37*
G36*
X212898Y45885D02*
X210195D01*
Y42356D01*
X210909D01*
Y43687D01*
X211542D01*
X211618Y43692D01*
X211690D01*
X211756Y43697D01*
X211817Y43703D01*
X211873Y43708D01*
X211919Y43713D01*
X211965D01*
X212001Y43718D01*
X212036Y43723D01*
X212062Y43728D01*
X212082D01*
X212098Y43733D01*
X212108D01*
X212179Y43753D01*
X212246Y43779D01*
X212307Y43804D01*
X212363Y43835D01*
X212409Y43861D01*
X212444Y43881D01*
X212465Y43896D01*
X212475Y43901D01*
X212541Y43952D01*
X212597Y44008D01*
X212654Y44070D01*
X212694Y44121D01*
X212730Y44172D01*
X212756Y44212D01*
X212771Y44238D01*
X212776Y44248D01*
X212817Y44335D01*
X212847Y44427D01*
X212868Y44524D01*
X212883Y44610D01*
X212893Y44682D01*
Y44717D01*
X212898Y44743D01*
Y42499D01*
Y44743D01*
Y44799D01*
X212888Y44947D01*
X212868Y45085D01*
X212832Y45197D01*
X212796Y45299D01*
X212776Y45340D01*
X212756Y45375D01*
X212740Y45406D01*
X212720Y45436D01*
X212710Y45457D01*
X212700Y45472D01*
X212689Y45477D01*
Y45482D01*
X212608Y45574D01*
X212526Y45651D01*
X212439Y45712D01*
X212363Y45758D01*
X212292Y45788D01*
X212235Y45814D01*
X212215Y45819D01*
X212200Y45824D01*
X212190Y45829D01*
X212184D01*
X212144Y45839D01*
X212093Y45850D01*
X212031Y45855D01*
X211970Y45860D01*
X211827Y45870D01*
X211685Y45880D01*
X211552D01*
X211496Y45885D01*
X212898D01*
D02*
G37*
G36*
X239709D02*
X236420D01*
X237684Y42356D01*
X236420D01*
X239709D01*
X238455D01*
X239709Y45885D01*
D01*
D02*
G37*
G36*
X225363D02*
X221966D01*
Y42356D01*
X222624D01*
Y45131D01*
X223318Y42356D01*
X224006D01*
X224700Y45131D01*
X224705Y42356D01*
X225363D01*
Y45885D01*
D02*
G37*
G36*
X220176D02*
X218055D01*
X219421D01*
X218055Y42356D01*
X218809D01*
X219100Y43157D01*
X220518D01*
X220824Y42356D01*
X220348D01*
X221594D01*
X220176Y45885D01*
D02*
G37*
G36*
X206299D02*
X203616Y45885D01*
Y42356D01*
X206299Y42356D01*
Y42953D01*
X204330Y42953D01*
Y43912D01*
X206100Y43912D01*
Y44508D01*
X204330Y44508D01*
Y45289D01*
X206233Y45289D01*
Y45885D01*
X206299D01*
D01*
D02*
G37*
G36*
X236221Y43896D02*
Y42290D01*
D01*
Y43896D01*
D02*
G37*
%LPD*%
G36*
X243957Y44146D02*
X244024Y44126D01*
X244080Y44100D01*
X244131Y44070D01*
X244172Y44039D01*
X244197Y44014D01*
X244217Y43993D01*
X244223Y43988D01*
X244268Y43922D01*
X244304Y43840D01*
X244325Y43753D01*
X244345Y43672D01*
X244355Y43595D01*
X244360Y43534D01*
Y43514D01*
Y43493D01*
Y43483D01*
Y43478D01*
X244355Y43361D01*
X244340Y43259D01*
X244320Y43177D01*
X244299Y43111D01*
X244274Y43060D01*
X244253Y43024D01*
X244238Y42999D01*
X244233Y42994D01*
X244182Y42948D01*
X244131Y42912D01*
X244075Y42886D01*
X244029Y42871D01*
X243983Y42861D01*
X243947Y42851D01*
X243917D01*
X243845Y42861D01*
X243779Y42881D01*
X243723Y42907D01*
X243672Y42943D01*
X243631Y42973D01*
X243595Y43004D01*
X243575Y43024D01*
X243570Y43029D01*
X243519Y43101D01*
X243483Y43182D01*
X243458Y43269D01*
X243442Y43351D01*
X243432Y43427D01*
X243422Y43483D01*
Y43509D01*
Y43524D01*
Y43534D01*
Y43539D01*
X243427Y43646D01*
X243442Y43738D01*
X243463Y43815D01*
X243488Y43881D01*
X243514Y43927D01*
X243534Y43963D01*
X243549Y43988D01*
X243554Y43993D01*
X243605Y44044D01*
X243662Y44085D01*
X243718Y44111D01*
X243769Y44131D01*
X243815Y44141D01*
X243855Y44151D01*
X243886D01*
X243957Y44146D01*
D02*
G37*
G36*
X245023Y42290D02*
X243886D01*
X243978Y42295D01*
X244064Y42305D01*
X244146Y42320D01*
X244223Y42341D01*
X244299Y42366D01*
X244365Y42392D01*
X244427Y42422D01*
X244483Y42453D01*
X244534Y42484D01*
X244574Y42514D01*
X244615Y42540D01*
X244646Y42565D01*
X244671Y42586D01*
X244687Y42601D01*
X244697Y42611D01*
X244702Y42616D01*
X244758Y42677D01*
X244809Y42749D01*
X244850Y42820D01*
X244886Y42892D01*
X244921Y42963D01*
X244947Y43034D01*
X244983Y43177D01*
X244998Y43238D01*
X245008Y43300D01*
X245013Y43351D01*
X245018Y43396D01*
X245023Y43437D01*
Y42290D01*
D02*
G37*
G36*
X242203Y42983D02*
X240857D01*
X240897Y43050D01*
X240943Y43106D01*
X240964Y43131D01*
X240979Y43152D01*
X240989Y43162D01*
X240994Y43167D01*
X241015Y43187D01*
X241035Y43213D01*
X241096Y43269D01*
X241163Y43335D01*
X241229Y43402D01*
X241295Y43463D01*
X241351Y43514D01*
X241372Y43534D01*
X241387Y43549D01*
X241397Y43555D01*
X241402Y43560D01*
X241514Y43667D01*
X241606Y43753D01*
X241683Y43835D01*
X241744Y43896D01*
X241790Y43947D01*
X241821Y43983D01*
X241841Y44008D01*
X241846Y44014D01*
X241912Y44100D01*
X241968Y44182D01*
X242014Y44258D01*
X242050Y44325D01*
X242081Y44381D01*
X242101Y44427D01*
X242111Y44452D01*
X242116Y44462D01*
X242147Y44544D01*
X242167Y44626D01*
X242183Y44702D01*
X242193Y44774D01*
X242198Y44830D01*
X242203Y44875D01*
Y42983D01*
D02*
G37*
G36*
X234594Y45340D02*
X234670Y45329D01*
X234742Y45319D01*
X234808Y45299D01*
X234925Y45248D01*
X234981Y45222D01*
X235027Y45197D01*
X235073Y45166D01*
X235109Y45141D01*
X235139Y45115D01*
X235170Y45090D01*
X235191Y45069D01*
X235206Y45059D01*
X235211Y45049D01*
X235216Y45044D01*
X235262Y44983D01*
X235308Y44916D01*
X235344Y44850D01*
X235374Y44774D01*
X235420Y44620D01*
X235451Y44473D01*
X235466Y44406D01*
X235471Y44340D01*
X235476Y44284D01*
X235481Y44233D01*
X235486Y44187D01*
Y44156D01*
Y44136D01*
Y44131D01*
X235481Y44019D01*
X235476Y43912D01*
X235461Y43815D01*
X235445Y43728D01*
X235425Y43641D01*
X235400Y43565D01*
X235374Y43499D01*
X235349Y43437D01*
X235323Y43381D01*
X235298Y43335D01*
X235277Y43295D01*
X235252Y43259D01*
X235236Y43233D01*
X235221Y43218D01*
X235216Y43208D01*
X235211Y43203D01*
X235160Y43147D01*
X235104Y43101D01*
X235043Y43060D01*
X234986Y43024D01*
X234925Y42999D01*
X234869Y42973D01*
X234757Y42937D01*
X234660Y42912D01*
X234619Y42907D01*
X234584Y42902D01*
X234553Y42897D01*
X234512D01*
X234436Y42902D01*
X234359Y42912D01*
X234288Y42927D01*
X234222Y42948D01*
X234099Y42994D01*
X234002Y43055D01*
X233956Y43080D01*
X233921Y43111D01*
X233885Y43136D01*
X233859Y43162D01*
X233839Y43177D01*
X233824Y43192D01*
X233814Y43203D01*
X233808Y43208D01*
X233763Y43269D01*
X233717Y43335D01*
X233681Y43407D01*
X233650Y43483D01*
X233599Y43631D01*
X233569Y43779D01*
X233559Y43850D01*
X233548Y43912D01*
X233543Y43973D01*
X233538Y44024D01*
X233533Y44065D01*
Y44095D01*
Y44116D01*
Y44121D01*
X233538Y44233D01*
X233543Y44335D01*
X233559Y44432D01*
X233574Y44524D01*
X233594Y44605D01*
X233615Y44682D01*
X233640Y44748D01*
X233666Y44809D01*
X233691Y44865D01*
X233717Y44911D01*
X233737Y44947D01*
X233757Y44983D01*
X233773Y45008D01*
X233788Y45023D01*
X233793Y45034D01*
X233798Y45039D01*
X233849Y45095D01*
X233905Y45141D01*
X233966Y45182D01*
X234023Y45217D01*
X234084Y45248D01*
X234145Y45268D01*
X234257Y45309D01*
X234359Y45329D01*
X234400Y45335D01*
X234441Y45340D01*
X234471Y45345D01*
X234512D01*
X234594Y45340D01*
D02*
G37*
G36*
X249338D02*
X249379Y45335D01*
X249414Y45319D01*
X249445Y45304D01*
X249470Y45289D01*
X249491Y45278D01*
X249501Y45268D01*
X249506Y45263D01*
X249537Y45227D01*
X249567Y45182D01*
X249593Y45131D01*
X249618Y45079D01*
X249634Y45028D01*
X249649Y44988D01*
X249654Y44962D01*
X249659Y44957D01*
Y44952D01*
X249669Y44906D01*
X249680Y44850D01*
X249690Y44784D01*
X249700Y44717D01*
X249710Y44580D01*
X249715Y44437D01*
X249720Y44371D01*
Y44304D01*
X249726Y44248D01*
Y44197D01*
Y44156D01*
Y44121D01*
Y44100D01*
Y44095D01*
Y43983D01*
X249720Y43876D01*
Y43779D01*
X249715Y43692D01*
X249710Y43611D01*
X249705Y43539D01*
X249695Y43473D01*
X249690Y43417D01*
X249685Y43366D01*
X249675Y43325D01*
X249669Y43289D01*
X249664Y43259D01*
X249659Y43238D01*
Y43218D01*
X249654Y43213D01*
Y43208D01*
X249634Y43136D01*
X249608Y43080D01*
X249583Y43029D01*
X249562Y42994D01*
X249542Y42963D01*
X249521Y42943D01*
X249511Y42932D01*
X249506Y42927D01*
X249470Y42902D01*
X249435Y42881D01*
X249399Y42871D01*
X249363Y42861D01*
X249338Y42856D01*
X249312Y42851D01*
X249292D01*
X249246Y42856D01*
X249205Y42861D01*
X249170Y42876D01*
X249139Y42892D01*
X249113Y42902D01*
X249093Y42917D01*
X249083Y42922D01*
X249078Y42927D01*
X249047Y42963D01*
X249017Y43009D01*
X248991Y43060D01*
X248966Y43111D01*
X248950Y43157D01*
X248935Y43198D01*
X248930Y43223D01*
X248925Y43233D01*
X248915Y43284D01*
X248904Y43340D01*
X248894Y43402D01*
X248889Y43468D01*
X248879Y43611D01*
X248874Y43753D01*
X248869Y43820D01*
Y43886D01*
X248864Y43942D01*
Y43993D01*
Y44034D01*
Y44070D01*
Y44090D01*
Y44095D01*
Y44207D01*
X248869Y44315D01*
Y44406D01*
X248874Y44498D01*
X248879Y44575D01*
X248884Y44651D01*
X248889Y44712D01*
X248899Y44774D01*
X248904Y44824D01*
X248909Y44865D01*
X248915Y44901D01*
X248920Y44932D01*
X248925Y44952D01*
Y44972D01*
X248930Y44978D01*
Y44983D01*
X248950Y45054D01*
X248976Y45115D01*
X248996Y45161D01*
X249022Y45202D01*
X249042Y45227D01*
X249057Y45248D01*
X249068Y45258D01*
X249073Y45263D01*
X249108Y45289D01*
X249149Y45309D01*
X249185Y45324D01*
X249221Y45335D01*
X249246Y45340D01*
X249272Y45345D01*
X249292D01*
X249338Y45340D01*
D02*
G37*
G36*
X246737Y43657D02*
X245916D01*
X246737Y44870D01*
Y43657D01*
D02*
G37*
G36*
X211491Y45283D02*
X211537D01*
X211583Y45278D01*
X211649D01*
X211700Y45273D01*
X211736Y45268D01*
X211756Y45263D01*
X211761D01*
X211822Y45248D01*
X211878Y45227D01*
X211929Y45202D01*
X211970Y45171D01*
X212001Y45146D01*
X212026Y45125D01*
X212042Y45110D01*
X212047Y45105D01*
X212087Y45054D01*
X212113Y45003D01*
X212133Y44947D01*
X212149Y44896D01*
X212159Y44850D01*
X212164Y44814D01*
Y44794D01*
Y44784D01*
X212159Y44728D01*
X212154Y44677D01*
X212139Y44631D01*
X212123Y44590D01*
X212108Y44554D01*
X212098Y44529D01*
X212087Y44513D01*
X212082Y44508D01*
X212052Y44467D01*
X212011Y44432D01*
X211975Y44401D01*
X211940Y44376D01*
X211909Y44360D01*
X211883Y44345D01*
X211863Y44340D01*
X211858Y44335D01*
X211827Y44325D01*
X211792Y44320D01*
X211710Y44304D01*
X211618Y44294D01*
X211526Y44289D01*
X211435D01*
X211399Y44284D01*
X210909D01*
Y45289D01*
X211440D01*
X211491Y45283D01*
D02*
G37*
G36*
X238087Y43274D02*
X237190Y45885D01*
X238949D01*
X238087Y43274D01*
D02*
G37*
G36*
X223664Y43473D02*
X223032Y45885D01*
X224292D01*
X223664Y43473D01*
D02*
G37*
G36*
X220288Y43753D02*
X219314D01*
X219794Y45064D01*
X220288Y43753D01*
D02*
G37*
%LPC*%
G36*
X244164Y178252D02*
X241604D01*
Y177475D01*
X243354Y177020D01*
X241604Y176561D01*
Y175787D01*
X244164D01*
Y177268D01*
X242152Y177771D01*
X244164Y177774D01*
Y178252D01*
D02*
G37*
G36*
Y175458D02*
Y174703D01*
X242037D01*
Y175458D01*
X241604D01*
Y173427D01*
X244164D01*
Y175458D01*
D02*
G37*
G36*
X244213Y173168D02*
D01*
Y172139D01*
X244209Y172258D01*
X244198Y172365D01*
X244183Y172461D01*
X244176Y172502D01*
X244164Y172543D01*
X244157Y172576D01*
X244150Y172606D01*
X244142Y172631D01*
X244135Y172654D01*
X244127Y172672D01*
X244124Y172683D01*
X244120Y172691D01*
Y172694D01*
X244079Y172776D01*
X244035Y172842D01*
X243991Y172905D01*
X243942Y172953D01*
X243902Y172990D01*
X243865Y173020D01*
X243843Y173035D01*
X243839Y173042D01*
X243835D01*
X243761Y173083D01*
X243691Y173116D01*
X243621Y173138D01*
X243554Y173153D01*
X243502Y173161D01*
X243476Y173164D01*
X243458Y173168D01*
X244213D01*
X243458D01*
D01*
X243421D01*
X243332Y173164D01*
X243254Y173153D01*
X243184Y173135D01*
X243125Y173116D01*
X243077Y173098D01*
X243043Y173079D01*
X243021Y173068D01*
X243014Y173064D01*
X242955Y173024D01*
X242903Y172976D01*
X242858Y172927D01*
X242821Y172883D01*
X242792Y172842D01*
X242770Y172809D01*
X242755Y172787D01*
X242751Y172783D01*
Y172779D01*
X242733Y172742D01*
X242714Y172705D01*
X242681Y172617D01*
X242651Y172524D01*
X242622Y172435D01*
X242611Y172395D01*
X242599Y172354D01*
X242588Y172317D01*
X242581Y172287D01*
X242573Y172261D01*
X242570Y172243D01*
X242566Y172228D01*
Y172224D01*
X242548Y172158D01*
X242533Y172099D01*
X242518Y172043D01*
X242503Y171991D01*
X242488Y171951D01*
X242474Y171910D01*
X242459Y171877D01*
X242448Y171847D01*
X242437Y171821D01*
X242425Y171803D01*
X242418Y171784D01*
X242411Y171773D01*
X242400Y171755D01*
X242396Y171751D01*
X242370Y171725D01*
X242344Y171706D01*
X242318Y171695D01*
X242292Y171688D01*
X242274Y171680D01*
X242255Y171677D01*
X242244D01*
X242241D01*
X242203Y171680D01*
X242174Y171688D01*
X242144Y171703D01*
X242122Y171718D01*
X242104Y171732D01*
X242092Y171747D01*
X242085Y171755D01*
X242081Y171758D01*
X242048Y171810D01*
X242026Y171865D01*
X242007Y171925D01*
X241996Y171980D01*
X241989Y172028D01*
X241985Y172069D01*
Y172106D01*
X241989Y172184D01*
X242000Y172250D01*
X242015Y172306D01*
X242030Y172350D01*
X242044Y172387D01*
X242059Y172413D01*
X242070Y172428D01*
X242074Y172432D01*
X242111Y172469D01*
X242155Y172502D01*
X242200Y172528D01*
X242248Y172546D01*
X242289Y172561D01*
X242322Y172569D01*
X242348Y172576D01*
X242352D01*
X242355D01*
X242337Y173094D01*
X242270Y173090D01*
X242211Y173079D01*
X242152Y173064D01*
X242100Y173046D01*
X242048Y173027D01*
X242000Y173005D01*
X241959Y172983D01*
X241919Y172961D01*
X241885Y172935D01*
X241856Y172913D01*
X241830Y172890D01*
X241808Y172872D01*
X241793Y172857D01*
X241782Y172846D01*
X241774Y172839D01*
X241771Y172835D01*
X241734Y172787D01*
X241700Y172735D01*
X241671Y172679D01*
X241645Y172620D01*
X241626Y172561D01*
X241608Y172502D01*
X241582Y172383D01*
X241575Y172328D01*
X241567Y172280D01*
X241563Y172232D01*
X241560Y172191D01*
X241556Y172158D01*
Y172113D01*
X241560Y172006D01*
X241571Y171910D01*
X241586Y171825D01*
X241600Y171751D01*
X241612Y171718D01*
X241619Y171688D01*
X241626Y171666D01*
X241634Y171643D01*
X241641Y171629D01*
X241645Y171618D01*
X241649Y171610D01*
Y171607D01*
X241686Y171532D01*
X241726Y171470D01*
X241771Y171414D01*
X241811Y171370D01*
X241848Y171333D01*
X241878Y171310D01*
X241900Y171292D01*
X241904Y171288D01*
X241908D01*
X241970Y171251D01*
X242037Y171225D01*
X242100Y171207D01*
X242155Y171196D01*
X242203Y171188D01*
X242241Y171181D01*
X242255D01*
X242266D01*
X242270D01*
X242274D01*
X242329Y171185D01*
X242385Y171192D01*
X242433Y171203D01*
X242481Y171218D01*
X242570Y171255D01*
X242648Y171299D01*
X242681Y171318D01*
X242707Y171340D01*
X242733Y171359D01*
X242755Y171377D01*
X242770Y171392D01*
X242781Y171403D01*
X242788Y171410D01*
X242792Y171414D01*
X242818Y171447D01*
X242844Y171488D01*
X242869Y171529D01*
X242892Y171577D01*
X242936Y171669D01*
X242973Y171766D01*
X242988Y171814D01*
X243003Y171854D01*
X243014Y171895D01*
X243025Y171928D01*
X243032Y171954D01*
X243040Y171976D01*
X243043Y171991D01*
Y171995D01*
X243058Y172054D01*
X243073Y172106D01*
X243084Y172154D01*
X243095Y172198D01*
X243106Y172236D01*
X243114Y172269D01*
X243125Y172298D01*
X243132Y172324D01*
X243136Y172346D01*
X243143Y172365D01*
X243151Y172391D01*
X243158Y172406D01*
Y172409D01*
X243177Y172458D01*
X243195Y172494D01*
X243214Y172528D01*
X243232Y172554D01*
X243247Y172572D01*
X243258Y172583D01*
X243265Y172591D01*
X243269Y172594D01*
X243295Y172613D01*
X243321Y172628D01*
X243347Y172635D01*
X243369Y172643D01*
X243391Y172646D01*
X243410Y172650D01*
X243421D01*
X243425D01*
X243476Y172646D01*
X243521Y172631D01*
X243565Y172609D01*
X243602Y172587D01*
X243632Y172561D01*
X243654Y172543D01*
X243669Y172528D01*
X243672Y172520D01*
X243706Y172469D01*
X243732Y172409D01*
X243750Y172346D01*
X243761Y172287D01*
X243769Y172232D01*
X243776Y172187D01*
Y172147D01*
X243772Y172062D01*
X243758Y171988D01*
X243739Y171925D01*
X243717Y171869D01*
X243695Y171825D01*
X243676Y171795D01*
X243661Y171777D01*
X243658Y171769D01*
X243606Y171721D01*
X243550Y171684D01*
X243487Y171651D01*
X243425Y171629D01*
X243369Y171610D01*
X243325Y171595D01*
X243310Y171592D01*
X243295D01*
X243288Y171588D01*
X243284D01*
X243332Y171085D01*
X243410Y171096D01*
X243484Y171111D01*
X243554Y171133D01*
X243617Y171151D01*
X243676Y171177D01*
X243732Y171203D01*
X243780Y171229D01*
X243824Y171255D01*
X243861Y171281D01*
X243894Y171307D01*
X243924Y171329D01*
X243950Y171351D01*
X243968Y171366D01*
X243980Y171381D01*
X243987Y171388D01*
X243991Y171392D01*
X244031Y171444D01*
X244065Y171499D01*
X244094Y171558D01*
X244120Y171621D01*
X244139Y171680D01*
X244157Y171743D01*
X244183Y171865D01*
X244194Y171921D01*
X244201Y171973D01*
X244205Y172017D01*
X244209Y172058D01*
X244213Y172091D01*
Y171085D01*
X241556D01*
D01*
X244213D01*
Y173168D01*
D02*
G37*
G36*
X244164Y169716D02*
X243672D01*
Y169224D01*
X244164D01*
Y169716D01*
D02*
G37*
G36*
X244213Y168750D02*
D01*
Y167655D01*
X244209Y167773D01*
X244194Y167884D01*
X244176Y167992D01*
X244153Y168084D01*
X244142Y168125D01*
X244131Y168162D01*
X244120Y168195D01*
X244113Y168225D01*
X244105Y168247D01*
X244098Y168262D01*
X244094Y168273D01*
Y168277D01*
X244050Y168387D01*
X244002Y168480D01*
X243954Y168561D01*
X243913Y168632D01*
X243876Y168684D01*
X243861Y168702D01*
X243846Y168720D01*
X243835Y168732D01*
X243828Y168743D01*
X243820Y168750D01*
X242792D01*
Y167636D01*
X243225D01*
Y168228D01*
X243554D01*
X243587Y168184D01*
X243617Y168136D01*
X243643Y168088D01*
X243665Y168043D01*
X243684Y168006D01*
X243698Y167973D01*
X243706Y167955D01*
X243709Y167951D01*
Y167947D01*
X243732Y167888D01*
X243746Y167829D01*
X243758Y167773D01*
X243765Y167725D01*
X243769Y167681D01*
X243772Y167651D01*
Y167622D01*
X243769Y167562D01*
X243761Y167503D01*
X243750Y167451D01*
X243735Y167400D01*
X243698Y167307D01*
X243680Y167270D01*
X243658Y167233D01*
X243635Y167200D01*
X243617Y167170D01*
X243595Y167148D01*
X243580Y167126D01*
X243565Y167111D01*
X243554Y167100D01*
X243547Y167093D01*
X243543Y167089D01*
X243498Y167055D01*
X243447Y167022D01*
X243395Y166996D01*
X243339Y166974D01*
X243225Y166937D01*
X243114Y166915D01*
X243062Y166908D01*
X243010Y166900D01*
X242969Y166896D01*
X242929Y166893D01*
X242899Y166889D01*
X242873D01*
X242858D01*
X242855D01*
X242777Y166893D01*
X242707Y166896D01*
X242636Y166908D01*
X242573Y166919D01*
X242518Y166933D01*
X242466Y166952D01*
X242418Y166970D01*
X242374Y166989D01*
X242337Y167004D01*
X242303Y167022D01*
X242278Y167041D01*
X242255Y167055D01*
X242237Y167067D01*
X242226Y167078D01*
X242218Y167081D01*
X242215Y167085D01*
X242178Y167126D01*
X242141Y167166D01*
X242115Y167211D01*
X242089Y167255D01*
X242067Y167300D01*
X242048Y167344D01*
X242022Y167429D01*
X242015Y167470D01*
X242007Y167507D01*
X242004Y167540D01*
X242000Y167570D01*
X241996Y167592D01*
Y167625D01*
X242000Y167707D01*
X242015Y167777D01*
X242030Y167840D01*
X242052Y167895D01*
X242070Y167936D01*
X242089Y167969D01*
X242104Y167988D01*
X242107Y167995D01*
X242152Y168047D01*
X242200Y168091D01*
X242248Y168129D01*
X242296Y168154D01*
X242340Y168177D01*
X242374Y168191D01*
X242396Y168199D01*
X242400Y168202D01*
X242403D01*
X242307Y168717D01*
X242244Y168702D01*
X242181Y168680D01*
X242126Y168658D01*
X242074Y168628D01*
X242022Y168602D01*
X241978Y168572D01*
X241937Y168543D01*
X241900Y168513D01*
X241867Y168484D01*
X241837Y168458D01*
X241811Y168436D01*
X241793Y168413D01*
X241778Y168395D01*
X241763Y168380D01*
X241759Y168373D01*
X241756Y168369D01*
X241719Y168317D01*
X241689Y168262D01*
X241663Y168202D01*
X241641Y168140D01*
X241604Y168017D01*
X241582Y167899D01*
X241571Y167844D01*
X241567Y167792D01*
X241563Y167744D01*
X241560Y167703D01*
X241556Y167670D01*
Y166356D01*
X244213D01*
Y168750D01*
D02*
G37*
G36*
X242914Y166042D02*
X242888D01*
X242773Y166038D01*
X242666Y166027D01*
X242566Y166012D01*
X242470Y165990D01*
X242385Y165964D01*
X242303Y165934D01*
X242229Y165905D01*
X242166Y165872D01*
X242107Y165838D01*
X242056Y165809D01*
X242011Y165779D01*
X241974Y165753D01*
X241948Y165735D01*
X241926Y165716D01*
X241915Y165705D01*
X241911Y165701D01*
X241848Y165635D01*
X241793Y165564D01*
X241745Y165490D01*
X241704Y165416D01*
X241671Y165339D01*
X241641Y165265D01*
X241619Y165191D01*
X241600Y165120D01*
X241586Y165054D01*
X241575Y164991D01*
X241567Y164935D01*
X241560Y164887D01*
Y164850D01*
X241556Y164821D01*
Y163559D01*
X244213D01*
Y164850D01*
Y164802D01*
X244209Y164906D01*
X244198Y165002D01*
X244179Y165094D01*
X244157Y165180D01*
X244131Y165261D01*
X244102Y165335D01*
X244072Y165402D01*
X244039Y165464D01*
X244005Y165516D01*
X243976Y165564D01*
X243946Y165605D01*
X243920Y165638D01*
X243898Y165668D01*
X243880Y165687D01*
X243868Y165698D01*
X243865Y165701D01*
X243794Y165761D01*
X243721Y165812D01*
X243643Y165860D01*
X243565Y165897D01*
X243484Y165931D01*
X243402Y165960D01*
X243321Y165982D01*
X243243Y166001D01*
X243173Y166012D01*
X243103Y166023D01*
X243043Y166031D01*
X242992Y166038D01*
X242947D01*
X242914Y166042D01*
D02*
G37*
G36*
X244164Y163385D02*
D01*
X243665Y163071D01*
X243613Y163037D01*
X243561Y163004D01*
X243517Y162974D01*
X243476Y162945D01*
X243439Y162919D01*
X243402Y162897D01*
X243347Y162852D01*
X243302Y162819D01*
X243273Y162797D01*
X243254Y162778D01*
X243251Y162775D01*
X243206Y162734D01*
X243165Y162686D01*
X243132Y162641D01*
X243099Y162597D01*
X243073Y162560D01*
X243055Y162530D01*
X243040Y162508D01*
X243036Y162504D01*
Y162501D01*
X243025Y162564D01*
X243010Y162619D01*
X242995Y162671D01*
X242977Y162723D01*
X242958Y162767D01*
X242940Y162808D01*
X242921Y162849D01*
X242899Y162882D01*
X242881Y162911D01*
X242862Y162937D01*
X242844Y162960D01*
X242829Y162974D01*
X242818Y162989D01*
X242807Y163000D01*
X242803Y163004D01*
X242799Y163008D01*
X242762Y163037D01*
X242725Y163063D01*
X242644Y163108D01*
X242566Y163137D01*
X242488Y163156D01*
X242422Y163171D01*
X242396Y163174D01*
X242370D01*
X242352Y163178D01*
X242333D01*
X242326D01*
X242322D01*
X242241Y163174D01*
X242163Y163159D01*
X242096Y163141D01*
X242037Y163122D01*
X241989Y163100D01*
X241952Y163082D01*
X241941Y163074D01*
X241930Y163067D01*
X241926Y163063D01*
X241922D01*
X241859Y163019D01*
X241808Y162971D01*
X241767Y162923D01*
X241730Y162874D01*
X241708Y162830D01*
X241689Y162797D01*
X241678Y162775D01*
X241674Y162771D01*
Y162767D01*
X241663Y162730D01*
X241652Y162689D01*
X241634Y162597D01*
X241623Y162497D01*
X241612Y162401D01*
Y162353D01*
X241608Y162312D01*
Y162271D01*
X241604Y162238D01*
Y162375D01*
Y161084D01*
X244164D01*
Y163385D01*
D02*
G37*
G36*
Y160658D02*
Y159215D01*
X243199D01*
Y159674D01*
X243195Y159730D01*
Y159781D01*
X243191Y159829D01*
X243188Y159874D01*
X243184Y159915D01*
X243180Y159948D01*
Y159981D01*
X243177Y160007D01*
X243173Y160033D01*
X243169Y160051D01*
Y160066D01*
X243165Y160077D01*
Y160085D01*
X243151Y160136D01*
X243132Y160185D01*
X243114Y160229D01*
X243092Y160270D01*
X243073Y160303D01*
X243058Y160329D01*
X243047Y160344D01*
X243043Y160351D01*
X243006Y160399D01*
X242966Y160440D01*
X242921Y160481D01*
X242884Y160510D01*
X242847Y160536D01*
X242818Y160555D01*
X242799Y160566D01*
X242792Y160569D01*
X242729Y160599D01*
X242662Y160621D01*
X242592Y160636D01*
X242529Y160647D01*
X242477Y160654D01*
X242451D01*
X242433Y160658D01*
X242392D01*
X242285Y160651D01*
X242185Y160636D01*
X242104Y160610D01*
X242030Y160584D01*
X242000Y160569D01*
X241974Y160555D01*
X241952Y160544D01*
X241930Y160529D01*
X241915Y160521D01*
X241904Y160514D01*
X241900Y160506D01*
X241896D01*
X241830Y160447D01*
X241774Y160388D01*
X241730Y160325D01*
X241697Y160270D01*
X241674Y160218D01*
X241656Y160177D01*
X241652Y160162D01*
X241649Y160151D01*
X241645Y160144D01*
Y160140D01*
X241637Y160111D01*
X241630Y160074D01*
X241626Y160029D01*
X241623Y159985D01*
X241615Y159881D01*
X241608Y159778D01*
Y159681D01*
X241604Y159641D01*
Y158697D01*
X244164D01*
Y160658D01*
D02*
G37*
%LPD*%
G36*
Y176265D02*
X242152D01*
X244164Y176768D01*
Y176265D01*
D02*
G37*
G36*
Y173427D02*
X242037D01*
Y174185D01*
X244164D01*
Y173427D01*
D02*
G37*
G36*
X244213Y166356D02*
X242877D01*
X243014Y166364D01*
X243140Y166378D01*
X243254Y166404D01*
X243310Y166415D01*
X243358Y166430D01*
X243402Y166445D01*
X243443Y166456D01*
X243476Y166471D01*
X243506Y166482D01*
X243528Y166489D01*
X243547Y166497D01*
X243558Y166504D01*
X243561D01*
X243672Y166567D01*
X243769Y166637D01*
X243854Y166711D01*
X243920Y166785D01*
X243950Y166819D01*
X243976Y166852D01*
X243998Y166878D01*
X244013Y166904D01*
X244028Y166922D01*
X244039Y166941D01*
X244042Y166948D01*
X244046Y166952D01*
X244076Y167011D01*
X244102Y167067D01*
X244142Y167189D01*
X244172Y167307D01*
X244190Y167414D01*
X244198Y167466D01*
X244205Y167511D01*
X244209Y167551D01*
Y167588D01*
X244213Y167614D01*
Y166356D01*
D02*
G37*
G36*
X241560Y167492D02*
X241575Y167374D01*
X241586Y167322D01*
X241597Y167270D01*
X241608Y167222D01*
X241619Y167181D01*
X241634Y167144D01*
X241645Y167107D01*
X241656Y167081D01*
X241663Y167055D01*
X241674Y167037D01*
X241678Y167022D01*
X241686Y167015D01*
Y167011D01*
X241752Y166896D01*
X241793Y166848D01*
X241830Y166800D01*
X241870Y166756D01*
X241911Y166715D01*
X241952Y166678D01*
X241989Y166645D01*
X242026Y166619D01*
X242059Y166593D01*
X242089Y166571D01*
X242115Y166552D01*
X242137Y166541D01*
X242152Y166530D01*
X242163Y166526D01*
X242166Y166523D01*
X242226Y166493D01*
X242285Y166467D01*
X242407Y166427D01*
X242529Y166397D01*
X242636Y166378D01*
X242688Y166371D01*
X242733Y166364D01*
X242773Y166360D01*
X242810D01*
X242836Y166356D01*
X241556D01*
Y167625D01*
X241560Y167492D01*
D02*
G37*
G36*
X242958Y165505D02*
X243036Y165501D01*
X243106Y165490D01*
X243169Y165479D01*
X243232Y165464D01*
X243288Y165446D01*
X243336Y165427D01*
X243380Y165409D01*
X243421Y165391D01*
X243454Y165372D01*
X243484Y165357D01*
X243510Y165339D01*
X243528Y165328D01*
X243539Y165316D01*
X243547Y165313D01*
X243550Y165309D01*
X243591Y165272D01*
X243624Y165231D01*
X243654Y165187D01*
X243680Y165146D01*
X243698Y165102D01*
X243717Y165061D01*
X243743Y164980D01*
X243761Y164910D01*
X243765Y164880D01*
X243769Y164854D01*
X243772Y164832D01*
Y164802D01*
X243769Y164747D01*
X243761Y164691D01*
X243750Y164639D01*
X243735Y164591D01*
X243702Y164503D01*
X243658Y164432D01*
X243639Y164399D01*
X243617Y164373D01*
X243598Y164347D01*
X243580Y164329D01*
X243569Y164314D01*
X243558Y164303D01*
X243550Y164295D01*
X243547Y164292D01*
X243502Y164258D01*
X243454Y164225D01*
X243402Y164199D01*
X243347Y164177D01*
X243239Y164140D01*
X243132Y164118D01*
X243080Y164110D01*
X243036Y164103D01*
X242992Y164099D01*
X242955Y164095D01*
X242925Y164092D01*
X242903D01*
X242888D01*
X242884D01*
X242803Y164095D01*
X242729Y164099D01*
X242659Y164110D01*
X242592Y164121D01*
X242533Y164136D01*
X242477Y164151D01*
X242429Y164170D01*
X242385Y164188D01*
X242344Y164207D01*
X242311Y164225D01*
X242285Y164240D01*
X242259Y164255D01*
X242241Y164266D01*
X242229Y164277D01*
X242222Y164280D01*
X242218Y164284D01*
X242178Y164321D01*
X242144Y164362D01*
X242115Y164406D01*
X242089Y164447D01*
X242067Y164491D01*
X242052Y164536D01*
X242022Y164617D01*
X242007Y164691D01*
X242004Y164721D01*
X242000Y164750D01*
X241996Y164773D01*
Y164802D01*
X242000Y164861D01*
X242007Y164917D01*
X242015Y164969D01*
X242030Y165017D01*
X242067Y165102D01*
X242085Y165143D01*
X242104Y165176D01*
X242126Y165209D01*
X242144Y165235D01*
X242163Y165257D01*
X242181Y165279D01*
X242196Y165294D01*
X242203Y165305D01*
X242211Y165309D01*
X242215Y165313D01*
X242259Y165346D01*
X242307Y165379D01*
X242355Y165405D01*
X242411Y165427D01*
X242522Y165461D01*
X242629Y165483D01*
X242677Y165494D01*
X242725Y165498D01*
X242766Y165501D01*
X242803Y165505D01*
X242836Y165509D01*
X242858D01*
X242873D01*
X242877D01*
X242958Y165505D01*
D02*
G37*
G36*
X244213Y163559D02*
X242903D01*
X243014Y163563D01*
X243121Y163574D01*
X243221Y163589D01*
X243314Y163611D01*
X243399Y163637D01*
X243476Y163666D01*
X243550Y163696D01*
X243613Y163729D01*
X243672Y163759D01*
X243721Y163788D01*
X243765Y163818D01*
X243802Y163844D01*
X243828Y163866D01*
X243850Y163881D01*
X243861Y163892D01*
X243865Y163896D01*
X243928Y163962D01*
X243980Y164033D01*
X244028Y164103D01*
X244065Y164181D01*
X244098Y164255D01*
X244127Y164332D01*
X244150Y164403D01*
X244168Y164477D01*
X244183Y164543D01*
X244194Y164606D01*
X244201Y164662D01*
X244205Y164710D01*
X244209Y164747D01*
X244213Y164776D01*
Y163559D01*
D02*
G37*
G36*
X241560Y164684D02*
X241571Y164576D01*
X241589Y164484D01*
X241608Y164403D01*
X241619Y164369D01*
X241626Y164336D01*
X241634Y164310D01*
X241645Y164288D01*
X241649Y164269D01*
X241656Y164255D01*
X241660Y164247D01*
Y164243D01*
X241689Y164177D01*
X241726Y164114D01*
X241767Y164058D01*
X241804Y164010D01*
X241837Y163970D01*
X241867Y163936D01*
X241885Y163918D01*
X241889Y163914D01*
X241893Y163910D01*
X241952Y163859D01*
X242015Y163811D01*
X242070Y163770D01*
X242126Y163737D01*
X242174Y163711D01*
X242211Y163689D01*
X242226Y163685D01*
X242237Y163677D01*
X242241Y163674D01*
X242244D01*
X242348Y163637D01*
X242459Y163607D01*
X242570Y163589D01*
X242673Y163574D01*
X242722Y163570D01*
X242766Y163566D01*
X242803Y163563D01*
X242836D01*
X242866Y163559D01*
X241556D01*
Y164795D01*
X241560Y164684D01*
D02*
G37*
G36*
X244164Y161602D02*
X243095D01*
Y161768D01*
X243099Y161820D01*
X243103Y161864D01*
X243110Y161901D01*
X243114Y161931D01*
X243121Y161950D01*
X243125Y161961D01*
Y161964D01*
X243140Y161994D01*
X243154Y162023D01*
X243173Y162049D01*
X243188Y162075D01*
X243206Y162094D01*
X243221Y162109D01*
X243228Y162116D01*
X243232Y162120D01*
X243251Y162135D01*
X243269Y162153D01*
X243325Y162194D01*
X243384Y162238D01*
X243450Y162286D01*
X243510Y162327D01*
X243539Y162345D01*
X243561Y162360D01*
X243580Y162375D01*
X243595Y162386D01*
X243606Y162390D01*
X243609Y162393D01*
X244164Y162764D01*
Y161602D01*
D02*
G37*
G36*
X242400Y162641D02*
X242437Y162638D01*
X242470Y162627D01*
X242499Y162619D01*
X242522Y162608D01*
X242536Y162597D01*
X242548Y162593D01*
X242551Y162590D01*
X242577Y162567D01*
X242599Y162545D01*
X242633Y162497D01*
X242644Y162479D01*
X242651Y162460D01*
X242659Y162449D01*
Y162445D01*
X242662Y162427D01*
X242670Y162397D01*
X242673Y162368D01*
X242677Y162334D01*
X242681Y162257D01*
X242685Y162179D01*
X242688Y162105D01*
Y161602D01*
X242037D01*
Y162194D01*
X242041Y162227D01*
Y162308D01*
X242044Y162342D01*
Y162364D01*
X242048Y162375D01*
Y162379D01*
X242059Y162423D01*
X242074Y162464D01*
X242089Y162497D01*
X242107Y162523D01*
X242126Y162545D01*
X242137Y162564D01*
X242148Y162571D01*
X242152Y162575D01*
X242181Y162597D01*
X242218Y162616D01*
X242252Y162627D01*
X242285Y162638D01*
X242315Y162641D01*
X242337Y162645D01*
X242352D01*
X242359D01*
X242400Y162641D01*
D02*
G37*
G36*
X242444Y160122D02*
X242481Y160118D01*
X242514Y160107D01*
X242544Y160096D01*
X242570Y160085D01*
X242588Y160077D01*
X242599Y160070D01*
X242603Y160066D01*
X242633Y160044D01*
X242659Y160014D01*
X242681Y159988D01*
X242699Y159963D01*
X242710Y159940D01*
X242722Y159922D01*
X242725Y159907D01*
X242729Y159903D01*
X242736Y159881D01*
X242740Y159855D01*
X242751Y159796D01*
X242758Y159730D01*
X242762Y159663D01*
Y159596D01*
X242766Y159570D01*
Y159215D01*
X242037D01*
Y159600D01*
X242041Y159637D01*
Y159670D01*
X242044Y159704D01*
Y159752D01*
X242048Y159789D01*
X242052Y159815D01*
X242056Y159829D01*
Y159833D01*
X242067Y159878D01*
X242081Y159918D01*
X242100Y159955D01*
X242122Y159985D01*
X242141Y160007D01*
X242155Y160026D01*
X242166Y160037D01*
X242170Y160040D01*
X242207Y160070D01*
X242244Y160088D01*
X242285Y160103D01*
X242322Y160114D01*
X242355Y160122D01*
X242381Y160125D01*
X242396D01*
X242403D01*
X242444Y160122D01*
D02*
G37*
D10*
X78722Y63557D02*
G03*
X78875Y47155I-10010J-8295D01*
G01*
X149101Y47155D02*
G03*
X149254Y63557I10163J8107D01*
G01*
X81588Y297673D02*
G03*
X81588Y297673I-139J0D01*
G01*
X185131Y98107D02*
G03*
X185131Y98107I-500J0D01*
G01*
X184682Y284458D02*
G03*
X184682Y284458I-500J0D01*
G01*
X265894Y238740D02*
G03*
X265894Y238740I-500J0D01*
G01*
X222787Y95380D02*
G03*
X222787Y95380I-11811J0D01*
G01*
X104751Y95370D02*
G03*
X104751Y95370I-11811J0D01*
G01*
X65381Y315851D02*
G03*
X65381Y315851I-11811J0D01*
G01*
Y343410D02*
G03*
X65381Y343410I-11811J0D01*
G01*
X262231D02*
G03*
X262231Y343410I-11811J0D01*
G01*
X262241Y315851D02*
G03*
X262241Y315851I-11811J0D01*
G01*
X81850Y283608D02*
G03*
X81850Y283608I-13000J0D01*
G01*
X172402D02*
G03*
X172402Y283608I-13000J0D01*
G01*
X50622Y55262D02*
G03*
X50622Y55262I-11811J0D01*
G01*
Y283609D02*
G03*
X50622Y283609I-11811J0D01*
G01*
X80803Y61136D02*
Y67386D01*
Y42386D02*
Y48636D01*
X171685Y181429D02*
X210635D01*
X171685Y177429D02*
Y181429D01*
X210635Y177429D02*
Y181429D01*
Y135429D02*
Y139429D01*
X171685Y135429D02*
Y139429D01*
X195735Y172929D02*
Y173929D01*
X194735D02*
X195735D01*
X194735Y172929D02*
Y173929D01*
Y172929D02*
X195735D01*
Y162929D02*
Y163929D01*
X194735D02*
X195735D01*
X194735Y162929D02*
Y163929D01*
Y162929D02*
X195735D01*
X195635Y152929D02*
Y153929D01*
X194635D02*
X195635D01*
X194635Y152929D02*
Y153929D01*
Y152929D02*
X195635D01*
X195435Y142929D02*
Y143929D01*
X194435D02*
X195435D01*
X194435Y142929D02*
Y143929D01*
Y142929D02*
X195435D01*
X183135Y171429D02*
Y175429D01*
X197136D01*
Y171429D02*
Y175429D01*
X183135Y171429D02*
X197136D01*
X183135Y161429D02*
Y165429D01*
X197136D01*
Y161429D02*
Y165429D01*
X183135Y161429D02*
X197136D01*
X183135Y151429D02*
Y155429D01*
X197136D01*
Y151429D02*
Y155429D01*
X183135Y151429D02*
X197136D01*
X183135Y141429D02*
X197136D01*
Y145429D01*
X183135D02*
X197136D01*
X183135Y141429D02*
Y145429D01*
X171635Y135429D02*
X210635D01*
X213000Y171768D02*
Y180000D01*
X239000Y171768D02*
Y180000D01*
Y156500D02*
Y164732D01*
X213000Y156500D02*
Y164732D01*
X80803Y66581D02*
X112803D01*
X80803Y67386D02*
X112803D01*
X80803Y42386D02*
X112803D01*
Y67386D01*
X174362Y193468D02*
Y196421D01*
Y193468D02*
X177315D01*
X210780D02*
X213732D01*
Y196421D01*
X174362Y229886D02*
Y232839D01*
X177315D01*
X210780D02*
X211764D01*
X213732Y230870D01*
Y229886D02*
Y230870D01*
X202135Y173679D02*
X198636D01*
X200386Y171929D01*
Y174262D01*
X199219Y161929D02*
X198636Y162512D01*
Y163679D01*
X199219Y164262D01*
X199802D01*
X200386Y163679D01*
Y163095D01*
Y163679D01*
X200969Y164262D01*
X201552D01*
X202135Y163679D01*
Y162512D01*
X201552Y161929D01*
X202135Y154262D02*
Y151929D01*
X199802Y154262D01*
X199219D01*
X198636Y153679D01*
Y152512D01*
X199219Y151929D01*
X202135Y142929D02*
Y144095D01*
Y143512D01*
X198636D01*
X199219Y142929D01*
D11*
X227925Y86776D02*
G03*
X227925Y86776I-197J0D01*
G01*
X240504Y292584D02*
G03*
X240504Y292584I-689J0D01*
G01*
X119504Y316486D02*
G03*
X119504Y316486I-197J0D01*
G01*
X112048Y316585D02*
G03*
X112048Y316585I-197J0D01*
G01*
X211493Y326772D02*
G03*
X211493Y326772I-2994J0D01*
G01*
X97493D02*
G03*
X97493Y326772I-2994J0D01*
G01*
X216356Y136921D02*
X217356Y137921D01*
X216356Y136921D02*
X217356Y135921D01*
X216456Y136921D02*
X217556D01*
X201370Y131150D02*
X202370Y132150D01*
X201370Y133150D02*
X202370Y132150D01*
X201170D02*
X202270D01*
X82039Y289306D02*
X91882D01*
X82531Y297574D02*
X91882D01*
X237059Y298489D02*
X247886D01*
Y286678D02*
Y298489D01*
X237059Y286678D02*
Y298489D01*
Y286678D02*
X247886D01*
X269300Y207369D02*
X280700D01*
X269300Y201969D02*
Y207369D01*
Y201969D02*
X280700D01*
Y207369D01*
X29985Y314966D02*
Y316066D01*
X28986Y315166D02*
X29985Y316166D01*
X30986Y315166D01*
X89978Y120240D02*
X91078D01*
X89877D02*
X90877Y119240D01*
X89877Y120240D02*
X90877Y121240D01*
X90898Y198380D02*
Y199480D01*
X89898Y198580D02*
X90898Y199580D01*
X91898Y198580D01*
X194244Y96412D02*
Y97512D01*
X193244Y96612D02*
X194244Y97612D01*
X195244Y96612D01*
X169945Y260365D02*
X171045D01*
X169844D02*
X170844Y259365D01*
X169844Y260365D02*
X170844Y261365D01*
X169917Y254459D02*
X171017D01*
X169817D02*
X170817Y253459D01*
X169817Y254459D02*
X170817Y255459D01*
X273117Y119707D02*
X274217D01*
X273317Y120707D02*
X274317Y119707D01*
X273317Y118707D02*
X274317Y119707D01*
D12*
X87739Y252461D02*
G03*
X87739Y252461I-394J0D01*
G01*
X157394Y336430D02*
G03*
X157394Y336430I-394J0D01*
G01*
X246894Y200000D02*
G03*
X246894Y200000I-394J0D01*
G01*
X102094Y365117D02*
Y360000D01*
X103800Y361705D01*
X105505Y360000D01*
Y365117D01*
X107211Y360000D02*
Y360853D01*
X108063D01*
Y360000D01*
X107211D01*
X116591Y365117D02*
Y360000D01*
X120002D01*
X121707D02*
Y360853D01*
X122560D01*
Y360000D01*
X121707D01*
X131088D02*
Y363411D01*
X132793Y365117D01*
X134499Y363411D01*
Y360000D01*
Y362558D01*
X131088D01*
X139615Y364264D02*
X138762Y365117D01*
X137057D01*
X136204Y364264D01*
Y360853D01*
X137057Y360000D01*
X138762D01*
X139615Y360853D01*
Y362558D01*
X137909D01*
X141321Y365117D02*
Y360000D01*
Y362558D01*
X144731D01*
Y365117D01*
Y360000D01*
X154964D02*
X151553D01*
X154964Y363411D01*
Y364264D01*
X154112Y365117D01*
X152406D01*
X151553Y364264D01*
X156670D02*
X157523Y365117D01*
X159228D01*
X160081Y364264D01*
Y360853D01*
X159228Y360000D01*
X157523D01*
X156670Y360853D01*
Y364264D01*
X165197Y360000D02*
X161786D01*
X165197Y363411D01*
Y364264D01*
X164345Y365117D01*
X162639D01*
X161786Y364264D01*
X166903D02*
X167755Y365117D01*
X169461D01*
X170314Y364264D01*
Y360853D01*
X169461Y360000D01*
X167755D01*
X166903Y360853D01*
Y364264D01*
D13*
X145347Y129694D02*
G03*
X145347Y129694I-492J0D01*
G01*
X101929Y129893D02*
G03*
X101929Y129893I-492J0D01*
G01*
X119496Y225750D02*
G03*
X119496Y225750I-492J0D01*
G01*
X249965Y288584D02*
G03*
X249965Y288584I-492J0D01*
G01*
X253149Y103807D02*
G03*
X253149Y103807I-492J0D01*
G01*
X162475Y91500D02*
G03*
X162475Y91500I-492J0D01*
G01*
X91992Y256250D02*
G03*
X91992Y256250I-492J0D01*
G01*
D14*
X219799Y296136D02*
G03*
X219799Y296136I-600J0D01*
G01*
X210598Y228945D02*
G03*
X210598Y228945I-1000J0D01*
G01*
D15*
X241290Y259217D02*
G03*
X241290Y259217I-787J0D01*
G01*
X238928Y240318D02*
G03*
X238928Y240318I-787J0D01*
G01*
D16*
X244782Y110500D02*
G03*
X244782Y110500I-1181J0D01*
G01*
D17*
X272146Y131891D02*
G03*
X272146Y131891I-2784J0D01*
G01*
X155026Y240024D02*
G03*
X155026Y240024I-2784J0D01*
G01*
X277784Y260398D02*
G03*
X277784Y260398I-2784J0D01*
G01*
X111567Y80279D02*
G03*
X110701Y81146I-866J0D01*
G01*
X111469Y75752D02*
G03*
X111567Y75850I0J98D01*
G01*
X110701Y71146D02*
G03*
X111567Y72012I0J866D01*
G01*
X79388D02*
G03*
X80254Y71146I866J0D01*
G01*
Y81146D02*
G03*
X79388Y80279I0J-866D01*
G01*
X259075Y142365D02*
G03*
X259075Y142365I-1575J0D01*
G01*
X275150Y152676D02*
G03*
X275150Y152676I-1575J0D01*
G01*
X215209Y129758D02*
Y130939D01*
X212846Y129758D02*
Y130939D01*
X210150Y129172D02*
Y130353D01*
X207788Y129172D02*
Y130353D01*
X272930Y114361D02*
X274111D01*
X272930Y116723D02*
X274111D01*
X267392Y117783D02*
Y118965D01*
X265030Y117783D02*
Y118965D01*
X252914Y93982D02*
X254095D01*
X252914Y91620D02*
X254095D01*
X239223Y91132D02*
X240404D01*
X239223Y93494D02*
X240404D01*
X241637Y86999D02*
X242818D01*
X241637Y89361D02*
X242818D01*
X88845Y253961D02*
X99845D01*
X88845Y258961D02*
X99845D01*
X88845Y253961D02*
Y258961D01*
X99845Y253961D02*
Y258961D01*
X144095Y127203D02*
X144902D01*
X144095D02*
Y129959D01*
Y138030D02*
Y140786D01*
X144902D01*
X156807D02*
X157614D01*
Y138030D02*
Y140786D01*
X156807Y127203D02*
X157614D01*
Y129959D01*
X100677Y127402D02*
X101484D01*
X100677D02*
Y130157D01*
Y138228D02*
Y140984D01*
X101484D01*
X113390D02*
X114197D01*
Y138228D02*
Y140984D01*
X113390Y127402D02*
X114197D01*
Y130157D01*
X96957Y206852D02*
Y221419D01*
X117036Y206852D02*
Y221419D01*
X96957Y206852D02*
X117036D01*
X96957Y221419D02*
X117036D01*
X155500Y337930D02*
Y348930D01*
X150500Y337930D02*
Y348930D01*
Y337930D02*
X155500D01*
X150500Y348930D02*
X155500D01*
X245000Y201500D02*
Y212500D01*
X240000Y201500D02*
Y212500D01*
Y201500D02*
X245000D01*
X240000Y212500D02*
X245000D01*
X225885Y128217D02*
X247538D01*
X225885Y106563D02*
X247538D01*
X225885D02*
Y128217D01*
X247538Y106563D02*
Y128217D01*
X146803Y42035D02*
Y80398D01*
X114520Y42035D02*
X146803D01*
X145622Y80398D02*
X146803D01*
X114520Y42035D02*
Y80398D01*
X115701D01*
X261980Y126970D02*
X276744D01*
X261980Y136813D02*
X276744D01*
X147321Y232642D02*
Y247406D01*
X157164Y232642D02*
Y247406D01*
X279921Y253016D02*
Y267779D01*
X270079Y253016D02*
Y267779D01*
X31167Y303311D02*
Y304492D01*
X28804Y303311D02*
Y304492D01*
X127170Y177130D02*
Y178311D01*
X129533Y177130D02*
Y178311D01*
X176609Y114728D02*
X177791D01*
X176609Y117091D02*
X177791D01*
X204677Y293133D02*
Y294314D01*
X207039Y293133D02*
Y294314D01*
X166882Y124768D02*
Y125949D01*
X164520Y124768D02*
Y125949D01*
X139913Y189335D02*
X141095D01*
X139913Y191697D02*
X141095D01*
X179087Y134020D02*
X180268D01*
X179087Y131658D02*
X180268D01*
X124011Y149777D02*
Y150958D01*
X121649Y149777D02*
Y150958D01*
X135189Y120319D02*
X136370D01*
X135189Y122681D02*
X136370D01*
X116531Y149777D02*
Y150958D01*
X118893Y149777D02*
Y150958D01*
X135409Y114681D02*
X136591D01*
X135409Y112319D02*
X136591D01*
X113775Y149777D02*
Y150958D01*
X111413Y149777D02*
Y150958D01*
X89640Y112258D02*
X90821D01*
X89640Y114620D02*
X90821D01*
X124421Y223906D02*
X125602D01*
X124421Y226268D02*
X125602D01*
X85386Y203114D02*
Y204295D01*
X83024Y203114D02*
Y204295D01*
X83033Y194059D02*
Y195240D01*
X85395Y194059D02*
Y195240D01*
X167616Y344089D02*
Y345270D01*
X169978Y344089D02*
Y345270D01*
X237556Y304492D02*
X238737D01*
X237556Y302130D02*
X238737D01*
X245746Y283626D02*
X246927D01*
X245746Y281264D02*
X246927D01*
X245740Y278204D02*
X246921D01*
X245740Y275841D02*
X246921D01*
X264761Y246224D02*
X265942D01*
X264761Y248587D02*
X265942D01*
X201180Y125825D02*
X202361D01*
X201180Y123463D02*
X202361D01*
X242420Y148902D02*
Y150083D01*
X244782Y148902D02*
Y150083D01*
X246836Y148724D02*
Y149905D01*
X249198Y148724D02*
Y149905D01*
X193063Y107941D02*
Y109122D01*
X195425Y107941D02*
Y109122D01*
X190504Y88283D02*
X191685D01*
X190504Y90646D02*
X191685D01*
X274909Y235681D02*
X276091D01*
X274909Y233319D02*
X276091D01*
X274909Y214181D02*
X276091D01*
X274909Y211819D02*
X276091D01*
X274909Y218681D02*
X276091D01*
X274909Y216319D02*
X276091D01*
X274909Y227181D02*
X276091D01*
X274909Y224819D02*
X276091D01*
X221819Y215145D02*
Y216326D01*
X224181Y215145D02*
Y216326D01*
X160078Y261546D02*
X161259D01*
X160078Y259183D02*
X161259D01*
X160027Y255640D02*
X161208D01*
X160027Y253278D02*
X161208D01*
X239648Y184243D02*
X240829D01*
X239648Y186606D02*
X240829D01*
X229909Y240963D02*
X231090D01*
X229909Y243325D02*
X231090D01*
X162904Y173193D02*
Y174374D01*
X165266Y173193D02*
Y174374D01*
X172742Y124778D02*
Y125960D01*
X170380Y124778D02*
Y125960D01*
X272964Y125085D02*
X274145D01*
X272964Y122723D02*
X274145D01*
X28500Y269500D02*
X38500D01*
X48500D01*
Y69500D02*
Y269500D01*
X28500Y69500D02*
Y269500D01*
Y69500D02*
X48500D01*
X85478Y71146D02*
X105477D01*
Y81146D01*
X85478D02*
X105477D01*
X85478Y71146D02*
Y81146D01*
X179100Y69100D02*
X199100D01*
Y79100D01*
X179100D02*
X199100D01*
X179100Y69100D02*
Y79100D01*
X58850Y69435D02*
X78850D01*
X58850D02*
Y269435D01*
X78850D01*
Y251935D02*
Y269435D01*
Y69435D02*
Y251935D01*
X131016Y326700D02*
X184500D01*
X193000D01*
Y336700D01*
X131016D02*
X193000D01*
X131016Y326700D02*
Y336700D01*
X260307Y104124D02*
Y111407D01*
Y70858D02*
Y78141D01*
Y85030D02*
Y97039D01*
X278418Y85030D02*
Y97039D01*
Y70858D02*
Y78141D01*
Y104124D02*
Y111407D01*
X260308D02*
X278418D01*
X260308Y70856D02*
X278418D01*
X84992Y229098D02*
X86173D01*
X84992Y226736D02*
X86173D01*
X138732Y209216D02*
X139913D01*
X138732Y211579D02*
X139913D01*
X165475Y111878D02*
Y113059D01*
X167837Y111878D02*
Y113059D01*
X183830Y293133D02*
Y294314D01*
X181468Y293133D02*
Y294314D01*
X229819Y289764D02*
Y290945D01*
X232181Y289764D02*
Y290945D01*
X176902Y97701D02*
X178084D01*
X176902Y95339D02*
X178084D01*
X156220Y168260D02*
X160221D01*
X156220Y157260D02*
X160221D01*
X136755Y168260D02*
X140755D01*
X140587Y145424D02*
X144587D01*
X161681Y135909D02*
Y137091D01*
X159319Y135909D02*
Y137091D01*
X148000Y123000D02*
X152000D01*
X148000Y112000D02*
X152000D01*
X97185Y145424D02*
X101185D01*
X97185Y156424D02*
X101185D01*
X115761Y168260D02*
X119761D01*
X115761Y157260D02*
X119761D01*
X97165D02*
X101165D01*
X97165Y168260D02*
X101165D01*
X119047Y140988D02*
X120228D01*
X119047Y138626D02*
X120228D01*
X105886Y122792D02*
X109886D01*
X105886Y111792D02*
X109886D01*
X138732Y214335D02*
X139913D01*
X138732Y216697D02*
X139913D01*
X184637Y83652D02*
Y84833D01*
X182275Y83652D02*
Y84833D01*
X113339Y191697D02*
Y192878D01*
X110976Y191697D02*
Y192878D01*
X100347Y191697D02*
Y192878D01*
X102709Y191697D02*
Y192878D01*
X220731Y285201D02*
X221912D01*
X220731Y282839D02*
X221912D01*
X184008Y245191D02*
Y246372D01*
X186370Y245191D02*
Y246372D01*
X207630Y341152D02*
Y342333D01*
X209992Y341152D02*
Y342333D01*
X77181Y329909D02*
Y331090D01*
X74819Y329909D02*
Y331090D01*
X259284Y270587D02*
X260465D01*
X259284Y268225D02*
X260465D01*
X255490Y283626D02*
X256671D01*
X255490Y281264D02*
X256671D01*
X255490Y278204D02*
X256671D01*
X255490Y275841D02*
X256671D01*
X255071Y296815D02*
Y297996D01*
X257433Y296815D02*
Y297996D01*
X249953Y296815D02*
Y297996D01*
X252315Y296815D02*
Y297996D01*
X259489Y244048D02*
Y245229D01*
X257127Y244048D02*
Y245229D01*
X257411Y254089D02*
Y255270D01*
X259773Y254089D02*
Y255270D01*
X261332Y254089D02*
Y255270D01*
X263694Y254089D02*
Y255270D01*
X246633Y233768D02*
Y234949D01*
X248995Y233768D02*
Y234949D01*
X242303Y233768D02*
Y234949D01*
X244665Y233768D02*
Y234949D01*
X259284Y220268D02*
X260465D01*
X259284Y222630D02*
X260465D01*
X259284Y215163D02*
X260465D01*
X259284Y217525D02*
X260465D01*
X218824Y142509D02*
Y143690D01*
X221186Y142509D02*
Y143690D01*
X252909Y99424D02*
X254090D01*
X252909Y101786D02*
X254090D01*
X252914Y83746D02*
X254095D01*
X252914Y86108D02*
X254095D01*
X252914Y87683D02*
X254095D01*
X252914Y90045D02*
X254095D01*
X267866Y195715D02*
X269047D01*
X267866Y193353D02*
X269047D01*
X267866Y200555D02*
X269047D01*
X267866Y198193D02*
X269047D01*
X163868Y232642D02*
Y233823D01*
X166230Y232642D02*
Y233823D01*
X213360Y187366D02*
Y188547D01*
X210998Y187366D02*
Y188547D01*
X166156Y192000D02*
X167338D01*
X166156Y194362D02*
X167338D01*
X201980Y293174D02*
Y294355D01*
X199618Y293174D02*
Y294355D01*
X216114Y234201D02*
Y235382D01*
X218476Y234201D02*
Y235382D01*
X159008Y232642D02*
Y233823D01*
X161370Y232642D02*
Y233823D01*
X221213Y234020D02*
Y235201D01*
X223575Y234020D02*
Y235201D01*
X220819Y260773D02*
Y261954D01*
X218457Y260773D02*
Y261954D01*
X188807Y260801D02*
Y261982D01*
X191169Y260801D02*
Y261982D01*
X238043Y272285D02*
Y273466D01*
X235681Y272285D02*
Y273466D01*
X263175Y263727D02*
X264356D01*
X263175Y266089D02*
X264356D01*
X228959Y233384D02*
Y234565D01*
X226597Y233384D02*
Y234565D01*
X254023Y218004D02*
Y219185D01*
X251660Y218004D02*
Y219185D01*
X249376Y223809D02*
Y224990D01*
X247014Y223809D02*
Y224990D01*
X245232Y194783D02*
X246413D01*
X245232Y197145D02*
X246413D01*
X204343Y185616D02*
X205524D01*
X204343Y183254D02*
X205524D01*
X162063Y200260D02*
X163244D01*
X162063Y197898D02*
X163244D01*
X95333Y277362D02*
X125738Y246957D01*
X95333Y277362D02*
X116546Y298575D01*
X146952Y268170D01*
X125738Y246957D02*
X146952Y268170D01*
X157319Y145694D02*
Y146875D01*
X159681Y145694D02*
Y146875D01*
X257050Y49000D02*
X277050D01*
Y69000D01*
X257050D02*
X277050D01*
X237050Y49000D02*
X257050D01*
X237050Y69000D02*
X257050D01*
X217050Y49000D02*
X237050D01*
X217050Y69000D02*
X237050D01*
X197050Y49000D02*
X217050D01*
X197050Y69000D02*
X217050D01*
X177050D02*
X197050D01*
X177050Y49000D02*
Y69000D01*
Y49000D02*
X197050D01*
X160583Y73390D02*
X166882D01*
X160583Y93075D02*
X166882D01*
Y73390D02*
Y93075D01*
X160583Y73390D02*
Y93075D01*
X105477Y81146D02*
X110701D01*
X111567Y75850D02*
Y80279D01*
Y72012D02*
Y76441D01*
X105477Y71146D02*
X110701D01*
X80254D02*
X85478D01*
X79388Y72012D02*
Y76441D01*
Y75850D02*
Y80279D01*
X80254Y81146D02*
X85478D01*
X279480Y157819D02*
Y182740D01*
X248445D02*
X279480D01*
X248445Y157819D02*
Y182740D01*
Y157819D02*
X279480D01*
X253957Y145376D02*
X261043D01*
X253957Y139398D02*
Y145376D01*
Y139398D02*
X261043D01*
Y145376D01*
X270031Y155686D02*
X277118D01*
X270031Y149708D02*
Y155686D01*
Y149708D02*
X277118D01*
Y155686D01*
X266381Y284287D02*
X262839D01*
Y286058D01*
X263429Y286649D01*
X264610D01*
X265200Y286058D01*
Y284287D01*
X266381Y287830D02*
X262839D01*
Y289601D01*
X263429Y290191D01*
X264610D01*
X265200Y289601D01*
Y287830D01*
Y289010D02*
X266381Y290191D01*
X262839Y293733D02*
Y291372D01*
X266381D01*
Y293733D01*
X264610Y291372D02*
Y292552D01*
X263429Y297275D02*
X262839Y296685D01*
Y295504D01*
X263429Y294914D01*
X264019D01*
X264610Y295504D01*
Y296685D01*
X265200Y297275D01*
X265790D01*
X266381Y296685D01*
Y295504D01*
X265790Y294914D01*
X263429Y300817D02*
X262839Y300227D01*
Y299046D01*
X263429Y298456D01*
X264019D01*
X264610Y299046D01*
Y300227D01*
X265200Y300817D01*
X265790D01*
X266381Y300227D01*
Y299046D01*
X265790Y298456D01*
X262839Y301998D02*
X265790D01*
X266381Y302589D01*
Y303769D01*
X265790Y304360D01*
X262839D01*
X266381Y305540D02*
X262839D01*
Y307311D01*
X263429Y307902D01*
X264610D01*
X265200Y307311D01*
Y305540D01*
Y306721D02*
X266381Y307902D01*
X262839Y311444D02*
Y309083D01*
X266381D01*
Y311444D01*
X264610Y309083D02*
Y310263D01*
X268979Y284287D02*
X272521D01*
X270750D01*
Y286649D01*
X268979D01*
X272521D01*
X268979Y287830D02*
X271931D01*
X272521Y288420D01*
Y289601D01*
X271931Y290191D01*
X268979D01*
X272521Y291372D02*
X268979D01*
X270160Y292552D01*
X268979Y293733D01*
X272521D01*
X268979Y294914D02*
Y296095D01*
Y295504D01*
X272521D01*
Y294914D01*
Y296095D01*
X268979Y297866D02*
X272521D01*
Y299637D01*
X271931Y300227D01*
X269569D01*
X268979Y299637D01*
Y297866D01*
Y301408D02*
Y302589D01*
Y301998D01*
X272521D01*
Y301408D01*
Y302589D01*
X268979Y304360D02*
Y306721D01*
Y305540D01*
X272521D01*
X268979Y307902D02*
X269569D01*
X270750Y309083D01*
X269569Y310263D01*
X268979D01*
X270750Y309083D02*
X272521D01*
X275119Y284287D02*
Y286649D01*
Y285468D01*
X278661D01*
X275119Y290191D02*
Y287830D01*
X278661D01*
Y290191D01*
X276890Y287830D02*
Y289010D01*
X278661Y291372D02*
X275119D01*
X276300Y292552D01*
X275119Y293733D01*
X278661D01*
Y294914D02*
X275119D01*
Y296685D01*
X275710Y297275D01*
X276890D01*
X277481Y296685D01*
Y294914D01*
X275119Y300817D02*
Y298456D01*
X278661D01*
Y300817D01*
X276890Y298456D02*
Y299637D01*
X278661Y301998D02*
X275119D01*
Y303769D01*
X275710Y304360D01*
X276890D01*
X277481Y303769D01*
Y301998D01*
Y303179D02*
X278661Y304360D01*
Y305540D02*
X276300D01*
X275119Y306721D01*
X276300Y307902D01*
X278661D01*
X276890D01*
Y305540D01*
X275119Y309083D02*
Y311444D01*
Y310263D01*
X278661D01*
X275119Y312625D02*
X278071D01*
X278661Y313215D01*
Y314396D01*
X278071Y314986D01*
X275119D01*
X278661Y316167D02*
X275119D01*
Y317938D01*
X275710Y318528D01*
X276890D01*
X277481Y317938D01*
Y316167D01*
Y317348D02*
X278661Y318528D01*
X275119Y322070D02*
Y319709D01*
X278661D01*
Y322070D01*
X276890Y319709D02*
Y320890D01*
X209598Y302346D02*
X211960D01*
X210779D01*
Y298803D01*
X215502Y302346D02*
X213141D01*
Y298803D01*
X215502D01*
X213141Y300574D02*
X214321D01*
X216683Y298803D02*
Y302346D01*
X217863Y301165D01*
X219044Y302346D01*
Y298803D01*
X220225D02*
Y302346D01*
X221996D01*
X222586Y301755D01*
Y300574D01*
X221996Y299984D01*
X220225D01*
X223767Y298803D02*
Y299394D01*
X224357D01*
Y298803D01*
X223767D01*
X31842Y326146D02*
X27907D01*
Y328114D01*
X28563Y328769D01*
X29875D01*
X30531Y328114D01*
Y326146D01*
X27907Y332049D02*
Y330737D01*
X28563Y330081D01*
X31187D01*
X31842Y330737D01*
Y332049D01*
X31187Y332705D01*
X28563D01*
X27907Y332049D01*
Y334017D02*
X31842D01*
X30531Y335329D01*
X31842Y336641D01*
X27907D01*
Y340577D02*
Y337953D01*
X31842D01*
Y340577D01*
X29875Y337953D02*
Y339265D01*
X31842Y341889D02*
X27907D01*
Y343857D01*
X28563Y344512D01*
X29875D01*
X30531Y343857D01*
Y341889D01*
Y343200D02*
X31842Y344512D01*
Y349760D02*
X27907D01*
Y351728D01*
X28563Y352384D01*
X29875D01*
X30531Y351728D01*
Y349760D01*
Y351072D02*
X31842Y352384D01*
Y353696D02*
X27907D01*
Y355664D01*
X28563Y356320D01*
X29875D01*
X30531Y355664D01*
Y353696D01*
X27907Y357632D02*
Y358944D01*
Y358288D01*
X31842D01*
Y357632D01*
Y358944D01*
X252185Y176008D02*
Y179550D01*
X250413Y177779D01*
X252775D01*
X253956Y176008D02*
Y179550D01*
X255727D01*
X256317Y178959D01*
Y177779D01*
X255727Y177188D01*
X253956D01*
X257498Y179550D02*
Y176008D01*
X258678Y177188D01*
X259859Y176008D01*
Y179550D01*
X261040Y176008D02*
Y179550D01*
X262811D01*
X263401Y178959D01*
Y177779D01*
X262811Y177188D01*
X261040D01*
X262221D02*
X263401Y176008D01*
X270486Y179550D02*
X268124D01*
Y176008D01*
X270486D01*
X268124Y177779D02*
X269305D01*
X274028Y178959D02*
X273437Y179550D01*
X272257D01*
X271666Y178959D01*
Y178369D01*
X272257Y177779D01*
X273437D01*
X274028Y177188D01*
Y176598D01*
X273437Y176008D01*
X272257D01*
X271666Y176598D01*
X275208Y176008D02*
Y179550D01*
X276980D01*
X277570Y178959D01*
Y177779D01*
X276980Y177188D01*
X275208D01*
X250413Y173841D02*
X251004Y174432D01*
X252185D01*
X252775Y173841D01*
Y173251D01*
X252185Y172661D01*
X251594D01*
X252185D01*
X252775Y172070D01*
Y171480D01*
X252185Y170889D01*
X251004D01*
X250413Y171480D01*
X253956Y170889D02*
Y174432D01*
X255727D01*
X256317Y173841D01*
Y172661D01*
X255727Y172070D01*
X253956D01*
X257498Y174432D02*
Y170889D01*
X258678Y172070D01*
X259859Y170889D01*
Y174432D01*
X261040Y170889D02*
Y174432D01*
X262811D01*
X263401Y173841D01*
Y172661D01*
X262811Y172070D01*
X261040D01*
X262221D02*
X263401Y170889D01*
X268124D02*
Y174432D01*
X269895D01*
X270486Y173841D01*
Y172661D01*
X269895Y172070D01*
X268124D01*
X269305D02*
X270486Y170889D01*
X271666D02*
Y174432D01*
X273437D01*
X274028Y173841D01*
Y172661D01*
X273437Y172070D01*
X271666D01*
X275208Y174432D02*
X276389D01*
X275799D01*
Y170889D01*
X275208D01*
X276389D01*
X252775Y165771D02*
X250413D01*
X252775Y168133D01*
Y168723D01*
X252185Y169314D01*
X251004D01*
X250413Y168723D01*
X253956Y169314D02*
Y165771D01*
X255727D01*
X256317Y166362D01*
Y168723D01*
X255727Y169314D01*
X253956D01*
X257498D02*
X258678D01*
X258088D01*
Y165771D01*
X257498D01*
X258678D01*
X260450D02*
Y169314D01*
X262221D01*
X262811Y168723D01*
Y167543D01*
X262221Y166952D01*
X260450D01*
X269895Y168723D02*
X269305Y169314D01*
X268124D01*
X267534Y168723D01*
Y168133D01*
X268124Y167543D01*
X269305D01*
X269895Y166952D01*
Y166362D01*
X269305Y165771D01*
X268124D01*
X267534Y166362D01*
X271076Y169314D02*
Y165771D01*
X272257Y166952D01*
X273437Y165771D01*
Y169314D01*
X250413Y160653D02*
X251594D01*
X251004D01*
Y164196D01*
X250413Y163605D01*
X255727D02*
X255136Y164196D01*
X253956D01*
X253365Y163605D01*
Y161244D01*
X253956Y160653D01*
X255136D01*
X255727Y161244D01*
X256907Y164196D02*
Y160653D01*
Y162424D01*
X259269D01*
Y164196D01*
Y160653D01*
X260450D02*
Y163015D01*
X261630Y164196D01*
X262811Y163015D01*
Y160653D01*
Y162424D01*
X260450D01*
X263992Y160653D02*
Y164196D01*
X265763D01*
X266353Y163605D01*
Y162424D01*
X265763Y161834D01*
X263992D01*
X265172D02*
X266353Y160653D01*
X269895Y163605D02*
X269305Y164196D01*
X268124D01*
X267534Y163605D01*
Y161244D01*
X268124Y160653D01*
X269305D01*
X269895Y161244D01*
Y162424D01*
X268715D01*
X273437Y164196D02*
X271076D01*
Y160653D01*
X273437D01*
X271076Y162424D02*
X272257D01*
X274618Y160653D02*
Y164196D01*
X276389D01*
X276980Y163605D01*
Y162424D01*
X276389Y161834D01*
X274618D01*
X275799D02*
X276980Y160653D01*
X272329Y141812D02*
X271804Y141287D01*
Y140238D01*
X272329Y139713D01*
X272854D01*
X273378Y140238D01*
Y141287D01*
X273903Y141812D01*
X274428D01*
X274953Y141287D01*
Y140238D01*
X274428Y139713D01*
X271804Y142862D02*
Y144961D01*
Y143911D01*
X274953D01*
Y146010D02*
X271804D01*
X272854Y147060D01*
X271804Y148109D01*
X274953D01*
X255926Y149386D02*
Y147286D01*
X259075D01*
Y149386D01*
X257501Y147286D02*
Y148336D01*
X256451Y152534D02*
X255926Y152009D01*
Y150960D01*
X256451Y150435D01*
X256976D01*
X257501Y150960D01*
Y152009D01*
X258025Y152534D01*
X258550D01*
X259075Y152009D01*
Y150960D01*
X258550Y150435D01*
X259075Y153584D02*
X255926D01*
Y155158D01*
X256451Y155683D01*
X257501D01*
X258025Y155158D01*
Y153584D01*
X267516Y139719D02*
X264367D01*
Y141294D01*
X264892Y141818D01*
X265941D01*
X266466Y141294D01*
Y139719D01*
Y140769D02*
X267516Y141818D01*
X264367Y144967D02*
Y142868D01*
X267516D01*
Y144967D01*
X265941Y142868D02*
Y143917D01*
X264892Y148116D02*
X264367Y147591D01*
Y146541D01*
X264892Y146017D01*
X265417D01*
X265941Y146541D01*
Y147591D01*
X266466Y148116D01*
X266991D01*
X267516Y147591D01*
Y146541D01*
X266991Y146017D01*
X264367Y151264D02*
Y149165D01*
X267516D01*
Y151264D01*
X265941Y149165D02*
Y150215D01*
X264367Y152314D02*
Y154413D01*
Y153363D01*
X267516D01*
D18*
X216677Y253185D02*
Y257585D01*
X192677Y253185D02*
Y257585D01*
Y253185D02*
X216677D01*
X192677Y269185D02*
X216677D01*
Y264685D02*
Y269185D01*
X192677Y264685D02*
Y269185D01*
X171531Y111707D02*
X183531D01*
X171531Y99907D02*
X183531Y100007D01*
X197782Y285558D02*
Y297558D01*
X185982D02*
X186082Y285558D01*
X105761Y82783D02*
Y107883D01*
Y82783D02*
X117761D01*
Y107883D01*
X114000Y241500D02*
X134800D01*
Y233500D02*
Y241500D01*
X114000Y233500D02*
Y241500D01*
X127900Y233500D02*
X134800D01*
X114000D02*
X127900D01*
X83600Y234000D02*
X104400D01*
X83600D02*
Y242000D01*
X104400Y234000D02*
Y242000D01*
X83600D02*
X90500D01*
X104400D01*
X128351Y113093D02*
X130351D01*
X124352Y122092D02*
X124852D01*
X118851Y113093D02*
X120852D01*
X130351D02*
Y117593D01*
X118851Y113093D02*
Y117593D01*
X212427Y120190D02*
Y122190D01*
X203427Y116190D02*
Y116690D01*
X212427Y110690D02*
Y112690D01*
X207927Y122190D02*
X212427D01*
X207927Y110690D02*
X212427D01*
X188345Y124276D02*
X190345D01*
X193845Y115276D02*
X194345D01*
X188345Y119776D02*
Y124276D01*
X199845Y119776D02*
Y121800D01*
X141638Y125520D02*
Y143020D01*
X124638Y125020D02*
Y143020D01*
X98236Y125520D02*
Y143020D01*
X81236Y125020D02*
Y143020D01*
X131000Y84135D02*
Y109235D01*
Y84135D02*
X143000D01*
Y109235D01*
X80510Y339313D02*
Y346713D01*
X80010Y339013D02*
Y347013D01*
X80910Y339413D02*
Y346413D01*
X81010Y339213D02*
Y346913D01*
X80010Y339013D02*
X99310D01*
X80010Y347013D02*
X99310D01*
Y339013D02*
Y347013D01*
X154500Y101209D02*
X162000D01*
X145300Y93309D02*
Y109109D01*
X159000Y104209D02*
X162000Y101209D01*
X159000Y98209D02*
X162000Y101209D01*
X75500Y305500D02*
Y310500D01*
X68500Y305500D02*
Y310500D01*
X251794Y225640D02*
Y237640D01*
X263494D02*
X263594Y225640D01*
D19*
X221659Y294552D02*
X223628D01*
X220577Y293568D02*
X221659Y294552D01*
X220577Y286678D02*
Y293568D01*
Y286678D02*
X223628D01*
Y294552D01*
X241290Y272210D02*
X242472D01*
X251920D02*
X253102D01*
X251920Y260398D02*
X253102D01*
Y261580D01*
Y271028D02*
Y272210D01*
X241290Y271028D02*
Y272210D01*
Y260398D02*
Y261580D01*
Y260398D02*
X242472D01*
X197968Y336516D02*
X219032D01*
X197968Y317028D02*
X219032D01*
X197968Y323327D02*
Y330217D01*
X219032Y323327D02*
Y330217D01*
X212339Y323130D02*
X214307D01*
Y325098D01*
X212339Y323130D02*
X214307Y325098D01*
X83969Y336516D02*
X105032D01*
X83969Y317028D02*
X105032D01*
X83969Y323327D02*
Y330217D01*
X105032Y323327D02*
Y330217D01*
X98339Y323130D02*
X100307D01*
Y325098D01*
X98339Y323130D02*
X100307Y325098D01*
X238928Y241499D02*
X240110D01*
X238928D02*
Y242682D01*
Y252130D02*
Y253311D01*
X250740Y252130D02*
Y253311D01*
Y241499D02*
Y242682D01*
X249558Y241499D02*
X250740D01*
X249558Y253311D02*
X250740D01*
X238928D02*
X240110D01*
X219213Y181264D02*
Y181684D01*
X214213Y181264D02*
Y181684D01*
D20*
X119996Y306939D02*
Y314026D01*
X114091Y306939D02*
Y314026D01*
X119307D02*
X119996D01*
X119307Y306939D02*
X119996D01*
X114091Y314026D02*
X114780D01*
X114091Y306939D02*
X114780D01*
X112540Y307038D02*
Y314124D01*
X106634Y307038D02*
Y314124D01*
X111851D02*
X112540D01*
X111851Y307038D02*
X112540D01*
X106634Y314124D02*
X107323D01*
X106634Y307038D02*
X107323D01*
X235060Y339499D02*
X234660Y339100D01*
Y338300D01*
X235060Y337900D01*
X236659D01*
X237059Y338300D01*
Y339100D01*
X236659Y339499D01*
X235859D01*
Y338700D01*
X237059Y340299D02*
X234660D01*
X237059Y341899D01*
X234660D01*
Y342698D02*
X237059D01*
Y343898D01*
X236659Y344298D01*
X235060D01*
X234660Y343898D01*
Y342698D01*
X258270Y186434D02*
X257870Y186834D01*
X257071D01*
X256671Y186434D01*
Y186035D01*
X257071Y185635D01*
X257870D01*
X258270Y185235D01*
Y184835D01*
X257870Y184435D01*
X257071D01*
X256671Y184835D01*
X259070Y184435D02*
X259870D01*
X259470D01*
Y186834D01*
X259070Y186434D01*
X265068Y186834D02*
Y184435D01*
X263868D01*
X263469Y184835D01*
Y185635D01*
X263868Y186035D01*
X265068D01*
X267067Y184435D02*
X266268D01*
X265868Y184835D01*
Y185635D01*
X266268Y186035D01*
X267067D01*
X267467Y185635D01*
Y185235D01*
X265868D01*
X268267Y184435D02*
X269467D01*
X269866Y184835D01*
X269467Y185235D01*
X268667D01*
X268267Y185635D01*
X268667Y186035D01*
X269866D01*
X272266D02*
X271066D01*
X270666Y185635D01*
Y184835D01*
X271066Y184435D01*
X272266D01*
X222325Y339499D02*
X221925Y339100D01*
Y338300D01*
X222325Y337900D01*
X222725D01*
X223125Y338300D01*
Y339100D01*
X223525Y339499D01*
X223925D01*
X224325Y339100D01*
Y338300D01*
X223925Y337900D01*
X222325Y341899D02*
X221925Y341499D01*
Y340699D01*
X222325Y340299D01*
X223925D01*
X224325Y340699D01*
Y341499D01*
X223925Y341899D01*
X221925Y342698D02*
X224325D01*
Y344298D01*
X217638Y339499D02*
X217239Y339100D01*
Y338300D01*
X217638Y337900D01*
X218038D01*
X218438Y338300D01*
Y339100D01*
X218838Y339499D01*
X219238D01*
X219638Y339100D01*
Y338300D01*
X219238Y337900D01*
X217239Y340299D02*
X219638D01*
Y341499D01*
X219238Y341899D01*
X217638D01*
X217239Y341499D01*
Y340299D01*
X219638Y342698D02*
X218038D01*
X217239Y343498D01*
X218038Y344298D01*
X219638D01*
X218438D01*
Y342698D01*
X221925Y347000D02*
Y348600D01*
Y347800D01*
X224325D01*
Y349399D02*
X221925D01*
Y350599D01*
X222325Y350999D01*
X223125D01*
X223525Y350599D01*
Y349399D01*
Y350199D02*
X224325Y350999D01*
X221925Y351798D02*
Y352598D01*
Y352198D01*
X224325D01*
Y351798D01*
Y352598D01*
X222325Y355397D02*
X221925Y354997D01*
Y354198D01*
X222325Y353798D01*
X223925D01*
X224325Y354198D01*
Y354997D01*
X223925Y355397D01*
X223125D01*
Y354597D01*
X217400Y348600D02*
Y347000D01*
X219799D01*
Y348600D01*
X218599Y347000D02*
Y347800D01*
X217799Y350999D02*
X217400Y350599D01*
Y349799D01*
X217799Y349399D01*
X219399D01*
X219799Y349799D01*
Y350599D01*
X219399Y350999D01*
X217400Y351798D02*
X219799D01*
X218599D01*
Y353398D01*
X217400D01*
X219799D01*
X217400Y355397D02*
Y354597D01*
X217799Y354198D01*
X219399D01*
X219799Y354597D01*
Y355397D01*
X219399Y355797D01*
X217799D01*
X217400Y355397D01*
X230882Y337900D02*
X230482Y338300D01*
Y339100D01*
X230882Y339499D01*
X231281D01*
X231681Y339100D01*
Y338700D01*
Y339100D01*
X232081Y339499D01*
X232481D01*
X232881Y339100D01*
Y338300D01*
X232481Y337900D01*
X232881Y340299D02*
X232481D01*
Y340699D01*
X232881D01*
Y340299D01*
X230882Y342299D02*
X230482Y342698D01*
Y343498D01*
X230882Y343898D01*
X231281D01*
X231681Y343498D01*
Y343098D01*
Y343498D01*
X232081Y343898D01*
X232481D01*
X232881Y343498D01*
Y342698D01*
X232481Y342299D01*
X230482Y344698D02*
X232081D01*
X232881Y345497D01*
X232081Y346297D01*
X230482D01*
X226282Y339499D02*
Y337900D01*
X227482D01*
X227082Y338700D01*
Y339100D01*
X227482Y339499D01*
X228281D01*
X228681Y339100D01*
Y338300D01*
X228281Y337900D01*
X228681Y340299D02*
X228281D01*
Y340699D01*
X228681D01*
Y340299D01*
X226682Y342299D02*
X226282Y342698D01*
Y343498D01*
X226682Y343898D01*
X228281D01*
X228681Y343498D01*
Y342698D01*
X228281Y342299D01*
X226682D01*
X226282Y344698D02*
X227882D01*
X228681Y345497D01*
X227882Y346297D01*
X226282D01*
X213451Y339499D02*
X213051Y339100D01*
Y338300D01*
X213451Y337900D01*
X215050D01*
X215450Y338300D01*
Y339100D01*
X215050Y339499D01*
X214251D01*
Y338700D01*
X215450Y340299D02*
X213051D01*
X215450Y341899D01*
X213051D01*
Y342698D02*
X215450D01*
Y343898D01*
X215050Y344298D01*
X213451D01*
X213051Y343898D01*
Y342698D01*
X123531Y266207D02*
X122117Y267621D01*
X121056Y266560D01*
X122117Y266207D01*
X122470Y265853D01*
Y265147D01*
X121763Y264440D01*
X121056Y264440D01*
X120350Y265147D01*
Y265853D01*
X122117Y263379D02*
X122470Y263733D01*
X122824Y263379D01*
X122470Y263026D01*
X122117Y263379D01*
X125651D02*
X126358D01*
X127065Y262672D01*
Y261966D01*
X125651Y260552D01*
X124944Y260552D01*
X124238Y261259D01*
Y261966D01*
X125651Y263379D01*
X128125Y261612D02*
X126712Y260198D01*
Y258785D01*
X128125D01*
X129539Y260198D01*
X128938Y274715D02*
X129645D01*
X130351Y274008D01*
X130351Y273301D01*
X129998Y272948D01*
X129291D01*
X128938Y273301D01*
X129291Y272948D01*
X129291Y272241D01*
X128938Y271887D01*
X128231Y271887D01*
X127524Y272594D01*
Y273301D01*
X129291Y270827D02*
X129645Y271181D01*
X129998Y270827D01*
X129645Y270474D01*
X129291Y270827D01*
X132825D02*
X133532D01*
X134239Y270120D01*
Y269413D01*
X133886Y269060D01*
X133179D01*
X132825Y269413D01*
X133179Y269060D01*
X133179Y268353D01*
X132825Y268000D01*
X132118Y268000D01*
X131412Y268706D01*
Y269413D01*
X135300Y269060D02*
X133886Y267646D01*
Y266232D01*
X135300D01*
X136713Y267646D01*
X216617Y118956D02*
X214218D01*
Y120156D01*
X214618Y120556D01*
X215418D01*
X215818Y120156D01*
Y118956D01*
Y119756D02*
X216617Y120556D01*
Y122555D02*
X214218D01*
X215418Y121356D01*
Y122955D01*
X214618Y123755D02*
X214218Y124155D01*
Y124954D01*
X214618Y125354D01*
X216217D01*
X216617Y124954D01*
Y124155D01*
X216217Y123755D01*
X214618D01*
X257266Y114076D02*
Y116476D01*
X258465D01*
X258865Y116076D01*
Y115276D01*
X258465Y114876D01*
X257266D01*
X258066D02*
X258865Y114076D01*
X259665Y116076D02*
X260065Y116476D01*
X260865D01*
X261264Y116076D01*
Y115676D01*
X260865Y115276D01*
X260465D01*
X260865D01*
X261264Y114876D01*
Y114476D01*
X260865Y114076D01*
X260065D01*
X259665Y114476D01*
X262064Y116476D02*
X263664D01*
Y116076D01*
X262064Y114476D01*
Y114076D01*
X199801Y127307D02*
Y129707D01*
X201001D01*
X201401Y129307D01*
Y128507D01*
X201001Y128107D01*
X199801D01*
X200601D02*
X201401Y127307D01*
X202200Y129307D02*
X202600Y129707D01*
X203400D01*
X203800Y129307D01*
Y128907D01*
X203400Y128507D01*
X203000D01*
X203400D01*
X203800Y128107D01*
Y127707D01*
X203400Y127307D01*
X202600D01*
X202200Y127707D01*
X206199Y129707D02*
X205399Y129307D01*
X204600Y128507D01*
Y127707D01*
X204999Y127307D01*
X205799D01*
X206199Y127707D01*
Y128107D01*
X205799Y128507D01*
X204600D01*
X263700Y119924D02*
X261300D01*
Y121124D01*
X261700Y121524D01*
X262500D01*
X262900Y121124D01*
Y119924D01*
Y120724D02*
X263700Y121524D01*
X261700Y122323D02*
X261300Y122723D01*
Y123523D01*
X261700Y123923D01*
X262100D01*
X262500Y123523D01*
Y123123D01*
Y123523D01*
X262900Y123923D01*
X263300D01*
X263700Y123523D01*
Y122723D01*
X263300Y122323D01*
X263700Y124723D02*
Y125522D01*
Y125122D01*
X261300D01*
X261700Y124723D01*
X250379Y79106D02*
Y81506D01*
X251579D01*
X251978Y81106D01*
Y80306D01*
X251579Y79906D01*
X250379D01*
X251179D02*
X251978Y79106D01*
X254378D02*
X252778D01*
X254378Y80706D01*
Y81106D01*
X253978Y81506D01*
X253178D01*
X252778Y81106D01*
X256777Y81506D02*
X255977Y81106D01*
X255177Y80306D01*
Y79506D01*
X255577Y79106D01*
X256377D01*
X256777Y79506D01*
Y79906D01*
X256377Y80306D01*
X255177D01*
X221194Y76036D02*
X223593Y77636D01*
X221194D02*
X223593Y76036D01*
Y80035D02*
Y78435D01*
X221994Y80035D01*
X221594D01*
X221194Y79635D01*
Y78835D01*
X221594Y78435D01*
X217113Y134054D02*
Y131655D01*
X218313D01*
X218712Y132055D01*
Y133654D01*
X218313Y134054D01*
X217113D01*
X219512D02*
X221112D01*
Y133654D01*
X219512Y132055D01*
Y131655D01*
X192245Y133200D02*
Y130800D01*
X193444D01*
X193844Y131200D01*
Y132800D01*
X193444Y133200D01*
X192245D01*
X196244D02*
X195444Y132800D01*
X194644Y132000D01*
Y131200D01*
X195044Y130800D01*
X195844D01*
X196244Y131200D01*
Y131600D01*
X195844Y132000D01*
X194644D01*
X231600Y88600D02*
X231201Y89000D01*
X230401D01*
X230001Y88600D01*
Y87000D01*
X230401Y86600D01*
X231201D01*
X231600Y87000D01*
X234000Y86600D02*
X232400D01*
X234000Y88200D01*
Y88600D01*
X233600Y89000D01*
X232800D01*
X232400Y88600D01*
X234800Y89000D02*
X236399D01*
Y88600D01*
X234800Y87000D01*
Y86600D01*
X228402Y93847D02*
X228002Y94247D01*
X227202D01*
X226802Y93847D01*
Y92248D01*
X227202Y91848D01*
X228002D01*
X228402Y92248D01*
X230801Y91848D02*
X229201D01*
X230801Y93447D01*
Y93847D01*
X230401Y94247D01*
X229601D01*
X229201Y93847D01*
X233200Y94247D02*
X232400Y93847D01*
X231600Y93047D01*
Y92248D01*
X232000Y91848D01*
X232800D01*
X233200Y92248D01*
Y92647D01*
X232800Y93047D01*
X231600D01*
X106069Y290871D02*
X104372Y292567D01*
X105220Y293415D01*
X105786D01*
X106351Y292850D01*
Y292284D01*
X105503Y291436D01*
X108613Y293415D02*
X106917Y295112D01*
Y293415D01*
X108048Y294546D01*
X229105Y220501D02*
X226706D01*
Y221701D01*
X227105Y222100D01*
X227905D01*
X228305Y221701D01*
Y220501D01*
Y221301D02*
X229105Y222100D01*
Y222900D02*
Y223700D01*
Y223300D01*
X226706D01*
X227105Y222900D01*
Y224900D02*
X226706Y225299D01*
Y226099D01*
X227105Y226499D01*
X228705D01*
X229105Y226099D01*
Y225299D01*
X228705Y224900D01*
X227105D01*
X227138Y245028D02*
Y247428D01*
X228337D01*
X228737Y247028D01*
Y246228D01*
X228337Y245828D01*
X227138D01*
X227938D02*
X228737Y245028D01*
X229537D02*
X230337D01*
X229937D01*
Y247428D01*
X229537Y247028D01*
X231536Y245028D02*
X232336D01*
X231936D01*
Y247428D01*
X231536Y247028D01*
X160663Y204737D02*
X160264Y205136D01*
X159464D01*
X159064Y204737D01*
Y203137D01*
X159464Y202737D01*
X160264D01*
X160663Y203137D01*
X161463Y202737D02*
X162263D01*
X161863D01*
Y205136D01*
X161463Y204737D01*
X163462Y205136D02*
X165062D01*
Y204737D01*
X163462Y203137D01*
Y202737D01*
X234482Y250549D02*
X236481D01*
X236881Y250949D01*
Y251749D01*
X236481Y252149D01*
X234482D01*
Y254548D02*
X234881Y253748D01*
X235681Y252949D01*
X236481D01*
X236881Y253348D01*
Y254148D01*
X236481Y254548D01*
X236081D01*
X235681Y254148D01*
Y252949D01*
X233200Y267388D02*
X230800D01*
Y268587D01*
X231200Y268987D01*
X232000D01*
X232400Y268587D01*
Y267388D01*
Y268187D02*
X233200Y268987D01*
Y270987D02*
X230800D01*
X232000Y269787D01*
Y271387D01*
X231200Y272186D02*
X230800Y272586D01*
Y273386D01*
X231200Y273786D01*
X231600D01*
X232000Y273386D01*
X232400Y273786D01*
X232800D01*
X233200Y273386D01*
Y272586D01*
X232800Y272186D01*
X232400D01*
X232000Y272586D01*
X231600Y272186D01*
X231200D01*
X232000Y272586D02*
Y273386D01*
X268200Y267829D02*
X265800D01*
Y269028D01*
X266200Y269428D01*
X267000D01*
X267400Y269028D01*
Y267829D01*
Y268628D02*
X268200Y269428D01*
Y271427D02*
X265800D01*
X267000Y270228D01*
Y271827D01*
X265800Y272627D02*
Y274227D01*
X266200D01*
X267800Y272627D01*
X268200D01*
X232146Y199392D02*
Y197393D01*
X232546Y196993D01*
X233346D01*
X233746Y197393D01*
Y199392D01*
X234546D02*
X236145D01*
Y198993D01*
X234546Y197393D01*
Y196993D01*
X241015Y215385D02*
X238615D01*
Y216585D01*
X239015Y216985D01*
X239815D01*
X240215Y216585D01*
Y215385D01*
Y216185D02*
X241015Y216985D01*
Y218984D02*
X238615D01*
X239815Y217785D01*
Y219384D01*
X239015Y220184D02*
X238615Y220584D01*
Y221383D01*
X239015Y221783D01*
X239415D01*
X239815Y221383D01*
Y220984D01*
Y221383D01*
X240215Y221783D01*
X240615D01*
X241015Y221383D01*
Y220584D01*
X240615Y220184D01*
X234829Y221822D02*
X232430D01*
Y223022D01*
X232830Y223422D01*
X233630D01*
X234030Y223022D01*
Y221822D01*
Y222622D02*
X234829Y223422D01*
Y225421D02*
X232430D01*
X233630Y224222D01*
Y225821D01*
X234829Y228220D02*
Y226621D01*
X233230Y228220D01*
X232830D01*
X232430Y227820D01*
Y227021D01*
X232830Y226621D01*
X193632Y185235D02*
X193232Y185635D01*
X192432D01*
X192033Y185235D01*
Y183635D01*
X192432Y183235D01*
X193232D01*
X193632Y183635D01*
X194432Y183235D02*
X195231D01*
X194832D01*
Y185635D01*
X194432Y185235D01*
X198030Y185635D02*
X197231Y185235D01*
X196431Y184435D01*
Y183635D01*
X196831Y183235D01*
X197631D01*
X198030Y183635D01*
Y184035D01*
X197631Y184435D01*
X196431D01*
X243840Y192955D02*
X243441Y193354D01*
X242641D01*
X242241Y192955D01*
Y191355D01*
X242641Y190955D01*
X243441D01*
X243840Y191355D01*
X244640Y192955D02*
X245040Y193354D01*
X245840D01*
X246240Y192955D01*
Y192555D01*
X245840Y192155D01*
X245440D01*
X245840D01*
X246240Y191755D01*
Y191355D01*
X245840Y190955D01*
X245040D01*
X244640Y191355D01*
X248639Y193354D02*
X247039D01*
Y192155D01*
X247839Y192555D01*
X248239D01*
X248639Y192155D01*
Y191355D01*
X248239Y190955D01*
X247439D01*
X247039Y191355D01*
X155500Y96899D02*
Y94500D01*
X156700D01*
X157099Y94900D01*
Y96499D01*
X156700Y96899D01*
X155500D01*
X159099Y94500D02*
Y96899D01*
X157899Y95700D01*
X159499D01*
X126060Y332516D02*
X125260D01*
X125660D01*
Y330517D01*
X125260Y330117D01*
X124861D01*
X124461Y330517D01*
X126860Y332116D02*
X127260Y332516D01*
X128059D01*
X128459Y332116D01*
Y331716D01*
X128059Y331316D01*
X127660D01*
X128059D01*
X128459Y330917D01*
Y330517D01*
X128059Y330117D01*
X127260D01*
X126860Y330517D01*
X55999Y272799D02*
X55200D01*
X55600D01*
Y270800D01*
X55200Y270400D01*
X54800D01*
X54400Y270800D01*
X58399Y272799D02*
X56799D01*
Y271600D01*
X57599Y272000D01*
X57999D01*
X58399Y271600D01*
Y270800D01*
X57999Y270400D01*
X57199D01*
X56799Y270800D01*
X169413Y236767D02*
Y234768D01*
X169813Y234368D01*
X170613D01*
X171012Y234768D01*
Y236767D01*
X173412Y234368D02*
X171812D01*
X173412Y235967D01*
Y236367D01*
X173012Y236767D01*
X172212D01*
X171812Y236367D01*
X136000Y347929D02*
Y345930D01*
X136400Y345530D01*
X137200D01*
X137600Y345930D01*
Y347929D01*
X138399Y345530D02*
X139199D01*
X138799D01*
Y347929D01*
X138399Y347530D01*
X140399Y345530D02*
X141198D01*
X140798D01*
Y347929D01*
X140399Y347530D01*
X116101Y318300D02*
X118500D01*
Y319500D01*
X118100Y319900D01*
X116501D01*
X116101Y319500D01*
Y318300D01*
X118500Y320699D02*
Y321499D01*
Y321099D01*
X116101D01*
X116501Y320699D01*
X118500Y324298D02*
Y322699D01*
X116901Y324298D01*
X116501D01*
X116101Y323898D01*
Y323098D01*
X116501Y322699D01*
X108401Y318300D02*
X110800D01*
Y319500D01*
X110400Y319900D01*
X108801D01*
X108401Y319500D01*
Y318300D01*
X110800Y320699D02*
Y321499D01*
Y321099D01*
X108401D01*
X108801Y320699D01*
X110800Y322699D02*
Y323498D01*
Y323098D01*
X108401D01*
X108801Y322699D01*
X257216Y136236D02*
X256816Y136635D01*
X256016D01*
X255616Y136236D01*
Y135836D01*
X256016Y135436D01*
X256816D01*
X257216Y135036D01*
Y134636D01*
X256816Y134236D01*
X256016D01*
X255616Y134636D01*
X258015Y136236D02*
X258415Y136635D01*
X259215D01*
X259615Y136236D01*
Y135836D01*
X259215Y135436D01*
X258815D01*
X259215D01*
X259615Y135036D01*
Y134636D01*
X259215Y134236D01*
X258415D01*
X258015Y134636D01*
X145455Y241931D02*
X145855Y242330D01*
Y243130D01*
X145455Y243530D01*
X145055D01*
X144656Y243130D01*
Y242330D01*
X144256Y241931D01*
X143856D01*
X143456Y242330D01*
Y243130D01*
X143856Y243530D01*
X143456Y239531D02*
Y241131D01*
X145055Y239531D01*
X145455D01*
X145855Y239931D01*
Y240731D01*
X145455Y241131D01*
X277690Y274284D02*
X277290Y274684D01*
X276490D01*
X276091Y274284D01*
Y273884D01*
X276490Y273484D01*
X277290D01*
X277690Y273084D01*
Y272684D01*
X277290Y272285D01*
X276490D01*
X276091Y272684D01*
X278490Y272285D02*
X279290D01*
X278890D01*
Y274684D01*
X278490Y274284D01*
X264100Y206068D02*
X262500D01*
Y204869D01*
X263300D01*
X262500D01*
Y203669D01*
X264899Y206068D02*
Y203669D01*
X266099D01*
X266499Y204069D01*
Y204469D01*
X266099Y204869D01*
X264899D01*
X266099D01*
X266499Y205269D01*
Y205669D01*
X266099Y206068D01*
X264899D01*
X267298Y203669D02*
X268098D01*
X267698D01*
Y206068D01*
X267298Y205669D01*
X135189Y97738D02*
Y95339D01*
X136389D01*
X136788Y95739D01*
Y97338D01*
X136389Y97738D01*
X135189D01*
X137588Y95339D02*
X138388D01*
X137988D01*
Y97738D01*
X137588Y97338D01*
X140787Y95339D02*
Y97738D01*
X139588Y96538D01*
X141187D01*
X118910Y90689D02*
Y92289D01*
Y91489D01*
X121309D01*
X118910Y93089D02*
X120509D01*
X121309Y93888D01*
X120509Y94688D01*
X118910D01*
X119309Y97087D02*
X118910Y96687D01*
Y95888D01*
X119309Y95488D01*
X119709D01*
X120109Y95888D01*
Y96687D01*
X120509Y97087D01*
X120909D01*
X121309Y96687D01*
Y95888D01*
X120909Y95488D01*
X121309Y97887D02*
Y98687D01*
Y98287D01*
X118910D01*
X119309Y97887D01*
X26000Y271500D02*
Y273899D01*
X27200D01*
X27599Y273499D01*
Y272700D01*
X27200Y272300D01*
X26000D01*
X28399Y273899D02*
X29999D01*
Y273499D01*
X28399Y271900D01*
Y271500D01*
X245600Y184243D02*
Y186643D01*
X246800D01*
X247200Y186243D01*
Y185443D01*
X246800Y185043D01*
X245600D01*
X246400D02*
X247200Y184243D01*
X247999D02*
X248799D01*
X248399D01*
Y186643D01*
X247999Y186243D01*
X251598Y184243D02*
X249999D01*
X251598Y185843D01*
Y186243D01*
X251198Y186643D01*
X250398D01*
X249999Y186243D01*
X228384Y212818D02*
X225984D01*
Y214018D01*
X226384Y214418D01*
X227184D01*
X227584Y214018D01*
Y212818D01*
Y213618D02*
X228384Y214418D01*
Y215217D02*
Y216017D01*
Y215617D01*
X225984D01*
X226384Y215217D01*
X225984Y217217D02*
Y218816D01*
X226384D01*
X227984Y217217D01*
X228384D01*
X70312Y322499D02*
X69912Y322899D01*
X69112D01*
X68713Y322499D01*
Y320900D01*
X69112Y320500D01*
X69912D01*
X70312Y320900D01*
X72711Y322899D02*
X71912Y322499D01*
X71112Y321700D01*
Y320900D01*
X71512Y320500D01*
X72311D01*
X72711Y320900D01*
Y321300D01*
X72311Y321700D01*
X71112D01*
X73511Y322899D02*
X75111D01*
Y322499D01*
X73511Y320900D01*
Y320500D01*
X109178Y144908D02*
Y142909D01*
X109578Y142509D01*
X110378D01*
X110778Y142909D01*
Y144908D01*
X111577Y142509D02*
X112377D01*
X111977D01*
Y144908D01*
X111577Y144508D01*
X114776Y142509D02*
Y144908D01*
X113577Y143709D01*
X115176D01*
X195000Y342199D02*
Y339800D01*
X196200D01*
X196599Y340200D01*
Y341799D01*
X196200Y342199D01*
X195000D01*
X197399Y339800D02*
X198199D01*
X197799D01*
Y342199D01*
X197399Y341799D01*
X199399D02*
X199798Y342199D01*
X200598D01*
X200998Y341799D01*
Y340200D01*
X200598Y339800D01*
X199798D01*
X199399Y340200D01*
Y341799D01*
X102094Y340399D02*
Y338000D01*
X103294D01*
X103694Y338400D01*
Y339999D01*
X103294Y340399D01*
X102094D01*
X104493Y338400D02*
X104893Y338000D01*
X105693D01*
X106093Y338400D01*
Y339999D01*
X105693Y340399D01*
X104893D01*
X104493Y339999D01*
Y339599D01*
X104893Y339200D01*
X106093D01*
X81610Y351012D02*
Y348613D01*
X82810D01*
X83210Y349013D01*
Y350612D01*
X82810Y351012D01*
X81610D01*
X84009Y350612D02*
X84409Y351012D01*
X85209D01*
X85609Y350612D01*
Y350212D01*
X85209Y349813D01*
X85609Y349413D01*
Y349013D01*
X85209Y348613D01*
X84409D01*
X84009Y349013D01*
Y349413D01*
X84409Y349813D01*
X84009Y350212D01*
Y350612D01*
X84409Y349813D02*
X85209D01*
X171213Y343410D02*
Y345809D01*
X172412D01*
X172812Y345409D01*
Y344610D01*
X172412Y344210D01*
X171213D01*
X172012D02*
X172812Y343410D01*
X174811D02*
Y345809D01*
X173612Y344610D01*
X175211D01*
X176011Y343810D02*
X176411Y343410D01*
X177211D01*
X177611Y343810D01*
Y345409D01*
X177211Y345809D01*
X176411D01*
X176011Y345409D01*
Y345009D01*
X176411Y344610D01*
X177611D01*
X86803Y125080D02*
Y122681D01*
X88003D01*
X88403Y123081D01*
Y124680D01*
X88003Y125080D01*
X86803D01*
X89202Y122681D02*
X90002D01*
X89602D01*
Y125080D01*
X89202Y124680D01*
X92801Y125080D02*
X91202D01*
Y123881D01*
X92001Y124281D01*
X92401D01*
X92801Y123881D01*
Y123081D01*
X92401Y122681D01*
X91602D01*
X91202Y123081D01*
X236235Y261580D02*
X238234D01*
X238634Y261980D01*
Y262779D01*
X238234Y263179D01*
X236235D01*
X236634Y263979D02*
X236235Y264379D01*
Y265178D01*
X236634Y265578D01*
X237034D01*
X237434Y265178D01*
X237834Y265578D01*
X238234D01*
X238634Y265178D01*
Y264379D01*
X238234Y263979D01*
X237834D01*
X237434Y264379D01*
X237034Y263979D01*
X236634D01*
X237434Y264379D02*
Y265178D01*
X275163Y199799D02*
X274763Y200198D01*
X273963D01*
X273563Y199799D01*
Y198199D01*
X273963Y197799D01*
X274763D01*
X275163Y198199D01*
X275962Y197799D02*
X276762D01*
X276362D01*
Y200198D01*
X275962Y199799D01*
X277962D02*
X278362Y200198D01*
X279161D01*
X279561Y199799D01*
Y199399D01*
X279161Y198999D01*
X279561Y198599D01*
Y198199D01*
X279161Y197799D01*
X278362D01*
X277962Y198199D01*
Y198599D01*
X278362Y198999D01*
X277962Y199399D01*
Y199799D01*
X278362Y198999D02*
X279161D01*
X272500Y237291D02*
Y239691D01*
X273700D01*
X274099Y239291D01*
Y238491D01*
X273700Y238091D01*
X272500D01*
X273300D02*
X274099Y237291D01*
X276499D02*
X274899D01*
X276499Y238891D01*
Y239291D01*
X276099Y239691D01*
X275299D01*
X274899Y239291D01*
X277298D02*
X277698Y239691D01*
X278498D01*
X278898Y239291D01*
Y238891D01*
X278498Y238491D01*
X278098D01*
X278498D01*
X278898Y238091D01*
Y237691D01*
X278498Y237291D01*
X277698D01*
X277298Y237691D01*
X263306Y211819D02*
Y214218D01*
X264506D01*
X264906Y213818D01*
Y213018D01*
X264506Y212619D01*
X263306D01*
X264106D02*
X264906Y211819D01*
X267305D02*
X265706D01*
X267305Y213418D01*
Y213818D01*
X266905Y214218D01*
X266106D01*
X265706Y213818D01*
X269704Y211819D02*
X268105D01*
X269704Y213418D01*
Y213818D01*
X269304Y214218D01*
X268505D01*
X268105Y213818D01*
X265942Y220268D02*
Y222667D01*
X267142D01*
X267542Y222267D01*
Y221468D01*
X267142Y221068D01*
X265942D01*
X266742D02*
X267542Y220268D01*
X269941D02*
X268341D01*
X269941Y221868D01*
Y222267D01*
X269541Y222667D01*
X268741D01*
X268341Y222267D01*
X270741Y220268D02*
X271540D01*
X271141D01*
Y222667D01*
X270741Y222267D01*
X265942Y228785D02*
Y231185D01*
X267142D01*
X267542Y230785D01*
Y229985D01*
X267142Y229585D01*
X265942D01*
X266742D02*
X267542Y228785D01*
X269941D02*
X268341D01*
X269941Y230385D01*
Y230785D01*
X269541Y231185D01*
X268741D01*
X268341Y230785D01*
X270741D02*
X271141Y231185D01*
X271940D01*
X272340Y230785D01*
Y229185D01*
X271940Y228785D01*
X271141D01*
X270741Y229185D01*
Y230785D01*
X97855Y182082D02*
X97455Y182482D01*
X96655D01*
X96255Y182082D01*
Y180482D01*
X96655Y180083D01*
X97455D01*
X97855Y180482D01*
X99854Y180083D02*
Y182482D01*
X98654Y181282D01*
X100254D01*
X101054Y180482D02*
X101453Y180083D01*
X102253D01*
X102653Y180482D01*
Y182082D01*
X102253Y182482D01*
X101453D01*
X101054Y182082D01*
Y181682D01*
X101453Y181282D01*
X102653D01*
X117099Y127751D02*
X116700Y128151D01*
X115900D01*
X115500Y127751D01*
Y126152D01*
X115900Y125752D01*
X116700D01*
X117099Y126152D01*
X119499Y128151D02*
X117899D01*
Y126952D01*
X118699Y127351D01*
X119099D01*
X119499Y126952D01*
Y126152D01*
X119099Y125752D01*
X118299D01*
X117899Y126152D01*
X120298Y127751D02*
X120698Y128151D01*
X121498D01*
X121898Y127751D01*
Y126152D01*
X121498Y125752D01*
X120698D01*
X120298Y126152D01*
Y127751D01*
X118635Y144508D02*
X118235Y144908D01*
X117436D01*
X117036Y144508D01*
Y142909D01*
X117436Y142509D01*
X118235D01*
X118635Y142909D01*
X121034Y144908D02*
X119435D01*
Y143709D01*
X120235Y144108D01*
X120634D01*
X121034Y143709D01*
Y142909D01*
X120634Y142509D01*
X119835D01*
X119435Y142909D01*
X121834Y142509D02*
X122634D01*
X122234D01*
Y144908D01*
X121834Y144508D01*
X86001Y162100D02*
X85601Y161700D01*
Y160900D01*
X86001Y160500D01*
X87600D01*
X88000Y160900D01*
Y161700D01*
X87600Y162100D01*
X85601Y164499D02*
Y162899D01*
X86800D01*
X86401Y163699D01*
Y164099D01*
X86800Y164499D01*
X87600D01*
X88000Y164099D01*
Y163299D01*
X87600Y162899D01*
X88000Y166898D02*
Y165298D01*
X86401Y166898D01*
X86001D01*
X85601Y166498D01*
Y165698D01*
X86001Y165298D01*
X113600Y182082D02*
X113200Y182482D01*
X112400D01*
X112000Y182082D01*
Y180482D01*
X112400Y180083D01*
X113200D01*
X113600Y180482D01*
X115999Y182482D02*
X114399D01*
Y181282D01*
X115199Y181682D01*
X115599D01*
X115999Y181282D01*
Y180482D01*
X115599Y180083D01*
X114799D01*
X114399Y180482D01*
X116798Y182082D02*
X117198Y182482D01*
X117998D01*
X118398Y182082D01*
Y181682D01*
X117998Y181282D01*
X117598D01*
X117998D01*
X118398Y180882D01*
Y180482D01*
X117998Y180083D01*
X117198D01*
X116798Y180482D01*
X85722Y148886D02*
X85322Y148486D01*
Y147686D01*
X85722Y147286D01*
X87322D01*
X87722Y147686D01*
Y148486D01*
X87322Y148886D01*
X85322Y151285D02*
Y149686D01*
X86522D01*
X86122Y150486D01*
Y150885D01*
X86522Y151285D01*
X87322D01*
X87722Y150885D01*
Y150086D01*
X87322Y149686D01*
X87722Y153285D02*
X85322D01*
X86522Y152085D01*
Y153684D01*
X83024Y145474D02*
Y143075D01*
X84623D01*
X87022D02*
X85423D01*
X87022Y144674D01*
Y145074D01*
X86623Y145474D01*
X85823D01*
X85423Y145074D01*
X123993Y106860D02*
Y108460D01*
X123593Y108860D01*
X122794D01*
X122394Y108460D01*
Y106860D01*
X122794Y106461D01*
X123593D01*
X123193Y107260D02*
X123993Y106461D01*
X123593D02*
X123993Y106860D01*
X126392Y108860D02*
X124793D01*
Y107660D01*
X125593Y108060D01*
X125993D01*
X126392Y107660D01*
Y106860D01*
X125993Y106461D01*
X125193D01*
X124793Y106860D01*
X133972Y115953D02*
Y118352D01*
X135171D01*
X135571Y117952D01*
Y117152D01*
X135171Y116753D01*
X133972D01*
X134771D02*
X135571Y115953D01*
X137970Y118352D02*
X136371D01*
Y117152D01*
X137171Y117552D01*
X137570D01*
X137970Y117152D01*
Y116353D01*
X137570Y115953D01*
X136771D01*
X136371Y116353D01*
X138770Y118352D02*
X140369D01*
Y117952D01*
X138770Y116353D01*
Y115953D01*
X113391Y172071D02*
X110992D01*
Y173270D01*
X111392Y173670D01*
X112192D01*
X112592Y173270D01*
Y172071D01*
Y172871D02*
X113391Y173670D01*
X110992Y176070D02*
Y174470D01*
X112192D01*
X111792Y175270D01*
Y175670D01*
X112192Y176070D01*
X112991D01*
X113391Y175670D01*
Y174870D01*
X112991Y174470D01*
X110992Y178469D02*
X111392Y177669D01*
X112192Y176869D01*
X112991D01*
X113391Y177269D01*
Y178069D01*
X112991Y178469D01*
X112592D01*
X112192Y178069D01*
Y176869D01*
X118116Y172071D02*
X115717D01*
Y173270D01*
X116116Y173670D01*
X116916D01*
X117316Y173270D01*
Y172071D01*
Y172871D02*
X118116Y173670D01*
X115717Y176070D02*
Y174470D01*
X116916D01*
X116516Y175270D01*
Y175670D01*
X116916Y176070D01*
X117716D01*
X118116Y175670D01*
Y174870D01*
X117716Y174470D01*
X116116Y176869D02*
X115717Y177269D01*
Y178069D01*
X116116Y178469D01*
X116516D01*
X116916Y178069D01*
X117316Y178469D01*
X117716D01*
X118116Y178069D01*
Y177269D01*
X117716Y176869D01*
X117316D01*
X116916Y177269D01*
X116516Y176869D01*
X116116D01*
X116916Y177269D02*
Y178069D01*
X122840Y172071D02*
X120441D01*
Y173270D01*
X120841Y173670D01*
X121641D01*
X122040Y173270D01*
Y172071D01*
Y172871D02*
X122840Y173670D01*
X120441Y176070D02*
X120841Y175270D01*
X121641Y174470D01*
X122440D01*
X122840Y174870D01*
Y175670D01*
X122440Y176070D01*
X122040D01*
X121641Y175670D01*
Y174470D01*
X120841Y176869D02*
X120441Y177269D01*
Y178069D01*
X120841Y178469D01*
X122440D01*
X122840Y178069D01*
Y177269D01*
X122440Y176869D01*
X120841D01*
X275163Y195229D02*
X274763Y195629D01*
X273963D01*
X273563Y195229D01*
Y193630D01*
X273963Y193230D01*
X274763D01*
X275163Y193630D01*
X275962Y193230D02*
X276762D01*
X276362D01*
Y195629D01*
X275962Y195229D01*
X277962Y193630D02*
X278362Y193230D01*
X279161D01*
X279561Y193630D01*
Y195229D01*
X279161Y195629D01*
X278362D01*
X277962Y195229D01*
Y194829D01*
X278362Y194429D01*
X279561D01*
X84100Y224499D02*
X83700Y224899D01*
X82900D01*
X82500Y224499D01*
Y222900D01*
X82900Y222500D01*
X83700D01*
X84100Y222900D01*
X86499Y224899D02*
X85699Y224499D01*
X84899Y223700D01*
Y222900D01*
X85299Y222500D01*
X86099D01*
X86499Y222900D01*
Y223300D01*
X86099Y223700D01*
X84899D01*
X88898Y224899D02*
X88098Y224499D01*
X87298Y223700D01*
Y222900D01*
X87698Y222500D01*
X88498D01*
X88898Y222900D01*
Y223300D01*
X88498Y223700D01*
X87298D01*
X221629Y241722D02*
X221229Y241322D01*
Y240522D01*
X221629Y240122D01*
X223228D01*
X223628Y240522D01*
Y241322D01*
X223228Y241722D01*
Y242521D02*
X223628Y242921D01*
Y243721D01*
X223228Y244121D01*
X221629D01*
X221229Y243721D01*
Y242921D01*
X221629Y242521D01*
X222028D01*
X222428Y242921D01*
Y244121D01*
X160614Y226416D02*
X161013Y226816D01*
Y227616D01*
X160614Y228016D01*
X159014D01*
X158614Y227616D01*
Y226816D01*
X159014Y226416D01*
X158614Y225617D02*
Y224817D01*
Y225217D01*
X161013D01*
X160614Y225617D01*
Y223617D02*
X161013Y223217D01*
Y222418D01*
X160614Y222018D01*
X159014D01*
X158614Y222418D01*
Y223217D01*
X159014Y223617D01*
X160614D01*
X201617Y284900D02*
X202017Y285300D01*
Y286100D01*
X201617Y286500D01*
X200018D01*
X199618Y286100D01*
Y285300D01*
X200018Y284900D01*
X199618Y284101D02*
Y283301D01*
Y283701D01*
X202017D01*
X201617Y284101D01*
X199618Y280502D02*
Y282101D01*
X201218Y280502D01*
X201617D01*
X202017Y280902D01*
Y281702D01*
X201617Y282101D01*
X184953Y269553D02*
X184553Y269953D01*
X183753D01*
X183353Y269553D01*
Y267953D01*
X183753Y267553D01*
X184553D01*
X184953Y267953D01*
X185753Y269953D02*
X187352D01*
Y269553D01*
X185753Y267953D01*
Y267553D01*
X165467Y189365D02*
X165068Y189765D01*
X164268D01*
X163868Y189365D01*
Y187766D01*
X164268Y187366D01*
X165068D01*
X165467Y187766D01*
X166267Y187366D02*
X167067D01*
X166667D01*
Y189765D01*
X166267Y189365D01*
X168266D02*
X168666Y189765D01*
X169466D01*
X169866Y189365D01*
Y188966D01*
X169466Y188566D01*
X169066D01*
X169466D01*
X169866Y188166D01*
Y187766D01*
X169466Y187366D01*
X168666D01*
X168266Y187766D01*
X217170Y193999D02*
X216770Y194399D01*
X215970D01*
X215570Y193999D01*
Y192400D01*
X215970Y192000D01*
X216770D01*
X217170Y192400D01*
X217969Y192000D02*
X218769D01*
X218369D01*
Y194399D01*
X217969Y193999D01*
X221168Y192000D02*
Y194399D01*
X219969Y193200D01*
X221568D01*
X165338Y226318D02*
X165738Y226718D01*
Y227517D01*
X165338Y227917D01*
X163738D01*
X163339Y227517D01*
Y226718D01*
X163738Y226318D01*
X163339Y225518D02*
Y224718D01*
Y225118D01*
X165738D01*
X165338Y225518D01*
X165738Y221919D02*
Y223519D01*
X164538D01*
X164938Y222719D01*
Y222319D01*
X164538Y221919D01*
X163738D01*
X163339Y222319D01*
Y223119D01*
X163738Y223519D01*
X164001Y136600D02*
X163601Y136200D01*
Y135400D01*
X164001Y135000D01*
X165600D01*
X166000Y135400D01*
Y136200D01*
X165600Y136600D01*
X163601Y138999D02*
Y137399D01*
X164800D01*
X164400Y138199D01*
Y138599D01*
X164800Y138999D01*
X165600D01*
X166000Y138599D01*
Y137799D01*
X165600Y137399D01*
X163601Y139798D02*
Y141398D01*
X164001D01*
X165600Y139798D01*
X166000D01*
X129840Y149550D02*
X129440Y149150D01*
Y148350D01*
X129840Y147950D01*
X131439D01*
X131839Y148350D01*
Y149150D01*
X131439Y149550D01*
X129440Y151949D02*
Y150349D01*
X130639D01*
X130239Y151149D01*
Y151549D01*
X130639Y151949D01*
X131439D01*
X131839Y151549D01*
Y150749D01*
X131439Y150349D01*
X129840Y152749D02*
X129440Y153148D01*
Y153948D01*
X129840Y154348D01*
X130239D01*
X130639Y153948D01*
X131039Y154348D01*
X131439D01*
X131839Y153948D01*
Y153148D01*
X131439Y152749D01*
X131039D01*
X130639Y153148D01*
X130239Y152749D01*
X129840D01*
X130639Y153148D02*
Y153948D01*
X137914Y161167D02*
X137514Y160767D01*
Y159967D01*
X137914Y159567D01*
X139514D01*
X139913Y159967D01*
Y160767D01*
X139514Y161167D01*
X137514Y163566D02*
Y161966D01*
X138714D01*
X138314Y162766D01*
Y163166D01*
X138714Y163566D01*
X139514D01*
X139913Y163166D01*
Y162366D01*
X139514Y161966D01*
Y164366D02*
X139913Y164766D01*
Y165565D01*
X139514Y165965D01*
X137914D01*
X137514Y165565D01*
Y164766D01*
X137914Y164366D01*
X138314D01*
X138714Y164766D01*
Y165965D01*
X149001Y116129D02*
X148601Y115729D01*
Y114929D01*
X149001Y114529D01*
X150600D01*
X151000Y114929D01*
Y115729D01*
X150600Y116129D01*
X148601Y118528D02*
Y116928D01*
X149800D01*
X149400Y117728D01*
Y118128D01*
X149800Y118528D01*
X150600D01*
X151000Y118128D01*
Y117328D01*
X150600Y116928D01*
X148601Y120927D02*
X149001Y120127D01*
X149800Y119327D01*
X150600D01*
X151000Y119727D01*
Y120527D01*
X150600Y120927D01*
X150200D01*
X149800Y120527D01*
Y119327D01*
X126444Y145474D02*
Y143075D01*
X128044D01*
X128844Y145074D02*
X129244Y145474D01*
X130043D01*
X130443Y145074D01*
Y144674D01*
X130043Y144274D01*
X129643D01*
X130043D01*
X130443Y143875D01*
Y143475D01*
X130043Y143075D01*
X129244D01*
X128844Y143475D01*
X225043Y181684D02*
Y184084D01*
X226242D01*
X226642Y183684D01*
Y182884D01*
X226242Y182484D01*
X225043D01*
X229042Y181684D02*
X227442D01*
X229042Y183284D01*
Y183684D01*
X228642Y184084D01*
X227842D01*
X227442Y183684D01*
X189459Y282786D02*
Y280786D01*
X189859Y280387D01*
X190659D01*
X191058Y280786D01*
Y282786D01*
X191858Y280387D02*
X192658D01*
X192258D01*
Y282786D01*
X191858Y282386D01*
X195457Y282786D02*
X194657Y282386D01*
X193858Y281586D01*
Y280786D01*
X194257Y280387D01*
X195057D01*
X195457Y280786D01*
Y281186D01*
X195057Y281586D01*
X193858D01*
X148984Y144439D02*
Y142773D01*
X149317Y142440D01*
X149984D01*
X150317Y142773D01*
Y144439D01*
X150984Y142440D02*
X151650D01*
X151317D01*
Y144439D01*
X150984Y144106D01*
X153983Y144439D02*
X152650D01*
Y143439D01*
X153316Y143772D01*
X153649D01*
X153983Y143439D01*
Y142773D01*
X153649Y142440D01*
X152983D01*
X152650Y142773D01*
X192808Y251344D02*
X194407Y248945D01*
Y251344D02*
X192808Y248945D01*
X195207D02*
X196007D01*
X195607D01*
Y251344D01*
X195207Y250944D01*
X118457Y210041D02*
Y208042D01*
X118857Y207642D01*
X119656D01*
X120056Y208042D01*
Y210041D01*
X120856Y207642D02*
X121656D01*
X121256D01*
Y210041D01*
X120856Y209641D01*
X124455Y207642D02*
X122855D01*
X124455Y209241D01*
Y209641D01*
X124055Y210041D01*
X123255D01*
X122855Y209641D01*
X106932Y194625D02*
X107332Y195025D01*
Y195824D01*
X106932Y196224D01*
X105333D01*
X104933Y195824D01*
Y195025D01*
X105333Y194625D01*
X104933Y192625D02*
X107332D01*
X106133Y193825D01*
Y192225D01*
X107332Y189826D02*
Y191426D01*
X106133D01*
X106533Y190626D01*
Y190226D01*
X106133Y189826D01*
X105333D01*
X104933Y190226D01*
Y191026D01*
X105333Y191426D01*
X117700Y194625D02*
X118100Y195025D01*
Y195825D01*
X117700Y196224D01*
X116101D01*
X115701Y195825D01*
Y195025D01*
X116101Y194625D01*
X115701Y192626D02*
X118100D01*
X116900Y193825D01*
Y192226D01*
X118100Y189827D02*
X117700Y190626D01*
X116900Y191426D01*
X116101D01*
X115701Y191026D01*
Y190226D01*
X116101Y189827D01*
X116500D01*
X116900Y190226D01*
Y191426D01*
X85386Y209000D02*
X82987D01*
Y210200D01*
X83386Y210599D01*
X84186D01*
X84586Y210200D01*
Y209000D01*
Y209800D02*
X85386Y210599D01*
X82987Y212999D02*
Y211399D01*
X84186D01*
X83786Y212199D01*
Y212599D01*
X84186Y212999D01*
X84986D01*
X85386Y212599D01*
Y211799D01*
X84986Y211399D01*
X85386Y213798D02*
Y214598D01*
Y214198D01*
X82987D01*
X83386Y213798D01*
X85500Y182500D02*
X83101D01*
Y183700D01*
X83501Y184099D01*
X84300D01*
X84700Y183700D01*
Y182500D01*
Y183300D02*
X85500Y184099D01*
X83101Y186499D02*
Y184899D01*
X84300D01*
X83900Y185699D01*
Y186099D01*
X84300Y186499D01*
X85100D01*
X85500Y186099D01*
Y185299D01*
X85100Y184899D01*
X83501Y187298D02*
X83101Y187698D01*
Y188498D01*
X83501Y188898D01*
X85100D01*
X85500Y188498D01*
Y187698D01*
X85100Y187298D01*
X83501D01*
X121107Y218469D02*
Y220868D01*
X122307D01*
X122707Y220468D01*
Y219668D01*
X122307Y219268D01*
X121107D01*
X121907D02*
X122707Y218469D01*
X125106Y220868D02*
X123506D01*
Y219668D01*
X124306Y220068D01*
X124706D01*
X125106Y219668D01*
Y218869D01*
X124706Y218469D01*
X123906D01*
X123506Y218869D01*
X127505Y218469D02*
X125906D01*
X127505Y220068D01*
Y220468D01*
X127105Y220868D01*
X126305D01*
X125906Y220468D01*
X120990Y243043D02*
Y245443D01*
X122190D01*
X122590Y245043D01*
Y244243D01*
X122190Y243843D01*
X120990D01*
X121790D02*
X122590Y243043D01*
X124989Y245443D02*
X123389D01*
Y244243D01*
X124189Y244643D01*
X124589D01*
X124989Y244243D01*
Y243443D01*
X124589Y243043D01*
X123789D01*
X123389Y243443D01*
X126988Y243043D02*
Y245443D01*
X125788Y244243D01*
X127388D01*
X90409Y243421D02*
Y245820D01*
X91609D01*
X92009Y245421D01*
Y244621D01*
X91609Y244221D01*
X90409D01*
X91209D02*
X92009Y243421D01*
X94408Y245820D02*
X92809D01*
Y244621D01*
X93608Y245021D01*
X94008D01*
X94408Y244621D01*
Y243821D01*
X94008Y243421D01*
X93208D01*
X92809Y243821D01*
X95208Y245421D02*
X95608Y245820D01*
X96407D01*
X96807Y245421D01*
Y245021D01*
X96407Y244621D01*
X96008D01*
X96407D01*
X96807Y244221D01*
Y243821D01*
X96407Y243421D01*
X95608D01*
X95208Y243821D01*
X177470Y289950D02*
X177070Y289550D01*
Y288750D01*
X177470Y288350D01*
X179069D01*
X179469Y288750D01*
Y289550D01*
X179069Y289950D01*
X177070Y292349D02*
X177470Y291549D01*
X178270Y290750D01*
X179069D01*
X179469Y291149D01*
Y291949D01*
X179069Y292349D01*
X178670D01*
X178270Y291949D01*
Y290750D01*
X177470Y293149D02*
X177070Y293549D01*
Y294348D01*
X177470Y294748D01*
X177870D01*
X178270Y294348D01*
Y293949D01*
Y294348D01*
X178670Y294748D01*
X179069D01*
X179469Y294348D01*
Y293549D01*
X179069Y293149D01*
X218838Y250504D02*
X218438Y250104D01*
Y249304D01*
X218838Y248904D01*
X220438D01*
X220837Y249304D01*
Y250104D01*
X220438Y250504D01*
X218838Y251303D02*
X218438Y251703D01*
Y252503D01*
X218838Y252903D01*
X219238D01*
X219638Y252503D01*
X220038Y252903D01*
X220438D01*
X220837Y252503D01*
Y251703D01*
X220438Y251303D01*
X220038D01*
X219638Y251703D01*
X219238Y251303D01*
X218838D01*
X219638Y251703D02*
Y252503D01*
X138239Y193075D02*
Y195474D01*
X139438D01*
X139838Y195074D01*
Y194274D01*
X139438Y193875D01*
X138239D01*
X139039D02*
X139838Y193075D01*
X142238Y195474D02*
X141438Y195074D01*
X140638Y194274D01*
Y193475D01*
X141038Y193075D01*
X141838D01*
X142238Y193475D01*
Y193875D01*
X141838Y194274D01*
X140638D01*
X144237Y193075D02*
Y195474D01*
X143037Y194274D01*
X144637D01*
X163244Y122092D02*
X160845D01*
Y123292D01*
X161245Y123692D01*
X162045D01*
X162444Y123292D01*
Y122092D01*
Y122892D02*
X163244Y123692D01*
X160845Y126091D02*
X161245Y125292D01*
X162045Y124492D01*
X162844D01*
X163244Y124892D01*
Y125691D01*
X162844Y126091D01*
X162444D01*
X162045Y125691D01*
Y124492D01*
X160845Y128490D02*
Y126891D01*
X162045D01*
X161645Y127691D01*
Y128091D01*
X162045Y128490D01*
X162844D01*
X163244Y128091D01*
Y127291D01*
X162844Y126891D01*
X207433Y279983D02*
X205034D01*
Y281182D01*
X205434Y281582D01*
X206234D01*
X206633Y281182D01*
Y279983D01*
Y280782D02*
X207433Y281582D01*
X205034Y283981D02*
X205434Y283182D01*
X206234Y282382D01*
X207033D01*
X207433Y282782D01*
Y283581D01*
X207033Y283981D01*
X206633D01*
X206234Y283581D01*
Y282382D01*
X205034Y286381D02*
X205434Y285581D01*
X206234Y284781D01*
X207033D01*
X207433Y285181D01*
Y285981D01*
X207033Y286381D01*
X206633D01*
X206234Y285981D01*
Y284781D01*
X180686Y93499D02*
X180286Y93899D01*
X179487D01*
X179087Y93499D01*
Y91900D01*
X179487Y91500D01*
X180286D01*
X180686Y91900D01*
X183085Y93899D02*
X182286Y93499D01*
X181486Y92700D01*
Y91900D01*
X181886Y91500D01*
X182685D01*
X183085Y91900D01*
Y92300D01*
X182685Y92700D01*
X181486D01*
X183885Y91500D02*
X184685D01*
X184285D01*
Y93899D01*
X183885Y93499D01*
X161869Y112699D02*
X161469Y112300D01*
Y111500D01*
X161869Y111100D01*
X163468D01*
X163868Y111500D01*
Y112300D01*
X163468Y112699D01*
X161469Y115099D02*
X161869Y114299D01*
X162668Y113499D01*
X163468D01*
X163868Y113899D01*
Y114699D01*
X163468Y115099D01*
X163068D01*
X162668Y114699D01*
Y113499D01*
X163868Y117098D02*
X161469D01*
X162668Y115898D01*
Y117498D01*
X174362Y118707D02*
Y121106D01*
X175562D01*
X175962Y120707D01*
Y119907D01*
X175562Y119507D01*
X174362D01*
X175162D02*
X175962Y118707D01*
X178361Y121106D02*
X177561Y120707D01*
X176761Y119907D01*
Y119107D01*
X177161Y118707D01*
X177961D01*
X178361Y119107D01*
Y119507D01*
X177961Y119907D01*
X176761D01*
X179161Y121106D02*
X180760D01*
Y120707D01*
X179161Y119107D01*
Y118707D01*
X184330Y101209D02*
X186329D01*
X186729Y101609D01*
Y102409D01*
X186329Y102809D01*
X184330D01*
X186729Y103609D02*
Y104408D01*
Y104008D01*
X184330D01*
X184730Y103609D01*
X184330Y105608D02*
Y107208D01*
X184730D01*
X186329Y105608D01*
X186729D01*
X134000Y124000D02*
Y126399D01*
X135200D01*
X135600Y125999D01*
Y125200D01*
X135200Y124800D01*
X134000D01*
X134800D02*
X135600Y124000D01*
X137999Y126399D02*
X136399D01*
Y125200D01*
X137199Y125600D01*
X137599D01*
X137999Y125200D01*
Y124400D01*
X137599Y124000D01*
X136799D01*
X136399Y124400D01*
X138798D02*
X139198Y124000D01*
X139998D01*
X140398Y124400D01*
Y125999D01*
X139998Y126399D01*
X139198D01*
X138798Y125999D01*
Y125600D01*
X139198Y125200D01*
X140398D01*
X263831Y281982D02*
X263431Y282382D01*
X262631D01*
X262231Y281982D01*
Y280382D01*
X262631Y279983D01*
X263431D01*
X263831Y280382D01*
X264631Y281982D02*
X265031Y282382D01*
X265830D01*
X266230Y281982D01*
Y281582D01*
X265830Y281182D01*
X265430D01*
X265830D01*
X266230Y280782D01*
Y280382D01*
X265830Y279983D01*
X265031D01*
X264631Y280382D01*
X267030D02*
X267430Y279983D01*
X268230D01*
X268629Y280382D01*
Y281982D01*
X268230Y282382D01*
X267430D01*
X267030Y281982D01*
Y281582D01*
X267430Y281182D01*
X268629D01*
X245352Y216585D02*
X244952Y216985D01*
X244152D01*
X243752Y216585D01*
Y214985D01*
X244152Y214586D01*
X244952D01*
X245352Y214985D01*
X247751Y214586D02*
X246151D01*
X247751Y216185D01*
Y216585D01*
X247351Y216985D01*
X246551D01*
X246151Y216585D01*
X248550D02*
X248950Y216985D01*
X249750D01*
X250150Y216585D01*
Y216185D01*
X249750Y215785D01*
X250150Y215385D01*
Y214985D01*
X249750Y214586D01*
X248950D01*
X248550Y214985D01*
Y215385D01*
X248950Y215785D01*
X248550Y216185D01*
Y216585D01*
X248950Y215785D02*
X249750D01*
X256670Y211661D02*
X256271Y212060D01*
X255471D01*
X255071Y211661D01*
Y210061D01*
X255471Y209661D01*
X256271D01*
X256670Y210061D01*
X259070Y209661D02*
X257470D01*
X259070Y211261D01*
Y211661D01*
X258670Y212060D01*
X257870D01*
X257470Y211661D01*
X259869Y210061D02*
X260269Y209661D01*
X261069D01*
X261469Y210061D01*
Y211661D01*
X261069Y212060D01*
X260269D01*
X259869Y211661D01*
Y211261D01*
X260269Y210861D01*
X261469D01*
X253490Y242563D02*
X253091Y242163D01*
Y241363D01*
X253490Y240963D01*
X255090D01*
X255490Y241363D01*
Y242163D01*
X255090Y242563D01*
X253490Y243362D02*
X253091Y243762D01*
Y244562D01*
X253490Y244962D01*
X253890D01*
X254290Y244562D01*
Y244162D01*
Y244562D01*
X254690Y244962D01*
X255090D01*
X255490Y244562D01*
Y243762D01*
X255090Y243362D01*
X255490Y246961D02*
X253091D01*
X254290Y245761D01*
Y247361D01*
X216457Y241722D02*
X216057Y241322D01*
Y240522D01*
X216457Y240122D01*
X218057D01*
X218457Y240522D01*
Y241322D01*
X218057Y241722D01*
X218457Y242521D02*
Y243321D01*
Y242921D01*
X216057D01*
X216457Y242521D01*
X218457Y244521D02*
Y245320D01*
Y244920D01*
X216057D01*
X216457Y244521D01*
X265394Y243100D02*
Y241101D01*
X265794Y240701D01*
X266594D01*
X266993Y241101D01*
Y243100D01*
X269393D02*
X267793D01*
Y241900D01*
X268593Y242300D01*
X268993D01*
X269393Y241900D01*
Y241101D01*
X268993Y240701D01*
X268193D01*
X267793Y241101D01*
X219900Y280899D02*
X219500Y281299D01*
X218700D01*
X218300Y280899D01*
Y279300D01*
X218700Y278900D01*
X219500D01*
X219900Y279300D01*
X221899Y278900D02*
Y281299D01*
X220699Y280100D01*
X222299D01*
X224298Y278900D02*
Y281299D01*
X223098Y280100D01*
X224698D01*
X258727Y274209D02*
X258327Y274609D01*
X257527D01*
X257127Y274209D01*
Y272609D01*
X257527Y272210D01*
X258327D01*
X258727Y272609D01*
X260726Y272210D02*
Y274609D01*
X259526Y273409D01*
X261126D01*
X261926Y274209D02*
X262325Y274609D01*
X263125D01*
X263525Y274209D01*
Y272609D01*
X263125Y272210D01*
X262325D01*
X261926Y272609D01*
Y274209D01*
X227694Y297923D02*
Y295924D01*
X228093Y295524D01*
X228893D01*
X229293Y295924D01*
Y297923D01*
X230093Y295524D02*
X230892D01*
X230493D01*
Y297923D01*
X230093Y297524D01*
X232092D02*
X232492Y297923D01*
X233292D01*
X233692Y297524D01*
Y295924D01*
X233292Y295524D01*
X232492D01*
X232092Y295924D01*
Y297524D01*
X70501Y330599D02*
X70101Y330200D01*
Y329400D01*
X70501Y329000D01*
X72100D01*
X72500Y329400D01*
Y330200D01*
X72100Y330599D01*
X72500Y332599D02*
X70101D01*
X71300Y331399D01*
Y332999D01*
X72500Y333798D02*
Y334598D01*
Y334198D01*
X70101D01*
X70501Y333798D01*
X204699Y343301D02*
X205099Y343700D01*
Y344500D01*
X204699Y344900D01*
X203100D01*
X202700Y344500D01*
Y343700D01*
X203100Y343301D01*
X202700Y341301D02*
X205099D01*
X203900Y342501D01*
Y340901D01*
X202700Y338502D02*
Y340102D01*
X204299Y338502D01*
X204699D01*
X205099Y338902D01*
Y339702D01*
X204699Y340102D01*
X229518Y304824D02*
X229118Y304424D01*
Y303624D01*
X229518Y303224D01*
X231118D01*
X231518Y303624D01*
Y304424D01*
X231118Y304824D01*
X229118Y307223D02*
X229518Y306423D01*
X230318Y305624D01*
X231118D01*
X231518Y306023D01*
Y306823D01*
X231118Y307223D01*
X230718D01*
X230318Y306823D01*
Y305624D01*
X231518Y309622D02*
Y308023D01*
X229918Y309622D01*
X229518D01*
X229118Y309222D01*
Y308423D01*
X229518Y308023D01*
X171581Y65531D02*
Y67931D01*
X172780D01*
X173180Y67531D01*
Y66731D01*
X172780Y66331D01*
X171581D01*
X173980Y67531D02*
X174380Y67931D01*
X175180D01*
X175580Y67531D01*
Y67131D01*
X175180Y66731D01*
X174780D01*
X175180D01*
X175580Y66331D01*
Y65931D01*
X175180Y65531D01*
X174380D01*
X173980Y65931D01*
X89593Y187366D02*
X91992D01*
Y188566D01*
X91592Y188966D01*
X89993D01*
X89593Y188566D01*
Y187366D01*
X91992Y189765D02*
Y190565D01*
Y190165D01*
X89593D01*
X89993Y189765D01*
Y191765D02*
X89593Y192165D01*
Y192964D01*
X89993Y193364D01*
X90393D01*
X90793Y192964D01*
Y192564D01*
Y192964D01*
X91192Y193364D01*
X91592D01*
X91992Y192964D01*
Y192165D01*
X91592Y191765D01*
X252052Y77420D02*
X251652Y77820D01*
X250852D01*
X250452Y77420D01*
Y75820D01*
X250852Y75421D01*
X251652D01*
X252052Y75820D01*
X254451Y75421D02*
X252852D01*
X254451Y77020D01*
Y77420D01*
X254051Y77820D01*
X253252D01*
X252852Y77420D01*
X256851Y75421D02*
X255251D01*
X256851Y77020D01*
Y77420D01*
X256451Y77820D01*
X255651D01*
X255251Y77420D01*
X251915Y73620D02*
X251515Y74020D01*
X250715D01*
X250315Y73620D01*
Y72021D01*
X250715Y71621D01*
X251515D01*
X251915Y72021D01*
X254314Y71621D02*
X252715D01*
X254314Y73221D01*
Y73620D01*
X253914Y74020D01*
X253114D01*
X252715Y73620D01*
X255114D02*
X255514Y74020D01*
X256313D01*
X256713Y73620D01*
Y73221D01*
X256313Y72821D01*
X255913D01*
X256313D01*
X256713Y72421D01*
Y72021D01*
X256313Y71621D01*
X255514D01*
X255114Y72021D01*
X257076Y104964D02*
X256676Y104564D01*
Y103764D01*
X257076Y103364D01*
X258675D01*
X259075Y103764D01*
Y104564D01*
X258675Y104964D01*
X259075Y107363D02*
Y105763D01*
X257475Y107363D01*
X257076D01*
X256676Y106963D01*
Y106163D01*
X257076Y105763D01*
X259075Y109362D02*
X256676D01*
X257875Y108163D01*
Y109762D01*
X223043Y138701D02*
X222644Y138302D01*
Y137502D01*
X223043Y137102D01*
X224643D01*
X225043Y137502D01*
Y138302D01*
X224643Y138701D01*
X225043Y141101D02*
Y139501D01*
X223443Y141101D01*
X223043D01*
X222644Y140701D01*
Y139901D01*
X223043Y139501D01*
X222644Y143500D02*
Y141900D01*
X223843D01*
X223443Y142700D01*
Y143100D01*
X223843Y143500D01*
X224643D01*
X225043Y143100D01*
Y142300D01*
X224643Y141900D01*
X274917Y75005D02*
X274117D01*
X274517D01*
Y73006D01*
X274117Y72606D01*
X273717D01*
X273317Y73006D01*
X275716Y72606D02*
X276516D01*
X276116D01*
Y75005D01*
X275716Y74606D01*
X202970Y107900D02*
Y109499D01*
X202570Y109899D01*
X201770D01*
X201370Y109499D01*
Y107900D01*
X201770Y107500D01*
X202570D01*
X202170Y108300D02*
X202970Y107500D01*
X202570D02*
X202970Y107900D01*
X204969Y107500D02*
Y109899D01*
X203769Y108700D01*
X205369D01*
X186329Y120307D02*
X184730D01*
X184330Y119907D01*
Y119107D01*
X184730Y118707D01*
X186329D01*
X186729Y119107D01*
Y119907D01*
X185930Y119507D02*
X186729Y120307D01*
Y119907D02*
X186329Y120307D01*
X184730Y121106D02*
X184330Y121506D01*
Y122306D01*
X184730Y122706D01*
X185130D01*
X185530Y122306D01*
Y121906D01*
Y122306D01*
X185930Y122706D01*
X186329D01*
X186729Y122306D01*
Y121506D01*
X186329Y121106D01*
X252914Y146000D02*
X250515D01*
Y147200D01*
X250915Y147599D01*
X251714D01*
X252114Y147200D01*
Y146000D01*
Y146800D02*
X252914Y147599D01*
X250915Y148399D02*
X250515Y148799D01*
Y149599D01*
X250915Y149999D01*
X251314D01*
X251714Y149599D01*
Y149199D01*
Y149599D01*
X252114Y149999D01*
X252514D01*
X252914Y149599D01*
Y148799D01*
X252514Y148399D01*
X252914Y152398D02*
Y150798D01*
X251314Y152398D01*
X250915D01*
X250515Y151998D01*
Y151198D01*
X250915Y150798D01*
X240787Y145376D02*
X238388D01*
Y146575D01*
X238788Y146975D01*
X239587D01*
X239987Y146575D01*
Y145376D01*
Y146175D02*
X240787Y146975D01*
X238788Y147775D02*
X238388Y148175D01*
Y148974D01*
X238788Y149374D01*
X239188D01*
X239587Y148974D01*
Y148575D01*
Y148974D01*
X239987Y149374D01*
X240387D01*
X240787Y148974D01*
Y148175D01*
X240387Y147775D01*
X238788Y150174D02*
X238388Y150574D01*
Y151374D01*
X238788Y151774D01*
X239188D01*
X239587Y151374D01*
Y150974D01*
Y151374D01*
X239987Y151774D01*
X240387D01*
X240787Y151374D01*
Y150574D01*
X240387Y150174D01*
X126471Y45843D02*
X126071Y46243D01*
X125271D01*
X124871Y45843D01*
Y45443D01*
X125271Y45043D01*
X126071D01*
X126471Y44644D01*
Y44244D01*
X126071Y43844D01*
X125271D01*
X124871Y44244D01*
X128870Y46243D02*
X127270D01*
Y45043D01*
X128070Y45443D01*
X128470D01*
X128870Y45043D01*
Y44244D01*
X128470Y43844D01*
X127670D01*
X127270Y44244D01*
X80900Y82500D02*
Y84899D01*
X82100D01*
X82499Y84499D01*
Y83700D01*
X82100Y83300D01*
X80900D01*
X84899Y84899D02*
X84099Y84499D01*
X83299Y83700D01*
Y82900D01*
X83699Y82500D01*
X84499D01*
X84899Y82900D01*
Y83300D01*
X84499Y83700D01*
X83299D01*
X83024Y108283D02*
Y110682D01*
X84223D01*
X84623Y110282D01*
Y109483D01*
X84223Y109083D01*
X83024D01*
X83823D02*
X84623Y108283D01*
X87022Y110682D02*
X85423D01*
Y109483D01*
X86223Y109882D01*
X86623D01*
X87022Y109483D01*
Y108683D01*
X86623Y108283D01*
X85823D01*
X85423Y108683D01*
X89421Y110682D02*
X87822D01*
Y109483D01*
X88622Y109882D01*
X89022D01*
X89421Y109483D01*
Y108683D01*
X89022Y108283D01*
X88222D01*
X87822Y108683D01*
X149400Y72299D02*
Y70300D01*
X149800Y69900D01*
X150600D01*
X150999Y70300D01*
Y72299D01*
X151799Y69900D02*
X152599D01*
X152199D01*
Y72299D01*
X151799Y71899D01*
X153799D02*
X154198Y72299D01*
X154998D01*
X155398Y71899D01*
Y71500D01*
X154998Y71100D01*
X154598D01*
X154998D01*
X155398Y70700D01*
Y70300D01*
X154998Y69900D01*
X154198D01*
X153799Y70300D01*
X230001Y116521D02*
Y114521D01*
X230401Y114121D01*
X231201D01*
X231600Y114521D01*
Y116521D01*
X233600Y114121D02*
Y116521D01*
X232400Y115321D01*
X234000D01*
X140038Y182082D02*
X139638Y182482D01*
X138839D01*
X138439Y182082D01*
Y180482D01*
X138839Y180083D01*
X139638D01*
X140038Y180482D01*
X142438Y182482D02*
X140838D01*
Y181282D01*
X141638Y181682D01*
X142038D01*
X142438Y181282D01*
Y180482D01*
X142038Y180083D01*
X141238D01*
X140838Y180482D01*
X144837Y182482D02*
X143237D01*
Y181282D01*
X144037Y181682D01*
X144437D01*
X144837Y181282D01*
Y180482D01*
X144437Y180083D01*
X143637D01*
X143237Y180482D01*
X146730Y210770D02*
X146330Y211170D01*
X145531D01*
X145131Y210770D01*
Y209171D01*
X145531Y208771D01*
X146330D01*
X146730Y209171D01*
X149129Y211170D02*
X148330Y210770D01*
X147530Y209971D01*
Y209171D01*
X147930Y208771D01*
X148730D01*
X149129Y209171D01*
Y209571D01*
X148730Y209971D01*
X147530D01*
X151529Y211170D02*
X149929D01*
Y209971D01*
X150729Y210370D01*
X151129D01*
X151529Y209971D01*
Y209171D01*
X151129Y208771D01*
X150329D01*
X149929Y209171D01*
X146730Y215870D02*
X146330Y216270D01*
X145531D01*
X145131Y215870D01*
Y214271D01*
X145531Y213871D01*
X146330D01*
X146730Y214271D01*
X148730Y213871D02*
Y216270D01*
X147530Y215071D01*
X149129D01*
X149929Y215870D02*
X150329Y216270D01*
X151129D01*
X151529Y215870D01*
Y215470D01*
X151129Y215071D01*
X151529Y214671D01*
Y214271D01*
X151129Y213871D01*
X150329D01*
X149929Y214271D01*
Y214671D01*
X150329Y215071D01*
X149929Y215470D01*
Y215870D01*
X150329Y215071D02*
X151129D01*
X83811Y286020D02*
Y284020D01*
X84211Y283621D01*
X85011D01*
X85410Y284020D01*
Y286020D01*
X86210Y283621D02*
X87010D01*
X86610D01*
Y286020D01*
X86210Y285620D01*
X88210Y284020D02*
X88609Y283621D01*
X89409D01*
X89809Y284020D01*
Y285620D01*
X89409Y286020D01*
X88609D01*
X88210Y285620D01*
Y285220D01*
X88609Y284820D01*
X89809D01*
X180099Y185232D02*
X179700Y185632D01*
X178900D01*
X178500Y185232D01*
Y184832D01*
X178900Y184432D01*
X179700D01*
X180099Y184032D01*
Y183632D01*
X179700Y183232D01*
X178900D01*
X178500Y183632D01*
X182099Y183232D02*
Y185632D01*
X180899Y184432D01*
X182499D01*
X251635Y289077D02*
Y287078D01*
X252034Y286678D01*
X252834D01*
X253234Y287078D01*
Y289077D01*
X254034Y287078D02*
X254434Y286678D01*
X255234D01*
X255633Y287078D01*
Y288678D01*
X255234Y289077D01*
X254434D01*
X254034Y288678D01*
Y288278D01*
X254434Y287878D01*
X255633D01*
X256671Y121106D02*
Y118707D01*
X257870D01*
X258270Y119107D01*
Y120707D01*
X257870Y121106D01*
X256671D01*
X259070Y118707D02*
X259870D01*
X259470D01*
Y121106D01*
X259070Y120707D01*
X256671Y123463D02*
Y125862D01*
X257870D01*
X258270Y125462D01*
Y124663D01*
X257870Y124263D01*
X256671D01*
X257470D02*
X258270Y123463D01*
X259070D02*
X259870D01*
X259470D01*
Y125862D01*
X259070Y125462D01*
X168948Y251523D02*
Y249124D01*
X170148D01*
X170547Y249524D01*
Y251123D01*
X170148Y251523D01*
X168948D01*
X172947Y249124D02*
X171347D01*
X172947Y250724D01*
Y251123D01*
X172547Y251523D01*
X171747D01*
X171347Y251123D01*
X157948Y249124D02*
Y251523D01*
X159148D01*
X159547Y251123D01*
Y250324D01*
X159148Y249924D01*
X157948D01*
X158748D02*
X159547Y249124D01*
X160347D02*
X161147D01*
X160747D01*
Y251523D01*
X160347Y251123D01*
X162346D02*
X162746Y251523D01*
X163546D01*
X163946Y251123D01*
Y250724D01*
X163546Y250324D01*
X163146D01*
X163546D01*
X163946Y249924D01*
Y249524D01*
X163546Y249124D01*
X162746D01*
X162346Y249524D01*
X157948Y262951D02*
Y265350D01*
X159148D01*
X159547Y264950D01*
Y264151D01*
X159148Y263751D01*
X157948D01*
X158748D02*
X159547Y262951D01*
X160347D02*
X161147D01*
X160747D01*
Y265350D01*
X160347Y264950D01*
X163546Y262951D02*
Y265350D01*
X162346Y264151D01*
X163946D01*
X161208Y170889D02*
X158809D01*
Y172089D01*
X159209Y172489D01*
X160009D01*
X160409Y172089D01*
Y170889D01*
Y171689D02*
X161208Y172489D01*
X158809Y173289D02*
Y174888D01*
X159209D01*
X160808Y173289D01*
X161208D01*
X34955Y311874D02*
X37354D01*
Y313074D01*
X36955Y313474D01*
X35355D01*
X34955Y313074D01*
Y311874D01*
X37354Y314273D02*
Y315073D01*
Y314673D01*
X34955D01*
X35355Y314273D01*
X34955Y317872D02*
X35355Y317072D01*
X36155Y316273D01*
X36955D01*
X37354Y316672D01*
Y317472D01*
X36955Y317872D01*
X36555D01*
X36155Y317472D01*
Y316273D01*
X37354Y299768D02*
X34955D01*
Y300967D01*
X35355Y301367D01*
X36155D01*
X36555Y300967D01*
Y299768D01*
Y300568D02*
X37354Y301367D01*
X34955Y302167D02*
Y303766D01*
X35355D01*
X36955Y302167D01*
X37354D01*
X35355Y304566D02*
X34955Y304966D01*
Y305766D01*
X35355Y306166D01*
X36955D01*
X37354Y305766D01*
Y304966D01*
X36955Y304566D01*
X35355D01*
X189286Y94500D02*
X191685D01*
Y95700D01*
X191285Y96100D01*
X189686D01*
X189286Y95700D01*
Y94500D01*
Y98499D02*
Y96899D01*
X190485D01*
X190086Y97699D01*
Y98099D01*
X190485Y98499D01*
X191285D01*
X191685Y98099D01*
Y97299D01*
X191285Y96899D01*
X188345Y84284D02*
Y86683D01*
X189544D01*
X189944Y86283D01*
Y85483D01*
X189544Y85083D01*
X188345D01*
X189145D02*
X189944Y84284D01*
X192344D02*
X190744D01*
X192344Y85883D01*
Y86283D01*
X191944Y86683D01*
X191144D01*
X190744Y86283D01*
X193143Y86683D02*
X194743D01*
Y86283D01*
X193143Y84683D01*
Y84284D01*
X191019Y246865D02*
X191419Y247264D01*
Y248064D01*
X191019Y248464D01*
X189420D01*
X189020Y248064D01*
Y247264D01*
X189420Y246865D01*
X189020Y244865D02*
X191419D01*
X190219Y246065D01*
Y244465D01*
X191019Y243666D02*
X191419Y243266D01*
Y242466D01*
X191019Y242066D01*
X190619D01*
X190219Y242466D01*
Y242866D01*
Y242466D01*
X189820Y242066D01*
X189420D01*
X189020Y242466D01*
Y243266D01*
X189420Y243666D01*
X133447Y174374D02*
X131048D01*
Y175574D01*
X131448Y175973D01*
X132248D01*
X132648Y175574D01*
Y174374D01*
Y175174D02*
X133447Y175973D01*
X131048Y178373D02*
X131448Y177573D01*
X132248Y176773D01*
X133047D01*
X133447Y177173D01*
Y177973D01*
X133047Y178373D01*
X132648D01*
X132248Y177973D01*
Y176773D01*
X133047Y179173D02*
X133447Y179572D01*
Y180372D01*
X133047Y180772D01*
X131448D01*
X131048Y180372D01*
Y179572D01*
X131448Y179173D01*
X131848D01*
X132248Y179572D01*
Y180772D01*
X191053Y104124D02*
X188654D01*
Y105324D01*
X189054Y105724D01*
X189854D01*
X190254Y105324D01*
Y104124D01*
Y104924D02*
X191053Y105724D01*
Y108123D02*
Y106523D01*
X189454Y108123D01*
X189054D01*
X188654Y107723D01*
Y106923D01*
X189054Y106523D01*
Y108923D02*
X188654Y109322D01*
Y110122D01*
X189054Y110522D01*
X189454D01*
X189854Y110122D01*
X190254Y110522D01*
X190654D01*
X191053Y110122D01*
Y109322D01*
X190654Y108923D01*
X190254D01*
X189854Y109322D01*
X189454Y108923D01*
X189054D01*
X189854Y109322D02*
Y110122D01*
X240141Y235692D02*
X240541Y236092D01*
Y236892D01*
X240141Y237291D01*
X238542D01*
X238142Y236892D01*
Y236092D01*
X238542Y235692D01*
X240141Y234892D02*
X240541Y234492D01*
Y233693D01*
X240141Y233293D01*
X239741D01*
X239341Y233693D01*
Y234092D01*
Y233693D01*
X238942Y233293D01*
X238542D01*
X238142Y233693D01*
Y234492D01*
X238542Y234892D01*
X238142Y232493D02*
Y231693D01*
Y232093D01*
X240541D01*
X240141Y232493D01*
X236145Y235692D02*
X236545Y236092D01*
Y236892D01*
X236145Y237291D01*
X234546D01*
X234146Y236892D01*
Y236092D01*
X234546Y235692D01*
X236145Y234892D02*
X236545Y234492D01*
Y233693D01*
X236145Y233293D01*
X235745D01*
X235345Y233693D01*
Y234092D01*
Y233693D01*
X234946Y233293D01*
X234546D01*
X234146Y233693D01*
Y234492D01*
X234546Y234892D01*
X236145Y232493D02*
X236545Y232093D01*
Y231293D01*
X236145Y230893D01*
X234546D01*
X234146Y231293D01*
Y232093D01*
X234546Y232493D01*
X236145D01*
X264100Y277841D02*
X263700Y278241D01*
X262900D01*
X262500Y277841D01*
Y276241D01*
X262900Y275841D01*
X263700D01*
X264100Y276241D01*
X264899Y277841D02*
X265299Y278241D01*
X266099D01*
X266499Y277841D01*
Y277441D01*
X266099Y277041D01*
X265699D01*
X266099D01*
X266499Y276641D01*
Y276241D01*
X266099Y275841D01*
X265299D01*
X264899Y276241D01*
X267298Y277841D02*
X267698Y278241D01*
X268498D01*
X268898Y277841D01*
Y277441D01*
X268498Y277041D01*
X268898Y276641D01*
Y276241D01*
X268498Y275841D01*
X267698D01*
X267298Y276241D01*
Y276641D01*
X267698Y277041D01*
X267298Y277441D01*
Y277841D01*
X267698Y277041D02*
X268498D01*
X84732Y64519D02*
X83933D01*
X84332D01*
Y62520D01*
X83933Y62120D01*
X83533D01*
X83133Y62520D01*
X86732Y62120D02*
Y64519D01*
X85532Y63320D01*
X87132D01*
X237378Y306947D02*
X234979D01*
Y308147D01*
X235379Y308546D01*
X236179D01*
X236579Y308147D01*
Y306947D01*
Y307747D02*
X237378Y308546D01*
Y310546D02*
X234979D01*
X236179Y309346D01*
Y310946D01*
X234979Y313345D02*
X235379Y312545D01*
X236179Y311745D01*
X236978D01*
X237378Y312145D01*
Y312945D01*
X236978Y313345D01*
X236579D01*
X236179Y312945D01*
Y311745D01*
X234146Y282445D02*
Y284844D01*
X235345D01*
X235745Y284444D01*
Y283645D01*
X235345Y283245D01*
X234146D01*
X234946D02*
X235745Y282445D01*
X237745D02*
Y284844D01*
X236545Y283645D01*
X238144D01*
X240544Y284844D02*
X238944D01*
Y283645D01*
X239744Y284044D01*
X240144D01*
X240544Y283645D01*
Y282845D01*
X240144Y282445D01*
X239344D01*
X238944Y282845D01*
X234146Y278204D02*
Y280603D01*
X235345D01*
X235745Y280203D01*
Y279403D01*
X235345Y279003D01*
X234146D01*
X234946D02*
X235745Y278204D01*
X237745D02*
Y280603D01*
X236545Y279403D01*
X238144D01*
X240144Y278204D02*
Y280603D01*
X238944Y279403D01*
X240544D01*
X176500Y122500D02*
X174101D01*
Y123700D01*
X174501Y124100D01*
X175300D01*
X175700Y123700D01*
Y122500D01*
Y123300D02*
X176500Y124100D01*
X174101Y126499D02*
X174501Y125699D01*
X175300Y124899D01*
X176100D01*
X176500Y125299D01*
Y126099D01*
X176100Y126499D01*
X175700D01*
X175300Y126099D01*
Y124899D01*
X178500Y127500D02*
Y129899D01*
X179700D01*
X180099Y129499D01*
Y128700D01*
X179700Y128300D01*
X178500D01*
X179300D02*
X180099Y127500D01*
X182499Y129899D02*
X181699Y129499D01*
X180899Y128700D01*
Y127900D01*
X181299Y127500D01*
X182099D01*
X182499Y127900D01*
Y128300D01*
X182099Y128700D01*
X180899D01*
X184898Y127500D02*
X183298D01*
X184898Y129100D01*
Y129499D01*
X184498Y129899D01*
X183698D01*
X183298Y129499D01*
X90350Y270888D02*
Y268889D01*
X90749Y268489D01*
X91549D01*
X91949Y268889D01*
Y270888D01*
X92749Y268489D02*
X93549D01*
X93149D01*
Y270888D01*
X92749Y270488D01*
X94748D02*
X95148Y270888D01*
X95948D01*
X96348Y270488D01*
Y270089D01*
X95948Y269689D01*
X96348Y269289D01*
Y268889D01*
X95948Y268489D01*
X95148D01*
X94748Y268889D01*
Y269289D01*
X95148Y269689D01*
X94748Y270089D01*
Y270488D01*
X95148Y269689D02*
X95948D01*
X187398Y82397D02*
X186998Y82797D01*
X186198D01*
X185798Y82397D01*
Y80797D01*
X186198Y80398D01*
X186998D01*
X187398Y80797D01*
X189397Y80398D02*
Y82797D01*
X188198Y81597D01*
X189797D01*
X190597Y82797D02*
X192196D01*
Y82397D01*
X190597Y80797D01*
Y80398D01*
X168948Y265850D02*
Y263451D01*
X170148D01*
X170547Y263851D01*
Y265451D01*
X170148Y265850D01*
X168948D01*
X171347Y265451D02*
X171747Y265850D01*
X172547D01*
X172947Y265451D01*
Y265051D01*
X172547Y264651D01*
X172147D01*
X172547D01*
X172947Y264251D01*
Y263851D01*
X172547Y263451D01*
X171747D01*
X171347Y263851D01*
X203212Y73203D02*
X200813D01*
Y74402D01*
X201213Y74802D01*
X202012D01*
X202412Y74402D01*
Y73203D01*
X203212Y75602D02*
Y76402D01*
Y76002D01*
X200813D01*
X201213Y75602D01*
D21*
X126709Y305802D02*
X122044Y298803D01*
Y305802D02*
X126709D01*
X122044Y298803D02*
X126709D01*
X128276Y303469D02*
Y300136D01*
X128609Y299137D01*
X129275Y298803D01*
X130275D01*
X130942Y299137D01*
X131941Y300136D01*
Y303469D02*
Y298803D01*
X133774Y303469D02*
Y298803D01*
Y302136D02*
X134774Y303136D01*
X135441Y303469D01*
X136440D01*
X137107Y303136D01*
X137440Y302136D01*
Y298803D01*
Y302136D02*
X138440Y303136D01*
X139107Y303469D01*
X140106D01*
X140773Y303136D01*
X141106Y302136D01*
Y298803D01*
X144972Y303469D02*
X144305Y303136D01*
X143639Y302469D01*
X143306Y301469D01*
Y300803D01*
X143639Y299803D01*
X144305Y299137D01*
X144972Y298803D01*
X145972D01*
X146638Y299137D01*
X147305Y299803D01*
X147638Y300803D01*
Y301469D01*
X147305Y302469D01*
X146638Y303136D01*
X145972Y303469D01*
X144972D01*
X154670Y305802D02*
Y298803D01*
X158669D01*
X159435Y305802D02*
Y298803D01*
Y305802D02*
X163768D01*
X159435Y302469D02*
X162101D01*
X170066Y303469D02*
X172066Y298803D01*
X174066Y303469D02*
X172066Y298803D01*
X175865Y305802D02*
X179531D01*
X177532Y303136D01*
X178531D01*
X179198Y302803D01*
X179531Y302469D01*
X179864Y301469D01*
Y300803D01*
X179531Y299803D01*
X178865Y299137D01*
X177865Y298803D01*
X176865D01*
X175865Y299137D01*
X175532Y299470D01*
X175199Y300136D01*
D22*
X215308Y182500D02*
X218457D01*
Y184074D01*
X217932Y184599D01*
X215833D01*
X215308Y184074D01*
Y182500D01*
Y185649D02*
Y186698D01*
Y186173D01*
X218457D01*
Y185649D01*
Y186698D01*
X215308Y189847D02*
Y188797D01*
X215833Y188272D01*
X217932D01*
X218457Y188797D01*
Y189847D01*
X217932Y190372D01*
X215833D01*
X215308Y189847D01*
X220164Y184599D02*
X219639Y184074D01*
Y183025D01*
X220164Y182500D01*
X222263D01*
X222787Y183025D01*
Y184074D01*
X222263Y184599D01*
X219639Y185649D02*
X222787D01*
Y187748D01*
X219639Y188797D02*
X222787D01*
X221738D01*
X219639Y190896D01*
X221213Y189322D01*
X222787Y190896D01*
X227728Y146000D02*
X224579D01*
Y147574D01*
X225104Y148099D01*
X226153D01*
X226678Y147574D01*
Y146000D01*
Y147049D02*
X227728Y148099D01*
X224579Y149149D02*
X227728Y151248D01*
X224579D02*
X227728Y149149D01*
X224579Y152297D02*
X227728D01*
Y153872D01*
X227203Y154396D01*
X225104D01*
X224579Y153872D01*
Y152297D01*
X219994Y147950D02*
Y149550D01*
Y148750D01*
X222394D01*
X219994Y150349D02*
X222394Y151949D01*
X219994D02*
X222394Y150349D01*
X219994Y152749D02*
X222394D01*
Y153948D01*
X221994Y154348D01*
X220394D01*
X219994Y153948D01*
Y152749D01*
X214932Y146000D02*
X214407Y146525D01*
Y147574D01*
X214932Y148099D01*
X215457D01*
X215982Y147574D01*
Y147049D01*
Y147574D01*
X216506Y148099D01*
X217031D01*
X217556Y147574D01*
Y146525D01*
X217031Y146000D01*
X214407Y149149D02*
X216506D01*
X217556Y150198D01*
X216506Y151248D01*
X214407D01*
X214932Y152297D02*
X214407Y152822D01*
Y153872D01*
X214932Y154396D01*
X215457D01*
X215982Y153872D01*
Y153347D01*
Y153872D01*
X216506Y154396D01*
X217031D01*
X217556Y153872D01*
Y152822D01*
X217031Y152297D01*
X234829Y181264D02*
X231681D01*
Y182838D01*
X232206Y183363D01*
X233255D01*
X233780Y182838D01*
Y181264D01*
Y182313D02*
X234829Y183363D01*
X232206Y186511D02*
X231681Y185987D01*
Y184937D01*
X232206Y184412D01*
X232731D01*
X233255Y184937D01*
Y185987D01*
X233780Y186511D01*
X234305D01*
X234829Y185987D01*
Y184937D01*
X234305Y184412D01*
X231681Y187561D02*
Y189660D01*
Y188610D01*
X234829D01*
D23*
X111761Y107583D02*
D03*
X137001Y108935D02*
D03*
D24*
X170850Y101209D02*
D03*
D25*
X108905Y72489D02*
D03*
D26*
X111344Y75426D02*
D03*
D27*
X108489Y79615D02*
D03*
D28*
X105950Y76017D02*
D03*
D29*
X110373Y73434D02*
D03*
D30*
X106934Y73522D02*
D03*
D31*
X110304Y78827D02*
D03*
D32*
X106934D02*
D03*
D33*
X82367Y78812D02*
D03*
D34*
Y73556D02*
D03*
D35*
X79832Y75986D02*
D03*
D36*
X84926Y75395D02*
D03*
M02*
