G04*
G04 #@! TF.GenerationSoftware,Altium Limited,Altium Designer,21.0.8 (223)*
G04*
G04 Layer_Color=16711935*
%FSLAX25Y25*%
%MOIN*%
G70*
G04*
G04 #@! TF.SameCoordinates,C8F2EFAD-F301-47D2-81E3-A82B1A8C5C35*
G04*
G04*
G04 #@! TF.FilePolarity,Negative*
G04*
G01*
G75*
%ADD89R,0.03950X0.03753*%
%ADD90R,0.03753X0.03950*%
%ADD95O,0.01981X0.07099*%
%ADD115R,0.07200X0.07800*%
%ADD121R,0.14200X0.04600*%
%ADD136C,0.08674*%
%ADD137C,0.09800*%
%ADD138C,0.06706*%
%ADD139R,0.06706X0.06706*%
%ADD140R,0.06706X0.06706*%
%ADD141C,0.24422*%
%ADD142O,0.08674X0.06706*%
%ADD143R,0.08674X0.06706*%
%ADD144C,0.05524*%
%ADD145C,0.03398*%
%ADD146O,0.03084X0.04737*%
%ADD147C,0.07887*%
%ADD148P,0.09483X4X90.0*%
%ADD149C,0.00800*%
%ADD150O,0.06300X0.07800*%
%ADD234R,0.02800X0.03950*%
%ADD235R,0.04343X0.07493*%
%ADD236R,0.07493X0.04343*%
%ADD237R,0.16548X0.16548*%
%ADD238R,0.11430X0.11430*%
%ADD239R,0.01784X0.03950*%
%ADD240R,0.03950X0.01784*%
%ADD241R,0.02572X0.02965*%
%ADD242R,0.03950X0.04343*%
%ADD243R,0.04343X0.03950*%
%ADD244R,0.08005X0.05288*%
%ADD245R,0.05131X0.03556*%
%ADD246R,0.13910X0.03556*%
%ADD247R,0.11824X0.04186*%
%ADD248R,0.04461X0.04343*%
%ADD249R,0.03871X0.04934*%
%ADD250R,0.12800X0.06200*%
D89*
X272545Y115417D02*
D03*
Y109709D02*
D03*
X266724Y115423D02*
D03*
Y109714D02*
D03*
X175135Y191795D02*
D03*
Y197504D02*
D03*
X174632Y179854D02*
D03*
Y185563D02*
D03*
X179480Y102828D02*
D03*
Y97119D02*
D03*
X142197Y120854D02*
D03*
Y115146D02*
D03*
X147667Y120447D02*
D03*
Y114738D02*
D03*
D90*
X128595Y44340D02*
D03*
X134303D02*
D03*
Y49374D02*
D03*
X128595D02*
D03*
X212846Y47205D02*
D03*
X207138D02*
D03*
X250451Y89464D02*
D03*
X256160D02*
D03*
X244904Y110400D02*
D03*
X239196D02*
D03*
X137650Y197351D02*
D03*
X131941D02*
D03*
Y192287D02*
D03*
X137650D02*
D03*
X163319Y76146D02*
D03*
X169027D02*
D03*
X153764Y110200D02*
D03*
X159472D02*
D03*
X127646Y69521D02*
D03*
X133354D02*
D03*
X127646Y64519D02*
D03*
X133354D02*
D03*
X168827Y80546D02*
D03*
X163119D02*
D03*
X250451Y85141D02*
D03*
X256160D02*
D03*
X116854Y89594D02*
D03*
X111146D02*
D03*
X119825Y203000D02*
D03*
X125534D02*
D03*
D95*
X185161Y98193D02*
D03*
X187721D02*
D03*
X190279D02*
D03*
X192839D02*
D03*
X185161Y84807D02*
D03*
X187721D02*
D03*
X190279D02*
D03*
X192839D02*
D03*
D115*
X86954Y65481D02*
D03*
X100354D02*
D03*
D121*
X118500Y95905D02*
D03*
Y105205D02*
D03*
D136*
X120661Y78035D02*
D03*
X130661D02*
D03*
X140661D02*
D03*
X96803Y54886D02*
D03*
X106803D02*
D03*
X86803D02*
D03*
D137*
X120661Y58035D02*
D03*
X140661D02*
D03*
D138*
X43500Y74500D02*
D03*
X33500D02*
D03*
Y254500D02*
D03*
Y234500D02*
D03*
Y84500D02*
D03*
Y224500D02*
D03*
Y214500D02*
D03*
Y204500D02*
D03*
Y194500D02*
D03*
Y184500D02*
D03*
Y244500D02*
D03*
Y174500D02*
D03*
Y164500D02*
D03*
Y154500D02*
D03*
Y144500D02*
D03*
X33500Y134500D02*
D03*
X33500Y124500D02*
D03*
Y114500D02*
D03*
Y104500D02*
D03*
Y94500D02*
D03*
X43500D02*
D03*
Y104500D02*
D03*
Y114500D02*
D03*
Y124500D02*
D03*
X43500Y134500D02*
D03*
X43500Y144500D02*
D03*
Y154500D02*
D03*
Y164500D02*
D03*
Y174500D02*
D03*
Y244500D02*
D03*
Y184500D02*
D03*
Y194500D02*
D03*
Y204500D02*
D03*
Y214500D02*
D03*
Y224500D02*
D03*
Y84500D02*
D03*
Y234500D02*
D03*
Y254500D02*
D03*
Y264500D02*
D03*
X90478Y76146D02*
D03*
X177000Y311600D02*
D03*
Y321600D02*
D03*
X157000Y311600D02*
D03*
Y321600D02*
D03*
X127000Y311600D02*
D03*
X137000Y321600D02*
D03*
Y311600D02*
D03*
X147000Y321600D02*
D03*
Y311600D02*
D03*
X167000D02*
D03*
Y321600D02*
D03*
X184100Y74100D02*
D03*
X117000Y353500D02*
D03*
X187000D02*
D03*
X177000D02*
D03*
X167000D02*
D03*
X157000D02*
D03*
X147000D02*
D03*
X137000D02*
D03*
X127000D02*
D03*
X107000D02*
D03*
X197000D02*
D03*
X207000D02*
D03*
X167000Y331700D02*
D03*
X137000D02*
D03*
X147000D02*
D03*
X157000D02*
D03*
X177000D02*
D03*
X115839Y292212D02*
D03*
X108768Y285140D02*
D03*
X262050Y54000D02*
D03*
Y64000D02*
D03*
X272050Y54000D02*
D03*
Y64000D02*
D03*
X242050Y54000D02*
D03*
Y64000D02*
D03*
X252050Y54000D02*
D03*
Y64000D02*
D03*
X222050Y54000D02*
D03*
Y64000D02*
D03*
X232050Y54000D02*
D03*
Y64000D02*
D03*
X202050Y54000D02*
D03*
X212050D02*
D03*
Y64000D02*
D03*
X192050Y54000D02*
D03*
X182050Y64000D02*
D03*
Y54000D02*
D03*
D139*
X33500Y264500D02*
D03*
D140*
X100478Y76146D02*
D03*
X127000Y321600D02*
D03*
X194100Y74100D02*
D03*
X97000Y353500D02*
D03*
X187000Y331700D02*
D03*
D141*
X68713Y55262D02*
D03*
X159264Y55262D02*
D03*
Y283608D02*
D03*
X68713D02*
D03*
D142*
X63850Y74435D02*
D03*
Y84435D02*
D03*
Y94435D02*
D03*
Y104435D02*
D03*
Y114435D02*
D03*
Y124435D02*
D03*
Y134435D02*
D03*
Y144435D02*
D03*
Y154435D02*
D03*
Y164435D02*
D03*
Y174435D02*
D03*
Y184435D02*
D03*
Y194435D02*
D03*
Y204435D02*
D03*
Y214435D02*
D03*
Y224435D02*
D03*
Y234435D02*
D03*
Y244435D02*
D03*
Y254435D02*
D03*
Y264435D02*
D03*
X73850Y74435D02*
D03*
Y84435D02*
D03*
Y94435D02*
D03*
Y104435D02*
D03*
Y114435D02*
D03*
Y124435D02*
D03*
Y134435D02*
D03*
Y144435D02*
D03*
Y154435D02*
D03*
Y164435D02*
D03*
Y174435D02*
D03*
Y184435D02*
D03*
Y194435D02*
D03*
Y204435D02*
D03*
Y214435D02*
D03*
Y224435D02*
D03*
Y234435D02*
D03*
Y244435D02*
D03*
Y254435D02*
D03*
D143*
Y264435D02*
D03*
D144*
X260898Y81684D02*
D03*
Y100582D02*
D03*
X277827Y81684D02*
D03*
Y100582D02*
D03*
D145*
X269362Y105896D02*
D03*
D146*
Y76369D02*
D03*
D147*
X148587Y175358D02*
D03*
X138744D02*
D03*
X104933D02*
D03*
X95091D02*
D03*
D148*
X101697Y278069D02*
D03*
D149*
X38811Y55262D02*
D03*
Y283609D02*
D03*
X250430Y343410D02*
D03*
X210976Y95380D02*
D03*
X53570Y343410D02*
D03*
X92866Y95380D02*
D03*
X53570Y315851D02*
D03*
X250430D02*
D03*
D150*
X202050Y64000D02*
D03*
X192050D02*
D03*
D234*
X148746Y73800D02*
D03*
X154454D02*
D03*
X148791Y78300D02*
D03*
X154500D02*
D03*
D235*
X249673Y187489D02*
D03*
X244673D02*
D03*
X239673D02*
D03*
X234673D02*
D03*
X229673D02*
D03*
X224673D02*
D03*
X219673D02*
D03*
X214673D02*
D03*
X209673D02*
D03*
X204673D02*
D03*
X199673D02*
D03*
X194673D02*
D03*
X189673D02*
D03*
X184673D02*
D03*
Y116623D02*
D03*
X189673D02*
D03*
X194673D02*
D03*
X199673D02*
D03*
X204673D02*
D03*
X209673D02*
D03*
X214673D02*
D03*
X219673D02*
D03*
X224673D02*
D03*
X229673D02*
D03*
X234673D02*
D03*
X239673D02*
D03*
X244673D02*
D03*
X249673D02*
D03*
D236*
X178768Y174556D02*
D03*
Y169556D02*
D03*
Y164556D02*
D03*
Y159556D02*
D03*
Y154556D02*
D03*
Y149556D02*
D03*
Y144556D02*
D03*
Y139556D02*
D03*
Y134556D02*
D03*
Y129556D02*
D03*
D237*
X220500Y149300D02*
D03*
D238*
X153988Y92054D02*
D03*
D239*
X158909Y99633D02*
D03*
X156941D02*
D03*
X154972D02*
D03*
X153004D02*
D03*
X151035D02*
D03*
X149067D02*
D03*
Y84476D02*
D03*
X151035D02*
D03*
X153004D02*
D03*
X154972D02*
D03*
X156941D02*
D03*
X158909D02*
D03*
D240*
X146409Y96976D02*
D03*
Y95007D02*
D03*
Y93039D02*
D03*
Y91070D02*
D03*
Y89102D02*
D03*
Y87133D02*
D03*
X161567D02*
D03*
Y89102D02*
D03*
Y91070D02*
D03*
Y93039D02*
D03*
Y95007D02*
D03*
Y96976D02*
D03*
D241*
X265236Y67594D02*
D03*
X268780D02*
D03*
X268746Y49000D02*
D03*
X265203D02*
D03*
D242*
X137354Y202563D02*
D03*
X134795Y210437D02*
D03*
X132236Y202563D02*
D03*
D243*
X179232Y195240D02*
D03*
X187106Y197799D02*
D03*
X179232Y200358D02*
D03*
D244*
X266141Y193165D02*
D03*
D245*
X266488Y208542D02*
D03*
Y212873D02*
D03*
Y221535D02*
D03*
Y217204D02*
D03*
Y230196D02*
D03*
Y225865D02*
D03*
Y238857D02*
D03*
Y234527D02*
D03*
D246*
X222197Y192893D02*
D03*
X222197Y244074D02*
D03*
D247*
X264421Y242991D02*
D03*
D248*
X217472Y201357D02*
D03*
D249*
X217177Y218483D02*
D03*
D250*
X134402Y104856D02*
D03*
Y92856D02*
D03*
M02*
