G04*
G04 #@! TF.GenerationSoftware,Altium Limited,Altium Designer,21.0.8 (223)*
G04*
G04 Layer_Physical_Order=3*
G04 Layer_Color=36540*
%FSLAX25Y25*%
%MOIN*%
G70*
G04*
G04 #@! TF.SameCoordinates,C8F2EFAD-F301-47D2-81E3-A82B1A8C5C35*
G04*
G04*
G04 #@! TF.FilePolarity,Positive*
G04*
G01*
G75*
%ADD10C,0.01000*%
%ADD154C,0.03000*%
%ADD162C,0.03500*%
%ADD185C,0.07874*%
%ADD187C,0.05906*%
%ADD189R,0.05906X0.05906*%
%ADD190C,0.23622*%
%ADD191O,0.07874X0.05906*%
%ADD193C,0.04724*%
%ADD196C,0.07087*%
%ADD198C,0.02756*%
%ADD199O,0.05500X0.07000*%
G36*
X280194Y188306D02*
X255395D01*
X254780Y188183D01*
X254259Y187835D01*
X253911Y187314D01*
X253789Y186700D01*
Y176306D01*
X253289Y176273D01*
X253254Y176543D01*
X252994Y177170D01*
X252580Y177709D01*
X252042Y178122D01*
X251727Y178252D01*
X251425Y178482D01*
X251465Y178879D01*
X251590Y179181D01*
X251678Y179854D01*
X251590Y180527D01*
X251330Y181155D01*
X250917Y181693D01*
X250378Y182106D01*
X249751Y182366D01*
X249078Y182455D01*
X248405Y182366D01*
X247778Y182106D01*
X247239Y181693D01*
X246826Y181155D01*
X246566Y180527D01*
X246478Y179854D01*
X246566Y179181D01*
X246826Y178554D01*
X247239Y178016D01*
X247778Y177603D01*
X248093Y177472D01*
X248395Y177242D01*
X248355Y176845D01*
X248230Y176543D01*
X248142Y175870D01*
X248230Y175197D01*
X248490Y174570D01*
X248903Y174031D01*
X249442Y173618D01*
X250069Y173358D01*
X250742Y173270D01*
X251415Y173358D01*
X252042Y173618D01*
X252580Y174031D01*
X252994Y174570D01*
X253254Y175197D01*
X253289Y175467D01*
X253789Y175434D01*
Y137700D01*
X253911Y137085D01*
X254259Y136565D01*
X254780Y136217D01*
X255395Y136094D01*
X280194D01*
Y103821D01*
X279745Y103600D01*
X279623Y103693D01*
X278757Y104052D01*
X277827Y104174D01*
X276897Y104052D01*
X276030Y103693D01*
X275286Y103122D01*
X274715Y102378D01*
X274689Y102315D01*
X274576D01*
X274576Y102315D01*
X273912Y102183D01*
X273350Y101807D01*
X272225Y100682D01*
X271849Y100120D01*
X271717Y99457D01*
Y83417D01*
X266665D01*
Y99088D01*
X266533Y99751D01*
X266157Y100314D01*
X264664Y101807D01*
X264102Y102183D01*
X264089Y102185D01*
X264009Y102378D01*
X263438Y103122D01*
X262694Y103693D01*
X261828Y104052D01*
X260898Y104174D01*
X259968Y104052D01*
X259101Y103693D01*
X258357Y103122D01*
X257786Y102378D01*
X257427Y101511D01*
X257305Y100582D01*
X257406Y99809D01*
X257095Y99488D01*
X256978Y99430D01*
X256359Y99512D01*
X255686Y99423D01*
X255059Y99164D01*
X254961Y99088D01*
X254878Y99152D01*
X254251Y99412D01*
X253578Y99500D01*
X253233Y99455D01*
X252733Y99846D01*
Y111066D01*
X256630Y114964D01*
X257817D01*
X257917Y114464D01*
X257748Y114394D01*
X257209Y113980D01*
X256796Y113442D01*
X256536Y112815D01*
X256448Y112142D01*
X256536Y111469D01*
X256796Y110842D01*
X257209Y110303D01*
X257748Y109890D01*
X258375Y109630D01*
X259048Y109541D01*
X259721Y109630D01*
X260348Y109890D01*
X260701Y110161D01*
X261054Y109890D01*
X261681Y109630D01*
X262354Y109541D01*
X263027Y109630D01*
X263654Y109890D01*
X264192Y110303D01*
X264605Y110842D01*
X264865Y111469D01*
X264954Y112142D01*
X264865Y112815D01*
X264605Y113442D01*
X264192Y113980D01*
X263654Y114394D01*
X263027Y114653D01*
X262755Y114689D01*
X262634Y115209D01*
X263026Y115471D01*
X271990Y124435D01*
X272366Y124998D01*
X272498Y125661D01*
Y126075D01*
X272603Y126155D01*
X273016Y126694D01*
X273276Y127321D01*
X273365Y127994D01*
X273276Y128667D01*
X273016Y129294D01*
X272603Y129833D01*
X272065Y130246D01*
X271438Y130506D01*
X270765Y130594D01*
X270092Y130506D01*
X269464Y130246D01*
X268926Y129833D01*
X268513Y129294D01*
X268253Y128667D01*
X268164Y127994D01*
X268253Y127321D01*
X268513Y126694D01*
X268875Y126222D01*
X263871Y121219D01*
X263335Y121390D01*
X263149Y121839D01*
X262736Y122378D01*
X262198Y122791D01*
X261571Y123051D01*
X260898Y123139D01*
X260225Y123051D01*
X259597Y122791D01*
X259059Y122378D01*
X258646Y121839D01*
X258386Y121212D01*
X258297Y120539D01*
X258386Y119866D01*
X258646Y119239D01*
X258883Y118930D01*
X258636Y118430D01*
X255912D01*
X255249Y118298D01*
X254687Y117922D01*
X249774Y113010D01*
X249399Y112448D01*
X249267Y111784D01*
Y86300D01*
X249399Y85637D01*
X249774Y85075D01*
X255626Y79223D01*
Y66939D01*
X255153Y66778D01*
X255012Y66962D01*
X254144Y67627D01*
X253134Y68046D01*
X252050Y68189D01*
X250966Y68046D01*
X249956Y67627D01*
X249088Y66962D01*
X248423Y66094D01*
X248004Y65084D01*
X247861Y64000D01*
X248004Y62916D01*
X248423Y61906D01*
X249088Y61038D01*
X249956Y60373D01*
X250966Y59954D01*
X252050Y59811D01*
X253134Y59954D01*
X254144Y60373D01*
X255012Y61038D01*
X255153Y61222D01*
X255626Y61061D01*
Y56939D01*
X255153Y56778D01*
X255012Y56962D01*
X254144Y57627D01*
X253134Y58046D01*
X252050Y58189D01*
X250966Y58046D01*
X249956Y57627D01*
X249088Y56962D01*
X248423Y56094D01*
X248004Y55084D01*
X247861Y54000D01*
X248004Y52916D01*
X248423Y51906D01*
X249088Y51038D01*
X249956Y50373D01*
X250966Y49954D01*
X252050Y49811D01*
X253134Y49954D01*
X253504Y50107D01*
X253787Y49683D01*
X253337Y49233D01*
X230369D01*
X230178Y49695D01*
X230592Y50109D01*
X230966Y49954D01*
X232050Y49811D01*
X233134Y49954D01*
X234144Y50373D01*
X235012Y51038D01*
X235677Y51906D01*
X236096Y52916D01*
X236239Y54000D01*
X236096Y55084D01*
X235677Y56094D01*
X235012Y56962D01*
X234144Y57627D01*
X233134Y58046D01*
X232050Y58189D01*
X230966Y58046D01*
X229956Y57627D01*
X229088Y56962D01*
X228423Y56094D01*
X228004Y55084D01*
X227861Y54000D01*
X228004Y52916D01*
X228148Y52568D01*
X226687Y51107D01*
X225630D01*
X225409Y51556D01*
X225677Y51906D01*
X226096Y52916D01*
X226239Y54000D01*
X226096Y55084D01*
X225677Y56094D01*
X225012Y56962D01*
X224144Y57627D01*
X223134Y58046D01*
X222050Y58189D01*
X220966Y58046D01*
X219956Y57627D01*
X219088Y56962D01*
X218423Y56094D01*
X218004Y55084D01*
X217861Y54000D01*
X218004Y52916D01*
X218423Y51906D01*
X218691Y51556D01*
X218470Y51107D01*
X215630D01*
X215409Y51556D01*
X215677Y51906D01*
X216096Y52916D01*
X216239Y54000D01*
X216096Y55084D01*
X215677Y56094D01*
X215012Y56962D01*
X214144Y57627D01*
X213134Y58046D01*
X212050Y58189D01*
X210966Y58046D01*
X210547Y57872D01*
X208733Y59687D01*
Y60729D01*
X209233Y60927D01*
X209956Y60373D01*
X210966Y59954D01*
X212050Y59811D01*
X213134Y59954D01*
X214144Y60373D01*
X215012Y61038D01*
X215677Y61906D01*
X216096Y62916D01*
X216239Y64000D01*
X216096Y65084D01*
X215677Y66094D01*
X215798Y66544D01*
X215973Y66616D01*
X216512Y67029D01*
X216593Y67135D01*
X217874D01*
X218538Y67267D01*
X219100Y67642D01*
X221063Y69606D01*
X221439Y70168D01*
X221571Y70831D01*
Y90876D01*
X226197Y95502D01*
X226573Y96065D01*
X226705Y96728D01*
X226705Y96728D01*
Y115735D01*
X226573Y116398D01*
X226197Y116960D01*
X216466Y126691D01*
X216657Y127153D01*
X222463D01*
X223126Y127285D01*
X223689Y127661D01*
X225789Y129761D01*
X226164Y130323D01*
X226296Y130987D01*
Y133819D01*
X231868Y139390D01*
X232101Y139293D01*
X232433Y139250D01*
X232400Y139000D01*
X232488Y138327D01*
X232748Y137700D01*
X233161Y137161D01*
X233700Y136748D01*
X234327Y136488D01*
X235000Y136400D01*
X235673Y136488D01*
X236300Y136748D01*
X236839Y137161D01*
X237252Y137700D01*
X237512Y138327D01*
X237600Y139000D01*
X237512Y139673D01*
X237252Y140300D01*
X237086Y140517D01*
Y149448D01*
X236954Y150111D01*
X236578Y150673D01*
X236578Y150673D01*
X226459Y160793D01*
X225941Y161138D01*
X225859Y161408D01*
X225841Y161689D01*
X233891Y169740D01*
X234138Y169684D01*
X234393Y169535D01*
X234470Y168957D01*
X234729Y168330D01*
X235142Y167791D01*
X235681Y167378D01*
X236308Y167118D01*
X236981Y167030D01*
X237654Y167118D01*
X238281Y167378D01*
X238820Y167791D01*
X239233Y168330D01*
X239493Y168957D01*
X239581Y169630D01*
X239493Y170303D01*
X239233Y170930D01*
X238820Y171468D01*
X238281Y171882D01*
X237654Y172142D01*
X236981Y172230D01*
X236308Y172142D01*
X235733Y171903D01*
X235531Y171978D01*
X235233Y172169D01*
Y219567D01*
X235101Y220230D01*
X234726Y220793D01*
X233638Y221880D01*
X233655Y222012D01*
X233567Y222685D01*
X233307Y223312D01*
X232894Y223850D01*
X232788Y223931D01*
Y226866D01*
X232894Y226947D01*
X233307Y227485D01*
X233567Y228112D01*
X233655Y228785D01*
X233610Y229130D01*
X234001Y229630D01*
X235881D01*
X253883Y211628D01*
Y204184D01*
X253550Y203928D01*
X253136Y203389D01*
X252877Y202762D01*
X252788Y202089D01*
X252877Y201416D01*
X253136Y200789D01*
X253550Y200251D01*
X254088Y199837D01*
X254715Y199578D01*
X255388Y199489D01*
X256061Y199578D01*
X256688Y199837D01*
X257227Y200251D01*
X257640Y200789D01*
X257900Y201416D01*
X257989Y202089D01*
X257900Y202762D01*
X257640Y203389D01*
X257349Y203768D01*
Y212346D01*
X257349Y212346D01*
X257218Y213009D01*
X256842Y213572D01*
X256842Y213572D01*
X237825Y232589D01*
X237262Y232965D01*
X236599Y233097D01*
X229987D01*
X229324Y232965D01*
X228762Y232589D01*
X228087Y231914D01*
X227625Y232106D01*
Y238394D01*
X240171Y250940D01*
X251649D01*
X251748Y250700D01*
X252161Y250161D01*
X252700Y249748D01*
X253327Y249488D01*
X254000Y249400D01*
X254673Y249488D01*
X255300Y249748D01*
X255839Y250161D01*
X256252Y250700D01*
X256512Y251327D01*
X256600Y252000D01*
X256512Y252673D01*
X256252Y253300D01*
X255839Y253839D01*
X255300Y254252D01*
X254673Y254512D01*
X254000Y254600D01*
X253327Y254512D01*
X253001Y254377D01*
X252852Y254406D01*
X239453D01*
X238790Y254274D01*
X238227Y253899D01*
X224666Y240337D01*
X224290Y239775D01*
X224158Y239112D01*
Y235699D01*
X223658Y235543D01*
X223222Y235878D01*
X222595Y236137D01*
X221922Y236226D01*
X221249Y236137D01*
X220622Y235878D01*
X220083Y235464D01*
X219670Y234926D01*
X219410Y234299D01*
X219322Y233626D01*
X219410Y232953D01*
X219670Y232326D01*
X220083Y231787D01*
X220622Y231374D01*
X221249Y231114D01*
X221922Y231026D01*
X222595Y231114D01*
X223222Y231374D01*
X223658Y231709D01*
X224158Y231552D01*
Y227235D01*
X219491Y222567D01*
X219028Y222758D01*
Y229705D01*
X219028Y229705D01*
X218897Y230368D01*
X218521Y230930D01*
X215233Y234218D01*
Y240574D01*
X227976Y253317D01*
X228324Y253836D01*
X228576Y253895D01*
X228869Y253915D01*
X229146Y253554D01*
X229685Y253140D01*
X230312Y252881D01*
X230985Y252792D01*
X231658Y252881D01*
X232285Y253140D01*
X232824Y253554D01*
X233237Y254092D01*
X233497Y254719D01*
X233585Y255392D01*
X233497Y256065D01*
X233237Y256692D01*
X232824Y257231D01*
X232285Y257644D01*
X231658Y257904D01*
X230985Y257992D01*
X230312Y257904D01*
X229685Y257644D01*
X229146Y257231D01*
X228984Y257019D01*
X228484Y257189D01*
Y269533D01*
X236218Y277267D01*
X244198D01*
X249691Y271774D01*
X250253Y271399D01*
X250916Y271267D01*
X252081D01*
X252161Y271161D01*
X252700Y270748D01*
X253327Y270488D01*
X254000Y270400D01*
X254673Y270488D01*
X255300Y270748D01*
X255839Y271161D01*
X256252Y271700D01*
X256512Y272327D01*
X256600Y273000D01*
X256512Y273673D01*
X256252Y274300D01*
X255839Y274839D01*
X255300Y275252D01*
X254673Y275512D01*
X254000Y275600D01*
X253945Y275593D01*
X253593Y276051D01*
X253717Y276349D01*
X253806Y277023D01*
X253717Y277695D01*
X253457Y278323D01*
X253044Y278861D01*
X252505Y279274D01*
X251878Y279534D01*
X251205Y279623D01*
X250532Y279534D01*
X249905Y279274D01*
X249367Y278861D01*
X248954Y278323D01*
X248895Y278180D01*
X248305Y278063D01*
X246142Y280226D01*
X245580Y280601D01*
X244916Y280733D01*
X235500D01*
X235500Y280733D01*
X234837Y280601D01*
X234274Y280226D01*
X225525Y271476D01*
X225149Y270914D01*
X225017Y270251D01*
Y255260D01*
X212274Y242517D01*
X211899Y241955D01*
X211767Y241292D01*
Y234482D01*
X211305Y234291D01*
X206411Y239185D01*
Y242140D01*
X206772Y242417D01*
X207186Y242956D01*
X207446Y243583D01*
X207507Y244049D01*
X207600Y244541D01*
X208273Y244630D01*
X208900Y244889D01*
X209438Y245303D01*
X209852Y245841D01*
X210111Y246468D01*
X210200Y247141D01*
X210111Y247814D01*
X209852Y248441D01*
X209438Y248980D01*
X208900Y249393D01*
X208273Y249653D01*
X207600Y249741D01*
X206927Y249653D01*
X206300Y249393D01*
X205761Y248980D01*
X205348Y248441D01*
X205088Y247814D01*
X205027Y247348D01*
X204934Y246856D01*
X204261Y246767D01*
X203634Y246508D01*
X203095Y246094D01*
X202682Y245556D01*
X202422Y244929D01*
X202334Y244256D01*
X202422Y243583D01*
X202682Y242956D01*
X202944Y242615D01*
Y238467D01*
X203076Y237804D01*
X203451Y237242D01*
X212767Y227926D01*
Y227422D01*
X212267Y227129D01*
X211704Y227203D01*
X211031Y227114D01*
X210403Y226854D01*
X209865Y226441D01*
X209784D01*
X209412Y226926D01*
X208873Y227339D01*
X208246Y227599D01*
X207573Y227688D01*
X206900Y227599D01*
X206273Y227339D01*
X205735Y226926D01*
X205321Y226387D01*
X205062Y225760D01*
X204973Y225087D01*
X205062Y224414D01*
X205321Y223787D01*
X205735Y223249D01*
X206273Y222835D01*
X206900Y222576D01*
X207573Y222487D01*
X208246Y222576D01*
X208873Y222835D01*
X209412Y223249D01*
X209493D01*
X209865Y222764D01*
X210403Y222351D01*
X211031Y222091D01*
X211704Y222002D01*
X212267Y222077D01*
X212767Y221783D01*
Y208248D01*
X203708Y199189D01*
X203332Y198627D01*
X203201Y197964D01*
Y176252D01*
X203183Y176235D01*
X202886Y176196D01*
X202259Y175936D01*
X201720Y175523D01*
X201307Y174984D01*
X201047Y174357D01*
X200959Y173684D01*
X201047Y173011D01*
X201084Y172922D01*
X200660Y172639D01*
X199916Y173383D01*
X199354Y173759D01*
X198690Y173891D01*
X181725D01*
X167275Y188341D01*
Y201676D01*
X167143Y202340D01*
X166767Y202902D01*
X166767Y202902D01*
X164159Y205511D01*
X164353Y205981D01*
X164442Y206654D01*
X164353Y207327D01*
X164094Y207954D01*
X163680Y208492D01*
X163142Y208906D01*
X162515Y209165D01*
X161842Y209254D01*
X161169Y209165D01*
X160542Y208906D01*
X160003Y208492D01*
X159590Y207954D01*
X159330Y207327D01*
X159241Y206654D01*
X159330Y205981D01*
X159403Y205805D01*
X158979Y205522D01*
X158419Y206082D01*
Y214424D01*
X158524Y214505D01*
X158938Y215044D01*
X159197Y215671D01*
X159286Y216344D01*
X159197Y217017D01*
X158938Y217644D01*
X158524Y218182D01*
X158414Y218267D01*
X158584Y218767D01*
X167148D01*
X189901Y196013D01*
X189900Y196000D01*
X189988Y195327D01*
X190248Y194700D01*
X190661Y194161D01*
X191200Y193748D01*
X191827Y193488D01*
X192500Y193400D01*
X193173Y193488D01*
X193800Y193748D01*
X194339Y194161D01*
X194661D01*
X195200Y193748D01*
X195827Y193488D01*
X196500Y193400D01*
X197173Y193488D01*
X197800Y193748D01*
X198339Y194161D01*
X198752Y194700D01*
X199012Y195327D01*
X199100Y196000D01*
X199012Y196673D01*
X198752Y197300D01*
X198339Y197839D01*
X197800Y198252D01*
X197173Y198512D01*
X196500Y198600D01*
X196368Y198583D01*
X194834Y200117D01*
X194932Y200607D01*
X195097Y200676D01*
X195636Y201089D01*
X196049Y201628D01*
X196309Y202255D01*
X196398Y202928D01*
X196309Y203601D01*
X196049Y204228D01*
X195636Y204767D01*
X195097Y205180D01*
X194470Y205440D01*
X193797Y205528D01*
X193124Y205440D01*
X192497Y205180D01*
X191959Y204767D01*
X191546Y204228D01*
X191477Y204062D01*
X190987Y203965D01*
X171100Y223851D01*
X170538Y224227D01*
X169875Y224359D01*
X166285D01*
X166038Y224859D01*
X166104Y224944D01*
X166364Y225571D01*
X166452Y226244D01*
X166364Y226917D01*
X166104Y227544D01*
X165691Y228083D01*
X165152Y228496D01*
X164525Y228756D01*
X163852Y228844D01*
X163179Y228756D01*
X162552Y228496D01*
X162013Y228083D01*
X161600Y227544D01*
X161340Y226917D01*
X161252Y226244D01*
X161340Y225571D01*
X161600Y224944D01*
X161666Y224859D01*
X161419Y224359D01*
X158352D01*
X158124Y224859D01*
X158401Y225220D01*
X158661Y225848D01*
X158750Y226520D01*
X158661Y227193D01*
X158401Y227821D01*
X157988Y228359D01*
X157883Y228440D01*
Y262122D01*
X157751Y262785D01*
X157375Y263348D01*
X146233Y274490D01*
Y301625D01*
X146101Y302289D01*
X145726Y302851D01*
X141693Y306884D01*
X141130Y307260D01*
X140467Y307392D01*
X138999D01*
X138900Y307892D01*
X139094Y307973D01*
X139962Y308638D01*
X140627Y309506D01*
X141046Y310516D01*
X141189Y311600D01*
X141046Y312684D01*
X140627Y313694D01*
X139962Y314562D01*
X139094Y315227D01*
X138084Y315646D01*
X137000Y315789D01*
X135916Y315646D01*
X134906Y315227D01*
X134038Y314562D01*
X133373Y313694D01*
X132954Y312684D01*
X132811Y311600D01*
X132954Y310516D01*
X133373Y309506D01*
X134038Y308638D01*
X134906Y307973D01*
X135100Y307892D01*
X135001Y307392D01*
X128999D01*
X128900Y307892D01*
X129094Y307973D01*
X129962Y308638D01*
X130627Y309506D01*
X131046Y310516D01*
X131189Y311600D01*
X131046Y312684D01*
X130627Y313694D01*
X129962Y314562D01*
X129094Y315227D01*
X128084Y315646D01*
X127000Y315789D01*
X125916Y315646D01*
X124906Y315227D01*
X124038Y314562D01*
X123373Y313694D01*
X122954Y312684D01*
X122811Y311600D01*
X122954Y310516D01*
X123373Y309506D01*
X124038Y308638D01*
X124906Y307973D01*
X125101Y307892D01*
X125001Y307392D01*
X121045D01*
X120382Y307260D01*
X119819Y306884D01*
X116849Y303914D01*
X107651D01*
X107328Y304414D01*
X107505Y304842D01*
X107607Y305612D01*
Y308764D01*
Y313834D01*
X120797Y327025D01*
X128921D01*
X129731Y326215D01*
X129540Y325753D01*
X122847D01*
Y317447D01*
X131153D01*
Y324140D01*
X131615Y324331D01*
X133044Y322901D01*
X132954Y322684D01*
X132811Y321600D01*
X132954Y320516D01*
X133373Y319506D01*
X134038Y318638D01*
X134906Y317973D01*
X135916Y317554D01*
X137000Y317411D01*
X138084Y317554D01*
X139094Y317973D01*
X139962Y318638D01*
X140627Y319506D01*
X141046Y320516D01*
X141189Y321600D01*
X141046Y322684D01*
X140627Y323694D01*
X139962Y324562D01*
X139174Y325166D01*
X139104Y325257D01*
X132257Y332104D01*
X131641Y332577D01*
X130924Y332874D01*
X130154Y332976D01*
X119564D01*
X118794Y332874D01*
X118077Y332577D01*
X117460Y332104D01*
X102527Y317171D01*
X102054Y316554D01*
X101757Y315837D01*
X101656Y315067D01*
Y311915D01*
Y308764D01*
Y305612D01*
X101696Y305304D01*
X101223Y305071D01*
X99733Y306560D01*
Y331081D01*
X99839Y331161D01*
X100252Y331700D01*
X100512Y332327D01*
X100600Y333000D01*
X100512Y333673D01*
X100252Y334300D01*
X99839Y334839D01*
X99300Y335252D01*
X98673Y335512D01*
X98000Y335600D01*
X97327Y335512D01*
X96700Y335252D01*
X96161Y334839D01*
X95748Y334300D01*
X95488Y333673D01*
X95400Y333000D01*
X95488Y332327D01*
X95748Y331700D01*
X96161Y331161D01*
X96267Y331081D01*
Y305842D01*
X96399Y305179D01*
X96774Y304617D01*
X97385Y304006D01*
X97339Y303954D01*
X97339Y303954D01*
X97054Y303629D01*
X97021Y303655D01*
X96694Y303906D01*
X96067Y304166D01*
X95394Y304254D01*
X95075Y304212D01*
X94641Y304420D01*
X94576Y304628D01*
X94512Y305113D01*
X94252Y305740D01*
X93839Y306278D01*
X93300Y306692D01*
X92673Y306951D01*
X92000Y307040D01*
X91327Y306951D01*
X90700Y306692D01*
X90161Y306278D01*
X89748Y305740D01*
X89488Y305113D01*
X89479Y305041D01*
X89437Y305035D01*
X88810Y304776D01*
X88272Y304362D01*
X87858Y303824D01*
X87599Y303197D01*
X87538Y302737D01*
X87049Y302673D01*
X86422Y302413D01*
X85883Y302000D01*
X85470Y301462D01*
X85210Y300834D01*
X85121Y300161D01*
X85210Y299488D01*
X85470Y298861D01*
X85883Y298323D01*
X86422Y297910D01*
X87049Y297650D01*
X87722Y297561D01*
X88394Y297650D01*
X89022Y297910D01*
X89560Y298323D01*
X89973Y298861D01*
X90233Y299488D01*
X90294Y299948D01*
X90783Y300012D01*
X91410Y300272D01*
X91949Y300685D01*
X92348Y301206D01*
X92422Y301212D01*
X92863Y301126D01*
X92882Y300981D01*
X93142Y300354D01*
X93555Y299816D01*
X94094Y299402D01*
X94721Y299143D01*
X95394Y299054D01*
X96067Y299143D01*
X96694Y299402D01*
X97232Y299816D01*
X97646Y300354D01*
X97905Y300981D01*
X97994Y301654D01*
X97905Y302327D01*
X97646Y302954D01*
X97394Y303282D01*
X97369Y303315D01*
X97746Y303645D01*
X100436Y300955D01*
X100998Y300579D01*
X101661Y300447D01*
X117567D01*
X118230Y300579D01*
X118793Y300955D01*
X121763Y303925D01*
X135773D01*
X136107Y303425D01*
X136024Y303224D01*
X135935Y302551D01*
X135953Y302419D01*
X132274Y298741D01*
X131899Y298179D01*
X131767Y297515D01*
Y258578D01*
X131899Y257914D01*
X132274Y257352D01*
X141345Y248282D01*
Y228996D01*
X140845Y228826D01*
X140583Y229168D01*
X140044Y229581D01*
X139417Y229841D01*
X138744Y229929D01*
X138071Y229841D01*
X137444Y229581D01*
X136906Y229168D01*
X136492Y228629D01*
X136233Y228002D01*
X136144Y227329D01*
X136233Y226656D01*
X136492Y226029D01*
X136906Y225490D01*
X137444Y225077D01*
X138071Y224817D01*
X138744Y224729D01*
X139417Y224817D01*
X140044Y225077D01*
X140583Y225490D01*
X140845Y225832D01*
X141345Y225662D01*
Y223746D01*
X140845Y223355D01*
X140500Y223400D01*
X139827Y223312D01*
X139200Y223052D01*
X138661Y222639D01*
X138581Y222533D01*
X133905D01*
X133905Y222533D01*
X133242Y222401D01*
X132680Y222026D01*
X128433Y217779D01*
X128057Y217216D01*
X127925Y216553D01*
Y205257D01*
X128057Y204594D01*
X128433Y204031D01*
X170827Y161637D01*
X171389Y161262D01*
X172052Y161130D01*
X188222D01*
X188514Y160630D01*
X188353Y160240D01*
X188264Y159567D01*
X188353Y158894D01*
X188612Y158267D01*
X188849Y157959D01*
X188602Y157459D01*
X180864D01*
X180200Y157327D01*
X179638Y156951D01*
X171365Y148678D01*
X170989Y148115D01*
X170857Y147452D01*
Y135152D01*
X170752Y135071D01*
X170339Y134532D01*
X170079Y133905D01*
X169990Y133232D01*
X170079Y132559D01*
X170339Y131932D01*
X170752Y131394D01*
X171291Y130980D01*
X171918Y130721D01*
X172591Y130632D01*
X173264Y130721D01*
X173891Y130980D01*
X174429Y131394D01*
X174510Y131499D01*
X175668D01*
X181252Y125915D01*
Y94469D01*
X180752Y94204D01*
X180175Y94280D01*
X179502Y94191D01*
X178875Y93931D01*
X178336Y93518D01*
X177923Y92980D01*
X177663Y92352D01*
X177575Y91680D01*
X177663Y91006D01*
X177923Y90379D01*
X178336Y89841D01*
X178875Y89428D01*
X179502Y89168D01*
X180175Y89079D01*
X180752Y89155D01*
X181252Y88890D01*
Y83416D01*
X175122Y77286D01*
X174842Y77341D01*
X174622Y77472D01*
Y112747D01*
X174622Y112747D01*
X174490Y113410D01*
X174114Y113972D01*
X171979Y116107D01*
X172159Y116635D01*
X172514Y116682D01*
X173141Y116942D01*
X173680Y117355D01*
X174093Y117894D01*
X174353Y118521D01*
X174441Y119194D01*
X174353Y119867D01*
X174093Y120494D01*
X173680Y121032D01*
X173141Y121446D01*
X172514Y121705D01*
X171841Y121794D01*
X171168Y121705D01*
X170541Y121446D01*
X170003Y121032D01*
X169964Y120982D01*
X169541Y121306D01*
X168914Y121566D01*
X168241Y121654D01*
X167568Y121566D01*
X166941Y121306D01*
X166402Y120893D01*
X165989Y120354D01*
X165729Y119727D01*
X165640Y119054D01*
X165729Y118381D01*
X165989Y117754D01*
X166402Y117215D01*
X166569Y117088D01*
X166639Y116732D01*
X167015Y116169D01*
X171156Y112029D01*
Y70028D01*
X171165Y69983D01*
X170750Y69761D01*
X170677Y69763D01*
X168314Y72126D01*
X167752Y72501D01*
X167089Y72633D01*
X162919D01*
X162839Y72739D01*
X162300Y73152D01*
X161673Y73412D01*
X161000Y73500D01*
X160327Y73412D01*
X159833Y73207D01*
X159333Y73439D01*
Y88733D01*
X162533Y91932D01*
X165895D01*
X165975Y91827D01*
X166514Y91414D01*
X167141Y91154D01*
X167814Y91066D01*
X168487Y91154D01*
X169114Y91414D01*
X169653Y91827D01*
X170066Y92366D01*
X170326Y92993D01*
X170414Y93666D01*
X170326Y94339D01*
X170066Y94966D01*
X169653Y95504D01*
X169114Y95918D01*
X168511Y96167D01*
X168375Y96245D01*
X168158Y96621D01*
X168204Y96732D01*
X168297Y97437D01*
Y100582D01*
Y103705D01*
Y108274D01*
X168204Y108979D01*
X167932Y109635D01*
X167499Y110199D01*
X161178Y116521D01*
Y143041D01*
X161678Y143442D01*
X162000Y143400D01*
X162673Y143488D01*
X163300Y143748D01*
X163839Y144161D01*
X164252Y144700D01*
X164512Y145327D01*
X164600Y146000D01*
X164512Y146673D01*
X164252Y147300D01*
X163839Y147839D01*
X163300Y148252D01*
X162673Y148512D01*
X162000Y148600D01*
X161327Y148512D01*
X160700Y148252D01*
X160161Y147839D01*
X159817Y147390D01*
X159255Y147245D01*
X157422Y149078D01*
Y151044D01*
X157388Y151302D01*
Y154177D01*
X157422Y154435D01*
X157329Y155140D01*
X157057Y155797D01*
X156624Y156361D01*
X156060Y156793D01*
X155403Y157066D01*
X154698Y157158D01*
X153993Y157066D01*
X153337Y156793D01*
X152773Y156361D01*
X152739Y156327D01*
X152306Y155763D01*
X152034Y155106D01*
X151941Y154401D01*
Y151078D01*
X151975Y150820D01*
Y147950D01*
X152068Y147245D01*
X152340Y146589D01*
X152773Y146025D01*
X155731Y143066D01*
Y115393D01*
X155824Y114688D01*
X156096Y114031D01*
X156529Y113467D01*
X162850Y107146D01*
Y103705D01*
Y100582D01*
Y97437D01*
X162943Y96732D01*
X163215Y96075D01*
X163350Y95899D01*
X163103Y95399D01*
X161815D01*
X161152Y95267D01*
X160590Y94891D01*
X156374Y90676D01*
X155999Y90114D01*
X155867Y89451D01*
Y70654D01*
X155999Y69991D01*
X156374Y69429D01*
X158706Y67096D01*
X159269Y66721D01*
X159932Y66589D01*
X163886D01*
X172618Y57857D01*
Y51955D01*
X172750Y51291D01*
X173126Y50729D01*
X177580Y46274D01*
X178143Y45899D01*
X178806Y45767D01*
X254055D01*
X254718Y45899D01*
X255280Y46274D01*
X258585Y49579D01*
X258585Y49579D01*
X258961Y50141D01*
X259024Y50458D01*
X259575Y50665D01*
X259956Y50373D01*
X260966Y49954D01*
X262050Y49811D01*
X263134Y49954D01*
X264144Y50373D01*
X265012Y51038D01*
X265677Y51906D01*
X266096Y52916D01*
X266239Y54000D01*
X266096Y55084D01*
X265677Y56094D01*
X265012Y56962D01*
X264144Y57627D01*
X263134Y58046D01*
X262050Y58189D01*
X260966Y58046D01*
X259956Y57627D01*
X259541Y57309D01*
X259093Y57530D01*
Y60470D01*
X259541Y60691D01*
X259956Y60373D01*
X260966Y59954D01*
X262050Y59811D01*
X263134Y59954D01*
X264144Y60373D01*
X265012Y61038D01*
X265677Y61906D01*
X266096Y62916D01*
X266239Y64000D01*
X266096Y65084D01*
X265677Y66094D01*
X265012Y66962D01*
X264144Y67627D01*
X263134Y68046D01*
X262050Y68189D01*
X260966Y68046D01*
X259956Y67627D01*
X259541Y67309D01*
X259093Y67531D01*
Y78035D01*
X259593Y78369D01*
X259968Y78213D01*
X260898Y78091D01*
X261828Y78213D01*
X262694Y78572D01*
X263438Y79143D01*
X264009Y79887D01*
X264035Y79950D01*
X268646D01*
X268695Y79451D01*
X268448Y79401D01*
X267674Y78884D01*
X267156Y78109D01*
X266975Y77196D01*
Y75542D01*
X267156Y74628D01*
X267674Y73854D01*
X268448Y73336D01*
X269362Y73154D01*
X270276Y73336D01*
X271051Y73854D01*
X271568Y74628D01*
X271750Y75542D01*
Y77196D01*
X271568Y78109D01*
X271051Y78884D01*
X270276Y79401D01*
X270029Y79451D01*
X270079Y79950D01*
X274689D01*
X274715Y79887D01*
X275286Y79143D01*
X276030Y78572D01*
X276897Y78213D01*
X277827Y78091D01*
X278757Y78213D01*
X279623Y78572D01*
X279745Y78666D01*
X280194Y78445D01*
Y40306D01*
X23806D01*
Y366694D01*
X280194D01*
Y188306D01*
D02*
G37*
G36*
X142767Y300908D02*
Y273772D01*
X142899Y273108D01*
X143274Y272546D01*
X152847Y262973D01*
X152689Y262425D01*
X152271Y262252D01*
X151733Y261839D01*
X151320Y261300D01*
X151060Y260673D01*
X150971Y260000D01*
X150989Y259868D01*
X145774Y254654D01*
X145399Y254092D01*
X145267Y253428D01*
Y253387D01*
X144805Y253195D01*
X137233Y260767D01*
Y293652D01*
X138404Y294823D01*
X138535Y294805D01*
X139208Y294894D01*
X139836Y295154D01*
X140374Y295567D01*
X140787Y296105D01*
X141047Y296732D01*
X141136Y297406D01*
X141047Y298078D01*
X140787Y298706D01*
X140374Y299244D01*
X139836Y299657D01*
X139714Y299708D01*
Y300249D01*
X139836Y300299D01*
X140374Y300712D01*
X140787Y301251D01*
X141047Y301878D01*
X141060Y301980D01*
X141534Y302140D01*
X142767Y300908D01*
D02*
G37*
G36*
X226276Y223743D02*
X226545Y223392D01*
X227083Y222979D01*
X227711Y222719D01*
X228384Y222631D01*
X228519Y222496D01*
X228455Y222012D01*
X228508Y221609D01*
X228138Y221183D01*
X228082Y221161D01*
X227905Y221184D01*
X227232Y221096D01*
X226605Y220836D01*
X226066Y220423D01*
X225653Y219884D01*
X225394Y219257D01*
X225305Y218584D01*
X225394Y217911D01*
X225653Y217284D01*
X226066Y216746D01*
X226605Y216333D01*
X227232Y216073D01*
X227652Y216017D01*
X229252Y214418D01*
Y210774D01*
X228752Y210440D01*
X228578Y210512D01*
X227905Y210600D01*
X227232Y210512D01*
X226605Y210252D01*
X226066Y209839D01*
X225653Y209300D01*
X225394Y208673D01*
X225305Y208000D01*
X225394Y207327D01*
X225653Y206700D01*
X226066Y206161D01*
X226605Y205748D01*
X227232Y205488D01*
X227267Y205484D01*
Y175820D01*
X226023Y174576D01*
X225892Y174594D01*
X225219Y174505D01*
X224592Y174245D01*
X224053Y173832D01*
X223640Y173293D01*
X223380Y172666D01*
X223291Y171993D01*
X223380Y171320D01*
X223640Y170693D01*
X224053Y170155D01*
X224592Y169742D01*
X225171Y169502D01*
X225337Y169147D01*
X225384Y169008D01*
X222672Y166296D01*
X211257D01*
X211065Y166758D01*
X220338Y176031D01*
X220714Y176593D01*
X220846Y177257D01*
Y197554D01*
X221346Y197945D01*
X221690Y197900D01*
X222363Y197988D01*
X222990Y198248D01*
X223529Y198661D01*
X223942Y199200D01*
X224202Y199827D01*
X224290Y200500D01*
X224202Y201173D01*
X223942Y201800D01*
X223529Y202339D01*
X222990Y202752D01*
X222363Y203012D01*
X221690Y203100D01*
X221346Y203055D01*
X220846Y203446D01*
Y219019D01*
X225675Y223849D01*
X226276Y223743D01*
D02*
G37*
G36*
X138661Y218961D02*
X139200Y218548D01*
X139827Y218288D01*
X140500Y218200D01*
X140845Y218245D01*
X141345Y217854D01*
Y210372D01*
X141477Y209709D01*
X141852Y209146D01*
X150291Y200707D01*
X150514Y200559D01*
X150870Y200095D01*
X151409Y199681D01*
X152036Y199422D01*
X152709Y199333D01*
X153382Y199422D01*
X154009Y199681D01*
X154547Y200095D01*
X154961Y200633D01*
X155220Y201260D01*
X155309Y201933D01*
X155220Y202606D01*
X154961Y203233D01*
X154617Y203681D01*
X154910Y204062D01*
X155229Y204120D01*
X155492Y204106D01*
X161231Y198368D01*
Y196516D01*
X160731Y196270D01*
X160564Y196397D01*
X159937Y196657D01*
X159264Y196746D01*
X158591Y196657D01*
X157964Y196397D01*
X157425Y195984D01*
X157012Y195446D01*
X156752Y194819D01*
X156664Y194146D01*
X156752Y193473D01*
X157012Y192846D01*
X157425Y192307D01*
X157964Y191894D01*
X158591Y191634D01*
X158821Y191604D01*
Y188488D01*
X158321Y188097D01*
X157977Y188143D01*
X157304Y188054D01*
X157243Y188029D01*
X157086Y188108D01*
X156813Y188392D01*
X156884Y188927D01*
X156795Y189600D01*
X156535Y190227D01*
X156122Y190765D01*
X155584Y191179D01*
X154956Y191438D01*
X154283Y191527D01*
X153611Y191438D01*
X152983Y191179D01*
X152445Y190765D01*
X152032Y190227D01*
X151772Y189600D01*
X151683Y188927D01*
X151772Y188254D01*
X152032Y187627D01*
X152445Y187088D01*
X152983Y186675D01*
X153611Y186415D01*
X154283Y186327D01*
X154956Y186415D01*
X155017Y186440D01*
X155174Y186361D01*
X155447Y186077D01*
X155377Y185543D01*
X155465Y184870D01*
X155725Y184242D01*
X156138Y183704D01*
X156677Y183291D01*
X157304Y183031D01*
X157977Y182942D01*
X158321Y182988D01*
X158821Y182597D01*
Y179199D01*
X158360Y179007D01*
X131392Y205975D01*
Y215835D01*
X134623Y219067D01*
X138581D01*
X138661Y218961D01*
D02*
G37*
G36*
X215562Y205487D02*
Y178562D01*
X207883Y170883D01*
X204840D01*
X204741Y171383D01*
X204859Y171432D01*
X205398Y171845D01*
X205811Y172384D01*
X206071Y173011D01*
X206159Y173684D01*
X206087Y174236D01*
X206159Y174309D01*
X206535Y174871D01*
X206667Y175534D01*
Y197246D01*
X215100Y205679D01*
X215562Y205487D01*
D02*
G37*
G36*
X233619Y148730D02*
Y144751D01*
X233119Y144360D01*
X232774Y144405D01*
X232101Y144316D01*
X231474Y144056D01*
X230936Y143643D01*
X230523Y143105D01*
X230411Y142836D01*
X223337Y135762D01*
X222962Y135200D01*
X222830Y134537D01*
Y134202D01*
X222330Y133868D01*
X222068Y133976D01*
X221395Y134065D01*
X220722Y133976D01*
X220095Y133716D01*
X219556Y133303D01*
X219476Y133198D01*
X216346D01*
X199718Y149826D01*
Y153516D01*
X199586Y154179D01*
X199210Y154741D01*
X197000Y156951D01*
X196438Y157327D01*
X196402Y157334D01*
X196451Y157834D01*
X224515D01*
X233619Y148730D01*
D02*
G37*
G36*
X188595Y149313D02*
X188542Y149185D01*
X188453Y148512D01*
X188542Y147839D01*
X188802Y147212D01*
X189215Y146673D01*
X189320Y146592D01*
Y134946D01*
X188820Y134707D01*
X188340Y134906D01*
X187667Y134995D01*
X186994Y134906D01*
X186834Y134840D01*
X186418Y135118D01*
Y147843D01*
X188171Y149596D01*
X188595Y149313D01*
D02*
G37*
G36*
X186988Y120635D02*
X187248Y120008D01*
X187661Y119469D01*
X188200Y119056D01*
X188827Y118796D01*
X188953Y118780D01*
Y86422D01*
X189085Y85759D01*
X189460Y85197D01*
X195942Y78715D01*
X195751Y78253D01*
X192249D01*
X191919Y78629D01*
X191929Y78705D01*
X191840Y79378D01*
X191581Y80005D01*
X191167Y80543D01*
X190629Y80957D01*
X190002Y81216D01*
X189329Y81305D01*
X188656Y81216D01*
X188029Y80957D01*
X187490Y80543D01*
X187077Y80005D01*
X186817Y79378D01*
X186729Y78705D01*
X186817Y78032D01*
X187077Y77405D01*
X187490Y76866D01*
X188029Y76453D01*
X188656Y76193D01*
X189329Y76104D01*
X189571Y76136D01*
X189947Y75807D01*
Y69947D01*
X196837D01*
X197028Y69485D01*
X195971Y68428D01*
X195596Y67866D01*
X195528Y67527D01*
X194993Y67402D01*
X194867Y67567D01*
X194042Y68200D01*
X193081Y68598D01*
X192050Y68734D01*
X191019Y68598D01*
X190058Y68200D01*
X189233Y67567D01*
X188600Y66742D01*
X188202Y65781D01*
X188066Y64750D01*
Y63250D01*
X188202Y62219D01*
X188600Y61258D01*
X189233Y60433D01*
X190058Y59800D01*
X191019Y59402D01*
X192050Y59266D01*
X193081Y59402D01*
X194042Y59800D01*
X194867Y60433D01*
X194990Y60593D01*
X195464Y60432D01*
Y58772D01*
X195596Y58109D01*
X195971Y57546D01*
X198130Y55388D01*
X198004Y55084D01*
X197861Y54000D01*
X198004Y52916D01*
X198423Y51906D01*
X198691Y51556D01*
X198470Y51107D01*
X195630D01*
X195409Y51556D01*
X195677Y51906D01*
X196096Y52916D01*
X196239Y54000D01*
X196096Y55084D01*
X195677Y56094D01*
X195012Y56962D01*
X194144Y57627D01*
X193134Y58046D01*
X192050Y58189D01*
X190966Y58046D01*
X189956Y57627D01*
X189088Y56962D01*
X188423Y56094D01*
X188004Y55084D01*
X187861Y54000D01*
X188004Y52916D01*
X188423Y51906D01*
X188691Y51556D01*
X188470Y51107D01*
X185630D01*
X185409Y51556D01*
X185677Y51906D01*
X186096Y52916D01*
X186239Y54000D01*
X186096Y55084D01*
X185677Y56094D01*
X185012Y56962D01*
X184144Y57627D01*
X183134Y58046D01*
X182050Y58189D01*
X180966Y58046D01*
X179956Y57627D01*
X179088Y56962D01*
X178511Y56210D01*
X178011Y56344D01*
Y75273D01*
X184211Y81472D01*
X184586Y82034D01*
X184718Y82698D01*
X184718Y82698D01*
Y120576D01*
X184764Y120607D01*
X185218Y120836D01*
X185798Y120759D01*
X186456Y120846D01*
X186608Y120855D01*
X186988Y120635D01*
D02*
G37*
G36*
X219828Y103383D02*
X219794Y103124D01*
X219882Y102451D01*
X220142Y101824D01*
X220555Y101286D01*
X221094Y100872D01*
X221721Y100613D01*
X222394Y100524D01*
X222738Y100569D01*
X223238Y100178D01*
Y97446D01*
X218612Y92819D01*
X218236Y92257D01*
X218104Y91594D01*
Y71549D01*
X217549Y70994D01*
X217125Y71277D01*
X217312Y71727D01*
X217400Y72400D01*
X217312Y73073D01*
X217052Y73700D01*
X216639Y74239D01*
X216100Y74652D01*
X215473Y74912D01*
X214800Y75000D01*
X214668Y74983D01*
X204442Y85209D01*
Y91141D01*
X204942Y91222D01*
X205788Y90192D01*
X206900Y89279D01*
X208168Y88601D01*
X209545Y88183D01*
X210976Y88042D01*
X212408Y88183D01*
X213784Y88601D01*
X215053Y89279D01*
X216165Y90192D01*
X217077Y91303D01*
X217756Y92572D01*
X218173Y93949D01*
X218314Y95380D01*
X218173Y96811D01*
X217756Y98188D01*
X217077Y99457D01*
X216165Y100568D01*
X215053Y101481D01*
X213784Y102159D01*
X212408Y102577D01*
X210976Y102718D01*
X209545Y102577D01*
X208168Y102159D01*
X206900Y101481D01*
X205788Y100568D01*
X204942Y99538D01*
X204442Y99619D01*
Y100467D01*
X204785Y100810D01*
X205160Y101372D01*
X205292Y102035D01*
Y117211D01*
X205792Y117419D01*
X219828Y103383D01*
D02*
G37*
G36*
X195716Y109159D02*
X195813Y109061D01*
X196008Y108648D01*
X195811Y108173D01*
X195723Y107500D01*
X195811Y106827D01*
X196071Y106200D01*
X196484Y105661D01*
X196590Y105581D01*
Y86027D01*
X196128Y85836D01*
X194900Y87063D01*
Y108671D01*
X195424Y109195D01*
X195716Y109159D01*
D02*
G37*
%LPC*%
G36*
X200547Y360233D02*
X192000D01*
X191337Y360101D01*
X190774Y359726D01*
X188445Y357396D01*
X188084Y357546D01*
X187000Y357689D01*
X185916Y357546D01*
X184906Y357127D01*
X184038Y356462D01*
X183373Y355594D01*
X182954Y354584D01*
X182811Y353500D01*
X182954Y352416D01*
X183373Y351406D01*
X183668Y351020D01*
X183447Y350572D01*
X182379D01*
X180896Y352055D01*
X181046Y352416D01*
X181189Y353500D01*
X181046Y354584D01*
X180627Y355594D01*
X179962Y356462D01*
X179094Y357127D01*
X178084Y357546D01*
X177000Y357689D01*
X175916Y357546D01*
X174906Y357127D01*
X174038Y356462D01*
X173373Y355594D01*
X172954Y354584D01*
X172811Y353500D01*
X172954Y352416D01*
X173373Y351406D01*
X174038Y350538D01*
X174906Y349873D01*
X175916Y349454D01*
X176541Y349372D01*
X176508Y348872D01*
X173745D01*
X170798Y351818D01*
X171046Y352416D01*
X171189Y353500D01*
X171046Y354584D01*
X170627Y355594D01*
X169962Y356462D01*
X169094Y357127D01*
X168084Y357546D01*
X167000Y357689D01*
X165916Y357546D01*
X164906Y357127D01*
X164038Y356462D01*
X163373Y355594D01*
X162954Y354584D01*
X162811Y353500D01*
X162954Y352416D01*
X163373Y351406D01*
X164038Y350538D01*
X164906Y349873D01*
X165916Y349454D01*
X167000Y349311D01*
X168084Y349454D01*
X168208Y349506D01*
X170219Y347495D01*
X170027Y347033D01*
X162418D01*
X159636Y349815D01*
X159669Y350314D01*
X159962Y350538D01*
X160627Y351406D01*
X161046Y352416D01*
X161189Y353500D01*
X161046Y354584D01*
X160627Y355594D01*
X159962Y356462D01*
X159094Y357127D01*
X158084Y357546D01*
X157000Y357689D01*
X155916Y357546D01*
X154906Y357127D01*
X154038Y356462D01*
X153373Y355594D01*
X152954Y354584D01*
X152811Y353500D01*
X152954Y352416D01*
X153373Y351406D01*
X154038Y350538D01*
X154906Y349873D01*
X155327Y349698D01*
X155399Y349337D01*
X155774Y348774D01*
X158943Y345605D01*
X158752Y345143D01*
X152347D01*
X148733Y348757D01*
Y349723D01*
X149094Y349873D01*
X149962Y350538D01*
X150627Y351406D01*
X151046Y352416D01*
X151189Y353500D01*
X151046Y354584D01*
X150627Y355594D01*
X149962Y356462D01*
X149094Y357127D01*
X148084Y357546D01*
X147000Y357689D01*
X145916Y357546D01*
X144906Y357127D01*
X144038Y356462D01*
X143373Y355594D01*
X142954Y354584D01*
X142811Y353500D01*
X142954Y352416D01*
X143373Y351406D01*
X144038Y350538D01*
X144906Y349873D01*
X145267Y349723D01*
Y348039D01*
X145399Y347376D01*
X145774Y346814D01*
X148995Y343593D01*
X148803Y343131D01*
X144320D01*
X138733Y348718D01*
Y349723D01*
X139094Y349873D01*
X139962Y350538D01*
X140627Y351406D01*
X141046Y352416D01*
X141189Y353500D01*
X141046Y354584D01*
X140627Y355594D01*
X139962Y356462D01*
X139094Y357127D01*
X138084Y357546D01*
X137000Y357689D01*
X135916Y357546D01*
X134906Y357127D01*
X134038Y356462D01*
X133373Y355594D01*
X132954Y354584D01*
X132811Y353500D01*
X132954Y352416D01*
X133373Y351406D01*
X134038Y350538D01*
X134906Y349873D01*
X135267Y349723D01*
Y348000D01*
X135399Y347337D01*
X135774Y346774D01*
X137385Y345163D01*
X137195Y344647D01*
X136700Y344442D01*
X136161Y344029D01*
X135748Y343490D01*
X135488Y342863D01*
X135400Y342190D01*
X135460Y341733D01*
X135119Y341233D01*
X134218D01*
X128733Y346718D01*
Y349723D01*
X129094Y349873D01*
X129962Y350538D01*
X130627Y351406D01*
X131046Y352416D01*
X131189Y353500D01*
X131046Y354584D01*
X130627Y355594D01*
X129962Y356462D01*
X129094Y357127D01*
X128084Y357546D01*
X127000Y357689D01*
X125916Y357546D01*
X124906Y357127D01*
X124038Y356462D01*
X123373Y355594D01*
X122954Y354584D01*
X122811Y353500D01*
X122954Y352416D01*
X123373Y351406D01*
X124038Y350538D01*
X124906Y349873D01*
X125267Y349723D01*
Y348338D01*
X124805Y348147D01*
X120896Y352055D01*
X121046Y352416D01*
X121189Y353500D01*
X121046Y354584D01*
X120627Y355594D01*
X119962Y356462D01*
X119094Y357127D01*
X118084Y357546D01*
X117000Y357689D01*
X115916Y357546D01*
X114906Y357127D01*
X114038Y356462D01*
X113373Y355594D01*
X112954Y354584D01*
X112811Y353500D01*
X112954Y352416D01*
X113373Y351406D01*
X114038Y350538D01*
X114906Y349873D01*
X115916Y349454D01*
X117000Y349311D01*
X118084Y349454D01*
X118445Y349604D01*
X128566Y339483D01*
X128300Y339076D01*
X127673Y339336D01*
X127000Y339424D01*
X126327Y339336D01*
X125700Y339076D01*
X125161Y338663D01*
X124748Y338124D01*
X124488Y337497D01*
X124400Y336824D01*
X124488Y336151D01*
X124748Y335524D01*
X125161Y334985D01*
X125700Y334572D01*
X126327Y334313D01*
X127000Y334224D01*
X127673Y334313D01*
X128300Y334572D01*
X128839Y334985D01*
X129252Y335524D01*
X129512Y336151D01*
X129600Y336824D01*
X129512Y337497D01*
X129252Y338124D01*
X129659Y338390D01*
X131538Y336510D01*
X132101Y336135D01*
X132764Y336003D01*
X145229D01*
X145329Y335503D01*
X144906Y335327D01*
X144038Y334662D01*
X143373Y333794D01*
X142954Y332784D01*
X142811Y331700D01*
X142954Y330616D01*
X143373Y329606D01*
X144038Y328738D01*
X144906Y328073D01*
X145916Y327654D01*
X147000Y327511D01*
X148084Y327654D01*
X149094Y328073D01*
X149962Y328738D01*
X150627Y329606D01*
X151046Y330616D01*
X151189Y331700D01*
X151046Y332784D01*
X150627Y333794D01*
X149962Y334662D01*
X149094Y335327D01*
X148671Y335503D01*
X148771Y336003D01*
X155229D01*
X155329Y335503D01*
X154906Y335327D01*
X154038Y334662D01*
X153373Y333794D01*
X152954Y332784D01*
X152811Y331700D01*
X152954Y330616D01*
X153373Y329606D01*
X154038Y328738D01*
X154906Y328073D01*
X155916Y327654D01*
X157000Y327511D01*
X158084Y327654D01*
X159094Y328073D01*
X159962Y328738D01*
X160627Y329606D01*
X161046Y330616D01*
X161189Y331700D01*
X161046Y332784D01*
X160627Y333794D01*
X159962Y334662D01*
X159094Y335327D01*
X158671Y335503D01*
X158771Y336003D01*
X165229D01*
X165329Y335503D01*
X164906Y335327D01*
X164038Y334662D01*
X163373Y333794D01*
X162954Y332784D01*
X162811Y331700D01*
X162954Y330616D01*
X163373Y329606D01*
X164038Y328738D01*
X164906Y328073D01*
X165916Y327654D01*
X167000Y327511D01*
X168084Y327654D01*
X169094Y328073D01*
X169962Y328738D01*
X170627Y329606D01*
X171046Y330616D01*
X171189Y331700D01*
X171046Y332784D01*
X170627Y333794D01*
X169962Y334662D01*
X169094Y335327D01*
X168671Y335503D01*
X168771Y336003D01*
X175229D01*
X175329Y335503D01*
X174906Y335327D01*
X174038Y334662D01*
X173373Y333794D01*
X172954Y332784D01*
X172811Y331700D01*
X172954Y330616D01*
X173373Y329606D01*
X174038Y328738D01*
X174906Y328073D01*
X175916Y327654D01*
X177000Y327511D01*
X178084Y327654D01*
X179094Y328073D01*
X179962Y328738D01*
X180627Y329606D01*
X181046Y330616D01*
X181189Y331700D01*
X181046Y332784D01*
X180627Y333794D01*
X179962Y334662D01*
X179094Y335327D01*
X178671Y335503D01*
X178771Y336003D01*
X191920D01*
Y319352D01*
X175974Y303406D01*
X175841Y303207D01*
X175344Y303158D01*
X174581Y303922D01*
Y317751D01*
X174581Y317751D01*
X174449Y318414D01*
X174073Y318976D01*
X174073Y318976D01*
X171149Y321900D01*
X171046Y322684D01*
X170627Y323694D01*
X169962Y324562D01*
X169094Y325227D01*
X168084Y325646D01*
X167000Y325789D01*
X165916Y325646D01*
X164906Y325227D01*
X164038Y324562D01*
X163373Y323694D01*
X162954Y322684D01*
X162811Y321600D01*
X162954Y320516D01*
X163066Y320246D01*
X162642Y319963D01*
X161167Y321438D01*
X161189Y321600D01*
X161046Y322684D01*
X160627Y323694D01*
X159962Y324562D01*
X159094Y325227D01*
X158084Y325646D01*
X157000Y325789D01*
X155916Y325646D01*
X154906Y325227D01*
X154038Y324562D01*
X153373Y323694D01*
X152954Y322684D01*
X152811Y321600D01*
X152954Y320516D01*
X153373Y319506D01*
X154038Y318638D01*
X154906Y317973D01*
X155916Y317554D01*
X157000Y317411D01*
X158084Y317554D01*
X159094Y317973D01*
X159454Y318249D01*
X159967Y317736D01*
Y315188D01*
X159467Y314942D01*
X159094Y315227D01*
X158084Y315646D01*
X157000Y315789D01*
X155916Y315646D01*
X154906Y315227D01*
X154038Y314562D01*
X153373Y313694D01*
X152954Y312684D01*
X152811Y311600D01*
X152954Y310516D01*
X153373Y309506D01*
X154038Y308638D01*
X154906Y307973D01*
X155916Y307554D01*
X157000Y307411D01*
X158084Y307554D01*
X159094Y307973D01*
X159577Y308343D01*
X159735Y308325D01*
X160174Y308171D01*
X160474Y307722D01*
X171932Y296265D01*
Y254540D01*
X161738Y244346D01*
X161362Y243784D01*
X161231Y243121D01*
Y237064D01*
X161362Y236401D01*
X161738Y235838D01*
X177463Y220113D01*
X178026Y219737D01*
X178689Y219605D01*
X198219D01*
X203197Y214628D01*
X203179Y214496D01*
X203268Y213823D01*
X203460Y213359D01*
X203200Y213252D01*
X202661Y212839D01*
X202248Y212300D01*
X201988Y211673D01*
X201900Y211000D01*
X201988Y210327D01*
X202248Y209700D01*
X202661Y209161D01*
X203200Y208748D01*
X203827Y208488D01*
X204282Y208429D01*
X204374Y208216D01*
X204397Y207909D01*
X203941Y207559D01*
X203840Y207428D01*
X203487D01*
X202949Y207841D01*
X202322Y208101D01*
X201649Y208189D01*
X200976Y208101D01*
X200349Y207841D01*
X199810Y207428D01*
X199397Y206889D01*
X199137Y206262D01*
X199048Y205589D01*
X199137Y204916D01*
X199397Y204289D01*
X199810Y203750D01*
X200349Y203337D01*
X200976Y203077D01*
X201649Y202989D01*
X202322Y203077D01*
X202949Y203337D01*
X203487Y203750D01*
X203588Y203882D01*
X203941D01*
X204479Y203469D01*
X205107Y203209D01*
X205780Y203120D01*
X206452Y203209D01*
X207080Y203469D01*
X207618Y203882D01*
X208031Y204420D01*
X208291Y205047D01*
X208380Y205720D01*
X208291Y206393D01*
X208256Y206479D01*
X208639Y206861D01*
X208729Y206824D01*
X209402Y206735D01*
X210075Y206824D01*
X210702Y207084D01*
X211240Y207497D01*
X211653Y208036D01*
X211913Y208663D01*
X212002Y209336D01*
X211913Y210009D01*
X211653Y210636D01*
X211240Y211174D01*
X210702Y211588D01*
X210075Y211847D01*
X209402Y211936D01*
X208729Y211847D01*
X208102Y211588D01*
X207580Y211187D01*
X207493Y211196D01*
X207056Y211335D01*
X207012Y211673D01*
X206820Y212136D01*
X207080Y212244D01*
X207618Y212657D01*
X207995Y213149D01*
X208418Y212974D01*
X209091Y212885D01*
X209764Y212974D01*
X210391Y213233D01*
X210929Y213647D01*
X211343Y214185D01*
X211602Y214812D01*
X211691Y215485D01*
X211602Y216158D01*
X211343Y216785D01*
X210929Y217324D01*
X210391Y217737D01*
X209764Y217997D01*
X209091Y218085D01*
X208959Y218068D01*
X202313Y224714D01*
X201751Y225090D01*
X201088Y225222D01*
X179662D01*
X170910Y233973D01*
X171144Y234447D01*
X171500Y234400D01*
X172173Y234488D01*
X172800Y234748D01*
X173339Y235161D01*
X173752Y235700D01*
X174012Y236327D01*
X174100Y237000D01*
X174012Y237673D01*
X173898Y237948D01*
X174173Y238488D01*
X174179Y238491D01*
X174800Y238748D01*
X175090Y238971D01*
X175173Y238862D01*
X175712Y238449D01*
X176339Y238189D01*
X177012Y238101D01*
X177685Y238189D01*
X178312Y238449D01*
X178850Y238862D01*
X179264Y239401D01*
X179524Y240028D01*
X179575Y240419D01*
X179649Y240501D01*
X180077Y240715D01*
X180094Y240716D01*
X180537Y240532D01*
X181210Y240444D01*
X181883Y240532D01*
X182510Y240792D01*
X183049Y241205D01*
X183462Y241744D01*
X183722Y242371D01*
X183810Y243044D01*
X183722Y243717D01*
X183462Y244344D01*
X183049Y244882D01*
X182944Y244963D01*
Y247780D01*
X183526Y248362D01*
X183901Y248924D01*
X184033Y249587D01*
Y255023D01*
X184495Y255214D01*
X186193Y253517D01*
Y229547D01*
X186186Y229531D01*
X186097Y228857D01*
X186186Y228185D01*
X186445Y227557D01*
X186859Y227019D01*
X187397Y226606D01*
X188024Y226346D01*
X188697Y226257D01*
X189370Y226346D01*
X189997Y226606D01*
X190536Y227019D01*
X190949Y227557D01*
X191033Y227761D01*
X191642Y227924D01*
X191763Y227831D01*
X192390Y227571D01*
X193063Y227483D01*
X193736Y227571D01*
X194363Y227831D01*
X194902Y228244D01*
X195315Y228783D01*
X195575Y229410D01*
X195663Y230083D01*
X195575Y230756D01*
X195315Y231383D01*
X194902Y231921D01*
X194363Y232334D01*
X193736Y232594D01*
X193063Y232683D01*
X192390Y232594D01*
X191763Y232334D01*
X191224Y231921D01*
X190811Y231383D01*
X190727Y231180D01*
X190118Y231016D01*
X189997Y231109D01*
X189659Y231249D01*
Y244460D01*
X190159Y244851D01*
X190504Y244805D01*
X191177Y244894D01*
X191804Y245154D01*
X192343Y245567D01*
X192756Y246105D01*
X192869Y246380D01*
X193369Y246281D01*
Y244939D01*
X192764Y244334D01*
X192747Y244309D01*
X192353Y244145D01*
X191815Y243732D01*
X191402Y243194D01*
X191142Y242567D01*
X191053Y241894D01*
X191142Y241221D01*
X191402Y240594D01*
X191815Y240055D01*
X192353Y239642D01*
X192981Y239382D01*
X193654Y239294D01*
X194326Y239382D01*
X194954Y239642D01*
X195492Y240055D01*
X195905Y240594D01*
X196165Y241221D01*
X196254Y241894D01*
X196165Y242567D01*
X196087Y242755D01*
X196328Y242996D01*
X196460Y243192D01*
X196750Y243544D01*
X197166Y243418D01*
X197405Y243319D01*
X198078Y243230D01*
X198751Y243319D01*
X199378Y243579D01*
X199917Y243992D01*
X200330Y244530D01*
X200590Y245157D01*
X200678Y245830D01*
X200590Y246503D01*
X200330Y247130D01*
X199917Y247669D01*
X199378Y248082D01*
X198751Y248342D01*
X198536Y248370D01*
Y304237D01*
X206779Y312479D01*
X206779Y312479D01*
X207155Y313042D01*
X207287Y313705D01*
X207287Y313705D01*
Y346947D01*
X207155Y347610D01*
X206779Y348172D01*
X203895Y351056D01*
Y356885D01*
X203764Y357548D01*
X203388Y358110D01*
X201772Y359726D01*
X201210Y360101D01*
X200547Y360233D01*
D02*
G37*
G36*
X101153Y357653D02*
X92847D01*
Y349347D01*
X101153D01*
Y357653D01*
D02*
G37*
G36*
X107000Y357689D02*
X105916Y357546D01*
X104906Y357127D01*
X104038Y356462D01*
X103373Y355594D01*
X102954Y354584D01*
X102811Y353500D01*
X102954Y352416D01*
X103373Y351406D01*
X104038Y350538D01*
X104906Y349873D01*
X105916Y349454D01*
X107000Y349311D01*
X108084Y349454D01*
X109094Y349873D01*
X109962Y350538D01*
X110627Y351406D01*
X111046Y352416D01*
X111189Y353500D01*
X111046Y354584D01*
X110627Y355594D01*
X109962Y356462D01*
X109094Y357127D01*
X108084Y357546D01*
X107000Y357689D01*
D02*
G37*
G36*
X250430Y350748D02*
X248998Y350607D01*
X247622Y350189D01*
X246353Y349511D01*
X245241Y348599D01*
X244329Y347487D01*
X243651Y346218D01*
X243233Y344842D01*
X243092Y343410D01*
X243233Y341979D01*
X243651Y340602D01*
X244329Y339333D01*
X245241Y338222D01*
X246353Y337309D01*
X247622Y336631D01*
X248998Y336213D01*
X250430Y336072D01*
X251862Y336213D01*
X253238Y336631D01*
X254507Y337309D01*
X255619Y338222D01*
X256531Y339333D01*
X257209Y340602D01*
X257627Y341979D01*
X257768Y343410D01*
X257627Y344842D01*
X257209Y346218D01*
X256531Y347487D01*
X255619Y348599D01*
X254507Y349511D01*
X253238Y350189D01*
X251862Y350607D01*
X250430Y350748D01*
D02*
G37*
G36*
X53570D02*
X52139Y350607D01*
X50762Y350189D01*
X49493Y349511D01*
X48382Y348599D01*
X47469Y347487D01*
X46791Y346218D01*
X46373Y344842D01*
X46232Y343410D01*
X46373Y341979D01*
X46791Y340602D01*
X47469Y339333D01*
X48382Y338222D01*
X49493Y337309D01*
X50762Y336631D01*
X52139Y336213D01*
X53570Y336072D01*
X55001Y336213D01*
X56378Y336631D01*
X57647Y337309D01*
X58758Y338222D01*
X59671Y339333D01*
X60349Y340602D01*
X60767Y341979D01*
X60908Y343410D01*
X60767Y344842D01*
X60349Y346218D01*
X59671Y347487D01*
X58758Y348599D01*
X57647Y349511D01*
X56378Y350189D01*
X55001Y350607D01*
X53570Y350748D01*
D02*
G37*
G36*
X147000Y325789D02*
X145916Y325646D01*
X144906Y325227D01*
X144038Y324562D01*
X143373Y323694D01*
X142954Y322684D01*
X142811Y321600D01*
X142954Y320516D01*
X143373Y319506D01*
X144038Y318638D01*
X144906Y317973D01*
X145916Y317554D01*
X147000Y317411D01*
X148084Y317554D01*
X149094Y317973D01*
X149962Y318638D01*
X150627Y319506D01*
X151046Y320516D01*
X151189Y321600D01*
X151046Y322684D01*
X150627Y323694D01*
X149962Y324562D01*
X149094Y325227D01*
X148084Y325646D01*
X147000Y325789D01*
D02*
G37*
G36*
X250430Y323189D02*
X248998Y323048D01*
X247622Y322630D01*
X246353Y321952D01*
X245241Y321040D01*
X244329Y319928D01*
X243651Y318659D01*
X243233Y317283D01*
X243092Y315851D01*
X243233Y314419D01*
X243651Y313043D01*
X244329Y311774D01*
X245241Y310662D01*
X246353Y309750D01*
X247622Y309072D01*
X248998Y308654D01*
X250430Y308513D01*
X251862Y308654D01*
X253238Y309072D01*
X254507Y309750D01*
X255619Y310662D01*
X256531Y311774D01*
X257209Y313043D01*
X257627Y314419D01*
X257768Y315851D01*
X257627Y317283D01*
X257209Y318659D01*
X256531Y319928D01*
X255619Y321040D01*
X254507Y321952D01*
X253238Y322630D01*
X251862Y323048D01*
X250430Y323189D01*
D02*
G37*
G36*
X53570D02*
X52139Y323048D01*
X50762Y322630D01*
X49493Y321952D01*
X48382Y321040D01*
X47469Y319928D01*
X46791Y318659D01*
X46373Y317283D01*
X46232Y315851D01*
X46373Y314419D01*
X46791Y313043D01*
X47469Y311774D01*
X48382Y310662D01*
X49493Y309750D01*
X50762Y309072D01*
X52139Y308654D01*
X53570Y308513D01*
X55001Y308654D01*
X56378Y309072D01*
X57647Y309750D01*
X58758Y310662D01*
X59671Y311774D01*
X60349Y313043D01*
X60767Y314419D01*
X60908Y315851D01*
X60767Y317283D01*
X60349Y318659D01*
X59671Y319928D01*
X58758Y321040D01*
X57647Y321952D01*
X56378Y322630D01*
X55001Y323048D01*
X53570Y323189D01*
D02*
G37*
G36*
X147000Y315789D02*
X145916Y315646D01*
X144906Y315227D01*
X144038Y314562D01*
X143373Y313694D01*
X142954Y312684D01*
X142811Y311600D01*
X142954Y310516D01*
X143373Y309506D01*
X144038Y308638D01*
X144906Y307973D01*
X145916Y307554D01*
X147000Y307411D01*
X148084Y307554D01*
X149094Y307973D01*
X149962Y308638D01*
X150627Y309506D01*
X151046Y310516D01*
X151189Y311600D01*
X151046Y312684D01*
X150627Y313694D01*
X149962Y314562D01*
X149094Y315227D01*
X148084Y315646D01*
X147000Y315789D01*
D02*
G37*
G36*
X108768Y289329D02*
X107684Y289186D01*
X106674Y288768D01*
X105806Y288102D01*
X105140Y287235D01*
X104722Y286225D01*
X104579Y285140D01*
X104722Y284056D01*
X105140Y283046D01*
X105806Y282179D01*
X106674Y281513D01*
X107684Y281095D01*
X108768Y280952D01*
X109852Y281095D01*
X110862Y281513D01*
X111730Y282179D01*
X112395Y283046D01*
X112814Y284056D01*
X112956Y285140D01*
X112814Y286225D01*
X112395Y287235D01*
X111730Y288102D01*
X110862Y288768D01*
X109852Y289186D01*
X108768Y289329D01*
D02*
G37*
G36*
X83811Y289770D02*
X83138Y289681D01*
X82511Y289421D01*
X81972Y289008D01*
X81559Y288469D01*
X81299Y287842D01*
X81211Y287169D01*
X81299Y286496D01*
X81559Y285869D01*
X81972Y285331D01*
X82082Y285247D01*
Y284747D01*
X81972Y284663D01*
X81559Y284125D01*
X81299Y283498D01*
X81211Y282825D01*
X81299Y282152D01*
X81559Y281524D01*
X81851Y281144D01*
X81559Y280765D01*
X81299Y280137D01*
X81211Y279465D01*
X81299Y278791D01*
X81559Y278164D01*
X81972Y277626D01*
X82511Y277213D01*
X83138Y276953D01*
X83811Y276864D01*
X84484Y276953D01*
X85111Y277213D01*
X85650Y277626D01*
X86063Y278164D01*
X86323Y278791D01*
X86411Y279465D01*
X86323Y280137D01*
X86063Y280765D01*
X85771Y281144D01*
X86063Y281524D01*
X86323Y282152D01*
X86411Y282825D01*
X86323Y283498D01*
X86063Y284125D01*
X85650Y284663D01*
X85540Y284747D01*
Y285247D01*
X85650Y285331D01*
X86063Y285869D01*
X86323Y286496D01*
X86411Y287169D01*
X86323Y287842D01*
X86063Y288469D01*
X85650Y289008D01*
X85111Y289421D01*
X84484Y289681D01*
X83811Y289770D01*
D02*
G37*
G36*
X38811Y290947D02*
X37379Y290806D01*
X36003Y290388D01*
X34734Y289710D01*
X33622Y288797D01*
X32710Y287685D01*
X32032Y286417D01*
X31614Y285040D01*
X31473Y283609D01*
X31614Y282177D01*
X32032Y280801D01*
X32710Y279532D01*
X33622Y278420D01*
X34734Y277508D01*
X36003Y276830D01*
X37379Y276412D01*
X38811Y276271D01*
X40242Y276412D01*
X41619Y276830D01*
X42887Y277508D01*
X43999Y278420D01*
X44912Y279532D01*
X45590Y280801D01*
X46007Y282177D01*
X46148Y283609D01*
X46007Y285040D01*
X45590Y286417D01*
X44912Y287685D01*
X43999Y288797D01*
X42887Y289710D01*
X41619Y290388D01*
X40242Y290806D01*
X38811Y290947D01*
D02*
G37*
G36*
X101697Y283942D02*
X95824Y278069D01*
X101697Y272196D01*
X107570Y278069D01*
X101697Y283942D01*
D02*
G37*
G36*
X115839Y296400D02*
X114755Y296257D01*
X113745Y295839D01*
X112877Y295173D01*
X112212Y294306D01*
X111793Y293296D01*
X111650Y292212D01*
X111793Y291127D01*
X112212Y290117D01*
X112877Y289250D01*
X113745Y288584D01*
X114106Y288435D01*
Y280010D01*
X103084Y268988D01*
X94985D01*
X94904Y269093D01*
X94366Y269507D01*
X93738Y269766D01*
X93065Y269855D01*
X92392Y269766D01*
X91765Y269507D01*
X91227Y269093D01*
X90813Y268555D01*
X90554Y267928D01*
X90465Y267255D01*
X90554Y266582D01*
X90813Y265955D01*
X91227Y265416D01*
X91765Y265003D01*
X92392Y264743D01*
X93065Y264655D01*
X93738Y264743D01*
X94366Y265003D01*
X94904Y265416D01*
X94985Y265522D01*
X103802D01*
X104465Y265653D01*
X105028Y266029D01*
X117065Y278066D01*
X117440Y278628D01*
X117572Y279292D01*
X117572Y279292D01*
Y288435D01*
X117933Y288584D01*
X118801Y289250D01*
X119466Y290117D01*
X119885Y291127D01*
X120027Y292212D01*
X119885Y293296D01*
X119466Y294306D01*
X118801Y295173D01*
X117933Y295839D01*
X116923Y296257D01*
X115839Y296400D01*
D02*
G37*
G36*
X256921Y268117D02*
X256248Y268028D01*
X255621Y267769D01*
X255083Y267355D01*
X254670Y266817D01*
X254410Y266190D01*
X254321Y265517D01*
X254410Y264844D01*
X254670Y264216D01*
X255083Y263678D01*
X255621Y263265D01*
X256248Y263005D01*
X256921Y262916D01*
X257594Y263005D01*
X258222Y263265D01*
X258760Y263678D01*
X259173Y264216D01*
X259433Y264844D01*
X259522Y265517D01*
X259433Y266190D01*
X259173Y266817D01*
X258760Y267355D01*
X258222Y267769D01*
X257594Y268028D01*
X256921Y268117D01*
D02*
G37*
G36*
X238142Y266541D02*
X237469Y266453D01*
X236842Y266193D01*
X236303Y265780D01*
X235890Y265241D01*
X235630Y264614D01*
X235542Y263941D01*
X235630Y263268D01*
X235890Y262641D01*
X236303Y262102D01*
X236842Y261689D01*
X237469Y261429D01*
X238142Y261341D01*
X238815Y261429D01*
X239442Y261689D01*
X239980Y262102D01*
X240394Y262641D01*
X240653Y263268D01*
X240742Y263941D01*
X240653Y264614D01*
X240394Y265241D01*
X239980Y265780D01*
X239442Y266193D01*
X238815Y266453D01*
X238142Y266541D01*
D02*
G37*
G36*
X37653Y268653D02*
X29347D01*
Y260347D01*
X37653D01*
Y268653D01*
D02*
G37*
G36*
X43500Y268689D02*
X42416Y268546D01*
X41406Y268127D01*
X40538Y267462D01*
X39873Y266594D01*
X39454Y265584D01*
X39311Y264500D01*
X39454Y263416D01*
X39873Y262406D01*
X40538Y261538D01*
X41406Y260873D01*
X42416Y260454D01*
X43500Y260311D01*
X44584Y260454D01*
X45594Y260873D01*
X46462Y261538D01*
X47127Y262406D01*
X47546Y263416D01*
X47689Y264500D01*
X47546Y265584D01*
X47127Y266594D01*
X46462Y267462D01*
X45594Y268127D01*
X44584Y268546D01*
X43500Y268689D01*
D02*
G37*
G36*
X64835Y268624D02*
X62866D01*
X61782Y268481D01*
X60772Y268062D01*
X59904Y267397D01*
X59239Y266529D01*
X58820Y265519D01*
X58678Y264435D01*
X58820Y263351D01*
X59239Y262341D01*
X59904Y261473D01*
X60772Y260808D01*
X61782Y260389D01*
X62866Y260246D01*
X64835D01*
X65919Y260389D01*
X66929Y260808D01*
X67796Y261473D01*
X68213Y262017D01*
X68713Y261847D01*
Y260282D01*
X78987D01*
Y268588D01*
X68713D01*
Y267023D01*
X68213Y266853D01*
X67796Y267397D01*
X66929Y268062D01*
X65919Y268481D01*
X64835Y268624D01*
D02*
G37*
G36*
X74835Y258624D02*
X72866D01*
X71782Y258481D01*
X70772Y258063D01*
X69904Y257397D01*
X69239Y256529D01*
X69100Y256195D01*
X68600D01*
X68462Y256529D01*
X67796Y257397D01*
X66929Y258063D01*
X65919Y258481D01*
X64835Y258624D01*
X62866D01*
X61782Y258481D01*
X60772Y258063D01*
X59904Y257397D01*
X59239Y256529D01*
X58820Y255519D01*
X58678Y254435D01*
X58820Y253351D01*
X59239Y252341D01*
X59904Y251473D01*
X60772Y250808D01*
X61782Y250389D01*
X62866Y250247D01*
X64835D01*
X65919Y250389D01*
X66929Y250808D01*
X67796Y251473D01*
X68462Y252341D01*
X68600Y252675D01*
X69100D01*
X69239Y252341D01*
X69904Y251473D01*
X70772Y250808D01*
X71782Y250389D01*
X72866Y250247D01*
X74835D01*
X75919Y250389D01*
X76929Y250808D01*
X77796Y251473D01*
X78462Y252341D01*
X78881Y253351D01*
X79023Y254435D01*
X78881Y255519D01*
X78462Y256529D01*
X77796Y257397D01*
X76929Y258063D01*
X75919Y258481D01*
X74835Y258624D01*
D02*
G37*
G36*
X99953Y259061D02*
X99280Y258972D01*
X98653Y258713D01*
X98114Y258299D01*
X97701Y257761D01*
X97441Y257134D01*
X97353Y256461D01*
X97441Y255788D01*
X97701Y255160D01*
X98114Y254622D01*
X98653Y254209D01*
X99280Y253949D01*
X99953Y253860D01*
X100626Y253949D01*
X101253Y254209D01*
X101791Y254622D01*
X102205Y255160D01*
X102464Y255788D01*
X102553Y256461D01*
X102464Y257134D01*
X102205Y257761D01*
X101791Y258299D01*
X101253Y258713D01*
X100626Y258972D01*
X99953Y259061D01*
D02*
G37*
G36*
X43500Y258689D02*
X42416Y258546D01*
X41406Y258127D01*
X40538Y257462D01*
X39873Y256594D01*
X39454Y255584D01*
X39311Y254500D01*
X39454Y253416D01*
X39873Y252406D01*
X40538Y251538D01*
X41406Y250873D01*
X42416Y250454D01*
X43500Y250311D01*
X44584Y250454D01*
X45594Y250873D01*
X46462Y251538D01*
X47127Y252406D01*
X47546Y253416D01*
X47689Y254500D01*
X47546Y255584D01*
X47127Y256594D01*
X46462Y257462D01*
X45594Y258127D01*
X44584Y258546D01*
X43500Y258689D01*
D02*
G37*
G36*
X33500D02*
X32416Y258546D01*
X31406Y258127D01*
X30538Y257462D01*
X29873Y256594D01*
X29454Y255584D01*
X29311Y254500D01*
X29454Y253416D01*
X29873Y252406D01*
X30538Y251538D01*
X31406Y250873D01*
X32416Y250454D01*
X33500Y250311D01*
X34584Y250454D01*
X35594Y250873D01*
X36462Y251538D01*
X37127Y252406D01*
X37546Y253416D01*
X37689Y254500D01*
X37546Y255584D01*
X37127Y256594D01*
X36462Y257462D01*
X35594Y258127D01*
X34584Y258546D01*
X33500Y258689D01*
D02*
G37*
G36*
X274337Y251344D02*
X273664Y251256D01*
X273037Y250996D01*
X272498Y250583D01*
X272085Y250044D01*
X271825Y249417D01*
X271737Y248744D01*
X271825Y248071D01*
X272085Y247444D01*
X272498Y246905D01*
X273037Y246492D01*
X273664Y246233D01*
X274337Y246144D01*
X275010Y246233D01*
X275637Y246492D01*
X276175Y246905D01*
X276589Y247444D01*
X276848Y248071D01*
X276937Y248744D01*
X276848Y249417D01*
X276589Y250044D01*
X276175Y250583D01*
X275637Y250996D01*
X275010Y251256D01*
X274337Y251344D01*
D02*
G37*
G36*
X136000Y250221D02*
X135327Y250133D01*
X134700Y249873D01*
X134161Y249460D01*
X133748Y248921D01*
X133488Y248294D01*
X133400Y247621D01*
X133488Y246948D01*
X133748Y246321D01*
X134161Y245783D01*
X134700Y245369D01*
X135327Y245110D01*
X136000Y245021D01*
X136673Y245110D01*
X137300Y245369D01*
X137839Y245783D01*
X138252Y246321D01*
X138512Y246948D01*
X138600Y247621D01*
X138512Y248294D01*
X138252Y248921D01*
X137839Y249460D01*
X137300Y249873D01*
X136673Y250133D01*
X136000Y250221D01*
D02*
G37*
G36*
X33500Y248689D02*
X32416Y248546D01*
X31406Y248127D01*
X30538Y247462D01*
X29873Y246594D01*
X29454Y245584D01*
X29311Y244500D01*
X29454Y243416D01*
X29873Y242406D01*
X30538Y241538D01*
X31406Y240873D01*
X32416Y240454D01*
X33500Y240311D01*
X34584Y240454D01*
X35594Y240873D01*
X36462Y241538D01*
X37127Y242406D01*
X37546Y243416D01*
X37689Y244500D01*
X37546Y245584D01*
X37127Y246594D01*
X36462Y247462D01*
X35594Y248127D01*
X34584Y248546D01*
X33500Y248689D01*
D02*
G37*
G36*
X74835Y248624D02*
X72866D01*
X71782Y248481D01*
X70772Y248062D01*
X69904Y247397D01*
X69239Y246529D01*
X68820Y245519D01*
X68678Y244435D01*
X68820Y243351D01*
X69239Y242341D01*
X69904Y241473D01*
X70772Y240808D01*
X71782Y240389D01*
X72866Y240247D01*
X74835D01*
X75919Y240389D01*
X76929Y240808D01*
X77796Y241473D01*
X78462Y242341D01*
X78881Y243351D01*
X79023Y244435D01*
X78881Y245519D01*
X78462Y246529D01*
X77796Y247397D01*
X76929Y248062D01*
X75919Y248481D01*
X74835Y248624D01*
D02*
G37*
G36*
X277000Y241600D02*
X276327Y241512D01*
X275700Y241252D01*
X275161Y240839D01*
X274748Y240300D01*
X274488Y239673D01*
X274400Y239000D01*
X274488Y238327D01*
X274748Y237700D01*
X275161Y237161D01*
X275700Y236748D01*
X276327Y236488D01*
X277000Y236400D01*
X277673Y236488D01*
X278300Y236748D01*
X278839Y237161D01*
X279252Y237700D01*
X279512Y238327D01*
X279600Y239000D01*
X279512Y239673D01*
X279252Y240300D01*
X278839Y240839D01*
X278300Y241252D01*
X277673Y241512D01*
X277000Y241600D01*
D02*
G37*
G36*
X74835Y238624D02*
X72866D01*
X71782Y238481D01*
X70772Y238063D01*
X69904Y237397D01*
X69239Y236529D01*
X69100Y236195D01*
X68600D01*
X68462Y236529D01*
X67796Y237397D01*
X66929Y238063D01*
X65919Y238481D01*
X64835Y238624D01*
X62866D01*
X61782Y238481D01*
X60772Y238063D01*
X59904Y237397D01*
X59239Y236529D01*
X58820Y235519D01*
X58678Y234435D01*
X58820Y233351D01*
X59239Y232341D01*
X59904Y231473D01*
X60772Y230808D01*
X61782Y230389D01*
X62866Y230246D01*
X64835D01*
X65919Y230389D01*
X66929Y230808D01*
X67796Y231473D01*
X68462Y232341D01*
X68600Y232675D01*
X69100D01*
X69239Y232341D01*
X69904Y231473D01*
X70772Y230808D01*
X71782Y230389D01*
X72866Y230246D01*
X74835D01*
X75919Y230389D01*
X76929Y230808D01*
X77796Y231473D01*
X78462Y232341D01*
X78881Y233351D01*
X79023Y234435D01*
X78881Y235519D01*
X78462Y236529D01*
X77796Y237397D01*
X76929Y238063D01*
X75919Y238481D01*
X74835Y238624D01*
D02*
G37*
G36*
X106996Y246082D02*
X106323Y245994D01*
X105696Y245734D01*
X105158Y245321D01*
X104744Y244782D01*
X104485Y244155D01*
X104396Y243482D01*
X104485Y242809D01*
X104737Y242200D01*
X104485Y241592D01*
X104396Y240918D01*
X104485Y240246D01*
X104737Y239637D01*
X104485Y239028D01*
X104396Y238355D01*
X104485Y237682D01*
X104737Y237073D01*
X104485Y236464D01*
X104396Y235791D01*
X104485Y235118D01*
X104744Y234491D01*
X105158Y233953D01*
X105696Y233539D01*
X106323Y233280D01*
X106996Y233191D01*
X107669Y233280D01*
X108296Y233539D01*
X108835Y233953D01*
X109248Y234491D01*
X109291Y234595D01*
X109832D01*
X109906Y234418D01*
X110319Y233879D01*
X110857Y233466D01*
X111485Y233206D01*
X112157Y233118D01*
X112830Y233206D01*
X113458Y233466D01*
X113996Y233879D01*
X114409Y234418D01*
X114669Y235045D01*
X114758Y235718D01*
X114669Y236391D01*
X114417Y237000D01*
X114669Y237608D01*
X114758Y238281D01*
X114669Y238954D01*
X114417Y239563D01*
X114669Y240172D01*
X114758Y240845D01*
X114669Y241518D01*
X114417Y242127D01*
X114669Y242736D01*
X114758Y243409D01*
X114669Y244082D01*
X114409Y244709D01*
X113996Y245247D01*
X113458Y245660D01*
X112830Y245920D01*
X112157Y246009D01*
X111485Y245920D01*
X110857Y245660D01*
X110319Y245247D01*
X109906Y244709D01*
X109863Y244605D01*
X109321D01*
X109248Y244782D01*
X108835Y245321D01*
X108296Y245734D01*
X107669Y245994D01*
X106996Y246082D01*
D02*
G37*
G36*
X269967Y237127D02*
X269294Y237038D01*
X268667Y236778D01*
X268128Y236365D01*
X267715Y235827D01*
X267455Y235200D01*
X267367Y234527D01*
X267455Y233854D01*
X267715Y233227D01*
X268128Y232688D01*
X268667Y232275D01*
X269294Y232015D01*
X269967Y231926D01*
X270640Y232015D01*
X271267Y232275D01*
X271805Y232688D01*
X272219Y233227D01*
X272478Y233854D01*
X272567Y234527D01*
X272478Y235200D01*
X272219Y235827D01*
X271805Y236365D01*
X271267Y236778D01*
X270640Y237038D01*
X269967Y237127D01*
D02*
G37*
G36*
X123761Y244791D02*
X123089Y244703D01*
X122461Y244443D01*
X121923Y244029D01*
X121510Y243491D01*
X121250Y242864D01*
X121161Y242191D01*
X121250Y241518D01*
X121502Y240909D01*
X121250Y240300D01*
X121161Y239627D01*
X121250Y238954D01*
X121502Y238345D01*
X121250Y237737D01*
X121161Y237064D01*
X121250Y236391D01*
X121502Y235782D01*
X121250Y235173D01*
X121161Y234500D01*
X121250Y233827D01*
X121510Y233200D01*
X121923Y232661D01*
X122461Y232248D01*
X123089Y231988D01*
X123761Y231900D01*
X124434Y231988D01*
X125062Y232248D01*
X125600Y232661D01*
X126013Y233200D01*
X126273Y233827D01*
X126362Y234500D01*
X126273Y235173D01*
X126021Y235782D01*
X126273Y236391D01*
X126362Y237064D01*
X126273Y237737D01*
X126021Y238345D01*
X126273Y238954D01*
X126362Y239627D01*
X126273Y240300D01*
X126021Y240909D01*
X126273Y241518D01*
X126362Y242191D01*
X126273Y242864D01*
X126013Y243491D01*
X125600Y244029D01*
X125062Y244443D01*
X124434Y244703D01*
X123761Y244791D01*
D02*
G37*
G36*
X94201Y243805D02*
X93528Y243717D01*
X92901Y243457D01*
X92362Y243044D01*
X91949Y242505D01*
X91689Y241878D01*
X91601Y241205D01*
X91689Y240532D01*
X91941Y239926D01*
X91689Y239319D01*
X91601Y238646D01*
X91689Y237973D01*
X91941Y237366D01*
X91689Y236760D01*
X91601Y236087D01*
X91689Y235414D01*
X91941Y234807D01*
X91689Y234201D01*
X91601Y233528D01*
X91689Y232855D01*
X91949Y232228D01*
X92362Y231689D01*
X92901Y231276D01*
X93528Y231016D01*
X94201Y230928D01*
X94874Y231016D01*
X95501Y231276D01*
X96040Y231689D01*
X96453Y232228D01*
X96713Y232855D01*
X96801Y233528D01*
X96713Y234201D01*
X96461Y234807D01*
X96713Y235414D01*
X96801Y236087D01*
X96713Y236760D01*
X96461Y237366D01*
X96713Y237973D01*
X96801Y238646D01*
X96713Y239319D01*
X96461Y239926D01*
X96713Y240532D01*
X96801Y241205D01*
X96713Y241878D01*
X96453Y242505D01*
X96040Y243044D01*
X95501Y243457D01*
X94874Y243717D01*
X94201Y243805D01*
D02*
G37*
G36*
X43500Y238689D02*
X42416Y238546D01*
X41406Y238127D01*
X40538Y237462D01*
X39873Y236594D01*
X39454Y235584D01*
X39311Y234500D01*
X39454Y233416D01*
X39873Y232406D01*
X40538Y231538D01*
X41406Y230873D01*
X42416Y230454D01*
X43500Y230311D01*
X44584Y230454D01*
X45594Y230873D01*
X46462Y231538D01*
X47127Y232406D01*
X47546Y233416D01*
X47689Y234500D01*
X47546Y235584D01*
X47127Y236594D01*
X46462Y237462D01*
X45594Y238127D01*
X44584Y238546D01*
X43500Y238689D01*
D02*
G37*
G36*
X33500D02*
X32416Y238546D01*
X31406Y238127D01*
X30538Y237462D01*
X29873Y236594D01*
X29454Y235584D01*
X29311Y234500D01*
X29454Y233416D01*
X29873Y232406D01*
X30538Y231538D01*
X31406Y230873D01*
X32416Y230454D01*
X33500Y230311D01*
X34584Y230454D01*
X35594Y230873D01*
X36462Y231538D01*
X37127Y232406D01*
X37546Y233416D01*
X37689Y234500D01*
X37546Y235584D01*
X37127Y236594D01*
X36462Y237462D01*
X35594Y238127D01*
X34584Y238546D01*
X33500Y238689D01*
D02*
G37*
G36*
X199547Y231386D02*
X198874Y231297D01*
X198247Y231037D01*
X197708Y230624D01*
X197295Y230085D01*
X197035Y229458D01*
X196947Y228785D01*
X197035Y228112D01*
X197295Y227485D01*
X197708Y226947D01*
X198247Y226534D01*
X198874Y226274D01*
X199547Y226185D01*
X200220Y226274D01*
X200847Y226534D01*
X201385Y226947D01*
X201799Y227485D01*
X202058Y228112D01*
X202147Y228785D01*
X202058Y229458D01*
X201799Y230085D01*
X201385Y230624D01*
X200847Y231037D01*
X200220Y231297D01*
X199547Y231386D01*
D02*
G37*
G36*
X94635Y226974D02*
X93963Y226886D01*
X93335Y226626D01*
X92797Y226213D01*
X92384Y225674D01*
X92124Y225047D01*
X92035Y224374D01*
X92124Y223701D01*
X92384Y223074D01*
X92797Y222535D01*
X93335Y222122D01*
X93963Y221862D01*
X94635Y221774D01*
X95308Y221862D01*
X95936Y222122D01*
X96474Y222535D01*
X96887Y223074D01*
X97147Y223701D01*
X97236Y224374D01*
X97147Y225047D01*
X96887Y225674D01*
X96474Y226213D01*
X95936Y226626D01*
X95308Y226886D01*
X94635Y226974D01*
D02*
G37*
G36*
X43500Y228689D02*
X42416Y228546D01*
X41406Y228127D01*
X40538Y227462D01*
X39873Y226594D01*
X39454Y225584D01*
X39311Y224500D01*
X39454Y223416D01*
X39873Y222406D01*
X40538Y221538D01*
X41406Y220873D01*
X42416Y220454D01*
X43500Y220311D01*
X44584Y220454D01*
X45594Y220873D01*
X46462Y221538D01*
X47127Y222406D01*
X47546Y223416D01*
X47689Y224500D01*
X47546Y225584D01*
X47127Y226594D01*
X46462Y227462D01*
X45594Y228127D01*
X44584Y228546D01*
X43500Y228689D01*
D02*
G37*
G36*
X64835Y228624D02*
X62866D01*
X61782Y228481D01*
X60772Y228063D01*
X59904Y227397D01*
X59239Y226529D01*
X58820Y225519D01*
X58678Y224435D01*
X58820Y223351D01*
X59239Y222341D01*
X59904Y221473D01*
X60772Y220808D01*
X61782Y220389D01*
X62866Y220247D01*
X64835D01*
X65919Y220389D01*
X66929Y220808D01*
X67796Y221473D01*
X68462Y222341D01*
X68880Y223351D01*
X69023Y224435D01*
X68880Y225519D01*
X68462Y226529D01*
X67796Y227397D01*
X66929Y228063D01*
X65919Y228481D01*
X64835Y228624D01*
D02*
G37*
G36*
X74835Y218624D02*
X72866D01*
X71782Y218481D01*
X70772Y218062D01*
X69904Y217397D01*
X69239Y216529D01*
X69100Y216195D01*
X68600D01*
X68462Y216529D01*
X67796Y217397D01*
X66929Y218062D01*
X65919Y218481D01*
X64835Y218624D01*
X62866D01*
X61782Y218481D01*
X60772Y218062D01*
X59904Y217397D01*
X59239Y216529D01*
X58820Y215519D01*
X58678Y214435D01*
X58820Y213351D01*
X59239Y212341D01*
X59904Y211473D01*
X60772Y210808D01*
X61782Y210389D01*
X62866Y210246D01*
X64835D01*
X65919Y210389D01*
X66929Y210808D01*
X67796Y211473D01*
X68462Y212341D01*
X68600Y212675D01*
X69100D01*
X69239Y212341D01*
X69904Y211473D01*
X70772Y210808D01*
X71782Y210389D01*
X72866Y210246D01*
X74835D01*
X75919Y210389D01*
X76929Y210808D01*
X77068Y210914D01*
X92938Y195044D01*
X93500Y194668D01*
X94163Y194536D01*
X95179D01*
X95349Y194037D01*
X94936Y193498D01*
X94676Y192871D01*
X94587Y192198D01*
X94676Y191525D01*
X94936Y190898D01*
X95349Y190360D01*
X95888Y189946D01*
X96515Y189687D01*
X97188Y189598D01*
X97860Y189687D01*
X98488Y189946D01*
X99026Y190360D01*
X99439Y190898D01*
X99699Y191525D01*
X99788Y192198D01*
X99699Y192871D01*
X99439Y193498D01*
X99026Y194037D01*
X99197Y194536D01*
X119896D01*
X120559Y194668D01*
X121121Y195044D01*
X122368Y196291D01*
X122500Y196274D01*
X123173Y196362D01*
X123800Y196622D01*
X124339Y197035D01*
X124752Y197574D01*
X125012Y198201D01*
X125100Y198874D01*
X125012Y199547D01*
X124752Y200174D01*
X124339Y200713D01*
X123800Y201126D01*
X123173Y201386D01*
X122500Y201474D01*
X121827Y201386D01*
X121200Y201126D01*
X120661Y200713D01*
X120248Y200174D01*
X119988Y199547D01*
X119900Y198874D01*
X119917Y198742D01*
X119178Y198003D01*
X94881D01*
X89456Y203429D01*
X89739Y203853D01*
X90225Y203651D01*
X90898Y203563D01*
X91571Y203651D01*
X92198Y203911D01*
X92212Y203922D01*
X92261Y203907D01*
X92653Y203630D01*
X92585Y203112D01*
X92674Y202439D01*
X92933Y201812D01*
X93347Y201273D01*
X93885Y200860D01*
X94512Y200600D01*
X95185Y200512D01*
X95858Y200600D01*
X96485Y200860D01*
X97024Y201273D01*
X97437Y201812D01*
X97697Y202439D01*
X97785Y203112D01*
X97697Y203785D01*
X97437Y204412D01*
X97024Y204950D01*
X96485Y205364D01*
X95858Y205623D01*
X95185Y205712D01*
X94512Y205623D01*
X93885Y205364D01*
X93871Y205353D01*
X93822Y205368D01*
X93430Y205644D01*
X93498Y206163D01*
X93409Y206836D01*
X93150Y207463D01*
X92736Y208002D01*
X92198Y208415D01*
X91571Y208675D01*
X90898Y208763D01*
X90225Y208675D01*
X89597Y208415D01*
X89059Y208002D01*
X88646Y207463D01*
X88386Y206836D01*
X88297Y206163D01*
X88386Y205490D01*
X88587Y205004D01*
X88163Y204721D01*
X78956Y213928D01*
X79023Y214435D01*
X78881Y215519D01*
X78462Y216529D01*
X77796Y217397D01*
X76929Y218062D01*
X75919Y218481D01*
X74835Y218624D01*
D02*
G37*
G36*
X43500Y218689D02*
X42416Y218546D01*
X41406Y218127D01*
X40538Y217462D01*
X39873Y216594D01*
X39454Y215584D01*
X39311Y214500D01*
X39454Y213416D01*
X39873Y212406D01*
X40538Y211538D01*
X41406Y210873D01*
X42416Y210454D01*
X43500Y210311D01*
X44584Y210454D01*
X45594Y210873D01*
X46462Y211538D01*
X47127Y212406D01*
X47546Y213416D01*
X47689Y214500D01*
X47546Y215584D01*
X47127Y216594D01*
X46462Y217462D01*
X45594Y218127D01*
X44584Y218546D01*
X43500Y218689D01*
D02*
G37*
G36*
X33500D02*
X32416Y218546D01*
X31406Y218127D01*
X30538Y217462D01*
X29873Y216594D01*
X29454Y215584D01*
X29311Y214500D01*
X29454Y213416D01*
X29873Y212406D01*
X30538Y211538D01*
X31406Y210873D01*
X32416Y210454D01*
X33500Y210311D01*
X34584Y210454D01*
X35594Y210873D01*
X36462Y211538D01*
X37127Y212406D01*
X37546Y213416D01*
X37689Y214500D01*
X37546Y215584D01*
X37127Y216594D01*
X36462Y217462D01*
X35594Y218127D01*
X34584Y218546D01*
X33500Y218689D01*
D02*
G37*
G36*
X269967Y228699D02*
X269294Y228610D01*
X268667Y228350D01*
X268128Y227937D01*
X267715Y227398D01*
X267455Y226771D01*
X267367Y226098D01*
X267455Y225425D01*
X267715Y224798D01*
X268022Y224399D01*
X268088Y224055D01*
X268022Y223711D01*
X267715Y223312D01*
X267455Y222685D01*
X267367Y222012D01*
X267455Y221339D01*
X267715Y220712D01*
X268128Y220173D01*
X268336Y220014D01*
Y219384D01*
X268128Y219224D01*
X267715Y218686D01*
X267455Y218059D01*
X267367Y217386D01*
X267455Y216713D01*
X267715Y216086D01*
X268128Y215547D01*
X268298Y215417D01*
Y214787D01*
X268128Y214657D01*
X267715Y214118D01*
X267455Y213491D01*
X267367Y212818D01*
X267455Y212145D01*
X267715Y211518D01*
X268128Y210979D01*
X268667Y210566D01*
X269294Y210306D01*
X269967Y210218D01*
X270640Y210306D01*
X271267Y210566D01*
X271805Y210979D01*
X272219Y211518D01*
X272478Y212145D01*
X272567Y212818D01*
X272478Y213491D01*
X272219Y214118D01*
X271805Y214657D01*
X271636Y214787D01*
Y215417D01*
X271805Y215547D01*
X272219Y216086D01*
X272478Y216713D01*
X272567Y217386D01*
X272478Y218059D01*
X272219Y218686D01*
X271805Y219224D01*
X271598Y219384D01*
Y220014D01*
X271805Y220173D01*
X272219Y220712D01*
X272478Y221339D01*
X272567Y222012D01*
X272478Y222685D01*
X272219Y223312D01*
X271912Y223711D01*
X271845Y224055D01*
X271912Y224399D01*
X272219Y224798D01*
X272478Y225425D01*
X272567Y226098D01*
X272478Y226771D01*
X272219Y227398D01*
X271805Y227937D01*
X271267Y228350D01*
X270640Y228610D01*
X269967Y228699D01*
D02*
G37*
G36*
X33500Y208689D02*
X32416Y208546D01*
X31406Y208127D01*
X30538Y207462D01*
X29873Y206594D01*
X29454Y205584D01*
X29311Y204500D01*
X29454Y203416D01*
X29873Y202406D01*
X30538Y201538D01*
X31406Y200873D01*
X32416Y200454D01*
X33500Y200311D01*
X34584Y200454D01*
X35594Y200873D01*
X36462Y201538D01*
X37127Y202406D01*
X37546Y203416D01*
X37689Y204500D01*
X37546Y205584D01*
X37127Y206594D01*
X36462Y207462D01*
X35594Y208127D01*
X34584Y208546D01*
X33500Y208689D01*
D02*
G37*
G36*
X74835Y208624D02*
X72866D01*
X71782Y208481D01*
X70772Y208063D01*
X69904Y207397D01*
X69239Y206529D01*
X68820Y205519D01*
X68678Y204435D01*
X68820Y203351D01*
X69239Y202341D01*
X69904Y201473D01*
X70772Y200808D01*
X71782Y200389D01*
X72866Y200247D01*
X74835D01*
X75919Y200389D01*
X76929Y200808D01*
X77796Y201473D01*
X78462Y202341D01*
X78881Y203351D01*
X79023Y204435D01*
X78881Y205519D01*
X78462Y206529D01*
X77796Y207397D01*
X76929Y208063D01*
X75919Y208481D01*
X74835Y208624D01*
D02*
G37*
G36*
Y198624D02*
X72866D01*
X71782Y198481D01*
X70772Y198063D01*
X69904Y197397D01*
X69239Y196529D01*
X69100Y196195D01*
X68600D01*
X68462Y196529D01*
X67796Y197397D01*
X66929Y198063D01*
X65919Y198481D01*
X64835Y198624D01*
X62866D01*
X61782Y198481D01*
X60772Y198063D01*
X59904Y197397D01*
X59239Y196529D01*
X58820Y195519D01*
X58678Y194435D01*
X58820Y193351D01*
X59239Y192341D01*
X59904Y191473D01*
X60772Y190808D01*
X61782Y190389D01*
X62866Y190246D01*
X64835D01*
X65919Y190389D01*
X66929Y190808D01*
X67796Y191473D01*
X68462Y192341D01*
X68600Y192675D01*
X69100D01*
X69239Y192341D01*
X69904Y191473D01*
X70772Y190808D01*
X71782Y190389D01*
X72866Y190246D01*
X74835D01*
X75919Y190389D01*
X76929Y190808D01*
X77796Y191473D01*
X78462Y192341D01*
X78881Y193351D01*
X79023Y194435D01*
X78881Y195519D01*
X78462Y196529D01*
X77796Y197397D01*
X76929Y198063D01*
X75919Y198481D01*
X74835Y198624D01*
D02*
G37*
G36*
X170603Y198431D02*
X169930Y198342D01*
X169303Y198082D01*
X168764Y197669D01*
X168351Y197131D01*
X168091Y196504D01*
X168003Y195831D01*
X168091Y195158D01*
X168351Y194531D01*
X168764Y193992D01*
X169303Y193579D01*
X169930Y193319D01*
X170603Y193230D01*
X171276Y193319D01*
X171903Y193579D01*
X172442Y193992D01*
X172855Y194531D01*
X173115Y195158D01*
X173203Y195831D01*
X173115Y196504D01*
X172855Y197131D01*
X172442Y197669D01*
X171903Y198082D01*
X171276Y198342D01*
X170603Y198431D01*
D02*
G37*
G36*
X259402Y197240D02*
X258729Y197151D01*
X258102Y196891D01*
X257563Y196478D01*
X257150Y195940D01*
X256890Y195313D01*
X256801Y194640D01*
X256890Y193967D01*
X257150Y193340D01*
X257563Y192801D01*
X258102Y192388D01*
X258729Y192128D01*
X259402Y192040D01*
X260074Y192128D01*
X260702Y192388D01*
X261240Y192801D01*
X261653Y193340D01*
X261913Y193967D01*
X262002Y194640D01*
X261913Y195313D01*
X261653Y195940D01*
X261240Y196478D01*
X260702Y196891D01*
X260074Y197151D01*
X259402Y197240D01*
D02*
G37*
G36*
X43500Y198689D02*
X42416Y198546D01*
X41406Y198127D01*
X40538Y197462D01*
X39873Y196594D01*
X39454Y195584D01*
X39311Y194500D01*
X39454Y193416D01*
X39873Y192406D01*
X40538Y191538D01*
X41406Y190873D01*
X42416Y190454D01*
X43500Y190311D01*
X44584Y190454D01*
X45594Y190873D01*
X46462Y191538D01*
X47127Y192406D01*
X47546Y193416D01*
X47689Y194500D01*
X47546Y195584D01*
X47127Y196594D01*
X46462Y197462D01*
X45594Y198127D01*
X44584Y198546D01*
X43500Y198689D01*
D02*
G37*
G36*
X33500D02*
X32416Y198546D01*
X31406Y198127D01*
X30538Y197462D01*
X29873Y196594D01*
X29454Y195584D01*
X29311Y194500D01*
X29454Y193416D01*
X29873Y192406D01*
X30538Y191538D01*
X31406Y190873D01*
X32416Y190454D01*
X33500Y190311D01*
X34584Y190454D01*
X35594Y190873D01*
X36462Y191538D01*
X37127Y192406D01*
X37546Y193416D01*
X37689Y194500D01*
X37546Y195584D01*
X37127Y196594D01*
X36462Y197462D01*
X35594Y198127D01*
X34584Y198546D01*
X33500Y198689D01*
D02*
G37*
G36*
X125191Y192909D02*
X124518Y192821D01*
X123891Y192561D01*
X123353Y192148D01*
X122939Y191609D01*
X122680Y190982D01*
X122591Y190309D01*
X122680Y189636D01*
X122939Y189009D01*
X122547Y188699D01*
X122119Y189027D01*
X121492Y189287D01*
X120819Y189376D01*
X120146Y189287D01*
X119519Y189027D01*
X118980Y188614D01*
X118567Y188076D01*
X118307Y187449D01*
X118219Y186776D01*
X118307Y186103D01*
X118567Y185476D01*
X118929Y185004D01*
X118567Y184532D01*
X118307Y183905D01*
X118219Y183232D01*
X118307Y182559D01*
X118567Y181932D01*
X118980Y181394D01*
X119519Y180980D01*
X120146Y180721D01*
X120819Y180632D01*
X121492Y180721D01*
X121998Y180930D01*
X122090Y180919D01*
X122345Y180799D01*
X122520Y180658D01*
X122581Y180197D01*
X122841Y179570D01*
X123254Y179032D01*
X123793Y178618D01*
X124420Y178358D01*
X125093Y178270D01*
X125766Y178358D01*
X126393Y178618D01*
X126931Y179032D01*
X127345Y179570D01*
X127604Y180197D01*
X127693Y180870D01*
X127604Y181543D01*
X127345Y182170D01*
X126931Y182709D01*
X126393Y183122D01*
X125766Y183382D01*
X125093Y183470D01*
X124420Y183382D01*
X123914Y183172D01*
X123821Y183183D01*
X123567Y183303D01*
X123391Y183444D01*
X123330Y183905D01*
X123071Y184532D01*
X122709Y185004D01*
X123071Y185476D01*
X123330Y186103D01*
X123419Y186776D01*
X123330Y187449D01*
X123071Y188076D01*
X123463Y188386D01*
X123891Y188057D01*
X124518Y187798D01*
X125191Y187709D01*
X125864Y187798D01*
X126491Y188057D01*
X127030Y188471D01*
X127443Y189009D01*
X127703Y189636D01*
X127791Y190309D01*
X127703Y190982D01*
X127443Y191609D01*
X127030Y192148D01*
X126491Y192561D01*
X125864Y192821D01*
X125191Y192909D01*
D02*
G37*
G36*
X74835Y188624D02*
X72866D01*
X71782Y188481D01*
X70772Y188063D01*
X69904Y187397D01*
X69239Y186529D01*
X69100Y186195D01*
X68600D01*
X68462Y186529D01*
X67796Y187397D01*
X66929Y188063D01*
X65919Y188481D01*
X64835Y188624D01*
X62866D01*
X61782Y188481D01*
X60772Y188063D01*
X59904Y187397D01*
X59239Y186529D01*
X58820Y185519D01*
X58678Y184435D01*
X58820Y183351D01*
X59239Y182341D01*
X59904Y181473D01*
X60772Y180808D01*
X61782Y180389D01*
X62866Y180246D01*
X64835D01*
X65919Y180389D01*
X66929Y180808D01*
X67796Y181473D01*
X68462Y182341D01*
X68600Y182675D01*
X69100D01*
X69239Y182341D01*
X69904Y181473D01*
X70772Y180808D01*
X71782Y180389D01*
X72866Y180246D01*
X74835D01*
X75919Y180389D01*
X76929Y180808D01*
X77796Y181473D01*
X78462Y182341D01*
X78881Y183351D01*
X79023Y184435D01*
X78881Y185519D01*
X78462Y186529D01*
X77796Y187397D01*
X76929Y188063D01*
X75919Y188481D01*
X74835Y188624D01*
D02*
G37*
G36*
X43500Y188689D02*
X42416Y188546D01*
X41406Y188127D01*
X40538Y187462D01*
X39873Y186594D01*
X39454Y185584D01*
X39311Y184500D01*
X39454Y183416D01*
X39873Y182406D01*
X40538Y181538D01*
X41406Y180873D01*
X42416Y180454D01*
X43500Y180311D01*
X44584Y180454D01*
X45594Y180873D01*
X46462Y181538D01*
X47127Y182406D01*
X47546Y183416D01*
X47689Y184500D01*
X47546Y185584D01*
X47127Y186594D01*
X46462Y187462D01*
X45594Y188127D01*
X44584Y188546D01*
X43500Y188689D01*
D02*
G37*
G36*
X33500D02*
X32416Y188546D01*
X31406Y188127D01*
X30538Y187462D01*
X29873Y186594D01*
X29454Y185584D01*
X29311Y184500D01*
X29454Y183416D01*
X29873Y182406D01*
X30538Y181538D01*
X31406Y180873D01*
X32416Y180454D01*
X33500Y180311D01*
X34584Y180454D01*
X35594Y180873D01*
X36462Y181538D01*
X37127Y182406D01*
X37546Y183416D01*
X37689Y184500D01*
X37546Y185584D01*
X37127Y186594D01*
X36462Y187462D01*
X35594Y188127D01*
X34584Y188546D01*
X33500Y188689D01*
D02*
G37*
G36*
X104933Y180142D02*
X103695Y179980D01*
X102541Y179501D01*
X101550Y178741D01*
X100790Y177750D01*
X100312Y176596D01*
X100149Y175358D01*
X100312Y174120D01*
X100790Y172966D01*
X101550Y171975D01*
X102541Y171215D01*
X103695Y170737D01*
X104933Y170574D01*
X106171Y170737D01*
X107325Y171215D01*
X108316Y171975D01*
X109076Y172966D01*
X109554Y174120D01*
X109717Y175358D01*
X109554Y176596D01*
X109076Y177750D01*
X108316Y178741D01*
X107325Y179501D01*
X106171Y179980D01*
X104933Y180142D01*
D02*
G37*
G36*
X33500Y178689D02*
X32416Y178546D01*
X31406Y178127D01*
X30538Y177462D01*
X29873Y176594D01*
X29454Y175584D01*
X29311Y174500D01*
X29454Y173416D01*
X29873Y172406D01*
X30538Y171538D01*
X31406Y170873D01*
X32416Y170454D01*
X33500Y170311D01*
X34584Y170454D01*
X35594Y170873D01*
X36462Y171538D01*
X37127Y172406D01*
X37546Y173416D01*
X37689Y174500D01*
X37546Y175584D01*
X37127Y176594D01*
X36462Y177462D01*
X35594Y178127D01*
X34584Y178546D01*
X33500Y178689D01*
D02*
G37*
G36*
X74835Y178624D02*
X72866D01*
X71782Y178481D01*
X70772Y178062D01*
X69904Y177397D01*
X69239Y176529D01*
X68820Y175519D01*
X68678Y174435D01*
X68820Y173351D01*
X69239Y172341D01*
X69904Y171473D01*
X70772Y170808D01*
X71782Y170389D01*
X72866Y170247D01*
X74835D01*
X75919Y170389D01*
X76929Y170808D01*
X77796Y171473D01*
X78462Y172341D01*
X78881Y173351D01*
X79023Y174435D01*
X78881Y175519D01*
X78462Y176529D01*
X77796Y177397D01*
X76929Y178062D01*
X75919Y178481D01*
X74835Y178624D01*
D02*
G37*
G36*
X148587Y180142D02*
X147348Y179980D01*
X146195Y179501D01*
X145204Y178741D01*
X144444Y177750D01*
X143965Y176596D01*
X143802Y175358D01*
X143965Y174120D01*
X144444Y172966D01*
X145204Y171975D01*
X146195Y171215D01*
X146199Y171213D01*
X146075Y170913D01*
X145986Y170240D01*
X146075Y169567D01*
X146335Y168940D01*
X146748Y168402D01*
X147287Y167988D01*
X147914Y167729D01*
X148587Y167640D01*
X149260Y167729D01*
X149887Y167988D01*
X150425Y168402D01*
X150839Y168940D01*
X151098Y169567D01*
X151187Y170240D01*
X151098Y170913D01*
X150974Y171213D01*
X150979Y171215D01*
X151970Y171975D01*
X152730Y172966D01*
X153208Y174120D01*
X153371Y175358D01*
X153208Y176596D01*
X152730Y177750D01*
X151970Y178741D01*
X150979Y179501D01*
X149825Y179980D01*
X148587Y180142D01*
D02*
G37*
G36*
X74835Y168624D02*
X72866D01*
X71782Y168481D01*
X70772Y168062D01*
X69904Y167397D01*
X69239Y166529D01*
X69100Y166195D01*
X68600D01*
X68462Y166529D01*
X67796Y167397D01*
X66929Y168062D01*
X65919Y168481D01*
X64835Y168624D01*
X62866D01*
X61782Y168481D01*
X60772Y168062D01*
X59904Y167397D01*
X59239Y166529D01*
X58820Y165519D01*
X58678Y164435D01*
X58820Y163351D01*
X59239Y162341D01*
X59904Y161473D01*
X60772Y160808D01*
X61782Y160389D01*
X62866Y160247D01*
X64835D01*
X65919Y160389D01*
X66929Y160808D01*
X67796Y161473D01*
X68462Y162341D01*
X68600Y162675D01*
X69100D01*
X69239Y162341D01*
X69904Y161473D01*
X70772Y160808D01*
X71782Y160389D01*
X72866Y160247D01*
X74835D01*
X75919Y160389D01*
X76929Y160808D01*
X77796Y161473D01*
X78462Y162341D01*
X78881Y163351D01*
X79023Y164435D01*
X78881Y165519D01*
X78462Y166529D01*
X77796Y167397D01*
X76929Y168062D01*
X75919Y168481D01*
X74835Y168624D01*
D02*
G37*
G36*
X246000Y171750D02*
X245327Y171661D01*
X244700Y171402D01*
X244161Y170989D01*
X243748Y170450D01*
X243488Y169823D01*
X243400Y169150D01*
X243488Y168477D01*
X243748Y167850D01*
X243767Y167825D01*
X243748Y167800D01*
X243488Y167173D01*
X243400Y166500D01*
X243488Y165827D01*
X243727Y165250D01*
X243488Y164673D01*
X243400Y164000D01*
X243488Y163327D01*
X243748Y162700D01*
X244161Y162161D01*
X244700Y161748D01*
X245327Y161488D01*
X246000Y161400D01*
X246673Y161488D01*
X247300Y161748D01*
X247839Y162161D01*
X248252Y162700D01*
X248512Y163327D01*
X248600Y164000D01*
X248512Y164673D01*
X248273Y165250D01*
X248512Y165827D01*
X248600Y166500D01*
X248512Y167173D01*
X248252Y167800D01*
X248233Y167825D01*
X248252Y167850D01*
X248512Y168477D01*
X248600Y169150D01*
X248512Y169823D01*
X248252Y170450D01*
X247839Y170989D01*
X247300Y171402D01*
X246673Y171661D01*
X246000Y171750D01*
D02*
G37*
G36*
X43500Y168689D02*
X42416Y168546D01*
X41406Y168127D01*
X40538Y167462D01*
X39873Y166594D01*
X39454Y165584D01*
X39311Y164500D01*
X39454Y163416D01*
X39873Y162406D01*
X40538Y161538D01*
X41406Y160873D01*
X42416Y160454D01*
X43500Y160311D01*
X44584Y160454D01*
X45594Y160873D01*
X46462Y161538D01*
X47127Y162406D01*
X47546Y163416D01*
X47689Y164500D01*
X47546Y165584D01*
X47127Y166594D01*
X46462Y167462D01*
X45594Y168127D01*
X44584Y168546D01*
X43500Y168689D01*
D02*
G37*
G36*
X33500D02*
X32416Y168546D01*
X31406Y168127D01*
X30538Y167462D01*
X29873Y166594D01*
X29454Y165584D01*
X29311Y164500D01*
X29454Y163416D01*
X29873Y162406D01*
X30538Y161538D01*
X31406Y160873D01*
X32416Y160454D01*
X33500Y160311D01*
X34584Y160454D01*
X35594Y160873D01*
X36462Y161538D01*
X37127Y162406D01*
X37546Y163416D01*
X37689Y164500D01*
X37546Y165584D01*
X37127Y166594D01*
X36462Y167462D01*
X35594Y168127D01*
X34584Y168546D01*
X33500Y168689D01*
D02*
G37*
G36*
X74835Y158624D02*
X72866D01*
X71782Y158481D01*
X70772Y158063D01*
X69904Y157397D01*
X69239Y156529D01*
X69100Y156195D01*
X68600D01*
X68462Y156529D01*
X67796Y157397D01*
X66929Y158063D01*
X65919Y158481D01*
X64835Y158624D01*
X62866D01*
X61782Y158481D01*
X60772Y158063D01*
X59904Y157397D01*
X59239Y156529D01*
X58820Y155519D01*
X58678Y154435D01*
X58820Y153351D01*
X59239Y152341D01*
X59904Y151473D01*
X60772Y150808D01*
X61782Y150389D01*
X62866Y150247D01*
X64835D01*
X65919Y150389D01*
X66929Y150808D01*
X67796Y151473D01*
X68462Y152341D01*
X68600Y152675D01*
X69100D01*
X69239Y152341D01*
X69904Y151473D01*
X70772Y150808D01*
X71782Y150389D01*
X72866Y150247D01*
X74835D01*
X75919Y150389D01*
X76929Y150808D01*
X77796Y151473D01*
X78462Y152341D01*
X78881Y153351D01*
X79023Y154435D01*
X78881Y155519D01*
X78462Y156529D01*
X77796Y157397D01*
X76929Y158063D01*
X75919Y158481D01*
X74835Y158624D01*
D02*
G37*
G36*
X43500Y158689D02*
X42416Y158546D01*
X41406Y158127D01*
X40538Y157462D01*
X39873Y156594D01*
X39454Y155584D01*
X39311Y154500D01*
X39454Y153416D01*
X39873Y152406D01*
X40538Y151538D01*
X41406Y150873D01*
X42416Y150454D01*
X43500Y150311D01*
X44584Y150454D01*
X45594Y150873D01*
X46462Y151538D01*
X47127Y152406D01*
X47546Y153416D01*
X47689Y154500D01*
X47546Y155584D01*
X47127Y156594D01*
X46462Y157462D01*
X45594Y158127D01*
X44584Y158546D01*
X43500Y158689D01*
D02*
G37*
G36*
X33500D02*
X32416Y158546D01*
X31406Y158127D01*
X30538Y157462D01*
X29873Y156594D01*
X29454Y155584D01*
X29311Y154500D01*
X29454Y153416D01*
X29873Y152406D01*
X30538Y151538D01*
X31406Y150873D01*
X32416Y150454D01*
X33500Y150311D01*
X34584Y150454D01*
X35594Y150873D01*
X36462Y151538D01*
X37127Y152406D01*
X37546Y153416D01*
X37689Y154500D01*
X37546Y155584D01*
X37127Y156594D01*
X36462Y157462D01*
X35594Y158127D01*
X34584Y158546D01*
X33500Y158689D01*
D02*
G37*
G36*
X43500Y148689D02*
X42416Y148546D01*
X41406Y148127D01*
X40538Y147462D01*
X39873Y146594D01*
X39454Y145584D01*
X39311Y144500D01*
X39454Y143416D01*
X39873Y142406D01*
X40538Y141538D01*
X41406Y140873D01*
X42416Y140454D01*
X43500Y140311D01*
X44584Y140454D01*
X45594Y140873D01*
X46462Y141538D01*
X47127Y142406D01*
X47546Y143416D01*
X47689Y144500D01*
X47546Y145584D01*
X47127Y146594D01*
X46462Y147462D01*
X45594Y148127D01*
X44584Y148546D01*
X43500Y148689D01*
D02*
G37*
G36*
X64835Y148624D02*
X62866D01*
X61782Y148481D01*
X60772Y148063D01*
X59904Y147397D01*
X59239Y146529D01*
X58820Y145519D01*
X58678Y144435D01*
X58820Y143351D01*
X59239Y142341D01*
X59904Y141473D01*
X60772Y140808D01*
X61782Y140389D01*
X62866Y140246D01*
X64835D01*
X65919Y140389D01*
X66929Y140808D01*
X67796Y141473D01*
X68462Y142341D01*
X68880Y143351D01*
X69023Y144435D01*
X68880Y145519D01*
X68462Y146529D01*
X67796Y147397D01*
X66929Y148063D01*
X65919Y148481D01*
X64835Y148624D01*
D02*
G37*
G36*
X74835Y138624D02*
X72866D01*
X71782Y138481D01*
X70772Y138063D01*
X69904Y137397D01*
X69239Y136529D01*
X69100Y136195D01*
X68600D01*
X68462Y136529D01*
X67796Y137397D01*
X66929Y138063D01*
X65919Y138481D01*
X64835Y138624D01*
X62866D01*
X61782Y138481D01*
X60772Y138063D01*
X59904Y137397D01*
X59239Y136529D01*
X58820Y135519D01*
X58678Y134435D01*
X58820Y133351D01*
X59239Y132341D01*
X59904Y131473D01*
X60772Y130808D01*
X61782Y130389D01*
X62866Y130246D01*
X64835D01*
X65919Y130389D01*
X66929Y130808D01*
X67796Y131473D01*
X68462Y132341D01*
X68600Y132675D01*
X69100D01*
X69239Y132341D01*
X69904Y131473D01*
X70772Y130808D01*
X71782Y130389D01*
X72866Y130246D01*
X74835D01*
X75919Y130389D01*
X76929Y130808D01*
X77796Y131473D01*
X78462Y132341D01*
X78881Y133351D01*
X79023Y134435D01*
X78881Y135519D01*
X78462Y136529D01*
X77796Y137397D01*
X76929Y138063D01*
X75919Y138481D01*
X74835Y138624D01*
D02*
G37*
G36*
X43500Y138689D02*
X42416Y138546D01*
X41406Y138128D01*
X40538Y137462D01*
X39873Y136595D01*
X39454Y135584D01*
X39312Y134500D01*
X39454Y133416D01*
X39873Y132406D01*
X40538Y131539D01*
X41406Y130873D01*
X42416Y130455D01*
X43500Y130312D01*
X44584Y130455D01*
X45595Y130873D01*
X46462Y131539D01*
X47128Y132406D01*
X47546Y133416D01*
X47689Y134500D01*
X47546Y135584D01*
X47128Y136595D01*
X46462Y137462D01*
X45595Y138128D01*
X44584Y138546D01*
X43500Y138689D01*
D02*
G37*
G36*
X33500D02*
X32416Y138546D01*
X31406Y138128D01*
X30538Y137462D01*
X29873Y136595D01*
X29454Y135584D01*
X29312Y134500D01*
X29454Y133416D01*
X29873Y132406D01*
X30538Y131539D01*
X31406Y130873D01*
X32416Y130455D01*
X33500Y130312D01*
X34584Y130455D01*
X35595Y130873D01*
X36462Y131539D01*
X37128Y132406D01*
X37546Y133416D01*
X37689Y134500D01*
X37546Y135584D01*
X37128Y136595D01*
X36462Y137462D01*
X35595Y138128D01*
X34584Y138546D01*
X33500Y138689D01*
D02*
G37*
G36*
X243601Y145840D02*
X242928Y145751D01*
X242301Y145492D01*
X241763Y145078D01*
X241349Y144540D01*
X241090Y143913D01*
X241001Y143240D01*
X241090Y142567D01*
X241349Y141940D01*
X241763Y141401D01*
X241868Y141320D01*
Y136432D01*
X240824Y135389D01*
X240449Y134826D01*
X240317Y134163D01*
Y127619D01*
X240211Y127539D01*
X239798Y127000D01*
X239538Y126373D01*
X239450Y125700D01*
X239538Y125027D01*
X239798Y124400D01*
X240142Y123952D01*
X239798Y123505D01*
X239538Y122878D01*
X239450Y122205D01*
X239538Y121532D01*
X239640Y121287D01*
X239306Y120787D01*
X231952D01*
X230833Y121906D01*
X231117Y122330D01*
X231163Y122310D01*
X231836Y122222D01*
X232509Y122310D01*
X233136Y122570D01*
X233675Y122983D01*
X234088Y123522D01*
X234348Y124149D01*
X234436Y124822D01*
X234348Y125495D01*
X234088Y126122D01*
X233675Y126661D01*
X233136Y127074D01*
X232509Y127334D01*
X231836Y127422D01*
X231163Y127334D01*
X230536Y127074D01*
X229998Y126661D01*
X229584Y126122D01*
X229325Y125495D01*
X229279Y125145D01*
X228759Y124820D01*
X228757D01*
X228578Y124894D01*
X227905Y124983D01*
X227232Y124894D01*
X226605Y124635D01*
X226066Y124222D01*
X225653Y123683D01*
X225394Y123056D01*
X225305Y122383D01*
X225394Y121710D01*
X225653Y121083D01*
X226066Y120544D01*
X226605Y120131D01*
X227232Y119871D01*
X227905Y119783D01*
X228037Y119800D01*
X230008Y117828D01*
X230571Y117453D01*
X231234Y117321D01*
X231234Y117321D01*
X246135D01*
X246798Y117453D01*
X247361Y117828D01*
X258841Y129308D01*
X258972Y129291D01*
X259645Y129380D01*
X260273Y129639D01*
X260811Y130053D01*
X261224Y130591D01*
X261484Y131218D01*
X261573Y131891D01*
X261484Y132564D01*
X261224Y133191D01*
X260811Y133730D01*
X260273Y134143D01*
X259645Y134403D01*
X258972Y134492D01*
X258299Y134403D01*
X257672Y134143D01*
X257134Y133730D01*
X256721Y133191D01*
X256461Y132564D01*
X256372Y131891D01*
X256390Y131760D01*
X245417Y120787D01*
X244794D01*
X244460Y121287D01*
X244562Y121532D01*
X244650Y122203D01*
X251026Y128579D01*
X251401Y129141D01*
X251533Y129804D01*
Y141181D01*
X251639Y141261D01*
X252052Y141800D01*
X252312Y142427D01*
X252400Y143100D01*
X252312Y143773D01*
X252052Y144400D01*
X251639Y144939D01*
X251100Y145352D01*
X250473Y145612D01*
X249800Y145700D01*
X249127Y145612D01*
X248500Y145352D01*
X247961Y144939D01*
X247548Y144400D01*
X247288Y143773D01*
X247200Y143100D01*
X247288Y142427D01*
X247548Y141800D01*
X247961Y141261D01*
X248067Y141181D01*
Y130522D01*
X244730Y127186D01*
X244100Y127263D01*
X243889Y127539D01*
X243783Y127619D01*
Y133445D01*
X244827Y134488D01*
X245203Y135051D01*
X245335Y135714D01*
Y141320D01*
X245440Y141401D01*
X245853Y141940D01*
X246113Y142567D01*
X246201Y143240D01*
X246113Y143913D01*
X245853Y144540D01*
X245440Y145078D01*
X244901Y145492D01*
X244274Y145751D01*
X243601Y145840D01*
D02*
G37*
G36*
X122394Y130714D02*
X121721Y130626D01*
X121094Y130366D01*
X120555Y129953D01*
X120142Y129414D01*
X119882Y128787D01*
X119793Y128114D01*
X119882Y127441D01*
X120142Y126814D01*
X120555Y126276D01*
X121094Y125862D01*
X121721Y125603D01*
X122394Y125514D01*
X123067Y125603D01*
X123694Y125862D01*
X124232Y126276D01*
X124645Y126814D01*
X124905Y127441D01*
X124994Y128114D01*
X124905Y128787D01*
X124645Y129414D01*
X124232Y129953D01*
X123694Y130366D01*
X123067Y130626D01*
X122394Y130714D01*
D02*
G37*
G36*
X263900Y128300D02*
X263227Y128212D01*
X262600Y127952D01*
X262061Y127539D01*
X261648Y127000D01*
X261388Y126373D01*
X261300Y125700D01*
X261388Y125027D01*
X261648Y124400D01*
X262061Y123861D01*
X262600Y123448D01*
X263227Y123188D01*
X263900Y123100D01*
X264573Y123188D01*
X265200Y123448D01*
X265739Y123861D01*
X266152Y124400D01*
X266412Y125027D01*
X266500Y125700D01*
X266412Y126373D01*
X266152Y127000D01*
X265739Y127539D01*
X265200Y127952D01*
X264573Y128212D01*
X263900Y128300D01*
D02*
G37*
G36*
X33500Y128689D02*
X32416Y128546D01*
X31406Y128127D01*
X30538Y127462D01*
X29873Y126594D01*
X29454Y125584D01*
X29311Y124500D01*
X29454Y123416D01*
X29873Y122406D01*
X30538Y121538D01*
X31406Y120873D01*
X32416Y120454D01*
X33500Y120311D01*
X34584Y120454D01*
X35594Y120873D01*
X36462Y121538D01*
X37127Y122406D01*
X37546Y123416D01*
X37689Y124500D01*
X37546Y125584D01*
X37127Y126594D01*
X36462Y127462D01*
X35594Y128127D01*
X34584Y128546D01*
X33500Y128689D01*
D02*
G37*
G36*
X74835Y128624D02*
X72866D01*
X71782Y128481D01*
X70772Y128062D01*
X69904Y127397D01*
X69239Y126529D01*
X68820Y125519D01*
X68678Y124435D01*
X68820Y123351D01*
X69239Y122341D01*
X69904Y121473D01*
X70772Y120808D01*
X71782Y120389D01*
X72866Y120247D01*
X74835D01*
X75919Y120389D01*
X76929Y120808D01*
X77796Y121473D01*
X78462Y122341D01*
X78881Y123351D01*
X79023Y124435D01*
X78881Y125519D01*
X78462Y126529D01*
X77796Y127397D01*
X76929Y128062D01*
X75919Y128481D01*
X74835Y128624D01*
D02*
G37*
G36*
Y118624D02*
X72866D01*
X71782Y118481D01*
X70772Y118062D01*
X69904Y117397D01*
X69239Y116529D01*
X69100Y116195D01*
X68600D01*
X68462Y116529D01*
X67796Y117397D01*
X66929Y118062D01*
X65919Y118481D01*
X64835Y118624D01*
X62866D01*
X61782Y118481D01*
X60772Y118062D01*
X59904Y117397D01*
X59239Y116529D01*
X58820Y115519D01*
X58678Y114435D01*
X58820Y113351D01*
X59239Y112341D01*
X59904Y111473D01*
X60772Y110808D01*
X61782Y110389D01*
X62866Y110247D01*
X64835D01*
X65919Y110389D01*
X66929Y110808D01*
X67796Y111473D01*
X68462Y112341D01*
X68600Y112675D01*
X69100D01*
X69239Y112341D01*
X69904Y111473D01*
X70772Y110808D01*
X71782Y110389D01*
X72866Y110247D01*
X74835D01*
X75919Y110389D01*
X76929Y110808D01*
X77796Y111473D01*
X78462Y112341D01*
X78881Y113351D01*
X79023Y114435D01*
X78881Y115519D01*
X78462Y116529D01*
X77796Y117397D01*
X76929Y118062D01*
X75919Y118481D01*
X74835Y118624D01*
D02*
G37*
G36*
X136173Y120573D02*
X135500Y120484D01*
X134873Y120225D01*
X134335Y119811D01*
X133921Y119273D01*
X133662Y118646D01*
X133573Y117973D01*
X133662Y117300D01*
X133921Y116673D01*
X134335Y116134D01*
X134873Y115721D01*
X135500Y115461D01*
X136173Y115373D01*
X136846Y115461D01*
X137473Y115721D01*
X138012Y116134D01*
X138425Y116673D01*
X138685Y117300D01*
X138773Y117973D01*
X138685Y118646D01*
X138425Y119273D01*
X138012Y119811D01*
X137473Y120225D01*
X136846Y120484D01*
X136173Y120573D01*
D02*
G37*
G36*
X43500Y118689D02*
X42416Y118546D01*
X41406Y118127D01*
X40538Y117462D01*
X39873Y116594D01*
X39454Y115584D01*
X39311Y114500D01*
X39454Y113416D01*
X39873Y112406D01*
X40538Y111538D01*
X41406Y110873D01*
X42416Y110454D01*
X43500Y110311D01*
X44584Y110454D01*
X45594Y110873D01*
X46462Y111538D01*
X47127Y112406D01*
X47546Y113416D01*
X47689Y114500D01*
X47546Y115584D01*
X47127Y116594D01*
X46462Y117462D01*
X45594Y118127D01*
X44584Y118546D01*
X43500Y118689D01*
D02*
G37*
G36*
X33500D02*
X32416Y118546D01*
X31406Y118127D01*
X30538Y117462D01*
X29873Y116594D01*
X29454Y115584D01*
X29311Y114500D01*
X29454Y113416D01*
X29873Y112406D01*
X30538Y111538D01*
X31406Y110873D01*
X32416Y110454D01*
X33500Y110311D01*
X34584Y110454D01*
X35594Y110873D01*
X36462Y111538D01*
X37127Y112406D01*
X37546Y113416D01*
X37689Y114500D01*
X37546Y115584D01*
X37127Y116594D01*
X36462Y117462D01*
X35594Y118127D01*
X34584Y118546D01*
X33500Y118689D01*
D02*
G37*
G36*
X269362Y108445D02*
X268387Y108251D01*
X267560Y107698D01*
X267008Y106872D01*
X266814Y105896D01*
X267008Y104921D01*
X267560Y104095D01*
X268387Y103542D01*
X269362Y103348D01*
X270337Y103542D01*
X271164Y104095D01*
X271716Y104921D01*
X271910Y105896D01*
X271716Y106872D01*
X271164Y107698D01*
X270337Y108251D01*
X269362Y108445D01*
D02*
G37*
G36*
X154000Y110100D02*
X153327Y110012D01*
X152700Y109752D01*
X152161Y109339D01*
X151748Y108800D01*
X151488Y108173D01*
X151400Y107500D01*
X151488Y106827D01*
X151748Y106200D01*
X152161Y105661D01*
X152700Y105248D01*
X153327Y104988D01*
X154000Y104900D01*
X154155Y104920D01*
X154185Y104848D01*
X154598Y104309D01*
X155136Y103896D01*
X155764Y103636D01*
X156437Y103548D01*
X156475Y103552D01*
X156664Y103364D01*
X156752Y102691D01*
X157012Y102064D01*
X157425Y101525D01*
X157964Y101112D01*
X158591Y100853D01*
X159264Y100764D01*
X159937Y100853D01*
X160564Y101112D01*
X161102Y101525D01*
X161516Y102064D01*
X161775Y102691D01*
X161864Y103364D01*
X161775Y104037D01*
X161516Y104664D01*
X161439Y104765D01*
X161502Y104848D01*
X161762Y105475D01*
X161851Y106148D01*
X161762Y106821D01*
X161502Y107448D01*
X161089Y107986D01*
X160550Y108399D01*
X159923Y108659D01*
X159250Y108748D01*
X158577Y108659D01*
X157950Y108399D01*
X157843Y108318D01*
X157737Y108399D01*
X157109Y108659D01*
X156437Y108748D01*
X156282Y108728D01*
X156252Y108800D01*
X155839Y109339D01*
X155300Y109752D01*
X154673Y110012D01*
X154000Y110100D01*
D02*
G37*
G36*
X33500Y108689D02*
X32416Y108546D01*
X31406Y108127D01*
X30538Y107462D01*
X29873Y106594D01*
X29454Y105584D01*
X29311Y104500D01*
X29454Y103416D01*
X29873Y102406D01*
X30538Y101538D01*
X31406Y100873D01*
X32416Y100454D01*
X33500Y100311D01*
X34584Y100454D01*
X35594Y100873D01*
X36462Y101538D01*
X37127Y102406D01*
X37546Y103416D01*
X37689Y104500D01*
X37546Y105584D01*
X37127Y106594D01*
X36462Y107462D01*
X35594Y108127D01*
X34584Y108546D01*
X33500Y108689D01*
D02*
G37*
G36*
X74835Y108624D02*
X72866D01*
X71782Y108481D01*
X70772Y108063D01*
X69904Y107397D01*
X69239Y106529D01*
X68820Y105519D01*
X68678Y104435D01*
X68820Y103351D01*
X69239Y102341D01*
X69904Y101473D01*
X70772Y100808D01*
X71782Y100389D01*
X72866Y100247D01*
X74835D01*
X75919Y100389D01*
X76929Y100808D01*
X77796Y101473D01*
X78462Y102341D01*
X78881Y103351D01*
X79023Y104435D01*
X78881Y105519D01*
X78462Y106529D01*
X77796Y107397D01*
X76929Y108063D01*
X75919Y108481D01*
X74835Y108624D01*
D02*
G37*
G36*
Y98624D02*
X72866D01*
X71782Y98481D01*
X70772Y98062D01*
X69904Y97397D01*
X69239Y96529D01*
X69100Y96195D01*
X68600D01*
X68462Y96529D01*
X67796Y97397D01*
X66929Y98062D01*
X65919Y98481D01*
X64835Y98624D01*
X62866D01*
X61782Y98481D01*
X60772Y98062D01*
X59904Y97397D01*
X59239Y96529D01*
X58820Y95519D01*
X58678Y94435D01*
X58820Y93351D01*
X59239Y92341D01*
X59904Y91473D01*
X60772Y90808D01*
X61782Y90389D01*
X62866Y90246D01*
X64835D01*
X65919Y90389D01*
X66929Y90808D01*
X67796Y91473D01*
X68462Y92341D01*
X68600Y92675D01*
X69100D01*
X69239Y92341D01*
X69904Y91473D01*
X70772Y90808D01*
X71782Y90389D01*
X72866Y90246D01*
X74835D01*
X75919Y90389D01*
X76929Y90808D01*
X77796Y91473D01*
X78462Y92341D01*
X78881Y93351D01*
X79023Y94435D01*
X78881Y95519D01*
X78462Y96529D01*
X77796Y97397D01*
X76929Y98062D01*
X75919Y98481D01*
X74835Y98624D01*
D02*
G37*
G36*
X43500Y98689D02*
X42416Y98546D01*
X41406Y98127D01*
X40538Y97462D01*
X39873Y96594D01*
X39454Y95584D01*
X39311Y94500D01*
X39454Y93416D01*
X39873Y92406D01*
X40538Y91538D01*
X41406Y90873D01*
X42416Y90454D01*
X43500Y90311D01*
X44584Y90454D01*
X45594Y90873D01*
X46462Y91538D01*
X47127Y92406D01*
X47546Y93416D01*
X47689Y94500D01*
X47546Y95584D01*
X47127Y96594D01*
X46462Y97462D01*
X45594Y98127D01*
X44584Y98546D01*
X43500Y98689D01*
D02*
G37*
G36*
X33500D02*
X32416Y98546D01*
X31406Y98127D01*
X30538Y97462D01*
X29873Y96594D01*
X29454Y95584D01*
X29311Y94500D01*
X29454Y93416D01*
X29873Y92406D01*
X30538Y91538D01*
X31406Y90873D01*
X32416Y90454D01*
X33500Y90311D01*
X34584Y90454D01*
X35594Y90873D01*
X36462Y91538D01*
X37127Y92406D01*
X37546Y93416D01*
X37689Y94500D01*
X37546Y95584D01*
X37127Y96594D01*
X36462Y97462D01*
X35594Y98127D01*
X34584Y98546D01*
X33500Y98689D01*
D02*
G37*
G36*
X124647Y94280D02*
X123974Y94191D01*
X123347Y93931D01*
X122808Y93518D01*
X122395Y92980D01*
X122135Y92352D01*
X122047Y91680D01*
X122135Y91006D01*
X122395Y90379D01*
X122808Y89841D01*
X123347Y89428D01*
X123974Y89168D01*
X124647Y89079D01*
X125320Y89168D01*
X125947Y89428D01*
X126485Y89841D01*
X126899Y90379D01*
X127158Y91006D01*
X127247Y91680D01*
X127158Y92352D01*
X126899Y92980D01*
X126485Y93518D01*
X125947Y93931D01*
X125320Y94191D01*
X124647Y94280D01*
D02*
G37*
G36*
X92866Y102718D02*
X91435Y102577D01*
X90058Y102159D01*
X88789Y101481D01*
X87678Y100568D01*
X86765Y99457D01*
X86087Y98188D01*
X85669Y96811D01*
X85528Y95380D01*
X85669Y93949D01*
X86087Y92572D01*
X86765Y91303D01*
X87678Y90192D01*
X88789Y89279D01*
X90058Y88601D01*
X91435Y88183D01*
X92866Y88042D01*
X94298Y88183D01*
X95674Y88601D01*
X96943Y89279D01*
X98055Y90192D01*
X98967Y91303D01*
X99645Y92572D01*
X100063Y93949D01*
X100204Y95380D01*
X100063Y96811D01*
X99645Y98188D01*
X98967Y99457D01*
X98055Y100568D01*
X96943Y101481D01*
X95674Y102159D01*
X94298Y102577D01*
X92866Y102718D01*
D02*
G37*
G36*
X74835Y88624D02*
X72866D01*
X71782Y88481D01*
X70772Y88063D01*
X69904Y87397D01*
X69239Y86529D01*
X69100Y86195D01*
X68600D01*
X68462Y86529D01*
X67796Y87397D01*
X66929Y88063D01*
X65919Y88481D01*
X64835Y88624D01*
X62866D01*
X61782Y88481D01*
X60772Y88063D01*
X59904Y87397D01*
X59239Y86529D01*
X58820Y85519D01*
X58678Y84435D01*
X58820Y83351D01*
X59239Y82341D01*
X59904Y81473D01*
X60772Y80808D01*
X61782Y80389D01*
X62866Y80247D01*
X64835D01*
X65919Y80389D01*
X66929Y80808D01*
X67796Y81473D01*
X68462Y82341D01*
X68600Y82675D01*
X69100D01*
X69239Y82341D01*
X69904Y81473D01*
X70772Y80808D01*
X71782Y80389D01*
X72866Y80247D01*
X74835D01*
X75919Y80389D01*
X76929Y80808D01*
X77796Y81473D01*
X78462Y82341D01*
X78881Y83351D01*
X79023Y84435D01*
X78881Y85519D01*
X78462Y86529D01*
X77796Y87397D01*
X76929Y88063D01*
X75919Y88481D01*
X74835Y88624D01*
D02*
G37*
G36*
X125949Y86260D02*
X125276Y86172D01*
X124649Y85912D01*
X124110Y85499D01*
X123697Y84960D01*
X123437Y84333D01*
X123349Y83660D01*
X123437Y82987D01*
X123055Y82604D01*
X122002Y83040D01*
X120661Y83217D01*
X119320Y83040D01*
X118071Y82523D01*
X116998Y81699D01*
X116174Y80626D01*
X115657Y79377D01*
X115480Y78035D01*
X115657Y76694D01*
X116174Y75445D01*
X116998Y74372D01*
X118071Y73548D01*
X119320Y73031D01*
X120661Y72854D01*
X122002Y73031D01*
X123252Y73548D01*
X124325Y74372D01*
X125149Y75445D01*
X125411Y76079D01*
X125911D01*
X126174Y75445D01*
X126998Y74372D01*
X128071Y73548D01*
X129320Y73031D01*
X130661Y72854D01*
X132002Y73031D01*
X133252Y73548D01*
X134325Y74372D01*
X135149Y75445D01*
X135411Y76079D01*
X135911D01*
X136174Y75445D01*
X136998Y74372D01*
X138071Y73548D01*
X139320Y73031D01*
X140661Y72854D01*
X142002Y73031D01*
X143252Y73548D01*
X144325Y74372D01*
X145149Y75445D01*
X145666Y76694D01*
X145843Y78035D01*
X145666Y79377D01*
X145149Y80626D01*
X144325Y81699D01*
X143252Y82523D01*
X142002Y83040D01*
X140661Y83217D01*
X139320Y83040D01*
X138071Y82523D01*
X136998Y81699D01*
X136174Y80626D01*
X135911Y79992D01*
X135411D01*
X135149Y80626D01*
X134325Y81699D01*
X133252Y82523D01*
X132002Y83040D01*
X130661Y83217D01*
X129320Y83040D01*
X128932Y82879D01*
X128494Y83239D01*
X128549Y83660D01*
X128461Y84333D01*
X128201Y84960D01*
X127787Y85499D01*
X127249Y85912D01*
X126622Y86172D01*
X125949Y86260D01*
D02*
G37*
G36*
X43500Y88689D02*
X42416Y88546D01*
X41406Y88127D01*
X40538Y87462D01*
X39873Y86594D01*
X39454Y85584D01*
X39311Y84500D01*
X39454Y83416D01*
X39873Y82406D01*
X40538Y81538D01*
X41406Y80873D01*
X42416Y80454D01*
X43500Y80311D01*
X44584Y80454D01*
X45594Y80873D01*
X46462Y81538D01*
X47127Y82406D01*
X47546Y83416D01*
X47689Y84500D01*
X47546Y85584D01*
X47127Y86594D01*
X46462Y87462D01*
X45594Y88127D01*
X44584Y88546D01*
X43500Y88689D01*
D02*
G37*
G36*
X33500D02*
X32416Y88546D01*
X31406Y88127D01*
X30538Y87462D01*
X29873Y86594D01*
X29454Y85584D01*
X29311Y84500D01*
X29454Y83416D01*
X29873Y82406D01*
X30538Y81538D01*
X31406Y80873D01*
X32416Y80454D01*
X33500Y80311D01*
X34584Y80454D01*
X35594Y80873D01*
X36462Y81538D01*
X37127Y82406D01*
X37546Y83416D01*
X37689Y84500D01*
X37546Y85584D01*
X37127Y86594D01*
X36462Y87462D01*
X35594Y88127D01*
X34584Y88546D01*
X33500Y88689D01*
D02*
G37*
G36*
X104630Y80298D02*
X96325D01*
Y71993D01*
X104630D01*
Y80298D01*
D02*
G37*
G36*
X82100Y155921D02*
X81427Y155832D01*
X80800Y155572D01*
X80261Y155159D01*
X79848Y154621D01*
X79588Y153994D01*
X79500Y153321D01*
X79588Y152648D01*
X79848Y152021D01*
X80261Y151482D01*
X80367Y151401D01*
Y76475D01*
X80189Y76339D01*
X79776Y75800D01*
X79516Y75173D01*
X79428Y74500D01*
X79516Y73827D01*
X79776Y73200D01*
X80189Y72661D01*
X80728Y72248D01*
X81355Y71988D01*
X82028Y71900D01*
X82701Y71988D01*
X83328Y72248D01*
X83867Y72661D01*
X84280Y73200D01*
X84540Y73827D01*
X84628Y74500D01*
X84540Y75173D01*
X84280Y75800D01*
X83867Y76339D01*
X83833Y76364D01*
Y151401D01*
X83939Y151482D01*
X84352Y152021D01*
X84612Y152648D01*
X84700Y153321D01*
X84612Y153994D01*
X84352Y154621D01*
X83939Y155159D01*
X83400Y155572D01*
X82773Y155832D01*
X82100Y155921D01*
D02*
G37*
G36*
X43500Y78689D02*
X42416Y78546D01*
X41406Y78127D01*
X40538Y77462D01*
X39873Y76594D01*
X39454Y75584D01*
X39312Y74500D01*
X39454Y73416D01*
X39873Y72406D01*
X40538Y71538D01*
X41406Y70873D01*
X42416Y70454D01*
X43500Y70311D01*
X44584Y70454D01*
X45595Y70873D01*
X46462Y71538D01*
X47128Y72406D01*
X47546Y73416D01*
X47689Y74500D01*
X47546Y75584D01*
X47128Y76594D01*
X46462Y77462D01*
X45595Y78127D01*
X44584Y78546D01*
X43500Y78689D01*
D02*
G37*
G36*
X64835Y78624D02*
X62866D01*
X61782Y78481D01*
X60772Y78062D01*
X59904Y77397D01*
X59239Y76529D01*
X58820Y75519D01*
X58678Y74435D01*
X58820Y73351D01*
X59239Y72341D01*
X59904Y71473D01*
X60772Y70808D01*
X61782Y70389D01*
X62866Y70246D01*
X64835D01*
X65919Y70389D01*
X66929Y70808D01*
X67796Y71473D01*
X68462Y72341D01*
X68880Y73351D01*
X69023Y74435D01*
X68880Y75519D01*
X68462Y76529D01*
X67796Y77397D01*
X66929Y78062D01*
X65919Y78481D01*
X64835Y78624D01*
D02*
G37*
G36*
X139716Y70106D02*
X139044Y70017D01*
X138416Y69758D01*
X137878Y69345D01*
X137465Y68806D01*
X137205Y68179D01*
X137116Y67506D01*
X137205Y66833D01*
X137465Y66206D01*
X137878Y65667D01*
X138416Y65254D01*
X139044Y64994D01*
X139716Y64906D01*
X140390Y64994D01*
X141017Y65254D01*
X141555Y65667D01*
X141968Y66206D01*
X142228Y66833D01*
X142317Y67506D01*
X142228Y68179D01*
X141968Y68806D01*
X141555Y69345D01*
X141017Y69758D01*
X140390Y70017D01*
X139716Y70106D01*
D02*
G37*
G36*
X272050Y68189D02*
X270966Y68046D01*
X269956Y67627D01*
X269088Y66962D01*
X268423Y66094D01*
X268004Y65084D01*
X267861Y64000D01*
X268004Y62916D01*
X268423Y61906D01*
X269088Y61038D01*
X269956Y60373D01*
X270966Y59954D01*
X272050Y59811D01*
X273134Y59954D01*
X274144Y60373D01*
X275012Y61038D01*
X275677Y61906D01*
X276096Y62916D01*
X276239Y64000D01*
X276096Y65084D01*
X275677Y66094D01*
X275012Y66962D01*
X274144Y67627D01*
X273134Y68046D01*
X272050Y68189D01*
D02*
G37*
G36*
X242050D02*
X240966Y68046D01*
X239956Y67627D01*
X239088Y66962D01*
X238423Y66094D01*
X238004Y65084D01*
X237861Y64000D01*
X238004Y62916D01*
X238423Y61906D01*
X239088Y61038D01*
X239956Y60373D01*
X240966Y59954D01*
X242050Y59811D01*
X243134Y59954D01*
X244144Y60373D01*
X245012Y61038D01*
X245677Y61906D01*
X246096Y62916D01*
X246239Y64000D01*
X246096Y65084D01*
X245677Y66094D01*
X245012Y66962D01*
X244144Y67627D01*
X243134Y68046D01*
X242050Y68189D01*
D02*
G37*
G36*
X232050D02*
X230966Y68046D01*
X229956Y67627D01*
X229088Y66962D01*
X228423Y66094D01*
X228004Y65084D01*
X227861Y64000D01*
X228004Y62916D01*
X228423Y61906D01*
X229088Y61038D01*
X229956Y60373D01*
X230966Y59954D01*
X232050Y59811D01*
X233134Y59954D01*
X234144Y60373D01*
X235012Y61038D01*
X235677Y61906D01*
X236096Y62916D01*
X236239Y64000D01*
X236096Y65084D01*
X235677Y66094D01*
X235012Y66962D01*
X234144Y67627D01*
X233134Y68046D01*
X232050Y68189D01*
D02*
G37*
G36*
X222050D02*
X220966Y68046D01*
X219956Y67627D01*
X219088Y66962D01*
X218423Y66094D01*
X218004Y65084D01*
X217861Y64000D01*
X218004Y62916D01*
X218423Y61906D01*
X219088Y61038D01*
X219956Y60373D01*
X220966Y59954D01*
X222050Y59811D01*
X223134Y59954D01*
X224144Y60373D01*
X225012Y61038D01*
X225677Y61906D01*
X226096Y62916D01*
X226239Y64000D01*
X226096Y65084D01*
X225677Y66094D01*
X225012Y66962D01*
X224144Y67627D01*
X223134Y68046D01*
X222050Y68189D01*
D02*
G37*
G36*
X106803Y60067D02*
X105462Y59891D01*
X104212Y59373D01*
X103139Y58550D01*
X102316Y57477D01*
X102053Y56842D01*
X101553D01*
X101290Y57477D01*
X100467Y58550D01*
X99394Y59373D01*
X98144Y59891D01*
X96803Y60067D01*
X95462Y59891D01*
X94213Y59373D01*
X93139Y58550D01*
X92316Y57477D01*
X91798Y56227D01*
X91622Y54886D01*
X91798Y53545D01*
X92316Y52295D01*
X93139Y51222D01*
X94213Y50399D01*
X95462Y49881D01*
X96803Y49705D01*
X98144Y49881D01*
X99394Y50399D01*
X100467Y51222D01*
X101290Y52295D01*
X101553Y52930D01*
X102053D01*
X102316Y52295D01*
X103139Y51222D01*
X104212Y50399D01*
X105462Y49881D01*
X106803Y49705D01*
X108144Y49881D01*
X109394Y50399D01*
X110467Y51222D01*
X111290Y52295D01*
X111808Y53545D01*
X111985Y54886D01*
X111808Y56227D01*
X111290Y57477D01*
X110467Y58550D01*
X109394Y59373D01*
X108144Y59891D01*
X106803Y60067D01*
D02*
G37*
G36*
X140661Y63785D02*
X139173Y63589D01*
X137787Y63014D01*
X136596Y62101D01*
X135682Y60910D01*
X135108Y59523D01*
X134912Y58035D01*
X135108Y56547D01*
X135682Y55161D01*
X136596Y53970D01*
X137787Y53057D01*
X139173Y52482D01*
X140661Y52286D01*
X142149Y52482D01*
X143536Y53057D01*
X144727Y53970D01*
X145640Y55161D01*
X146215Y56547D01*
X146411Y58035D01*
X146215Y59523D01*
X145640Y60910D01*
X144727Y62101D01*
X143536Y63014D01*
X142149Y63589D01*
X140661Y63785D01*
D02*
G37*
G36*
X120661D02*
X119173Y63589D01*
X117787Y63014D01*
X116596Y62101D01*
X115682Y60910D01*
X115108Y59523D01*
X114912Y58035D01*
X115108Y56547D01*
X115682Y55161D01*
X116596Y53970D01*
X117787Y53057D01*
X119173Y52482D01*
X120661Y52286D01*
X122149Y52482D01*
X123536Y53057D01*
X124727Y53970D01*
X125640Y55161D01*
X126215Y56547D01*
X126411Y58035D01*
X126215Y59523D01*
X125640Y60910D01*
X124727Y62101D01*
X123536Y63014D01*
X122149Y63589D01*
X120661Y63785D01*
D02*
G37*
G36*
X272050Y58189D02*
X270966Y58046D01*
X269956Y57627D01*
X269088Y56962D01*
X268423Y56094D01*
X268004Y55084D01*
X267861Y54000D01*
X268004Y52916D01*
X268423Y51906D01*
X269088Y51038D01*
X269956Y50373D01*
X270966Y49954D01*
X272050Y49811D01*
X273134Y49954D01*
X274144Y50373D01*
X275012Y51038D01*
X275677Y51906D01*
X276096Y52916D01*
X276239Y54000D01*
X276096Y55084D01*
X275677Y56094D01*
X275012Y56962D01*
X274144Y57627D01*
X273134Y58046D01*
X272050Y58189D01*
D02*
G37*
G36*
X242050D02*
X240966Y58046D01*
X239956Y57627D01*
X239088Y56962D01*
X238423Y56094D01*
X238004Y55084D01*
X237861Y54000D01*
X238004Y52916D01*
X238423Y51906D01*
X239088Y51038D01*
X239956Y50373D01*
X240966Y49954D01*
X242050Y49811D01*
X243134Y49954D01*
X244144Y50373D01*
X245012Y51038D01*
X245677Y51906D01*
X246096Y52916D01*
X246239Y54000D01*
X246096Y55084D01*
X245677Y56094D01*
X245012Y56962D01*
X244144Y57627D01*
X243134Y58046D01*
X242050Y58189D01*
D02*
G37*
G36*
X38811Y62600D02*
X37379Y62459D01*
X36003Y62041D01*
X34734Y61363D01*
X33622Y60451D01*
X32710Y59339D01*
X32032Y58070D01*
X31614Y56694D01*
X31473Y55262D01*
X31614Y53831D01*
X32032Y52454D01*
X32710Y51186D01*
X33622Y50074D01*
X34734Y49161D01*
X36003Y48483D01*
X37379Y48066D01*
X38811Y47925D01*
X40242Y48066D01*
X41619Y48483D01*
X42887Y49161D01*
X43999Y50074D01*
X44912Y51186D01*
X45590Y52454D01*
X46007Y53831D01*
X46148Y55262D01*
X46007Y56694D01*
X45590Y58070D01*
X44912Y59339D01*
X43999Y60451D01*
X42887Y61363D01*
X41619Y62041D01*
X40242Y62459D01*
X38811Y62600D01*
D02*
G37*
G36*
X123700Y47237D02*
X123027Y47148D01*
X122400Y46888D01*
X121861Y46475D01*
X121448Y45937D01*
X121188Y45310D01*
X121100Y44637D01*
X121188Y43964D01*
X121448Y43336D01*
X121861Y42798D01*
X122400Y42385D01*
X123027Y42125D01*
X123700Y42036D01*
X124373Y42125D01*
X125000Y42385D01*
X125539Y42798D01*
X125952Y43336D01*
X126212Y43964D01*
X126300Y44637D01*
X126212Y45310D01*
X125952Y45937D01*
X125539Y46475D01*
X125000Y46888D01*
X124373Y47148D01*
X123700Y47237D01*
D02*
G37*
%LPD*%
G36*
X193369Y303225D02*
Y248531D01*
X192869Y248431D01*
X192756Y248706D01*
X192343Y249244D01*
X192237Y249325D01*
Y255570D01*
X192105Y256234D01*
X191730Y256796D01*
X187433Y261092D01*
Y297942D01*
X192908Y303416D01*
X193369Y303225D01*
D02*
G37*
D10*
X173619Y68823D02*
Y69298D01*
X172889Y70028D02*
X173619Y69298D01*
X172889Y70028D02*
Y112747D01*
X168241Y117395D02*
X172889Y112747D01*
X270765Y125661D02*
Y127994D01*
X261801Y116697D02*
X270765Y125661D01*
X255912Y116697D02*
X261801D01*
X251000Y86300D02*
Y111784D01*
X255912Y116697D01*
X184685Y148561D02*
X188123Y152000D01*
X192123D02*
X215237Y128887D01*
X188123Y152000D02*
X192123D01*
X215628Y131465D02*
X221395D01*
X197984Y149108D02*
X215628Y131465D01*
X219112Y219737D02*
X225892Y226517D01*
Y239112D01*
X219112Y177257D02*
Y219737D01*
X204677Y238467D02*
Y243999D01*
X214500Y207530D02*
Y228644D01*
X204677Y238467D02*
X214500Y228644D01*
X94163Y196270D02*
X119896D01*
X75998Y214435D02*
X94163Y196270D01*
X73850Y214435D02*
X75998D01*
X119896Y196270D02*
X122500Y198874D01*
X184685Y124473D02*
X185798Y123360D01*
X184685Y124473D02*
Y148561D01*
X176278Y75991D02*
X182985Y82698D01*
X176386Y133232D02*
X182985Y126633D01*
Y82698D02*
Y126633D01*
X255616Y202317D02*
Y212346D01*
X255388Y202089D02*
X255616Y202317D01*
X192703Y125518D02*
Y127994D01*
Y131030D01*
X191053Y132679D02*
X192703Y131030D01*
Y125518D02*
X201547Y116675D01*
X249800Y143100D02*
X249800Y143100D01*
X249800Y129804D02*
Y143100D01*
X242201Y122205D02*
X249800Y129804D01*
X242050Y122205D02*
X242201D01*
X231831Y141805D02*
X232774D01*
X231541Y141515D02*
X231831Y141805D01*
X225233Y159567D02*
X235352Y149448D01*
Y139352D02*
Y149448D01*
X235000Y139000D02*
X235352Y139352D01*
X222463Y128887D02*
X224563Y130987D01*
Y134537D01*
X215237Y128887D02*
X222463D01*
X243601Y135714D02*
Y143240D01*
X242050Y134163D02*
X243601Y135714D01*
X242050Y125700D02*
Y134163D01*
X224563Y134537D02*
X231541Y141515D01*
X201547Y104002D02*
Y116675D01*
X197800Y123413D02*
Y136826D01*
X203559Y102035D02*
Y117654D01*
X197800Y123413D02*
X203559Y117654D01*
X212000Y63969D02*
Y72321D01*
X191053Y132679D02*
Y148512D01*
X193654Y140973D02*
X197800Y136826D01*
X172591Y133232D02*
X176386D01*
X93065Y267255D02*
X103802D01*
X115839Y279292D01*
Y292212D01*
X187926Y229443D02*
Y254235D01*
X188512Y228857D02*
X188697D01*
X187926Y229443D02*
X188512Y228857D01*
X162964Y237064D02*
X178689Y221339D01*
X198937D02*
X205780Y214496D01*
X178689Y221339D02*
X198937D01*
X168120Y234312D02*
X178944Y223488D01*
X201088D02*
X209091Y215485D01*
X178944Y223488D02*
X201088D01*
X162964Y237064D02*
Y243121D01*
X168120Y234312D02*
Y245873D01*
X239453Y252673D02*
X252852D01*
X225892Y239112D02*
X239453Y252673D01*
X253525Y252000D02*
X254000D01*
X252852Y252673D02*
X253525Y252000D01*
X161000Y70900D02*
X167089D01*
X164604Y68322D02*
X174351Y58575D01*
X159932Y68322D02*
X164604D01*
X157600Y70654D02*
X159932Y68322D01*
X157600Y89451D02*
X161815Y93666D01*
X157600Y70654D02*
Y89451D01*
X190864Y159567D02*
X225233D01*
X257359Y50805D02*
Y79941D01*
X251000Y86300D02*
X257359Y79941D01*
X201300Y124362D02*
X222394Y103269D01*
Y103124D02*
Y103269D01*
X201300Y124362D02*
Y128114D01*
X197984Y149108D02*
Y153516D01*
X195775Y155725D02*
X197984Y153516D01*
X224972Y96728D02*
Y115735D01*
X196166Y144540D02*
X224972Y115735D01*
X219837Y91594D02*
X224972Y96728D01*
X219837Y70831D02*
Y91594D01*
X217874Y68868D02*
X219837Y70831D01*
X202709Y101185D02*
X203559Y102035D01*
X198323Y83594D02*
Y107500D01*
Y83594D02*
X207000Y74917D01*
X200669Y83652D02*
X212000Y72321D01*
X200669Y83652D02*
Y103124D01*
X201547Y104002D01*
X193167Y109389D02*
X194878Y111100D01*
X193167Y86345D02*
Y109389D01*
X194878Y111100D02*
X198100D01*
X227905Y122383D02*
X231234Y119054D01*
X246135D01*
X258972Y131891D01*
X147000Y227065D02*
X153565Y220500D01*
X147000Y227065D02*
Y253428D01*
X153565Y220500D02*
X167866D01*
X147000Y253428D02*
X153572Y260000D01*
X167089Y70900D02*
X172889Y65100D01*
X174351Y51955D02*
Y58575D01*
X129658Y205257D02*
Y216553D01*
Y205257D02*
X172052Y162863D01*
X133905Y220800D02*
X140500D01*
X129658Y216553D02*
X133905Y220800D01*
X133500Y258578D02*
X143078Y249000D01*
Y210372D02*
Y249000D01*
Y210372D02*
X151517Y201933D01*
X135500Y260049D02*
X144778Y250771D01*
Y211076D02*
Y250771D01*
Y211076D02*
X150425Y205429D01*
X133500Y258578D02*
Y297515D01*
X135500Y260049D02*
Y294370D01*
X156150Y226520D02*
Y262122D01*
X144500Y273772D02*
X156150Y262122D01*
X153572Y225453D02*
Y254542D01*
Y225453D02*
X156399Y222625D01*
X169875D01*
X144500Y273772D02*
Y301625D01*
X135500Y294370D02*
X138535Y297406D01*
X172889Y65100D02*
X173700D01*
X176278Y53163D02*
Y75991D01*
Y53163D02*
X180067Y49374D01*
X227405D01*
X174351Y51955D02*
X178806Y47500D01*
X82100Y74572D02*
Y153321D01*
X82028Y74500D02*
X82100Y74572D01*
X161700Y308948D02*
Y318454D01*
X173665Y253822D02*
Y296983D01*
X161700Y308948D02*
X173665Y296983D01*
X202709Y84491D02*
X214800Y72400D01*
X202709Y84491D02*
Y101185D01*
X214673Y68868D02*
X217874D01*
X189500Y121308D02*
X190686Y120122D01*
X172591Y147452D02*
X180864Y155725D01*
X195775D01*
X172591Y133232D02*
Y147452D01*
X263438Y100582D02*
X264932Y99088D01*
Y82125D02*
Y99088D01*
X264491Y81684D02*
X264932Y82125D01*
X193068Y337736D02*
X193654Y337150D01*
X195120Y345300D02*
X200453Y339967D01*
X203854Y314409D02*
Y341375D01*
X197054Y317226D02*
Y338558D01*
X196390Y348839D02*
X203854Y341375D01*
X178900Y301477D02*
X195353Y317930D01*
X180600Y300772D02*
X197054Y317226D01*
X184000Y299364D02*
X200453Y315818D01*
X195353Y317930D02*
Y337854D01*
X193654Y318634D02*
Y337150D01*
X161700Y345300D02*
X195120D01*
X173027Y347139D02*
X195686D01*
X185700Y298660D02*
X202153Y315113D01*
X195103Y305659D02*
X203854Y314409D01*
X196803Y304954D02*
X205554Y313705D01*
X202162Y350338D02*
Y356885D01*
X202153Y315113D02*
Y340671D01*
X132764Y337736D02*
X193068D01*
X200453Y315818D02*
Y339967D01*
X202162Y350338D02*
X205554Y346947D01*
X195686Y347139D02*
X202153Y340671D01*
X143602Y341398D02*
X194214D01*
X151629Y343410D02*
X194606D01*
X182300Y300068D02*
X198753Y316522D01*
X194214Y341398D02*
X197054Y338558D01*
X193708Y339500D02*
X195353Y337854D01*
X177200Y302181D02*
X193654Y318634D01*
X198753Y316522D02*
Y339263D01*
X205554Y313705D02*
Y346947D01*
X194606Y343410D02*
X198753Y339263D01*
X133500Y339500D02*
X193708D01*
X181661Y348839D02*
X196390D01*
X236599Y231363D02*
X255616Y212346D01*
X229987Y231363D02*
X236599D01*
X167866Y220500D02*
X192366Y196000D01*
X192500D01*
X204934Y175534D02*
Y197964D01*
X214500Y207530D01*
X250916Y273000D02*
X254000D01*
X244916Y279000D02*
X250916Y273000D01*
X235500Y279000D02*
X244916D01*
X203559Y174159D02*
X204934Y175534D01*
X203559Y173684D02*
Y174159D01*
X140467Y305659D02*
X144500Y301625D01*
X121045Y305659D02*
X140467D01*
X117567Y302181D02*
X121045Y305659D01*
X98000Y305842D02*
X101661Y302181D01*
X117567D01*
X98000Y305842D02*
Y333000D01*
X181210Y243044D02*
Y248498D01*
X184000Y258161D02*
X187926Y254235D01*
X184000Y258161D02*
Y299364D01*
X190504Y247406D02*
Y255570D01*
X185700Y260374D02*
Y298660D01*
Y260374D02*
X190504Y255570D01*
X151517Y201933D02*
X152709D01*
X150425Y205429D02*
X152709D01*
X159264Y194146D02*
X160555Y192855D01*
X156686Y205364D02*
X162964Y199086D01*
X156686Y205364D02*
Y216344D01*
X161617Y206429D02*
X161842Y206654D01*
X161617Y205601D02*
Y206429D01*
Y205601D02*
X165542Y201676D01*
X226751Y270251D02*
X235500Y279000D01*
X226751Y254542D02*
Y270251D01*
X213500Y241292D02*
X226751Y254542D01*
X213500Y233500D02*
Y241292D01*
Y233500D02*
X217295Y229705D01*
Y177844D02*
Y229705D01*
X208601Y169150D02*
X217295Y177844D01*
X201698Y169150D02*
X208601D01*
X198690Y172158D02*
X201698Y169150D01*
X181007Y172158D02*
X198690D01*
X165542Y187623D02*
X181007Y172158D01*
X165542Y187623D02*
Y201676D01*
X182603Y166500D02*
X208356D01*
X219112Y177257D01*
X177200Y252549D02*
Y302181D01*
X175500Y253253D02*
Y300551D01*
X162964Y243121D02*
X173665Y253822D01*
X169820Y245168D02*
X177200Y252549D01*
X169820Y239156D02*
Y245168D01*
X168120Y245873D02*
X175500Y253253D01*
X172847Y303204D02*
Y317751D01*
Y303204D02*
X175500Y300551D01*
X178700Y243631D02*
Y248392D01*
X177000Y244335D02*
Y249096D01*
X178700Y248392D02*
X180600Y250292D01*
X177000Y249096D02*
X178900Y250996D01*
X157000Y323153D02*
X161700Y318454D01*
X167444Y323153D02*
X172847Y317751D01*
X171500Y237000D02*
Y237475D01*
X169820Y239156D02*
X171500Y237475D01*
X178900Y250996D02*
Y301477D01*
X180600Y250292D02*
Y300772D01*
X182300Y249587D02*
Y300068D01*
X195103Y244221D02*
Y305659D01*
X196803Y247294D02*
Y304954D01*
X181210Y248498D02*
X182300Y249587D01*
X178632Y243563D02*
X178700Y243631D01*
X177012Y240701D02*
Y241176D01*
X178632Y242796D02*
Y243563D01*
X177012Y241176D02*
X178632Y242796D01*
X173665Y241000D02*
X177000Y244335D01*
X198078Y245830D02*
Y246019D01*
X196803Y247294D02*
X198078Y246019D01*
X193654Y241894D02*
X193990Y242230D01*
Y243108D01*
X195103Y244221D01*
X204677Y243999D02*
X204934Y244256D01*
X169875Y222625D02*
X196500Y196000D01*
X228384Y229760D02*
X229987Y231363D01*
X228384Y225231D02*
Y229760D01*
X227905Y207631D02*
Y208000D01*
Y207631D02*
X229000Y206536D01*
Y175102D02*
Y206536D01*
X233500Y171800D02*
Y219567D01*
X231055Y222012D02*
X233500Y219567D01*
X224563Y162863D02*
X233500Y171800D01*
X227905Y218215D02*
X230985Y215136D01*
Y172158D02*
Y215136D01*
X223390Y164563D02*
X230985Y172158D01*
X231055Y222012D02*
Y228785D01*
X225892Y171993D02*
X229000Y175102D01*
X190686Y86422D02*
Y120122D01*
Y86422D02*
X199797Y77311D01*
X133500Y297515D02*
X138535Y302551D01*
X160555Y177804D02*
Y192855D01*
X162964Y186139D02*
Y199086D01*
Y186139D02*
X182603Y166500D01*
X160555Y177804D02*
X173795Y164563D01*
X193654Y144540D02*
X196166D01*
X161815Y93666D02*
X167814D01*
X178806Y47500D02*
X254055D01*
X257359Y50805D01*
X227405Y49374D02*
X232000Y53969D01*
X168241Y117395D02*
Y119054D01*
X193167Y86345D02*
X201921Y77591D01*
Y64047D02*
Y77591D01*
X199797Y69803D02*
Y77311D01*
X207000Y58969D02*
Y74917D01*
X197197Y67202D02*
X199797Y69803D01*
X227905Y218215D02*
Y218584D01*
X173795Y164563D02*
X223390D01*
X172052Y162863D02*
X224563D01*
X167000Y353165D02*
X173027Y347139D01*
X177000Y353500D02*
X181661Y348839D01*
X137000Y348000D02*
X143602Y341398D01*
X127000Y346000D02*
X133500Y339500D01*
X117000Y353500D02*
X132764Y337736D01*
X157000Y350000D02*
X161700Y345300D01*
X147000Y348039D02*
X151629Y343410D01*
X187000Y353500D02*
X192000Y358500D01*
X200547D01*
X202162Y356885D01*
X167000Y353165D02*
Y353500D01*
X157000Y350000D02*
Y353500D01*
X147000Y348039D02*
Y353500D01*
X137000Y348000D02*
Y353500D01*
X127000Y346000D02*
Y353500D01*
X264491Y81684D02*
X274000D01*
X260898D02*
X264491D01*
X260898Y100582D02*
X263438D01*
X274000Y81684D02*
X277827D01*
X273451Y82233D02*
X274000Y81684D01*
X273451Y82233D02*
Y99457D01*
X274576Y100582D01*
X277827D01*
X173500Y241000D02*
X173665D01*
X197197Y58772D02*
Y67202D01*
X207000Y58969D02*
X212000Y53969D01*
X197197Y58772D02*
X202000Y53969D01*
X201921Y64047D02*
X202000Y63969D01*
D154*
X154698Y147950D02*
X158454Y144194D01*
Y115393D02*
Y144194D01*
X154664Y151078D02*
Y154401D01*
Y151078D02*
X154698Y151044D01*
X154664Y154401D02*
X154698Y154435D01*
Y147950D02*
Y151044D01*
X165573Y100582D02*
Y103705D01*
Y108274D01*
Y97437D02*
Y100582D01*
X158454Y115393D02*
X165573Y108274D01*
D162*
X104631Y311915D02*
Y315067D01*
Y308764D02*
Y311915D01*
Y305612D02*
Y308764D01*
X119564Y330000D02*
X130154D01*
X104631Y315067D02*
X119564Y330000D01*
X130154D02*
X137000Y323153D01*
D185*
X86803Y54886D02*
D03*
D187*
X33500Y74500D02*
D03*
Y224500D02*
D03*
Y144500D02*
D03*
X43500Y104500D02*
D03*
Y124500D02*
D03*
Y174500D02*
D03*
Y244500D02*
D03*
Y204500D02*
D03*
X90478Y76146D02*
D03*
X177000Y311600D02*
D03*
Y321600D02*
D03*
X157000D02*
D03*
X137000D02*
D03*
X167000D02*
D03*
X184100Y74100D02*
D03*
X117000Y353500D02*
D03*
X187000D02*
D03*
X177000D02*
D03*
X167000D02*
D03*
X157000D02*
D03*
X147000D02*
D03*
X137000D02*
D03*
X127000D02*
D03*
X207000D02*
D03*
X137000Y331700D02*
D03*
X115839Y292212D02*
D03*
X232050Y54000D02*
D03*
X202050D02*
D03*
X212050D02*
D03*
Y64000D02*
D03*
X182050D02*
D03*
D189*
X187000Y331700D02*
D03*
D190*
X68713Y55262D02*
D03*
X159264Y55262D02*
D03*
Y283608D02*
D03*
X68713D02*
D03*
D191*
X63850Y104435D02*
D03*
Y124435D02*
D03*
Y174435D02*
D03*
Y204435D02*
D03*
Y244435D02*
D03*
X73850Y74435D02*
D03*
Y144435D02*
D03*
Y214435D02*
D03*
Y224435D02*
D03*
D193*
X260898Y81684D02*
D03*
Y100582D02*
D03*
X277827Y81684D02*
D03*
Y100582D02*
D03*
D196*
X138744Y175358D02*
D03*
X95091D02*
D03*
D198*
X104500Y135594D02*
D03*
X110406Y132395D02*
D03*
X107453D02*
D03*
X110406Y135594D02*
D03*
X104500Y132395D02*
D03*
X107453Y135594D02*
D03*
X99319Y135819D02*
D03*
Y132395D02*
D03*
X116092Y132420D02*
D03*
Y135595D02*
D03*
X96255Y133994D02*
D03*
X93302D02*
D03*
X90350D02*
D03*
X119044Y135595D02*
D03*
Y132395D02*
D03*
X133751Y133994D02*
D03*
X136704D02*
D03*
X139657D02*
D03*
X142676Y132470D02*
D03*
Y135613D02*
D03*
X98138Y209336D02*
D03*
Y218935D02*
D03*
Y215735D02*
D03*
Y212536D02*
D03*
X115855Y209336D02*
D03*
Y218935D02*
D03*
Y215735D02*
D03*
Y212536D02*
D03*
X121997Y132395D02*
D03*
Y135595D02*
D03*
X130738Y133969D02*
D03*
X127726Y133944D02*
D03*
X87397Y133994D02*
D03*
X101091Y209336D02*
D03*
Y212536D02*
D03*
Y215735D02*
D03*
Y218935D02*
D03*
X106996Y212536D02*
D03*
X104043D02*
D03*
X109949D02*
D03*
Y215735D02*
D03*
X104043D02*
D03*
X106996D02*
D03*
Y218935D02*
D03*
X104043D02*
D03*
X109949D02*
D03*
X106996Y209336D02*
D03*
X109949D02*
D03*
X104043D02*
D03*
X112902D02*
D03*
Y218935D02*
D03*
Y215735D02*
D03*
Y212536D02*
D03*
X150854Y132395D02*
D03*
X147902Y135594D02*
D03*
Y132395D02*
D03*
X150854Y135594D02*
D03*
X153807Y132395D02*
D03*
Y135594D02*
D03*
X204934Y301251D02*
D03*
X201178Y303271D02*
D03*
X230985Y300712D02*
D03*
X214243Y252000D02*
D03*
X211824Y249244D02*
D03*
X77800Y312684D02*
D03*
Y315646D02*
D03*
X25700Y85912D02*
D03*
X26000Y132341D02*
D03*
X25700Y180454D02*
D03*
Y215584D02*
D03*
Y264400D02*
D03*
X27300Y295500D02*
D03*
X46007Y296732D02*
D03*
X169820Y265522D02*
D03*
X160003Y247141D02*
D03*
X164525Y249793D02*
D03*
X95097Y199086D02*
D03*
X94936Y186683D02*
D03*
X130084Y150721D02*
D03*
Y146112D02*
D03*
X86803Y150311D02*
D03*
Y145025D02*
D03*
X83098Y162760D02*
D03*
X88000Y42385D02*
D03*
X144000D02*
D03*
X168241Y42607D02*
D03*
X173901Y42798D02*
D03*
X212592Y79143D02*
D03*
X216285Y76369D02*
D03*
X259443Y105409D02*
D03*
X262694Y105212D02*
D03*
X278500Y107306D02*
D03*
X275286Y105212D02*
D03*
X261828Y75000D02*
D03*
X277407D02*
D03*
X274093D02*
D03*
X265012D02*
D03*
X274093Y78032D02*
D03*
X265012Y78228D02*
D03*
X235772Y127457D02*
D03*
X274160Y130994D02*
D03*
X154480Y70900D02*
D03*
X185798Y123360D02*
D03*
X255388Y202089D02*
D03*
X104349Y87598D02*
D03*
Y84284D02*
D03*
X169667Y76752D02*
D03*
X161000Y70900D02*
D03*
X173619Y68823D02*
D03*
X192703Y127994D02*
D03*
X249800Y143100D02*
D03*
X232774Y141805D02*
D03*
X235000Y139000D02*
D03*
X221395Y131465D02*
D03*
X240000Y160000D02*
D03*
X239602Y139354D02*
D03*
X243601Y143240D02*
D03*
X236776Y156234D02*
D03*
X191053Y148512D02*
D03*
X193654Y140973D02*
D03*
X188029Y144633D02*
D03*
X187661Y137291D02*
D03*
X109949Y268689D02*
D03*
X114906Y273772D02*
D03*
X117961Y243600D02*
D03*
Y247929D02*
D03*
X125249Y264732D02*
D03*
X128084Y267255D02*
D03*
X87964Y274045D02*
D03*
X105163Y273370D02*
D03*
X93065Y267255D02*
D03*
X90409Y256520D02*
D03*
X276000Y360000D02*
D03*
X272000Y352000D02*
D03*
X276000Y344000D02*
D03*
X272000Y336000D02*
D03*
X276000Y328000D02*
D03*
X272000Y320000D02*
D03*
X276000Y312000D02*
D03*
X272000Y304000D02*
D03*
X276000Y296000D02*
D03*
X272000Y288000D02*
D03*
X276000Y280000D02*
D03*
X272000Y272000D02*
D03*
X268000Y360000D02*
D03*
X264000Y352000D02*
D03*
X268000Y344000D02*
D03*
X264000Y336000D02*
D03*
X268000Y328000D02*
D03*
X264000Y320000D02*
D03*
X268000Y312000D02*
D03*
X264000Y304000D02*
D03*
X268000Y296000D02*
D03*
X260000Y360000D02*
D03*
Y328000D02*
D03*
X252000Y360000D02*
D03*
X244000D02*
D03*
X240000Y352000D02*
D03*
X244000Y328000D02*
D03*
X236000Y360000D02*
D03*
X232000Y352000D02*
D03*
X236000Y344000D02*
D03*
X232000Y336000D02*
D03*
X236000Y328000D02*
D03*
X232000Y320000D02*
D03*
X236000Y312000D02*
D03*
X228000Y360000D02*
D03*
X224000Y352000D02*
D03*
X228000Y344000D02*
D03*
Y328000D02*
D03*
X224000Y320000D02*
D03*
X228000Y312000D02*
D03*
X224000Y304000D02*
D03*
X220000Y360000D02*
D03*
Y344000D02*
D03*
Y328000D02*
D03*
Y312000D02*
D03*
X216000Y304000D02*
D03*
X212000Y328000D02*
D03*
Y312000D02*
D03*
X204000Y280000D02*
D03*
Y152000D02*
D03*
X184000Y320000D02*
D03*
X168000Y272000D02*
D03*
X148000Y264000D02*
D03*
X144000Y256000D02*
D03*
Y48000D02*
D03*
X140000Y280000D02*
D03*
Y264000D02*
D03*
X120000Y336000D02*
D03*
Y176000D02*
D03*
X124000Y72000D02*
D03*
X112000Y336000D02*
D03*
Y176000D02*
D03*
X108000Y328000D02*
D03*
X88000Y48000D02*
D03*
X84000Y328000D02*
D03*
Y312000D02*
D03*
X80000Y160000D02*
D03*
Y64000D02*
D03*
X76000Y360000D02*
D03*
X72000Y352000D02*
D03*
X68000Y360000D02*
D03*
X64000Y352000D02*
D03*
X68000Y344000D02*
D03*
Y328000D02*
D03*
X60000Y360000D02*
D03*
Y328000D02*
D03*
X56000Y256000D02*
D03*
Y64000D02*
D03*
Y48000D02*
D03*
X52000Y360000D02*
D03*
Y296000D02*
D03*
X44000Y360000D02*
D03*
X40000Y352000D02*
D03*
Y336000D02*
D03*
X44000Y328000D02*
D03*
X40000Y320000D02*
D03*
X36000Y360000D02*
D03*
X32000Y352000D02*
D03*
X36000Y344000D02*
D03*
X32000Y336000D02*
D03*
X36000Y328000D02*
D03*
Y312000D02*
D03*
X32000Y272000D02*
D03*
X190323Y267136D02*
D03*
X185700Y217386D02*
D03*
X188697Y228857D02*
D03*
X182952Y228373D02*
D03*
X176659Y201565D02*
D03*
X179323Y204546D02*
D03*
X176664Y207285D02*
D03*
X178689Y218200D02*
D03*
X176051Y105599D02*
D03*
X156654Y95757D02*
D03*
X153514Y94291D02*
D03*
X106512Y98427D02*
D03*
X215356Y260684D02*
D03*
X278594Y258478D02*
D03*
X269556Y257984D02*
D03*
X255395Y259025D02*
D03*
X240937Y257534D02*
D03*
X237009Y254600D02*
D03*
X224254Y246963D02*
D03*
X217295Y235579D02*
D03*
X128536Y232400D02*
D03*
X131100D02*
D03*
X133664D02*
D03*
X259402Y125842D02*
D03*
X270765Y127994D02*
D03*
X256353Y103863D02*
D03*
X245600Y106700D02*
D03*
X246309Y93047D02*
D03*
X250542Y80306D02*
D03*
X254119Y74533D02*
D03*
X250542Y76369D02*
D03*
X222394Y103124D02*
D03*
X201300Y128114D02*
D03*
X208936Y108776D02*
D03*
X227232Y127240D02*
D03*
X198323Y107500D02*
D03*
X198100Y111100D02*
D03*
X227905Y122383D02*
D03*
X258972Y131891D02*
D03*
X132236Y215485D02*
D03*
X140500Y220800D02*
D03*
X153572Y260000D02*
D03*
Y254542D02*
D03*
X173700Y65100D02*
D03*
X179283Y72606D02*
D03*
X82100Y153321D02*
D03*
X82028Y74500D02*
D03*
X214800Y72400D02*
D03*
X214673Y68868D02*
D03*
X190864Y159567D02*
D03*
X189500Y121308D02*
D03*
X242050Y122205D02*
D03*
Y125700D02*
D03*
X237009Y257632D02*
D03*
X244809Y268686D02*
D03*
X249579Y268691D02*
D03*
X249584Y263921D02*
D03*
X244814Y263916D02*
D03*
X242452Y245018D02*
D03*
X242447Y249788D02*
D03*
X247217Y249793D02*
D03*
X247222Y245023D02*
D03*
X244047Y205180D02*
D03*
X251129Y200373D02*
D03*
X247222Y216840D02*
D03*
X215450Y271703D02*
D03*
X219008Y268282D02*
D03*
X214243Y288741D02*
D03*
X214520Y293054D02*
D03*
X214374Y282445D02*
D03*
X221690Y279691D02*
D03*
X224643Y274300D02*
D03*
X244487Y219059D02*
D03*
X240787Y237213D02*
D03*
X198078Y207989D02*
D03*
Y217386D02*
D03*
X192500Y196000D02*
D03*
X238928Y199827D02*
D03*
X211824Y199079D02*
D03*
X211704Y180721D02*
D03*
X258444Y212974D02*
D03*
X261240Y210295D02*
D03*
X257500Y230870D02*
D03*
X201922Y181566D02*
D03*
X104631Y305612D02*
D03*
Y308764D02*
D03*
Y311915D02*
D03*
Y315067D02*
D03*
X103510Y326760D02*
D03*
X181210Y243044D02*
D03*
X185000Y252549D02*
D03*
X152709Y201933D02*
D03*
Y205429D02*
D03*
X159264Y194146D02*
D03*
X156686Y216344D02*
D03*
X161842Y206654D02*
D03*
X156150Y226520D02*
D03*
X98000Y333000D02*
D03*
X254000Y273000D02*
D03*
X205780Y214496D02*
D03*
X160189Y238744D02*
D03*
X177012Y240701D02*
D03*
X198078Y245830D02*
D03*
X204934Y244256D02*
D03*
X191076Y283621D02*
D03*
X209091Y215485D02*
D03*
X196500Y196000D02*
D03*
X125093Y174965D02*
D03*
X78693Y292287D02*
D03*
X240734Y273500D02*
D03*
X269967Y230500D02*
D03*
X274715Y199459D02*
D03*
Y194776D02*
D03*
X261634Y241784D02*
D03*
X254000Y252000D02*
D03*
X228384Y225231D02*
D03*
X221922Y239531D02*
D03*
X225892Y204669D02*
D03*
X222500D02*
D03*
X227905Y208000D02*
D03*
X188108Y103364D02*
D03*
X154664Y151078D02*
D03*
X154698Y154435D02*
D03*
Y147950D02*
D03*
X138535Y302551D02*
D03*
X193654Y144540D02*
D03*
X165573Y103705D02*
D03*
Y100582D02*
D03*
Y97437D02*
D03*
X167814Y93666D02*
D03*
X176051Y102253D02*
D03*
X168241Y119054D02*
D03*
X195745Y101766D02*
D03*
X226751Y214965D02*
D03*
X225892Y171993D02*
D03*
X203559Y173684D02*
D03*
X143000Y197918D02*
D03*
X141113Y201259D02*
D03*
X144500D02*
D03*
X26000Y43000D02*
D03*
X278500Y45500D02*
D03*
X276030Y42500D02*
D03*
X221500Y226500D02*
D03*
X171500Y237000D02*
D03*
X173500Y241000D02*
D03*
X122500Y198874D02*
D03*
X90974Y229761D02*
D03*
X118562Y160398D02*
D03*
Y162760D02*
D03*
X137954Y160398D02*
D03*
Y162760D02*
D03*
X275000Y269311D02*
D03*
X256347Y298173D02*
D03*
X251129D02*
D03*
X161484Y165382D02*
D03*
Y163020D02*
D03*
X231029Y291331D02*
D03*
X161764Y160272D02*
D03*
X153890Y120240D02*
D03*
X154087Y114121D02*
D03*
Y117287D02*
D03*
X122547Y143429D02*
D03*
X125777Y153321D02*
D03*
X226500Y284000D02*
D03*
X53850Y244435D02*
D03*
X219638Y255500D02*
D03*
X222500Y195000D02*
D03*
X79823Y327528D02*
D03*
X86961Y292490D02*
D03*
Y295410D02*
D03*
X231055Y222012D02*
D03*
Y228785D02*
D03*
X118851Y117593D02*
D03*
X110685Y114121D02*
D03*
X95185Y218935D02*
D03*
Y215735D02*
D03*
Y212536D02*
D03*
X118807Y218935D02*
D03*
Y215735D02*
D03*
Y212536D02*
D03*
X121760Y218935D02*
D03*
X110685Y117287D02*
D03*
Y120453D02*
D03*
X124713Y215735D02*
D03*
Y218935D02*
D03*
X121760Y215735D02*
D03*
Y212536D02*
D03*
X53831Y204435D02*
D03*
X55071Y43643D02*
D03*
X53850Y219435D02*
D03*
X53831Y174435D02*
D03*
Y139694D02*
D03*
Y104435D02*
D03*
X191882Y291558D02*
D03*
X188535D02*
D03*
X118807Y209336D02*
D03*
X95185D02*
D03*
X121760D02*
D03*
X124713Y212536D02*
D03*
Y209336D02*
D03*
X227905Y218584D02*
D03*
X222787Y149826D02*
D03*
X219112Y147950D02*
D03*
X222394Y145607D02*
D03*
X215570Y149492D02*
D03*
X215087Y145831D02*
D03*
X193654Y241894D02*
D03*
X190504Y247406D02*
D03*
X172591Y133232D02*
D03*
X138535Y297406D02*
D03*
X141786Y148561D02*
D03*
Y153412D02*
D03*
Y150924D02*
D03*
X98365Y162760D02*
D03*
Y160398D02*
D03*
X98384Y150924D02*
D03*
Y153412D02*
D03*
Y148561D02*
D03*
X200799Y288741D02*
D03*
X201470Y265774D02*
D03*
X206252Y256461D02*
D03*
X179480Y227329D02*
D03*
X138535Y210398D02*
D03*
X129480Y197366D02*
D03*
X129495Y201435D02*
D03*
X177209Y125358D02*
D03*
X96409Y113439D02*
D03*
X116135Y189532D02*
D03*
X262513Y260451D02*
D03*
X262945Y272650D02*
D03*
X261852Y282445D02*
D03*
X261764Y276933D02*
D03*
X249130Y288548D02*
D03*
X243752Y299439D02*
D03*
X238634D02*
D03*
X221231Y290615D02*
D03*
X90898Y287563D02*
D03*
X29985Y322342D02*
D03*
D199*
X202050Y64000D02*
D03*
M02*
