G04*
G04 #@! TF.GenerationSoftware,Altium Limited,Altium Designer,21.0.8 (223)*
G04*
G04 Layer_Physical_Order=1*
G04 Layer_Color=255*
%FSLAX25Y25*%
%MOIN*%
G70*
G04*
G04 #@! TF.SameCoordinates,C8F2EFAD-F301-47D2-81E3-A82B1A8C5C35*
G04*
G04*
G04 #@! TF.FilePolarity,Positive*
G04*
G01*
G75*
%ADD10C,0.01000*%
%ADD14C,0.02000*%
%ADD20C,0.00800*%
%ADD41R,0.03150X0.03150*%
%ADD42R,0.03150X0.02953*%
%ADD43R,0.02953X0.03150*%
%ADD44R,0.05709X0.10039*%
%ADD45R,0.07087X0.04724*%
G04:AMPARAMS|DCode=46|XSize=9.84mil|YSize=23.62mil|CornerRadius=4.92mil|HoleSize=0mil|Usage=FLASHONLY|Rotation=90.000|XOffset=0mil|YOffset=0mil|HoleType=Round|Shape=RoundedRectangle|*
%AMROUNDEDRECTD46*
21,1,0.00984,0.01378,0,0,90.0*
21,1,0.00000,0.02362,0,0,90.0*
1,1,0.00984,0.00689,0.00000*
1,1,0.00984,0.00689,0.00000*
1,1,0.00984,-0.00689,0.00000*
1,1,0.00984,-0.00689,0.00000*
%
%ADD46ROUNDEDRECTD46*%
%ADD47O,0.01181X0.06299*%
%ADD48R,0.01968X0.01772*%
G04:AMPARAMS|DCode=49|XSize=68.9mil|YSize=98.43mil|CornerRadius=3.45mil|HoleSize=0mil|Usage=FLASHONLY|Rotation=180.000|XOffset=0mil|YOffset=0mil|HoleType=Round|Shape=RoundedRectangle|*
%AMROUNDEDRECTD49*
21,1,0.06890,0.09153,0,0,180.0*
21,1,0.06201,0.09843,0,0,180.0*
1,1,0.00689,-0.03100,0.04577*
1,1,0.00689,0.03100,0.04577*
1,1,0.00689,0.03100,-0.04577*
1,1,0.00689,-0.03100,-0.04577*
%
%ADD49ROUNDEDRECTD49*%
%ADD50R,0.01772X0.01968*%
G04:AMPARAMS|DCode=51|XSize=68.9mil|YSize=98.43mil|CornerRadius=3.45mil|HoleSize=0mil|Usage=FLASHONLY|Rotation=90.000|XOffset=0mil|YOffset=0mil|HoleType=Round|Shape=RoundedRectangle|*
%AMROUNDEDRECTD51*
21,1,0.06890,0.09153,0,0,90.0*
21,1,0.06201,0.09843,0,0,90.0*
1,1,0.00689,0.04577,0.03100*
1,1,0.00689,0.04577,-0.03100*
1,1,0.00689,-0.04577,-0.03100*
1,1,0.00689,-0.04577,0.03100*
%
%ADD51ROUNDEDRECTD51*%
%ADD52O,0.01102X0.03150*%
%ADD53R,0.12953X0.09488*%
%ADD54O,0.01772X0.05512*%
%ADD55O,0.06299X0.01181*%
%ADD56R,0.02756X0.01575*%
%ADD57R,0.01378X0.01968*%
G04:AMPARAMS|DCode=58|XSize=23.62mil|YSize=9.06mil|CornerRadius=4.53mil|HoleSize=0mil|Usage=FLASHONLY|Rotation=0.000|XOffset=0mil|YOffset=0mil|HoleType=Round|Shape=RoundedRectangle|*
%AMROUNDEDRECTD58*
21,1,0.02362,0.00000,0,0,0.0*
21,1,0.01456,0.00906,0,0,0.0*
1,1,0.00906,0.00728,0.00000*
1,1,0.00906,-0.00728,0.00000*
1,1,0.00906,-0.00728,0.00000*
1,1,0.00906,0.00728,0.00000*
%
%ADD58ROUNDEDRECTD58*%
G04:AMPARAMS|DCode=59|XSize=23.62mil|YSize=9.06mil|CornerRadius=4.53mil|HoleSize=0mil|Usage=FLASHONLY|Rotation=270.000|XOffset=0mil|YOffset=0mil|HoleType=Round|Shape=RoundedRectangle|*
%AMROUNDEDRECTD59*
21,1,0.02362,0.00000,0,0,270.0*
21,1,0.01456,0.00906,0,0,270.0*
1,1,0.00906,0.00000,-0.00728*
1,1,0.00906,0.00000,0.00728*
1,1,0.00906,0.00000,0.00728*
1,1,0.00906,0.00000,-0.00728*
%
%ADD59ROUNDEDRECTD59*%
%ADD60O,0.01181X0.07087*%
%ADD61O,0.07087X0.01181*%
%ADD62R,0.08000X0.05500*%
%ADD63R,0.05906X0.04331*%
%ADD64R,0.03150X0.06693*%
%ADD65R,0.06693X0.03150*%
%ADD66R,0.06400X0.07000*%
%ADD67R,0.03600X0.03600*%
%ADD68R,0.03600X0.05000*%
%ADD69R,0.03600X0.03600*%
%ADD70R,0.05000X0.03600*%
%ADD71R,0.02992X0.09449*%
%ADD72R,0.13400X0.03800*%
%ADD73R,0.03347X0.01181*%
%ADD74R,0.03900X0.04000*%
%ADD75R,0.03150X0.03150*%
%ADD76R,0.02165X0.03347*%
%ADD77R,0.06693X0.03937*%
%ADD78R,0.06693X0.03937*%
%ADD79R,0.04724X0.05906*%
%ADD80R,0.05500X0.10236*%
%ADD81R,0.07000X0.06400*%
%ADD82R,0.05400X0.12000*%
%ADD83R,0.01350X0.05315*%
%ADD84R,0.05315X0.01350*%
%ADD85O,0.09843X0.02756*%
%ADD86O,0.09449X0.02756*%
%ADD151R,0.03937X0.06299*%
%ADD152R,0.08465X0.06693*%
%ADD153C,0.01500*%
%ADD154C,0.03000*%
%ADD155C,0.02500*%
%ADD156C,0.00900*%
%ADD157C,0.00700*%
%ADD158C,0.01100*%
%ADD159C,0.01800*%
%ADD160C,0.01700*%
%ADD161C,0.01200*%
%ADD162C,0.03500*%
%ADD163C,0.05000*%
%ADD164C,0.07000*%
%ADD165R,0.02800X0.01100*%
%ADD166R,0.01984X0.23986*%
%ADD167R,0.01335X0.01770*%
%ADD168R,0.02904X0.02679*%
%ADD169R,0.01673X0.05079*%
%ADD170R,0.06437X0.09449*%
%ADD171R,0.05689X0.12795*%
%ADD172R,0.01102X0.03616*%
%ADD173R,0.20965X0.03150*%
G04:AMPARAMS|DCode=174|XSize=20.26mil|YSize=13.21mil|CornerRadius=0mil|HoleSize=0mil|Usage=FLASHONLY|Rotation=45.000|XOffset=0mil|YOffset=0mil|HoleType=Round|Shape=Rectangle|*
%AMROTATEDRECTD174*
4,1,4,-0.00249,-0.01183,-0.01183,-0.00249,0.00249,0.01183,0.01183,0.00249,-0.00249,-0.01183,0.0*
%
%ADD174ROTATEDRECTD174*%

G04:AMPARAMS|DCode=175|XSize=20.26mil|YSize=13.21mil|CornerRadius=0mil|HoleSize=0mil|Usage=FLASHONLY|Rotation=135.000|XOffset=0mil|YOffset=0mil|HoleType=Round|Shape=Rectangle|*
%AMROTATEDRECTD175*
4,1,4,0.01183,-0.00249,0.00249,-0.01183,-0.01183,0.00249,-0.00249,0.01183,0.01183,-0.00249,0.0*
%
%ADD175ROTATEDRECTD175*%

%ADD176R,0.06437X0.12795*%
%ADD177R,0.03071X0.15821*%
%ADD178R,0.01968X0.01845*%
G04:AMPARAMS|DCode=179|XSize=67.5mil|YSize=13.21mil|CornerRadius=0mil|HoleSize=0mil|Usage=FLASHONLY|Rotation=135.000|XOffset=0mil|YOffset=0mil|HoleType=Round|Shape=Rectangle|*
%AMROTATEDRECTD179*
4,1,4,0.02853,-0.01919,0.01919,-0.02853,-0.02853,0.01919,-0.01919,0.02853,0.02853,-0.01919,0.0*
%
%ADD179ROTATEDRECTD179*%

%ADD180R,0.02535X0.24209*%
%ADD181R,0.02385X0.04528*%
%ADD182R,0.02922X0.03150*%
%ADD183R,0.03087X0.06791*%
%ADD184R,0.27894X0.07321*%
%ADD185C,0.07874*%
%ADD186C,0.09000*%
%ADD187C,0.05906*%
%ADD188R,0.05906X0.05906*%
%ADD189R,0.05906X0.05906*%
%ADD190C,0.23622*%
%ADD191O,0.07874X0.05906*%
%ADD192R,0.07874X0.05906*%
%ADD193C,0.04724*%
%ADD194C,0.02598*%
%ADD195O,0.02284X0.03937*%
%ADD196C,0.07087*%
%ADD197P,0.08352X4X90.0*%
%ADD198C,0.02756*%
%ADD199O,0.05500X0.07000*%
G36*
X280194Y257211D02*
X279546Y256480D01*
X270454D01*
Y251416D01*
X269640Y250713D01*
X269556Y250683D01*
X269100Y250844D01*
Y255224D01*
X268968Y255888D01*
X268592Y256450D01*
X267874Y257168D01*
Y262134D01*
X269296D01*
Y267683D01*
X267874D01*
Y286217D01*
X267742Y286881D01*
X267367Y287443D01*
X261614Y293195D01*
X261052Y293571D01*
X260389Y293703D01*
X259027D01*
Y297228D01*
X248359D01*
X248200Y298162D01*
Y298803D01*
X244422D01*
Y296084D01*
X243082D01*
Y298803D01*
X242824D01*
Y300536D01*
X243677D01*
Y304989D01*
X244677Y305567D01*
X245269Y305225D01*
X246699Y304633D01*
X248195Y304232D01*
X249730Y304030D01*
X251278D01*
X252813Y304232D01*
X254309Y304633D01*
X255739Y305225D01*
X257080Y305999D01*
X258308Y306942D01*
X259403Y308037D01*
X260346Y309265D01*
X261120Y310606D01*
X261712Y312036D01*
X262113Y313532D01*
X262315Y315067D01*
Y316615D01*
X262113Y318150D01*
X261712Y319646D01*
X261120Y321076D01*
X260346Y322417D01*
X259403Y323645D01*
X258308Y324740D01*
X257080Y325682D01*
X255739Y326457D01*
X254309Y327049D01*
X252813Y327450D01*
X251278Y327652D01*
X249730D01*
X248195Y327450D01*
X246699Y327049D01*
X245269Y326457D01*
X243928Y325682D01*
X242700Y324740D01*
X241605Y323645D01*
X240662Y322417D01*
X239888Y321076D01*
X239296Y319646D01*
X238895Y318150D01*
X238693Y316615D01*
Y315067D01*
X238895Y313532D01*
X239296Y312036D01*
X239888Y310606D01*
X240662Y309265D01*
X241605Y308037D01*
X242556Y307086D01*
X242441Y306521D01*
X242173Y306086D01*
X238325D01*
Y306086D01*
X237969D01*
Y306086D01*
X232616D01*
Y300536D01*
X233300D01*
Y298664D01*
X208633D01*
Y299254D01*
X203574D01*
Y299296D01*
X202022D01*
X200751Y300566D01*
X196420Y304898D01*
X195693Y305384D01*
X194834Y305555D01*
X151603D01*
X149859Y307299D01*
X149944Y308625D01*
X149962Y308638D01*
X150627Y309506D01*
X151046Y310516D01*
X151189Y311600D01*
X151046Y312684D01*
X150627Y313694D01*
X149962Y314562D01*
X149243Y315113D01*
Y318087D01*
X149962Y318638D01*
X150627Y319506D01*
X151046Y320516D01*
X151189Y321600D01*
X151046Y322684D01*
X150627Y323694D01*
X149962Y324562D01*
X149876Y324628D01*
X149783Y324959D01*
X149855Y325904D01*
X152739Y328788D01*
X153990Y328768D01*
X154059Y328722D01*
X154906Y328073D01*
X155916Y327654D01*
X157000Y327511D01*
X158084Y327654D01*
X159094Y328073D01*
X159962Y328738D01*
X160627Y329606D01*
X161046Y330616D01*
X161189Y331700D01*
X161046Y332784D01*
X160627Y333794D01*
X160536Y333914D01*
X160991Y334368D01*
X161389Y334964D01*
X161528Y335666D01*
Y337766D01*
X162252D01*
X162951Y337905D01*
X163543Y338301D01*
X163939Y338893D01*
X164078Y339592D01*
X163939Y340290D01*
X163543Y340882D01*
X162951Y341278D01*
X162252Y341417D01*
X159741D01*
X159693Y341427D01*
X159644Y341417D01*
X157134D01*
X156435Y341278D01*
X155843Y340882D01*
X155447Y340290D01*
X155308Y339592D01*
X155447Y338893D01*
X155843Y338301D01*
X156435Y337905D01*
X157134Y337766D01*
X157858D01*
Y336586D01*
X157085Y335877D01*
X157000Y335889D01*
X155916Y335746D01*
X154906Y335327D01*
X154733Y335195D01*
X153733Y335688D01*
Y343867D01*
X154506Y344512D01*
X155406Y344220D01*
X155447Y344011D01*
X155843Y343419D01*
X156435Y343023D01*
X157134Y342884D01*
X162252D01*
X162565Y342946D01*
X163885D01*
X165315Y341516D01*
X165315Y341516D01*
X165878Y341140D01*
X166023Y341111D01*
Y339149D01*
X169022D01*
X173809Y334363D01*
X173373Y333794D01*
X172954Y332784D01*
X172811Y331700D01*
X172954Y330616D01*
X173373Y329606D01*
X174038Y328738D01*
X174906Y328073D01*
X175916Y327654D01*
X177000Y327511D01*
X178084Y327654D01*
X179094Y328073D01*
X179962Y328738D01*
X180627Y329606D01*
X181046Y330616D01*
X181189Y331700D01*
X181046Y332784D01*
X180627Y333794D01*
X180618Y333806D01*
X190961Y344150D01*
X199866D01*
X200627Y344301D01*
X201272Y344732D01*
X203406Y346866D01*
X203837Y347511D01*
X203988Y348272D01*
Y357430D01*
X203837Y358191D01*
X203833Y358197D01*
X204367Y359197D01*
X208491D01*
X210957Y356732D01*
Y343886D01*
X208635Y341564D01*
X206036D01*
Y338966D01*
X203374Y336304D01*
X203046Y336440D01*
Y336440D01*
X193954D01*
Y330103D01*
X203046D01*
Y331445D01*
X203315D01*
X204076Y331596D01*
X204721Y332027D01*
X208905Y336212D01*
X211586D01*
Y338892D01*
X212374Y339680D01*
X213516Y339408D01*
X213739Y339075D01*
X215450Y337364D01*
X215068Y336440D01*
X213953D01*
Y330103D01*
X223046D01*
Y336440D01*
X220996D01*
Y336618D01*
X220845Y337379D01*
X220414Y338024D01*
X217133Y341305D01*
Y358466D01*
X216982Y359227D01*
X216551Y359872D01*
X211470Y364953D01*
X210825Y365384D01*
X210064Y365535D01*
X91723D01*
X90962Y365384D01*
X90317Y364953D01*
X70200Y344836D01*
X69769Y344191D01*
X69618Y343430D01*
Y324571D01*
X69769Y323810D01*
X70200Y323165D01*
X74500Y318866D01*
X75145Y318435D01*
X75906Y318283D01*
X79953D01*
Y317103D01*
X89047D01*
Y323440D01*
X79953D01*
Y322260D01*
X76729D01*
X73594Y325394D01*
Y330678D01*
X78775D01*
Y331445D01*
X79953D01*
Y330103D01*
X89047D01*
Y336440D01*
X85716D01*
Y338860D01*
X87964D01*
Y347166D01*
X85716D01*
Y349849D01*
X91923Y356056D01*
X92847Y355674D01*
Y349347D01*
X93096D01*
Y347166D01*
X92257D01*
Y338860D01*
X99381D01*
Y347166D01*
X98542D01*
Y349347D01*
X101153D01*
Y357653D01*
X95013D01*
X94617Y358566D01*
X95130Y359197D01*
X105033D01*
X105418Y358197D01*
X105163Y357816D01*
X105037Y357182D01*
X104906Y357127D01*
X104038Y356462D01*
X103373Y355594D01*
X102954Y354584D01*
X102811Y353500D01*
X102954Y352416D01*
X103373Y351406D01*
X104038Y350538D01*
X104906Y349873D01*
X105916Y349454D01*
X107000Y349311D01*
X108084Y349454D01*
X109094Y349873D01*
X109962Y350538D01*
X110627Y351406D01*
X111046Y352416D01*
X111189Y353500D01*
X111046Y354584D01*
X110627Y355594D01*
X110443Y355835D01*
X110936Y356835D01*
X113064D01*
X113557Y355835D01*
X113373Y355594D01*
X112954Y354584D01*
X112811Y353500D01*
X112954Y352416D01*
X113373Y351406D01*
X114038Y350538D01*
X114906Y349873D01*
X115916Y349454D01*
X117000Y349311D01*
X118084Y349454D01*
X119094Y349873D01*
X119962Y350538D01*
X120627Y351406D01*
X121046Y352416D01*
X121189Y353500D01*
X121046Y354584D01*
X120627Y355594D01*
X120443Y355835D01*
X120936Y356835D01*
X123064D01*
X123557Y355835D01*
X123373Y355594D01*
X122954Y354584D01*
X122811Y353500D01*
X122954Y352416D01*
X123373Y351406D01*
X124038Y350538D01*
X124906Y349873D01*
X125916Y349454D01*
X127000Y349311D01*
X128084Y349454D01*
X129094Y349873D01*
X129962Y350538D01*
X130627Y351406D01*
X131046Y352416D01*
X131189Y353500D01*
X131046Y354584D01*
X130627Y355594D01*
X130443Y355835D01*
X130936Y356835D01*
X133064D01*
X133557Y355835D01*
X133373Y355594D01*
X132954Y354584D01*
X132811Y353500D01*
X132954Y352416D01*
X133373Y351406D01*
X134038Y350538D01*
X134906Y349873D01*
X135283Y349716D01*
X135290Y349698D01*
X135309Y348623D01*
X135071Y348464D01*
X130434Y343827D01*
X130058Y343265D01*
X129927Y342601D01*
Y338888D01*
X128927Y338548D01*
X128839Y338663D01*
X128300Y339076D01*
X127673Y339336D01*
X127000Y339424D01*
X126327Y339336D01*
X125700Y339076D01*
X125161Y338663D01*
X124748Y338124D01*
X124488Y337497D01*
X124400Y336824D01*
X124417Y336693D01*
X115818Y328093D01*
X115442Y327531D01*
X115310Y326868D01*
Y318080D01*
X114761D01*
Y317039D01*
X111870D01*
Y318179D01*
X107304D01*
Y317461D01*
X106913Y317200D01*
X106304Y317033D01*
X105931Y317319D01*
X105304Y317578D01*
X104631Y317667D01*
X103958Y317578D01*
X103331Y317319D01*
X102793Y316905D01*
X102379Y316367D01*
X102120Y315740D01*
X102031Y315067D01*
X102120Y314394D01*
X102379Y313767D01*
X102591Y313491D01*
X102379Y313215D01*
X102120Y312588D01*
X102031Y311915D01*
X102120Y311242D01*
X102379Y310615D01*
X102591Y310339D01*
X102379Y310064D01*
X102120Y309437D01*
X102031Y308764D01*
X102120Y308091D01*
X102379Y307464D01*
X102591Y307188D01*
X102379Y306912D01*
X102120Y306285D01*
X102031Y305612D01*
X102120Y304939D01*
X102379Y304312D01*
X102793Y303774D01*
X103331Y303360D01*
X103958Y303101D01*
X104631Y303012D01*
X105304Y303101D01*
X105931Y303360D01*
X106304Y303647D01*
X106913Y303479D01*
X107304Y303218D01*
Y302983D01*
X107599D01*
Y294411D01*
X107750Y293650D01*
X108181Y293005D01*
X109538Y291649D01*
X110183Y291217D01*
X110943Y291066D01*
X111818D01*
X112212Y290117D01*
X112877Y289250D01*
X113745Y288584D01*
X114755Y288166D01*
X115036Y288129D01*
X114970Y287129D01*
X112439D01*
X112395Y287235D01*
X111730Y288102D01*
X110862Y288768D01*
X109852Y289186D01*
X108768Y289329D01*
X107684Y289186D01*
X106674Y288768D01*
X105806Y288102D01*
X105140Y287235D01*
X104722Y286225D01*
X104579Y285140D01*
X104722Y284056D01*
X105140Y283046D01*
X105806Y282179D01*
X106674Y281513D01*
X106710Y281498D01*
X106511Y280498D01*
X105141D01*
X101697Y283942D01*
X98253Y280498D01*
X86310D01*
X86309Y280499D01*
Y282119D01*
X86323Y282152D01*
X86411Y282825D01*
X86323Y283498D01*
X86063Y284125D01*
X85650Y284663D01*
Y285331D01*
X86063Y285869D01*
X86323Y286496D01*
X86411Y287169D01*
X86323Y287842D01*
X86063Y288469D01*
X85650Y289008D01*
X85191Y289360D01*
X85503Y289827D01*
X85635Y290488D01*
X85503Y291148D01*
X85129Y291707D01*
X84841Y291900D01*
X84792Y292067D01*
Y292845D01*
X84841Y293012D01*
X85129Y293205D01*
X85503Y293764D01*
X85635Y294425D01*
X85503Y295085D01*
X85287Y295409D01*
X85503Y295733D01*
X85635Y296393D01*
X85503Y297053D01*
X85303Y297354D01*
X86042Y298047D01*
X86360Y297803D01*
X87017Y297531D01*
X87557Y297460D01*
X87588Y297445D01*
X87910Y297109D01*
X88296Y296438D01*
X88287Y296393D01*
X88418Y295733D01*
X88634Y295409D01*
X88418Y295085D01*
X88287Y294425D01*
X88418Y293764D01*
X88634Y293440D01*
X88418Y293116D01*
X88287Y292456D01*
X88418Y291796D01*
X88792Y291236D01*
X89352Y290862D01*
X90012Y290731D01*
X90660D01*
X90701Y290723D01*
X94410D01*
X95074Y290855D01*
X95636Y291230D01*
X98029Y293623D01*
X98405Y294185D01*
X98536Y294849D01*
Y301343D01*
Y305079D01*
X98536Y305079D01*
X98405Y305742D01*
X98029Y306304D01*
X95250Y309083D01*
X94688Y309459D01*
X94024Y309591D01*
X67491D01*
X66828Y309459D01*
X66266Y309083D01*
X66266Y309083D01*
X59865Y302682D01*
X33467D01*
X32760Y303389D01*
Y303724D01*
X32760Y304724D01*
Y309432D01*
X32760D01*
Y309839D01*
X32760D01*
Y315388D01*
X27211D01*
Y309839D01*
X27211D01*
Y309432D01*
X27211D01*
Y304724D01*
X27211Y304080D01*
X27211Y303080D01*
Y298371D01*
X32760D01*
Y299216D01*
X58447D01*
X58829Y298292D01*
X51964Y291426D01*
X51531Y290862D01*
X51259Y290205D01*
X51166Y289501D01*
Y287260D01*
X50166Y287128D01*
X50093Y287403D01*
X49500Y288834D01*
X48726Y290175D01*
X47784Y291403D01*
X46689Y292498D01*
X45461Y293440D01*
X44120Y294215D01*
X42689Y294807D01*
X41194Y295208D01*
X39659Y295410D01*
X38110D01*
X36575Y295208D01*
X35080Y294807D01*
X33650Y294215D01*
X32309Y293440D01*
X31080Y292498D01*
X29985Y291403D01*
X29043Y290175D01*
X28269Y288834D01*
X27676Y287403D01*
X27276Y285908D01*
X27073Y284373D01*
Y282825D01*
X27276Y281290D01*
X27676Y279794D01*
X28269Y278364D01*
X29043Y277023D01*
X29985Y275795D01*
X31080Y274700D01*
X32309Y273757D01*
X33650Y272983D01*
X35080Y272391D01*
X36575Y271990D01*
X38110Y271788D01*
X39659D01*
X41194Y271990D01*
X42689Y272391D01*
X44120Y272983D01*
X45461Y273757D01*
X46689Y274700D01*
X47784Y275795D01*
X48726Y277023D01*
X49500Y278364D01*
X50093Y279794D01*
X50166Y280069D01*
X51166Y279938D01*
Y268167D01*
X45499D01*
X44584Y268546D01*
X43500Y268689D01*
X42416Y268546D01*
X41406Y268127D01*
X40538Y267462D01*
X39873Y266594D01*
X39454Y265584D01*
X39311Y264500D01*
X39454Y263416D01*
X39873Y262406D01*
X40079Y262137D01*
Y256863D01*
X39873Y256594D01*
X39454Y255584D01*
X39311Y254500D01*
X39454Y253416D01*
X39708Y252804D01*
X38860Y252237D01*
X37562Y253536D01*
X37689Y254500D01*
X37546Y255584D01*
X37127Y256594D01*
X36462Y257462D01*
X35594Y258127D01*
X34584Y258546D01*
X33500Y258689D01*
X32416Y258546D01*
X31406Y258127D01*
X30538Y257462D01*
X29873Y256594D01*
X29454Y255584D01*
X29311Y254500D01*
X29454Y253416D01*
X29873Y252406D01*
X30538Y251538D01*
X31406Y250873D01*
X32416Y250454D01*
X33500Y250311D01*
X34584Y250454D01*
X34892Y250582D01*
X37444Y248029D01*
X38089Y247598D01*
X38850Y247447D01*
X67916D01*
X68677Y247598D01*
X68926Y247765D01*
X69619Y247025D01*
X69239Y246529D01*
X68820Y245519D01*
X68678Y244435D01*
X68820Y243351D01*
X69239Y242341D01*
X69371Y242168D01*
X68878Y241168D01*
X68850D01*
X68187Y241036D01*
X67625Y240661D01*
X65500Y238536D01*
X64835Y238624D01*
X62866D01*
X61782Y238481D01*
X60772Y238063D01*
X59904Y237397D01*
X59721Y237158D01*
X46695D01*
X46462Y237462D01*
X45594Y238127D01*
X44584Y238546D01*
X43500Y238689D01*
X42416Y238546D01*
X41406Y238127D01*
X40538Y237462D01*
X39873Y236594D01*
X39454Y235584D01*
X39311Y234500D01*
X39454Y233416D01*
X39873Y232406D01*
X40538Y231538D01*
X41406Y230873D01*
X42416Y230454D01*
X43500Y230311D01*
X44584Y230454D01*
X45594Y230873D01*
X46462Y231538D01*
X46595Y231712D01*
X59721D01*
X59904Y231473D01*
X60772Y230808D01*
X61782Y230389D01*
X62866Y230246D01*
X64835D01*
X65919Y230389D01*
X65953Y230404D01*
X66520Y229556D01*
X65500Y228536D01*
X64835Y228624D01*
X62866D01*
X61782Y228481D01*
X60772Y228063D01*
X59904Y227397D01*
X59721Y227158D01*
X46695D01*
X46462Y227462D01*
X45594Y228127D01*
X44584Y228546D01*
X43500Y228689D01*
X42416Y228546D01*
X41406Y228127D01*
X40538Y227462D01*
X39873Y226594D01*
X39454Y225584D01*
X39311Y224500D01*
X39454Y223416D01*
X39873Y222406D01*
X40538Y221538D01*
X41406Y220873D01*
X42416Y220454D01*
X43500Y220311D01*
X44584Y220454D01*
X45594Y220873D01*
X46462Y221538D01*
X46595Y221712D01*
X59721D01*
X59904Y221473D01*
X60772Y220808D01*
X61782Y220389D01*
X62866Y220247D01*
X64835D01*
X65919Y220389D01*
X66929Y220808D01*
X67796Y221473D01*
X68462Y222341D01*
X68880Y223351D01*
X69023Y224435D01*
X68880Y225519D01*
X68462Y226529D01*
X68433Y226567D01*
X69568Y227702D01*
X76864D01*
X77193Y227767D01*
X78023Y227269D01*
X78193Y227076D01*
Y218353D01*
X77193Y217860D01*
X76929Y218062D01*
X75919Y218481D01*
X74835Y218624D01*
X72866D01*
X71782Y218481D01*
X70772Y218062D01*
X69904Y217397D01*
X69437Y216788D01*
X69117Y216703D01*
X68584D01*
X68264Y216788D01*
X67796Y217397D01*
X66929Y218062D01*
X65919Y218481D01*
X64835Y218624D01*
X62866D01*
X61782Y218481D01*
X60772Y218062D01*
X59904Y217397D01*
X59721Y217158D01*
X46695D01*
X46462Y217462D01*
X45594Y218127D01*
X44584Y218546D01*
X43500Y218689D01*
X42416Y218546D01*
X41406Y218127D01*
X40538Y217462D01*
X39873Y216594D01*
X39454Y215584D01*
X39311Y214500D01*
X39454Y213416D01*
X39708Y212804D01*
X38860Y212237D01*
X37562Y213536D01*
X37689Y214500D01*
X37546Y215584D01*
X37127Y216594D01*
X36462Y217462D01*
X35594Y218127D01*
X34584Y218546D01*
X33500Y218689D01*
X32416Y218546D01*
X31406Y218127D01*
X30538Y217462D01*
X29873Y216594D01*
X29454Y215584D01*
X29311Y214500D01*
X29454Y213416D01*
X29873Y212406D01*
X30538Y211538D01*
X31406Y210873D01*
X32416Y210454D01*
X33500Y210311D01*
X34584Y210454D01*
X34892Y210582D01*
X37444Y208029D01*
X38089Y207598D01*
X38850Y207447D01*
X68682D01*
X69017Y207031D01*
X69227Y206502D01*
X68820Y205519D01*
X68678Y204435D01*
X68820Y203351D01*
X69152Y202549D01*
X68027Y201423D01*
X39674D01*
X37562Y203536D01*
X37689Y204500D01*
X37546Y205584D01*
X37127Y206594D01*
X36462Y207462D01*
X35594Y208127D01*
X34584Y208546D01*
X33500Y208689D01*
X32416Y208546D01*
X31406Y208127D01*
X30538Y207462D01*
X29873Y206594D01*
X29454Y205584D01*
X29311Y204500D01*
X29454Y203416D01*
X29873Y202406D01*
X30538Y201538D01*
X31406Y200873D01*
X32416Y200454D01*
X33500Y200311D01*
X34584Y200454D01*
X34892Y200582D01*
X37444Y198029D01*
X38089Y197598D01*
X38850Y197447D01*
X39419D01*
X39812Y196447D01*
X39454Y195584D01*
X39311Y194500D01*
X39454Y193416D01*
X39708Y192804D01*
X38860Y192237D01*
X37562Y193536D01*
X37689Y194500D01*
X37546Y195584D01*
X37127Y196594D01*
X36462Y197462D01*
X35594Y198127D01*
X34584Y198546D01*
X33500Y198689D01*
X32416Y198546D01*
X31406Y198127D01*
X30538Y197462D01*
X29873Y196594D01*
X29454Y195584D01*
X29311Y194500D01*
X29454Y193416D01*
X29873Y192406D01*
X30538Y191538D01*
X31406Y190873D01*
X32416Y190454D01*
X33500Y190311D01*
X34584Y190454D01*
X34892Y190582D01*
X37444Y188029D01*
X38089Y187598D01*
X38850Y187447D01*
X39419D01*
X39812Y186447D01*
X39454Y185584D01*
X39311Y184500D01*
X39454Y183416D01*
X39708Y182804D01*
X38860Y182237D01*
X37562Y183536D01*
X37689Y184500D01*
X37546Y185584D01*
X37127Y186594D01*
X36462Y187462D01*
X35594Y188127D01*
X34584Y188546D01*
X33500Y188689D01*
X32416Y188546D01*
X31406Y188127D01*
X30538Y187462D01*
X29873Y186594D01*
X29454Y185584D01*
X29311Y184500D01*
X29454Y183416D01*
X29873Y182406D01*
X30538Y181538D01*
X31406Y180873D01*
X32416Y180454D01*
X33500Y180311D01*
X34584Y180454D01*
X34892Y180582D01*
X37444Y178029D01*
X38089Y177598D01*
X38850Y177447D01*
X68682D01*
X69017Y177031D01*
X69227Y176502D01*
X68820Y175519D01*
X68678Y174435D01*
X68820Y173351D01*
X69152Y172549D01*
X68027Y171423D01*
X39674D01*
X37562Y173536D01*
X37689Y174500D01*
X37546Y175584D01*
X37127Y176594D01*
X36462Y177462D01*
X35594Y178127D01*
X34584Y178546D01*
X33500Y178689D01*
X32416Y178546D01*
X31406Y178127D01*
X30538Y177462D01*
X29873Y176594D01*
X29454Y175584D01*
X29311Y174500D01*
X29454Y173416D01*
X29873Y172406D01*
X30538Y171538D01*
X31406Y170873D01*
X32416Y170454D01*
X33500Y170311D01*
X34584Y170454D01*
X34892Y170582D01*
X37444Y168029D01*
X38089Y167598D01*
X38850Y167447D01*
X39419D01*
X39812Y166447D01*
X39454Y165584D01*
X39311Y164500D01*
X39454Y163416D01*
X39708Y162804D01*
X38860Y162237D01*
X37562Y163536D01*
X37689Y164500D01*
X37546Y165584D01*
X37127Y166594D01*
X36462Y167462D01*
X35594Y168127D01*
X34584Y168546D01*
X33500Y168689D01*
X32416Y168546D01*
X31406Y168127D01*
X30538Y167462D01*
X29873Y166594D01*
X29454Y165584D01*
X29311Y164500D01*
X29454Y163416D01*
X29873Y162406D01*
X30538Y161538D01*
X31406Y160873D01*
X32416Y160454D01*
X33500Y160311D01*
X34584Y160454D01*
X34892Y160582D01*
X37444Y158029D01*
X38089Y157598D01*
X38850Y157447D01*
X39419D01*
X39812Y156447D01*
X39454Y155584D01*
X39311Y154500D01*
X39454Y153416D01*
X39708Y152804D01*
X38860Y152237D01*
X37562Y153536D01*
X37689Y154500D01*
X37546Y155584D01*
X37127Y156594D01*
X36462Y157462D01*
X35594Y158127D01*
X34584Y158546D01*
X33500Y158689D01*
X32416Y158546D01*
X31406Y158127D01*
X30538Y157462D01*
X29873Y156594D01*
X29454Y155584D01*
X29311Y154500D01*
X29454Y153416D01*
X29873Y152406D01*
X30538Y151538D01*
X31406Y150873D01*
X32416Y150454D01*
X33500Y150311D01*
X34584Y150454D01*
X34892Y150582D01*
X37444Y148029D01*
X38089Y147598D01*
X38850Y147447D01*
X39419D01*
X39812Y146447D01*
X39454Y145584D01*
X39311Y144500D01*
X39454Y143416D01*
X39873Y142406D01*
X40538Y141538D01*
X41406Y140873D01*
X42416Y140454D01*
X43500Y140311D01*
X44584Y140454D01*
X45594Y140873D01*
X46462Y141538D01*
X46595Y141712D01*
X59721D01*
X59904Y141473D01*
X60772Y140808D01*
X61782Y140389D01*
X62866Y140246D01*
X64835D01*
X65919Y140389D01*
X66929Y140808D01*
X67796Y141473D01*
X68462Y142341D01*
X68880Y143351D01*
X69023Y144435D01*
X68880Y145519D01*
X68496Y146447D01*
X68703Y147030D01*
X68996Y147476D01*
X69611Y147598D01*
X70256Y148029D01*
X72519Y150292D01*
X72866Y150247D01*
X74835D01*
X75919Y150389D01*
X76929Y150808D01*
X77796Y151473D01*
X78462Y152341D01*
X78582Y152630D01*
X79303Y152643D01*
X79630Y152547D01*
X79848Y152021D01*
X80261Y151482D01*
X80800Y151069D01*
X81427Y150809D01*
X82100Y150721D01*
X82773Y150809D01*
X83400Y151069D01*
X83939Y151482D01*
X84352Y152021D01*
X84612Y152648D01*
X84700Y153321D01*
X84612Y153994D01*
X84352Y154621D01*
X83939Y155159D01*
X83400Y155572D01*
X82773Y155832D01*
X82100Y155921D01*
X81427Y155832D01*
X80800Y155572D01*
X80261Y155159D01*
X79984Y154798D01*
X79321Y154857D01*
X78946Y155025D01*
X78881Y155519D01*
X78462Y156529D01*
X77796Y157397D01*
X76929Y158063D01*
X75919Y158481D01*
X74835Y158624D01*
X72866D01*
X72174Y158533D01*
X71707Y159480D01*
X72519Y160292D01*
X72866Y160247D01*
X74835D01*
X75919Y160389D01*
X76929Y160808D01*
X77796Y161473D01*
X78462Y162341D01*
X78881Y163351D01*
X79023Y164435D01*
X78881Y165519D01*
X78462Y166529D01*
X77796Y167397D01*
X76929Y168062D01*
X75919Y168481D01*
X74835Y168624D01*
X72866D01*
X72174Y168533D01*
X71707Y169480D01*
X72519Y170292D01*
X72866Y170247D01*
X74835D01*
X75919Y170389D01*
X76929Y170808D01*
X77796Y171473D01*
X78462Y172341D01*
X78881Y173351D01*
X79023Y174435D01*
X78881Y175519D01*
X78462Y176529D01*
X77796Y177397D01*
X76929Y178062D01*
X75919Y178481D01*
X74835Y178624D01*
X72866D01*
X72174Y178533D01*
X71707Y179480D01*
X72519Y180292D01*
X72866Y180246D01*
X74835D01*
X75919Y180389D01*
X76929Y180808D01*
X77796Y181473D01*
X78462Y182341D01*
X78881Y183351D01*
X79023Y184435D01*
X78881Y185519D01*
X78462Y186529D01*
X77796Y187397D01*
X76929Y188063D01*
X75919Y188481D01*
X74835Y188624D01*
X72866D01*
X72174Y188532D01*
X71707Y189480D01*
X72519Y190292D01*
X72866Y190246D01*
X74835D01*
X75919Y190389D01*
X76929Y190808D01*
X77796Y191473D01*
X78462Y192341D01*
X78881Y193351D01*
X79023Y194435D01*
X78881Y195519D01*
X78462Y196529D01*
X77796Y197397D01*
X76929Y198063D01*
X75919Y198481D01*
X74835Y198624D01*
X72866D01*
X72174Y198532D01*
X71707Y199480D01*
X72519Y200292D01*
X72866Y200247D01*
X74835D01*
X75919Y200389D01*
X76929Y200808D01*
X77326Y201113D01*
X77527Y201134D01*
X78493Y200913D01*
X78569Y200852D01*
X78701Y200655D01*
X79830Y199526D01*
X80392Y199151D01*
X81055Y199019D01*
X81064D01*
X81439Y198022D01*
Y195472D01*
X81439Y194828D01*
X81439Y193828D01*
Y189119D01*
X86989D01*
Y189964D01*
X90014D01*
X90677Y190095D01*
X91240Y190471D01*
X92123Y191355D01*
X92499Y191917D01*
X92631Y192580D01*
Y193253D01*
X93672D01*
Y198158D01*
X93673Y198802D01*
X93672Y199866D01*
X94322Y200434D01*
X94673Y200579D01*
X95185Y200512D01*
X95858Y200600D01*
X95931Y200561D01*
X96075Y199837D01*
X96536Y199147D01*
X96611Y198385D01*
X95962Y197736D01*
X95586Y197174D01*
X95454Y196510D01*
Y194118D01*
X95349Y194037D01*
X94936Y193498D01*
X94676Y192871D01*
X94587Y192198D01*
X94676Y191525D01*
X94936Y190898D01*
X95349Y190360D01*
X95888Y189946D01*
X96515Y189687D01*
X97188Y189598D01*
X97753Y189673D01*
X97928Y189633D01*
X98753Y188974D01*
Y186757D01*
X103219D01*
Y179782D01*
X102541Y179501D01*
X101550Y178741D01*
X100790Y177750D01*
X100312Y176596D01*
X100149Y175358D01*
X100312Y174120D01*
X100790Y172966D01*
X101550Y171975D01*
X102541Y171215D01*
X103219Y170934D01*
Y169960D01*
X101265D01*
Y155560D01*
X101285D01*
Y143724D01*
X101285D01*
X101012Y142837D01*
X82591D01*
X82123Y142744D01*
X81726Y142479D01*
X81461Y142082D01*
X81368Y141613D01*
Y138464D01*
X81461Y137996D01*
X81726Y137599D01*
X81836Y137525D01*
Y135570D01*
X97636D01*
Y137240D01*
X103252D01*
X103500Y137191D01*
X104183Y137327D01*
X104484Y137528D01*
X104785Y137327D01*
X105468Y137191D01*
X106152Y137327D01*
X106453Y137528D01*
X106754Y137327D01*
X107437Y137191D01*
X108120Y137327D01*
X108700Y137714D01*
X108850Y137939D01*
X108858Y137942D01*
X109953D01*
X109961Y137939D01*
X110111Y137714D01*
X110691Y137327D01*
X111374Y137191D01*
X112057Y137327D01*
X112637Y137714D01*
X112873Y138068D01*
X114107D01*
Y137032D01*
X119460D01*
Y142582D01*
X118994D01*
X118611Y143506D01*
X118937Y143832D01*
X119313Y144394D01*
X119401Y144837D01*
X125605D01*
Y150190D01*
X121339D01*
X120486Y150546D01*
Y155899D01*
X115661D01*
Y169960D01*
X108215D01*
Y171898D01*
X108316Y171975D01*
X109076Y172966D01*
X109554Y174120D01*
X109717Y175358D01*
X109554Y176596D01*
X109076Y177750D01*
X108316Y178741D01*
X108215Y178819D01*
Y189532D01*
Y196979D01*
X109215Y197391D01*
X109383Y197221D01*
Y192465D01*
X114932D01*
Y196052D01*
X117064D01*
X117728Y196184D01*
X118290Y196559D01*
X119207Y197476D01*
X119547Y197508D01*
X120452Y197308D01*
X120661Y197035D01*
X121200Y196622D01*
X121827Y196362D01*
X122500Y196274D01*
X123173Y196362D01*
X123800Y196622D01*
X124339Y197035D01*
X124752Y197574D01*
X125012Y198201D01*
X125100Y198874D01*
X125012Y199547D01*
X124752Y200174D01*
X124339Y200713D01*
X124066Y200922D01*
X123888Y201730D01*
X124480Y202562D01*
X146978D01*
X147642Y202694D01*
X148204Y203070D01*
X149022Y203888D01*
X150159Y203767D01*
X150435Y203318D01*
X150457Y203233D01*
X150197Y202606D01*
X150109Y201933D01*
X150197Y201260D01*
X150457Y200633D01*
X150870Y200095D01*
X151409Y199681D01*
X152036Y199422D01*
X152709Y199333D01*
X153382Y199422D01*
X154009Y199681D01*
X154547Y200095D01*
X154930Y200593D01*
X162831D01*
Y196304D01*
X166069D01*
X166925Y195956D01*
Y191930D01*
X162074D01*
X161673Y192588D01*
X161551Y192930D01*
X161775Y193473D01*
X161864Y194146D01*
X161775Y194819D01*
X161516Y195446D01*
X161102Y195984D01*
X160564Y196397D01*
X159937Y196657D01*
X159264Y196746D01*
X158591Y196657D01*
X157964Y196397D01*
X157425Y195984D01*
X157287Y195805D01*
X156122Y195590D01*
X156016Y195653D01*
X155479Y196012D01*
X154816Y196144D01*
X138973D01*
X138310Y196012D01*
X137748Y195636D01*
X136326Y194214D01*
X135950Y193652D01*
X135878Y193291D01*
X134973D01*
Y188989D01*
X128962D01*
X127774Y190178D01*
X127791Y190309D01*
X127703Y190982D01*
X127443Y191609D01*
X127030Y192148D01*
X126491Y192561D01*
X125864Y192821D01*
X125191Y192909D01*
X124518Y192821D01*
X123891Y192561D01*
X123353Y192148D01*
X122939Y191609D01*
X122680Y190982D01*
X122591Y190309D01*
X122653Y189841D01*
X122566Y189709D01*
X122218Y189389D01*
X121793Y189162D01*
X121492Y189287D01*
X120819Y189376D01*
X120146Y189287D01*
X119519Y189027D01*
X118980Y188614D01*
X118567Y188076D01*
X118307Y187449D01*
X118219Y186776D01*
X118307Y186103D01*
X118567Y185476D01*
X118923Y185012D01*
X118841Y184889D01*
X118567Y184532D01*
X118307Y183905D01*
X118219Y183232D01*
X118307Y182559D01*
X118567Y181932D01*
X118980Y181394D01*
X119519Y180980D01*
X120146Y180721D01*
X120819Y180632D01*
X121492Y180721D01*
X121503Y180725D01*
X122571Y180202D01*
X122599Y180153D01*
X122841Y179570D01*
X123254Y179032D01*
X123793Y178618D01*
X124420Y178358D01*
X124749Y178315D01*
X125577Y177898D01*
Y177898D01*
X125577Y177898D01*
X131126D01*
Y179137D01*
X144247D01*
X144740Y178137D01*
X144444Y177750D01*
X143965Y176596D01*
X143802Y175358D01*
X143965Y174120D01*
X144444Y172966D01*
X145204Y171975D01*
X145611Y171663D01*
Y169960D01*
X140855D01*
Y155560D01*
X144687D01*
Y148795D01*
X144677Y148748D01*
Y144435D01*
X144687Y143724D01*
D01*
X144527Y142790D01*
X144434Y142600D01*
X125976D01*
X125507Y142507D01*
X125110Y142242D01*
X124845Y141845D01*
X124752Y141376D01*
Y138227D01*
X124845Y137759D01*
X125110Y137362D01*
X125238Y137276D01*
Y135570D01*
X141038D01*
Y137003D01*
X146863D01*
X146917Y136993D01*
X147601Y137128D01*
X147902Y137329D01*
X148203Y137128D01*
X148886Y136993D01*
X149569Y137128D01*
X149870Y137329D01*
X150171Y137128D01*
X150854Y136993D01*
X151538Y137128D01*
X152117Y137515D01*
X152267Y137741D01*
X152276Y137744D01*
X153370D01*
X153378Y137741D01*
X153529Y137515D01*
X154108Y137128D01*
X154791Y136993D01*
X155475Y137128D01*
X156054Y137515D01*
X156423Y138068D01*
X157725D01*
Y136678D01*
X163275D01*
Y141048D01*
X163423Y141231D01*
X164275Y141755D01*
X164571Y141696D01*
X170013D01*
Y140064D01*
X169117Y139813D01*
X169003Y139790D01*
X168441Y139415D01*
X164475Y135449D01*
X164099Y134886D01*
X163968Y134223D01*
Y130889D01*
X162926D01*
Y129921D01*
X156423D01*
X156054Y130474D01*
X155475Y130861D01*
X154791Y130997D01*
X154108Y130861D01*
X153529Y130474D01*
X153378Y130248D01*
X153370Y130245D01*
X152276D01*
X152267Y130248D01*
X152117Y130474D01*
X151538Y130861D01*
X150854Y130997D01*
X150800Y130986D01*
X148940D01*
X148886Y130997D01*
X148203Y130861D01*
X147902Y130659D01*
X147601Y130861D01*
X146917Y130997D01*
X146863Y130986D01*
X141038D01*
Y132470D01*
X125238D01*
Y130713D01*
X125110Y130627D01*
X125047Y130533D01*
X124929Y130449D01*
X124088Y130253D01*
X123831Y130260D01*
X123694Y130366D01*
X123067Y130626D01*
X122394Y130714D01*
X121721Y130626D01*
X121094Y130366D01*
X120555Y129953D01*
X120474Y129848D01*
X113072D01*
X113024Y130093D01*
X112637Y130672D01*
X112057Y131059D01*
X111374Y131195D01*
X110691Y131059D01*
X110111Y130672D01*
X109961Y130447D01*
X109953Y130444D01*
X108858D01*
X108850Y130447D01*
X108700Y130672D01*
X108120Y131059D01*
X107437Y131195D01*
X106754Y131059D01*
X106453Y130858D01*
X106152Y131059D01*
X105468Y131195D01*
X104785Y131059D01*
X104484Y130858D01*
X104183Y131059D01*
X103500Y131195D01*
X102817Y131059D01*
X102707Y130986D01*
X97636D01*
Y132470D01*
X81836D01*
Y130713D01*
X81709Y130627D01*
X81444Y130230D01*
X81350Y129762D01*
Y126613D01*
X81444Y126144D01*
X81709Y125747D01*
X82106Y125482D01*
X82574Y125389D01*
X97737D01*
X97986Y124492D01*
X97986D01*
Y122228D01*
X96205D01*
Y123015D01*
X91299D01*
X90655Y123015D01*
X89655Y123015D01*
X84750D01*
Y117465D01*
X85544D01*
Y116214D01*
X84699D01*
Y110664D01*
X90052D01*
Y116214D01*
X89880D01*
X89466Y117214D01*
X89718Y117465D01*
X90299D01*
X91299Y117465D01*
X96205D01*
Y118252D01*
X97986D01*
Y110092D01*
X99764D01*
Y107992D01*
X99891Y107026D01*
X100264Y106126D01*
X100690Y105571D01*
X99977Y104858D01*
X99516Y105212D01*
X98175Y105986D01*
X96745Y106578D01*
X95249Y106979D01*
X93714Y107181D01*
X92166D01*
X90631Y106979D01*
X89135Y106578D01*
X87705Y105986D01*
X86364Y105212D01*
X85136Y104269D01*
X84041Y103174D01*
X83098Y101946D01*
X82324Y100605D01*
X81732Y99175D01*
X81331Y97679D01*
X81129Y96144D01*
Y94596D01*
X81331Y93061D01*
X81732Y91565D01*
X82324Y90135D01*
X83098Y88794D01*
X84041Y87566D01*
X85136Y86471D01*
X86364Y85528D01*
X87705Y84754D01*
X89135Y84162D01*
X90631Y83761D01*
X92166Y83559D01*
X93714D01*
X95249Y83761D01*
X96745Y84162D01*
X98175Y84754D01*
X99516Y85528D01*
X100744Y86471D01*
X101839Y87566D01*
X102782Y88794D01*
X103556Y90135D01*
X104148Y91565D01*
X104549Y93061D01*
X104751Y94596D01*
Y96144D01*
X104549Y97679D01*
X104148Y99175D01*
X103556Y100605D01*
X102782Y101946D01*
X102554Y102242D01*
X103308Y102903D01*
X104955Y101255D01*
X105728Y100662D01*
X106561Y100317D01*
Y99933D01*
X116961D01*
Y100162D01*
X119030D01*
X119413Y99238D01*
X118920Y98746D01*
X118545Y98183D01*
X118413Y97520D01*
Y86019D01*
X112507Y80114D01*
X112131Y79551D01*
X111999Y78888D01*
Y72602D01*
X112131Y71939D01*
X112507Y71377D01*
X117603Y66280D01*
X118166Y65904D01*
X118829Y65773D01*
X119085Y65824D01*
X137758D01*
X137878Y65667D01*
X138416Y65254D01*
X139044Y64994D01*
X139716Y64906D01*
X140390Y64994D01*
X141017Y65254D01*
X141555Y65667D01*
X141968Y66206D01*
X142228Y66833D01*
X142317Y67506D01*
X142228Y68179D01*
X141968Y68806D01*
X141555Y69345D01*
X141017Y69758D01*
X140390Y70017D01*
X139716Y70106D01*
X139044Y70017D01*
X138416Y69758D01*
X137878Y69345D01*
X137758Y69188D01*
X119598D01*
X115466Y73320D01*
Y74726D01*
X116466Y75065D01*
X116998Y74372D01*
X118071Y73548D01*
X119320Y73031D01*
X120661Y72854D01*
X122002Y73031D01*
X123252Y73548D01*
X124325Y74372D01*
X125112Y75397D01*
X125651Y75476D01*
X125672D01*
X126211Y75397D01*
X126998Y74372D01*
X128071Y73548D01*
X129320Y73031D01*
X130661Y72854D01*
X132002Y73031D01*
X132640Y73295D01*
X138682D01*
X139320Y73031D01*
X140661Y72854D01*
X142002Y73031D01*
X142676Y73310D01*
X149655D01*
X149870Y73221D01*
X150543Y73132D01*
X157630D01*
X158267Y73216D01*
X158358Y73141D01*
X158886Y72380D01*
X158748Y72200D01*
X158488Y71573D01*
X158400Y70900D01*
X158488Y70227D01*
X158748Y69600D01*
X159161Y69061D01*
X159700Y68648D01*
X160327Y68388D01*
X161000Y68300D01*
X161673Y68388D01*
X162300Y68648D01*
X162479Y68785D01*
X162492Y68783D01*
X172281Y58994D01*
Y50428D01*
X172452Y49570D01*
X172938Y48842D01*
X175174Y46607D01*
X175901Y46121D01*
X176760Y45950D01*
X254119D01*
X254977Y46121D01*
X255705Y46607D01*
X258786Y49688D01*
X258928Y49900D01*
X259839Y50319D01*
X260258Y50247D01*
X260966Y49954D01*
X262050Y49811D01*
X263134Y49954D01*
X264144Y50373D01*
X265012Y51038D01*
X265677Y51906D01*
X266096Y52916D01*
X266239Y54000D01*
X266096Y55084D01*
X265677Y56094D01*
X265012Y56962D01*
X264144Y57627D01*
X263134Y58046D01*
X262050Y58189D01*
X260966Y58046D01*
X260443Y57829D01*
X259443Y58421D01*
Y59579D01*
X260443Y60171D01*
X260966Y59954D01*
X262050Y59811D01*
X263134Y59954D01*
X264144Y60373D01*
X265012Y61038D01*
X265677Y61906D01*
X266096Y62916D01*
X266239Y64000D01*
X266096Y65084D01*
X265677Y66094D01*
X265012Y66962D01*
X264144Y67627D01*
X263134Y68046D01*
X262050Y68189D01*
X260966Y68046D01*
X260443Y67829D01*
X259443Y68421D01*
Y77449D01*
X260443Y78151D01*
X260898Y78091D01*
X261828Y78213D01*
X262694Y78572D01*
X263438Y79143D01*
X264009Y79887D01*
X264256Y80484D01*
X268764D01*
X268862Y79484D01*
X268448Y79401D01*
X267674Y78884D01*
X267156Y78109D01*
X266975Y77196D01*
Y75542D01*
X267156Y74628D01*
X267674Y73854D01*
X268448Y73336D01*
X269362Y73154D01*
X270276Y73336D01*
X271051Y73854D01*
X271568Y74628D01*
X271750Y75542D01*
Y77196D01*
X271568Y78109D01*
X271051Y78884D01*
X270276Y79401D01*
X269862Y79484D01*
X269960Y80484D01*
X274468D01*
X274715Y79887D01*
X275286Y79143D01*
X276030Y78572D01*
X276897Y78213D01*
X277827Y78091D01*
X278757Y78213D01*
X279194Y78394D01*
X280194Y77836D01*
Y40306D01*
X23806D01*
Y366694D01*
X280194D01*
Y257211D01*
D02*
G37*
G36*
X135443Y342519D02*
X135400Y342190D01*
X135488Y341517D01*
X135748Y340890D01*
X136161Y340351D01*
X136700Y339938D01*
X137327Y339678D01*
X138000Y339590D01*
X138673Y339678D01*
X139300Y339938D01*
X139839Y340351D01*
X139889Y340417D01*
X141067D01*
X141922Y339592D01*
X142061Y338893D01*
X142457Y338301D01*
X143049Y337905D01*
X143748Y337766D01*
X144472D01*
Y334995D01*
X144038Y334662D01*
X143373Y333794D01*
X142954Y332784D01*
X142811Y331700D01*
X142954Y330616D01*
X143373Y329606D01*
X143376Y329601D01*
X142883Y328601D01*
X142483D01*
X141820Y328469D01*
X141257Y328093D01*
X140459Y327295D01*
X140084Y326733D01*
X139952Y326070D01*
Y325676D01*
X138952Y325287D01*
X138084Y325646D01*
X137000Y325789D01*
X135916Y325646D01*
X134906Y325227D01*
X134393Y324834D01*
X133393Y325292D01*
Y341883D01*
X134496Y342986D01*
X135443Y342519D01*
D02*
G37*
G36*
X79472Y299515D02*
Y295410D01*
X79565Y294705D01*
X79837Y294048D01*
X80270Y293484D01*
X80834Y293051D01*
X81259Y292875D01*
X81448Y292172D01*
X81420Y291780D01*
X81312Y291707D01*
X80938Y291148D01*
X80806Y290488D01*
X80938Y289827D01*
X81312Y289268D01*
X81487Y289150D01*
Y288296D01*
X81299Y287842D01*
X81211Y287169D01*
X81299Y286496D01*
X81559Y285869D01*
X81972Y285331D01*
Y284663D01*
X81559Y284125D01*
X81299Y283498D01*
X81211Y282825D01*
X81299Y282152D01*
X81313Y282119D01*
Y280170D01*
X81299Y280137D01*
X81211Y279465D01*
X81299Y278791D01*
X81559Y278164D01*
X81972Y277626D01*
X82511Y277213D01*
X82544Y277199D01*
X83509Y276234D01*
X84320Y275692D01*
X85276Y275502D01*
X97848D01*
X98074Y275197D01*
X97570Y274197D01*
X90760D01*
X90000Y274045D01*
X89354Y273615D01*
X79911Y264171D01*
X78987Y264554D01*
Y268588D01*
X68713D01*
Y267845D01*
X68070Y267530D01*
X67713Y267460D01*
X66929Y268062D01*
X65919Y268481D01*
X64835Y268624D01*
X62866D01*
X61782Y268481D01*
X61024Y268167D01*
X56613D01*
Y288373D01*
X66376Y298136D01*
X67300Y297753D01*
Y296900D01*
X76700D01*
Y299677D01*
X79310D01*
X79472Y299515D01*
D02*
G37*
G36*
X233300Y291970D02*
X233451Y291209D01*
X233473Y291176D01*
X233205Y290176D01*
X228225D01*
Y290044D01*
X223314D01*
Y286069D01*
X228225D01*
Y284824D01*
X229136D01*
Y283373D01*
X226680Y280917D01*
X226304Y280355D01*
X226172Y279691D01*
Y272086D01*
X225248Y271703D01*
X220145Y276807D01*
Y281245D01*
X221143D01*
Y286794D01*
X220989D01*
Y290044D01*
X215833D01*
Y286794D01*
X215791D01*
Y281245D01*
X216678D01*
Y278878D01*
X215754Y278495D01*
X207592Y286658D01*
Y288193D01*
X208633D01*
Y293545D01*
X208633D01*
Y293688D01*
X209148Y294688D01*
X215833D01*
Y291187D01*
X220989D01*
Y294688D01*
X223314D01*
Y291187D01*
X228470D01*
Y294688D01*
X233300D01*
Y291970D01*
D02*
G37*
G36*
X176056Y295486D02*
Y287563D01*
X176227Y286705D01*
X176713Y285977D01*
X177836Y284854D01*
X178564Y284367D01*
X179422Y284197D01*
X188142D01*
X188438Y284256D01*
X190228D01*
Y285649D01*
X190385Y286440D01*
X190228Y287230D01*
Y288624D01*
X188438D01*
X188142Y288683D01*
X180542D01*
Y293901D01*
X185424D01*
Y294433D01*
X188142D01*
X188438Y294492D01*
X197708D01*
X198024Y293943D01*
X202248D01*
X203083Y293545D01*
Y288193D01*
X202299Y287673D01*
X197708D01*
Y288624D01*
X193536D01*
Y284256D01*
X195375D01*
X195622Y284207D01*
X205140D01*
X221453Y267894D01*
X221038Y266894D01*
X217295D01*
Y269472D01*
X207808D01*
Y267643D01*
X206978D01*
X206314Y267511D01*
X205752Y267135D01*
X201130Y262513D01*
X200755Y261951D01*
X200623Y261288D01*
Y260023D01*
X192763D01*
Y261213D01*
X187213D01*
Y255860D01*
X190213D01*
X190839Y255235D01*
X191401Y254859D01*
X192060Y254728D01*
Y252898D01*
X195464D01*
Y252000D01*
X195596Y251337D01*
X195971Y250774D01*
X197396Y249349D01*
X197399Y249036D01*
X197111Y248220D01*
X196778Y248082D01*
X196239Y247669D01*
X195826Y247130D01*
X195566Y246503D01*
X195563Y246482D01*
X195546Y246470D01*
X195170Y245908D01*
X195039Y245245D01*
Y245193D01*
X194769Y244894D01*
X194039Y244443D01*
X193654Y244494D01*
X193237Y244439D01*
X192826Y244687D01*
X192714Y244891D01*
X192517Y245794D01*
X192756Y246105D01*
X193016Y246732D01*
X193104Y247406D01*
X193016Y248078D01*
X192756Y248706D01*
X192343Y249244D01*
X191804Y249657D01*
X191177Y249917D01*
X190504Y250006D01*
X189831Y249917D01*
X189204Y249657D01*
X188665Y249244D01*
X188252Y248706D01*
X187992Y248078D01*
X187904Y247406D01*
X187992Y246732D01*
X188063Y246563D01*
X187458Y245621D01*
X187430Y245604D01*
X185456D01*
X185444Y245621D01*
X180982Y250083D01*
X180337Y250514D01*
X179576Y250665D01*
X178683D01*
X176145Y253203D01*
Y257234D01*
X176145D01*
X176172Y257590D01*
X176172D01*
X176172Y258223D01*
Y263139D01*
X171267D01*
X170623Y263139D01*
X169623Y263139D01*
X161490D01*
X160846Y263139D01*
X159846Y263139D01*
X155138D01*
Y263139D01*
X154323Y262567D01*
X154138Y262526D01*
X153572Y262600D01*
X152899Y262512D01*
X152271Y262252D01*
X151733Y261839D01*
X151320Y261300D01*
X151060Y260673D01*
X150971Y260000D01*
X151060Y259327D01*
X151320Y258700D01*
X151733Y258161D01*
X152163Y257832D01*
X152222Y257271D01*
X152163Y256711D01*
X151733Y256381D01*
X151320Y255843D01*
X151060Y255215D01*
X150971Y254542D01*
X151060Y253870D01*
X151320Y253242D01*
X151733Y252704D01*
X152271Y252291D01*
X152899Y252031D01*
X153572Y251942D01*
X154087Y252010D01*
X155087Y251684D01*
Y251684D01*
X159796D01*
X160440Y251684D01*
X161440Y251684D01*
X169595D01*
X170239Y251684D01*
X172040Y251684D01*
X176453Y247271D01*
X177098Y246840D01*
X177859Y246689D01*
X178753D01*
X179342Y246100D01*
X179372Y244882D01*
X178958Y244344D01*
X178732Y243797D01*
X178690Y243712D01*
X177685Y243212D01*
X177012Y243301D01*
X176339Y243212D01*
X175712Y242953D01*
X175422Y242730D01*
X175339Y242839D01*
X174800Y243252D01*
X174173Y243512D01*
X173500Y243600D01*
X172827Y243512D01*
X172200Y243252D01*
X171661Y242839D01*
X171248Y242300D01*
X170988Y241673D01*
X170900Y241000D01*
X170961Y240538D01*
X170828Y239519D01*
X170391Y239331D01*
X170200Y239252D01*
X169661Y238839D01*
X169248Y238300D01*
X168988Y237673D01*
X168900Y237000D01*
X168988Y236327D01*
X169248Y235700D01*
X169661Y235161D01*
X169767Y235081D01*
Y234583D01*
X169676Y234128D01*
Y230385D01*
X168676Y230081D01*
X168589Y230211D01*
X168589Y230211D01*
X167824Y230977D01*
Y233054D01*
X157414D01*
X156789Y233795D01*
Y236106D01*
X147696D01*
Y230557D01*
X148791D01*
Y229106D01*
X148686Y229025D01*
X148273Y228487D01*
X148013Y227860D01*
X147924Y227187D01*
X148013Y226514D01*
X148273Y225887D01*
X148328Y225815D01*
X147863Y224778D01*
X147552Y224755D01*
X146488Y225819D01*
Y247929D01*
X146337Y248690D01*
X145906Y249335D01*
X132595Y262646D01*
X131949Y263077D01*
X131189Y263229D01*
X112330D01*
X102530Y273029D01*
X105002Y275502D01*
X130481D01*
X131437Y275692D01*
X132248Y276234D01*
X152955Y296940D01*
X174602D01*
X176056Y295486D01*
D02*
G37*
G36*
X253731Y288630D02*
X252706Y287605D01*
X250264D01*
X250264Y287605D01*
X249601Y287473D01*
X249038Y287098D01*
X249038Y287098D01*
X248063Y286123D01*
X247688Y285560D01*
X247620Y285220D01*
X246514Y285220D01*
Y285220D01*
X246383D01*
X245912Y285476D01*
X245641Y286364D01*
X245641D01*
Y290236D01*
X253731D01*
Y288630D01*
D02*
G37*
G36*
X264408Y285500D02*
Y268117D01*
X263587Y267683D01*
X259696D01*
Y272180D01*
X257494D01*
X256600Y273000D01*
X256512Y273673D01*
X256252Y274300D01*
X255902Y274756D01*
Y279670D01*
Y285220D01*
X255902D01*
X255703Y285700D01*
X256690Y286686D01*
X257066Y287249D01*
X257198Y287912D01*
X257198Y287912D01*
Y290236D01*
X259671D01*
X264408Y285500D01*
D02*
G37*
G36*
X248914Y269924D02*
X249558Y269796D01*
X249816Y269848D01*
X250180Y269756D01*
X250418Y269590D01*
X250483Y269525D01*
X250649Y269287D01*
X250740Y268923D01*
X250689Y268666D01*
X250817Y268021D01*
X250913Y267878D01*
X250817Y267736D01*
X250689Y267091D01*
X250817Y266446D01*
X251183Y265899D01*
X251183Y265133D01*
X251023Y264894D01*
X250817Y264587D01*
X250689Y263942D01*
X250740Y263684D01*
X250649Y263320D01*
X250483Y263082D01*
X250418Y263018D01*
X250180Y262851D01*
X249816Y262760D01*
X249558Y262811D01*
X248914Y262683D01*
X248771Y262587D01*
X248628Y262683D01*
X247983Y262811D01*
X247339Y262683D01*
X247197Y262588D01*
X247054Y262683D01*
X246410Y262811D01*
X245764Y262683D01*
X245622Y262587D01*
X245479Y262683D01*
X244834Y262811D01*
X244395Y262724D01*
X243975Y263018D01*
X243910Y263082D01*
X243744Y263320D01*
X243653Y263684D01*
X243704Y263942D01*
X243576Y264587D01*
X243480Y264729D01*
X243576Y264872D01*
X243704Y265517D01*
X243576Y266162D01*
X243481Y266304D01*
X243576Y266446D01*
X243704Y267091D01*
X243576Y267736D01*
X243210Y268282D01*
X243210Y269049D01*
X243361Y269275D01*
X244190Y269924D01*
X244834Y269796D01*
X245479Y269924D01*
X245622Y270020D01*
X245764Y269924D01*
X246410Y269796D01*
X247054Y269924D01*
X247197Y270020D01*
X247339Y269924D01*
X247983Y269796D01*
X248628Y269924D01*
X248771Y270020D01*
X248914Y269924D01*
D02*
G37*
G36*
X264408Y261699D02*
Y256450D01*
X264540Y255787D01*
X264730Y255501D01*
X264413Y254698D01*
X264224Y254501D01*
X258409D01*
X256496Y256414D01*
X255951Y256779D01*
X255307Y256907D01*
X249958D01*
X249314Y256779D01*
X248768Y256414D01*
X248768Y256414D01*
X247907Y255553D01*
X247841Y255597D01*
X247196Y255725D01*
X246551Y255597D01*
X246409Y255501D01*
X246266Y255597D01*
X245621Y255725D01*
X244976Y255597D01*
X244834Y255502D01*
X244692Y255597D01*
X244047Y255725D01*
X243403Y255597D01*
X243260Y255501D01*
X243117Y255597D01*
X242472Y255725D01*
X241828Y255597D01*
X241281Y255231D01*
X240915Y254684D01*
X240787Y254040D01*
Y253745D01*
X240732Y253648D01*
X239787Y253002D01*
X239656Y253028D01*
X238200D01*
X237556Y252900D01*
X237009Y252534D01*
X236643Y251988D01*
X236614Y251840D01*
X235614Y251939D01*
Y259035D01*
X240593D01*
X240677Y259052D01*
X241702Y259025D01*
X242068Y258478D01*
X242615Y258113D01*
X243260Y257984D01*
X243904Y258113D01*
X244047Y258208D01*
X244190Y258113D01*
X244834Y257984D01*
X245479Y258113D01*
X245622Y258208D01*
X245764Y258113D01*
X246410Y257984D01*
X247054Y258113D01*
X247197Y258208D01*
X247339Y258113D01*
X247983Y257984D01*
X248628Y258113D01*
X248771Y258208D01*
X248914Y258113D01*
X249558Y257984D01*
X250203Y258113D01*
X250346Y258208D01*
X250488Y258113D01*
X251133Y257984D01*
X251778Y258113D01*
X252325Y258478D01*
X252691Y259025D01*
X252819Y259670D01*
Y260681D01*
X253831D01*
X253846Y260684D01*
X256932D01*
X257576Y260812D01*
X258122Y261177D01*
X258241Y261297D01*
X259080D01*
X259724Y261425D01*
X260270Y261789D01*
X260614Y262134D01*
X263587D01*
X264408Y261699D01*
D02*
G37*
G36*
X60118Y257561D02*
X59904Y257397D01*
X59239Y256529D01*
X58820Y255519D01*
X58678Y254435D01*
X58820Y253351D01*
X59205Y252423D01*
X59086Y252089D01*
X58682Y251423D01*
X47634D01*
X47127Y252406D01*
X47546Y253416D01*
X47689Y254500D01*
X47546Y255584D01*
X47543Y255591D01*
Y260703D01*
X60118D01*
Y257561D01*
D02*
G37*
G36*
X207808Y262874D02*
Y262347D01*
X216863D01*
Y261541D01*
X222235D01*
Y256076D01*
X217393Y251233D01*
X217036D01*
X217036Y251233D01*
X216372Y251101D01*
X215810Y250726D01*
X215810Y250726D01*
X210940Y245856D01*
X210092Y246422D01*
X210111Y246468D01*
X210200Y247141D01*
X210111Y247814D01*
X209852Y248441D01*
X209438Y248980D01*
X208900Y249393D01*
X208273Y249653D01*
X207600Y249741D01*
X206927Y249653D01*
X206300Y249393D01*
X205761Y248980D01*
X205348Y248441D01*
X205088Y247814D01*
X204089Y247888D01*
Y260570D01*
X206808Y263288D01*
X207808Y262874D01*
D02*
G37*
G36*
X246551Y251026D02*
X247196Y250898D01*
X247454Y250949D01*
X248190Y250764D01*
X248634Y250431D01*
X248821Y250151D01*
X248821Y249384D01*
X248661Y249146D01*
X248455Y248837D01*
X248327Y248193D01*
X248455Y247548D01*
X248821Y247001D01*
X248821Y246235D01*
X248661Y245996D01*
X248455Y245689D01*
X248327Y245043D01*
X248378Y244786D01*
X248287Y244422D01*
X248121Y244184D01*
X248056Y244119D01*
X247818Y243953D01*
X247454Y243862D01*
X247196Y243913D01*
X246551Y243785D01*
X246409Y243689D01*
X246266Y243785D01*
X245621Y243913D01*
X244976Y243785D01*
X244834Y243690D01*
X244692Y243785D01*
X244047Y243913D01*
X243403Y243785D01*
X243260Y243689D01*
X243117Y243785D01*
X242472Y243913D01*
X242033Y243826D01*
X241613Y244119D01*
X241548Y244184D01*
X241382Y244422D01*
X241290Y244786D01*
X241342Y245043D01*
X241213Y245689D01*
X241118Y245831D01*
X241213Y245973D01*
X241342Y246619D01*
X241213Y247264D01*
X241119Y247406D01*
X241213Y247548D01*
X241342Y248193D01*
X241213Y248837D01*
X240848Y249384D01*
X240848Y250151D01*
X240999Y250377D01*
X241828Y251026D01*
X242472Y250898D01*
X243117Y251026D01*
X243260Y251122D01*
X243403Y251026D01*
X244047Y250898D01*
X244692Y251026D01*
X244834Y251121D01*
X244976Y251026D01*
X245621Y250898D01*
X246266Y251026D01*
X246409Y251122D01*
X246551Y251026D01*
D02*
G37*
G36*
X89808Y258908D02*
X90506Y258769D01*
X91450Y257961D01*
X91464Y257891D01*
X91840Y257329D01*
X93891Y255277D01*
Y252791D01*
X93799Y252327D01*
Y247209D01*
X93596Y246961D01*
X93230D01*
X92332Y247877D01*
Y252327D01*
X92193Y253025D01*
X91797Y253618D01*
X91205Y254013D01*
X90506Y254152D01*
X89808Y254013D01*
X89250Y253641D01*
X89043Y253681D01*
X88250Y253973D01*
Y258949D01*
X89043Y259240D01*
X89250Y259280D01*
X89808Y258908D01*
D02*
G37*
G36*
X248127Y239214D02*
X248599Y239120D01*
X248818Y239034D01*
X249545Y238220D01*
Y234181D01*
X240709D01*
Y234181D01*
X239861Y234549D01*
Y238365D01*
X240862Y239093D01*
X240897Y239086D01*
X241542Y239214D01*
X241685Y239310D01*
X241828Y239214D01*
X242472Y239086D01*
X243117Y239214D01*
X243260Y239310D01*
X243403Y239214D01*
X244047Y239086D01*
X244692Y239214D01*
X244834Y239309D01*
X244976Y239214D01*
X245621Y239086D01*
X246266Y239214D01*
X246409Y239310D01*
X246551Y239214D01*
X247196Y239086D01*
X247841Y239214D01*
X247984Y239310D01*
X248127Y239214D01*
D02*
G37*
G36*
X226172Y250601D02*
Y244919D01*
X224969D01*
Y239369D01*
X225003D01*
Y236442D01*
X223477D01*
X222813Y236310D01*
X222562Y236142D01*
X221922Y236226D01*
X221249Y236137D01*
X220622Y235878D01*
X220083Y235464D01*
X219670Y234926D01*
X219541Y234613D01*
X214520D01*
Y231760D01*
X214500Y231658D01*
Y229792D01*
X213174D01*
X212711Y230744D01*
X212892Y230925D01*
X213267Y231487D01*
X213399Y232150D01*
Y240684D01*
X218388Y245672D01*
X219219D01*
X219882Y245804D01*
X220444Y246180D01*
X225248Y250984D01*
X226172Y250601D01*
D02*
G37*
G36*
X259821Y244631D02*
X265174D01*
X265633Y243821D01*
Y242733D01*
X264322Y241421D01*
X263946Y240859D01*
X263814Y240196D01*
Y239820D01*
X263520Y238942D01*
X259348D01*
Y234574D01*
X263520D01*
X263814Y233695D01*
Y229584D01*
X263520Y228706D01*
X253011D01*
Y234574D01*
X256040D01*
Y238942D01*
X255183D01*
X255118Y239082D01*
X254878Y239942D01*
X255162Y240368D01*
X255294Y241031D01*
X255294Y241031D01*
Y243916D01*
X255331Y244054D01*
X256155Y244817D01*
X259821D01*
Y244631D01*
D02*
G37*
G36*
X268667Y232275D02*
X269294Y232015D01*
X269967Y231926D01*
X269969Y231924D01*
Y231725D01*
X275322D01*
X275934Y230979D01*
Y229521D01*
X275322Y228775D01*
X269969D01*
Y228701D01*
X269967Y228699D01*
X269294Y228610D01*
X268667Y228350D01*
X268281Y228054D01*
X267706Y228205D01*
X267281Y228475D01*
Y232150D01*
X267706Y232420D01*
X268281Y232571D01*
X268667Y232275D01*
D02*
G37*
G36*
X135621Y240972D02*
Y232155D01*
X131098Y227632D01*
X130542Y227862D01*
Y227862D01*
X125190D01*
Y227862D01*
X124834D01*
Y227862D01*
X123718D01*
X123415Y228862D01*
X123619Y228998D01*
X125239Y230619D01*
X125239Y230619D01*
X125692Y231297D01*
X125852Y232097D01*
X125852Y232097D01*
Y232989D01*
X126013Y233200D01*
X126273Y233827D01*
X126362Y234500D01*
X126273Y235173D01*
X126021Y235782D01*
X126273Y236391D01*
X126362Y237064D01*
X126273Y237737D01*
X126021Y238345D01*
X126273Y238954D01*
X126362Y239627D01*
X126273Y240300D01*
X126021Y240909D01*
X126273Y241518D01*
X126362Y242191D01*
X126273Y242864D01*
X126013Y243491D01*
X125600Y244029D01*
X125062Y244443D01*
X124434Y244703D01*
X123761Y244791D01*
X123089Y244703D01*
X122461Y244443D01*
X121923Y244029D01*
X121510Y243491D01*
X121250Y242864D01*
X121162Y242200D01*
X115427D01*
X114730Y243200D01*
X114758Y243409D01*
X114669Y244082D01*
X114409Y244709D01*
X113996Y245247D01*
X113458Y245660D01*
X112830Y245920D01*
X112157Y246009D01*
X111485Y245920D01*
X110857Y245660D01*
X110319Y245247D01*
X110201Y245094D01*
X109980Y245022D01*
X109132Y245049D01*
X108998Y245108D01*
X108835Y245321D01*
X108296Y245734D01*
X107669Y245994D01*
X106996Y246082D01*
X106323Y245994D01*
X105696Y245734D01*
X105158Y245321D01*
X104744Y244782D01*
X104485Y244155D01*
X104396Y243482D01*
X103490Y242700D01*
X102291D01*
X101987Y243700D01*
X102164Y243818D01*
X108298Y249953D01*
X126640D01*
X135621Y240972D01*
D02*
G37*
G36*
X175227Y234566D02*
X175789Y234190D01*
X176453Y234058D01*
X177409D01*
Y231934D01*
X183631D01*
Y231122D01*
X183763Y230459D01*
X184138Y229896D01*
X184267Y229768D01*
Y227587D01*
X182394Y225714D01*
X176131D01*
X175267Y226042D01*
Y229792D01*
X173143D01*
Y233764D01*
X173233Y234219D01*
Y235081D01*
X173339Y235161D01*
X174578Y235215D01*
X175227Y234566D01*
D02*
G37*
G36*
X204322Y225882D02*
X204973Y225087D01*
X205062Y224414D01*
X205321Y223787D01*
X205735Y223249D01*
X206273Y222835D01*
X206900Y222576D01*
X207573Y222487D01*
X207668Y222404D01*
Y218820D01*
X207800Y218157D01*
X207881Y218036D01*
X207791Y217737D01*
X207252Y217324D01*
X206875Y216832D01*
X206452Y217007D01*
X205780Y217096D01*
X205107Y217007D01*
X204479Y216748D01*
X203941Y216335D01*
X203528Y215796D01*
X203268Y215169D01*
X203179Y214496D01*
X203268Y213823D01*
X203460Y213359D01*
X203200Y213252D01*
X202661Y212839D01*
X202248Y212300D01*
X201988Y211673D01*
X201900Y211000D01*
X201988Y210327D01*
X202248Y209700D01*
X202661Y209161D01*
X202999Y208902D01*
X202495Y208029D01*
X202322Y208101D01*
X201649Y208189D01*
X200976Y208101D01*
X200349Y207841D01*
X199810Y207428D01*
X199397Y206889D01*
X199137Y206262D01*
X199048Y205589D01*
X198217Y204661D01*
X195717D01*
X195636Y204767D01*
X195097Y205180D01*
X194470Y205440D01*
X193797Y205528D01*
X193124Y205440D01*
X192497Y205180D01*
X191959Y204767D01*
X191546Y204228D01*
X191286Y203601D01*
X191197Y202928D01*
X190323Y202074D01*
X184845D01*
Y223262D01*
X186129Y224546D01*
X195558D01*
X195578Y224526D01*
X196140Y224151D01*
X196803Y224019D01*
X200716D01*
X201379Y224151D01*
X201941Y224526D01*
X203350Y225935D01*
X204322Y225882D01*
D02*
G37*
G36*
X227232Y216073D02*
X227905Y215984D01*
X228252Y216030D01*
X229027Y215538D01*
X229252Y215269D01*
Y211315D01*
X229027Y211047D01*
X228252Y210555D01*
X227905Y210600D01*
X227232Y210512D01*
X226605Y210252D01*
X226066Y209839D01*
X225986Y209733D01*
X224092D01*
X222398Y211426D01*
X221836Y211802D01*
X221173Y211934D01*
X220543D01*
Y215913D01*
X225775D01*
X225775Y215913D01*
X226775Y216262D01*
X227232Y216073D01*
D02*
G37*
G36*
X245420Y224577D02*
X245420D01*
Y224221D01*
X245420D01*
Y218868D01*
X250067D01*
Y218773D01*
X255616D01*
Y222258D01*
X255649Y222426D01*
Y222441D01*
X256058Y222523D01*
X256620Y222898D01*
X258059Y224337D01*
X259099D01*
X260052Y224224D01*
Y218674D01*
Y213569D01*
X263814D01*
Y208222D01*
X258798Y203207D01*
X257654Y203387D01*
X257608Y203431D01*
X257227Y203928D01*
X256688Y204341D01*
X256061Y204601D01*
X255388Y204689D01*
X254715Y204601D01*
X254088Y204341D01*
X254034Y204299D01*
X253043Y204452D01*
X252451Y204848D01*
X251752Y204987D01*
X246634D01*
X245935Y204848D01*
X245343Y204452D01*
X244947Y203860D01*
X244914Y203694D01*
X243829Y203364D01*
X241571Y205622D01*
X241954Y206546D01*
X246170D01*
X246634Y206454D01*
X251752D01*
X252451Y206593D01*
X252518Y206638D01*
X252894Y206713D01*
X253456Y207088D01*
X255534Y209167D01*
X255910Y209729D01*
X256042Y210392D01*
Y211672D01*
X256042Y211672D01*
X255910Y212335D01*
X255534Y212898D01*
X254042Y214390D01*
X253480Y214766D01*
X252817Y214897D01*
X243773D01*
X243104Y215566D01*
Y228674D01*
X243259Y228828D01*
X245420D01*
Y224577D01*
D02*
G37*
G36*
X91605Y242936D02*
X91868Y242310D01*
X91689Y241878D01*
X91601Y241205D01*
X91689Y240532D01*
X91941Y239926D01*
X91689Y239319D01*
X91601Y238646D01*
X91689Y237973D01*
X91941Y237366D01*
X91689Y236760D01*
X91601Y236087D01*
X91689Y235414D01*
X91941Y234807D01*
X91689Y234201D01*
X91601Y233528D01*
X91689Y232855D01*
X91949Y232228D01*
X92213Y231884D01*
Y231264D01*
X92364Y230503D01*
X92795Y229858D01*
X93582Y229070D01*
X94227Y228640D01*
X94988Y228488D01*
X95092Y227744D01*
X94635Y226974D01*
X93963Y226886D01*
X93335Y226626D01*
X92797Y226213D01*
X92384Y225674D01*
X92124Y225047D01*
X92035Y224374D01*
X92124Y223701D01*
X92384Y223074D01*
X92797Y222535D01*
X93335Y222122D01*
X93963Y221862D01*
X94635Y221774D01*
X95308Y221862D01*
X95936Y222122D01*
X96314Y222412D01*
X96536Y222376D01*
X97226Y221915D01*
X98040Y221753D01*
X98853Y221915D01*
X99319Y222226D01*
X99785Y221915D01*
X100599Y221753D01*
X101412Y221915D01*
X101878Y222226D01*
X102344Y221915D01*
X103158Y221753D01*
X103972Y221915D01*
X104437Y222226D01*
X104903Y221915D01*
X105717Y221753D01*
X106530Y221915D01*
X106996Y222226D01*
X107462Y221915D01*
X108276Y221753D01*
X109090Y221915D01*
X109555Y222226D01*
X110021Y221915D01*
X110835Y221753D01*
X111649Y221915D01*
X112114Y222226D01*
X112580Y221915D01*
X113394Y221753D01*
X114208Y221915D01*
X114673Y222226D01*
X115139Y221915D01*
X115953Y221753D01*
X116767Y221915D01*
X117457Y222376D01*
X117918Y223066D01*
X117989Y223426D01*
X119481D01*
Y222312D01*
X124834D01*
Y222312D01*
X125133D01*
X126133Y222175D01*
Y221067D01*
X126265Y220404D01*
X126640Y219842D01*
X129485Y216996D01*
X129485Y216996D01*
X130048Y216621D01*
X130711Y216489D01*
X139501D01*
Y212741D01*
Y207840D01*
X121646D01*
X120982Y207708D01*
X120420Y207332D01*
X118766Y205678D01*
X117502Y205828D01*
X117457Y205895D01*
X116767Y206356D01*
X115953Y206518D01*
X115139Y206356D01*
X114673Y206045D01*
X114208Y206356D01*
X113394Y206518D01*
X112580Y206356D01*
X112114Y206045D01*
X111649Y206356D01*
X110835Y206518D01*
X110021Y206356D01*
X109331Y205895D01*
X108870Y205205D01*
X108785Y204781D01*
X107766D01*
X107682Y205205D01*
X107220Y205895D01*
X106530Y206356D01*
X105717Y206518D01*
X104903Y206356D01*
X104437Y206045D01*
X103972Y206356D01*
X103158Y206518D01*
X102344Y206356D01*
X101878Y206045D01*
X101412Y206356D01*
X100599Y206518D01*
X99785Y206356D01*
X99319Y206045D01*
X98853Y206356D01*
X98040Y206518D01*
X97226Y206356D01*
X96536Y205895D01*
X96247Y205463D01*
X95858Y205623D01*
X95185Y205712D01*
X94512Y205623D01*
X94431Y205590D01*
X93655Y206067D01*
X93484Y206269D01*
X93409Y206836D01*
X93150Y207463D01*
X92736Y208002D01*
X92198Y208415D01*
X91571Y208675D01*
X90898Y208763D01*
X90225Y208675D01*
X89597Y208415D01*
X89566Y208391D01*
X86980D01*
Y209235D01*
X81660D01*
Y225143D01*
X85405D01*
Y230692D01*
X84597D01*
X84473Y230990D01*
X84295Y231692D01*
X84601Y232150D01*
X84733Y232813D01*
Y242590D01*
X85453Y243310D01*
X91306D01*
X91605Y242936D01*
D02*
G37*
G36*
X181378Y202044D02*
X180867Y201942D01*
X180305Y201566D01*
X178861Y200123D01*
X175267D01*
Y200452D01*
Y202420D01*
Y204389D01*
Y206357D01*
Y208326D01*
Y210294D01*
Y212263D01*
Y214231D01*
Y216200D01*
Y218168D01*
Y220137D01*
Y222105D01*
Y222247D01*
X181378D01*
Y202044D01*
D02*
G37*
G36*
X222148Y206774D02*
X222710Y206399D01*
X223374Y206267D01*
X225986D01*
X226066Y206161D01*
X226605Y205748D01*
X227232Y205488D01*
X227905Y205400D01*
X228252Y205445D01*
X229027Y204953D01*
X229252Y204685D01*
Y204027D01*
X229384Y203363D01*
X229759Y202801D01*
X230590Y201971D01*
X230590Y201970D01*
X231153Y201595D01*
X231816Y201463D01*
X231816Y201463D01*
X232610D01*
X233248Y201336D01*
X238366D01*
X239065Y201475D01*
X239657Y201870D01*
X240352Y201939D01*
X241412Y200879D01*
Y198739D01*
X240291D01*
Y193190D01*
X241412D01*
Y191568D01*
X241360Y191303D01*
Y191033D01*
X240360Y190499D01*
X240316Y190528D01*
X239653Y190660D01*
X219796D01*
Y194776D01*
X219796Y194776D01*
X219664Y195439D01*
X219614Y195515D01*
X220148Y196515D01*
X220543D01*
Y197196D01*
X221543Y197919D01*
X221690Y197900D01*
X222363Y197988D01*
X222990Y198248D01*
X223529Y198661D01*
X223942Y199200D01*
X224202Y199827D01*
X224290Y200500D01*
X224202Y201173D01*
X223942Y201800D01*
X223529Y202339D01*
X222990Y202752D01*
X222363Y203012D01*
X221690Y203100D01*
X221543Y203081D01*
X220543Y203804D01*
Y206966D01*
X221543Y207380D01*
X222148Y206774D01*
D02*
G37*
G36*
X245935Y201475D02*
X246634Y201336D01*
X249467D01*
X250061Y201218D01*
X251479D01*
X251497Y201200D01*
X252059Y200824D01*
X252723Y200692D01*
X253211D01*
X253550Y200251D01*
X254047Y199869D01*
X254090Y199823D01*
X254271Y198679D01*
X248628Y193036D01*
X246581D01*
X245644Y193190D01*
Y198739D01*
X244879D01*
Y200978D01*
X245879Y201512D01*
X245935Y201475D01*
D02*
G37*
G36*
X275757Y193084D02*
X275113Y192440D01*
X268279D01*
Y196599D01*
Y200706D01*
X268850Y201469D01*
X268997Y201469D01*
X275757D01*
Y193084D01*
D02*
G37*
G36*
X214361Y185669D02*
X214493Y185005D01*
X214869Y184443D01*
X215455Y183857D01*
X216017Y183482D01*
X216680Y183350D01*
X234336D01*
Y181779D01*
X213304D01*
Y178499D01*
X206607D01*
Y181660D01*
X210465D01*
Y186658D01*
X210686D01*
Y188135D01*
X214361D01*
Y185669D01*
D02*
G37*
G36*
X203141Y177351D02*
X203163Y177241D01*
X202942Y176408D01*
X202504Y176038D01*
X202259Y175936D01*
X201720Y175523D01*
X201702Y175498D01*
X200702Y175838D01*
Y186658D01*
X203141D01*
Y177351D01*
D02*
G37*
G36*
X201601Y165471D02*
X201601Y165471D01*
X202163Y165095D01*
X202826Y164964D01*
X205052D01*
Y160064D01*
X212160D01*
X212290Y159413D01*
X212776Y158686D01*
X213304Y158333D01*
Y154576D01*
X214768D01*
X214843Y154198D01*
X215219Y153636D01*
X216063Y152792D01*
X216625Y152416D01*
X217288Y152284D01*
X225399D01*
X226229Y151454D01*
X226791Y151079D01*
X227455Y150947D01*
X238631D01*
X239294Y151079D01*
X239826Y151434D01*
X240265Y151350D01*
X240826Y151118D01*
Y150314D01*
X240826Y149670D01*
X240826D01*
Y149314D01*
X240826D01*
Y145903D01*
X239902Y145520D01*
X239547Y145875D01*
X238985Y146251D01*
X238321Y146383D01*
X227447D01*
X226784Y146251D01*
X226221Y145875D01*
X224405Y144058D01*
X224029Y143496D01*
X223897Y142833D01*
Y140947D01*
X223780Y140869D01*
X222780Y141404D01*
Y142922D01*
X217230D01*
Y141632D01*
X217066Y141497D01*
X201970D01*
X201307Y141365D01*
X200745Y140989D01*
X197592Y137836D01*
X197216Y137274D01*
X197084Y136611D01*
Y135892D01*
X196951Y135723D01*
X196084Y135264D01*
X195838Y135366D01*
X195165Y135455D01*
X194492Y135366D01*
X193865Y135106D01*
X193326Y134693D01*
X193245Y134588D01*
X189043D01*
X188967Y134646D01*
X188340Y134906D01*
X187667Y134995D01*
X186994Y134906D01*
X186367Y134646D01*
X186208Y134525D01*
X185208Y135007D01*
Y135613D01*
X184166D01*
Y137042D01*
X186071Y138946D01*
X186446Y139508D01*
X186578Y140172D01*
Y150435D01*
X188927Y152784D01*
X189303Y153347D01*
X189435Y154010D01*
Y156287D01*
X189767Y156624D01*
X190435Y157024D01*
X190864Y156967D01*
X191537Y157055D01*
X192164Y157315D01*
X192703Y157729D01*
X193116Y158267D01*
X193376Y158894D01*
X193464Y159567D01*
X193376Y160240D01*
X193116Y160867D01*
X192703Y161406D01*
X192270Y161738D01*
X192151Y161966D01*
X192062Y162944D01*
X195614Y166495D01*
X195745Y166478D01*
X196418Y166566D01*
X197045Y166826D01*
X197584Y167239D01*
X197946Y167712D01*
X198041Y167784D01*
X199142Y167930D01*
X201601Y165471D01*
D02*
G37*
G36*
X241650Y165700D02*
Y158150D01*
X237913Y154413D01*
X234629D01*
X233696Y154576D01*
Y164741D01*
X238558D01*
X239222Y164873D01*
X239784Y165248D01*
X240650Y166115D01*
X241650Y165700D01*
D02*
G37*
G36*
X155585Y172709D02*
X156147Y172334D01*
X156810Y172202D01*
X161310D01*
Y168253D01*
X166860D01*
Y168253D01*
X167136Y168367D01*
X168118Y167386D01*
Y146284D01*
X168142Y146162D01*
X167445Y145162D01*
X165289D01*
X164583Y145868D01*
X164600Y146000D01*
X164512Y146673D01*
X164252Y147300D01*
X163839Y147839D01*
X163300Y148252D01*
X162673Y148512D01*
X162000Y148600D01*
X161275Y149513D01*
Y151815D01*
X159624D01*
X157422Y154017D01*
Y156648D01*
X157329Y157353D01*
X157057Y158010D01*
X156624Y158574D01*
X156121Y159077D01*
Y169960D01*
X151562D01*
Y171663D01*
X151970Y171975D01*
X152730Y172966D01*
X153077Y173803D01*
X154132Y174162D01*
X155585Y172709D01*
D02*
G37*
G36*
X120555Y126276D02*
X121094Y125862D01*
X121721Y125603D01*
X122394Y125514D01*
X123067Y125603D01*
X123694Y125862D01*
X123857Y125987D01*
X124046Y126017D01*
X124935Y125861D01*
X125100Y125763D01*
X125110Y125747D01*
X125346Y125590D01*
X125352Y124592D01*
X125352D01*
Y118593D01*
X131351D01*
Y118725D01*
X132663D01*
X133573Y117973D01*
X133662Y117300D01*
X133672Y117275D01*
X133013Y116275D01*
X130469D01*
Y115280D01*
X127602D01*
Y117292D01*
X121601D01*
Y110556D01*
X110513D01*
X109186Y111883D01*
Y125684D01*
X109808Y125963D01*
X110186Y126050D01*
X110691Y125713D01*
X111374Y125577D01*
X112057Y125713D01*
X112637Y126100D01*
X112824Y126381D01*
X120474D01*
X120555Y126276D01*
D02*
G37*
G36*
X161164Y125530D02*
X160932Y125299D01*
X160556Y124736D01*
X160424Y124073D01*
Y113950D01*
X158607Y112133D01*
X152820D01*
X152629Y112366D01*
Y125448D01*
X153168Y125719D01*
X153629Y125834D01*
X154108Y125514D01*
X154791Y125378D01*
X155475Y125514D01*
X156054Y125901D01*
X156423Y126454D01*
X160781D01*
X161164Y125530D01*
D02*
G37*
G36*
X280194Y124056D02*
X279194Y123425D01*
X279085Y123477D01*
Y126679D01*
X274093D01*
X273755Y126945D01*
X273335Y127457D01*
X273323Y127679D01*
X273365Y127994D01*
X273276Y128667D01*
X273016Y129294D01*
X272603Y129833D01*
X272065Y130246D01*
X271438Y130506D01*
X270765Y130594D01*
X270092Y130506D01*
X269464Y130246D01*
X268926Y129833D01*
X268513Y129294D01*
X268253Y128667D01*
X268164Y127994D01*
X268206Y127679D01*
X268023Y126679D01*
X268023D01*
Y125761D01*
X267067Y125338D01*
X266487Y125798D01*
X266412Y126373D01*
X266152Y127000D01*
X265739Y127539D01*
X265444Y127765D01*
Y136094D01*
X280194D01*
Y124056D01*
D02*
G37*
G36*
X178141Y134547D02*
Y119257D01*
X177378Y118684D01*
X177022D01*
Y118684D01*
X175383D01*
X174441Y119194D01*
X174353Y119867D01*
X174336Y119907D01*
Y125191D01*
X174336Y125191D01*
Y125547D01*
X174336D01*
X174336Y126191D01*
Y130900D01*
X174336D01*
X174701Y131748D01*
X174842Y131932D01*
X175102Y132559D01*
X175191Y133232D01*
X175122Y133756D01*
X175237Y134063D01*
X175832Y134756D01*
X176283D01*
X176946Y134888D01*
X177141Y135018D01*
X178141Y134547D01*
D02*
G37*
G36*
X208193Y119730D02*
Y117740D01*
X208227Y117573D01*
Y113440D01*
X215198D01*
X216015Y112601D01*
X215988Y112469D01*
X216127Y111770D01*
X216523Y111178D01*
X216679Y111073D01*
Y109927D01*
X216523Y109822D01*
X216127Y109230D01*
X215988Y108531D01*
X216127Y107833D01*
X215667Y106871D01*
X215060Y106493D01*
X214855Y106578D01*
X213359Y106979D01*
X211824Y107181D01*
X210276D01*
X208741Y106979D01*
X207246Y106578D01*
X205815Y105986D01*
X204816Y105409D01*
X204202Y106209D01*
X205152Y107159D01*
X205528Y107722D01*
X205660Y108385D01*
Y109690D01*
X206927D01*
Y115690D01*
X201572D01*
X201117Y116440D01*
X201572Y117190D01*
X206927D01*
Y119364D01*
X207927Y119905D01*
X208193Y119730D01*
D02*
G37*
G36*
X247878Y108531D02*
X248017Y107833D01*
X248208Y107547D01*
X248017Y107262D01*
X247878Y106563D01*
X247538Y106223D01*
X246840Y106084D01*
X246247Y105689D01*
X246143Y105533D01*
X244996D01*
X244892Y105689D01*
X244300Y106084D01*
X243601Y106223D01*
X242903Y106084D01*
X242310Y105689D01*
X242206Y105533D01*
X241059D01*
X240955Y105689D01*
X240363Y106084D01*
X239664Y106223D01*
X239212Y106133D01*
X238842Y106383D01*
X238651Y107543D01*
X239874Y108767D01*
X247685D01*
X247878Y108531D01*
D02*
G37*
G36*
X280194Y115401D02*
Y104429D01*
X279194Y103871D01*
X278757Y104052D01*
X277827Y104174D01*
X276897Y104052D01*
X276030Y103693D01*
X275286Y103122D01*
X274715Y102378D01*
X274468Y101781D01*
X269757D01*
Y101781D01*
X268968D01*
Y101781D01*
X264256D01*
X264009Y102378D01*
X263438Y103122D01*
X262694Y103693D01*
X261828Y104052D01*
X260898Y104174D01*
X259968Y104052D01*
X259101Y103693D01*
X258357Y103122D01*
X257786Y102378D01*
X257427Y101511D01*
X257305Y100582D01*
X257336Y100347D01*
X257317Y100291D01*
X256448Y99500D01*
X256359Y99512D01*
X255686Y99423D01*
X255059Y99164D01*
X254961Y99088D01*
X254878Y99152D01*
X254251Y99412D01*
X253578Y99500D01*
X253322Y99725D01*
Y103380D01*
X250243D01*
X250098Y103598D01*
X250245Y104367D01*
X250540Y104737D01*
X255609D01*
X256308Y104876D01*
X256900Y105272D01*
X257296Y105864D01*
X257435Y106563D01*
X257628Y106798D01*
X266205D01*
X266840Y106025D01*
X266814Y105896D01*
X267008Y104921D01*
X267560Y104095D01*
X268387Y103542D01*
X269362Y103348D01*
X270337Y103542D01*
X271164Y104095D01*
X271716Y104921D01*
X271910Y105896D01*
X271885Y106025D01*
X272519Y106798D01*
X272935D01*
X273598Y106930D01*
X274160Y107306D01*
X277601Y110746D01*
X277976Y111308D01*
X278108Y111972D01*
Y112767D01*
X279051D01*
Y115964D01*
X279194Y116032D01*
X280194Y115401D01*
D02*
G37*
G36*
X235029Y96806D02*
X235727Y96667D01*
X235962Y96473D01*
Y95088D01*
X234282D01*
Y92255D01*
X231541Y89514D01*
X231165Y88951D01*
X231033Y88288D01*
Y84924D01*
X226233D01*
Y72485D01*
X234341D01*
Y83335D01*
X234368Y83375D01*
X234500Y84038D01*
X234500Y84038D01*
Y87570D01*
X235697Y88767D01*
X236697Y88353D01*
Y85405D01*
X238807D01*
X240766Y83446D01*
Y83224D01*
X240799Y83057D01*
Y72485D01*
X248908D01*
Y84924D01*
X244036D01*
X243725Y85389D01*
X243725Y85389D01*
X242050Y87064D01*
Y90955D01*
X241465D01*
Y91334D01*
X241431Y91505D01*
Y95539D01*
X242340Y95851D01*
X242431Y95854D01*
X243457Y94828D01*
X244019Y94453D01*
X244682Y94321D01*
X247974D01*
Y90026D01*
X253327D01*
X253682Y89174D01*
Y86089D01*
Y82152D01*
X254116D01*
Y79998D01*
X254287Y79140D01*
X254773Y78412D01*
X254957Y78228D01*
Y68121D01*
X253957Y67705D01*
X253134Y68046D01*
X252050Y68189D01*
X250966Y68046D01*
X249956Y67627D01*
X249088Y66962D01*
X248423Y66094D01*
X248004Y65084D01*
X247861Y64000D01*
X248004Y62916D01*
X248423Y61906D01*
X249088Y61038D01*
X249956Y60373D01*
X250966Y59954D01*
X252050Y59811D01*
X253134Y59954D01*
X253957Y60295D01*
X254957Y59879D01*
Y58121D01*
X253957Y57705D01*
X253134Y58046D01*
X252050Y58189D01*
X250966Y58046D01*
X249956Y57627D01*
X249088Y56962D01*
X248423Y56094D01*
X248004Y55084D01*
X247861Y54000D01*
X248004Y52916D01*
X248423Y51906D01*
X248783Y51436D01*
X248290Y50436D01*
X245810D01*
X245317Y51436D01*
X245677Y51906D01*
X246096Y52916D01*
X246239Y54000D01*
X246096Y55084D01*
X245677Y56094D01*
X245012Y56962D01*
X244144Y57627D01*
X243134Y58046D01*
X242050Y58189D01*
X240966Y58046D01*
X239956Y57627D01*
X239088Y56962D01*
X238423Y56094D01*
X238004Y55084D01*
X237861Y54000D01*
X238004Y52916D01*
X238423Y51906D01*
X238783Y51436D01*
X238290Y50436D01*
X235810D01*
X235317Y51436D01*
X235677Y51906D01*
X236096Y52916D01*
X236239Y54000D01*
X236096Y55084D01*
X235677Y56094D01*
X235012Y56962D01*
X234144Y57627D01*
X233134Y58046D01*
X232050Y58189D01*
X230966Y58046D01*
X229956Y57627D01*
X229088Y56962D01*
X228423Y56094D01*
X228004Y55084D01*
X227861Y54000D01*
X228004Y52916D01*
X228423Y51906D01*
X228783Y51436D01*
X228290Y50436D01*
X225810D01*
X225317Y51436D01*
X225677Y51906D01*
X226096Y52916D01*
X226239Y54000D01*
X226096Y55084D01*
X225677Y56094D01*
X225012Y56962D01*
X224144Y57627D01*
X223134Y58046D01*
X222050Y58189D01*
X220966Y58046D01*
X219956Y57627D01*
X219088Y56962D01*
X218423Y56094D01*
X218004Y55084D01*
X217861Y54000D01*
X218004Y52916D01*
X218423Y51906D01*
X218783Y51436D01*
X218290Y50436D01*
X215810D01*
X215317Y51436D01*
X215677Y51906D01*
X216096Y52916D01*
X216239Y54000D01*
X216096Y55084D01*
X215677Y56094D01*
X215012Y56962D01*
X214144Y57627D01*
X213134Y58046D01*
X212050Y58189D01*
X210966Y58046D01*
X209956Y57627D01*
X209088Y56962D01*
X208423Y56094D01*
X208004Y55084D01*
X207861Y54000D01*
X208004Y52916D01*
X208423Y51906D01*
X208783Y51436D01*
X208290Y50436D01*
X205810D01*
X205317Y51436D01*
X205677Y51906D01*
X206096Y52916D01*
X206239Y54000D01*
X206096Y55084D01*
X205677Y56094D01*
X205012Y56962D01*
X204144Y57627D01*
X203134Y58046D01*
X202050Y58189D01*
X200966Y58046D01*
X199956Y57627D01*
X199088Y56962D01*
X198423Y56094D01*
X198004Y55084D01*
X197861Y54000D01*
X198004Y52916D01*
X198423Y51906D01*
X198783Y51436D01*
X198290Y50436D01*
X195810D01*
X195317Y51436D01*
X195677Y51906D01*
X196096Y52916D01*
X196239Y54000D01*
X196096Y55084D01*
X195677Y56094D01*
X195012Y56962D01*
X194144Y57627D01*
X193134Y58046D01*
X192050Y58189D01*
X190966Y58046D01*
X189956Y57627D01*
X189088Y56962D01*
X188423Y56094D01*
X188004Y55084D01*
X187861Y54000D01*
X188004Y52916D01*
X188423Y51906D01*
X188783Y51436D01*
X188290Y50436D01*
X185810D01*
X185317Y51436D01*
X185677Y51906D01*
X186096Y52916D01*
X186239Y54000D01*
X186096Y55084D01*
X185677Y56094D01*
X185012Y56962D01*
X184144Y57627D01*
X183134Y58046D01*
X182050Y58189D01*
X181080Y58061D01*
X179640Y59501D01*
Y65927D01*
X179470Y66786D01*
X179447Y66820D01*
Y69050D01*
X179296Y69811D01*
X178865Y70456D01*
X176075Y73246D01*
X175429Y73677D01*
X174669Y73828D01*
X172110D01*
X171968Y73800D01*
X170719D01*
X166431Y78088D01*
X166513Y78455D01*
X167301Y79131D01*
X167965Y78999D01*
X168112D01*
X168193Y78894D01*
X168731Y78480D01*
X169359Y78221D01*
X170031Y78132D01*
X176724D01*
X177397Y78221D01*
X178024Y78480D01*
X178563Y78894D01*
X178976Y79432D01*
X179236Y80059D01*
X179237Y80067D01*
X183591Y84421D01*
X186231D01*
X186897Y83697D01*
X187113Y83373D01*
X187595Y82891D01*
Y80624D01*
X187490Y80543D01*
X187077Y80005D01*
X186817Y79378D01*
X186729Y78705D01*
X186817Y78032D01*
X187077Y77405D01*
X187490Y76866D01*
X188029Y76453D01*
X188656Y76193D01*
X189329Y76104D01*
X189947Y75562D01*
Y69947D01*
X198253D01*
Y78253D01*
X192325D01*
X191929Y78705D01*
X191840Y79378D01*
X191581Y80005D01*
X191167Y80543D01*
X191062Y80624D01*
Y83609D01*
X190930Y84272D01*
X190554Y84835D01*
X190072Y85317D01*
Y86315D01*
X190917Y86690D01*
X191272D01*
Y86690D01*
X196625D01*
Y86922D01*
X197625Y87336D01*
X203912Y81049D01*
X204475Y80673D01*
X205138Y80541D01*
X217275D01*
X217938Y80673D01*
X218500Y81049D01*
X225226Y87774D01*
X225601Y88336D01*
X225733Y89000D01*
Y92405D01*
X229079Y95751D01*
X229454Y96313D01*
X229536Y96723D01*
X229822Y96667D01*
X230520Y96806D01*
X230806Y96996D01*
X231092Y96806D01*
X231790Y96667D01*
X232489Y96806D01*
X232774Y96996D01*
X233060Y96806D01*
X233759Y96667D01*
X234457Y96806D01*
X234743Y96996D01*
X235029Y96806D01*
D02*
G37*
G36*
X156491Y103399D02*
X156752Y102691D01*
X157012Y102064D01*
X157425Y101525D01*
X157539Y101438D01*
X157552Y101418D01*
Y94268D01*
X157552Y93747D01*
X156615Y93332D01*
X150543D01*
X149870Y93244D01*
X149243Y92984D01*
X149232Y92975D01*
X140297D01*
X139439Y92805D01*
X138711Y92318D01*
X137778Y91385D01*
X131800D01*
Y84075D01*
X130926Y83182D01*
X130661Y83217D01*
X129479Y83061D01*
X128705Y83559D01*
X128531Y83796D01*
X128461Y84333D01*
X128201Y84960D01*
X127787Y85499D01*
X127249Y85912D01*
X126622Y86172D01*
X126380Y86203D01*
Y89760D01*
X126485Y89841D01*
X126899Y90379D01*
X127158Y91006D01*
X127247Y91680D01*
X127158Y92352D01*
X126899Y92980D01*
X126485Y93518D01*
X125947Y93931D01*
X125320Y94191D01*
X124647Y94280D01*
X123974Y94191D01*
X123347Y93931D01*
X122879Y93573D01*
X122567Y93630D01*
X121879Y93950D01*
Y96802D01*
X122638Y97561D01*
X139629D01*
X140292Y97693D01*
X140854Y98069D01*
X143375Y100590D01*
X143751Y101152D01*
X143883Y101815D01*
Y103264D01*
X144150Y103453D01*
X145150Y102936D01*
Y94891D01*
X153050D01*
Y103089D01*
X153525Y103564D01*
X155681D01*
X156491Y103399D01*
D02*
G37*
G36*
X191468Y112202D02*
X191469Y112195D01*
Y108710D01*
X191469Y108710D01*
Y108353D01*
X191469D01*
X191469Y107709D01*
Y103001D01*
X195828D01*
X196590Y102239D01*
Y96834D01*
X191469D01*
Y93307D01*
X190660Y92550D01*
X190072Y92685D01*
Y94051D01*
X189940Y94714D01*
X189564Y95277D01*
X186922Y97919D01*
Y102080D01*
Y111951D01*
X187209Y112511D01*
X187866Y112776D01*
X190894D01*
X191468Y112202D01*
D02*
G37*
G36*
X165640Y119054D02*
X165729Y118381D01*
X165989Y117754D01*
X166402Y117215D01*
X166941Y116802D01*
X167568Y116542D01*
X168241Y116454D01*
X168914Y116542D01*
X169541Y116802D01*
X169708Y116930D01*
X170569Y116873D01*
X170900Y116642D01*
X171669Y115873D01*
Y113135D01*
X177022D01*
Y113135D01*
X177378D01*
Y113135D01*
X179444D01*
X179805Y112594D01*
X179979Y112420D01*
X180464Y111633D01*
X180464D01*
X180464Y111633D01*
Y107461D01*
X183456D01*
Y104153D01*
X180464D01*
Y99981D01*
X183456D01*
Y97201D01*
X183588Y96538D01*
X183963Y95975D01*
X186605Y93333D01*
Y92239D01*
X185564D01*
Y89774D01*
X183221D01*
X183063Y89894D01*
X182590Y90774D01*
X182686Y91006D01*
X182775Y91680D01*
X182686Y92352D01*
X182427Y92980D01*
X182013Y93518D01*
X181475Y93931D01*
X180848Y94191D01*
X180175Y94280D01*
X179502Y94191D01*
X178875Y93931D01*
X178336Y93518D01*
X178178Y93500D01*
X177315Y94258D01*
Y99295D01*
X176159D01*
X175968Y99422D01*
X175500Y99515D01*
X175404D01*
X174597Y99981D01*
Y101771D01*
X174656Y102067D01*
X174597Y102363D01*
Y107461D01*
Y109251D01*
X174656Y109547D01*
X174597Y109843D01*
Y111633D01*
X173203D01*
X172413Y111790D01*
X169431D01*
Y112291D01*
X164684D01*
X163891Y113232D01*
X163891Y113287D01*
Y119447D01*
X164891Y119694D01*
X165640Y119054D01*
D02*
G37*
%LPC*%
G36*
X109046Y336440D02*
X99954D01*
Y336011D01*
X99791Y335822D01*
X98953Y335395D01*
X98673Y335512D01*
X98000Y335600D01*
X97327Y335512D01*
X96700Y335252D01*
X96161Y334839D01*
X95748Y334300D01*
X95488Y333673D01*
X95400Y333000D01*
X95488Y332327D01*
X95748Y331700D01*
X96161Y331161D01*
X96700Y330748D01*
X97327Y330488D01*
X98000Y330400D01*
X98673Y330488D01*
X98953Y330605D01*
X99954Y330103D01*
Y330103D01*
X109046D01*
Y336440D01*
D02*
G37*
G36*
X251278Y355211D02*
X249730D01*
X248195Y355009D01*
X246699Y354608D01*
X245269Y354016D01*
X243928Y353242D01*
X242700Y352299D01*
X241605Y351204D01*
X240662Y349976D01*
X239888Y348635D01*
X239296Y347205D01*
X238895Y345709D01*
X238693Y344174D01*
Y342626D01*
X238895Y341091D01*
X239296Y339595D01*
X239888Y338165D01*
X240662Y336824D01*
X241605Y335596D01*
X242700Y334501D01*
X243928Y333558D01*
X245269Y332784D01*
X246699Y332192D01*
X248195Y331791D01*
X249730Y331589D01*
X251278D01*
X252813Y331791D01*
X254309Y332192D01*
X255739Y332784D01*
X257080Y333558D01*
X258308Y334501D01*
X259403Y335596D01*
X260346Y336824D01*
X261120Y338165D01*
X261712Y339595D01*
X262113Y341091D01*
X262315Y342626D01*
Y344174D01*
X262113Y345709D01*
X261712Y347205D01*
X261120Y348635D01*
X260346Y349976D01*
X259403Y351204D01*
X258308Y352299D01*
X257080Y353242D01*
X255739Y354016D01*
X254309Y354608D01*
X252813Y355009D01*
X251278Y355211D01*
D02*
G37*
G36*
X54418D02*
X52870D01*
X51335Y355009D01*
X49839Y354608D01*
X48409Y354016D01*
X47068Y353242D01*
X45840Y352299D01*
X44745Y351204D01*
X43802Y349976D01*
X43028Y348635D01*
X42436Y347205D01*
X42035Y345709D01*
X41833Y344174D01*
Y342626D01*
X42035Y341091D01*
X42436Y339595D01*
X43028Y338165D01*
X43802Y336824D01*
X44745Y335596D01*
X45840Y334501D01*
X47068Y333558D01*
X48409Y332784D01*
X49839Y332192D01*
X51335Y331791D01*
X52870Y331589D01*
X54418D01*
X55953Y331791D01*
X57449Y332192D01*
X58879Y332784D01*
X60220Y333558D01*
X61448Y334501D01*
X62543Y335596D01*
X63485Y336824D01*
X64260Y338165D01*
X64852Y339595D01*
X65253Y341091D01*
X65455Y342626D01*
Y344174D01*
X65253Y345709D01*
X64852Y347205D01*
X64260Y348635D01*
X63485Y349976D01*
X62543Y351204D01*
X61448Y352299D01*
X60220Y353242D01*
X58879Y354016D01*
X57449Y354608D01*
X55953Y355009D01*
X54418Y355211D01*
D02*
G37*
G36*
X167000Y335889D02*
X165916Y335746D01*
X164906Y335327D01*
X164038Y334662D01*
X163373Y333794D01*
X162954Y332784D01*
X162811Y331700D01*
X162954Y330616D01*
X163373Y329606D01*
X164038Y328738D01*
X164906Y328073D01*
X165916Y327654D01*
X167000Y327511D01*
X168084Y327654D01*
X169094Y328073D01*
X169962Y328738D01*
X170627Y329606D01*
X171046Y330616D01*
X171189Y331700D01*
X171046Y332784D01*
X170627Y333794D01*
X169962Y334662D01*
X169094Y335327D01*
X168084Y335746D01*
X167000Y335889D01*
D02*
G37*
G36*
Y325789D02*
X165916Y325646D01*
X164906Y325227D01*
X164038Y324562D01*
X163373Y323694D01*
X162954Y322684D01*
X162811Y321600D01*
X162954Y320516D01*
X163373Y319506D01*
X164038Y318638D01*
X164906Y317973D01*
X165916Y317554D01*
X167000Y317411D01*
X168084Y317554D01*
X169094Y317973D01*
X169962Y318638D01*
X170627Y319506D01*
X171046Y320516D01*
X171189Y321600D01*
X171046Y322684D01*
X170627Y323694D01*
X169962Y324562D01*
X169094Y325227D01*
X168084Y325646D01*
X167000Y325789D01*
D02*
G37*
G36*
X157000D02*
X155916Y325646D01*
X154906Y325227D01*
X154038Y324562D01*
X153373Y323694D01*
X152954Y322684D01*
X152811Y321600D01*
X152954Y320516D01*
X153373Y319506D01*
X154038Y318638D01*
X154906Y317973D01*
X155916Y317554D01*
X157000Y317411D01*
X158084Y317554D01*
X159094Y317973D01*
X159962Y318638D01*
X160627Y319506D01*
X161046Y320516D01*
X161189Y321600D01*
X161046Y322684D01*
X160627Y323694D01*
X159962Y324562D01*
X159094Y325227D01*
X158084Y325646D01*
X157000Y325789D01*
D02*
G37*
G36*
X203046Y323440D02*
X193954D01*
Y317103D01*
X203046D01*
Y323440D01*
D02*
G37*
G36*
X167000Y315789D02*
X165916Y315646D01*
X164906Y315227D01*
X164038Y314562D01*
X163373Y313694D01*
X162954Y312684D01*
X162811Y311600D01*
X162954Y310516D01*
X163373Y309506D01*
X164038Y308638D01*
X164906Y307973D01*
X165916Y307554D01*
X167000Y307411D01*
X168084Y307554D01*
X169094Y307973D01*
X169962Y308638D01*
X170627Y309506D01*
X171046Y310516D01*
X171189Y311600D01*
X171046Y312684D01*
X170627Y313694D01*
X169962Y314562D01*
X169094Y315227D01*
X168084Y315646D01*
X167000Y315789D01*
D02*
G37*
G36*
X157000D02*
X155916Y315646D01*
X154906Y315227D01*
X154038Y314562D01*
X153373Y313694D01*
X152954Y312684D01*
X152811Y311600D01*
X152954Y310516D01*
X153373Y309506D01*
X154038Y308638D01*
X154906Y307973D01*
X155916Y307554D01*
X157000Y307411D01*
X158084Y307554D01*
X159094Y307973D01*
X159962Y308638D01*
X160627Y309506D01*
X161046Y310516D01*
X161189Y311600D01*
X161046Y312684D01*
X160627Y313694D01*
X159962Y314562D01*
X159094Y315227D01*
X158084Y315646D01*
X157000Y315789D01*
D02*
G37*
G36*
X54418Y327652D02*
X52870D01*
X51335Y327450D01*
X49839Y327049D01*
X48409Y326457D01*
X47068Y325682D01*
X45840Y324740D01*
X44745Y323645D01*
X43802Y322417D01*
X43028Y321076D01*
X42436Y319646D01*
X42035Y318150D01*
X41833Y316615D01*
Y315067D01*
X42035Y313532D01*
X42436Y312036D01*
X43028Y310606D01*
X43802Y309265D01*
X44745Y308037D01*
X45840Y306942D01*
X47068Y305999D01*
X48409Y305225D01*
X49839Y304633D01*
X51335Y304232D01*
X52870Y304030D01*
X54418D01*
X55953Y304232D01*
X57449Y304633D01*
X58879Y305225D01*
X60220Y305999D01*
X61448Y306942D01*
X62543Y308037D01*
X63485Y309265D01*
X64260Y310606D01*
X64852Y312036D01*
X65253Y313532D01*
X65455Y315067D01*
Y316615D01*
X65253Y318150D01*
X64852Y319646D01*
X64260Y321076D01*
X63485Y322417D01*
X62543Y323645D01*
X61448Y324740D01*
X60220Y325682D01*
X58879Y326457D01*
X57449Y327049D01*
X55953Y327450D01*
X54418Y327652D01*
D02*
G37*
G36*
X37653Y268653D02*
X29347D01*
Y260347D01*
X37653D01*
Y268653D01*
D02*
G37*
G36*
X33500Y248689D02*
X32416Y248546D01*
X31406Y248127D01*
X30538Y247462D01*
X29873Y246594D01*
X29454Y245584D01*
X29311Y244500D01*
X29454Y243416D01*
X29873Y242406D01*
X30538Y241538D01*
X31406Y240873D01*
X32416Y240454D01*
X33500Y240311D01*
X34584Y240454D01*
X35594Y240873D01*
X36462Y241538D01*
X37127Y242406D01*
X37546Y243416D01*
X37689Y244500D01*
X37546Y245584D01*
X37127Y246594D01*
X36462Y247462D01*
X35594Y248127D01*
X34584Y248546D01*
X33500Y248689D01*
D02*
G37*
G36*
Y238689D02*
X32416Y238546D01*
X31406Y238127D01*
X30538Y237462D01*
X29873Y236594D01*
X29454Y235584D01*
X29311Y234500D01*
X29454Y233416D01*
X29873Y232406D01*
X30538Y231538D01*
X31406Y230873D01*
X32416Y230454D01*
X33500Y230311D01*
X34584Y230454D01*
X35594Y230873D01*
X36462Y231538D01*
X37127Y232406D01*
X37546Y233416D01*
X37689Y234500D01*
X37546Y235584D01*
X37127Y236594D01*
X36462Y237462D01*
X35594Y238127D01*
X34584Y238546D01*
X33500Y238689D01*
D02*
G37*
G36*
X43500Y138689D02*
X42416Y138546D01*
X41406Y138128D01*
X40538Y137462D01*
X39873Y136595D01*
X39454Y135584D01*
X39312Y134500D01*
X39454Y133416D01*
X39709Y132803D01*
X38861Y132236D01*
X37562Y133535D01*
X37689Y134500D01*
X37546Y135584D01*
X37128Y136595D01*
X36462Y137462D01*
X35595Y138128D01*
X34584Y138546D01*
X33500Y138689D01*
X32416Y138546D01*
X31406Y138128D01*
X30538Y137462D01*
X29873Y136595D01*
X29454Y135584D01*
X29312Y134500D01*
X29454Y133416D01*
X29873Y132406D01*
X30538Y131539D01*
X31406Y130873D01*
X32416Y130455D01*
X33500Y130312D01*
X34584Y130455D01*
X34892Y130582D01*
X37444Y128029D01*
X38089Y127598D01*
X38850Y127447D01*
X68682D01*
X69017Y127031D01*
X69227Y126502D01*
X68820Y125519D01*
X68678Y124435D01*
X68820Y123351D01*
X69152Y122549D01*
X68027Y121423D01*
X39674D01*
X37562Y123536D01*
X37689Y124500D01*
X37546Y125584D01*
X37127Y126594D01*
X36462Y127462D01*
X35594Y128127D01*
X34584Y128546D01*
X33500Y128689D01*
X32416Y128546D01*
X31406Y128127D01*
X30538Y127462D01*
X29873Y126594D01*
X29454Y125584D01*
X29311Y124500D01*
X29454Y123416D01*
X29873Y122406D01*
X30538Y121538D01*
X31406Y120873D01*
X32416Y120454D01*
X33500Y120311D01*
X34584Y120454D01*
X34892Y120582D01*
X37444Y118029D01*
X38089Y117598D01*
X38850Y117447D01*
X39419D01*
X39812Y116447D01*
X39454Y115584D01*
X39311Y114500D01*
X39454Y113416D01*
X39708Y112804D01*
X38860Y112237D01*
X37562Y113536D01*
X37689Y114500D01*
X37546Y115584D01*
X37127Y116594D01*
X36462Y117462D01*
X35594Y118127D01*
X34584Y118546D01*
X33500Y118689D01*
X32416Y118546D01*
X31406Y118127D01*
X30538Y117462D01*
X29873Y116594D01*
X29454Y115584D01*
X29311Y114500D01*
X29454Y113416D01*
X29873Y112406D01*
X30538Y111538D01*
X31406Y110873D01*
X32416Y110454D01*
X33500Y110311D01*
X34584Y110454D01*
X34892Y110582D01*
X37444Y108029D01*
X38089Y107598D01*
X38850Y107447D01*
X68682D01*
X69017Y107030D01*
X69227Y106502D01*
X68820Y105519D01*
X68678Y104435D01*
X68820Y103351D01*
X69152Y102549D01*
X68027Y101423D01*
X39674D01*
X37562Y103536D01*
X37689Y104500D01*
X37546Y105584D01*
X37127Y106594D01*
X36462Y107462D01*
X35594Y108127D01*
X34584Y108546D01*
X33500Y108689D01*
X32416Y108546D01*
X31406Y108127D01*
X30538Y107462D01*
X29873Y106594D01*
X29454Y105584D01*
X29311Y104500D01*
X29454Y103416D01*
X29873Y102406D01*
X30538Y101538D01*
X31406Y100873D01*
X32416Y100454D01*
X33500Y100311D01*
X34584Y100454D01*
X34892Y100582D01*
X37444Y98029D01*
X38089Y97598D01*
X38850Y97447D01*
X39419D01*
X39812Y96447D01*
X39454Y95584D01*
X39311Y94500D01*
X39454Y93416D01*
X39708Y92804D01*
X38860Y92237D01*
X37562Y93536D01*
X37689Y94500D01*
X37546Y95584D01*
X37127Y96594D01*
X36462Y97462D01*
X35594Y98127D01*
X34584Y98546D01*
X33500Y98689D01*
X32416Y98546D01*
X31406Y98127D01*
X30538Y97462D01*
X29873Y96594D01*
X29454Y95584D01*
X29311Y94500D01*
X29454Y93416D01*
X29873Y92406D01*
X30538Y91538D01*
X31406Y90873D01*
X32416Y90454D01*
X33500Y90311D01*
X34584Y90454D01*
X34892Y90582D01*
X37444Y88029D01*
X38089Y87598D01*
X38850Y87447D01*
X39419D01*
X39812Y86447D01*
X39454Y85584D01*
X39311Y84500D01*
X39454Y83416D01*
X39708Y82804D01*
X38860Y82237D01*
X37562Y83536D01*
X37689Y84500D01*
X37546Y85584D01*
X37127Y86594D01*
X36462Y87462D01*
X35594Y88127D01*
X34584Y88546D01*
X33500Y88689D01*
X32416Y88546D01*
X31406Y88127D01*
X30538Y87462D01*
X29873Y86594D01*
X29454Y85584D01*
X29311Y84500D01*
X29454Y83416D01*
X29873Y82406D01*
X30538Y81538D01*
X31406Y80873D01*
X32416Y80454D01*
X33500Y80311D01*
X34584Y80454D01*
X34892Y80582D01*
X37444Y78029D01*
X38089Y77598D01*
X38850Y77447D01*
X39419D01*
X39812Y76447D01*
X39454Y75584D01*
X39312Y74500D01*
X39454Y73416D01*
X39873Y72406D01*
X40538Y71538D01*
X41406Y70873D01*
X42416Y70454D01*
X43500Y70311D01*
X44584Y70454D01*
X45595Y70873D01*
X46462Y71538D01*
X46595Y71712D01*
X59721D01*
X59904Y71473D01*
X60772Y70808D01*
X61782Y70389D01*
X62866Y70246D01*
X64835D01*
X65919Y70389D01*
X66929Y70808D01*
X67796Y71473D01*
X68462Y72341D01*
X68880Y73351D01*
X69023Y74435D01*
X68880Y75519D01*
X68496Y76447D01*
X68703Y77030D01*
X68996Y77476D01*
X69611Y77598D01*
X70256Y78029D01*
X72519Y80292D01*
X72866Y80247D01*
X74835D01*
X75919Y80389D01*
X76929Y80808D01*
X77796Y81473D01*
X78462Y82341D01*
X78881Y83351D01*
X79023Y84435D01*
X78881Y85519D01*
X78462Y86529D01*
X77796Y87397D01*
X76929Y88063D01*
X75919Y88481D01*
X74835Y88624D01*
X72866D01*
X72174Y88533D01*
X71707Y89480D01*
X72519Y90292D01*
X72866Y90246D01*
X74835D01*
X75919Y90389D01*
X76929Y90808D01*
X77796Y91473D01*
X78462Y92341D01*
X78881Y93351D01*
X79023Y94435D01*
X78881Y95519D01*
X78462Y96529D01*
X77796Y97397D01*
X76929Y98062D01*
X75919Y98481D01*
X74835Y98624D01*
X72866D01*
X72174Y98532D01*
X71707Y99480D01*
X72519Y100292D01*
X72866Y100247D01*
X74835D01*
X75919Y100389D01*
X76929Y100808D01*
X77796Y101473D01*
X78462Y102341D01*
X78881Y103351D01*
X79023Y104435D01*
X78881Y105519D01*
X78462Y106529D01*
X77796Y107397D01*
X76929Y108063D01*
X75919Y108481D01*
X74835Y108624D01*
X72866D01*
X72174Y108533D01*
X71707Y109480D01*
X72519Y110292D01*
X72866Y110247D01*
X74835D01*
X75919Y110389D01*
X76929Y110808D01*
X77796Y111473D01*
X78462Y112341D01*
X78881Y113351D01*
X79023Y114435D01*
X78881Y115519D01*
X78462Y116529D01*
X77796Y117397D01*
X76929Y118062D01*
X75919Y118481D01*
X74835Y118624D01*
X72866D01*
X72174Y118533D01*
X71707Y119480D01*
X72519Y120292D01*
X72866Y120247D01*
X74835D01*
X75919Y120389D01*
X76929Y120808D01*
X77796Y121473D01*
X78462Y122341D01*
X78881Y123351D01*
X79023Y124435D01*
X78881Y125519D01*
X78462Y126529D01*
X77796Y127397D01*
X76929Y128062D01*
X75919Y128481D01*
X74835Y128624D01*
X72866D01*
X72174Y128533D01*
X71707Y129480D01*
X72519Y130292D01*
X72866Y130246D01*
X74835D01*
X75919Y130389D01*
X76929Y130808D01*
X77796Y131473D01*
X78462Y132341D01*
X78881Y133351D01*
X79023Y134435D01*
X78881Y135519D01*
X78462Y136529D01*
X77796Y137397D01*
X76929Y138063D01*
X75919Y138481D01*
X74835Y138624D01*
X72866D01*
X71782Y138481D01*
X70772Y138063D01*
X69904Y137397D01*
X69437Y136788D01*
X69117Y136703D01*
X68584D01*
X68264Y136788D01*
X67796Y137397D01*
X66929Y138063D01*
X65919Y138481D01*
X64835Y138624D01*
X62866D01*
X61782Y138481D01*
X60772Y138063D01*
X59904Y137397D01*
X59721Y137158D01*
X46695D01*
X46462Y137462D01*
X45595Y138128D01*
X44584Y138546D01*
X43500Y138689D01*
D02*
G37*
G36*
X104630Y80298D02*
X96325D01*
Y71993D01*
X104630D01*
Y80298D01*
D02*
G37*
G36*
X272050Y68189D02*
X270966Y68046D01*
X269956Y67627D01*
X269088Y66962D01*
X268423Y66094D01*
X268004Y65084D01*
X267861Y64000D01*
X268004Y62916D01*
X268423Y61906D01*
X269088Y61038D01*
X269956Y60373D01*
X270966Y59954D01*
X272050Y59811D01*
X273134Y59954D01*
X274144Y60373D01*
X275012Y61038D01*
X275677Y61906D01*
X276096Y62916D01*
X276239Y64000D01*
X276096Y65084D01*
X275677Y66094D01*
X275012Y66962D01*
X274144Y67627D01*
X273134Y68046D01*
X272050Y68189D01*
D02*
G37*
G36*
X82028Y77100D02*
X81355Y77012D01*
X80728Y76752D01*
X80189Y76339D01*
X79776Y75800D01*
X79516Y75173D01*
X79428Y74500D01*
X79516Y73827D01*
X79776Y73200D01*
X80189Y72661D01*
X80728Y72248D01*
X81355Y71988D01*
X82028Y71900D01*
X82160Y71917D01*
X89821Y64255D01*
X90384Y63880D01*
X91047Y63748D01*
X107090D01*
X112002Y58835D01*
X111946Y58265D01*
X110912Y57970D01*
X110467Y58550D01*
X109394Y59373D01*
X108144Y59891D01*
X106803Y60067D01*
X105462Y59891D01*
X104212Y59373D01*
X103139Y58550D01*
X102353Y57525D01*
X101813Y57446D01*
X101793D01*
X101253Y57525D01*
X100467Y58550D01*
X99394Y59373D01*
X98144Y59891D01*
X96803Y60067D01*
X95462Y59891D01*
X94213Y59373D01*
X93139Y58550D01*
X92316Y57477D01*
X91798Y56227D01*
X91622Y54886D01*
X91798Y53545D01*
X92316Y52295D01*
X93139Y51222D01*
X94213Y50399D01*
X95462Y49881D01*
X96803Y49705D01*
X98144Y49881D01*
X99394Y50399D01*
X100467Y51222D01*
X101253Y52247D01*
X101793Y52326D01*
X101813D01*
X102353Y52247D01*
X103139Y51222D01*
X104212Y50399D01*
X105462Y49881D01*
X106803Y49705D01*
X108144Y49881D01*
X109394Y50399D01*
X110467Y51222D01*
X111290Y52295D01*
X111592Y53024D01*
X112382Y53173D01*
X112729Y53156D01*
X121117Y44768D01*
X121100Y44637D01*
X121188Y43964D01*
X121448Y43336D01*
X121861Y42798D01*
X122400Y42385D01*
X123027Y42125D01*
X123700Y42036D01*
X124373Y42125D01*
X125000Y42385D01*
X125539Y42798D01*
X125952Y43336D01*
X126212Y43964D01*
X126300Y44637D01*
X126212Y45310D01*
X125952Y45937D01*
X125539Y46475D01*
X125000Y46888D01*
X124373Y47148D01*
X123700Y47237D01*
X123568Y47219D01*
X119336Y51452D01*
X119803Y52399D01*
X120661Y52286D01*
X122149Y52482D01*
X123536Y53057D01*
X124727Y53970D01*
X125640Y55161D01*
X126215Y56547D01*
X126411Y58035D01*
X126215Y59523D01*
X125640Y60910D01*
X124727Y62101D01*
X123536Y63014D01*
X122149Y63589D01*
X120661Y63785D01*
X119173Y63589D01*
X117787Y63014D01*
X116596Y62101D01*
X115910Y61206D01*
X115860Y61171D01*
X114959Y61026D01*
X114667Y61072D01*
X109033Y66707D01*
X108471Y67082D01*
X107808Y67214D01*
X91765D01*
X84611Y74368D01*
X84628Y74500D01*
X84540Y75173D01*
X84280Y75800D01*
X83867Y76339D01*
X83328Y76752D01*
X82701Y77012D01*
X82028Y77100D01*
D02*
G37*
G36*
X140661Y63785D02*
X139173Y63589D01*
X137787Y63014D01*
X136596Y62101D01*
X135682Y60910D01*
X135108Y59523D01*
X134912Y58035D01*
X135108Y56547D01*
X135682Y55161D01*
X136596Y53970D01*
X137787Y53057D01*
X139173Y52482D01*
X140661Y52286D01*
X142149Y52482D01*
X143536Y53057D01*
X144727Y53970D01*
X145640Y55161D01*
X146215Y56547D01*
X146411Y58035D01*
X146215Y59523D01*
X145640Y60910D01*
X144727Y62101D01*
X143536Y63014D01*
X142149Y63589D01*
X140661Y63785D01*
D02*
G37*
G36*
X272050Y58189D02*
X270966Y58046D01*
X269956Y57627D01*
X269088Y56962D01*
X268423Y56094D01*
X268004Y55084D01*
X267861Y54000D01*
X268004Y52916D01*
X268423Y51906D01*
X269088Y51038D01*
X269956Y50373D01*
X270966Y49954D01*
X272050Y49811D01*
X273134Y49954D01*
X274144Y50373D01*
X275012Y51038D01*
X275677Y51906D01*
X276096Y52916D01*
X276239Y54000D01*
X276096Y55084D01*
X275677Y56094D01*
X275012Y56962D01*
X274144Y57627D01*
X273134Y58046D01*
X272050Y58189D01*
D02*
G37*
G36*
X39659Y67063D02*
X38110D01*
X36575Y66861D01*
X35080Y66461D01*
X33650Y65868D01*
X32309Y65094D01*
X31080Y64151D01*
X29985Y63057D01*
X29043Y61828D01*
X28269Y60487D01*
X27676Y59057D01*
X27276Y57561D01*
X27073Y56026D01*
Y54478D01*
X27276Y52943D01*
X27676Y51448D01*
X28269Y50017D01*
X29043Y48676D01*
X29985Y47448D01*
X31080Y46353D01*
X32309Y45411D01*
X33650Y44637D01*
X35080Y44044D01*
X36575Y43643D01*
X38110Y43441D01*
X39659D01*
X41194Y43643D01*
X42689Y44044D01*
X44120Y44637D01*
X45461Y45411D01*
X46689Y46353D01*
X47784Y47448D01*
X48726Y48676D01*
X49500Y50017D01*
X50093Y51448D01*
X50494Y52943D01*
X50696Y54478D01*
Y56026D01*
X50494Y57561D01*
X50093Y59057D01*
X49500Y60487D01*
X48726Y61828D01*
X47784Y63057D01*
X46689Y64151D01*
X45461Y65094D01*
X44120Y65868D01*
X42689Y66461D01*
X41194Y66861D01*
X39659Y67063D01*
D02*
G37*
G36*
X191053Y151112D02*
X190380Y151023D01*
X189753Y150763D01*
X189215Y150350D01*
X188802Y149812D01*
X188542Y149185D01*
X188453Y148512D01*
X188542Y147839D01*
X188802Y147212D01*
X189215Y146673D01*
X189753Y146260D01*
X190380Y146000D01*
X190385Y145999D01*
X191088Y145269D01*
X191106Y144941D01*
X191053Y144540D01*
X191142Y143867D01*
X191402Y143240D01*
X191773Y142756D01*
X191402Y142273D01*
X191142Y141646D01*
X191053Y140973D01*
X191142Y140300D01*
X191402Y139673D01*
X191815Y139134D01*
X192353Y138721D01*
X192981Y138461D01*
X193654Y138373D01*
X194326Y138461D01*
X194954Y138721D01*
X195492Y139134D01*
X195905Y139673D01*
X196165Y140300D01*
X196254Y140973D01*
X196165Y141646D01*
X195905Y142273D01*
X195534Y142756D01*
X195905Y143240D01*
X196165Y143867D01*
X196254Y144540D01*
X196165Y145213D01*
X195905Y145840D01*
X195492Y146379D01*
X194954Y146792D01*
X194326Y147052D01*
X194322Y147052D01*
X193619Y147783D01*
X193601Y148111D01*
X193654Y148512D01*
X193565Y149185D01*
X193305Y149812D01*
X192892Y150350D01*
X192353Y150763D01*
X191726Y151023D01*
X191053Y151112D01*
D02*
G37*
G36*
X242050Y68189D02*
X240966Y68046D01*
X239956Y67627D01*
X239088Y66962D01*
X238423Y66094D01*
X238004Y65084D01*
X237861Y64000D01*
X238004Y62916D01*
X238423Y61906D01*
X239088Y61038D01*
X239956Y60373D01*
X240966Y59954D01*
X242050Y59811D01*
X243134Y59954D01*
X244144Y60373D01*
X245012Y61038D01*
X245677Y61906D01*
X246096Y62916D01*
X246239Y64000D01*
X246096Y65084D01*
X245677Y66094D01*
X245012Y66962D01*
X244144Y67627D01*
X243134Y68046D01*
X242050Y68189D01*
D02*
G37*
G36*
X232050D02*
X230966Y68046D01*
X229956Y67627D01*
X229088Y66962D01*
X228423Y66094D01*
X228004Y65084D01*
X227861Y64000D01*
X228004Y62916D01*
X228423Y61906D01*
X229088Y61038D01*
X229956Y60373D01*
X230966Y59954D01*
X232050Y59811D01*
X233134Y59954D01*
X234144Y60373D01*
X235012Y61038D01*
X235677Y61906D01*
X236096Y62916D01*
X236239Y64000D01*
X236096Y65084D01*
X235677Y66094D01*
X235012Y66962D01*
X234144Y67627D01*
X233134Y68046D01*
X232050Y68189D01*
D02*
G37*
G36*
X222050D02*
X220966Y68046D01*
X219956Y67627D01*
X219088Y66962D01*
X218423Y66094D01*
X218004Y65084D01*
X217861Y64000D01*
X218004Y62916D01*
X218423Y61906D01*
X219088Y61038D01*
X219956Y60373D01*
X220966Y59954D01*
X222050Y59811D01*
X223134Y59954D01*
X224144Y60373D01*
X225012Y61038D01*
X225677Y61906D01*
X226096Y62916D01*
X226239Y64000D01*
X226096Y65084D01*
X225677Y66094D01*
X225012Y66962D01*
X224144Y67627D01*
X223134Y68046D01*
X222050Y68189D01*
D02*
G37*
G36*
X214800Y75000D02*
X214127Y74912D01*
X213500Y74652D01*
X212961Y74239D01*
X212548Y73700D01*
X212288Y73073D01*
X212200Y72400D01*
X212288Y71727D01*
X212548Y71100D01*
X212844Y70714D01*
X212835Y70707D01*
X212421Y70168D01*
X212162Y69541D01*
X212073Y68868D01*
X211169Y68073D01*
X210966Y68046D01*
X209956Y67627D01*
X209088Y66962D01*
X208423Y66094D01*
X208004Y65084D01*
X207861Y64000D01*
X208004Y62916D01*
X208423Y61906D01*
X209088Y61038D01*
X209956Y60373D01*
X210966Y59954D01*
X212050Y59811D01*
X213134Y59954D01*
X214144Y60373D01*
X215012Y61038D01*
X215677Y61906D01*
X216096Y62916D01*
X216239Y64000D01*
X216096Y65084D01*
X215677Y66094D01*
X216328Y66889D01*
X216512Y67029D01*
X216925Y67568D01*
X217185Y68195D01*
X217273Y68868D01*
X217185Y69541D01*
X216925Y70168D01*
X216629Y70554D01*
X216639Y70561D01*
X217052Y71100D01*
X217312Y71727D01*
X217400Y72400D01*
X217312Y73073D01*
X217052Y73700D01*
X216639Y74239D01*
X216100Y74652D01*
X215473Y74912D01*
X214800Y75000D01*
D02*
G37*
G36*
X202050Y68734D02*
X201019Y68598D01*
X200058Y68200D01*
X199233Y67567D01*
X198600Y66742D01*
X198202Y65781D01*
X198066Y64750D01*
Y63250D01*
X198202Y62219D01*
X198600Y61258D01*
X199233Y60433D01*
X200058Y59800D01*
X201019Y59402D01*
X202050Y59266D01*
X203081Y59402D01*
X204042Y59800D01*
X204867Y60433D01*
X205500Y61258D01*
X205898Y62219D01*
X206034Y63250D01*
Y64750D01*
X205898Y65781D01*
X205500Y66742D01*
X204867Y67567D01*
X204042Y68200D01*
X203081Y68598D01*
X202050Y68734D01*
D02*
G37*
G36*
X192050D02*
X191019Y68598D01*
X190058Y68200D01*
X189233Y67567D01*
X188600Y66742D01*
X188202Y65781D01*
X188066Y64750D01*
Y63250D01*
X188202Y62219D01*
X188600Y61258D01*
X189233Y60433D01*
X190058Y59800D01*
X191019Y59402D01*
X192050Y59266D01*
X193081Y59402D01*
X194042Y59800D01*
X194867Y60433D01*
X195500Y61258D01*
X195898Y62219D01*
X196034Y63250D01*
Y64750D01*
X195898Y65781D01*
X195500Y66742D01*
X194867Y67567D01*
X194042Y68200D01*
X193081Y68598D01*
X192050Y68734D01*
D02*
G37*
%LPD*%
D10*
X89736Y129370D02*
G03*
X92591Y128187I2854J2854D01*
G01*
X225885Y131913D02*
Y133335D01*
X224380Y131830D02*
X225801D01*
X221395Y131465D02*
X224015D01*
X225801Y131830D02*
X225885Y131913D01*
X224015Y131465D02*
X224380Y131830D01*
X241575Y125700D02*
X242050D01*
X240757Y124923D02*
X240797D01*
X241575Y125700D01*
X238768Y117083D02*
Y122933D01*
X240757Y124923D01*
X245570Y128278D02*
Y133335D01*
X240463Y128278D02*
X245135D01*
X245570Y133335D02*
Y137401D01*
X236193Y118374D02*
Y124008D01*
X240463Y128278D01*
X243601Y154869D02*
X248578Y159846D01*
X248164Y170632D02*
X248578Y170218D01*
X251078Y173308D02*
X251893Y172492D01*
X248164Y176938D02*
X248742Y177516D01*
X248164Y170632D02*
Y176938D01*
X251078Y173308D02*
Y175534D01*
X248742Y177516D02*
Y179518D01*
X250742Y175870D02*
X251078Y175534D01*
X248578Y159846D02*
Y170218D01*
X248742Y179518D02*
X249078Y179854D01*
X251893Y159713D02*
Y172492D01*
X276375Y111972D02*
Y115500D01*
X243146Y195964D02*
Y198739D01*
X265547Y207504D02*
Y216344D01*
X243146Y191303D02*
Y195964D01*
X243093Y191303D02*
X249346D01*
X265547Y207504D01*
X243146Y198739D02*
Y201597D01*
X93065Y263154D02*
Y267255D01*
X227906Y242144D02*
Y279691D01*
X267367Y247406D02*
Y255224D01*
Y242015D02*
Y247406D01*
X93065Y258555D02*
Y263154D01*
X154725Y230279D02*
X160189D01*
X185705Y226574D02*
X186000Y226869D01*
X160189Y230279D02*
X166070D01*
X183112Y223980D02*
X185705Y226574D01*
X227906Y235863D02*
Y242144D01*
X243093Y185424D02*
Y191303D01*
X266141Y256450D02*
Y264908D01*
Y286217D01*
X249289Y282445D02*
Y284897D01*
X230869Y288056D02*
X233911D01*
X230869Y282655D02*
Y288056D01*
X243093Y184270D02*
Y185424D01*
X208811Y190319D02*
Y194159D01*
X196772Y226279D02*
Y229935D01*
Y225783D02*
Y226279D01*
X208811Y190319D02*
X212179D01*
X158693Y344679D02*
X164603D01*
X127866Y225159D02*
X131076D01*
X172394Y173063D02*
X174165D01*
X176579D01*
X170492Y176736D02*
X174165Y173063D01*
X169711Y122416D02*
X171561D01*
X127866Y225087D02*
Y225159D01*
Y221067D02*
Y225087D01*
X81055Y200752D02*
X84205D01*
X164085Y176736D02*
X167814D01*
X137551Y190516D02*
Y192989D01*
X165512Y122818D02*
X169308D01*
X252197Y202951D02*
X252723Y202425D01*
X255052D01*
X255388Y202089D01*
X127866Y221067D02*
X130711Y218222D01*
X120146Y85302D02*
Y97520D01*
X113732Y72602D02*
Y78888D01*
X120146Y85302D01*
Y97520D02*
X121921Y99295D01*
X124647Y84962D02*
Y91680D01*
X124647Y91680D02*
X124647Y91680D01*
Y84962D02*
X125949Y83660D01*
X245340Y106930D02*
X245585Y106685D01*
X241633Y101445D02*
Y106344D01*
X242218Y106930D02*
X245340D01*
X241633Y106344D02*
X242218Y106930D01*
X245570Y101445D02*
X245585Y101460D01*
Y106685D01*
X245600Y106700D01*
X220767Y128217D02*
X225810D01*
X226786Y127240D01*
X227232D01*
X83220Y292456D02*
X86926D01*
X67491Y307857D02*
X94024D01*
X96803Y305079D01*
X60583Y300949D02*
X67491Y307857D01*
X198916Y124644D02*
Y125431D01*
X198159Y116090D02*
X198658Y115590D01*
X198916Y116847D02*
Y124644D01*
X197845Y115776D02*
X198159Y116090D01*
X198916Y116847D01*
X192795Y125076D02*
Y127902D01*
X192703Y127994D02*
X192795Y127902D01*
X205190Y132616D02*
X208969D01*
X204723Y132150D02*
X205190Y132616D01*
X209434Y122322D02*
X209927Y121829D01*
X210044Y125833D02*
Y125932D01*
X211227Y116440D02*
X211927D01*
X209434Y122322D02*
Y122797D01*
X213566Y122311D02*
X220767D01*
X209927Y117740D02*
X211227Y116440D01*
X208969Y126908D02*
X209068D01*
X209927Y117740D02*
Y121829D01*
X209068Y126908D02*
X210044Y125932D01*
Y125833D02*
X213566Y122311D01*
X248017Y152169D02*
Y155836D01*
X251893Y159713D01*
X248017Y146460D02*
X248115D01*
X249092Y145484D01*
Y145385D02*
Y145484D01*
Y145385D02*
X249464Y145013D01*
Y143436D02*
Y145013D01*
Y143436D02*
X249800Y143100D01*
X243601Y152347D02*
Y154869D01*
X230979Y141805D02*
X232774D01*
X230992Y139000D02*
X235000D01*
X229856Y137864D02*
X230992Y139000D01*
X229856Y133369D02*
Y137864D01*
X237696Y133335D02*
Y137449D01*
X239602Y139354D01*
X243601Y143240D02*
Y146638D01*
X238321Y144650D02*
X245570Y137401D01*
X227447Y144650D02*
X238321D01*
X243383Y157432D02*
Y184270D01*
X227455Y152680D02*
X238631D01*
X243383Y157432D01*
X225630Y142833D02*
X227447Y144650D01*
X227853Y138678D02*
X230979Y141805D01*
X227853Y133335D02*
Y138678D01*
X229822Y133335D02*
X229856Y133369D01*
X188127Y132854D02*
X195165D01*
X187667Y132395D02*
X188127Y132854D01*
X182433Y132839D02*
Y137760D01*
X188339Y84599D02*
Y89525D01*
X187702Y154010D02*
Y161034D01*
X184845Y151154D02*
X187702Y154010D01*
X184845Y140172D02*
Y151154D01*
X185444Y155327D02*
Y171739D01*
X182686Y152569D02*
X185444Y155327D01*
X176283Y136489D02*
X178258Y138464D01*
X178278D01*
X180755Y140941D01*
X177553Y140164D02*
X177574D01*
X178976Y141566D01*
Y155823D01*
X182686Y140468D02*
Y152569D01*
X179874Y137656D02*
X182686Y140468D01*
X180755Y140941D02*
Y154399D01*
X180054Y115909D02*
X181031Y114933D01*
X179874Y116090D02*
X180054Y115909D01*
X170431Y128322D02*
X171561D01*
X182986Y156631D02*
Y171686D01*
X180755Y154399D02*
X182986Y156631D01*
Y171686D02*
X191095Y179794D01*
X178976Y155823D02*
X180755Y157602D01*
Y171859D02*
X189126Y180230D01*
X178976Y161566D02*
Y172484D01*
X180755Y157602D02*
Y171859D01*
X178976Y172484D02*
X187157Y180665D01*
X174400Y156990D02*
X178976Y161566D01*
X175579Y138189D02*
X177553Y140164D01*
X174400Y153664D02*
Y156990D01*
X174165Y153429D02*
X174400Y153664D01*
X128351Y180870D02*
X149875D01*
X96803Y301343D02*
Y305079D01*
X127958Y180870D02*
X128351Y181264D01*
X29985Y300949D02*
X60583D01*
X98184Y263154D02*
X102068D01*
X108840Y256381D02*
X130886D01*
X102068Y263154D02*
X108840Y256381D01*
X101412Y267080D02*
X109956Y258537D01*
X101412Y267080D02*
Y267080D01*
X109956Y258537D02*
X131134D01*
X98253Y270240D02*
X101412Y267080D01*
X230985Y221994D02*
X231029Y222038D01*
X216685D02*
X231029D01*
X92405Y270240D02*
X98253D01*
X83811Y261646D02*
X92405Y270240D01*
X83811Y254396D02*
Y261646D01*
X97984Y256461D02*
X99953D01*
X93065Y258555D02*
X95624Y255995D01*
Y249768D02*
Y255995D01*
Y258820D02*
X97984Y256461D01*
X95624Y258820D02*
Y263154D01*
X101697Y249768D02*
X106281Y254352D01*
X129269D01*
X98184Y249768D02*
X101697D01*
X107580Y251686D02*
X127358D01*
X100938Y245043D02*
X107580Y251686D01*
X130886Y256381D02*
X139054Y248213D01*
X127358Y251686D02*
X137354Y241689D01*
X129269Y254352D02*
X136000Y247621D01*
X86516Y251686D02*
Y261350D01*
X73850Y244435D02*
X83811Y254396D01*
X79109Y244278D02*
X86516Y251686D01*
X131134Y258537D02*
X141322Y248349D01*
X186000Y226869D02*
Y230486D01*
Y226279D02*
Y226869D01*
X183112Y200341D02*
Y223980D01*
Y200341D02*
X201561D01*
X171409Y223980D02*
X183112D01*
X181530Y200341D02*
X183112D01*
X186000Y226279D02*
X196772D01*
X188697Y228857D02*
X189033Y229193D01*
Y230058D01*
X185364Y231122D02*
Y235616D01*
Y231122D02*
X186000Y230486D01*
X185189Y235791D02*
X185364Y235616D01*
X189033Y230058D02*
X189126Y230151D01*
X176051Y105599D02*
X177322D01*
X176051D02*
X182440D01*
X177322D02*
X177531Y105807D01*
X182440Y105599D02*
X182649Y105807D01*
X139629Y99295D02*
X142149Y101815D01*
Y104578D02*
X147971Y110400D01*
X142149Y101815D02*
Y104578D01*
X121921Y99295D02*
X139629D01*
X225892Y254079D02*
Y268608D01*
X217670Y247406D02*
X219219D01*
X225892Y254079D01*
X223969Y255358D02*
Y267830D01*
X217036Y249500D02*
X218110D01*
X223969Y255358D01*
X276409Y119969D02*
Y123904D01*
Y119969D02*
X276670Y119707D01*
X219872Y140178D02*
X220134Y139916D01*
X220134Y137961D02*
X220134D01*
X225630Y139420D02*
Y142833D01*
X223131Y136921D02*
X225630Y139420D01*
X259402Y124644D02*
Y125842D01*
X257103Y122346D02*
X259402Y124644D01*
X252656Y122311D02*
X252691Y122346D01*
X257103D01*
X270666Y119609D02*
X270765Y119707D01*
X270666Y115542D02*
Y119609D01*
X257374Y114437D02*
X258457Y115520D01*
X266211D01*
X263900Y125700D02*
X266211Y123389D01*
Y121228D02*
Y123389D01*
X261370Y112469D02*
X269207D01*
X269887Y114762D02*
X270666Y115542D01*
X269887Y113149D02*
Y114762D01*
X269207Y112469D02*
X269887Y113149D01*
X257200Y110500D02*
X258301Y111601D01*
X258404Y111498D02*
X259402Y110500D01*
X257200D02*
X259402D01*
X258301Y111601D02*
X259169Y112469D01*
X252656Y110500D02*
X257200D01*
X258301Y111601D02*
X258404Y111498D01*
X259402Y112469D02*
X261370D01*
X257433D02*
X258301Y111601D01*
X259402Y112469D02*
X260386Y111484D01*
X259402Y110500D02*
X260386Y111484D01*
X261370Y112469D01*
X252656Y108531D02*
X272935D01*
X276375Y111972D01*
X270765Y124765D02*
Y127994D01*
X270700Y124700D02*
X270765Y124765D01*
X257433Y112469D02*
X259169D01*
X242668Y92412D02*
Y95398D01*
Y92313D02*
Y92412D01*
X241633Y101445D02*
X241664Y101414D01*
Y96402D02*
Y101414D01*
Y96402D02*
X242668Y95398D01*
X239698Y91368D02*
X239732Y91334D01*
X239664Y101445D02*
X239698Y101411D01*
Y91368D02*
Y101411D01*
X237696Y93316D02*
Y101445D01*
X235714Y91334D02*
X237696Y93316D01*
X244332Y81392D02*
X245271D01*
X242499Y83224D02*
X244332Y81392D01*
X239732Y86931D02*
Y91334D01*
X242499Y83224D02*
Y84163D01*
X239732Y86931D02*
X242499Y84163D01*
X220732Y104786D02*
Y106598D01*
X220767Y106563D01*
X220732Y104786D02*
X222394Y103124D01*
X201300Y127028D02*
Y128114D01*
X198916Y124644D02*
X201300Y127028D01*
X203927Y108385D02*
Y112690D01*
X205138Y82274D02*
X217275D01*
X198323Y89089D02*
Y102957D01*
Y89089D02*
X205138Y82274D01*
X217275D02*
X224000Y89000D01*
Y93123D01*
X227853Y96976D02*
Y101445D01*
X224000Y93123D02*
X227853Y96976D01*
X216444Y154861D02*
X217288Y154017D01*
X226117D02*
X227455Y152680D01*
X217288Y154017D02*
X226117D01*
X216000Y160500D02*
X216444Y160056D01*
Y154861D02*
Y160056D01*
X214362Y160272D02*
X214979Y159654D01*
X197416Y103863D02*
X198323Y102957D01*
X196510Y104770D02*
X197416Y103863D01*
X199405D02*
X203927Y108385D01*
X198498Y102957D02*
X199405Y103863D01*
X197416D02*
X199405D01*
X198323Y102957D02*
X198498D01*
X258972Y131891D02*
X262669D01*
X107808Y65481D02*
X113886Y59403D01*
Y54451D02*
X123700Y44637D01*
X113886Y54451D02*
Y59403D01*
X82028Y74500D02*
X91047Y65481D01*
X107808D01*
X150524Y227187D02*
Y232257D01*
X150674D01*
X151749Y233331D01*
X152243D01*
X147763Y218222D02*
X153102Y223561D01*
Y228657D02*
X154725Y230279D01*
X153102Y223561D02*
Y228657D01*
X179839Y89990D02*
Y91344D01*
X179818Y89969D02*
X179839Y89990D01*
Y91344D02*
X180175Y91680D01*
X95624Y245043D02*
X100938D01*
X137354Y231437D02*
Y241689D01*
X138744Y227329D02*
X139054Y227639D01*
Y248213D01*
X141322Y221800D02*
Y248349D01*
X131076Y225159D02*
X137354Y231437D01*
X140500Y220978D02*
X141322Y221800D01*
X140500Y220800D02*
Y220978D01*
X130711Y218222D02*
X147763D01*
X153572Y260000D02*
X157449D01*
X157814Y260365D01*
X153572Y254542D02*
X157680D01*
X68850Y239435D02*
X78387D01*
X78973Y240021D02*
Y244090D01*
X78387Y239435D02*
X78973Y240021D01*
Y244090D02*
X79109Y244226D01*
Y244278D01*
X76864Y229435D02*
X81055Y233626D01*
Y243768D02*
X84031Y246743D01*
X81055Y233626D02*
Y243768D01*
X83000Y232813D02*
Y243308D01*
X84735Y245043D01*
X79926Y229739D02*
X83000Y232813D01*
X84031Y246743D02*
X87710Y249768D01*
X84735Y245043D02*
X95624D01*
X87710Y249768D02*
X90506D01*
X147500Y212000D02*
X147669Y212169D01*
X145898Y210398D02*
X147500Y212000D01*
X141685Y326070D02*
X142483Y326868D01*
X148368D02*
X152000Y330500D01*
X142483Y326868D02*
X148368D01*
X192795Y125076D02*
X194095Y123776D01*
X231836Y124822D02*
Y133289D01*
X231790Y133335D02*
X231836Y133289D01*
X198817Y132150D02*
Y136611D01*
X201970Y139764D02*
X217066D01*
X198817Y136611D02*
X201970Y139764D01*
X245570Y127843D02*
Y128278D01*
X275526Y92117D02*
X276457Y93047D01*
X272630Y92117D02*
X275526D01*
X252656Y112469D02*
X257433D01*
X259169D02*
X259402D01*
X250648Y97355D02*
Y100603D01*
Y96703D02*
Y97355D01*
X249347Y96054D02*
X250648Y97355D01*
Y98022D01*
X249347Y96054D02*
X249999D01*
X244682D02*
X249347D01*
X250648Y94753D02*
Y96703D01*
Y92804D02*
Y94753D01*
X249347Y96054D02*
X250648Y94753D01*
X249999Y96054D02*
X250648Y96703D01*
Y92804D02*
X250650Y92801D01*
X250646Y100605D02*
X250648Y100603D01*
X252656Y114437D02*
X257374D01*
X89736Y138670D02*
X91875Y140808D01*
X102692D02*
X103500Y140000D01*
X91875Y140808D02*
X102692D01*
X236070Y175924D02*
Y184497D01*
X235484Y185083D02*
X236070Y184497D01*
X216680Y185083D02*
X235484D01*
X216094Y185669D02*
X216680Y185083D01*
X216094Y185669D02*
Y191667D01*
X236000Y175854D02*
X236070Y175924D01*
X236645Y169966D02*
Y175209D01*
X236000Y175854D02*
X236645Y175209D01*
X240239Y168154D02*
Y188341D01*
X218063Y189513D02*
Y194776D01*
X239653Y188927D02*
X240239Y188341D01*
X218649Y188927D02*
X239653D01*
X218063Y189513D02*
X218649Y188927D01*
X236645Y169966D02*
X236981Y169630D01*
X238558Y166474D02*
X240239Y168154D01*
X187702Y161034D02*
X195745Y169078D01*
X182433Y137760D02*
X184845Y140172D01*
X234259Y116440D02*
X236193Y118374D01*
X220801Y116440D02*
X234259D01*
X242050Y116873D02*
Y122205D01*
X229822Y108136D02*
X238768Y117083D01*
X229822Y101445D02*
Y108136D01*
X231790Y101445D02*
Y106613D01*
X242050Y116873D01*
X245135Y128278D02*
X245570Y127843D01*
X215004Y126517D02*
X215102D01*
X214028Y127494D02*
X215004Y126517D01*
X215102D02*
X217306Y124314D01*
X220732D01*
X220767Y124279D01*
X220134Y137961D02*
Y139916D01*
X219909Y136921D02*
X223131D01*
X245570Y120117D02*
Y127843D01*
X220767Y116405D02*
X220801Y116440D01*
X245570Y120117D02*
X249247Y116440D01*
X252622D01*
X252656Y116405D01*
X262354Y92117D02*
X266094D01*
X243636Y97100D02*
X244682Y96054D01*
X243601Y101445D02*
X243636Y101410D01*
Y97100D02*
Y101410D01*
X252656Y110500D02*
Y112469D01*
X239156Y110500D02*
X252656D01*
X235727Y107071D02*
X239156Y110500D01*
X235727Y101445D02*
Y107071D01*
X235714Y91236D02*
Y91334D01*
X232767Y88288D02*
X235714Y91236D01*
X232767Y84038D02*
Y88288D01*
X230412Y81684D02*
X232767Y84038D01*
X217066Y139764D02*
X219909Y136921D01*
X213929Y132323D02*
Y136847D01*
X214003Y136921D01*
X190345Y115776D02*
X193169Y112952D01*
Y112362D02*
Y112952D01*
Y112362D02*
X194146Y111386D01*
X194244D01*
X195151Y104770D02*
X196510D01*
X194244Y105677D02*
X195151Y104770D01*
X183221Y114364D02*
Y132150D01*
Y114364D02*
X185189Y112396D01*
Y102080D02*
Y112396D01*
X182649Y109547D02*
Y112202D01*
X181031Y113820D02*
Y114933D01*
Y113820D02*
X182649Y112202D01*
X179874Y116090D02*
Y137656D01*
X182531Y132839D02*
X183221Y132150D01*
X189126Y180230D02*
Y190516D01*
X191095Y179794D02*
Y190516D01*
X193063Y179358D02*
Y190516D01*
X185444Y171739D02*
X193063Y179358D01*
X165701Y134223D02*
X169667Y138189D01*
X187157Y180665D02*
Y191303D01*
X169667Y138189D02*
X175579D01*
X241967Y273500D02*
X243259Y272209D01*
X168797Y341825D02*
X177039Y333583D01*
X167881Y342741D02*
X168797Y341825D01*
X165047Y339134D02*
Y341565D01*
X159693Y342151D02*
X164461D01*
X165047Y341565D01*
X166541Y342741D02*
X167881D01*
X164603Y344679D02*
X166541Y342741D01*
X154222Y349306D02*
X163149D01*
X164782Y347672D01*
X168757D01*
X235842Y205686D02*
X239056D01*
X235807Y205720D02*
X235842Y205686D01*
X239056D02*
X243146Y201597D01*
X250061Y202951D02*
X252197D01*
X235807Y208279D02*
X249193D01*
X254309Y210392D02*
Y211672D01*
X249193Y208279D02*
X249228Y208314D01*
X252231D02*
X254309Y210392D01*
X249228Y208314D02*
X252231D01*
X252817Y213164D02*
X254309Y211672D01*
X243055Y213164D02*
X252817D01*
X241371Y214848D02*
X243055Y213164D01*
X241371Y214848D02*
Y229392D01*
X251278Y227139D02*
Y238748D01*
Y226678D02*
X253797D01*
X249347D02*
X251278D01*
X249190Y226835D02*
X249495Y227139D01*
X251278D01*
X238128Y214588D02*
X241878Y210839D01*
X238128Y240635D02*
X238928Y241435D01*
X238128Y214588D02*
Y240635D01*
X236069Y210922D02*
Y244458D01*
X235807Y210839D02*
X235985D01*
X236069Y210922D01*
Y244458D02*
X236655Y245043D01*
X243385Y231504D02*
X247814D01*
X242409Y230528D02*
X243385Y231504D01*
X242409Y230430D02*
Y230528D01*
X241371Y229392D02*
X242409Y230430D01*
X241878Y210839D02*
X249193D01*
X193797Y202928D02*
X201770D01*
X193063Y229167D02*
X193979Y230083D01*
X192500Y196000D02*
X192697D01*
X195031Y193665D01*
X201770Y202928D02*
X204155Y200543D01*
X201561Y200341D02*
X205036Y196865D01*
X179579Y198390D02*
X181530Y200341D01*
X214374Y193387D02*
X216094Y191667D01*
X212987Y193387D02*
X214374D01*
X204155Y200543D02*
X205831D01*
X212987Y193387D01*
X201649Y205589D02*
X204911Y202327D01*
X201649Y205589D02*
X201649D01*
X205036Y196865D02*
X206105D01*
X208811Y194159D01*
X211704Y180721D02*
Y184528D01*
X212179Y185004D01*
X202001Y184356D02*
X202080Y184435D01*
X202001Y181644D02*
Y184356D01*
X201922Y181566D02*
X202001Y181644D01*
X117043Y315305D02*
Y326868D01*
X109587Y315305D02*
X117043D01*
X103510Y326760D02*
X103846Y326424D01*
Y325123D02*
Y326424D01*
Y325123D02*
X104228Y324740D01*
Y321477D02*
Y324740D01*
X95394Y301654D02*
X95705Y301343D01*
X96803D01*
X180954Y242788D02*
X181210Y243044D01*
X180954Y241916D02*
Y242788D01*
Y241916D02*
X183221Y239650D01*
X185000Y248546D02*
Y252549D01*
Y248579D02*
Y252549D01*
Y248579D02*
X186961Y246618D01*
X177000Y331156D02*
Y331700D01*
X207573Y225087D02*
X207756D01*
X209402Y223442D01*
X153102Y202327D02*
X171409D01*
X152709Y201933D02*
X153102Y202327D01*
X152709Y205429D02*
X153307D01*
X154660Y204076D01*
X165323D02*
X165542Y204295D01*
X154660Y204076D02*
X165323D01*
X156686Y216344D02*
X164622D01*
X171235Y206439D02*
X171409Y206264D01*
X162057Y206439D02*
X171235D01*
X161842Y206654D02*
X162057Y206439D01*
X165542Y204295D02*
X171409D01*
X156150Y225898D02*
Y226520D01*
Y225898D02*
X162004Y220043D01*
X117043Y326868D02*
X127000Y336824D01*
X138000Y342190D02*
X138039Y342151D01*
X146307D01*
X136297Y347239D02*
X145307D01*
X131660Y309426D02*
Y342601D01*
X136297Y347239D01*
X145307Y344679D02*
X149714D01*
X150300Y345265D01*
Y345384D01*
X154222Y349306D01*
X152000Y344679D02*
X154559Y347239D01*
X152000Y330500D02*
Y344679D01*
X154559Y347239D02*
X158693D01*
X103350Y320599D02*
X104228Y321477D01*
Y333000D02*
X104500Y333272D01*
X98000Y333000D02*
X104228D01*
X157680Y254542D02*
X157763Y254459D01*
X253337Y272337D02*
X254000Y273000D01*
X253337Y270288D02*
Y272337D01*
X253102Y270241D02*
X253290D01*
X253337Y270288D01*
X221922Y232228D02*
Y233626D01*
X221549Y200358D02*
X221690Y200500D01*
X215898Y200358D02*
X221549D01*
X205780Y214496D02*
X208106Y212169D01*
X177012Y240701D02*
X177024Y240713D01*
X179408D01*
X197603Y245830D02*
X198078D01*
X204677Y243999D02*
X204934Y244256D01*
X200937Y242639D02*
X202356Y244058D01*
X196772Y240713D02*
Y245245D01*
X197197Y252000D02*
X200656Y248541D01*
X202356Y244058D02*
Y261288D01*
X198969Y235791D02*
Y243075D01*
X197017Y245245D02*
X197603Y245830D01*
X198969Y243075D02*
X200656Y244762D01*
X196772Y245245D02*
X197017D01*
X202356Y261288D02*
X206978Y265909D01*
X204677Y242681D02*
Y243999D01*
X200937Y235791D02*
Y242639D01*
X200656Y244762D02*
Y248541D01*
X191076Y283621D02*
Y284096D01*
X191496Y286054D02*
X191882Y286440D01*
X191496Y284516D02*
Y286054D01*
X191076Y284096D02*
X191496Y284516D01*
X209091Y215485D02*
X209455D01*
X210802Y214138D01*
X216685D01*
X208106Y212169D02*
X216685D01*
X209402Y218820D02*
Y223442D01*
X211500Y224399D02*
X211704Y224603D01*
X209402Y218820D02*
X212116Y216106D01*
X211500Y219220D02*
Y224399D01*
Y219220D02*
X212645Y218075D01*
X215898D01*
X212116Y216106D02*
X215898D01*
X205780Y205720D02*
X207205Y204295D01*
X204911Y202327D02*
X216685D01*
X182305Y198641D02*
X200857D01*
X171664Y188000D02*
X182305Y198641D01*
X200857D02*
X202906Y196592D01*
Y191303D02*
Y196592D01*
X200937Y190516D02*
Y194555D01*
X199492Y196000D02*
X200937Y194555D01*
X196500Y196000D02*
X199492D01*
X195031Y190516D02*
Y193665D01*
X125191Y174866D02*
X128351D01*
X125093Y174965D02*
X125191Y174866D01*
X78693Y292287D02*
X78862Y292456D01*
X83220D01*
X230985Y204027D02*
Y221994D01*
Y204027D02*
X231816Y203196D01*
X235772D02*
X235807Y203161D01*
X231816Y203196D02*
X235772D01*
X238254Y277023D02*
X243476D01*
X236961Y275729D02*
X238254Y277023D01*
X236862Y275729D02*
X236961D01*
X236862Y267830D02*
Y270021D01*
Y267830D02*
X237601Y267091D01*
X241290D01*
X240734Y273500D02*
X241967D01*
X227906Y279691D02*
X230869Y282655D01*
X255395Y224124D02*
X257694Y226423D01*
X253916Y222426D02*
Y223538D01*
X254502Y224124D01*
X255395D01*
X257694Y226423D02*
Y226522D01*
X252940Y221449D02*
X253916Y222426D01*
X252841Y221449D02*
X252940D01*
X249190Y221126D02*
X249352Y221288D01*
X252680D01*
X252841Y221449D01*
X265547Y216344D02*
Y236758D01*
X262729Y216344D02*
X265547D01*
X262729Y221449D02*
Y225129D01*
Y216344D02*
Y221449D01*
X261434Y226423D02*
X262729Y225129D01*
X261434Y226423D02*
Y226522D01*
X265547Y236758D02*
Y240196D01*
X261434Y236758D02*
X265547D01*
X249092Y226835D02*
X249190D01*
X247814Y228112D02*
Y231504D01*
Y228112D02*
X249092Y226835D01*
X249190D02*
X249347Y226678D01*
X253797D02*
X253954Y226522D01*
X251278Y238748D02*
X253561Y241031D01*
Y244020D01*
X267930Y204669D02*
X272000D01*
X265547Y202286D02*
X267930Y204669D01*
X263026Y202169D02*
X267367Y206510D01*
Y214786D01*
X265547Y240196D02*
X267367Y242015D01*
X265547Y194577D02*
Y202286D01*
X263026Y198739D02*
Y202169D01*
X269967Y234527D02*
X272157D01*
X272365Y234318D01*
X269967Y226098D02*
X272449D01*
X267367Y214786D02*
X269967Y217386D01*
X259402Y195115D02*
X263026Y198739D01*
X271495Y199459D02*
X274715D01*
X271410Y199374D02*
X271495Y199459D01*
X272787Y243213D02*
X277000Y239000D01*
X272787Y243213D02*
Y248744D01*
X258308Y241784D02*
X261634D01*
X226322Y223775D02*
X227778Y225231D01*
X228384D01*
X221922Y232228D02*
X222394Y231756D01*
X259402Y194640D02*
Y195115D01*
X269967Y212818D02*
X272365D01*
X223374Y208000D02*
X227905D01*
X221173Y210201D02*
X223374Y208000D01*
X274337Y248744D02*
Y253705D01*
X207205Y204295D02*
X215898D01*
X164622Y216344D02*
X166966Y214000D01*
X171272D01*
X171409Y214138D01*
X165736Y212169D02*
X171409D01*
X149741Y213766D02*
X164139D01*
X165736Y212169D01*
X151435Y212000D02*
X162618D01*
X164224Y210394D01*
X168666D01*
X152019Y209336D02*
X162878D01*
X163788Y208426D01*
X168666D01*
X168685Y208407D01*
X146978Y204295D02*
X152019Y209336D01*
X171235Y208407D02*
X171409Y208232D01*
X168685Y208407D02*
X171235D01*
X168685Y210376D02*
X171235D01*
X168666Y210394D02*
X168685Y210376D01*
X145541Y206106D02*
X151435Y212000D01*
X171235Y210376D02*
X171409Y210201D01*
X151101Y218922D02*
X160721D01*
X142276Y215516D02*
X147695D01*
X151101Y218922D01*
X148144Y212169D02*
X149741Y213766D01*
X161568Y218075D02*
X171409D01*
X160721Y218922D02*
X161568Y218075D01*
X147669Y212169D02*
X148144D01*
X185189Y97201D02*
Y102080D01*
X182649Y102067D02*
X185176D01*
X185189Y102080D01*
Y97201D02*
X188339Y94051D01*
X148441Y144540D02*
Y150778D01*
Y142713D02*
Y144540D01*
X152068Y143020D02*
X158500D01*
X150854Y141806D02*
X152068Y143020D01*
X150854Y139802D02*
Y141806D01*
X162000Y146000D02*
X164571Y143429D01*
X172707D01*
X95185Y203112D02*
X97683D01*
X98040Y202521D02*
Y202755D01*
X97683Y203112D02*
X98040Y202755D01*
X131660Y309426D02*
X138535Y302551D01*
X141685Y300555D02*
Y326070D01*
X138535Y297406D02*
X141685Y300555D01*
X103350Y320599D02*
X103516Y320433D01*
X166689Y200358D02*
X171409D01*
X165508Y199177D02*
X166689Y200358D01*
X165508Y199079D02*
Y199177D01*
X123575Y204295D02*
X146978D01*
X121646Y206106D02*
X145541D01*
X142276Y210398D02*
X145898D01*
X159029Y190197D02*
X168241D01*
X168827Y192407D02*
X169601Y193181D01*
X168241Y190197D02*
X168827Y190783D01*
Y192407D01*
X154816Y194411D02*
X159029Y190197D01*
X170603Y193233D02*
Y195831D01*
X138973Y194411D02*
X154816D01*
X159165Y188000D02*
X171664D01*
X155685D02*
X156788D01*
X156909Y188120D02*
X159045D01*
X150829Y188927D02*
X154759D01*
X159045Y188120D02*
X159165Y188000D01*
X154759Y188927D02*
X155685Y188000D01*
X156788D02*
X156909Y188120D01*
X179283Y186586D02*
Y190516D01*
X157977Y185543D02*
X178240D01*
X179283Y186586D01*
X143457Y190516D02*
X149240D01*
X150829Y188927D01*
X153686Y185970D02*
X156692Y182965D01*
X147695Y185970D02*
X153686D01*
X146409Y187256D02*
X147695Y185970D01*
X128244Y187256D02*
X146409D01*
X156692Y182965D02*
X179918D01*
X181252Y184298D01*
Y191303D01*
X183221Y182965D02*
Y191303D01*
X146955Y184270D02*
X152086D01*
X155093Y181264D01*
X181520D01*
X183221Y182965D01*
X185189Y182367D02*
Y191303D01*
X89621Y206658D02*
X90506Y205772D01*
X84205Y206658D02*
X89621D01*
X146251Y182570D02*
X151202D01*
X154337Y179435D01*
X182257D01*
X185189Y182367D01*
X156810Y173935D02*
X166747D01*
X149875Y180870D02*
X156810Y173935D01*
X216685Y210201D02*
X221173D01*
X276195Y131641D02*
X276843Y130993D01*
X171123Y136489D02*
X176283D01*
X159376Y110451D02*
X162157Y113232D01*
Y124073D02*
X163443Y125358D01*
X162157Y113232D02*
Y124073D01*
X177792Y105599D02*
X180446Y102945D01*
X177531Y105807D02*
Y111374D01*
X176405Y112500D02*
X177531Y111374D01*
X169308Y122818D02*
X169711Y122416D01*
X179818Y88629D02*
Y89969D01*
X176921Y85732D02*
X179818Y88629D01*
X173378Y85732D02*
X176921D01*
X189329Y78705D02*
Y83609D01*
X188339Y84599D02*
X189329Y83609D01*
X195745Y101039D02*
Y101766D01*
X195319Y101340D02*
X195745Y101766D01*
X195319Y101039D02*
Y101340D01*
X194244Y99965D02*
X195319Y101039D01*
X188339Y90909D02*
Y94051D01*
X210980Y208232D02*
X216685D01*
X209877Y209336D02*
X210980Y208232D01*
X209402Y209336D02*
X209877D01*
X218411Y276089D02*
Y284020D01*
Y276089D02*
X225892Y268608D01*
X211666Y241402D02*
X217670Y247406D01*
X211666Y232150D02*
Y241402D01*
X218411Y284020D02*
Y288056D01*
X206842Y239307D02*
X217036Y249500D01*
X224932Y167662D02*
X226120Y166474D01*
X224932Y167662D02*
X224932D01*
X226120Y166474D02*
X238558D01*
X221000Y171594D02*
X224932Y167662D01*
X221131Y169059D02*
X225004Y165186D01*
Y161462D02*
X226194Y160272D01*
X225004Y161462D02*
Y165186D01*
X221000Y171594D02*
Y175854D01*
X203241Y169059D02*
X221131D01*
X195622Y285940D02*
X205858D01*
X206842Y190516D02*
X206852Y190506D01*
Y186401D02*
Y190506D01*
Y186401D02*
X207828Y185424D01*
X207927D01*
X215356Y175626D02*
Y176413D01*
X215004Y176765D02*
X215356Y176413D01*
X204874Y177351D02*
X205460Y176765D01*
X215004D01*
X204874Y177351D02*
Y191303D01*
X208950Y173684D02*
X209205Y173429D01*
X203559Y173684D02*
X208950D01*
X198969Y173332D02*
Y190516D01*
Y173332D02*
X203241Y169059D01*
X197000Y172523D02*
X202826Y166697D01*
X218461D01*
X197000Y172523D02*
Y190516D01*
X176579Y173063D02*
X176626Y173016D01*
X167814Y176736D02*
X167814Y176736D01*
X170492D01*
X149146Y143418D02*
X149437D01*
X148441Y142713D02*
X149146Y143418D01*
X148441Y150778D02*
X148587Y150924D01*
X147118Y143727D02*
X147826Y143020D01*
X146411Y144435D02*
X147118Y143727D01*
Y149455D02*
X147826Y150163D01*
X146411Y148748D02*
X147118Y149455D01*
Y143727D02*
Y149455D01*
X147826Y150163D02*
X148441Y150778D01*
X147826Y143020D02*
Y150163D01*
X146411Y144435D02*
Y148748D01*
X147826Y143020D02*
X147902D01*
X147971Y110400D02*
X159156D01*
X159207Y110451D02*
X159376D01*
X159156Y110400D02*
X159207Y110451D01*
X164085Y170831D02*
X167124D01*
X171500Y234219D02*
Y237000D01*
X173500Y238988D02*
Y241000D01*
X173378Y238866D02*
X173500Y238988D01*
X162004Y220043D02*
X171409D01*
Y234128D02*
X171500Y234219D01*
X171409Y227917D02*
Y234128D01*
X173378Y238866D02*
X176453Y235791D01*
X179283D01*
X221000Y160500D02*
Y164158D01*
X218461Y166697D02*
X221000Y164158D01*
X90898Y201933D02*
Y206163D01*
X148335Y162760D02*
X148587Y163012D01*
X169891Y112500D02*
X176405D01*
X168000Y114391D02*
X169891Y112500D01*
X168757Y347672D02*
X168797Y347632D01*
X79926Y227917D02*
Y229739D01*
X63850Y234435D02*
X68850Y239435D01*
X256347Y298173D02*
Y300264D01*
X256252Y300358D02*
X256347Y300264D01*
X251129Y298173D02*
Y300096D01*
X251000Y300224D02*
X251129Y300096D01*
X251000Y300224D02*
X251134Y300358D01*
X249190Y282445D02*
X249289D01*
X247222D02*
X249190D01*
X243476Y277023D02*
X245343D01*
X266141Y256450D02*
X267367Y255224D01*
X171561Y128223D02*
Y128322D01*
Y126614D02*
Y128223D01*
X113732Y72602D02*
X118829Y67506D01*
X166747Y173935D02*
X174165Y166517D01*
X138634Y121500D02*
X138732D01*
X137178D02*
X138634D01*
X231029Y291331D02*
Y293278D01*
X231000Y293307D02*
X231029Y293278D01*
X145579Y113547D02*
Y117292D01*
X122547Y139764D02*
Y143429D01*
Y139764D02*
X122591Y139807D01*
X224195Y284000D02*
X224254D01*
X224176Y284020D02*
X224195Y284000D01*
X224254D02*
X226500D01*
X79926Y227917D02*
X82728D01*
X224254Y284000D02*
X224274Y284020D01*
X163852Y225181D02*
Y226244D01*
X206978Y265909D02*
X212551D01*
X214243Y264218D01*
X219638D01*
Y255500D02*
Y255867D01*
X219505Y256000D02*
X219638Y255867D01*
X219505Y256000D02*
X219638Y256133D01*
Y258509D01*
X196803Y256461D02*
X197197Y256067D01*
Y252000D02*
Y256067D01*
X189988Y258537D02*
X192064Y256461D01*
X196803D01*
X205858Y285940D02*
X223969Y267830D01*
X182649Y290770D02*
X191882D01*
X222394Y231658D02*
Y231756D01*
X76000Y327528D02*
X79823D01*
X125093Y180870D02*
X127958D01*
X111463Y128114D02*
X122394D01*
X109421Y135963D02*
Y139802D01*
X107453Y133994D02*
X109421Y135963D01*
X107453Y133994D02*
X109421Y132026D01*
X92591Y128187D02*
X103516D01*
X111390D02*
X111463Y128114D01*
X109421Y128187D02*
Y132026D01*
X133138Y139802D02*
X146917D01*
X152823Y135963D02*
Y139802D01*
X107453D02*
Y141806D01*
X108666Y143020D01*
X115674D01*
X117712Y145057D01*
X103117Y203071D02*
X103158Y203112D01*
X112157Y195142D02*
Y197425D01*
X110835Y198748D02*
X112157Y197425D01*
X110835Y198748D02*
Y203112D01*
X101528Y195142D02*
Y197785D01*
X103117Y199374D01*
Y203071D01*
X63850Y224435D02*
X68850Y229435D01*
X76864D01*
X117712Y145057D02*
Y147415D01*
Y147514D01*
X122830D01*
X107453Y111165D02*
Y128187D01*
Y111165D02*
X109795Y108823D01*
X123181D01*
X124601Y110243D01*
Y113593D01*
X124647Y113547D01*
X128351Y121592D02*
X132734D01*
X132827Y121500D01*
X226751Y234709D02*
X227906Y235863D01*
X84205Y197611D02*
Y200752D01*
Y197611D02*
X84214Y197602D01*
Y191697D02*
X90014D01*
X90898Y192580D01*
X97188Y192198D02*
Y196510D01*
X100599Y199921D01*
X101528Y189335D02*
X105520D01*
X111390Y139802D02*
X116685D01*
X154791D02*
X160087D01*
X105520Y189335D02*
X105717Y189532D01*
X79926Y201881D02*
X81055Y200752D01*
X266094Y90148D02*
X268286D01*
X270255Y92117D01*
X272630D01*
X89615Y206663D02*
X89621Y206658D01*
X166656Y89525D02*
X167863Y90732D01*
X173180D01*
X166656Y82041D02*
Y89525D01*
Y82041D02*
X167965Y80732D01*
X173180D01*
X94635Y224374D02*
X97941D01*
X86516Y261350D02*
X88320Y263154D01*
X90506D01*
X191882Y290770D02*
Y291558D01*
X152823Y128187D02*
Y132026D01*
X95624Y245043D02*
Y249768D01*
X87278Y113439D02*
Y120240D01*
X79926Y201881D02*
Y227819D01*
X124647Y113547D02*
X132827D01*
X136173Y117973D02*
Y120495D01*
X137178Y121500D01*
X144965Y183856D02*
X146251Y182570D01*
X29985Y306854D02*
Y312366D01*
X173180Y75732D02*
X173378D01*
X115953Y225750D02*
X116543Y225159D01*
X120539D01*
X275433Y90148D02*
X276457Y89124D01*
X272630Y90148D02*
X275433D01*
X272630D02*
X272643Y90135D01*
X163443Y125358D02*
X170305D01*
X171561Y126614D01*
X154791Y128187D02*
X165479D01*
X165701D02*
Y128311D01*
X90898Y192580D02*
Y196028D01*
X219505Y223775D02*
X226322D01*
X216685Y220043D02*
X222304D01*
X222394Y219953D01*
X216685Y222012D02*
Y222038D01*
X231029D02*
X231055Y222012D01*
X227905Y218584D02*
X228085Y218764D01*
X256826Y269501D02*
X256921Y269406D01*
X230869Y288056D02*
X230869Y288056D01*
X225892Y288056D02*
X230869D01*
X245343Y277023D02*
X246434Y278114D01*
Y281658D01*
X247222Y282445D01*
X260389Y291970D02*
X266141Y286217D01*
X233911Y288056D02*
X235288Y289434D01*
Y291970D01*
X255465D01*
X260389D01*
X222394Y231658D02*
X222394Y231658D01*
X223477Y234709D02*
X226751D01*
X222394Y233626D02*
X223477Y234709D01*
X209402Y229886D02*
X211666Y232150D01*
X200647Y229886D02*
X209402D01*
X199547Y228785D02*
X200647Y229886D01*
X249289Y284897D02*
X250264Y285872D01*
X253424D01*
X255465Y287912D01*
Y291970D01*
X83220Y287760D02*
Y290488D01*
Y287760D02*
X83811Y287169D01*
X100599Y199921D02*
Y202521D01*
Y203112D01*
X118061Y202521D02*
X121646Y206106D01*
X115953Y202521D02*
X118061D01*
X117064Y197785D02*
X123575Y204295D01*
X96803Y294849D02*
Y301343D01*
X94410Y292456D02*
X96803Y294849D01*
X90701Y292456D02*
X94410D01*
X185189Y235791D02*
Y242287D01*
X169064Y129689D02*
X170431Y128322D01*
X169064Y129689D02*
Y134430D01*
X171123Y136489D01*
X194244Y89525D02*
Y94059D01*
X169851Y146284D02*
X172707Y143429D01*
X174165D01*
X166070Y230279D02*
X167364Y228986D01*
Y224920D02*
Y228986D01*
Y224920D02*
X168304Y223980D01*
X171409D01*
X145669Y185556D02*
X146955Y184270D01*
X195031Y238972D02*
X196772Y240713D01*
X193979Y230083D02*
X194509D01*
X193063Y235791D02*
Y241158D01*
X198594Y231757D02*
X207927D01*
X216488Y228114D02*
X216685Y227917D01*
X195031Y235791D02*
Y238972D01*
X197000Y232573D02*
Y235004D01*
X196803Y225752D02*
X200716D01*
X189126Y230151D02*
Y235791D01*
X191095D02*
Y240122D01*
X196772Y225783D02*
X196803Y225752D01*
X200716D02*
X202881Y227917D01*
X190504Y240713D02*
X191095Y240122D01*
X207927Y231757D02*
X208811Y232641D01*
X163852Y225181D02*
X167021Y222012D01*
X193654Y241749D02*
Y241894D01*
X202881Y227917D02*
X215898D01*
X208811Y232641D02*
Y235791D01*
X196772Y229935D02*
X198594Y231757D01*
X167021Y222012D02*
X171409D01*
X193063Y241158D02*
X193654Y241749D01*
X194509Y230083D02*
X197000Y232573D01*
X206842Y235791D02*
Y239307D01*
X193063Y229167D02*
Y230083D01*
X190504Y240713D02*
Y247406D01*
X179408Y240713D02*
X181252Y238869D01*
Y235791D02*
Y238869D01*
X183221Y235791D02*
Y239650D01*
X204874Y235791D02*
Y240024D01*
X202906Y235791D02*
Y240909D01*
X191882Y290770D02*
X200937D01*
X205858Y285940D02*
Y290770D01*
X202906Y240909D02*
X204677Y242681D01*
X98040Y225159D02*
Y225750D01*
Y226244D01*
X120195Y183856D02*
X120819Y183232D01*
X113394Y198895D02*
Y202521D01*
Y198895D02*
X114504Y197785D01*
X117064D01*
X120819Y183232D02*
X121443Y183856D01*
X144965D01*
X174165Y163429D02*
Y166517D01*
X167124Y170831D02*
X169851Y168104D01*
Y146284D02*
Y168104D01*
X120819Y186776D02*
X121784Y185810D01*
X121887D01*
X122141Y185556D01*
X145669D01*
X216685Y196154D02*
Y198390D01*
Y196154D02*
X218063Y194776D01*
X272449Y226098D02*
X272547Y226000D01*
X272365Y234318D02*
X272547Y234500D01*
X204874Y240024D02*
X207600Y242750D01*
Y247141D01*
X272365Y212818D02*
X272547Y213000D01*
X172197Y198390D02*
X179579D01*
X171409Y225949D02*
X178100D01*
X179480Y227329D01*
X137551Y192989D02*
X138973Y194411D01*
X125191Y190309D02*
X128244Y187256D01*
X180446Y96520D02*
Y102945D01*
X176724Y125842D02*
Y132839D01*
Y125842D02*
X177209Y125358D01*
X184992Y248538D02*
X185189Y248734D01*
X118851Y117593D02*
X119860D01*
X120852Y118584D01*
Y121592D01*
X93183Y113439D02*
X96409D01*
X150854Y133994D02*
X152823Y132026D01*
X156461Y134737D02*
X160051D01*
X160564Y134224D01*
X165701Y128311D02*
Y134223D01*
X165479Y128187D02*
X165701D01*
X112157Y189335D02*
X116135D01*
X271607Y194534D02*
X273994D01*
X262513Y257632D02*
Y260451D01*
X258592Y257632D02*
Y260451D01*
X262827Y269406D02*
X262945Y269524D01*
Y272650D01*
X259033Y282445D02*
X261852D01*
X259230Y277023D02*
X259320Y276933D01*
X261764D01*
X246311Y288548D02*
X249130D01*
X243752Y296619D02*
Y299439D01*
X238634Y296619D02*
Y299439D01*
X218411Y290615D02*
X221231D01*
X243259Y272209D02*
X243260Y272210D01*
X219008Y320433D02*
X219165Y320590D01*
X90701Y290488D02*
X90898Y290291D01*
Y287563D02*
Y290291D01*
X29985Y318519D02*
Y322342D01*
X187157Y235791D02*
Y239531D01*
X188535Y240909D01*
Y245043D01*
X186961Y246618D02*
X188535Y245043D01*
X185189Y248734D02*
X186961Y246963D01*
Y246618D02*
Y246963D01*
D14*
X245964Y181675D02*
X254486Y190197D01*
X245964Y169186D02*
X246000Y169150D01*
X245964Y169186D02*
Y181675D01*
X182649Y296676D02*
X188142D01*
X167818Y99582D02*
X170303Y102067D01*
X166900Y98841D02*
X168650Y97091D01*
X166900Y98841D02*
Y101209D01*
X194834Y303311D02*
X199165Y298980D01*
X201163Y296983D01*
X201470Y296676D01*
X214362Y160272D02*
Y162996D01*
X163732Y77614D02*
X169535Y71812D01*
X246454Y90296D02*
Y92903D01*
X250596Y80306D02*
Y84927D01*
Y88712D01*
X245559Y88656D02*
Y90374D01*
X244711Y92903D02*
X246164D01*
X154000Y107500D02*
X157898D01*
X152595Y105807D02*
X156994D01*
X159795Y103364D02*
Y105603D01*
X256354Y100606D02*
X256354Y100605D01*
X256354Y100606D02*
Y103863D01*
X256353Y103863D02*
X256354Y103863D01*
X245559Y91191D02*
Y92092D01*
Y90374D02*
Y91191D01*
X247573Y88864D02*
X250650D01*
X247069D02*
X247573D01*
X246454Y90296D02*
X247573Y89176D01*
X245559Y91191D02*
X246454Y90296D01*
X245559Y90374D02*
X246454Y89479D01*
Y90296D01*
X247573Y88864D02*
Y89176D01*
Y88180D02*
Y88864D01*
X250596Y76423D02*
Y84927D01*
X246454Y89299D02*
Y89479D01*
X247069Y88864D01*
X250596Y88712D02*
X250650Y88766D01*
X250064Y88180D02*
X250596Y88712D01*
X247573Y88180D02*
X250064D01*
X245082D02*
X247573D01*
X246309Y93047D02*
X246454Y92903D01*
Y89299D02*
X247573Y88180D01*
X243257Y92903D02*
X244711D01*
X242668Y92412D02*
X243144Y92888D01*
X243242D01*
X243257Y92903D01*
X246164D02*
X246309Y93047D01*
X245082Y88180D02*
X245559Y88656D01*
Y92092D02*
X246309Y92843D01*
Y93047D01*
X250596Y88712D02*
Y88810D01*
X250650Y88766D02*
Y88864D01*
X250542Y76369D02*
X250746D01*
X252437Y74678D01*
X253974D01*
X254119Y74533D01*
X250596Y88810D02*
X250650Y88864D01*
X250542Y76369D02*
X250596Y76423D01*
X256359Y84927D02*
Y88864D01*
Y79998D02*
Y84927D01*
Y79998D02*
X257200Y79157D01*
Y51274D02*
Y79157D01*
X160976Y75276D02*
X164078Y72175D01*
X160976Y75276D02*
Y92566D01*
X164078Y70369D02*
X174524Y59923D01*
X164078Y70369D02*
Y72175D01*
X108290Y229978D02*
X112013Y233700D01*
X106996Y235791D02*
Y238355D01*
Y234093D02*
Y235791D01*
X105717Y232813D02*
X106996Y234093D01*
X112013Y233700D02*
Y235573D01*
X112157Y235718D01*
Y238281D01*
Y240845D02*
Y243409D01*
Y238281D02*
Y240845D01*
X106996Y240918D02*
Y243482D01*
Y238355D02*
Y240918D01*
X147000Y311600D02*
Y321600D01*
Y306986D02*
Y311600D01*
X102196Y218935D02*
X106996Y214135D01*
X88492Y222234D02*
Y237366D01*
X174524Y50428D02*
Y59923D01*
X162495Y108138D02*
X163667Y109310D01*
X166898D02*
X167135Y109547D01*
X163667Y109310D02*
X166898D01*
X162495Y95094D02*
Y108138D01*
X168000Y109547D02*
X172413D01*
X256359Y92801D02*
Y96912D01*
X176760Y48193D02*
X254119D01*
X257200Y51274D01*
X256359Y88864D02*
Y92801D01*
X149100Y101209D02*
Y102600D01*
X254486Y190197D02*
X276043D01*
X278177Y204847D02*
Y213000D01*
Y226000D02*
Y234323D01*
Y217500D02*
Y226000D01*
Y213000D02*
Y217500D01*
X197197Y297012D02*
X198673Y298488D01*
X199165Y297406D02*
Y298587D01*
X150674Y303311D02*
X194834D01*
X147000Y306986D02*
X150674Y303311D01*
X278177Y234323D02*
X278354Y234500D01*
X278000Y204669D02*
X278177Y204847D01*
X278000Y192155D02*
Y204669D01*
X276043Y190197D02*
X278000Y192155D01*
X163732Y77614D02*
Y93857D01*
X162495Y95094D02*
X163732Y93857D01*
X159795Y93747D02*
X160976Y92566D01*
X177397Y58571D02*
Y65927D01*
Y58571D02*
X182000Y53969D01*
X152451Y105951D02*
X154000Y107500D01*
X149100Y102600D02*
X150760Y104260D01*
X159795Y93747D02*
Y102331D01*
X150760Y104260D02*
X151049D01*
X170051Y96520D02*
X174639D01*
X168650Y97091D02*
X169479D01*
X170051Y96520D01*
X94201Y238646D02*
Y241205D01*
Y236087D02*
Y238646D01*
Y233528D02*
Y236087D01*
X159405Y105993D02*
X159795Y105603D01*
X159250Y106148D02*
X159405Y105993D01*
X157898Y107500D02*
X159250Y106148D01*
X156437D02*
X156654D01*
X156994Y105807D01*
X159264Y102817D02*
Y103364D01*
Y102817D02*
X159500Y102580D01*
X151049Y104260D02*
X152595Y105807D01*
X209205Y163429D02*
X213929D01*
X214362Y162996D01*
X140343Y89124D02*
X157433D01*
X138784Y87566D02*
X140343Y89124D01*
X137827Y86608D02*
X138784Y87566D01*
X157500D01*
X137827Y86608D02*
X138703Y85732D01*
X137000Y87435D02*
X137827Y86608D01*
X138703Y85732D02*
X154087D01*
X137000Y87435D02*
X140297Y90732D01*
X154087D01*
X170303Y102067D02*
X172413D01*
X174524Y50428D02*
X176760Y48193D01*
X246000Y166500D02*
Y169150D01*
Y164000D02*
Y166500D01*
X178575Y296500D02*
X178751Y296676D01*
X111796Y218935D02*
X112902D01*
X88492Y222234D02*
X91791Y218935D01*
X98138D02*
X101091D01*
X102196D01*
X91791D02*
X95185D01*
X98138D01*
X179422Y286440D02*
X188142D01*
X178299Y287563D02*
X179422Y286440D01*
X178299Y287563D02*
Y296224D01*
D20*
X233983Y227109D02*
Y260666D01*
X231055Y245194D02*
Y255392D01*
X217295Y235579D02*
Y237744D01*
X132236Y215485D02*
X136340D01*
X136370Y215516D01*
X248817Y246619D02*
X250740D01*
X247222Y245023D02*
X248817Y246619D01*
X250728Y249780D02*
X250740Y249767D01*
X247230Y249780D02*
X250728D01*
X247217Y249793D02*
X247230Y249780D01*
X160189Y235988D02*
Y238505D01*
X165049Y236185D02*
X165542Y236678D01*
Y238744D01*
X204500Y210733D02*
X208969Y206264D01*
X204500Y210733D02*
Y211000D01*
X238928Y241435D02*
Y243468D01*
X236655Y245043D02*
X238928D01*
X233983Y260666D02*
Y279640D01*
X241193Y286850D01*
X230500Y279413D02*
X238634Y287547D01*
X230611Y255766D02*
X230985Y255392D01*
X230611Y255766D02*
Y256728D01*
X230500Y256839D02*
X230611Y256728D01*
X230500Y256839D02*
Y279413D01*
X252558Y245023D02*
X253561Y244020D01*
X250740Y245043D02*
X250761Y245023D01*
X252558D01*
X256686Y265517D02*
X256921D01*
X228510Y225358D02*
X232232D01*
X228384Y225231D02*
X228510Y225358D01*
X221922Y238035D02*
Y239531D01*
Y238035D02*
X222394Y237563D01*
X255111Y263942D02*
X256686Y265517D01*
X253102Y263942D02*
X255111D01*
X208969Y206264D02*
X216685D01*
X227906Y231658D02*
X231055D01*
X223000Y212980D02*
X223197D01*
X224175Y213957D01*
Y214496D01*
X224643Y214965D01*
X226751D01*
X221500Y226500D02*
X222354D01*
X241193Y286850D02*
Y288548D01*
X238634Y287547D02*
Y288548D01*
X231055Y231658D02*
Y239094D01*
X230500Y239650D02*
X231055Y239094D01*
X230500Y239650D02*
Y244639D01*
X231055Y245194D01*
X231055Y228785D02*
Y231658D01*
X232232Y225358D02*
X233983Y227109D01*
X241290Y261364D02*
Y262367D01*
X240593Y260666D02*
X241290Y261364D01*
X233983Y260666D02*
X240593D01*
X241193Y296619D02*
Y301976D01*
X241193Y301976D01*
X243752Y285176D02*
Y288548D01*
X251133Y272210D02*
Y276951D01*
X251205Y277023D01*
X249283D02*
X251205D01*
X253128D01*
X246311Y294453D02*
Y296619D01*
Y294453D02*
X251134D01*
X256252D01*
X241193Y295122D02*
Y296619D01*
Y295122D02*
X241862Y294453D01*
X246311D01*
X243383Y284807D02*
X243752Y285176D01*
X243383Y282445D02*
Y284807D01*
X253128Y277023D02*
Y282445D01*
X250347Y265517D02*
X253102D01*
X189988Y264146D02*
Y264344D01*
X200799Y288741D02*
Y290812D01*
X196803Y265909D02*
X201334D01*
X201470Y265774D01*
X206252Y256461D02*
X212551D01*
X216685Y225949D02*
X221803D01*
X136370Y210398D02*
X138535D01*
X238142Y263942D02*
X241290D01*
X237549Y263348D02*
Y263348D01*
Y263348D02*
X238142Y263941D01*
X238142Y263942D01*
D41*
X219909Y136921D02*
D03*
X214003D02*
D03*
X198817Y132150D02*
D03*
X204723D02*
D03*
X87525Y120240D02*
D03*
X93430D02*
D03*
X167492Y260365D02*
D03*
X173397D02*
D03*
X167465Y254459D02*
D03*
X173370D02*
D03*
X276670Y119707D02*
D03*
X270765D02*
D03*
D42*
X214028Y127494D02*
D03*
Y133203D02*
D03*
X208969Y126908D02*
D03*
Y132616D02*
D03*
X266211Y115520D02*
D03*
Y121228D02*
D03*
X29985Y301047D02*
D03*
Y306756D02*
D03*
X128351Y180575D02*
D03*
Y174866D02*
D03*
X205858Y296578D02*
D03*
Y290869D02*
D03*
X165701Y122504D02*
D03*
Y128213D02*
D03*
X122830Y147514D02*
D03*
Y153222D02*
D03*
X117712D02*
D03*
Y147514D02*
D03*
X112594D02*
D03*
Y153222D02*
D03*
X84205Y200850D02*
D03*
Y206559D02*
D03*
X84214Y197504D02*
D03*
Y191795D02*
D03*
X168797Y347534D02*
D03*
Y341825D02*
D03*
X243601Y152347D02*
D03*
Y146638D02*
D03*
X248017Y152169D02*
D03*
Y146460D02*
D03*
X194244Y111386D02*
D03*
Y105677D02*
D03*
X223000Y218590D02*
D03*
Y212881D02*
D03*
X164085Y176638D02*
D03*
Y170929D02*
D03*
X171561Y122515D02*
D03*
Y128223D02*
D03*
X166656Y115323D02*
D03*
Y109614D02*
D03*
X182649Y290869D02*
D03*
Y296578D02*
D03*
X231000Y293209D02*
D03*
Y287500D02*
D03*
X160500Y133646D02*
D03*
Y139354D02*
D03*
X183456Y81388D02*
D03*
Y87097D02*
D03*
X112157Y189433D02*
D03*
Y195142D02*
D03*
X101528D02*
D03*
Y189433D02*
D03*
X185189Y248636D02*
D03*
Y242927D02*
D03*
X208811Y344597D02*
D03*
Y338888D02*
D03*
X76000Y327646D02*
D03*
Y333354D02*
D03*
X256252Y300260D02*
D03*
Y294551D02*
D03*
X251134Y300260D02*
D03*
Y294551D02*
D03*
X258308Y241784D02*
D03*
Y247493D02*
D03*
X258592Y257534D02*
D03*
Y251825D02*
D03*
X262513Y257534D02*
D03*
Y251825D02*
D03*
X247814Y237213D02*
D03*
Y231504D02*
D03*
X243484Y237213D02*
D03*
Y231504D02*
D03*
X220005Y145954D02*
D03*
Y140245D02*
D03*
X165049Y236087D02*
D03*
Y230378D02*
D03*
X212179Y185102D02*
D03*
Y190811D02*
D03*
X200799Y290911D02*
D03*
Y296619D02*
D03*
X217295Y237646D02*
D03*
Y231937D02*
D03*
X160189Y236087D02*
D03*
Y230378D02*
D03*
X222394Y237465D02*
D03*
Y231756D02*
D03*
X219638Y258509D02*
D03*
Y264218D02*
D03*
X189988Y264245D02*
D03*
Y258537D02*
D03*
X236862Y270021D02*
D03*
Y275729D02*
D03*
X227778Y231120D02*
D03*
Y236829D02*
D03*
X252841Y215740D02*
D03*
Y221449D02*
D03*
X248195Y221545D02*
D03*
Y227253D02*
D03*
X158500Y149139D02*
D03*
Y143430D02*
D03*
D43*
X270666Y115542D02*
D03*
X276375D02*
D03*
X256359Y92801D02*
D03*
X250650D02*
D03*
X236959Y92313D02*
D03*
X242668D02*
D03*
X239373Y88180D02*
D03*
X245082D02*
D03*
X174346Y115909D02*
D03*
X180054D02*
D03*
X137650Y190516D02*
D03*
X143358D02*
D03*
X182531Y132839D02*
D03*
X176823D02*
D03*
X132925Y121500D02*
D03*
X138634D02*
D03*
X138854Y113500D02*
D03*
X133146D02*
D03*
X87376Y113439D02*
D03*
X93085D02*
D03*
X122157Y225087D02*
D03*
X127866D02*
D03*
X241001Y303311D02*
D03*
X235293D02*
D03*
X249190Y282445D02*
D03*
X243482D02*
D03*
X249185Y277023D02*
D03*
X243476D02*
D03*
X262497Y247406D02*
D03*
X268206D02*
D03*
X204625Y124644D02*
D03*
X198916D02*
D03*
X188240Y89464D02*
D03*
X193949D02*
D03*
X278354Y234500D02*
D03*
X272646D02*
D03*
X278354Y213000D02*
D03*
X272646D02*
D03*
X278354Y217500D02*
D03*
X272646D02*
D03*
X278354Y226000D02*
D03*
X272646D02*
D03*
X163523Y260365D02*
D03*
X157814D02*
D03*
X163472Y254459D02*
D03*
X157763D02*
D03*
X237384Y185424D02*
D03*
X243093D02*
D03*
X227646Y242144D02*
D03*
X233354D02*
D03*
X276409Y123904D02*
D03*
X270700D02*
D03*
X88437Y227917D02*
D03*
X82728D02*
D03*
X136469Y210398D02*
D03*
X142177D02*
D03*
X180347Y96520D02*
D03*
X174639D02*
D03*
X122492Y139807D02*
D03*
X116783D02*
D03*
X136469Y215516D02*
D03*
X142177D02*
D03*
X224176Y284020D02*
D03*
X218467D02*
D03*
X262729Y269406D02*
D03*
X257020D02*
D03*
X258935Y282445D02*
D03*
X253226D02*
D03*
X258935Y277023D02*
D03*
X253226D02*
D03*
X257020Y221449D02*
D03*
X262729D02*
D03*
X257020Y216344D02*
D03*
X262729D02*
D03*
X250646Y100605D02*
D03*
X256354D02*
D03*
X250650Y84927D02*
D03*
X256359D02*
D03*
X250650Y88864D02*
D03*
X256359D02*
D03*
X271311Y194534D02*
D03*
X265602D02*
D03*
X271311Y199374D02*
D03*
X265602D02*
D03*
X163893Y193181D02*
D03*
X169601D02*
D03*
X260911Y264908D02*
D03*
X266620D02*
D03*
X242968Y195964D02*
D03*
X248676D02*
D03*
X207788Y184435D02*
D03*
X202080D02*
D03*
X165508Y199079D02*
D03*
X159799D02*
D03*
D44*
X244854Y78705D02*
D03*
X230287D02*
D03*
D45*
X212551Y256461D02*
D03*
X196803D02*
D03*
X212551Y265909D02*
D03*
X196803D02*
D03*
D46*
X83220Y296393D02*
D03*
Y294425D02*
D03*
Y292456D02*
D03*
Y290488D02*
D03*
X90701D02*
D03*
Y292456D02*
D03*
Y294425D02*
D03*
Y296393D02*
D03*
D47*
X90506Y249768D02*
D03*
X93065D02*
D03*
X95624D02*
D03*
X98184D02*
D03*
X90506Y263154D02*
D03*
X93065D02*
D03*
X95624D02*
D03*
X98184D02*
D03*
D48*
X182649Y105807D02*
D03*
X172413Y105807D02*
D03*
Y109547D02*
D03*
X182649Y102067D02*
D03*
Y109547D02*
D03*
X172413Y102067D02*
D03*
D49*
X177531Y105807D02*
D03*
D50*
X191882Y286440D02*
D03*
X191882Y296676D02*
D03*
X195622D02*
D03*
X188142Y286440D02*
D03*
X195622D02*
D03*
X188142Y296676D02*
D03*
X257694Y236758D02*
D03*
X257694Y226522D02*
D03*
X253954D02*
D03*
X261434Y236758D02*
D03*
X253954D02*
D03*
X261434Y226522D02*
D03*
D51*
X191882Y291558D02*
D03*
X257694Y231640D02*
D03*
D52*
X146917Y128187D02*
D03*
X148886D02*
D03*
X150854D02*
D03*
X152823D02*
D03*
X154791D02*
D03*
Y139802D02*
D03*
X152823D02*
D03*
X150854D02*
D03*
X148886D02*
D03*
X146917D02*
D03*
X103500Y128386D02*
D03*
X105468D02*
D03*
X107437D02*
D03*
X109406D02*
D03*
X111374D02*
D03*
Y140000D02*
D03*
X109406D02*
D03*
X107437D02*
D03*
X105468D02*
D03*
X103500D02*
D03*
D53*
X106996Y214135D02*
D03*
D54*
X98040Y202521D02*
D03*
X100599D02*
D03*
X103158D02*
D03*
X105717D02*
D03*
X108276D02*
D03*
X110835D02*
D03*
X113394D02*
D03*
X115953D02*
D03*
X98040Y225750D02*
D03*
X100599D02*
D03*
X103158D02*
D03*
X105717D02*
D03*
X108276D02*
D03*
X110835D02*
D03*
X113394D02*
D03*
X115953D02*
D03*
D55*
X159693Y339592D02*
D03*
Y342151D02*
D03*
Y344710D02*
D03*
Y347269D02*
D03*
X146307Y339592D02*
D03*
Y342151D02*
D03*
Y344710D02*
D03*
Y347269D02*
D03*
X249193Y203161D02*
D03*
Y205720D02*
D03*
Y208279D02*
D03*
Y210839D02*
D03*
X235807Y203161D02*
D03*
Y205720D02*
D03*
Y208279D02*
D03*
Y210839D02*
D03*
D56*
X225892Y288056D02*
D03*
Y293174D02*
D03*
X218411D02*
D03*
Y290615D02*
D03*
Y288056D02*
D03*
D57*
X243752Y288548D02*
D03*
X246311D02*
D03*
X238634D02*
D03*
X241193D02*
D03*
Y296619D02*
D03*
X238634D02*
D03*
X246311D02*
D03*
X243752D02*
D03*
D58*
X241290Y262367D02*
D03*
Y263942D02*
D03*
Y265517D02*
D03*
Y267091D02*
D03*
Y268666D02*
D03*
Y270241D02*
D03*
X253102D02*
D03*
Y268666D02*
D03*
Y267091D02*
D03*
Y265517D02*
D03*
Y263942D02*
D03*
Y262367D02*
D03*
X250740Y243468D02*
D03*
Y245043D02*
D03*
Y246619D02*
D03*
Y248193D02*
D03*
Y249767D02*
D03*
Y251343D02*
D03*
X238928D02*
D03*
Y249767D02*
D03*
Y248193D02*
D03*
Y246619D02*
D03*
Y245043D02*
D03*
Y243468D02*
D03*
D59*
X243260Y272210D02*
D03*
X244834D02*
D03*
X246410D02*
D03*
X247983D02*
D03*
X249558D02*
D03*
X251133D02*
D03*
Y260398D02*
D03*
X249558D02*
D03*
X247983D02*
D03*
X246410D02*
D03*
X244834D02*
D03*
X243260D02*
D03*
X240897Y241499D02*
D03*
X242472D02*
D03*
X244047D02*
D03*
X245621D02*
D03*
X247196D02*
D03*
X248771D02*
D03*
Y253311D02*
D03*
X247196D02*
D03*
X245621D02*
D03*
X244047D02*
D03*
X242472D02*
D03*
X240897D02*
D03*
D60*
X247538Y101445D02*
D03*
X245570D02*
D03*
X243601D02*
D03*
X241633D02*
D03*
X239664D02*
D03*
X237696D02*
D03*
X235727D02*
D03*
X233759D02*
D03*
X231790D02*
D03*
X229822D02*
D03*
X227853D02*
D03*
X225885D02*
D03*
Y133335D02*
D03*
X227853D02*
D03*
X229822D02*
D03*
X231790D02*
D03*
X233759D02*
D03*
X235727D02*
D03*
X237696D02*
D03*
X239664D02*
D03*
X241633D02*
D03*
X243601D02*
D03*
X245570D02*
D03*
X247538D02*
D03*
D61*
X220767Y106563D02*
D03*
Y108531D02*
D03*
Y110500D02*
D03*
Y112469D02*
D03*
Y114437D02*
D03*
Y116405D02*
D03*
Y118374D02*
D03*
Y120343D02*
D03*
Y122311D02*
D03*
Y124279D02*
D03*
Y126248D02*
D03*
Y128217D02*
D03*
X252656D02*
D03*
Y126248D02*
D03*
Y124279D02*
D03*
Y122311D02*
D03*
Y120343D02*
D03*
Y118374D02*
D03*
Y116405D02*
D03*
Y114437D02*
D03*
Y112469D02*
D03*
Y110500D02*
D03*
Y108531D02*
D03*
Y106563D02*
D03*
D62*
X111761Y103883D02*
D03*
Y86083D02*
D03*
X137000Y105235D02*
D03*
Y87435D02*
D03*
D63*
X174165Y173429D02*
D03*
X209205D02*
D03*
X174165Y163429D02*
D03*
X209205D02*
D03*
X174165Y153429D02*
D03*
X209205D02*
D03*
X174165Y143429D02*
D03*
X209205D02*
D03*
D64*
X276055Y131891D02*
D03*
X262669D02*
D03*
D65*
X152243Y233331D02*
D03*
Y246717D02*
D03*
X275000Y267091D02*
D03*
Y253705D02*
D03*
D66*
X131100Y237500D02*
D03*
X117700D02*
D03*
X87300Y238000D02*
D03*
X100700D02*
D03*
D67*
X120852Y121592D02*
D03*
X128351D02*
D03*
X197845Y115776D02*
D03*
X190345D02*
D03*
D68*
X124601Y113593D02*
D03*
X194095Y123776D02*
D03*
D69*
X203927Y112690D02*
D03*
Y120190D02*
D03*
D70*
X211927Y116440D02*
D03*
D71*
X216000Y175854D02*
D03*
X221000D02*
D03*
X226000D02*
D03*
X231000D02*
D03*
X236000D02*
D03*
Y160500D02*
D03*
X231000D02*
D03*
X226000D02*
D03*
X221000D02*
D03*
X216000D02*
D03*
D72*
X133138Y129370D02*
D03*
Y138670D02*
D03*
X89736Y129370D02*
D03*
Y138670D02*
D03*
D73*
X266094Y101959D02*
D03*
Y99991D02*
D03*
Y98022D02*
D03*
Y96054D02*
D03*
Y94085D02*
D03*
Y92117D02*
D03*
Y90148D02*
D03*
Y88180D02*
D03*
Y86211D02*
D03*
Y84243D02*
D03*
Y82274D02*
D03*
Y80306D02*
D03*
X272630D02*
D03*
Y82274D02*
D03*
Y84243D02*
D03*
Y86211D02*
D03*
Y88180D02*
D03*
Y90148D02*
D03*
Y92117D02*
D03*
Y94085D02*
D03*
Y96054D02*
D03*
Y98022D02*
D03*
Y99991D02*
D03*
Y101959D02*
D03*
D74*
X278000Y204669D02*
D03*
X272000D02*
D03*
D75*
X29985Y318519D02*
D03*
Y312613D02*
D03*
X90898Y201933D02*
D03*
Y196028D02*
D03*
X194244Y99965D02*
D03*
Y94059D02*
D03*
D76*
X117043Y315207D02*
D03*
Y305758D02*
D03*
X109587Y315305D02*
D03*
Y305856D02*
D03*
D77*
X198500Y333272D02*
D03*
X218500D02*
D03*
X84500D02*
D03*
X104500D02*
D03*
D78*
X198500Y320272D02*
D03*
X218500D02*
D03*
X84500D02*
D03*
X104500D02*
D03*
D79*
X84402Y343013D02*
D03*
X95819D02*
D03*
D80*
X166900Y101209D02*
D03*
X149100D02*
D03*
D81*
X72000Y314700D02*
D03*
Y301300D02*
D03*
D82*
X164220Y162760D02*
D03*
X152220D02*
D03*
X132755Y162760D02*
D03*
X144755D02*
D03*
X136587Y150924D02*
D03*
X148587D02*
D03*
X156000Y117500D02*
D03*
X144000D02*
D03*
X93185Y150924D02*
D03*
X105185D02*
D03*
X123761Y162760D02*
D03*
X111761D02*
D03*
X93165D02*
D03*
X105165D02*
D03*
X113886Y117292D02*
D03*
X101886D02*
D03*
D83*
X208811Y235791D02*
D03*
X206842D02*
D03*
X204874D02*
D03*
X202906D02*
D03*
X200937D02*
D03*
X198969D02*
D03*
X197000D02*
D03*
X195031D02*
D03*
X193063D02*
D03*
X191095D02*
D03*
X189126D02*
D03*
X187157D02*
D03*
X185189D02*
D03*
X183221D02*
D03*
X181252D02*
D03*
X179283D02*
D03*
Y190516D02*
D03*
X181252D02*
D03*
X183221D02*
D03*
X185189D02*
D03*
X187157D02*
D03*
X189126D02*
D03*
X191095D02*
D03*
X193063D02*
D03*
X195031D02*
D03*
X197000D02*
D03*
X198969D02*
D03*
X200937D02*
D03*
X202906D02*
D03*
X204874D02*
D03*
X206842D02*
D03*
X208811D02*
D03*
D84*
X171409Y227917D02*
D03*
Y225949D02*
D03*
Y223980D02*
D03*
Y222012D02*
D03*
Y220043D02*
D03*
Y218075D02*
D03*
Y216106D02*
D03*
Y214138D02*
D03*
Y212169D02*
D03*
Y210201D02*
D03*
Y208232D02*
D03*
Y206264D02*
D03*
Y204295D02*
D03*
Y202327D02*
D03*
Y200358D02*
D03*
Y198390D02*
D03*
X216685D02*
D03*
Y200358D02*
D03*
Y202327D02*
D03*
Y204295D02*
D03*
Y206264D02*
D03*
Y208232D02*
D03*
Y210201D02*
D03*
Y216106D02*
D03*
Y218075D02*
D03*
Y220043D02*
D03*
Y222012D02*
D03*
Y223980D02*
D03*
Y225949D02*
D03*
Y227917D02*
D03*
Y212169D02*
D03*
Y214138D02*
D03*
D85*
X154087Y85732D02*
D03*
Y90732D02*
D03*
X173378Y85732D02*
D03*
X154087Y75732D02*
D03*
Y80732D02*
D03*
D86*
X173378Y75732D02*
D03*
Y80732D02*
D03*
Y90732D02*
D03*
D151*
X86961Y293440D02*
D03*
D152*
X150854Y133994D02*
D03*
X107437Y134193D02*
D03*
D153*
X173378Y80732D02*
X177064D01*
X182631Y86371D02*
X183357Y87097D01*
X177064Y80732D02*
X177692Y81360D01*
X182631Y86272D02*
Y86371D01*
X177692Y81360D02*
X177719D01*
X182631Y86272D01*
X183357Y87097D02*
X183456D01*
X173397Y254459D02*
Y260365D01*
X235288Y291970D02*
Y296676D01*
X197197D02*
X199165D01*
X195791D02*
X197197D01*
X173397Y253139D02*
Y254459D01*
X201470Y296676D02*
X205858D01*
X235131D01*
X235288D02*
Y303311D01*
X199165Y296676D02*
X200937D01*
X221922Y231658D02*
X222394D01*
X216488D02*
X221922D01*
X184038Y243980D02*
X185189Y242829D01*
X174247Y115909D02*
Y116106D01*
X171561Y119194D02*
Y122416D01*
X169535Y71812D02*
X172081D01*
X172110Y71840D02*
X174669D01*
X177459Y69050D01*
X172081Y71812D02*
X172110Y71840D01*
X80392Y257031D02*
Y261840D01*
X90760Y272209D02*
X100539D01*
X80392Y261840D02*
X90760Y272209D01*
X131189Y261240D02*
X144500Y247929D01*
X111507Y261240D02*
X131189D01*
X100539Y272209D02*
X111507Y261240D01*
X78494Y255133D02*
X80392Y257031D01*
X172081Y118272D02*
X174247Y116106D01*
X171841Y119194D02*
X172081Y118954D01*
Y118272D02*
Y118954D01*
X72916Y254435D02*
X73850D01*
X38850Y249435D02*
X67916D01*
X72916Y254435D01*
X73850D02*
X74548Y255133D01*
X78494D01*
X259216Y96054D02*
X266094D01*
X244508Y90374D02*
X245559D01*
X244508D02*
Y92700D01*
X244711Y92903D01*
X242766Y92412D02*
X242815Y92362D01*
X242668Y92215D02*
Y92313D01*
Y91558D02*
Y92215D01*
X244508Y90374D01*
X242668Y91558D02*
X244356Y89870D01*
Y88906D02*
Y89870D01*
Y88906D02*
X245082Y88180D01*
X253578Y96900D02*
X253584Y96906D01*
X256353D02*
X256359Y96912D01*
X253584Y96906D02*
X256353D01*
X204276Y124295D02*
X204625Y124644D01*
X204276Y120539D02*
Y124295D01*
X203927Y120190D02*
X204276Y120539D01*
X242668Y92313D02*
X242766Y92412D01*
X144500Y224996D02*
X147695Y221800D01*
X144500Y224996D02*
Y247929D01*
X110887Y225211D02*
Y229110D01*
X115250Y233473D01*
X110835Y225159D02*
X110887Y225211D01*
X115250Y235825D02*
X116900Y237475D01*
X115250Y233473D02*
Y235825D01*
X68850Y89435D02*
X73850Y94435D01*
X177459Y65989D02*
Y69050D01*
X256359Y96912D02*
X258358D01*
X259216Y96054D01*
X266094D02*
X272630D01*
X177039Y333039D02*
X190138Y346138D01*
X120637Y288607D02*
Y301574D01*
X117170Y285140D02*
X120637Y288607D01*
X117043Y305168D02*
X120637Y301574D01*
X108768Y285140D02*
X117170D01*
X114996Y293054D02*
X115839Y292212D01*
X110943Y293054D02*
X114996D01*
X109587Y294411D02*
X110943Y293054D01*
X117043Y305168D02*
Y305758D01*
X109587Y294411D02*
Y305856D01*
X83728Y342681D02*
Y350672D01*
X94240Y361185D02*
X209315D01*
X83728Y350672D02*
X94240Y361185D01*
X71606Y324571D02*
X75906Y320272D01*
X84500D01*
X163472Y254459D02*
X167465D01*
X163523Y260365D02*
X167492D01*
X185189Y242287D02*
Y242829D01*
X184038Y243980D02*
Y244215D01*
X179576Y248677D02*
X184038Y244215D01*
X177859Y248677D02*
X179576D01*
X173397Y253139D02*
X177859Y248677D01*
X173378Y75732D02*
X176724D01*
X180046Y79054D01*
X182226D01*
X182952Y79781D01*
X73181Y213766D02*
Y214435D01*
X208790Y338909D02*
X212945Y343063D01*
X203315Y333433D02*
X208790Y338909D01*
X76000Y333433D02*
X83516D01*
X212945Y343063D02*
Y357555D01*
X199008Y333433D02*
X203315D01*
X94201Y231264D02*
X94988Y230476D01*
X94201Y231264D02*
Y233528D01*
X71606Y324571D02*
Y343430D01*
X91723Y363547D01*
X68850Y219435D02*
X73850Y224435D01*
X33850D02*
X38850Y219435D01*
Y209435D02*
X68850D01*
X33850Y214435D02*
X38850Y209435D01*
X68850Y199435D02*
X73850Y204435D01*
X38850Y199435D02*
X68850D01*
X33850Y204435D02*
X38850Y199435D01*
X68850Y189435D02*
X73850Y194435D01*
X38850Y189435D02*
X68850D01*
X33850Y194435D02*
X38850Y189435D01*
X68850Y179435D02*
X73850Y184435D01*
X38850Y179435D02*
X68850D01*
X33850Y184435D02*
X38850Y179435D01*
X68850Y169435D02*
X73850Y174435D01*
X38850Y169435D02*
X68850D01*
X33850Y174435D02*
X38850Y169435D01*
X68850Y159435D02*
X73850Y164435D01*
X38850Y159435D02*
X68850D01*
X33850Y164435D02*
X38850Y159435D01*
X68850Y129435D02*
X73850Y134435D01*
X38850Y129435D02*
X68850D01*
X33850Y134435D02*
X38850Y129435D01*
X68850Y119435D02*
X73850Y124435D01*
X38850Y119435D02*
X68850D01*
X33850Y124435D02*
X38850Y119435D01*
X68850Y109435D02*
X73850Y114435D01*
X38850Y109435D02*
X68850D01*
X33850Y114435D02*
X38850Y109435D01*
X68850Y99435D02*
X73850Y104435D01*
X38850Y99435D02*
X68850D01*
X33850Y104435D02*
X38850Y99435D01*
Y89435D02*
X68850D01*
X33850Y94435D02*
X38850Y89435D01*
X68850Y79435D02*
X73850Y84435D01*
X38850Y79435D02*
X68850D01*
X33850Y84435D02*
X38850Y79435D01*
X33850Y254435D02*
X38850Y249435D01*
X68850Y149435D02*
X73850Y154435D01*
X38850Y149435D02*
X68850D01*
X33850Y154435D02*
X38850Y149435D01*
X94988Y230476D02*
X98630D01*
X100599Y228508D01*
X99910Y233134D02*
Y237169D01*
Y233134D02*
X103158Y229886D01*
Y225159D02*
Y229886D01*
X68850Y209435D02*
X73181Y213766D01*
X73850Y214435D01*
X112594Y153222D02*
X117712D01*
X83728Y333645D02*
Y342681D01*
X83516Y333433D02*
X83728Y333645D01*
X215145Y340481D02*
Y358466D01*
X219008Y333433D02*
Y336618D01*
X215145Y340481D02*
X219008Y336618D01*
X105185Y147514D02*
X106476D01*
X266094Y86211D02*
X272630D01*
X107000Y353500D02*
Y357055D01*
X108768Y358823D01*
X200607D01*
X202000Y357430D01*
Y348272D02*
Y357430D01*
X102177Y117292D02*
Y120240D01*
X272630Y86211D02*
X277854D01*
X272630Y96054D02*
X277407D01*
X38850Y219435D02*
X53850D01*
X68850D01*
X209315Y361185D02*
X212945Y357555D01*
X91723Y363547D02*
X210064D01*
X215145Y358466D01*
X108276Y200452D02*
Y202521D01*
X216488Y228114D02*
Y231658D01*
X106476Y147514D02*
X112594D01*
X100599Y225159D02*
Y225750D01*
Y228508D01*
X170603Y195831D02*
Y197602D01*
X171194Y198193D01*
X277854Y86211D02*
X279478Y87836D01*
Y93983D01*
X279285Y94177D02*
X279478Y93983D01*
X277407Y96054D02*
X277586Y95875D01*
X277628D01*
X279285Y94219D01*
Y94177D02*
Y94219D01*
X108276Y202521D02*
Y212856D01*
X106996Y214135D02*
X108276Y212856D01*
X195622Y296676D02*
X195622Y296676D01*
X196409Y297012D02*
X197197D01*
X190138Y346138D02*
X199866D01*
X202000Y348272D01*
X93678Y120240D02*
X102177D01*
X128796Y103894D02*
X129087Y103603D01*
D154*
X154698Y149139D02*
X158449D01*
X154698Y152889D02*
X158449Y149139D01*
X152243D02*
Y159104D01*
Y149139D02*
X154698D01*
X87722Y300161D02*
X92000Y304440D01*
X92079Y295437D02*
Y298587D01*
X87722Y300161D02*
X90504D01*
X148587Y162760D02*
Y163012D01*
Y162760D02*
X152243Y159104D01*
X148587Y150924D02*
Y162760D01*
X148441Y150778D02*
X148587Y150632D01*
X148295Y150924D02*
X148441Y150778D01*
X148441Y144540D02*
X151851Y147950D01*
X53890Y289501D02*
X66789Y302400D01*
X80438D02*
X82196Y300643D01*
Y295410D02*
Y300643D01*
X66789Y302400D02*
X80438D01*
X131100Y232400D02*
Y237500D01*
X132800Y235800D01*
Y233264D02*
Y235800D01*
Y233264D02*
X133664Y232400D01*
X129400Y235800D02*
X131100Y237500D01*
X129400Y233264D02*
Y235800D01*
X128536Y232400D02*
X129400Y233264D01*
X131100Y232400D02*
X133664D01*
X128536D02*
X131100D01*
X95819Y352319D02*
X97000Y353500D01*
X95819Y343013D02*
Y352319D01*
X151851Y147950D02*
X154698D01*
X149787Y149139D02*
X152243D01*
Y159104D02*
Y162738D01*
Y159104D02*
X154698Y156648D01*
X152220Y162760D02*
X152243Y162738D01*
X154698Y154435D02*
Y156648D01*
Y152889D02*
Y154435D01*
Y151112D02*
Y152889D01*
X158449Y149139D02*
X158500D01*
X154698D02*
Y151044D01*
Y147950D02*
Y149139D01*
X148587Y150632D02*
Y150924D01*
Y150339D02*
Y150632D01*
X149451Y149768D01*
X148587Y150339D02*
X149787Y149139D01*
X154664Y151078D02*
X154698Y151112D01*
X154664Y151078D02*
X154698Y151044D01*
X148441Y150778D02*
X148441D01*
X118562Y160398D02*
Y162760D01*
Y160398D02*
X122499D01*
X118562Y162760D02*
Y165193D01*
Y165248D02*
X122963D01*
X118562Y162760D02*
X123470D01*
X133046Y162760D02*
X137954D01*
X133553Y165248D02*
X137954D01*
X134017Y160398D02*
X137954D01*
Y162760D01*
Y165193D01*
X275000Y267091D02*
Y269311D01*
X161484Y165382D02*
X165421D01*
X161484Y163020D02*
Y165382D01*
X161764Y160327D02*
Y162760D01*
X53850Y244435D02*
X63850D01*
X43811Y234435D02*
X63850D01*
X43811Y224435D02*
X63850D01*
X43811Y214435D02*
X63850D01*
X43811Y154435D02*
X63850D01*
X43811Y164435D02*
X63850D01*
X43811Y184435D02*
X63850D01*
X43811Y194435D02*
X63850D01*
X43811Y114435D02*
X63850D01*
X43811Y124435D02*
X63850D01*
X43811Y134435D02*
X63850D01*
X43811Y144435D02*
X63850D01*
X43811Y74435D02*
X63850D01*
X43811Y84435D02*
X63850D01*
X43811Y94435D02*
X63850D01*
X53890Y264435D02*
Y289501D01*
X43811Y104435D02*
X53831D01*
X63850D01*
X43811Y174435D02*
X53831D01*
X63850D01*
X43811Y204435D02*
X53831D01*
X63850D01*
X90504Y300161D02*
X92079Y298587D01*
X43811Y244435D02*
X53850D01*
X137385Y153412D02*
X141786D01*
X137849Y148561D02*
X141786D01*
X136878Y150924D02*
X141786D01*
X141786Y148561D02*
Y150924D01*
Y153357D01*
X98365Y162760D02*
Y165193D01*
Y160398D02*
Y162760D01*
X93457Y162760D02*
X98365D01*
X94428Y160398D02*
X98365D01*
X93964Y165248D02*
X98365D01*
X98384Y150924D02*
Y153357D01*
Y148561D02*
Y150924D01*
X93476Y150924D02*
X98384D01*
X94447Y148561D02*
X98384D01*
X93984Y153412D02*
X98384D01*
D155*
X85276Y278000D02*
X130481D01*
X151920Y299439D02*
X175636D01*
X130481Y278000D02*
X151920Y299439D01*
X83811Y279465D02*
Y282825D01*
Y279465D02*
X85276Y278000D01*
X148587Y162760D02*
X149877D01*
X148335D02*
X148587D01*
X148076D02*
X148335D01*
X175636Y299439D02*
X178575Y296500D01*
X182473D01*
X105717Y189532D02*
Y198980D01*
X104874Y162760D02*
X106476D01*
X105717Y163602D02*
Y175358D01*
X106476Y162760D02*
X112053D01*
X105717Y175358D02*
Y189532D01*
D156*
X86926Y292456D02*
X86961Y292490D01*
X85437Y290967D02*
X86926Y292456D01*
X93065Y249768D02*
Y254352D01*
X90898Y256520D02*
X93065Y254352D01*
X90409Y256520D02*
X90898D01*
X118829Y67506D02*
X139716D01*
X240897Y253311D02*
Y256363D01*
X238928Y249767D02*
X238930Y249769D01*
X242428D01*
X242447Y249788D01*
X272000Y204719D02*
X275590Y208310D01*
Y221484D01*
X275063Y222012D02*
X275590Y221484D01*
X269967Y222012D02*
X275063D01*
X272000Y204669D02*
Y204719D01*
X250740Y248193D02*
X257609D01*
X258308Y247493D01*
X262513Y247422D02*
Y251825D01*
X262497Y247406D02*
X262513Y247422D01*
X255307Y255224D02*
X258706Y251825D01*
X262513D01*
X249958Y255224D02*
X255307D01*
X248771Y253311D02*
Y254038D01*
X249958Y255224D01*
X253102Y262367D02*
X256932D01*
X257544Y262979D01*
X259080D01*
X260911Y264810D01*
Y264908D01*
X250740Y251343D02*
X250742Y251344D01*
X252841D01*
X253498Y252000D01*
X254000D01*
X254705Y267091D02*
X257020Y269406D01*
X253102Y267091D02*
X254705D01*
D157*
X257849Y120539D02*
X260898D01*
X262996Y118111D02*
X266162Y121278D01*
X252919Y118111D02*
X262996D01*
X252656Y118374D02*
X252919Y118111D01*
X257652Y120343D02*
X257849Y120539D01*
X252656Y120343D02*
X257652D01*
X244799Y268676D02*
Y269252D01*
X243260Y272210D02*
X243299Y272170D01*
Y270944D02*
Y272170D01*
Y270944D02*
X243426Y270818D01*
Y270626D02*
Y270818D01*
Y270626D02*
X244799Y269252D01*
X241290Y268666D02*
X241301Y268676D01*
X244799D01*
X244809Y268686D01*
X242428Y249769D02*
Y250363D01*
X240897Y253311D02*
X240937Y253272D01*
Y252046D02*
Y253272D01*
Y252046D02*
X241059Y251924D01*
Y251732D02*
Y251924D01*
Y251732D02*
X242428Y250363D01*
D158*
X208936Y108776D02*
X210660Y110500D01*
X220767D01*
D159*
X105690Y228901D02*
X105702Y228888D01*
X105690Y232786D02*
X105717Y232813D01*
X105702Y225764D02*
Y228888D01*
X105690Y228901D02*
Y232786D01*
X108290Y225764D02*
Y229978D01*
X108276Y225750D02*
X108290Y225764D01*
X105702D02*
X105717Y225750D01*
Y198980D02*
Y203112D01*
D160*
X113408Y228378D02*
X115506Y230476D01*
X122141D01*
X123761Y232097D02*
Y237064D01*
X122141Y230476D02*
X123761Y232097D01*
X113408Y225763D02*
Y228378D01*
X123761Y239627D02*
Y242191D01*
Y237064D02*
Y239627D01*
X113394Y225750D02*
X113408Y225763D01*
D161*
X157000Y332973D02*
X159693Y335666D01*
Y339592D01*
X146307Y332393D02*
Y339592D01*
Y332393D02*
X147000Y331700D01*
X157000D02*
Y332973D01*
X161484Y163020D02*
X161484Y163020D01*
D162*
X148587Y163012D02*
Y170240D01*
Y175358D01*
D163*
X143944Y117556D02*
X145447Y119059D01*
X110000Y103894D02*
X128796D01*
X139776Y108790D02*
Y113439D01*
X138720Y107734D02*
X139776Y108790D01*
X138720Y106955D02*
Y107734D01*
X137000Y105235D02*
X138720Y106955D01*
X139936Y113547D02*
X143944Y117556D01*
X136713Y103894D02*
X137527Y104708D01*
X107594Y103894D02*
X110000D01*
X63850Y254435D02*
Y255500D01*
Y264435D01*
X63000D02*
X63850D01*
X43811Y254435D02*
Y264435D01*
X103496Y107992D02*
X107594Y103894D01*
X43811Y264435D02*
X53890D01*
X63000D01*
X103496Y107992D02*
Y118665D01*
X128796Y103894D02*
X136713D01*
D164*
X130661Y78035D02*
X139044D01*
D165*
X156454Y133219D02*
D03*
Y134794D02*
D03*
Y136369D02*
D03*
Y131644D02*
D03*
X145254D02*
D03*
Y136369D02*
D03*
Y134794D02*
D03*
Y133219D02*
D03*
X113037Y133418D02*
D03*
Y134993D02*
D03*
Y136567D02*
D03*
Y131843D02*
D03*
X101837D02*
D03*
Y136567D02*
D03*
Y134993D02*
D03*
Y133418D02*
D03*
D166*
X149877Y155687D02*
D03*
X106476D02*
D03*
D167*
X150620Y151253D02*
D03*
D168*
X151605Y149028D02*
D03*
D169*
X157778Y88193D02*
D03*
Y78193D02*
D03*
D170*
X155510Y117091D02*
D03*
D171*
X146592Y118764D02*
D03*
X103191D02*
D03*
D172*
X105484Y126379D02*
D03*
X109422D02*
D03*
X152843Y126452D02*
D03*
X105484Y141610D02*
D03*
X148886D02*
D03*
D173*
X93056Y128187D02*
D03*
X93073Y140039D02*
D03*
X136458Y128187D02*
D03*
Y139802D02*
D03*
D174*
X104684Y125356D02*
D03*
X148085D02*
D03*
X106285Y143445D02*
D03*
X149687D02*
D03*
D175*
X110222Y125356D02*
D03*
X104684Y142633D02*
D03*
X148345Y142698D02*
D03*
D176*
X112089Y118764D02*
D03*
D177*
X149870Y120277D02*
D03*
D178*
X149854Y128840D02*
D03*
D179*
X155313Y123759D02*
D03*
D180*
X104768Y154986D02*
D03*
D181*
X159363Y122472D02*
D03*
D182*
X154534Y122209D02*
D03*
D183*
X173956Y94896D02*
D03*
D184*
X143585Y78194D02*
D03*
D185*
X120661Y78035D02*
D03*
X130661D02*
D03*
X140661D02*
D03*
X96803Y54886D02*
D03*
X106803D02*
D03*
X86803D02*
D03*
D186*
X120661Y58035D02*
D03*
X140661D02*
D03*
D187*
X43500Y74500D02*
D03*
X33500D02*
D03*
Y254500D02*
D03*
Y234500D02*
D03*
Y84500D02*
D03*
Y224500D02*
D03*
Y214500D02*
D03*
Y204500D02*
D03*
Y194500D02*
D03*
Y184500D02*
D03*
Y244500D02*
D03*
Y174500D02*
D03*
Y164500D02*
D03*
Y154500D02*
D03*
Y144500D02*
D03*
X33500Y134500D02*
D03*
X33500Y124500D02*
D03*
Y114500D02*
D03*
Y104500D02*
D03*
Y94500D02*
D03*
X43500D02*
D03*
Y104500D02*
D03*
Y114500D02*
D03*
Y124500D02*
D03*
X43500Y134500D02*
D03*
X43500Y144500D02*
D03*
Y154500D02*
D03*
Y164500D02*
D03*
Y174500D02*
D03*
Y244500D02*
D03*
Y184500D02*
D03*
Y194500D02*
D03*
Y204500D02*
D03*
Y214500D02*
D03*
Y224500D02*
D03*
Y84500D02*
D03*
Y234500D02*
D03*
Y254500D02*
D03*
Y264500D02*
D03*
X90478Y76146D02*
D03*
X177000Y311600D02*
D03*
Y321600D02*
D03*
X157000Y311600D02*
D03*
Y321600D02*
D03*
X127000Y311600D02*
D03*
X137000Y321600D02*
D03*
Y311600D02*
D03*
X147000Y321600D02*
D03*
Y311600D02*
D03*
X167000D02*
D03*
Y321600D02*
D03*
X184100Y74100D02*
D03*
X117000Y353500D02*
D03*
X187000D02*
D03*
X177000D02*
D03*
X167000D02*
D03*
X157000D02*
D03*
X147000D02*
D03*
X137000D02*
D03*
X127000D02*
D03*
X107000D02*
D03*
X197000D02*
D03*
X207000D02*
D03*
X167000Y331700D02*
D03*
X137000D02*
D03*
X147000D02*
D03*
X157000D02*
D03*
X177000D02*
D03*
X115839Y292212D02*
D03*
X108768Y285140D02*
D03*
X262050Y54000D02*
D03*
Y64000D02*
D03*
X272050Y54000D02*
D03*
Y64000D02*
D03*
X242050Y54000D02*
D03*
Y64000D02*
D03*
X252050Y54000D02*
D03*
Y64000D02*
D03*
X222050Y54000D02*
D03*
Y64000D02*
D03*
X232050Y54000D02*
D03*
Y64000D02*
D03*
X202050Y54000D02*
D03*
X212050D02*
D03*
Y64000D02*
D03*
X192050Y54000D02*
D03*
X182050Y64000D02*
D03*
Y54000D02*
D03*
D188*
X33500Y264500D02*
D03*
D189*
X100478Y76146D02*
D03*
X127000Y321600D02*
D03*
X194100Y74100D02*
D03*
X97000Y353500D02*
D03*
X187000Y331700D02*
D03*
D190*
X68713Y55262D02*
D03*
X159264Y55262D02*
D03*
Y283608D02*
D03*
X68713D02*
D03*
D191*
X63850Y74435D02*
D03*
Y84435D02*
D03*
Y94435D02*
D03*
Y104435D02*
D03*
Y114435D02*
D03*
Y124435D02*
D03*
Y134435D02*
D03*
Y144435D02*
D03*
Y154435D02*
D03*
Y164435D02*
D03*
Y174435D02*
D03*
Y184435D02*
D03*
Y194435D02*
D03*
Y204435D02*
D03*
Y214435D02*
D03*
Y224435D02*
D03*
Y234435D02*
D03*
Y244435D02*
D03*
Y254435D02*
D03*
Y264435D02*
D03*
X73850Y74435D02*
D03*
Y84435D02*
D03*
Y94435D02*
D03*
Y104435D02*
D03*
Y114435D02*
D03*
Y124435D02*
D03*
Y134435D02*
D03*
Y144435D02*
D03*
Y154435D02*
D03*
Y164435D02*
D03*
Y174435D02*
D03*
Y184435D02*
D03*
Y194435D02*
D03*
Y204435D02*
D03*
Y214435D02*
D03*
Y224435D02*
D03*
Y234435D02*
D03*
Y244435D02*
D03*
Y254435D02*
D03*
D192*
Y264435D02*
D03*
D193*
X260898Y81684D02*
D03*
Y100582D02*
D03*
X277827Y81684D02*
D03*
Y100582D02*
D03*
D194*
X269362Y105896D02*
D03*
D195*
Y76369D02*
D03*
D196*
X148587Y175358D02*
D03*
X138744D02*
D03*
X104933D02*
D03*
X95091D02*
D03*
D197*
X101697Y278069D02*
D03*
D198*
X104500Y135594D02*
D03*
X110406Y132395D02*
D03*
X107453D02*
D03*
X110406Y135594D02*
D03*
X104500Y132395D02*
D03*
X107453Y135594D02*
D03*
X99319Y135819D02*
D03*
Y132395D02*
D03*
X116092Y132420D02*
D03*
Y135595D02*
D03*
X96255Y133994D02*
D03*
X93302D02*
D03*
X90350D02*
D03*
X119044Y135595D02*
D03*
Y132395D02*
D03*
X133751Y133994D02*
D03*
X136704D02*
D03*
X139657D02*
D03*
X142676Y132470D02*
D03*
Y135613D02*
D03*
X98138Y209336D02*
D03*
Y218935D02*
D03*
Y215735D02*
D03*
Y212536D02*
D03*
X115855Y209336D02*
D03*
Y218935D02*
D03*
Y215735D02*
D03*
Y212536D02*
D03*
X121997Y132395D02*
D03*
Y135595D02*
D03*
X130738Y133969D02*
D03*
X127726Y133944D02*
D03*
X87397Y133994D02*
D03*
X101091Y209336D02*
D03*
Y212536D02*
D03*
Y215735D02*
D03*
Y218935D02*
D03*
X106996Y212536D02*
D03*
X104043D02*
D03*
X109949D02*
D03*
Y215735D02*
D03*
X104043D02*
D03*
X106996D02*
D03*
Y218935D02*
D03*
X104043D02*
D03*
X109949D02*
D03*
X106996Y209336D02*
D03*
X109949D02*
D03*
X104043D02*
D03*
X112902D02*
D03*
Y218935D02*
D03*
Y215735D02*
D03*
Y212536D02*
D03*
X150854Y132395D02*
D03*
X147902Y135594D02*
D03*
Y132395D02*
D03*
X150854Y135594D02*
D03*
X153807Y132395D02*
D03*
Y135594D02*
D03*
X204934Y301251D02*
D03*
X201178Y303271D02*
D03*
X230985Y300712D02*
D03*
X214243Y252000D02*
D03*
X211824Y249244D02*
D03*
X77800Y312684D02*
D03*
Y315646D02*
D03*
X25700Y85912D02*
D03*
X26000Y132341D02*
D03*
X25700Y180454D02*
D03*
Y215584D02*
D03*
Y264400D02*
D03*
X27300Y295500D02*
D03*
X46007Y296732D02*
D03*
X169820Y265522D02*
D03*
X160003Y247141D02*
D03*
X164525Y249793D02*
D03*
X95097Y199086D02*
D03*
X94936Y186683D02*
D03*
X130084Y150721D02*
D03*
Y146112D02*
D03*
X86803Y150311D02*
D03*
Y145025D02*
D03*
X83098Y162760D02*
D03*
X88000Y42385D02*
D03*
X144000D02*
D03*
X168241Y42607D02*
D03*
X173901Y42798D02*
D03*
X212592Y79143D02*
D03*
X216285Y76369D02*
D03*
X259443Y105409D02*
D03*
X262694Y105212D02*
D03*
X278500Y107306D02*
D03*
X275286Y105212D02*
D03*
X261828Y75000D02*
D03*
X277407D02*
D03*
X274093D02*
D03*
X265012D02*
D03*
X274093Y78032D02*
D03*
X265012Y78228D02*
D03*
X235772Y127457D02*
D03*
X250742Y175870D02*
D03*
X249078Y179854D02*
D03*
X274160Y130994D02*
D03*
X154480Y70900D02*
D03*
X185798Y123360D02*
D03*
X255388Y202089D02*
D03*
X104349Y87598D02*
D03*
Y84284D02*
D03*
X124647Y91680D02*
D03*
X169667Y76752D02*
D03*
X161000Y70900D02*
D03*
X173619Y68823D02*
D03*
X192703Y127994D02*
D03*
X209434Y122797D02*
D03*
X249800Y143100D02*
D03*
X232774Y141805D02*
D03*
X235000Y139000D02*
D03*
X221395Y131465D02*
D03*
X240000Y160000D02*
D03*
X239602Y139354D02*
D03*
X243601Y143240D02*
D03*
X236776Y156234D02*
D03*
X195165Y132854D02*
D03*
X191053Y148512D02*
D03*
X193654Y140973D02*
D03*
X188029Y144633D02*
D03*
X187661Y137291D02*
D03*
X109949Y268689D02*
D03*
X114906Y273772D02*
D03*
X117961Y243600D02*
D03*
Y247929D02*
D03*
X125249Y264732D02*
D03*
X128084Y267255D02*
D03*
X87964Y274045D02*
D03*
X105163Y273370D02*
D03*
X93065Y267255D02*
D03*
X99953Y256461D02*
D03*
X90409Y256520D02*
D03*
X276000Y360000D02*
D03*
X272000Y352000D02*
D03*
X276000Y344000D02*
D03*
X272000Y336000D02*
D03*
X276000Y328000D02*
D03*
X272000Y320000D02*
D03*
X276000Y312000D02*
D03*
X272000Y304000D02*
D03*
X276000Y296000D02*
D03*
X272000Y288000D02*
D03*
X276000Y280000D02*
D03*
X272000Y272000D02*
D03*
X268000Y360000D02*
D03*
X264000Y352000D02*
D03*
X268000Y344000D02*
D03*
X264000Y336000D02*
D03*
X268000Y328000D02*
D03*
X264000Y320000D02*
D03*
X268000Y312000D02*
D03*
X264000Y304000D02*
D03*
X268000Y296000D02*
D03*
X260000Y360000D02*
D03*
Y328000D02*
D03*
X252000Y360000D02*
D03*
X244000D02*
D03*
X240000Y352000D02*
D03*
X244000Y328000D02*
D03*
X236000Y360000D02*
D03*
X232000Y352000D02*
D03*
X236000Y344000D02*
D03*
X232000Y336000D02*
D03*
X236000Y328000D02*
D03*
X232000Y320000D02*
D03*
X236000Y312000D02*
D03*
X228000Y360000D02*
D03*
X224000Y352000D02*
D03*
X228000Y344000D02*
D03*
Y328000D02*
D03*
X224000Y320000D02*
D03*
X228000Y312000D02*
D03*
X224000Y304000D02*
D03*
X220000Y360000D02*
D03*
Y344000D02*
D03*
Y328000D02*
D03*
Y312000D02*
D03*
X216000Y304000D02*
D03*
X212000Y328000D02*
D03*
Y312000D02*
D03*
X204000Y280000D02*
D03*
Y152000D02*
D03*
X184000Y320000D02*
D03*
X168000Y272000D02*
D03*
X148000Y264000D02*
D03*
X144000Y256000D02*
D03*
Y48000D02*
D03*
X140000Y280000D02*
D03*
Y264000D02*
D03*
X120000Y336000D02*
D03*
Y176000D02*
D03*
X124000Y72000D02*
D03*
X112000Y336000D02*
D03*
Y176000D02*
D03*
X108000Y328000D02*
D03*
X88000Y48000D02*
D03*
X84000Y328000D02*
D03*
Y312000D02*
D03*
X80000Y160000D02*
D03*
Y64000D02*
D03*
X76000Y360000D02*
D03*
X72000Y352000D02*
D03*
X68000Y360000D02*
D03*
X64000Y352000D02*
D03*
X68000Y344000D02*
D03*
Y328000D02*
D03*
X60000Y360000D02*
D03*
Y328000D02*
D03*
X56000Y256000D02*
D03*
Y64000D02*
D03*
Y48000D02*
D03*
X52000Y360000D02*
D03*
Y296000D02*
D03*
X44000Y360000D02*
D03*
X40000Y352000D02*
D03*
Y336000D02*
D03*
X44000Y328000D02*
D03*
X40000Y320000D02*
D03*
X36000Y360000D02*
D03*
X32000Y352000D02*
D03*
X36000Y344000D02*
D03*
X32000Y336000D02*
D03*
X36000Y328000D02*
D03*
Y312000D02*
D03*
X32000Y272000D02*
D03*
X190323Y267136D02*
D03*
X185700Y217386D02*
D03*
X188697Y228857D02*
D03*
X182952Y228373D02*
D03*
X176659Y201565D02*
D03*
X179323Y204546D02*
D03*
X176664Y207285D02*
D03*
X178689Y218200D02*
D03*
X176051Y105599D02*
D03*
X171841Y119194D02*
D03*
X156654Y95757D02*
D03*
X153514Y94291D02*
D03*
X106512Y98427D02*
D03*
X215356Y260684D02*
D03*
X278594Y258478D02*
D03*
X269556Y257984D02*
D03*
X255395Y259025D02*
D03*
X240937Y257534D02*
D03*
X237009Y254600D02*
D03*
X224254Y246963D02*
D03*
X217295Y235579D02*
D03*
X128536Y232400D02*
D03*
X131100D02*
D03*
X133664D02*
D03*
X259402Y125842D02*
D03*
X260898Y120539D02*
D03*
X263900Y125700D02*
D03*
X270765Y127994D02*
D03*
X256353Y103863D02*
D03*
X245600Y106700D02*
D03*
X246309Y93047D02*
D03*
X253578Y96900D02*
D03*
X250542Y80306D02*
D03*
X254119Y74533D02*
D03*
X250542Y76369D02*
D03*
X222394Y103124D02*
D03*
X201300Y128114D02*
D03*
X187667Y132395D02*
D03*
X208936Y108776D02*
D03*
X227232Y127240D02*
D03*
X198323Y107500D02*
D03*
X198100Y111100D02*
D03*
X227905Y122383D02*
D03*
X258972Y131891D02*
D03*
X150524Y227187D02*
D03*
X180175Y91680D02*
D03*
X139716Y67506D02*
D03*
X112157Y243409D02*
D03*
Y240845D02*
D03*
Y238281D02*
D03*
Y235718D02*
D03*
X106996Y243482D02*
D03*
Y240918D02*
D03*
Y238355D02*
D03*
Y235791D02*
D03*
X136000Y247621D02*
D03*
X138744Y227329D02*
D03*
X132236Y215485D02*
D03*
X140500Y220800D02*
D03*
X153572Y260000D02*
D03*
Y254542D02*
D03*
X147695Y221800D02*
D03*
X123761Y234500D02*
D03*
Y237064D02*
D03*
Y239627D02*
D03*
Y242191D02*
D03*
X173700Y65100D02*
D03*
X179283Y72606D02*
D03*
X125949Y83660D02*
D03*
X154000Y107500D02*
D03*
X82100Y153321D02*
D03*
X82028Y74500D02*
D03*
X123700Y44637D02*
D03*
X231836Y124822D02*
D03*
X214800Y72400D02*
D03*
X214673Y68868D02*
D03*
X276457Y93047D02*
D03*
X259048Y112142D02*
D03*
X262354D02*
D03*
X259900Y96100D02*
D03*
X256359Y96912D02*
D03*
X236981Y169630D02*
D03*
X190864Y159567D02*
D03*
X189500Y121308D02*
D03*
X242050Y122205D02*
D03*
Y125700D02*
D03*
X262354Y92117D02*
D03*
X237009Y257632D02*
D03*
X244809Y268686D02*
D03*
X249579Y268691D02*
D03*
X249584Y263921D02*
D03*
X244814Y263916D02*
D03*
X242452Y245018D02*
D03*
X242447Y249788D02*
D03*
X247217Y249793D02*
D03*
X247222Y245023D02*
D03*
X244047Y205180D02*
D03*
X251129Y200373D02*
D03*
X247222Y216840D02*
D03*
X215450Y271703D02*
D03*
X219008Y268282D02*
D03*
X214243Y288741D02*
D03*
X214520Y293054D02*
D03*
X214374Y282445D02*
D03*
X221690Y279691D02*
D03*
X224643Y274300D02*
D03*
X244487Y219059D02*
D03*
X240787Y237213D02*
D03*
X193797Y202928D02*
D03*
X198078Y207989D02*
D03*
Y217386D02*
D03*
X192500Y196000D02*
D03*
X238928Y199827D02*
D03*
X201649Y205589D02*
D03*
X211824Y199079D02*
D03*
X211704Y180721D02*
D03*
X258444Y212974D02*
D03*
X261240Y210295D02*
D03*
X257500Y230870D02*
D03*
X201922Y181566D02*
D03*
X104631Y305612D02*
D03*
Y308764D02*
D03*
Y311915D02*
D03*
Y315067D02*
D03*
X103510Y326760D02*
D03*
X95394Y301654D02*
D03*
X181210Y243044D02*
D03*
X185000Y252549D02*
D03*
X207573Y225087D02*
D03*
X83811Y279465D02*
D03*
Y282825D02*
D03*
X152709Y201933D02*
D03*
Y205429D02*
D03*
X159264Y194146D02*
D03*
X156686Y216344D02*
D03*
X161842Y206654D02*
D03*
X156150Y226520D02*
D03*
X163852Y226244D02*
D03*
X127000Y336824D02*
D03*
X138000Y342190D02*
D03*
X98000Y333000D02*
D03*
X254000Y273000D02*
D03*
X221922Y233626D02*
D03*
X221690Y200500D02*
D03*
X205780Y214496D02*
D03*
X160189Y238744D02*
D03*
X165542D02*
D03*
X177012Y240701D02*
D03*
X198078Y245830D02*
D03*
X204934Y244256D02*
D03*
X191076Y283621D02*
D03*
X209091Y215485D02*
D03*
X211704Y224603D02*
D03*
X204500Y211000D02*
D03*
X205780Y205720D02*
D03*
X196500Y196000D02*
D03*
X125093Y174965D02*
D03*
X78693Y292287D02*
D03*
X240734Y273500D02*
D03*
X269967Y234527D02*
D03*
Y226098D02*
D03*
Y230500D02*
D03*
X274715Y199459D02*
D03*
Y194776D02*
D03*
X269967Y222012D02*
D03*
X277000Y239000D02*
D03*
X269967Y217386D02*
D03*
X261634Y241784D02*
D03*
X256921Y265517D02*
D03*
X254000Y252000D02*
D03*
X228384Y225231D02*
D03*
X221922Y239531D02*
D03*
X269967Y212818D02*
D03*
X225892Y204669D02*
D03*
X222500D02*
D03*
X227905Y208000D02*
D03*
X259402Y194640D02*
D03*
X188108Y103364D02*
D03*
X162000Y146000D02*
D03*
X154664Y151078D02*
D03*
X154698Y154435D02*
D03*
Y147950D02*
D03*
X95185Y203112D02*
D03*
X138535Y302551D02*
D03*
X147695Y215516D02*
D03*
X147500Y212000D02*
D03*
X157977Y185543D02*
D03*
X154283Y188927D02*
D03*
X193654Y144540D02*
D03*
X165573Y103705D02*
D03*
Y100582D02*
D03*
Y97437D02*
D03*
X167814Y93666D02*
D03*
X176051Y102253D02*
D03*
X168241Y119054D02*
D03*
X189329Y78705D02*
D03*
X195745Y101766D02*
D03*
X209402Y209336D02*
D03*
X226751Y214965D02*
D03*
X225892Y171993D02*
D03*
X203559Y173684D02*
D03*
X195745Y169078D02*
D03*
X167814Y176736D02*
D03*
X143000Y197918D02*
D03*
X141113Y201259D02*
D03*
X144500D02*
D03*
X156437Y106148D02*
D03*
X159264Y103364D02*
D03*
X159250Y106148D02*
D03*
X26000Y43000D02*
D03*
X278500Y45500D02*
D03*
X276030Y42500D02*
D03*
X221500Y226500D02*
D03*
X171500Y237000D02*
D03*
X173500Y241000D02*
D03*
X122500Y198874D02*
D03*
X90898Y206163D02*
D03*
X90974Y229761D02*
D03*
X118562Y160398D02*
D03*
Y162760D02*
D03*
X137954Y160398D02*
D03*
Y162760D02*
D03*
X275000Y269311D02*
D03*
X92000Y304440D02*
D03*
X94201Y241205D02*
D03*
Y238646D02*
D03*
Y233528D02*
D03*
Y236087D02*
D03*
X256347Y298173D02*
D03*
X251129D02*
D03*
X161484Y165382D02*
D03*
Y163020D02*
D03*
X231029Y291331D02*
D03*
X161764Y160272D02*
D03*
X153890Y120240D02*
D03*
X154087Y114121D02*
D03*
Y117287D02*
D03*
X122547Y143429D02*
D03*
X125777Y153321D02*
D03*
X226500Y284000D02*
D03*
X53850Y244435D02*
D03*
X219638Y255500D02*
D03*
X222500Y195000D02*
D03*
X246000Y164000D02*
D03*
Y166500D02*
D03*
Y169150D02*
D03*
X79823Y327528D02*
D03*
X86961Y292490D02*
D03*
Y295410D02*
D03*
X122394Y128114D02*
D03*
X230985Y255392D02*
D03*
X231055Y222012D02*
D03*
Y228785D02*
D03*
X97188Y192198D02*
D03*
X118851Y117593D02*
D03*
X110685Y114121D02*
D03*
X95185Y218935D02*
D03*
Y215735D02*
D03*
Y212536D02*
D03*
X118807Y218935D02*
D03*
Y215735D02*
D03*
Y212536D02*
D03*
X121760Y218935D02*
D03*
X110685Y117287D02*
D03*
Y120453D02*
D03*
X148587Y170240D02*
D03*
X199547Y228785D02*
D03*
X124713Y215735D02*
D03*
Y218935D02*
D03*
X121760Y215735D02*
D03*
Y212536D02*
D03*
X94635Y224374D02*
D03*
X276457Y89124D02*
D03*
X274337Y248744D02*
D03*
X136173Y117973D02*
D03*
X53831Y204435D02*
D03*
X55071Y43643D02*
D03*
X53850Y219435D02*
D03*
X53831Y174435D02*
D03*
Y139694D02*
D03*
Y104435D02*
D03*
X191882Y291558D02*
D03*
X188535D02*
D03*
X118807Y209336D02*
D03*
X95185D02*
D03*
X121760D02*
D03*
X124713Y212536D02*
D03*
Y209336D02*
D03*
X227905Y218584D02*
D03*
X251205Y277023D02*
D03*
X222787Y149826D02*
D03*
X219112Y147950D02*
D03*
X222394Y145607D02*
D03*
X215570Y149492D02*
D03*
X215087Y145831D02*
D03*
X90110Y302524D02*
D03*
X87722Y300161D02*
D03*
X83811Y287169D02*
D03*
X193654Y241894D02*
D03*
X193063Y230083D02*
D03*
X170603Y195831D02*
D03*
X190504Y247406D02*
D03*
X172591Y133232D02*
D03*
X138535Y297406D02*
D03*
X120819Y183232D02*
D03*
Y186776D02*
D03*
X141786Y148561D02*
D03*
Y153412D02*
D03*
Y150924D02*
D03*
X98365Y162760D02*
D03*
Y160398D02*
D03*
X98384Y150924D02*
D03*
Y153412D02*
D03*
Y148561D02*
D03*
X207600Y247141D02*
D03*
X200799Y288741D02*
D03*
X201470Y265774D02*
D03*
X206252Y256461D02*
D03*
X179480Y227329D02*
D03*
X138535Y210398D02*
D03*
X129480Y197366D02*
D03*
X129495Y201435D02*
D03*
X125093Y180870D02*
D03*
X125191Y190309D02*
D03*
X177209Y125358D02*
D03*
X96409Y113439D02*
D03*
X116135Y189532D02*
D03*
X238142Y263941D02*
D03*
X262513Y260451D02*
D03*
X262945Y272650D02*
D03*
X261852Y282445D02*
D03*
X261764Y276933D02*
D03*
X249130Y288548D02*
D03*
X243752Y299439D02*
D03*
X238634D02*
D03*
X221231Y290615D02*
D03*
X90898Y287563D02*
D03*
X29985Y322342D02*
D03*
D199*
X202050Y64000D02*
D03*
X192050D02*
D03*
M02*
