G04*
G04 #@! TF.GenerationSoftware,Altium Limited,Altium Designer,20.0.13 (296)*
G04*
G04 Layer_Color=65535*
%FSLAX25Y25*%
%MOIN*%
G70*
G01*
G75*
%ADD10C,0.00000*%
%ADD11C,0.00787*%
%ADD12C,0.00500*%
%ADD13C,0.01000*%
%ADD14C,0.00800*%
D10*
X439200Y252193D02*
G03*
X439200Y252193I-787J0D01*
G01*
D11*
X405819Y274063D02*
X484559D01*
X405819D02*
Y281937D01*
X484559D01*
Y274063D02*
Y281937D01*
X468264Y238319D02*
X469445D01*
X468264Y240681D02*
X469445D01*
X460319Y241910D02*
Y243091D01*
X462681Y241910D02*
Y243091D01*
X455319Y241910D02*
Y243091D01*
X457681Y241910D02*
Y243091D01*
X454681Y231410D02*
Y232591D01*
X452319Y231410D02*
Y232591D01*
X447181Y231410D02*
Y232591D01*
X444819Y231410D02*
Y232591D01*
X469819Y264409D02*
Y265591D01*
X472181Y264409D02*
Y265591D01*
X464819Y264409D02*
Y265591D01*
X467181Y264409D02*
Y265591D01*
X459819Y264409D02*
Y265591D01*
X462181Y264409D02*
Y265591D01*
X454819Y264409D02*
Y265591D01*
X457181Y264409D02*
Y265591D01*
X446819Y264409D02*
Y265591D01*
X449181Y264409D02*
Y265591D01*
X441819Y264409D02*
Y265591D01*
X444181Y264409D02*
Y265591D01*
X434319Y264409D02*
Y265591D01*
X436681Y264409D02*
Y265591D01*
X429319Y264409D02*
Y265591D01*
X431681Y264409D02*
Y265591D01*
X431055Y250819D02*
X432236D01*
X431055Y253181D02*
X432236D01*
X431055Y245819D02*
X432236D01*
X431055Y248181D02*
X432236D01*
X430909Y238819D02*
X432091D01*
X430909Y241181D02*
X432091D01*
X430909Y233819D02*
X432091D01*
X430909Y236181D02*
X432091D01*
D12*
X451406Y250224D02*
Y251406D01*
Y239594D02*
Y240776D01*
X439594Y239594D02*
Y240776D01*
Y239594D02*
X440776D01*
X450224D02*
X451406D01*
X450224Y251406D02*
X451406D01*
X439594D02*
X440776D01*
X439594Y250224D02*
Y251406D01*
D13*
X447538Y286334D02*
X446871Y285668D01*
Y284335D01*
X447538Y283668D01*
X448204D01*
X448871Y284335D01*
Y285668D01*
X449537Y286334D01*
X450204D01*
X450870Y285668D01*
Y284335D01*
X450204Y283668D01*
X447538Y290333D02*
X446871Y289666D01*
Y288334D01*
X447538Y287667D01*
X450204D01*
X450870Y288334D01*
Y289666D01*
X450204Y290333D01*
X446871Y291666D02*
X450870D01*
Y294332D01*
X423249Y284002D02*
Y285334D01*
Y284668D01*
X427248D01*
Y284002D01*
Y285334D01*
X423249Y289333D02*
Y288000D01*
X423916Y287334D01*
X426582D01*
X427248Y288000D01*
Y289333D01*
X426582Y290000D01*
X423916D01*
X423249Y289333D01*
X427248Y293998D02*
Y291333D01*
X424582Y293998D01*
X423916D01*
X423249Y293332D01*
Y291999D01*
X423916Y291333D01*
X431123Y284668D02*
Y286001D01*
Y285334D01*
X435122D01*
Y284668D01*
Y286001D01*
X431123Y290000D02*
Y288667D01*
X431790Y288000D01*
X434456D01*
X435122Y288667D01*
Y290000D01*
X434456Y290666D01*
X431790D01*
X431123Y290000D01*
X435122Y291999D02*
Y293332D01*
Y292666D01*
X431123D01*
X431790Y291999D01*
X439664Y286334D02*
X438997Y285668D01*
Y284335D01*
X439664Y283668D01*
X440330D01*
X440997Y284335D01*
Y285668D01*
X441663Y286334D01*
X442330D01*
X442996Y285668D01*
Y284335D01*
X442330Y283668D01*
X438997Y287667D02*
X442996D01*
Y289666D01*
X442330Y290333D01*
X439664D01*
X438997Y289666D01*
Y287667D01*
X442996Y291666D02*
X440330D01*
X438997Y292999D01*
X440330Y294332D01*
X442996D01*
X440997D01*
Y291666D01*
X416042Y286334D02*
X415375Y285668D01*
Y284335D01*
X416042Y283668D01*
X418708D01*
X419374Y284335D01*
Y285668D01*
X418708Y286334D01*
X417375D01*
Y285001D01*
X419374Y287667D02*
X415375D01*
X419374Y290333D01*
X415375D01*
Y291666D02*
X419374D01*
Y293665D01*
X418708Y294332D01*
X416042D01*
X415375Y293665D01*
Y291666D01*
X470493Y284002D02*
Y285334D01*
Y284668D01*
X474492D01*
Y284002D01*
Y285334D01*
Y287334D02*
X470493D01*
X474492Y290000D01*
X470493D01*
Y291333D02*
Y293998D01*
Y292666D01*
X474492D01*
X408168Y286334D02*
X407501Y285668D01*
Y284335D01*
X408168Y283668D01*
X410834D01*
X411500Y284335D01*
Y285668D01*
X410834Y286334D01*
X409501D01*
Y285001D01*
X411500Y287667D02*
X407501D01*
X411500Y290333D01*
X407501D01*
Y291666D02*
X411500D01*
Y293665D01*
X410834Y294332D01*
X408168D01*
X407501Y293665D01*
Y291666D01*
D14*
X479701Y283752D02*
X479201Y284251D01*
Y285251D01*
X479701Y285751D01*
X480201D01*
X480700Y285251D01*
Y284751D01*
Y285251D01*
X481200Y285751D01*
X481700D01*
X482200Y285251D01*
Y284251D01*
X481700Y283752D01*
X482200Y286751D02*
X481700D01*
Y287251D01*
X482200D01*
Y286751D01*
X479701Y289250D02*
X479201Y289750D01*
Y290749D01*
X479701Y291249D01*
X480201D01*
X480700Y290749D01*
Y290250D01*
Y290749D01*
X481200Y291249D01*
X481700D01*
X482200Y290749D01*
Y289750D01*
X481700Y289250D01*
X479201Y292249D02*
X481200D01*
X482200Y293249D01*
X481200Y294248D01*
X479201D01*
X458200Y284002D02*
X456201D01*
X455201Y285001D01*
X456201Y286001D01*
X458200D01*
X456701D01*
Y284002D01*
X455701Y289000D02*
X455201Y288500D01*
Y287501D01*
X455701Y287001D01*
X456201D01*
X456701Y287501D01*
Y288500D01*
X457200Y289000D01*
X457700D01*
X458200Y288500D01*
Y287501D01*
X457700Y287001D01*
X455201Y290000D02*
X458200D01*
Y291499D01*
X457700Y291999D01*
X455701D01*
X455201Y291499D01*
Y290000D01*
X458200Y292999D02*
X456201D01*
X455201Y293999D01*
X456201Y294998D01*
X458200D01*
X456701D01*
Y292999D01*
X466074Y284002D02*
X464075D01*
X463075Y285001D01*
X464075Y286001D01*
X466074D01*
X464574D01*
Y284002D01*
X463575Y289000D02*
X463075Y288500D01*
Y287501D01*
X463575Y287001D01*
X464075D01*
X464574Y287501D01*
Y288500D01*
X465074Y289000D01*
X465574D01*
X466074Y288500D01*
Y287501D01*
X465574Y287001D01*
X463575Y291999D02*
X463075Y291499D01*
Y290500D01*
X463575Y290000D01*
X465574D01*
X466074Y290500D01*
Y291499D01*
X465574Y291999D01*
X463075Y292999D02*
X466074D01*
X465074D01*
X463075Y294998D01*
X464574Y293499D01*
X466074Y294998D01*
X476001Y269001D02*
Y272000D01*
X477500D01*
X478000Y271500D01*
Y270500D01*
X477500Y270000D01*
X476001D01*
X479000Y269001D02*
X479999D01*
X479499D01*
Y272000D01*
X479000Y271500D01*
X467001Y242500D02*
Y245499D01*
X468500D01*
X469000Y245000D01*
Y244000D01*
X468500Y243500D01*
X467001D01*
X468001D02*
X469000Y242500D01*
X470000Y245499D02*
X471999D01*
Y245000D01*
X470000Y243000D01*
Y242500D01*
X460500Y252000D02*
X460001Y251500D01*
Y250500D01*
X460500Y250001D01*
X462500D01*
X462999Y250500D01*
Y251500D01*
X462500Y252000D01*
X462999Y253000D02*
Y253999D01*
Y253500D01*
X460001D01*
X460500Y253000D01*
X455500Y251500D02*
X455000Y251000D01*
Y250001D01*
X455500Y249501D01*
X457500D01*
X458000Y250001D01*
Y251000D01*
X457500Y251500D01*
X458000Y254499D02*
Y252500D01*
X456000Y254499D01*
X455500D01*
X455000Y253999D01*
Y253000D01*
X455500Y252500D01*
X458999Y227751D02*
X456001D01*
Y229251D01*
X456500Y229751D01*
X457500D01*
X458000Y229251D01*
Y227751D01*
Y228751D02*
X458999Y229751D01*
Y230750D02*
Y231750D01*
Y231250D01*
X456001D01*
X456500Y230750D01*
X458999Y234749D02*
X456001D01*
X457500Y233249D01*
Y235249D01*
X440500Y232000D02*
X440000Y231500D01*
Y230501D01*
X440500Y230001D01*
X442500D01*
X443000Y230501D01*
Y231500D01*
X442500Y232000D01*
X440500Y233000D02*
X440000Y233500D01*
Y234499D01*
X440500Y234999D01*
X441000D01*
X441500Y234499D01*
Y233999D01*
Y234499D01*
X442000Y234999D01*
X442500D01*
X443000Y234499D01*
Y233500D01*
X442500Y233000D01*
X485499Y260751D02*
X482501D01*
Y262251D01*
X483000Y262751D01*
X484000D01*
X484500Y262251D01*
Y260751D01*
Y261751D02*
X485499Y262751D01*
Y263750D02*
Y264750D01*
Y264250D01*
X482501D01*
X483000Y263750D01*
X482501Y268249D02*
Y266249D01*
X484000D01*
X483500Y267249D01*
Y267749D01*
X484000Y268249D01*
X485000D01*
X485499Y267749D01*
Y266749D01*
X485000Y266249D01*
X481000Y261001D02*
X478000D01*
Y262500D01*
X478500Y263000D01*
X479500D01*
X480000Y262500D01*
Y261001D01*
Y262000D02*
X481000Y263000D01*
X478500Y264000D02*
X478000Y264500D01*
Y265499D01*
X478500Y265999D01*
X479000D01*
X479500Y265499D01*
Y265000D01*
Y265499D01*
X480000Y265999D01*
X480500D01*
X481000Y265499D01*
Y264500D01*
X480500Y264000D01*
X476500Y261001D02*
X473500D01*
Y262500D01*
X474000Y263000D01*
X475000D01*
X475500Y262500D01*
Y261001D01*
Y262000D02*
X476500Y263000D01*
Y265499D02*
X473500D01*
X475000Y264000D01*
Y265999D01*
X427000Y262501D02*
X424001D01*
Y264000D01*
X424500Y264500D01*
X425500D01*
X426000Y264000D01*
Y262501D01*
Y263500D02*
X427000Y264500D01*
Y265500D02*
Y266499D01*
Y266000D01*
X424001D01*
X424500Y265500D01*
X424001Y269998D02*
X424500Y268999D01*
X425500Y267999D01*
X426500D01*
X427000Y268499D01*
Y269498D01*
X426500Y269998D01*
X426000D01*
X425500Y269498D01*
Y267999D01*
X422500Y262501D02*
X419500D01*
Y264000D01*
X420000Y264500D01*
X421000D01*
X421500Y264000D01*
Y262501D01*
Y263500D02*
X422500Y264500D01*
Y265500D02*
Y266499D01*
Y266000D01*
X419500D01*
X420000Y265500D01*
X418000Y262501D02*
X415000D01*
Y264000D01*
X415500Y264500D01*
X416500D01*
X417000Y264000D01*
Y262501D01*
Y263500D02*
X418000Y264500D01*
Y265500D02*
Y266499D01*
Y266000D01*
X415000D01*
X415500Y265500D01*
X418000Y269998D02*
Y267999D01*
X416000Y269998D01*
X415500D01*
X415000Y269498D01*
Y268499D01*
X415500Y267999D01*
X413499Y262501D02*
X410500D01*
Y264000D01*
X411000Y264500D01*
X412000D01*
X412500Y264000D01*
Y262501D01*
Y263500D02*
X413499Y264500D01*
Y265500D02*
Y266499D01*
Y266000D01*
X410500D01*
X411000Y265500D01*
Y267999D02*
X410500Y268499D01*
Y269498D01*
X411000Y269998D01*
X411500D01*
X412000Y269498D01*
Y268999D01*
Y269498D01*
X412500Y269998D01*
X413000D01*
X413499Y269498D01*
Y268499D01*
X413000Y267999D01*
X408999Y262501D02*
X406001D01*
Y264000D01*
X406500Y264500D01*
X407500D01*
X408000Y264000D01*
Y262501D01*
Y263500D02*
X408999Y264500D01*
Y267499D02*
Y265500D01*
X407000Y267499D01*
X406500D01*
X406001Y266999D01*
Y266000D01*
X406500Y265500D01*
X418001Y251000D02*
Y253999D01*
X419500D01*
X420000Y253500D01*
Y252500D01*
X419500Y252000D01*
X418001D01*
X419000D02*
X420000Y251000D01*
X422999Y253999D02*
X421000D01*
Y252500D01*
X422000Y253000D01*
X422499D01*
X422999Y252500D01*
Y251500D01*
X422499Y251000D01*
X421500D01*
X421000Y251500D01*
X418001Y245500D02*
Y248499D01*
X419500D01*
X420000Y248000D01*
Y247000D01*
X419500Y246500D01*
X418001D01*
X419000D02*
X420000Y245500D01*
X421000D02*
X422000D01*
X421500D01*
Y248499D01*
X421000Y248000D01*
X423499Y248499D02*
X425498D01*
Y248000D01*
X423499Y246000D01*
Y245500D01*
X418001Y239001D02*
Y242000D01*
X419500D01*
X420000Y241500D01*
Y240500D01*
X419500Y240000D01*
X418001D01*
X419000D02*
X420000Y239001D01*
X422999Y242000D02*
X422000Y241500D01*
X421000Y240500D01*
Y239500D01*
X421500Y239001D01*
X422499D01*
X422999Y239500D01*
Y240000D01*
X422499Y240500D01*
X421000D01*
X418001Y233501D02*
Y236500D01*
X419500D01*
X420000Y236000D01*
Y235000D01*
X419500Y234500D01*
X418001D01*
X419000D02*
X420000Y233501D01*
X421000D02*
X422000D01*
X421500D01*
Y236500D01*
X421000Y236000D01*
X423499D02*
X423999Y236500D01*
X424999D01*
X425498Y236000D01*
Y235500D01*
X424999Y235000D01*
X425498Y234500D01*
Y234000D01*
X424999Y233501D01*
X423999D01*
X423499Y234000D01*
Y234500D01*
X423999Y235000D01*
X423499Y235500D01*
Y236000D01*
X423999Y235000D02*
X424999D01*
X438400Y258999D02*
Y256500D01*
X438900Y256000D01*
X439899D01*
X440399Y256500D01*
Y258999D01*
X441399Y256000D02*
X442399D01*
X441899D01*
Y258999D01*
X441399Y258499D01*
M02*
