G04*
G04 #@! TF.GenerationSoftware,Altium Limited,Altium Designer,20.0.13 (296)*
G04*
G04 Layer_Physical_Order=1*
G04 Layer_Color=255*
%FSLAX25Y25*%
%MOIN*%
G70*
G01*
G75*
%ADD13C,0.01000*%
%ADD14C,0.00800*%
%ADD15R,0.02953X0.03150*%
%ADD16R,0.03150X0.02953*%
G04:AMPARAMS|DCode=17|XSize=23.62mil|YSize=9.06mil|CornerRadius=4.53mil|HoleSize=0mil|Usage=FLASHONLY|Rotation=270.000|XOffset=0mil|YOffset=0mil|HoleType=Round|Shape=RoundedRectangle|*
%AMROUNDEDRECTD17*
21,1,0.02362,0.00000,0,0,270.0*
21,1,0.01456,0.00906,0,0,270.0*
1,1,0.00906,0.00000,-0.00728*
1,1,0.00906,0.00000,0.00728*
1,1,0.00906,0.00000,0.00728*
1,1,0.00906,0.00000,-0.00728*
%
%ADD17ROUNDEDRECTD17*%
G04:AMPARAMS|DCode=18|XSize=23.62mil|YSize=9.06mil|CornerRadius=4.53mil|HoleSize=0mil|Usage=FLASHONLY|Rotation=180.000|XOffset=0mil|YOffset=0mil|HoleType=Round|Shape=RoundedRectangle|*
%AMROUNDEDRECTD18*
21,1,0.02362,0.00000,0,0,180.0*
21,1,0.01456,0.00906,0,0,180.0*
1,1,0.00906,-0.00728,0.00000*
1,1,0.00906,0.00728,0.00000*
1,1,0.00906,0.00728,0.00000*
1,1,0.00906,-0.00728,0.00000*
%
%ADD18ROUNDEDRECTD18*%
%ADD25C,0.01500*%
%ADD26C,0.05906*%
%ADD27R,0.05906X0.05906*%
%ADD28C,0.01968*%
D13*
X472748Y273252D02*
Y278000D01*
Y273252D02*
X476000Y270000D01*
Y234000D02*
Y270000D01*
X471146Y229146D02*
X476000Y234000D01*
X453500Y229146D02*
X471146D01*
D14*
X466000Y262146D02*
X471000D01*
X454000Y251303D02*
Y252000D01*
X451406Y249437D02*
X452134D01*
X454000Y251303D01*
X446500Y247500D02*
X447862Y248862D01*
Y251406D01*
X450000Y255500D02*
X451500D01*
X447862Y253362D02*
X450000Y255500D01*
X447862Y251406D02*
Y253362D01*
X428646Y235000D02*
X429000D01*
X425500D02*
X428646D01*
X422500Y238000D02*
Y272000D01*
Y238000D02*
X425500Y235000D01*
X442500Y232000D02*
X466000D01*
X441563Y232937D02*
Y239594D01*
Y232937D02*
X442500Y232000D01*
X466000Y273000D02*
X469500D01*
X471000Y267854D02*
Y271500D01*
X469500Y273000D02*
X471000Y271500D01*
X465153Y273847D02*
X466000Y273000D01*
X445143Y241700D02*
Y242016D01*
X444733Y241290D02*
X445143Y241700D01*
X444733Y239614D02*
Y241290D01*
X444713Y239594D02*
X444733Y239614D01*
X443158Y243158D02*
X444000Y244000D01*
X443158Y239614D02*
Y243158D01*
X444000Y244000D02*
X447761D01*
X450076Y241685D01*
X445098Y234854D02*
X445211D01*
X446287Y235931D01*
Y239594D01*
X450000Y235000D02*
Y235783D01*
X447882Y237900D02*
X450000Y235783D01*
X447882Y237900D02*
Y239574D01*
X447862Y239594D02*
X447882Y239574D01*
X422500Y272000D02*
X424527Y274027D01*
Y277023D02*
X425504Y278000D01*
X424527Y274027D02*
Y277023D01*
X433378Y273378D02*
Y278000D01*
X432500Y272500D02*
X433378Y273378D01*
X427000Y272500D02*
X432500D01*
X424000Y269500D02*
X427000Y272500D01*
X424000Y249000D02*
Y269500D01*
Y249000D02*
X426000Y247000D01*
X428791D01*
X443138Y239594D02*
X443158Y239614D01*
X451386Y241583D02*
X451406Y241563D01*
X450231Y241583D02*
X451386D01*
X450129Y241685D02*
X450231Y241583D01*
X450076Y241685D02*
X450129D01*
X464874Y278000D02*
X465153Y277721D01*
Y273847D02*
Y277721D01*
X457000Y268854D02*
Y278000D01*
X456000Y267854D02*
X457000Y268854D01*
X443000Y271874D02*
X449126Y278000D01*
X443000Y267854D02*
Y271874D01*
X441252Y273508D02*
Y278000D01*
X435598Y267854D02*
X441252Y273508D01*
X435500Y267854D02*
X435598D01*
X434500Y247000D02*
Y252000D01*
X466000Y256500D02*
Y262146D01*
Y256500D02*
X469000Y253500D01*
Y235000D02*
Y253500D01*
X466000Y232000D02*
X469000Y235000D01*
X449437Y238866D02*
Y239594D01*
Y238866D02*
X452325Y235978D01*
Y235931D02*
Y235978D01*
Y235931D02*
X453402Y234854D01*
X453500D01*
X435213Y246287D02*
X439594D01*
X434500Y247000D02*
X435213Y246287D01*
X430500Y262146D02*
X435500D01*
X441563Y251406D02*
Y256181D01*
X435598Y262146D02*
X441563Y256181D01*
X435500Y262146D02*
X435598D01*
X456000D02*
X461000D01*
X455902D02*
X456000D01*
X452256Y258500D02*
X455902Y262146D01*
X449000Y258500D02*
X452256D01*
X446287Y255787D02*
X449000Y258500D01*
X446287Y251406D02*
Y255787D01*
X443000Y262146D02*
X448000D01*
X443138Y251406D02*
Y262008D01*
X443000Y262146D02*
X443138Y262008D01*
D15*
X466000Y239500D02*
D03*
X471709D02*
D03*
X428791Y252000D02*
D03*
X434500D02*
D03*
X428791Y247000D02*
D03*
X434500D02*
D03*
X428646Y240000D02*
D03*
X434354D02*
D03*
X428646Y235000D02*
D03*
X434354D02*
D03*
D16*
X461500Y245354D02*
D03*
Y239646D02*
D03*
X456500Y245354D02*
D03*
Y239646D02*
D03*
X453500Y229146D02*
D03*
Y234854D02*
D03*
X446000Y229146D02*
D03*
Y234854D02*
D03*
X471000Y267854D02*
D03*
Y262146D02*
D03*
X466000Y267854D02*
D03*
Y262146D02*
D03*
X461000Y267854D02*
D03*
Y262146D02*
D03*
X456000Y267854D02*
D03*
Y262146D02*
D03*
X448000Y267854D02*
D03*
Y262146D02*
D03*
X443000Y267854D02*
D03*
Y262146D02*
D03*
X435500Y267854D02*
D03*
Y262146D02*
D03*
X430500Y267854D02*
D03*
Y262146D02*
D03*
D17*
X441563Y251406D02*
D03*
X443138D02*
D03*
X444713D02*
D03*
X446287D02*
D03*
X447862D02*
D03*
X449437D02*
D03*
Y239594D02*
D03*
X447862D02*
D03*
X446287D02*
D03*
X444713D02*
D03*
X443138D02*
D03*
X441563D02*
D03*
D18*
X451406Y249437D02*
D03*
Y247862D02*
D03*
Y246287D02*
D03*
Y244713D02*
D03*
Y243138D02*
D03*
Y241563D02*
D03*
X439594D02*
D03*
Y243138D02*
D03*
Y244713D02*
D03*
Y246287D02*
D03*
Y247862D02*
D03*
Y249437D02*
D03*
D25*
X471709Y239500D02*
Y242354D01*
X461500Y245354D02*
Y248209D01*
X456500Y245354D02*
Y248209D01*
X434354Y235000D02*
X437500D01*
X443146Y229146D02*
X446000D01*
X434354Y235000D02*
Y240000D01*
X428646D02*
Y242854D01*
X428791Y252000D02*
Y254854D01*
X466000Y267854D02*
Y270709D01*
X461000Y267854D02*
Y270709D01*
X448000Y267854D02*
X450854D01*
X427646D02*
X430500D01*
X461500Y239573D02*
X465927D01*
X456573D02*
X461500D01*
X453323Y239646D02*
X456500D01*
X451837Y241132D02*
X453323Y239646D01*
X451837Y241132D02*
Y241266D01*
X465927Y239573D02*
X466000Y239500D01*
X456500Y239646D02*
X456573Y239573D01*
D26*
X464874Y278000D02*
D03*
X409756D02*
D03*
X417630D02*
D03*
X425504D02*
D03*
X433378D02*
D03*
X441252D02*
D03*
X449126D02*
D03*
X457000D02*
D03*
X472748D02*
D03*
D27*
X480622D02*
D03*
D28*
X454000Y252000D02*
D03*
X471709Y242354D02*
D03*
X446500Y247500D02*
D03*
X451500Y255500D02*
D03*
X461500Y248209D02*
D03*
X456500D02*
D03*
X437500Y235000D02*
D03*
X443146Y229146D02*
D03*
X428646Y242854D02*
D03*
X428791Y254854D02*
D03*
X466000Y270709D02*
D03*
X461000D02*
D03*
X450854Y267854D02*
D03*
X427646D02*
D03*
X445143Y242016D02*
D03*
X450000Y235000D02*
D03*
M02*
